<?xml version="1.0" encoding="utf-8"?>
<!-- Generator: Adobe Illustrator 15.1.0, SVG Export Plug-In . SVG Version: 6.00 Build 0)  -->
<!DOCTYPE svg PUBLIC "-//W3C//DTD SVG 1.1 Tiny//EN" "http://www.w3.org/Graphics/SVG/1.1/DTD/svg11-tiny.dtd">
<svg version="1.1" baseProfile="tiny" id="Layer_1" xmlns="http://www.w3.org/2000/svg" xmlns:xlink="http://www.w3.org/1999/xlink"
	 x="0px" y="0px" width="372px" height="36px" viewBox="0 0 372 36" overflow="inherit" xml:space="preserve">
<g>
	<path fill="none" d="M183.251,31.398c0.247,0,0.508-0.051,0.73-0.152c0.196-0.119,0.434-0.252,0.633-0.447
		c0.194-0.195,0.379-0.432,0.539-0.709c0.143-0.307,0.304-0.599,0.431-0.966c0.099-0.376,0.223-0.745,0.288-1.133
		c0.041-0.418,0.097-0.751,0.097-1.091c-0.023-0.539-0.077-0.94-0.23-1.205c-0.165-0.297-0.394-0.397-0.725-0.397
		c-0.268,0-0.523,0.089-0.78,0.267c-0.268,0.154-0.537,0.461-0.844,0.852c-0.336,0.384-0.543,0.775-0.714,1.155
		c-0.196,0.355-0.305,0.816-0.403,1.309l-0.062,0.323v0.002c-0.055,0.27-0.084,0.48-0.097,0.623
		c-0.017,0.134-0.019,0.286-0.019,0.425c-0.032,0.382,0.086,0.691,0.259,0.873C182.509,31.299,182.827,31.398,183.251,31.398z"/>
	<path fill="none" d="M218.251,31.398c0.247,0,0.508-0.051,0.729-0.152c0.196-0.119,0.435-0.252,0.633-0.447
		c0.195-0.195,0.38-0.432,0.539-0.709c0.144-0.307,0.305-0.599,0.432-0.966c0.1-0.376,0.223-0.745,0.288-1.133
		c0.041-0.418,0.097-0.751,0.097-1.091c-0.023-0.539-0.076-0.94-0.23-1.205c-0.164-0.297-0.393-0.397-0.725-0.397
		c-0.268,0-0.522,0.089-0.779,0.267c-0.269,0.154-0.537,0.461-0.844,0.852c-0.336,0.384-0.543,0.775-0.715,1.155
		c-0.195,0.355-0.305,0.816-0.402,1.309l-0.062,0.323v0.002c-0.055,0.27-0.084,0.48-0.098,0.623
		c-0.016,0.134-0.018,0.286-0.018,0.425c-0.033,0.382,0.086,0.691,0.258,0.873C217.509,31.299,217.827,31.398,218.251,31.398z"/>
	<path fill="none" d="M182.311,6.403v0.002c-0.055,0.27-0.084,0.479-0.097,0.623c-0.017,0.134-0.019,0.286-0.019,0.425
		c-0.032,0.382,0.086,0.691,0.259,0.873c0.155,0.173,0.473,0.272,0.897,0.272c0.247,0,0.508-0.051,0.73-0.152
		c0.196-0.119,0.434-0.252,0.633-0.447c0.194-0.196,0.379-0.432,0.539-0.709c0.143-0.308,0.304-0.599,0.431-0.966
		c0.099-0.376,0.223-0.745,0.288-1.133c0.041-0.418,0.097-0.752,0.097-1.092c-0.023-0.539-0.077-0.939-0.23-1.205
		c-0.165-0.297-0.394-0.396-0.725-0.396c-0.268,0-0.523,0.089-0.78,0.266c-0.268,0.155-0.537,0.461-0.844,0.853
		c-0.336,0.384-0.543,0.774-0.714,1.155c-0.196,0.355-0.305,0.816-0.403,1.309L182.311,6.403z"/>
	<path fill="none" d="M59.407,11.714c0.136,0.12,0.36,0.187,0.666,0.187c0.285,0,0.594-0.098,0.855-0.293
		c0.252-0.196,0.485-0.449,0.672-0.766c0.188-0.33,0.334-0.67,0.439-1.063c0.093-0.421,0.159-0.791,0.159-1.192
		c-0.033-0.425-0.059-0.693-0.173-0.891c-0.124-0.229-0.3-0.295-0.552-0.295c-0.195,0-0.359,0.055-0.562,0.164
		c-0.207,0.088-0.404,0.271-0.604,0.486c-0.201,0.198-0.381,0.482-0.547,0.801c-0.187,0.3-0.301,0.681-0.4,1.094h-0.001
		c-0.05,0.185-0.064,0.396-0.102,0.591c-0.057,0.181-0.056,0.373-0.056,0.539C59.2,11.352,59.27,11.589,59.407,11.714z"/>
	<path fill="none" d="M51.111,6.403v0.002c-0.055,0.27-0.084,0.479-0.097,0.623c-0.017,0.134-0.019,0.286-0.019,0.425
		c-0.032,0.382,0.086,0.691,0.259,0.873c0.155,0.173,0.473,0.272,0.897,0.272c0.247,0,0.508-0.051,0.729-0.152
		c0.196-0.119,0.434-0.252,0.633-0.447c0.194-0.196,0.379-0.432,0.539-0.709c0.143-0.308,0.304-0.599,0.431-0.966
		c0.099-0.376,0.223-0.745,0.288-1.133c0.041-0.418,0.097-0.752,0.097-1.092c-0.023-0.539-0.077-0.939-0.23-1.205
		c-0.166-0.297-0.394-0.396-0.725-0.396c-0.268,0-0.523,0.089-0.78,0.266c-0.268,0.155-0.537,0.461-0.844,0.853
		C51.954,4,51.747,4.391,51.576,4.771c-0.196,0.355-0.305,0.816-0.403,1.309L51.111,6.403z"/>
	<path fill="none" d="M228.031,31.26c0.02-0.206,0.045-0.363,0.045-0.529c-0.026-0.308-0.071-0.51-0.213-0.639
		c-0.162-0.159-0.364-0.191-0.67-0.191c-0.254,0-0.43,0.048-0.623,0.145c-0.215,0.081-0.367,0.229-0.526,0.395
		c-0.173,0.153-0.299,0.36-0.422,0.58c-0.13,0.213-0.228,0.451-0.312,0.695c-0.088,0.24-0.148,0.496-0.192,0.755
		c-0.05,0.235-0.066,0.507-0.066,0.744c-0.017,0.396,0.058,0.699,0.173,0.894c0.107,0.192,0.303,0.293,0.559,0.293
		c0.1,0,0.252-0.022,0.369-0.067c0.103-0.055,0.246-0.115,0.379-0.211c0.322-0.263,0.615-0.568,0.848-0.937
		c0.208-0.396,0.41-0.802,0.527-1.303C227.957,31.625,228.001,31.445,228.031,31.26z"/>
	<path fill="none" d="M227.193,7.2c-0.254,0-0.43,0.048-0.623,0.145c-0.215,0.081-0.367,0.229-0.526,0.396
		c-0.173,0.152-0.299,0.359-0.422,0.58c-0.13,0.212-0.228,0.451-0.312,0.694c-0.088,0.24-0.148,0.496-0.192,0.755
		c-0.05,0.235-0.066,0.507-0.066,0.744c-0.017,0.396,0.058,0.699,0.173,0.895c0.107,0.191,0.303,0.292,0.559,0.292
		c0.1,0,0.252-0.022,0.369-0.067c0.103-0.055,0.246-0.115,0.379-0.211c0.322-0.263,0.615-0.568,0.848-0.936
		c0.208-0.396,0.41-0.803,0.527-1.304c0.051-0.258,0.095-0.438,0.125-0.622c0.02-0.207,0.045-0.363,0.045-0.53
		c-0.026-0.308-0.071-0.509-0.213-0.638C227.701,7.232,227.499,7.2,227.193,7.2z"/>
	<path fill="none" d="M97.931,31.26c0.021-0.206,0.045-0.363,0.045-0.529c-0.026-0.308-0.071-0.51-0.212-0.639
		c-0.163-0.159-0.365-0.191-0.67-0.191c-0.254,0-0.431,0.048-0.623,0.145c-0.216,0.081-0.368,0.229-0.527,0.395
		c-0.173,0.153-0.299,0.36-0.422,0.58c-0.13,0.213-0.227,0.451-0.312,0.695c-0.087,0.24-0.148,0.496-0.192,0.755
		c-0.05,0.235-0.066,0.507-0.066,0.744c-0.017,0.396,0.058,0.699,0.173,0.894c0.107,0.192,0.302,0.293,0.558,0.293
		c0.1,0,0.252-0.022,0.371-0.067c0.102-0.055,0.246-0.115,0.377-0.211c0.322-0.263,0.615-0.568,0.848-0.937
		c0.208-0.396,0.41-0.802,0.527-1.303C97.857,31.625,97.901,31.445,97.931,31.26z"/>
	<path fill="none" d="M88.151,31.398c0.247,0,0.508-0.051,0.729-0.152c0.196-0.119,0.434-0.252,0.633-0.447
		c0.194-0.195,0.379-0.432,0.539-0.709c0.143-0.307,0.304-0.599,0.431-0.966c0.099-0.376,0.223-0.745,0.288-1.133
		c0.041-0.418,0.097-0.751,0.097-1.091c-0.023-0.539-0.077-0.94-0.23-1.205c-0.166-0.297-0.394-0.397-0.725-0.397
		c-0.268,0-0.523,0.089-0.78,0.267c-0.268,0.154-0.537,0.461-0.844,0.852c-0.336,0.384-0.543,0.775-0.714,1.155
		c-0.196,0.355-0.305,0.816-0.403,1.309l-0.062,0.323v0.002c-0.055,0.27-0.084,0.48-0.097,0.623
		c-0.017,0.134-0.019,0.286-0.019,0.425c-0.032,0.382,0.086,0.691,0.259,0.873C87.409,31.299,87.727,31.398,88.151,31.398z"/>
	<path fill="none" d="M59.407,34.414c0.136,0.12,0.36,0.186,0.666,0.186c0.285,0,0.594-0.097,0.855-0.292
		c0.252-0.196,0.485-0.45,0.672-0.766c0.188-0.33,0.334-0.67,0.439-1.063c0.093-0.421,0.159-0.791,0.159-1.192
		c-0.033-0.425-0.059-0.694-0.173-0.892c-0.124-0.229-0.3-0.295-0.552-0.295c-0.195,0-0.359,0.056-0.562,0.164
		c-0.207,0.088-0.404,0.272-0.604,0.487c-0.201,0.198-0.381,0.481-0.547,0.8c-0.187,0.301-0.301,0.682-0.4,1.094h-0.001
		c-0.05,0.186-0.064,0.397-0.102,0.592c-0.057,0.181-0.056,0.373-0.056,0.539C59.2,34.051,59.27,34.289,59.407,34.414z"/>
	<path fill="none" d="M97.094,7.2c-0.254,0-0.431,0.048-0.623,0.145c-0.216,0.081-0.368,0.229-0.527,0.396
		c-0.173,0.152-0.299,0.359-0.422,0.58c-0.13,0.212-0.227,0.451-0.312,0.694c-0.087,0.24-0.148,0.496-0.192,0.755
		c-0.05,0.235-0.066,0.507-0.066,0.744c-0.017,0.396,0.058,0.699,0.173,0.895c0.107,0.191,0.302,0.292,0.558,0.292
		c0.1,0,0.252-0.022,0.371-0.067c0.102-0.055,0.246-0.115,0.377-0.211c0.322-0.263,0.615-0.568,0.848-0.936
		c0.208-0.396,0.41-0.803,0.527-1.304c0.051-0.258,0.096-0.438,0.125-0.622c0.021-0.207,0.045-0.363,0.045-0.53
		c-0.026-0.308-0.071-0.509-0.212-0.638C97.601,7.232,97.399,7.2,97.094,7.2z"/>
	<path fill="none" d="M87.111,6.403v0.002c-0.055,0.27-0.084,0.479-0.097,0.623c-0.017,0.134-0.019,0.286-0.019,0.425
		c-0.032,0.382,0.086,0.691,0.259,0.873c0.155,0.173,0.473,0.272,0.897,0.272c0.247,0,0.508-0.051,0.729-0.152
		c0.196-0.119,0.434-0.252,0.633-0.447c0.194-0.196,0.379-0.432,0.539-0.709c0.143-0.308,0.304-0.599,0.431-0.966
		c0.099-0.376,0.223-0.745,0.288-1.133c0.041-0.418,0.097-0.752,0.097-1.092c-0.023-0.539-0.077-0.939-0.23-1.205
		c-0.166-0.297-0.394-0.396-0.725-0.396c-0.268,0-0.523,0.089-0.78,0.266c-0.268,0.155-0.537,0.461-0.844,0.853
		C87.954,4,87.747,4.391,87.576,4.771c-0.196,0.355-0.305,0.816-0.403,1.309L87.111,6.403z"/>
	<path fill="none" d="M217.211,6.403v0.002c-0.055,0.27-0.084,0.479-0.098,0.623c-0.016,0.134-0.018,0.286-0.018,0.425
		c-0.033,0.382,0.086,0.691,0.258,0.873c0.155,0.173,0.474,0.272,0.897,0.272c0.247,0,0.508-0.051,0.729-0.152
		c0.196-0.119,0.435-0.252,0.633-0.447c0.195-0.196,0.38-0.432,0.539-0.709c0.144-0.308,0.305-0.599,0.432-0.966
		c0.1-0.376,0.223-0.745,0.288-1.133c0.041-0.418,0.097-0.752,0.097-1.092c-0.023-0.539-0.076-0.939-0.23-1.205
		c-0.164-0.297-0.393-0.396-0.725-0.396c-0.268,0-0.522,0.089-0.779,0.266c-0.269,0.155-0.537,0.461-0.844,0.853
		c-0.336,0.384-0.543,0.774-0.715,1.155c-0.195,0.355-0.305,0.816-0.402,1.309L217.211,6.403z"/>
	<path fill="none" d="M52.151,31.398c0.247,0,0.508-0.051,0.729-0.152c0.196-0.119,0.434-0.252,0.633-0.447
		c0.194-0.195,0.379-0.432,0.539-0.709c0.143-0.307,0.304-0.599,0.431-0.966c0.099-0.376,0.223-0.745,0.288-1.133
		c0.041-0.418,0.097-0.751,0.097-1.091c-0.023-0.539-0.077-0.94-0.23-1.205c-0.166-0.297-0.394-0.397-0.725-0.397
		c-0.268,0-0.523,0.089-0.78,0.267c-0.268,0.154-0.537,0.461-0.844,0.852c-0.336,0.384-0.543,0.775-0.714,1.155
		c-0.196,0.355-0.305,0.816-0.403,1.309l-0.062,0.323v0.002c-0.055,0.27-0.084,0.48-0.097,0.623
		c-0.017,0.134-0.019,0.286-0.019,0.425c-0.032,0.382,0.086,0.691,0.259,0.873C51.409,31.299,51.727,31.398,52.151,31.398z"/>
	<path d="M2.825,18.905c0.031-0.285,0.057-0.588,0.117-0.875l0.434-2.841c0.01-0.058-0.014-0.12,0.023-0.188
		c0.005-0.068,0.006-0.169,0.008-0.212c0-0.126-0.035-0.256-0.039-0.381c-0.025-0.129-0.081-0.265-0.145-0.353
		c-0.07-0.106-0.178-0.226-0.291-0.259C2.809,13.732,2.632,13.7,2.452,13.7c-0.233,0-0.483,0.034-0.683,0.122
		c-0.224,0.08-0.446,0.173-0.638,0.32c-0.201,0.133-0.41,0.252-0.573,0.443c-0.182,0.163-0.367,0.301-0.513,0.495l0.372,0.434
		c0.094-0.092,0.188-0.196,0.303-0.298c0.108-0.105,0.201-0.211,0.337-0.298c0.116-0.094,0.231-0.2,0.345-0.229
		c0.115-0.06,0.214-0.09,0.319-0.09c0.124,0,0.184,0.033,0.264,0.156c0.052,0.104,0.057,0.218,0.078,0.396
		c0,0.052-0.021,0.101-0.02,0.245c-0.012,0.111-0.06,0.211-0.05,0.353l-0.327,2.153c-0.056,0.342-0.112,0.674-0.139,1.019
		c-0.037,0.337-0.079,0.629-0.055,0.947c0,0.223,0.009,0.399,0.039,0.614c0.026,0.187,0.055,0.325,0.131,0.485
		c0.062,0.138,0.115,0.215,0.245,0.319C1.988,21.362,2.093,21.4,2.264,21.4l0.005-0.004c0.336,0,0.648-0.1,1.012-0.204
		c0.34-0.139,0.648-0.337,1.002-0.556c0.33-0.231,0.637-0.512,0.953-0.816c0.305-0.312,0.562-0.653,0.861-0.998
		c0.269-0.354,0.506-0.729,0.737-1.092c0.223-0.375,0.413-0.752,0.575-1.098c0.16-0.355,0.26-0.702,0.373-1.014
		c0.088-0.321,0.13-0.628,0.133-0.854c0-0.324-0.102-0.613-0.248-0.777c-0.166-0.194-0.453-0.291-0.808-0.291
		c-0.191,0-0.408,0.033-0.589,0.117c-0.203,0.078-0.424,0.173-0.588,0.312c-0.189,0.13-0.381,0.254-0.536,0.453
		c-0.168,0.172-0.315,0.344-0.438,0.538l0.442,0.395c0.197-0.272,0.382-0.512,0.57-0.661c0.184-0.17,0.38-0.254,0.604-0.254
		c0.171,0,0.265,0.033,0.377,0.153c0.08,0.101,0.115,0.217,0.12,0.433c0,0.433-0.071,0.836-0.214,1.288
		c-0.143,0.429-0.343,0.804-0.556,1.22c-0.228,0.384-0.509,0.72-0.769,1.072c-0.284,0.331-0.576,0.609-0.853,0.858
		c-0.285,0.241-0.559,0.399-0.816,0.57c-0.259,0.137-0.494,0.206-0.645,0.206c-0.072,0-0.126-0.101-0.146-0.203
		c-0.026-0.137-0.065-0.335-0.039-0.534C2.78,19.442,2.788,19.188,2.825,18.905z"/>
	<path d="M10.81,18.876c-0.152-0.183-0.389-0.274-0.647-0.274c-0.152,0-0.306,0-0.438,0.063c-0.14,0.042-0.281,0.087-0.425,0.2
		c-0.143,0.09-0.309,0.202-0.45,0.348c-0.156,0.141-0.34,0.303-0.517,0.508l0.391,0.369c0.113-0.117,0.205-0.247,0.307-0.305
		c0.09-0.088,0.146-0.184,0.248-0.216c0.076-0.058,0.117-0.114,0.219-0.128c0.069-0.028,0.137-0.043,0.212-0.043
		c0.222,0,0.319,0.135,0.333,0.414c0,0.099-0.014,0.193-0.031,0.362c-0.02,0.144-0.057,0.318-0.109,0.541l0.002-0.001l-0.85,3.684
		h1.111l0.577-2.702c0.041-0.194,0.095-0.393,0.187-0.578c0.083-0.192,0.174-0.398,0.292-0.544c0.111-0.171,0.205-0.33,0.353-0.473
		c0.125-0.146,0.235-0.279,0.377-0.378c0.127-0.105,0.244-0.214,0.359-0.245c0.114-0.057,0.211-0.084,0.302-0.08
		c0.146,0,0.244,0.034,0.336,0.14c0.078,0.093,0.096,0.247,0.145,0.461h0.656l0.287-1.322c-0.117-0.021-0.262-0.048-0.364-0.055
		c-0.126-0.015-0.283-0.022-0.405-0.022c-0.382,0-0.77,0.101-1.113,0.361c-0.36,0.24-0.745,0.586-1.114,1.127l-0.078-0.034
		c0.052-0.132,0.065-0.284,0.078-0.455C11.04,19.301,10.96,19.034,10.81,18.876z"/>
	<rect x="21.056" y="17.8" width="9.566" height="1"/>
	<rect x="21.056" y="14.6" width="9.566" height="1"/>
	<path d="M51.409,1.921c-0.189-0.213-0.459-0.319-0.764-0.319c-0.393,0-0.775,0.1-1.075,0.319c-0.324,0.213-0.747,0.54-1.184,1.045
		L48.828,3.4c0.311-0.342,0.535-0.607,0.734-0.705C49.74,2.564,49.886,2.5,50.07,2.5c0.146,0,0.223,0.034,0.319,0.139
		c0.068,0.092,0.072,0.213,0.102,0.445c0,0.302-0.064,0.674-0.164,1.161h-0.001l-1.87,8.155h2.398l0.062-0.381
		c-0.337-0.031-0.576-0.104-0.68-0.189c-0.115-0.095-0.194-0.271-0.173-0.481c0-0.235,0.012-0.552,0.116-0.899l0.358-1.687
		c0.455,0.292,1.01,0.438,1.716,0.438c0.755,0,1.437-0.268,2.048-0.719c0.612-0.48,1.078-1.142,1.433-1.947
		c0.344-0.817,0.5-1.662,0.517-2.495c0-0.775-0.184-1.388-0.47-1.8c-0.313-0.426-0.775-0.639-1.316-0.639
		c-0.947,0-1.903,0.666-2.858,2.095l-0.092-0.009c0.119-0.321,0.147-0.65,0.178-0.918C51.693,2.416,51.595,2.127,51.409,1.921z
		 M51.576,4.771C51.747,4.391,51.954,4,52.29,3.616c0.307-0.392,0.576-0.697,0.844-0.853c0.257-0.177,0.512-0.266,0.78-0.266
		c0.331,0,0.56,0.1,0.725,0.396c0.153,0.266,0.207,0.666,0.23,1.205c0,0.34-0.056,0.674-0.097,1.092
		c-0.065,0.388-0.189,0.757-0.288,1.133c-0.127,0.367-0.288,0.658-0.431,0.966c-0.16,0.277-0.345,0.513-0.539,0.709
		c-0.199,0.195-0.437,0.328-0.633,0.447c-0.222,0.102-0.483,0.152-0.729,0.152c-0.424,0-0.742-0.1-0.897-0.272
		c-0.173-0.182-0.291-0.491-0.259-0.873c0-0.139,0.002-0.291,0.019-0.425c0.013-0.144,0.042-0.354,0.097-0.623V6.403l0.062-0.323
		C51.271,5.588,51.38,5.127,51.576,4.771z"/>
	<path d="M59.118,6.385l-1.359,6.003c0.068,0.022,0.115,0.027,0.214,0.06c0.076,0.016,0.119,0.033,0.216,0.053
		c0.087-0.057,0.157-0.123,0.277-0.18c0.099-0.065,0.178-0.139,0.291-0.178c0.218,0.129,0.433,0.213,0.673,0.273
		c0.23,0.055,0.454,0.083,0.752,0.083c0.423,0,0.796-0.133,1.203-0.313c0.38-0.211,0.686-0.507,1-0.861
		c0.286-0.364,0.491-0.805,0.682-1.27c0.168-0.482,0.246-1.002,0.252-1.542c0-0.625-0.141-1.13-0.363-1.425
		c-0.24-0.325-0.592-0.486-1.028-0.486c-0.178,0-0.354,0-0.517,0.079c-0.166,0.054-0.336,0.125-0.5,0.241
		c-0.168,0.107-0.371,0.234-0.516,0.414c-0.177,0.168-0.375,0.356-0.552,0.592l-0.08-0.039l0.792-3.186h-0.408l-1.558,0.1
		l-0.084,0.4c0.144,0.004,0.242,0.004,0.356,0.027c0.095,0.016,0.141,0.039,0.227,0.07c0.057,0.032,0.095,0.065,0.119,0.127
		c0.022,0.053,0.02,0.11,0.034,0.185c0,0.09-0.013,0.186-0.031,0.313C59.189,6.044,59.153,6.169,59.118,6.385z M59.257,10.536
		c0.038-0.194,0.052-0.406,0.102-0.591h0.001c0.099-0.413,0.213-0.794,0.4-1.094c0.167-0.318,0.347-0.603,0.547-0.801
		c0.199-0.215,0.396-0.398,0.604-0.486C61.114,7.455,61.278,7.4,61.473,7.4c0.252,0,0.428,0.065,0.552,0.295
		c0.115,0.197,0.14,0.466,0.173,0.891c0,0.401-0.066,0.771-0.159,1.192c-0.105,0.394-0.251,0.733-0.439,1.063
		c-0.187,0.316-0.42,0.569-0.672,0.766c-0.261,0.195-0.57,0.293-0.855,0.293c-0.306,0-0.53-0.066-0.666-0.187
		c-0.137-0.125-0.207-0.362-0.206-0.639C59.201,10.909,59.2,10.717,59.257,10.536z"/>
	<rect x="69.856" y="4.1" width="9.565" height="1"/>
	<path d="M87.409,1.921c-0.189-0.213-0.459-0.319-0.764-0.319c-0.393,0-0.775,0.1-1.075,0.319c-0.324,0.213-0.747,0.54-1.184,1.045
		L84.828,3.4c0.311-0.342,0.535-0.607,0.734-0.705C85.74,2.564,85.886,2.5,86.07,2.5c0.146,0,0.223,0.034,0.319,0.139
		c0.068,0.092,0.072,0.213,0.102,0.445c0,0.302-0.064,0.674-0.164,1.161h-0.001l-1.87,8.155h2.398l0.062-0.381
		c-0.337-0.031-0.576-0.104-0.68-0.189c-0.115-0.095-0.194-0.271-0.173-0.481c0-0.235,0.012-0.552,0.116-0.899l0.358-1.687
		c0.455,0.292,1.01,0.438,1.716,0.438c0.755,0,1.437-0.268,2.048-0.719c0.612-0.48,1.078-1.142,1.433-1.947
		c0.344-0.817,0.5-1.662,0.517-2.495c0-0.775-0.184-1.388-0.47-1.8c-0.313-0.426-0.775-0.639-1.316-0.639
		c-0.947,0-1.903,0.666-2.858,2.095l-0.092-0.009c0.119-0.321,0.147-0.65,0.178-0.918C87.693,2.416,87.595,2.127,87.409,1.921z
		 M87.576,4.771C87.747,4.391,87.954,4,88.29,3.616c0.307-0.392,0.576-0.697,0.844-0.853c0.257-0.177,0.512-0.266,0.78-0.266
		c0.331,0,0.56,0.1,0.725,0.396c0.153,0.266,0.207,0.666,0.23,1.205c0,0.34-0.056,0.674-0.097,1.092
		c-0.065,0.388-0.189,0.757-0.288,1.133c-0.127,0.367-0.288,0.658-0.431,0.966c-0.16,0.277-0.345,0.513-0.539,0.709
		c-0.199,0.195-0.437,0.328-0.633,0.447c-0.222,0.102-0.483,0.152-0.729,0.152c-0.424,0-0.742-0.1-0.897-0.272
		c-0.173-0.182-0.291-0.491-0.259-0.873c0-0.139,0.002-0.291,0.019-0.425c0.013-0.144,0.042-0.354,0.097-0.623V6.403l0.062-0.323
		C87.271,5.588,87.38,5.127,87.576,4.771z"/>
	<path d="M98.561,10.409l0.853-3.691l-0.459-0.116l-0.547,0.391c-0.19-0.121-0.426-0.219-0.627-0.286
		c-0.228-0.07-0.522-0.104-0.791-0.104c-0.282,0-0.579,0.032-0.82,0.144c-0.264,0.096-0.521,0.214-0.748,0.406
		c-0.233,0.174-0.474,0.356-0.645,0.628c-0.196,0.244-0.388,0.483-0.506,0.811c-0.142,0.297-0.266,0.6-0.33,0.955
		c-0.078,0.339-0.125,0.69-0.116,1.059c0,0.617,0.091,1.084,0.367,1.412c0.246,0.323,0.582,0.484,1.043,0.484
		c0.196,0,0.384-0.034,0.566-0.086c0.181-0.057,0.347-0.161,0.537-0.27c0.178-0.123,0.332-0.305,0.539-0.469
		c0.181-0.188,0.355-0.447,0.561-0.687l0.002-0.001l0.08,0.033c-0.053,0.156-0.093,0.315-0.08,0.488
		c0,0.308,0.054,0.537,0.227,0.726c0.15,0.176,0.362,0.264,0.634,0.264c0.15,0,0.284-0.034,0.434-0.062
		c0.14-0.041,0.262-0.119,0.427-0.196c0.146-0.091,0.292-0.239,0.45-0.351c0.155-0.141,0.318-0.339,0.517-0.509
		c-0.061-0.062-0.137-0.157-0.188-0.188c-0.065-0.064-0.146-0.162-0.188-0.195c-0.117,0.124-0.234,0.224-0.314,0.32
		c-0.093,0.088-0.206,0.148-0.255,0.217c-0.078,0.056-0.172,0.078-0.216,0.125c-0.065,0.025-0.155,0.039-0.198,0.039
		c-0.109,0-0.199-0.033-0.253-0.096c-0.059-0.064-0.098-0.198-0.088-0.311c0-0.105-0.01-0.236,0.028-0.362
		C98.477,10.793,98.491,10.616,98.561,10.409z M97.931,8.561c-0.029,0.185-0.074,0.364-0.125,0.622
		c-0.117,0.501-0.318,0.907-0.527,1.304c-0.233,0.367-0.526,0.673-0.848,0.936c-0.132,0.096-0.275,0.156-0.377,0.211
		c-0.118,0.045-0.271,0.067-0.371,0.067c-0.256,0-0.451-0.101-0.558-0.292c-0.115-0.195-0.19-0.498-0.173-0.895
		c0-0.237,0.016-0.509,0.066-0.744c0.044-0.259,0.105-0.515,0.192-0.755c0.084-0.243,0.182-0.482,0.312-0.694
		c0.123-0.221,0.249-0.428,0.422-0.58c0.159-0.167,0.311-0.314,0.527-0.396C96.663,7.248,96.84,7.2,97.094,7.2
		c0.305,0,0.507,0.032,0.67,0.192c0.141,0.129,0.186,0.33,0.212,0.638C97.976,8.197,97.951,8.354,97.931,8.561z"/>
	<rect x="38.142" y="16.12" width="73.376" height="1.035"/>
	<rect x="40" y="20.8" width="1.141" height="14.4"/>
	<rect x="45.1" y="20.8" width="1.141" height="14.4"/>
	<path d="M50.537,31.562c0.455,0.293,1.01,0.438,1.716,0.438c0.755,0,1.437-0.267,2.048-0.719c0.612-0.48,1.078-1.142,1.433-1.947
		c0.344-0.817,0.5-1.662,0.517-2.495c0-0.775-0.184-1.388-0.47-1.8c-0.313-0.426-0.775-0.639-1.316-0.639
		c-0.947,0-1.903,0.666-2.858,2.095l-0.092-0.008c0.119-0.322,0.147-0.651,0.178-0.919c0-0.354-0.098-0.643-0.284-0.849
		c-0.189-0.213-0.459-0.319-0.764-0.319c-0.393,0-0.775,0.1-1.075,0.319c-0.324,0.213-0.747,0.54-1.184,1.045l0.442,0.435
		c0.311-0.341,0.535-0.607,0.734-0.705c0.178-0.13,0.324-0.195,0.508-0.195c0.146,0,0.223,0.034,0.319,0.14
		c0.068,0.091,0.072,0.212,0.102,0.444c0,0.302-0.064,0.674-0.164,1.161h-0.001l-1.87,8.155h2.398l0.062-0.381
		c-0.337-0.031-0.576-0.104-0.68-0.189c-0.115-0.095-0.194-0.271-0.173-0.481c0-0.235,0.012-0.552,0.116-0.899L50.537,31.562z
		 M51.014,29.828c0.013-0.143,0.042-0.354,0.097-0.623v-0.002l0.062-0.323c0.098-0.492,0.207-0.953,0.403-1.309
		c0.171-0.38,0.378-0.771,0.714-1.155c0.307-0.391,0.576-0.697,0.844-0.852c0.257-0.178,0.512-0.267,0.78-0.267
		c0.331,0,0.56,0.101,0.725,0.397c0.153,0.265,0.207,0.666,0.23,1.205c0,0.34-0.056,0.673-0.097,1.091
		c-0.065,0.388-0.189,0.757-0.288,1.133c-0.127,0.367-0.288,0.659-0.431,0.966c-0.16,0.277-0.345,0.514-0.539,0.709
		c-0.199,0.195-0.437,0.328-0.633,0.447c-0.222,0.102-0.483,0.152-0.729,0.152c-0.424,0-0.742-0.1-0.897-0.272
		c-0.173-0.182-0.291-0.491-0.259-0.873C50.995,30.114,50.997,29.962,51.014,29.828z"/>
	<path d="M59.118,29.085l-1.359,6.003c0.068,0.022,0.115,0.027,0.214,0.059c0.076,0.017,0.119,0.034,0.216,0.054
		c0.087-0.058,0.157-0.123,0.277-0.181c0.099-0.064,0.178-0.138,0.291-0.177c0.218,0.128,0.433,0.213,0.673,0.273
		c0.23,0.055,0.454,0.083,0.752,0.083c0.423,0,0.796-0.133,1.203-0.314c0.38-0.21,0.686-0.506,1-0.861
		c0.286-0.363,0.491-0.805,0.682-1.269c0.168-0.483,0.246-1.002,0.252-1.542c0-0.625-0.141-1.13-0.363-1.425
		c-0.24-0.325-0.592-0.487-1.028-0.487c-0.178,0-0.354,0-0.517,0.08c-0.166,0.053-0.336,0.125-0.5,0.241
		c-0.168,0.106-0.371,0.233-0.516,0.414c-0.177,0.168-0.375,0.356-0.552,0.592l-0.08-0.039l0.792-3.186h-0.408l-1.558,0.1
		l-0.084,0.4c0.144,0.004,0.242,0.004,0.356,0.027c0.095,0.016,0.141,0.038,0.227,0.07c0.057,0.032,0.095,0.065,0.119,0.127
		c0.022,0.052,0.02,0.11,0.034,0.185c0,0.09-0.013,0.186-0.031,0.313C59.189,28.744,59.153,28.869,59.118,29.085z M59.257,33.236
		c0.038-0.194,0.052-0.406,0.102-0.592h0.001c0.099-0.412,0.213-0.793,0.4-1.094c0.167-0.318,0.347-0.602,0.547-0.8
		c0.199-0.215,0.396-0.399,0.604-0.487c0.203-0.108,0.367-0.164,0.562-0.164c0.252,0,0.428,0.066,0.552,0.295
		c0.115,0.197,0.14,0.467,0.173,0.892c0,0.401-0.066,0.771-0.159,1.192c-0.105,0.394-0.251,0.733-0.439,1.063
		c-0.187,0.315-0.42,0.569-0.672,0.766c-0.261,0.195-0.57,0.292-0.855,0.292c-0.306,0-0.53-0.065-0.666-0.186
		c-0.137-0.125-0.207-0.363-0.206-0.639C59.201,33.609,59.2,33.417,59.257,33.236z"/>
	<rect x="69.856" y="26.9" width="9.565" height="1"/>
	<path d="M86.537,31.562c0.455,0.293,1.01,0.438,1.716,0.438c0.755,0,1.437-0.267,2.048-0.719c0.612-0.48,1.078-1.142,1.433-1.947
		c0.344-0.817,0.5-1.662,0.517-2.495c0-0.775-0.184-1.388-0.47-1.8c-0.313-0.426-0.775-0.639-1.316-0.639
		c-0.947,0-1.903,0.666-2.858,2.095l-0.092-0.008c0.119-0.322,0.147-0.651,0.178-0.919c0-0.354-0.098-0.643-0.284-0.849
		c-0.189-0.213-0.459-0.319-0.764-0.319c-0.393,0-0.775,0.1-1.075,0.319c-0.324,0.213-0.747,0.54-1.184,1.045l0.442,0.435
		c0.311-0.341,0.535-0.607,0.734-0.705c0.178-0.13,0.324-0.195,0.508-0.195c0.146,0,0.223,0.034,0.319,0.14
		c0.068,0.091,0.072,0.212,0.102,0.444c0,0.302-0.064,0.674-0.164,1.161h-0.001l-1.87,8.155h2.398l0.062-0.381
		c-0.337-0.031-0.576-0.104-0.68-0.189c-0.115-0.095-0.194-0.271-0.173-0.481c0-0.235,0.012-0.552,0.116-0.899L86.537,31.562z
		 M87.014,29.828c0.013-0.143,0.042-0.354,0.097-0.623v-0.002l0.062-0.323c0.098-0.492,0.207-0.953,0.403-1.309
		c0.171-0.38,0.378-0.771,0.714-1.155c0.307-0.391,0.576-0.697,0.844-0.852c0.257-0.178,0.512-0.267,0.78-0.267
		c0.331,0,0.56,0.101,0.725,0.397c0.153,0.265,0.207,0.666,0.23,1.205c0,0.34-0.056,0.673-0.097,1.091
		c-0.065,0.388-0.189,0.757-0.288,1.133c-0.127,0.367-0.288,0.659-0.431,0.966c-0.16,0.277-0.345,0.514-0.539,0.709
		c-0.199,0.195-0.437,0.328-0.633,0.447c-0.222,0.102-0.483,0.152-0.729,0.152c-0.424,0-0.742-0.1-0.897-0.272
		c-0.173-0.182-0.291-0.491-0.259-0.873C86.995,30.114,86.997,29.962,87.014,29.828z"/>
	<path d="M97.668,34.936c0.15,0.176,0.362,0.264,0.634,0.264c0.15,0,0.284-0.034,0.434-0.062c0.14-0.041,0.262-0.12,0.427-0.196
		c0.146-0.092,0.292-0.239,0.45-0.351c0.155-0.141,0.318-0.339,0.517-0.509c-0.061-0.062-0.137-0.157-0.188-0.189
		c-0.065-0.063-0.146-0.162-0.188-0.194c-0.117,0.124-0.234,0.224-0.314,0.319c-0.093,0.088-0.206,0.149-0.255,0.218
		c-0.078,0.056-0.172,0.077-0.216,0.125c-0.065,0.025-0.155,0.038-0.198,0.038c-0.109,0-0.199-0.032-0.253-0.095
		c-0.059-0.064-0.098-0.198-0.088-0.311c0-0.105-0.01-0.236,0.028-0.362c0.019-0.138,0.033-0.314,0.103-0.521l0.853-3.691
		l-0.459-0.117l-0.547,0.392c-0.19-0.121-0.426-0.219-0.627-0.286c-0.228-0.07-0.522-0.105-0.791-0.105
		c-0.282,0-0.579,0.033-0.82,0.145c-0.264,0.096-0.521,0.214-0.748,0.406c-0.233,0.174-0.474,0.356-0.645,0.627
		c-0.196,0.244-0.388,0.484-0.506,0.812c-0.142,0.297-0.266,0.6-0.33,0.955c-0.078,0.339-0.125,0.69-0.116,1.058
		c0,0.618,0.091,1.084,0.367,1.413c0.246,0.323,0.582,0.484,1.043,0.484c0.196,0,0.384-0.034,0.566-0.086
		c0.181-0.058,0.347-0.161,0.537-0.27c0.178-0.123,0.332-0.305,0.539-0.469c0.181-0.188,0.355-0.448,0.561-0.687l0.002-0.002
		l0.08,0.034c-0.053,0.156-0.093,0.315-0.08,0.488C97.441,34.518,97.495,34.747,97.668,34.936z M97.279,33.186
		c-0.233,0.368-0.526,0.674-0.848,0.937c-0.132,0.096-0.275,0.156-0.377,0.211c-0.118,0.045-0.271,0.067-0.371,0.067
		c-0.256,0-0.451-0.101-0.558-0.293c-0.115-0.194-0.19-0.497-0.173-0.894c0-0.237,0.016-0.509,0.066-0.744
		c0.044-0.259,0.105-0.515,0.192-0.755c0.084-0.244,0.182-0.482,0.312-0.695c0.123-0.22,0.249-0.427,0.422-0.58
		c0.159-0.166,0.311-0.313,0.527-0.395c0.192-0.097,0.369-0.145,0.623-0.145c0.305,0,0.507,0.032,0.67,0.191
		c0.141,0.129,0.186,0.331,0.212,0.639c0,0.166-0.025,0.323-0.045,0.529c-0.029,0.186-0.074,0.365-0.125,0.623
		C97.689,32.384,97.487,32.79,97.279,33.186z"/>
	<rect x="103.3" y="20.8" width="1.141" height="14.4"/>
	<rect x="108.4" y="20.8" width="1.141" height="14.4"/>
	<path d="M132.725,18.905c0.031-0.285,0.057-0.588,0.117-0.875l0.434-2.841c0.01-0.058-0.014-0.12,0.023-0.188
		c0.005-0.068,0.006-0.169,0.008-0.212c0-0.126-0.035-0.256-0.039-0.381c-0.025-0.129-0.081-0.265-0.144-0.353
		c-0.07-0.106-0.178-0.226-0.291-0.259c-0.124-0.065-0.301-0.098-0.481-0.098c-0.233,0-0.483,0.034-0.683,0.122
		c-0.224,0.08-0.446,0.173-0.638,0.32c-0.201,0.133-0.41,0.252-0.573,0.443c-0.182,0.163-0.367,0.301-0.513,0.495l0.372,0.434
		c0.094-0.092,0.188-0.196,0.303-0.298c0.108-0.105,0.201-0.211,0.337-0.298c0.116-0.094,0.231-0.2,0.345-0.229
		c0.115-0.06,0.214-0.09,0.319-0.09c0.124,0,0.184,0.033,0.264,0.156c0.052,0.104,0.057,0.218,0.078,0.396
		c0,0.052-0.021,0.101-0.02,0.245c-0.012,0.111-0.06,0.211-0.05,0.353l-0.327,2.153c-0.056,0.342-0.112,0.674-0.139,1.019
		c-0.037,0.337-0.079,0.629-0.055,0.947c0,0.223,0.009,0.399,0.039,0.614c0.026,0.187,0.055,0.325,0.131,0.485
		c0.062,0.138,0.115,0.215,0.245,0.319c0.101,0.075,0.206,0.113,0.377,0.113l0.005-0.004c0.336,0,0.648-0.1,1.012-0.204
		c0.34-0.139,0.648-0.337,1.002-0.556c0.329-0.231,0.637-0.512,0.952-0.816c0.305-0.312,0.562-0.653,0.861-0.998
		c0.269-0.354,0.506-0.729,0.737-1.092c0.223-0.375,0.413-0.752,0.575-1.098c0.16-0.355,0.26-0.702,0.372-1.014
		c0.088-0.321,0.13-0.628,0.133-0.854c0-0.324-0.102-0.613-0.248-0.777c-0.166-0.194-0.453-0.291-0.808-0.291
		c-0.191,0-0.408,0.033-0.589,0.117c-0.203,0.078-0.424,0.173-0.588,0.312c-0.189,0.13-0.381,0.254-0.536,0.453
		c-0.168,0.172-0.315,0.344-0.438,0.538l0.442,0.395c0.197-0.272,0.382-0.512,0.57-0.661c0.184-0.17,0.38-0.254,0.603-0.254
		c0.171,0,0.265,0.033,0.377,0.153c0.08,0.101,0.115,0.217,0.12,0.433c0,0.433-0.071,0.836-0.214,1.288
		c-0.143,0.429-0.343,0.804-0.556,1.22c-0.228,0.384-0.509,0.72-0.769,1.072c-0.284,0.331-0.576,0.609-0.853,0.858
		c-0.285,0.241-0.559,0.399-0.816,0.57c-0.259,0.137-0.494,0.206-0.644,0.206c-0.072,0-0.126-0.101-0.147-0.203
		c-0.026-0.137-0.065-0.335-0.039-0.534C132.68,19.442,132.688,19.188,132.725,18.905z"/>
	<path d="M140.786,20.832c0.071-0.251,0.109-0.496,0.152-0.68c0.03-0.204,0.017-0.389,0.045-0.553c0-0.304-0.095-0.57-0.244-0.728
		c-0.162-0.181-0.409-0.272-0.65-0.272c-0.162,0-0.326,0-0.453,0.059c-0.14,0.038-0.286,0.085-0.425,0.188
		c-0.143,0.088-0.315,0.172-0.456,0.348c-0.161,0.143-0.346,0.312-0.547,0.527l0.386,0.369c0.113-0.117,0.214-0.247,0.305-0.305
		c0.091-0.088,0.157-0.184,0.252-0.216c0.078-0.058,0.128-0.114,0.219-0.128c0.068-0.028,0.111-0.043,0.209-0.043
		c0.227,0,0.334,0.135,0.341,0.414c0,0.102-0.041,0.23-0.055,0.427c-0.036,0.182-0.091,0.368-0.133,0.608
		c-0.053,0.226-0.13,0.442-0.169,0.702c-0.06,0.243-0.148,0.459-0.17,0.697c-0.053,0.222-0.118,0.407-0.134,0.604
		c-0.035,0.181-0.055,0.297-0.053,0.424c0,0.395,0.098,0.67,0.303,0.908c0.202,0.211,0.499,0.316,0.903,0.316
		c0.382,0,0.744-0.133,1.102-0.372c0.354-0.248,0.715-0.624,1.091-1.116l-0.003-0.002l0.069,0.023
		c-0.031,0.074-0.055,0.129-0.063,0.234c-0.012,0.08-0.048,0.157-0.017,0.241c0,0.306,0.069,0.535,0.23,0.724
		c0.153,0.176,0.345,0.264,0.637,0.264c0.15,0,0.264-0.033,0.437-0.062c0.141-0.039,0.275-0.119,0.427-0.197
		c0.144-0.092,0.269-0.239,0.453-0.354c0.158-0.143,0.332-0.338,0.522-0.514l-0.391-0.373c-0.113,0.124-0.217,0.224-0.306,0.32
		c-0.09,0.088-0.192,0.148-0.253,0.217c-0.077,0.056-0.16,0.078-0.217,0.125c-0.068,0.025-0.145,0.039-0.209,0.039
		c-0.118,0-0.226-0.033-0.255-0.096c-0.052-0.063-0.108-0.198-0.078-0.312c0-0.104,0.003-0.236,0.028-0.384
		c0.018-0.151,0.045-0.354,0.095-0.514l0.872-3.692h-1.114l-0.623,2.825c-0.068,0.253-0.184,0.477-0.32,0.766
		c-0.145,0.257-0.321,0.46-0.495,0.7c-0.185,0.209-0.396,0.378-0.581,0.511c-0.201,0.131-0.419,0.197-0.569,0.197
		c-0.196,0-0.357-0.067-0.428-0.166c-0.089-0.11-0.14-0.288-0.133-0.503c0-0.181,0.026-0.49,0.125-0.849
		C140.529,21.796,140.613,21.335,140.786,20.832z"/>
	<rect x="152.156" y="14.6" width="9.566" height="1"/>
	<rect x="152.156" y="17.8" width="9.566" height="1"/>
	<path d="M182.609,1.921c-0.189-0.213-0.459-0.319-0.764-0.319c-0.393,0-0.775,0.1-1.075,0.319c-0.324,0.213-0.747,0.54-1.184,1.045
		l0.442,0.435c0.311-0.342,0.535-0.607,0.734-0.705c0.178-0.131,0.324-0.195,0.508-0.195c0.146,0,0.223,0.034,0.319,0.139
		c0.068,0.092,0.072,0.213,0.102,0.445c0,0.302-0.064,0.674-0.164,1.161h-0.001l-1.87,8.155h2.398l0.062-0.381
		c-0.337-0.031-0.576-0.104-0.68-0.189c-0.115-0.095-0.194-0.271-0.173-0.481c0-0.235,0.012-0.552,0.116-0.899l0.358-1.687
		c0.455,0.292,1.01,0.438,1.716,0.438c0.755,0,1.437-0.268,2.048-0.719c0.612-0.48,1.078-1.142,1.433-1.947
		c0.343-0.817,0.5-1.662,0.517-2.495c0-0.775-0.184-1.388-0.47-1.8c-0.314-0.426-0.775-0.639-1.316-0.639
		c-0.947,0-1.903,0.666-2.858,2.095l-0.092-0.009c0.119-0.321,0.147-0.65,0.178-0.918C182.893,2.416,182.795,2.127,182.609,1.921z
		 M182.776,4.771c0.171-0.381,0.378-0.771,0.714-1.155c0.307-0.392,0.576-0.697,0.844-0.853c0.257-0.177,0.512-0.266,0.78-0.266
		c0.331,0,0.56,0.1,0.725,0.396c0.153,0.266,0.207,0.666,0.23,1.205c0,0.34-0.056,0.674-0.097,1.092
		c-0.065,0.388-0.189,0.757-0.288,1.133c-0.127,0.367-0.288,0.658-0.431,0.966c-0.16,0.277-0.345,0.513-0.539,0.709
		c-0.199,0.195-0.437,0.328-0.633,0.447c-0.222,0.102-0.483,0.152-0.73,0.152c-0.424,0-0.742-0.1-0.897-0.272
		c-0.173-0.182-0.291-0.491-0.259-0.873c0-0.139,0.002-0.291,0.019-0.425c0.013-0.144,0.042-0.354,0.097-0.623V6.403l0.062-0.323
		C182.471,5.588,182.58,5.127,182.776,4.771z"/>
	<path d="M190.316,8.979c0.096-0.25,0.189-0.51,0.342-0.698c0.132-0.218,0.246-0.41,0.439-0.566c0.159-0.161,0.327-0.299,0.52-0.378
		c0.188-0.091,0.381-0.136,0.587-0.136c0.128,0.004,0.228,0.004,0.325,0.053c0.09,0.031,0.146,0.08,0.216,0.159
		c0.055,0.075,0.073,0.17,0.118,0.305c0.025,0.128,0.037,0.289,0.043,0.483l0.001,0.001h0.669l0.316-1.414
		c-0.254-0.062-0.517-0.124-0.733-0.139c-0.236-0.03-0.522-0.045-0.767-0.045c-0.328,0-0.66,0.032-0.941,0.142
		c-0.299,0.093-0.581,0.212-0.833,0.397c-0.257,0.172-0.495,0.358-0.695,0.616c-0.207,0.238-0.415,0.486-0.536,0.795
		c-0.148,0.291-0.277,0.574-0.342,0.935c-0.08,0.331-0.128,0.668-0.119,1.031c0,0.635,0.125,1.096,0.467,1.467
		c0.312,0.343,0.748,0.514,1.346,0.514c0.469,0,0.889-0.1,1.313-0.3c0.408-0.2,0.791-0.534,1.224-0.916
		c-0.072-0.075-0.164-0.169-0.209-0.224c-0.064-0.072-0.153-0.16-0.205-0.223c-0.185,0.182-0.371,0.302-0.506,0.456
		c-0.153,0.122-0.305,0.191-0.445,0.297c-0.143,0.075-0.312,0.112-0.441,0.161c-0.15,0.032-0.341,0.048-0.494,0.048
		c-0.316,0-0.574-0.133-0.713-0.313c-0.16-0.21-0.246-0.539-0.238-0.919c0-0.27,0.025-0.559,0.076-0.809
		C190.15,9.489,190.217,9.202,190.316,8.979z"/>
	<rect x="199.956" y="4.1" width="9.565" height="1"/>
	<path d="M217.509,1.921c-0.188-0.213-0.459-0.319-0.764-0.319c-0.394,0-0.774,0.1-1.075,0.319c-0.324,0.213-0.747,0.54-1.184,1.045
		l0.441,0.435c0.311-0.342,0.535-0.607,0.734-0.705c0.178-0.131,0.324-0.195,0.508-0.195c0.146,0,0.223,0.034,0.318,0.139
		c0.068,0.092,0.072,0.213,0.103,0.445c0,0.302-0.063,0.674-0.164,1.161h-0.001l-1.869,8.155h2.397l0.062-0.381
		c-0.336-0.031-0.576-0.104-0.68-0.189c-0.115-0.095-0.193-0.271-0.173-0.481c0-0.235,0.012-0.552,0.116-0.899l0.357-1.687
		c0.455,0.292,1.01,0.438,1.717,0.438c0.754,0,1.437-0.268,2.047-0.719c0.613-0.48,1.078-1.142,1.434-1.947
		c0.344-0.817,0.5-1.662,0.518-2.495c0-0.775-0.185-1.388-0.471-1.8c-0.314-0.426-0.775-0.639-1.316-0.639
		c-0.946,0-1.902,0.666-2.857,2.095l-0.092-0.009c0.119-0.321,0.146-0.65,0.178-0.918C217.793,2.416,217.695,2.127,217.509,1.921z
		 M217.676,4.771c0.172-0.381,0.379-0.771,0.715-1.155c0.307-0.392,0.575-0.697,0.844-0.853c0.257-0.177,0.512-0.266,0.779-0.266
		c0.332,0,0.561,0.1,0.725,0.396c0.154,0.266,0.207,0.666,0.23,1.205c0,0.34-0.056,0.674-0.097,1.092
		c-0.065,0.388-0.188,0.757-0.288,1.133c-0.127,0.367-0.288,0.658-0.432,0.966c-0.159,0.277-0.344,0.513-0.539,0.709
		c-0.198,0.195-0.437,0.328-0.633,0.447c-0.222,0.102-0.482,0.152-0.729,0.152c-0.424,0-0.742-0.1-0.897-0.272
		c-0.172-0.182-0.291-0.491-0.258-0.873c0-0.139,0.002-0.291,0.018-0.425c0.014-0.144,0.043-0.354,0.098-0.623V6.403l0.062-0.323
		C217.371,5.588,217.48,5.127,217.676,4.771z"/>
	<path d="M228.661,10.409l0.853-3.691l-0.459-0.116l-0.547,0.391c-0.189-0.121-0.426-0.219-0.627-0.286
		c-0.229-0.07-0.521-0.104-0.791-0.104c-0.281,0-0.578,0.032-0.82,0.144c-0.264,0.096-0.521,0.214-0.748,0.406
		c-0.232,0.174-0.474,0.356-0.645,0.628c-0.195,0.244-0.389,0.483-0.506,0.811c-0.143,0.297-0.266,0.6-0.33,0.955
		c-0.078,0.339-0.125,0.69-0.116,1.059c0,0.617,0.091,1.084,0.367,1.412c0.246,0.323,0.582,0.484,1.044,0.484
		c0.196,0,0.385-0.034,0.566-0.086c0.181-0.057,0.347-0.161,0.537-0.27c0.178-0.123,0.332-0.305,0.539-0.469
		c0.181-0.188,0.354-0.447,0.561-0.687l0.002-0.001l0.08,0.033c-0.053,0.156-0.094,0.315-0.08,0.488
		c0,0.308,0.055,0.537,0.227,0.726c0.15,0.176,0.362,0.264,0.635,0.264c0.149,0,0.283-0.034,0.434-0.062
		c0.141-0.041,0.262-0.119,0.428-0.196c0.146-0.091,0.291-0.239,0.449-0.351c0.155-0.141,0.318-0.339,0.518-0.509
		c-0.062-0.062-0.138-0.157-0.188-0.188c-0.065-0.064-0.146-0.162-0.188-0.195c-0.117,0.124-0.233,0.224-0.313,0.32
		c-0.093,0.088-0.206,0.148-0.255,0.217c-0.078,0.056-0.172,0.078-0.217,0.125c-0.064,0.025-0.154,0.039-0.197,0.039
		c-0.109,0-0.199-0.033-0.253-0.096c-0.06-0.064-0.099-0.198-0.089-0.311c0-0.105-0.01-0.236,0.029-0.362
		C228.577,10.793,228.591,10.616,228.661,10.409z M228.031,8.561c-0.03,0.185-0.074,0.364-0.125,0.622
		c-0.117,0.501-0.319,0.907-0.527,1.304c-0.232,0.367-0.525,0.673-0.848,0.936c-0.133,0.096-0.276,0.156-0.379,0.211
		c-0.117,0.045-0.27,0.067-0.369,0.067c-0.256,0-0.451-0.101-0.559-0.292c-0.115-0.195-0.189-0.498-0.173-0.895
		c0-0.237,0.017-0.509,0.066-0.744c0.044-0.259,0.104-0.515,0.192-0.755c0.084-0.243,0.182-0.482,0.312-0.694
		c0.123-0.221,0.249-0.428,0.422-0.58c0.159-0.167,0.312-0.314,0.526-0.396c0.193-0.097,0.369-0.145,0.623-0.145
		c0.306,0,0.508,0.032,0.67,0.192c0.142,0.129,0.187,0.33,0.213,0.638C228.076,8.197,228.051,8.354,228.031,8.561z"/>
	<rect x="169.262" y="16.12" width="72.335" height="1.035"/>
	<rect x="171.2" y="20.8" width="1.141" height="14.4"/>
	<rect x="176.2" y="20.8" width="1.141" height="14.4"/>
	<path d="M181.637,31.562c0.455,0.293,1.01,0.438,1.716,0.438c0.755,0,1.437-0.267,2.048-0.719c0.612-0.48,1.078-1.142,1.433-1.947
		c0.344-0.817,0.5-1.662,0.518-2.495c0-0.775-0.185-1.388-0.471-1.8c-0.314-0.426-0.775-0.639-1.316-0.639
		c-0.947,0-1.903,0.666-2.858,2.095l-0.092-0.008c0.119-0.322,0.147-0.651,0.178-0.919c0-0.354-0.098-0.643-0.284-0.849
		c-0.189-0.213-0.459-0.319-0.764-0.319c-0.393,0-0.775,0.1-1.075,0.319c-0.324,0.213-0.747,0.54-1.184,1.045l0.442,0.435
		c0.311-0.341,0.535-0.607,0.734-0.705c0.178-0.13,0.324-0.195,0.508-0.195c0.146,0,0.223,0.034,0.319,0.14
		c0.068,0.091,0.072,0.212,0.102,0.444c0,0.302-0.064,0.674-0.164,1.161h-0.001l-1.87,8.155h2.398l0.062-0.381
		c-0.337-0.031-0.576-0.104-0.68-0.189c-0.115-0.095-0.194-0.271-0.173-0.481c0-0.235,0.012-0.552,0.116-0.899L181.637,31.562z
		 M182.114,29.828c0.013-0.143,0.042-0.354,0.097-0.623v-0.002l0.062-0.323c0.098-0.492,0.207-0.953,0.403-1.309
		c0.171-0.38,0.378-0.771,0.714-1.155c0.307-0.391,0.576-0.697,0.844-0.852c0.257-0.178,0.512-0.267,0.78-0.267
		c0.331,0,0.56,0.101,0.725,0.397c0.153,0.265,0.207,0.666,0.23,1.205c0,0.34-0.056,0.673-0.097,1.091
		c-0.065,0.388-0.189,0.757-0.288,1.133c-0.127,0.367-0.288,0.659-0.431,0.966c-0.16,0.277-0.345,0.514-0.539,0.709
		c-0.199,0.195-0.437,0.328-0.633,0.447c-0.222,0.102-0.483,0.152-0.73,0.152c-0.424,0-0.742-0.1-0.897-0.272
		c-0.173-0.182-0.291-0.491-0.259-0.873C182.095,30.114,182.097,29.962,182.114,29.828z"/>
	<path d="M190.316,31.678c0.096-0.25,0.189-0.509,0.342-0.697c0.132-0.218,0.246-0.41,0.439-0.566
		c0.159-0.161,0.327-0.299,0.52-0.378c0.188-0.091,0.381-0.136,0.587-0.136c0.128,0.004,0.228,0.004,0.325,0.053
		c0.09,0.031,0.146,0.08,0.216,0.159c0.055,0.075,0.073,0.17,0.118,0.305c0.025,0.128,0.037,0.289,0.043,0.483l0.001,0.001h0.669
		l0.316-1.414c-0.254-0.062-0.517-0.124-0.733-0.14c-0.236-0.029-0.522-0.045-0.767-0.045c-0.328,0-0.66,0.033-0.941,0.143
		c-0.299,0.093-0.581,0.212-0.833,0.397c-0.257,0.172-0.495,0.358-0.695,0.616c-0.207,0.238-0.415,0.486-0.536,0.795
		c-0.148,0.291-0.277,0.574-0.342,0.934c-0.08,0.332-0.128,0.668-0.119,1.031c0,0.635,0.125,1.096,0.467,1.467
		c0.312,0.344,0.748,0.515,1.346,0.515c0.469,0,0.889-0.101,1.313-0.3c0.408-0.2,0.791-0.534,1.224-0.916
		c-0.072-0.075-0.164-0.17-0.209-0.224c-0.064-0.073-0.153-0.161-0.205-0.223c-0.185,0.181-0.371,0.302-0.506,0.456
		c-0.153,0.122-0.305,0.191-0.445,0.297c-0.143,0.075-0.312,0.112-0.441,0.161c-0.15,0.032-0.341,0.048-0.494,0.048
		c-0.316,0-0.574-0.133-0.713-0.314c-0.16-0.209-0.246-0.539-0.238-0.918c0-0.27,0.025-0.559,0.076-0.809
		C190.15,32.189,190.217,31.902,190.316,31.678z"/>
	<rect x="199.956" y="26.9" width="9.565" height="1"/>
	<path d="M216.637,31.562c0.455,0.293,1.01,0.438,1.717,0.438c0.754,0,1.437-0.267,2.047-0.719c0.613-0.48,1.078-1.142,1.434-1.947
		c0.344-0.817,0.5-1.662,0.518-2.495c0-0.775-0.185-1.388-0.471-1.8c-0.314-0.426-0.775-0.639-1.316-0.639
		c-0.946,0-1.902,0.666-2.857,2.095l-0.092-0.008c0.119-0.322,0.146-0.651,0.178-0.919c0-0.354-0.098-0.643-0.284-0.849
		c-0.188-0.213-0.459-0.319-0.764-0.319c-0.394,0-0.774,0.1-1.075,0.319c-0.324,0.213-0.747,0.54-1.184,1.045l0.441,0.435
		c0.311-0.341,0.535-0.607,0.734-0.705c0.178-0.13,0.324-0.195,0.508-0.195c0.146,0,0.223,0.034,0.318,0.14
		c0.068,0.091,0.072,0.212,0.103,0.444c0,0.302-0.063,0.674-0.164,1.161h-0.001l-1.869,8.155h2.397l0.062-0.381
		c-0.336-0.031-0.576-0.104-0.68-0.189c-0.115-0.095-0.193-0.271-0.173-0.481c0-0.235,0.012-0.552,0.116-0.899L216.637,31.562z
		 M217.113,29.828c0.014-0.143,0.043-0.354,0.098-0.623v-0.002l0.062-0.323c0.098-0.492,0.207-0.953,0.402-1.309
		c0.172-0.38,0.379-0.771,0.715-1.155c0.307-0.391,0.575-0.697,0.844-0.852c0.257-0.178,0.512-0.267,0.779-0.267
		c0.332,0,0.561,0.101,0.725,0.397c0.154,0.265,0.207,0.666,0.23,1.205c0,0.34-0.056,0.673-0.097,1.091
		c-0.065,0.388-0.188,0.757-0.288,1.133c-0.127,0.367-0.288,0.659-0.432,0.966c-0.159,0.277-0.344,0.514-0.539,0.709
		c-0.198,0.195-0.437,0.328-0.633,0.447c-0.222,0.102-0.482,0.152-0.729,0.152c-0.424,0-0.742-0.1-0.897-0.272
		c-0.172-0.182-0.291-0.491-0.258-0.873C217.096,30.114,217.098,29.962,217.113,29.828z"/>
	<path d="M227.768,34.936c0.15,0.176,0.362,0.264,0.635,0.264c0.149,0,0.283-0.034,0.434-0.062c0.141-0.041,0.262-0.12,0.428-0.196
		c0.146-0.092,0.291-0.239,0.449-0.351c0.155-0.141,0.318-0.339,0.518-0.509c-0.062-0.062-0.138-0.157-0.188-0.189
		c-0.065-0.063-0.146-0.162-0.188-0.194c-0.117,0.124-0.233,0.224-0.313,0.319c-0.093,0.088-0.206,0.149-0.255,0.218
		c-0.078,0.056-0.172,0.077-0.217,0.125c-0.064,0.025-0.154,0.038-0.197,0.038c-0.109,0-0.199-0.032-0.253-0.095
		c-0.06-0.064-0.099-0.198-0.089-0.311c0-0.105-0.01-0.236,0.029-0.362c0.019-0.138,0.032-0.314,0.103-0.521l0.853-3.691
		l-0.459-0.117l-0.547,0.392c-0.189-0.121-0.426-0.219-0.627-0.286c-0.229-0.07-0.521-0.105-0.791-0.105
		c-0.281,0-0.578,0.033-0.82,0.145c-0.264,0.096-0.521,0.214-0.748,0.406c-0.232,0.174-0.474,0.356-0.645,0.627
		c-0.195,0.244-0.389,0.484-0.506,0.812c-0.143,0.297-0.266,0.6-0.33,0.955c-0.078,0.339-0.125,0.69-0.116,1.058
		c0,0.618,0.091,1.084,0.367,1.413c0.246,0.323,0.582,0.484,1.044,0.484c0.196,0,0.385-0.034,0.566-0.086
		c0.181-0.058,0.347-0.161,0.537-0.27c0.178-0.123,0.332-0.305,0.539-0.469c0.181-0.188,0.354-0.448,0.561-0.687l0.002-0.002
		l0.08,0.034c-0.053,0.156-0.094,0.315-0.08,0.488C227.541,34.518,227.596,34.747,227.768,34.936z M227.379,33.186
		c-0.232,0.368-0.525,0.674-0.848,0.937c-0.133,0.096-0.276,0.156-0.379,0.211c-0.117,0.045-0.27,0.067-0.369,0.067
		c-0.256,0-0.451-0.101-0.559-0.293c-0.115-0.194-0.189-0.497-0.173-0.894c0-0.237,0.017-0.509,0.066-0.744
		c0.044-0.259,0.104-0.515,0.192-0.755c0.084-0.244,0.182-0.482,0.312-0.695c0.123-0.22,0.249-0.427,0.422-0.58
		c0.159-0.166,0.312-0.313,0.526-0.395c0.193-0.097,0.369-0.145,0.623-0.145c0.306,0,0.508,0.032,0.67,0.191
		c0.142,0.129,0.187,0.331,0.213,0.639c0,0.166-0.025,0.323-0.045,0.529c-0.03,0.186-0.074,0.365-0.125,0.623
		C227.789,32.384,227.587,32.79,227.379,33.186z"/>
	<rect x="233.4" y="20.8" width="1.141" height="14.4"/>
	<rect x="238.5" y="20.8" width="1.141" height="14.4"/>
	<path d="M262.941,18.03l0.435-2.841c0.01-0.058-0.015-0.12,0.022-0.188c0.006-0.068,0.006-0.169,0.009-0.212
		c0-0.126-0.035-0.256-0.039-0.381c-0.025-0.129-0.081-0.265-0.144-0.353c-0.07-0.106-0.179-0.226-0.291-0.259
		c-0.125-0.065-0.302-0.098-0.481-0.098c-0.233,0-0.483,0.034-0.683,0.122c-0.225,0.08-0.446,0.173-0.639,0.32
		c-0.201,0.133-0.41,0.252-0.572,0.443c-0.183,0.163-0.367,0.301-0.514,0.495l0.372,0.434c0.094-0.092,0.188-0.196,0.304-0.298
		c0.107-0.105,0.2-0.211,0.336-0.298c0.116-0.094,0.231-0.2,0.346-0.229c0.115-0.06,0.214-0.09,0.318-0.09
		c0.125,0,0.184,0.033,0.264,0.156c0.053,0.104,0.058,0.218,0.078,0.396c0,0.052-0.021,0.101-0.02,0.245
		c-0.012,0.111-0.061,0.211-0.05,0.353l-0.327,2.153c-0.057,0.342-0.111,0.674-0.139,1.019c-0.037,0.337-0.079,0.629-0.055,0.947
		c0,0.223,0.008,0.399,0.038,0.614c0.026,0.187,0.056,0.325,0.132,0.485c0.062,0.138,0.114,0.215,0.244,0.319
		c0.102,0.075,0.206,0.113,0.377,0.113l0.006-0.004c0.336,0,0.647-0.1,1.012-0.204c0.34-0.139,0.648-0.337,1.002-0.556
		c0.328-0.231,0.637-0.512,0.951-0.816c0.306-0.312,0.562-0.653,0.861-0.998c0.27-0.354,0.506-0.729,0.737-1.092
		c0.224-0.375,0.413-0.752,0.575-1.098c0.16-0.355,0.26-0.702,0.371-1.014c0.089-0.321,0.131-0.628,0.134-0.854
		c0-0.324-0.103-0.613-0.248-0.777c-0.166-0.194-0.453-0.291-0.808-0.291c-0.191,0-0.408,0.033-0.59,0.117
		c-0.203,0.078-0.424,0.173-0.588,0.312c-0.188,0.13-0.381,0.254-0.535,0.453c-0.168,0.172-0.315,0.344-0.438,0.538l0.442,0.395
		c0.197-0.272,0.381-0.512,0.569-0.661c0.185-0.17,0.38-0.254,0.603-0.254c0.172,0,0.266,0.033,0.378,0.153
		c0.079,0.101,0.114,0.217,0.12,0.433c0,0.433-0.071,0.836-0.215,1.288c-0.143,0.429-0.343,0.804-0.556,1.22
		c-0.228,0.384-0.509,0.72-0.769,1.072c-0.284,0.331-0.576,0.609-0.854,0.858c-0.285,0.241-0.559,0.399-0.816,0.57
		c-0.258,0.137-0.493,0.206-0.644,0.206c-0.071,0-0.126-0.101-0.147-0.203c-0.025-0.137-0.064-0.335-0.039-0.534
		c0-0.219,0.009-0.474,0.046-0.756C262.855,18.62,262.882,18.317,262.941,18.03z"/>
	<path d="M271.038,19.595c0-0.299-0.08-0.564-0.229-0.722c-0.152-0.182-0.39-0.273-0.647-0.273c-0.155,0-0.31,0-0.442,0.064
		c-0.14,0.042-0.312,0.087-0.422,0.2c-0.141,0.09-0.307,0.202-0.447,0.348c-0.156,0.142-0.341,0.303-0.518,0.508l0.391,0.369
		c0.113-0.117,0.205-0.247,0.307-0.305c0.091-0.088,0.147-0.183,0.252-0.216c0.076-0.058,0.15-0.114,0.22-0.129
		c0.069-0.027,0.136-0.041,0.208-0.041c0.223,0,0.318,0.134,0.333,0.412c0,0.099-0.015,0.194-0.034,0.379
		c-0.021,0.153-0.058,0.323-0.105,0.524l-0.851,3.685h1.111l0.634-2.83c0.037-0.174,0.072-0.363,0.178-0.522
		c0.082-0.175,0.157-0.358,0.28-0.502c0.106-0.159,0.222-0.341,0.349-0.45c0.125-0.141,0.225-0.273,0.387-0.367
		c0.132-0.103,0.234-0.213,0.394-0.241c0.13-0.059,0.236-0.087,0.366-0.087c0.197,0,0.312,0.033,0.428,0.164
		c0.088,0.108,0.129,0.254,0.133,0.513c0,0.098-0.037,0.206-0.037,0.369c-0.025,0.147-0.082,0.3-0.103,0.508
		c-0.043,0.19-0.101,0.372-0.153,0.62c-0.059,0.223-0.131,0.432-0.188,0.699c-0.065,0.241-0.142,0.45-0.146,0.664
		c-0.031,0.201-0.059,0.355-0.047,0.526c0,0.152,0.021,0.265,0.067,0.416c0.046,0.125,0.077,0.233,0.192,0.327
		c0.082,0.092,0.15,0.157,0.297,0.216c0.115,0.053,0.217,0.08,0.377,0.08c0.162,0,0.305-0.033,0.457-0.067
		c0.144-0.045,0.268-0.123,0.433-0.205c0.146-0.093,0.293-0.234,0.452-0.35c0.154-0.141,0.316-0.334,0.509-0.506L275.029,23
		c-0.112,0.124-0.223,0.224-0.305,0.32c-0.092,0.088-0.199,0.148-0.25,0.217c-0.076,0.056-0.168,0.078-0.218,0.125
		c-0.069,0.025-0.155,0.039-0.213,0.039c-0.117,0-0.231-0.033-0.255-0.096c-0.053-0.064-0.082-0.198-0.078-0.311
		c0-0.038-0.004-0.135,0.05-0.286c0.035-0.153,0.048-0.356,0.13-0.558c0.053-0.219,0.09-0.469,0.17-0.714
		c0.061-0.257,0.106-0.536,0.17-0.752c0.054-0.245,0.076-0.474,0.131-0.678c0.035-0.206,0.047-0.376,0.052-0.483
		c0-0.389-0.104-0.696-0.298-0.902c-0.198-0.213-0.504-0.32-0.895-0.32c-0.382,0-0.756,0.1-1.109,0.373
		c-0.355,0.248-0.727,0.623-1.084,1.125v-0.003l-0.079-0.027c0.034-0.075,0.051-0.165,0.069-0.237
		C271.031,19.749,271.025,19.638,271.038,19.595z"/>
	<rect x="282.256" y="17.8" width="9.566" height="1"/>
	<rect x="282.256" y="14.6" width="9.566" height="1"/>
	<path d="M312.842,5.93l0.435-2.841c0.01-0.057-0.015-0.12,0.022-0.187c0.005-0.068,0.006-0.17,0.008-0.213
		c0-0.125-0.034-0.256-0.039-0.381c-0.024-0.129-0.08-0.265-0.144-0.352c-0.07-0.107-0.178-0.227-0.291-0.259
		c-0.124-0.065-0.301-0.099-0.481-0.099c-0.232,0-0.482,0.034-0.683,0.122c-0.224,0.08-0.446,0.173-0.638,0.32
		c-0.201,0.133-0.41,0.252-0.573,0.444c-0.182,0.162-0.367,0.301-0.513,0.494l0.372,0.435c0.094-0.092,0.188-0.197,0.303-0.298
		c0.107-0.106,0.201-0.211,0.337-0.298c0.116-0.095,0.23-0.2,0.345-0.23c0.115-0.059,0.214-0.089,0.319-0.089
		c0.124,0,0.184,0.033,0.264,0.156c0.053,0.103,0.058,0.218,0.078,0.395c0,0.053-0.021,0.102-0.02,0.245
		c-0.013,0.112-0.061,0.212-0.051,0.353l-0.326,2.153c-0.057,0.343-0.112,0.675-0.14,1.02c-0.037,0.337-0.079,0.629-0.055,0.946
		c0,0.224,0.009,0.4,0.039,0.614c0.026,0.188,0.055,0.326,0.131,0.486c0.062,0.138,0.115,0.215,0.245,0.319
		c0.101,0.074,0.206,0.112,0.377,0.112l0.005-0.003c0.336,0,0.648-0.1,1.012-0.205c0.341-0.138,0.648-0.336,1.002-0.555
		c0.329-0.232,0.638-0.512,0.952-0.817c0.306-0.312,0.562-0.652,0.861-0.998c0.269-0.354,0.506-0.729,0.737-1.092
		c0.223-0.375,0.413-0.752,0.574-1.097c0.16-0.356,0.261-0.702,0.372-1.014c0.088-0.321,0.13-0.629,0.133-0.854
		c0-0.325-0.102-0.614-0.247-0.778c-0.166-0.193-0.453-0.291-0.809-0.291c-0.19,0-0.408,0.033-0.589,0.117
		c-0.203,0.079-0.424,0.173-0.588,0.313c-0.189,0.13-0.381,0.254-0.536,0.453c-0.168,0.172-0.315,0.344-0.438,0.537l0.441,0.396
		c0.197-0.273,0.382-0.512,0.57-0.662c0.184-0.169,0.38-0.253,0.603-0.253c0.171,0,0.266,0.033,0.377,0.153
		c0.08,0.101,0.115,0.217,0.12,0.433c0,0.432-0.07,0.836-0.214,1.288c-0.143,0.428-0.343,0.803-0.556,1.219
		c-0.229,0.384-0.509,0.72-0.77,1.073c-0.284,0.331-0.576,0.609-0.853,0.857c-0.285,0.241-0.56,0.4-0.816,0.57
		c-0.259,0.137-0.494,0.206-0.644,0.206c-0.072,0-0.126-0.1-0.147-0.203c-0.025-0.136-0.064-0.335-0.039-0.534
		c0-0.219,0.008-0.474,0.045-0.756C312.756,6.52,312.782,6.217,312.842,5.93z"/>
	<path d="M320.81,6.876c-0.151-0.183-0.389-0.274-0.646-0.274c-0.152,0-0.306,0-0.438,0.063c-0.14,0.042-0.28,0.087-0.425,0.2
		c-0.143,0.09-0.309,0.202-0.45,0.348c-0.155,0.141-0.34,0.303-0.517,0.508l0.391,0.369c0.113-0.117,0.205-0.247,0.307-0.305
		c0.09-0.088,0.146-0.184,0.248-0.216c0.075-0.058,0.116-0.114,0.219-0.128c0.069-0.028,0.137-0.043,0.212-0.043
		c0.222,0,0.319,0.135,0.333,0.414c0,0.099-0.014,0.193-0.031,0.362c-0.02,0.144-0.057,0.318-0.108,0.541l0.002-0.001l-0.851,3.684
		h1.111l0.577-2.702c0.041-0.194,0.095-0.393,0.187-0.578c0.083-0.192,0.174-0.398,0.292-0.544c0.111-0.171,0.205-0.33,0.354-0.473
		c0.125-0.146,0.234-0.279,0.377-0.378c0.127-0.105,0.244-0.214,0.358-0.245c0.114-0.057,0.212-0.084,0.303-0.08
		c0.146,0,0.244,0.034,0.336,0.14c0.078,0.093,0.096,0.247,0.145,0.461h0.656l0.287-1.322c-0.117-0.021-0.262-0.048-0.364-0.055
		c-0.126-0.015-0.283-0.022-0.405-0.022c-0.382,0-0.77,0.101-1.112,0.361c-0.36,0.24-0.745,0.586-1.114,1.127l-0.078-0.034
		c0.052-0.132,0.065-0.284,0.078-0.455C321.04,7.301,320.96,7.034,320.81,6.876z"/>
	<polygon points="331.119,8.868 334.706,5.337 338.184,8.9 338.961,8.123 335.475,4.581 335.475,4.579 338.953,1.02 338.223,0.298 
		334.706,3.821 331.189,0.298 330.412,1.075 333.945,4.58 330.397,8.138 	"/>
	<path d="M347.342,5.93l0.435-2.841c0.01-0.057-0.015-0.12,0.022-0.187c0.005-0.068,0.006-0.17,0.008-0.213
		c0-0.125-0.034-0.256-0.039-0.381c-0.024-0.129-0.08-0.265-0.144-0.352c-0.07-0.107-0.178-0.227-0.291-0.259
		c-0.124-0.065-0.301-0.099-0.481-0.099c-0.232,0-0.482,0.034-0.683,0.122c-0.224,0.08-0.446,0.173-0.638,0.32
		c-0.201,0.133-0.41,0.252-0.573,0.444c-0.182,0.162-0.367,0.301-0.513,0.494l0.372,0.435c0.094-0.092,0.188-0.197,0.303-0.298
		c0.107-0.106,0.201-0.211,0.337-0.298c0.116-0.095,0.23-0.2,0.345-0.23c0.115-0.059,0.214-0.089,0.319-0.089
		c0.124,0,0.184,0.033,0.264,0.156c0.053,0.103,0.058,0.218,0.078,0.395c0,0.053-0.021,0.102-0.02,0.245
		c-0.013,0.112-0.061,0.212-0.051,0.353l-0.326,2.153c-0.057,0.343-0.112,0.675-0.14,1.02c-0.037,0.337-0.079,0.629-0.055,0.946
		c0,0.224,0.009,0.4,0.039,0.614c0.026,0.188,0.055,0.326,0.131,0.486c0.062,0.138,0.115,0.215,0.245,0.319
		c0.101,0.074,0.206,0.112,0.377,0.112l0.005-0.003c0.336,0,0.648-0.1,1.012-0.205c0.341-0.138,0.648-0.336,1.002-0.555
		c0.329-0.232,0.638-0.512,0.952-0.817c0.306-0.312,0.562-0.652,0.861-0.998c0.269-0.354,0.506-0.729,0.737-1.092
		c0.223-0.375,0.413-0.752,0.574-1.097c0.16-0.356,0.261-0.702,0.372-1.014c0.088-0.321,0.13-0.629,0.133-0.854
		c0-0.325-0.102-0.614-0.247-0.778c-0.166-0.193-0.453-0.291-0.809-0.291c-0.19,0-0.408,0.033-0.589,0.117
		c-0.203,0.079-0.424,0.173-0.588,0.313c-0.189,0.13-0.381,0.254-0.536,0.453c-0.168,0.172-0.315,0.344-0.438,0.537l0.441,0.396
		c0.197-0.273,0.382-0.512,0.57-0.662c0.184-0.169,0.38-0.253,0.603-0.253c0.171,0,0.266,0.033,0.377,0.153
		c0.08,0.101,0.115,0.217,0.12,0.433c0,0.432-0.07,0.836-0.214,1.288c-0.143,0.428-0.343,0.803-0.556,1.219
		c-0.229,0.384-0.509,0.72-0.77,1.073c-0.284,0.331-0.576,0.609-0.853,0.857c-0.285,0.241-0.56,0.4-0.816,0.57
		c-0.259,0.137-0.494,0.206-0.644,0.206c-0.072,0-0.126-0.1-0.147-0.203c-0.025-0.136-0.064-0.335-0.039-0.534
		c0-0.219,0.008-0.474,0.045-0.756C347.256,6.52,347.282,6.217,347.342,5.93z"/>
	<path d="M355.386,8.832c0.071-0.251,0.109-0.496,0.152-0.68c0.03-0.204,0.017-0.389,0.045-0.553c0-0.304-0.095-0.57-0.244-0.728
		c-0.162-0.181-0.409-0.272-0.649-0.272c-0.162,0-0.326,0-0.453,0.059c-0.141,0.038-0.286,0.085-0.426,0.188
		c-0.143,0.088-0.314,0.172-0.455,0.348c-0.161,0.143-0.347,0.312-0.548,0.527l0.387,0.369c0.112-0.117,0.214-0.247,0.305-0.305
		c0.091-0.088,0.157-0.184,0.252-0.216c0.078-0.058,0.128-0.114,0.219-0.128c0.068-0.028,0.111-0.043,0.209-0.043
		c0.228,0,0.334,0.135,0.341,0.414c0,0.102-0.041,0.23-0.055,0.427c-0.036,0.182-0.091,0.368-0.133,0.608
		c-0.053,0.226-0.13,0.442-0.169,0.702c-0.061,0.243-0.148,0.459-0.17,0.697c-0.053,0.222-0.118,0.407-0.134,0.604
		c-0.035,0.181-0.056,0.297-0.054,0.424c0,0.395,0.099,0.67,0.304,0.908c0.201,0.211,0.499,0.316,0.902,0.316
		c0.382,0,0.744-0.133,1.103-0.372c0.354-0.248,0.715-0.624,1.091-1.116l-0.003-0.002l0.069,0.023
		c-0.031,0.074-0.056,0.129-0.063,0.234c-0.012,0.08-0.048,0.157-0.017,0.241c0,0.306,0.068,0.535,0.229,0.724
		c0.153,0.176,0.345,0.264,0.637,0.264c0.15,0,0.265-0.033,0.438-0.062c0.141-0.039,0.274-0.119,0.427-0.197
		c0.145-0.092,0.27-0.239,0.453-0.354c0.158-0.143,0.332-0.338,0.522-0.514l-0.392-0.373c-0.113,0.124-0.217,0.224-0.306,0.32
		c-0.09,0.088-0.192,0.148-0.253,0.217c-0.077,0.056-0.16,0.078-0.217,0.125c-0.068,0.025-0.146,0.039-0.209,0.039
		c-0.118,0-0.227-0.033-0.256-0.096c-0.052-0.063-0.107-0.198-0.078-0.312c0-0.104,0.004-0.236,0.028-0.384
		c0.019-0.151,0.045-0.354,0.095-0.514l0.872-3.692h-1.113l-0.623,2.825c-0.068,0.253-0.185,0.477-0.32,0.766
		c-0.145,0.257-0.321,0.46-0.495,0.7c-0.185,0.209-0.396,0.378-0.581,0.511c-0.201,0.131-0.419,0.197-0.568,0.197
		c-0.196,0-0.357-0.067-0.429-0.166c-0.089-0.11-0.14-0.288-0.133-0.503c0-0.181,0.026-0.49,0.125-0.849
		C355.129,9.796,355.213,9.335,355.386,8.832z"/>
	<rect x="299.357" y="16.12" width="71.856" height="1.035"/>
	<rect x="301.3" y="20.8" width="1.141" height="14.4"/>
	<rect x="306.3" y="20.8" width="1.141" height="14.4"/>
	<path d="M312.842,28.73l0.435-2.842c0.01-0.057-0.015-0.119,0.022-0.187c0.005-0.068,0.006-0.169,0.008-0.212
		c0-0.126-0.034-0.256-0.039-0.381c-0.024-0.129-0.08-0.266-0.144-0.353c-0.07-0.106-0.178-0.226-0.291-0.259
		c-0.124-0.065-0.301-0.098-0.481-0.098c-0.232,0-0.482,0.033-0.683,0.121c-0.224,0.08-0.446,0.174-0.638,0.32
		c-0.201,0.133-0.41,0.252-0.573,0.444c-0.182,0.163-0.367,0.301-0.513,0.495l0.372,0.434c0.094-0.092,0.188-0.197,0.303-0.298
		c0.107-0.106,0.201-0.211,0.337-0.298c0.116-0.094,0.23-0.2,0.345-0.23c0.115-0.059,0.214-0.089,0.319-0.089
		c0.124,0,0.184,0.033,0.264,0.156c0.053,0.103,0.058,0.218,0.078,0.396c0,0.052-0.021,0.101-0.02,0.244
		c-0.013,0.112-0.061,0.212-0.051,0.354l-0.326,2.152c-0.057,0.343-0.112,0.675-0.14,1.02c-0.037,0.337-0.079,0.629-0.055,0.947
		c0,0.223,0.009,0.399,0.039,0.613c0.026,0.188,0.055,0.326,0.131,0.486c0.062,0.138,0.115,0.215,0.245,0.319
		c0.101,0.075,0.206,0.112,0.377,0.112l0.005-0.003c0.336,0,0.648-0.1,1.012-0.204c0.341-0.139,0.648-0.337,1.002-0.556
		c0.329-0.231,0.638-0.512,0.952-0.817c0.306-0.312,0.562-0.652,0.861-0.998c0.269-0.354,0.506-0.729,0.737-1.092
		c0.223-0.375,0.413-0.752,0.574-1.097c0.16-0.356,0.261-0.702,0.372-1.014c0.088-0.321,0.13-0.628,0.133-0.854
		c0-0.325-0.102-0.614-0.247-0.778c-0.166-0.193-0.453-0.291-0.809-0.291c-0.19,0-0.408,0.033-0.589,0.117
		c-0.203,0.079-0.424,0.174-0.588,0.313c-0.189,0.13-0.381,0.254-0.536,0.453c-0.168,0.172-0.315,0.344-0.438,0.538l0.441,0.395
		c0.197-0.273,0.382-0.512,0.57-0.662c0.184-0.169,0.38-0.253,0.603-0.253c0.171,0,0.266,0.033,0.377,0.153
		c0.08,0.101,0.115,0.217,0.12,0.433c0,0.433-0.07,0.836-0.214,1.288c-0.143,0.428-0.343,0.803-0.556,1.219
		c-0.229,0.385-0.509,0.721-0.77,1.073c-0.284,0.331-0.576,0.609-0.853,0.858c-0.285,0.24-0.56,0.399-0.816,0.57
		c-0.259,0.137-0.494,0.205-0.644,0.205c-0.072,0-0.126-0.1-0.147-0.203c-0.025-0.136-0.064-0.334-0.039-0.533
		c0-0.219,0.008-0.475,0.045-0.756C312.756,29.32,312.782,29.018,312.842,28.73z"/>
	<path d="M320.81,29.576c-0.151-0.184-0.389-0.275-0.646-0.275c-0.152,0-0.306,0-0.438,0.064c-0.14,0.042-0.28,0.087-0.425,0.199
		c-0.143,0.091-0.309,0.203-0.45,0.349c-0.155,0.141-0.34,0.303-0.517,0.508l0.391,0.369c0.113-0.117,0.205-0.247,0.307-0.305
		c0.09-0.089,0.146-0.184,0.248-0.216c0.075-0.058,0.116-0.114,0.219-0.129c0.069-0.027,0.137-0.042,0.212-0.042
		c0.222,0,0.319,0.134,0.333,0.413c0,0.1-0.014,0.194-0.031,0.363c-0.02,0.143-0.057,0.318-0.108,0.541l0.002-0.001l-0.851,3.684
		h1.111l0.577-2.702c0.041-0.194,0.095-0.393,0.187-0.578c0.083-0.192,0.174-0.398,0.292-0.545c0.111-0.17,0.205-0.329,0.354-0.473
		c0.125-0.145,0.234-0.279,0.377-0.377c0.127-0.105,0.244-0.214,0.358-0.245c0.114-0.057,0.212-0.084,0.303-0.08
		c0.146,0,0.244,0.034,0.336,0.14c0.078,0.093,0.096,0.247,0.145,0.461h0.656l0.287-1.322c-0.117-0.021-0.262-0.048-0.364-0.055
		c-0.126-0.016-0.283-0.022-0.405-0.022c-0.382,0-0.77,0.101-1.112,0.361c-0.36,0.24-0.745,0.586-1.114,1.127l-0.078-0.034
		c0.052-0.132,0.065-0.284,0.078-0.455C321.04,30.001,320.96,29.734,320.81,29.576z"/>
	<polygon points="331.119,31.668 334.706,28.137 338.184,31.7 338.961,30.923 335.475,27.381 335.475,27.379 338.953,23.82 
		338.223,23.098 334.706,26.621 331.189,23.098 330.412,23.875 333.945,27.38 330.397,30.938 	"/>
	<path d="M347.342,28.73l0.435-2.842c0.01-0.057-0.015-0.119,0.022-0.187c0.005-0.068,0.006-0.169,0.008-0.212
		c0-0.126-0.034-0.256-0.039-0.381c-0.024-0.129-0.08-0.266-0.144-0.353c-0.07-0.106-0.178-0.226-0.291-0.259
		c-0.124-0.065-0.301-0.098-0.481-0.098c-0.232,0-0.482,0.033-0.683,0.121c-0.224,0.08-0.446,0.174-0.638,0.32
		c-0.201,0.133-0.41,0.252-0.573,0.444c-0.182,0.163-0.367,0.301-0.513,0.495l0.372,0.434c0.094-0.092,0.188-0.197,0.303-0.298
		c0.107-0.106,0.201-0.211,0.337-0.298c0.116-0.094,0.23-0.2,0.345-0.23c0.115-0.059,0.214-0.089,0.319-0.089
		c0.124,0,0.184,0.033,0.264,0.156c0.053,0.103,0.058,0.218,0.078,0.396c0,0.052-0.021,0.101-0.02,0.244
		c-0.013,0.112-0.061,0.212-0.051,0.354l-0.326,2.152c-0.057,0.343-0.112,0.675-0.14,1.02c-0.037,0.337-0.079,0.629-0.055,0.947
		c0,0.223,0.009,0.399,0.039,0.613c0.026,0.188,0.055,0.326,0.131,0.486c0.062,0.138,0.115,0.215,0.245,0.319
		c0.101,0.075,0.206,0.112,0.377,0.112l0.005-0.003c0.336,0,0.648-0.1,1.012-0.204c0.341-0.139,0.648-0.337,1.002-0.556
		c0.329-0.231,0.638-0.512,0.952-0.817c0.306-0.312,0.562-0.652,0.861-0.998c0.269-0.354,0.506-0.729,0.737-1.092
		c0.223-0.375,0.413-0.752,0.574-1.097c0.16-0.356,0.261-0.702,0.372-1.014c0.088-0.321,0.13-0.628,0.133-0.854
		c0-0.325-0.102-0.614-0.247-0.778c-0.166-0.193-0.453-0.291-0.809-0.291c-0.19,0-0.408,0.033-0.589,0.117
		c-0.203,0.079-0.424,0.174-0.588,0.313c-0.189,0.13-0.381,0.254-0.536,0.453c-0.168,0.172-0.315,0.344-0.438,0.538l0.441,0.395
		c0.197-0.273,0.382-0.512,0.57-0.662c0.184-0.169,0.38-0.253,0.603-0.253c0.171,0,0.266,0.033,0.377,0.153
		c0.08,0.101,0.115,0.217,0.12,0.433c0,0.433-0.07,0.836-0.214,1.288c-0.143,0.428-0.343,0.803-0.556,1.219
		c-0.229,0.385-0.509,0.721-0.77,1.073c-0.284,0.331-0.576,0.609-0.853,0.858c-0.285,0.24-0.56,0.399-0.816,0.57
		c-0.259,0.137-0.494,0.205-0.644,0.205c-0.072,0-0.126-0.1-0.147-0.203c-0.025-0.136-0.064-0.334-0.039-0.533
		c0-0.219,0.008-0.475,0.045-0.756C347.256,29.32,347.282,29.018,347.342,28.73z"/>
	<path d="M355.386,31.532c0.071-0.251,0.109-0.496,0.152-0.681c0.03-0.203,0.017-0.388,0.045-0.552c0-0.304-0.095-0.571-0.244-0.728
		c-0.162-0.182-0.409-0.272-0.649-0.272c-0.162,0-0.326,0-0.453,0.058c-0.141,0.039-0.286,0.086-0.426,0.188
		c-0.143,0.088-0.314,0.172-0.455,0.347c-0.161,0.144-0.347,0.312-0.548,0.528l0.387,0.369c0.112-0.117,0.214-0.247,0.305-0.305
		c0.091-0.089,0.157-0.184,0.252-0.216c0.078-0.058,0.128-0.114,0.219-0.129c0.068-0.027,0.111-0.042,0.209-0.042
		c0.228,0,0.334,0.134,0.341,0.413c0,0.103-0.041,0.231-0.055,0.428c-0.036,0.182-0.091,0.368-0.133,0.608
		c-0.053,0.226-0.13,0.442-0.169,0.702c-0.061,0.243-0.148,0.459-0.17,0.697c-0.053,0.222-0.118,0.406-0.134,0.604
		c-0.035,0.181-0.056,0.296-0.054,0.423c0,0.396,0.099,0.67,0.304,0.909c0.201,0.211,0.499,0.316,0.902,0.316
		c0.382,0,0.744-0.133,1.103-0.372c0.354-0.248,0.715-0.624,1.091-1.116l-0.003-0.002l0.069,0.022
		c-0.031,0.075-0.056,0.13-0.063,0.234c-0.012,0.081-0.048,0.158-0.017,0.242c0,0.306,0.068,0.535,0.229,0.723
		c0.153,0.176,0.345,0.265,0.637,0.265c0.15,0,0.265-0.033,0.438-0.062c0.141-0.04,0.274-0.119,0.427-0.198
		c0.145-0.092,0.27-0.238,0.453-0.353c0.158-0.144,0.332-0.338,0.522-0.514l-0.392-0.373c-0.113,0.124-0.217,0.224-0.306,0.319
		c-0.09,0.088-0.192,0.149-0.253,0.217c-0.077,0.057-0.16,0.078-0.217,0.125c-0.068,0.026-0.146,0.039-0.209,0.039
		c-0.118,0-0.227-0.032-0.256-0.095c-0.052-0.063-0.107-0.198-0.078-0.312c0-0.105,0.004-0.236,0.028-0.385
		c0.019-0.15,0.045-0.353,0.095-0.514l0.872-3.691h-1.113l-0.623,2.824c-0.068,0.254-0.185,0.478-0.32,0.767
		c-0.145,0.257-0.321,0.46-0.495,0.7c-0.185,0.209-0.396,0.378-0.581,0.511c-0.201,0.131-0.419,0.196-0.568,0.196
		c-0.196,0-0.357-0.066-0.429-0.166c-0.089-0.109-0.14-0.287-0.133-0.502c0-0.181,0.026-0.49,0.125-0.849
		C355.129,32.496,355.213,32.035,355.386,31.532z"/>
	<rect x="363" y="20.8" width="1.141" height="14.4"/>
	<rect x="368.1" y="20.8" width="1.141" height="14.4"/>
</g>
</svg>
