<?xml version="1.0" encoding="utf-8"?>
<!-- Generator: Adobe Illustrator 15.1.0, SVG Export Plug-In . SVG Version: 6.00 Build 0)  -->
<!DOCTYPE svg PUBLIC "-//W3C//DTD SVG 1.1 Tiny//EN" "http://www.w3.org/Graphics/SVG/1.1/DTD/svg11-tiny.dtd">
<svg version="1.1" baseProfile="tiny" id="Layer_1" xmlns="http://www.w3.org/2000/svg" xmlns:xlink="http://www.w3.org/1999/xlink"
	 x="0px" y="0px" width="167px" height="71px" viewBox="0 0 167 71" overflow="inherit" xml:space="preserve">
<g>
	<path fill="none" d="M95.778,9.333c0.289,0.767,0.804,1.167,1.464,1.167c0.615,0,1.096-0.366,1.4-1.098
		c0.29-0.734,0.457-1.869,0.457-3.406c0-1.207-0.078-2.126-0.233-2.854c-0.179-0.741-0.373-1.25-0.652-1.566
		c-0.283-0.341-0.615-0.475-1.011-0.475c-0.361,0-0.66,0.104-0.902,0.313c-0.242,0.205-0.437,0.511-0.586,0.905
		c-0.152,0.387-0.253,0.871-0.316,1.436c-0.062,0.546-0.094,1.202-0.094,1.911l0.001-0.001C95.304,7.311,95.463,8.554,95.778,9.333z
		"/>
	<path fill="none" d="M142.676,10.803c0.196-0.122,0.383-0.264,0.488-0.43c0.083-0.19,0.156-0.347,0.156-0.545
		c-0.006-0.238-0.059-0.406-0.178-0.534c-0.131-0.16-0.287-0.194-0.509-0.194c-0.218,0-0.411,0.051-0.614,0.148
		c-0.209,0.083-0.393,0.24-0.572,0.422c-0.195,0.159-0.342,0.403-0.489,0.662c-0.166,0.248-0.271,0.548-0.369,0.867l-0.001,0.001
		c0.451-0.004,0.893-0.041,1.238-0.111C142.164,10.99,142.455,10.924,142.676,10.803z"/>
	<path fill="none" d="M95.778,28.433c0.289,0.768,0.804,1.167,1.464,1.167c0.615,0,1.096-0.365,1.4-1.098
		c0.29-0.734,0.457-1.869,0.457-3.406c0-1.207-0.078-2.126-0.233-2.853c-0.179-0.742-0.373-1.25-0.652-1.567
		c-0.283-0.341-0.615-0.475-1.011-0.475c-0.361,0-0.66,0.104-0.902,0.313c-0.242,0.205-0.437,0.512-0.586,0.905
		c-0.152,0.387-0.253,0.871-0.316,1.436c-0.062,0.547-0.094,1.202-0.094,1.912l0.001-0.002
		C95.304,26.41,95.463,27.654,95.778,28.433z"/>
	<path fill="none" d="M143.076,49.104c0.195-0.123,0.383-0.265,0.488-0.431c0.082-0.19,0.156-0.347,0.156-0.545
		c-0.007-0.238-0.06-0.406-0.178-0.534c-0.131-0.16-0.287-0.193-0.509-0.193c-0.218,0-0.412,0.05-0.614,0.147
		c-0.209,0.083-0.393,0.24-0.572,0.422c-0.195,0.159-0.343,0.403-0.49,0.662c-0.166,0.248-0.27,0.548-0.369,0.867V49.5
		c0.451-0.004,0.893-0.041,1.238-0.111C142.564,49.29,142.855,49.224,143.076,49.104z"/>
	<path fill="none" d="M95.778,66.732c0.289,0.768,0.804,1.168,1.464,1.168c0.615,0,1.096-0.366,1.4-1.099
		c0.29-0.733,0.457-1.869,0.457-3.405c0-1.207-0.078-2.127-0.233-2.854c-0.179-0.742-0.373-1.25-0.652-1.566
		c-0.283-0.342-0.615-0.476-1.011-0.476c-0.361,0-0.66,0.104-0.902,0.313c-0.242,0.205-0.437,0.512-0.586,0.905
		c-0.152,0.388-0.253,0.871-0.316,1.437c-0.062,0.546-0.094,1.201-0.094,1.911l0.001-0.001
		C95.304,64.71,95.463,65.954,95.778,66.732z"/>
	<path fill="none" d="M132.611,8.403v0.002c-0.055,0.27-0.084,0.479-0.098,0.623c-0.017,0.134-0.019,0.286-0.019,0.425
		c-0.032,0.382,0.086,0.691,0.259,0.873c0.155,0.173,0.473,0.272,0.896,0.272c0.248,0,0.509-0.051,0.73-0.152
		c0.196-0.119,0.434-0.252,0.633-0.447c0.194-0.196,0.379-0.432,0.539-0.709c0.143-0.308,0.305-0.599,0.432-0.966
		c0.099-0.376,0.223-0.745,0.287-1.133c0.041-0.418,0.098-0.752,0.098-1.092c-0.023-0.539-0.077-0.939-0.23-1.205
		c-0.164-0.297-0.394-0.396-0.725-0.396c-0.268,0-0.523,0.089-0.78,0.266c-0.268,0.155-0.536,0.461-0.844,0.853
		c-0.336,0.384-0.543,0.774-0.714,1.155c-0.196,0.355-0.305,0.816-0.403,1.309L132.611,8.403z"/>
	<path fill="none" d="M133.451,29.699c0.247,0,0.508-0.051,0.73-0.153c0.195-0.119,0.434-0.252,0.633-0.447
		c0.193-0.195,0.379-0.432,0.539-0.709c0.143-0.307,0.304-0.599,0.431-0.966c0.099-0.376,0.223-0.745,0.288-1.133
		c0.041-0.418,0.097-0.751,0.097-1.091c-0.022-0.539-0.077-0.94-0.229-1.205c-0.166-0.297-0.395-0.397-0.726-0.397
		c-0.269,0-0.522,0.09-0.78,0.267c-0.268,0.155-0.537,0.461-0.844,0.852c-0.336,0.384-0.543,0.775-0.714,1.155
		c-0.196,0.355-0.306,0.816-0.403,1.309l-0.062,0.323v0.002c-0.056,0.271-0.084,0.48-0.097,0.623
		c-0.018,0.134-0.02,0.286-0.02,0.425c-0.031,0.383,0.086,0.691,0.26,0.873C132.709,29.599,133.027,29.699,133.451,29.699z"/>
	<path fill="none" d="M142.477,30.003c0.195-0.122,0.383-0.264,0.487-0.43c0.083-0.19,0.156-0.347,0.156-0.545
		c-0.007-0.238-0.06-0.406-0.177-0.534c-0.131-0.16-0.287-0.194-0.51-0.194c-0.218,0-0.412,0.05-0.613,0.148
		c-0.209,0.083-0.394,0.239-0.573,0.422c-0.195,0.159-0.343,0.403-0.489,0.662c-0.166,0.248-0.27,0.548-0.369,0.866V30.4
		c0.45-0.004,0.893-0.041,1.237-0.111C141.964,30.189,142.255,30.124,142.477,30.003z"/>
	<path fill="none" d="M135.814,42.698c-0.269,0-0.523,0.089-0.78,0.266c-0.269,0.155-0.537,0.461-0.845,0.853
		c-0.336,0.384-0.543,0.774-0.713,1.154c-0.197,0.356-0.306,0.817-0.403,1.31l-0.062,0.323v0.002
		c-0.056,0.27-0.085,0.479-0.098,0.623c-0.018,0.134-0.02,0.285-0.02,0.425c-0.031,0.382,0.086,0.69,0.26,0.873
		c0.154,0.173,0.473,0.272,0.896,0.272c0.247,0,0.508-0.051,0.73-0.152c0.195-0.119,0.434-0.252,0.633-0.447
		c0.193-0.196,0.379-0.432,0.539-0.709c0.143-0.308,0.304-0.6,0.431-0.967c0.099-0.375,0.224-0.744,0.288-1.133
		c0.041-0.418,0.098-0.751,0.098-1.091c-0.023-0.539-0.078-0.939-0.23-1.205C136.374,42.798,136.145,42.698,135.814,42.698z"/>
	<path fill="none" d="M46.278,28.433c0.289,0.768,0.804,1.167,1.464,1.167c0.615,0,1.096-0.365,1.4-1.098
		c0.291-0.734,0.458-1.869,0.458-3.406c0-1.207-0.078-2.126-0.234-2.853c-0.178-0.742-0.373-1.25-0.652-1.567
		c-0.283-0.341-0.615-0.475-1.011-0.475c-0.361,0-0.66,0.104-0.902,0.313c-0.242,0.205-0.437,0.512-0.586,0.905
		c-0.153,0.387-0.253,0.871-0.316,1.436c-0.062,0.547-0.094,1.202-0.094,1.912l0-0.002C45.804,26.41,45.963,27.654,46.278,28.433z"
		/>
	<path fill="none" d="M46.278,47.533c0.289,0.767,0.804,1.167,1.464,1.167c0.615,0,1.096-0.366,1.4-1.099
		c0.291-0.733,0.458-1.869,0.458-3.405c0-1.207-0.078-2.126-0.234-2.854c-0.178-0.741-0.373-1.25-0.652-1.566
		c-0.283-0.341-0.615-0.476-1.011-0.476c-0.361,0-0.66,0.105-0.902,0.314c-0.242,0.205-0.437,0.511-0.586,0.904
		c-0.153,0.388-0.253,0.871-0.316,1.437c-0.062,0.546-0.094,1.202-0.094,1.911l0-0.001C45.804,45.51,45.963,46.754,46.278,47.533z"
		/>
	<path fill="none" d="M46.278,66.732c0.289,0.768,0.804,1.168,1.464,1.168c0.615,0,1.096-0.366,1.4-1.099
		c0.291-0.733,0.458-1.869,0.458-3.405c0-1.207-0.078-2.127-0.234-2.854c-0.178-0.742-0.373-1.25-0.652-1.566
		c-0.283-0.342-0.615-0.476-1.011-0.476c-0.361,0-0.66,0.104-0.902,0.313c-0.242,0.205-0.437,0.512-0.586,0.905
		c-0.153,0.388-0.253,0.871-0.316,1.437c-0.062,0.546-0.094,1.201-0.094,1.911l0-0.001C45.804,64.71,45.963,65.954,46.278,66.732z"
		/>
	<path fill="none" d="M70.978,47.533c0.289,0.767,0.804,1.167,1.464,1.167c0.615,0,1.096-0.366,1.4-1.099
		c0.291-0.733,0.458-1.869,0.458-3.405c0-1.207-0.078-2.126-0.234-2.854c-0.178-0.741-0.373-1.25-0.652-1.566
		c-0.283-0.341-0.615-0.476-1.011-0.476c-0.361,0-0.66,0.105-0.902,0.314c-0.242,0.205-0.437,0.511-0.586,0.904
		c-0.153,0.388-0.253,0.871-0.316,1.437c-0.062,0.546-0.094,1.202-0.094,1.911l0.001-0.001
		C70.504,45.51,70.663,46.754,70.978,47.533z"/>
	<path fill="none" d="M73.414,1.576c-0.283-0.341-0.615-0.475-1.011-0.475c-0.361,0-0.66,0.104-0.902,0.313
		c-0.242,0.205-0.437,0.511-0.586,0.905c-0.153,0.387-0.253,0.871-0.316,1.436c-0.062,0.546-0.094,1.202-0.094,1.911l0.001-0.001
		c-0.002,1.645,0.157,2.888,0.472,3.667c0.289,0.767,0.804,1.167,1.464,1.167c0.615,0,1.096-0.366,1.4-1.098
		C74.133,8.668,74.3,7.533,74.3,5.996c0-1.207-0.078-2.126-0.234-2.854C73.888,2.401,73.693,1.893,73.414,1.576z"/>
	<path fill="none" d="M70.978,66.732c0.289,0.768,0.804,1.168,1.464,1.168c0.615,0,1.096-0.366,1.4-1.099
		c0.291-0.733,0.458-1.869,0.458-3.405c0-1.207-0.078-2.127-0.234-2.854c-0.178-0.742-0.373-1.25-0.652-1.566
		c-0.283-0.342-0.615-0.476-1.011-0.476c-0.361,0-0.66,0.104-0.902,0.313c-0.242,0.205-0.437,0.512-0.586,0.905
		c-0.153,0.388-0.253,0.871-0.316,1.437c-0.062,0.546-0.094,1.201-0.094,1.911l0.001-0.001
		C70.504,64.71,70.663,65.954,70.978,66.732z"/>
	<path d="M3.434,38.708c0.018-0.119,0.041-0.288,0.098-0.479L5.216,30.6h1.148c0.269,0,0.448,0,0.562,0.072
		c0.106,0.048,0.165,0.125,0.269,0.266c0.073,0.129,0.108,0.282,0.147,0.562c0.026,0.245,0.012,0.613,0.039,1.103h0.745l0.606-2.7
		H0.626l-0.581,2.6H0.79c0.273-0.586,0.477-1.019,0.698-1.252C1.679,31,1.851,30.817,2.063,30.738
		c0.192-0.092,0.438-0.137,0.769-0.137h0.986l-1.663,7.572c-0.104,0.471-0.221,0.812-0.268,1.053c-0.075,0.231-0.17,0.39-0.225,0.51
		C1.588,39.845,1.5,39.9,1.402,39.977c-0.098,0.052-0.265,0.093-0.458,0.123L0.86,40.5h3.267l0.002,0.001l0.086-0.399
		c-0.253-0.021-0.457-0.055-0.536-0.093c-0.103-0.042-0.195-0.11-0.232-0.196c-0.052-0.092-0.1-0.229-0.078-0.377
		c0-0.104-0.022-0.248,0.019-0.353C3.4,38.952,3.406,38.824,3.434,38.708z"/>
	<rect x="14.556" y="37.1" width="9.566" height="1"/>
	<rect x="14.556" y="33.9" width="9.566" height="1"/>
	<polygon points="31.9,2.302 35,2.302 35,1.602 30.3,1.602 30.3,17.901 31.9,17.901 	"/>
	<polygon points="31.9,20.8 31.9,17.901 30.3,17.901 30.271,17.901 30.271,34.401 31.9,34.401 	"/>
	<polygon points="31.9,51.102 31.9,37.4 31.9,34.401 30.271,34.401 30.271,37.4 30.271,53.9 30.3,53.9 30.3,51.102 	"/>
	<polygon points="31.9,51.102 30.3,51.102 30.3,53.9 30.3,70.4 35,70.4 35,69.7 31.9,69.7 31.9,53.9 	"/>
	<path d="M48.705,2.46c0-0.878-0.001-1.565,0.047-2.062h-0.427L44.7,2.602l0.341,0.598c0.449-0.305,0.802-0.571,1.13-0.717
		c0.304-0.172,0.514-0.267,0.705-0.259c0.139,0,0.214,0.025,0.316,0.145c0.072,0.095,0.109,0.239,0.109,0.45v6.263
		c0,0.361-0.034,0.6-0.091,0.78c-0.061,0.158-0.164,0.271-0.288,0.369c-0.131,0.089-0.339,0.145-0.572,0.197
		c-0.25,0.044-0.667,0.068-1.25,0.105V11.1h5.805v-0.566c-0.405-0.01-0.74-0.055-0.979-0.059c-0.247-0.027-0.456-0.086-0.616-0.123
		c-0.162-0.055-0.299-0.139-0.373-0.225c-0.086-0.096-0.165-0.238-0.181-0.372c-0.035-0.153-0.054-0.405-0.052-0.678V9.076V2.46z"/>
	<path d="M74.976,1.706C74.422,0.836,73.563,0.4,72.443,0.4c-0.503,0-0.982,0.1-1.391,0.324c-0.425,0.218-0.809,0.543-1.091,1.002
		c-0.303,0.45-0.557,1.009-0.708,1.711C69.084,4.128,69,4.916,69,5.896c0,1.784,0.267,3.084,0.819,3.989
		c0.545,0.876,1.373,1.314,2.498,1.314h0c1.139,0,2-0.5,2.598-1.403c0.594-0.936,0.889-2.335,0.891-4.141
		C75.807,3.893,75.505,2.575,74.976,1.706z M73.842,9.402c-0.304,0.731-0.785,1.098-1.4,1.098c-0.66,0-1.175-0.4-1.464-1.167
		c-0.315-0.779-0.474-2.022-0.472-3.667l-0.001,0.001c0-0.709,0.032-1.365,0.094-1.911c0.063-0.564,0.164-1.049,0.316-1.436
		c0.149-0.395,0.344-0.7,0.586-0.905c0.242-0.209,0.541-0.313,0.902-0.313c0.396,0,0.728,0.134,1.011,0.475
		c0.279,0.316,0.474,0.825,0.652,1.566C74.222,3.87,74.3,4.789,74.3,5.996C74.3,7.533,74.133,8.668,73.842,9.402z"/>
	<path d="M97.117,11.2L97.117,11.2c1.14,0,2.001-0.5,2.599-1.403c0.595-0.936,0.89-2.335,0.892-4.141
		c0-1.764-0.303-3.081-0.831-3.95C99.222,0.836,98.363,0.4,97.243,0.4c-0.503,0-0.983,0.1-1.392,0.324
		c-0.425,0.218-0.809,0.543-1.092,1.002c-0.303,0.45-0.556,1.009-0.708,1.711C93.884,4.128,93.8,4.916,93.8,5.896
		c0,1.784,0.268,3.084,0.819,3.989C95.165,10.762,95.992,11.2,97.117,11.2z M95.398,3.756c0.063-0.564,0.164-1.049,0.316-1.436
		c0.149-0.395,0.344-0.7,0.586-0.905c0.242-0.209,0.541-0.313,0.902-0.313c0.396,0,0.728,0.134,1.011,0.475
		c0.279,0.316,0.474,0.825,0.652,1.566C99.021,3.87,99.1,4.789,99.1,5.996c0,1.537-0.167,2.672-0.457,3.406
		c-0.305,0.731-0.785,1.098-1.4,1.098c-0.66,0-1.175-0.4-1.464-1.167c-0.315-0.779-0.475-2.022-0.473-3.667l-0.001,0.001
		C95.305,4.958,95.337,4.302,95.398,3.756z"/>
	<rect x="118.956" y="6.1" width="9.565" height="1"/>
	<path d="M132.909,3.921c-0.188-0.213-0.459-0.319-0.765-0.319c-0.393,0-0.774,0.1-1.074,0.319c-0.324,0.213-0.747,0.54-1.184,1.045
		l0.441,0.435c0.311-0.342,0.535-0.607,0.734-0.705c0.178-0.131,0.324-0.195,0.508-0.195c0.146,0,0.223,0.034,0.318,0.139
		c0.068,0.092,0.072,0.213,0.103,0.445c0,0.302-0.064,0.674-0.164,1.161h-0.001l-1.87,8.155h2.397l0.062-0.381
		c-0.337-0.031-0.576-0.104-0.68-0.189c-0.115-0.095-0.194-0.271-0.174-0.481c0-0.235,0.013-0.552,0.117-0.899l0.357-1.687
		c0.455,0.292,1.01,0.438,1.716,0.438c0.755,0,1.437-0.268,2.048-0.719c0.612-0.48,1.078-1.142,1.434-1.947
		c0.344-0.817,0.5-1.662,0.517-2.495c0-0.775-0.185-1.388-0.47-1.8c-0.314-0.426-0.775-0.639-1.316-0.639
		c-0.947,0-1.902,0.666-2.857,2.095l-0.092-0.009c0.118-0.321,0.146-0.65,0.178-0.918C133.193,4.416,133.096,4.127,132.909,3.921z
		 M133.076,6.771c0.171-0.381,0.378-0.771,0.714-1.155c0.308-0.392,0.576-0.697,0.844-0.853c0.257-0.177,0.513-0.266,0.78-0.266
		c0.331,0,0.561,0.1,0.725,0.396c0.153,0.266,0.207,0.666,0.23,1.205c0,0.34-0.057,0.674-0.098,1.092
		c-0.064,0.388-0.188,0.757-0.287,1.133c-0.127,0.367-0.289,0.658-0.432,0.966c-0.16,0.277-0.345,0.513-0.539,0.709
		c-0.199,0.195-0.437,0.328-0.633,0.447c-0.222,0.102-0.482,0.152-0.73,0.152c-0.424,0-0.741-0.1-0.896-0.272
		c-0.173-0.182-0.291-0.491-0.259-0.873c0-0.139,0.002-0.291,0.019-0.425c0.014-0.144,0.043-0.354,0.098-0.623V8.403l0.062-0.323
		C132.771,7.588,132.88,7.127,133.076,6.771z"/>
	<path d="M140.477,11.8c2.584,0,3.859-0.7,3.877-2.069c0-0.394-0.151-0.703-0.377-0.908c-0.25-0.213-0.642-0.32-1.1-0.32
		c-0.529,0-1.021,0.1-1.466,0.331c-0.447,0.221-0.851,0.51-1.146,0.922c-0.158,0.193-0.313,0.375-0.414,0.623
		c-0.117,0.221-0.233,0.428-0.293,0.681c-0.08,0.232-0.166,0.446-0.178,0.698c-0.037,0.233-0.064,0.447-0.056,0.672
		c0,0.308,0.024,0.564,0.122,0.827c0.08,0.244,0.199,0.425,0.355,0.622c0.157,0.17,0.323,0.277,0.578,0.39
		c0.229,0.088,0.467,0.133,0.784,0.133c0.502,0,0.946-0.133,1.408-0.319c0.436-0.213,0.845-0.541,1.311-0.953h0.003l-0.426-0.459
		c-0.177,0.181-0.363,0.325-0.509,0.467c-0.162,0.13-0.347,0.218-0.484,0.32c-0.161,0.083-0.35,0.131-0.491,0.184
		c-0.166,0.039-0.357,0.06-0.526,0.06c-0.354,0-0.638-0.101-0.784-0.286c-0.168-0.19-0.256-0.495-0.252-0.909
		c0-0.137-0.004-0.271,0.018-0.381C140.441,12.007,140.432,11.898,140.477,11.8z M140.589,11.199
		c0.099-0.319,0.203-0.619,0.369-0.867c0.147-0.259,0.294-0.503,0.489-0.662c0.18-0.182,0.363-0.339,0.572-0.422
		c0.203-0.098,0.396-0.148,0.614-0.148c0.222,0,0.378,0.034,0.509,0.194c0.119,0.128,0.172,0.296,0.178,0.534
		c0,0.198-0.073,0.354-0.156,0.545c-0.105,0.166-0.292,0.308-0.488,0.43c-0.221,0.121-0.512,0.188-0.85,0.286
		C141.48,11.159,141.039,11.196,140.589,11.199L140.589,11.199z"/>
	<path d="M146.789,12.891c-0.124,0.144-0.253,0.245-0.309,0.334c-0.082,0.081-0.174,0.139-0.201,0.178
		c-0.053,0.037-0.112,0.035-0.139,0.071c-0.041,0.012-0.086,0.02-0.123,0.023c-0.113,0-0.186-0.101-0.186-0.3h-0.482l-0.26,1.098
		c0.139,0.068,0.277,0.102,0.503,0.102c0.136,0,0.24-0.032,0.372-0.033c0.111-0.023,0.191-0.078,0.325-0.125
		c0.106-0.061,0.21-0.174,0.323-0.247c0.109-0.104,0.205-0.27,0.367-0.397c0.136-0.162,0.276-0.359,0.455-0.58
		c0.17-0.225,0.357-0.496,0.592-0.792h0.062c0.004,0.046,0.008,0.104,0.025,0.208c0.013,0.094,0.008,0.183,0.053,0.316
		c0.023,0.117,0.034,0.234,0.086,0.377c0.034,0.134,0.051,0.259,0.112,0.389c0.041,0.125,0.086,0.221,0.136,0.351
		c0.05,0.107,0.082,0.186,0.159,0.258c0.083,0.106,0.163,0.166,0.294,0.219c0.113,0.039,0.229,0.06,0.386,0.06
		c0.166,0,0.286-0.034,0.442-0.051c0.128-0.031,0.232-0.115,0.373-0.187c0.119-0.093,0.234-0.247,0.373-0.383
		c0.129-0.163,0.252-0.391,0.441-0.627l-0.424-0.278c-0.098,0.159-0.214,0.267-0.255,0.383c-0.071,0.096-0.169,0.143-0.194,0.221
		c-0.059,0.051-0.125,0.059-0.171,0.1c-0.054,0.015-0.13,0.021-0.178,0.021c-0.087,0-0.17-0.033-0.233-0.074
		c-0.067-0.051-0.14-0.159-0.203-0.323c-0.067-0.164-0.139-0.431-0.213-0.712c-0.074-0.312-0.174-0.74-0.264-1.241
		c0.201-0.254,0.355-0.504,0.533-0.661c0.154-0.188,0.266-0.35,0.414-0.473c0.121-0.129,0.193-0.234,0.314-0.314
		c0.088-0.08,0.155-0.146,0.233-0.187c0.069-0.044,0.125-0.082,0.177-0.089c0.049-0.016,0.079-0.023,0.135-0.023
		c0.108,0,0.16,0.1,0.181,0.3h0.47l0.283-1.188c-0.156-0.072-0.348-0.109-0.516-0.109c-0.129,0-0.248-0.001-0.349,0.028
		c-0.104,0.019-0.208,0.042-0.302,0.104c-0.098,0.051-0.201,0.106-0.303,0.219c-0.104,0.095-0.239,0.211-0.353,0.369
		c-0.13,0.151-0.282,0.311-0.444,0.557c-0.166,0.22-0.371,0.46-0.588,0.777h-0.074c-0.064-0.328-0.147-0.647-0.183-0.877
		c-0.056-0.256-0.146-0.482-0.214-0.645c-0.087-0.175-0.204-0.32-0.328-0.397c-0.132-0.091-0.307-0.136-0.509-0.136
		c-0.175,0-0.347,0-0.463,0.062c-0.136,0.043-0.286,0.088-0.384,0.207c-0.12,0.096-0.244,0.205-0.368,0.386
		c-0.124,0.161-0.291,0.342-0.417,0.591l0.436,0.284c0.092-0.151,0.151-0.295,0.241-0.369c0.069-0.094,0.116-0.183,0.192-0.22
		c0.058-0.054,0.106-0.101,0.168-0.111c0.056-0.02,0.115-0.031,0.181-0.031c0.067,0.004,0.101,0.004,0.179,0.045
		c0.051,0.026,0.09,0.045,0.141,0.133c0.043,0.062,0.07,0.137,0.128,0.25c0.04,0.105,0.058,0.229,0.128,0.409
		c0.044,0.167,0.085,0.354,0.141,0.601c0.051,0.232,0.079,0.486,0.18,0.822l0.004-0.003c-0.254,0.317-0.486,0.563-0.652,0.798
		C147.066,12.57,146.885,12.717,146.789,12.891z"/>
	<path d="M44.3,24.997c0,1.784,0.268,3.084,0.819,3.989c0.546,0.876,1.373,1.313,2.498,1.313h0.001c1.139,0,2-0.5,2.598-1.403
		c0.594-0.936,0.889-2.334,0.891-4.141c0-1.763-0.302-3.081-0.831-3.95c-0.555-0.87-1.414-1.306-2.533-1.306
		c-0.503,0-0.983,0.1-1.391,0.325c-0.425,0.217-0.809,0.542-1.092,1.002c-0.303,0.45-0.556,1.008-0.708,1.711
		C44.384,23.229,44.3,24.016,44.3,24.997z M45.899,22.855c0.063-0.564,0.163-1.049,0.316-1.436c0.149-0.394,0.344-0.7,0.586-0.905
		c0.242-0.209,0.541-0.313,0.902-0.313c0.396,0,0.728,0.134,1.011,0.475c0.279,0.317,0.474,0.825,0.652,1.567
		c0.156,0.727,0.234,1.646,0.234,2.853c0,1.537-0.167,2.672-0.458,3.406c-0.304,0.732-0.785,1.098-1.4,1.098
		c-0.66,0-1.175-0.399-1.464-1.167c-0.315-0.778-0.475-2.022-0.473-3.667l0,0.002C45.805,24.058,45.837,23.402,45.899,22.855z"/>
	<path d="M71.91,28.961c-0.062,0.159-0.164,0.271-0.288,0.37c-0.131,0.088-0.339,0.144-0.572,0.197
		c-0.25,0.044-0.667,0.067-1.25,0.104V30.2h5.805v-0.567c-0.405-0.01-0.74-0.055-0.978-0.058c-0.247-0.028-0.456-0.086-0.616-0.123
		c-0.162-0.056-0.299-0.14-0.373-0.226c-0.086-0.096-0.165-0.237-0.181-0.371c-0.035-0.153-0.054-0.405-0.052-0.679v-0.001v-6.615
		c0-0.879-0.001-1.565,0.047-2.062h-0.427L69.4,21.701l0.341,0.598c0.449-0.304,0.802-0.57,1.13-0.716
		c0.304-0.172,0.514-0.267,0.705-0.259c0.139,0,0.214,0.024,0.316,0.144c0.072,0.095,0.109,0.239,0.109,0.45v6.263
		C72.001,28.542,71.967,28.781,71.91,28.961z"/>
	<path d="M94.619,28.986c0.546,0.876,1.373,1.313,2.498,1.313h0.001c1.139,0,2-0.5,2.598-1.403c0.595-0.936,0.89-2.334,0.892-4.141
		c0-1.763-0.303-3.081-0.831-3.95c-0.555-0.87-1.413-1.306-2.533-1.306c-0.503,0-0.983,0.1-1.392,0.325
		c-0.425,0.217-0.809,0.542-1.092,1.002c-0.303,0.45-0.556,1.008-0.708,1.711c-0.168,0.69-0.252,1.478-0.252,2.459
		C93.8,26.781,94.067,28.081,94.619,28.986z M95.398,22.855c0.063-0.564,0.164-1.049,0.316-1.436c0.149-0.394,0.344-0.7,0.586-0.905
		c0.242-0.209,0.541-0.313,0.902-0.313c0.396,0,0.728,0.134,1.011,0.475c0.279,0.317,0.474,0.825,0.652,1.567
		c0.155,0.727,0.233,1.646,0.233,2.853c0,1.537-0.167,2.672-0.457,3.406c-0.305,0.732-0.785,1.098-1.4,1.098
		c-0.66,0-1.175-0.399-1.464-1.167c-0.315-0.778-0.475-2.022-0.473-3.667l-0.001,0.002C95.305,24.058,95.337,23.402,95.398,22.855z"
		/>
	<rect x="118.756" y="25.2" width="9.566" height="1"/>
	<path d="M130.128,24.5c0.312-0.341,0.535-0.607,0.733-0.705c0.179-0.13,0.324-0.195,0.509-0.195c0.146,0,0.223,0.034,0.319,0.14
		c0.067,0.091,0.072,0.212,0.102,0.444c0,0.303-0.064,0.674-0.164,1.161h-0.001l-1.87,8.155h2.398l0.062-0.381
		c-0.337-0.031-0.575-0.104-0.68-0.189c-0.115-0.095-0.194-0.271-0.173-0.48c0-0.236,0.012-0.553,0.115-0.9l0.358-1.686
		c0.455,0.292,1.011,0.438,1.716,0.438c0.756,0,1.438-0.267,2.049-0.719c0.611-0.48,1.078-1.141,1.433-1.947
		c0.344-0.816,0.5-1.662,0.517-2.495c0-0.774-0.184-1.388-0.47-1.8c-0.313-0.426-0.774-0.639-1.315-0.639
		c-0.947,0-1.904,0.666-2.858,2.095l-0.093-0.008c0.119-0.322,0.147-0.651,0.179-0.919c0-0.354-0.099-0.643-0.284-0.848
		c-0.189-0.214-0.459-0.32-0.764-0.32c-0.394,0-0.775,0.1-1.075,0.32c-0.324,0.213-0.747,0.539-1.185,1.045L130.128,24.5z
		 M132.314,28.128c0.013-0.143,0.041-0.353,0.097-0.623v-0.002l0.062-0.323c0.098-0.492,0.207-0.953,0.403-1.309
		c0.171-0.38,0.378-0.771,0.714-1.155c0.307-0.391,0.576-0.696,0.844-0.852c0.258-0.177,0.512-0.267,0.78-0.267
		c0.331,0,0.56,0.101,0.726,0.397c0.152,0.265,0.207,0.666,0.229,1.205c0,0.34-0.056,0.673-0.097,1.091
		c-0.065,0.388-0.189,0.757-0.288,1.133c-0.127,0.367-0.288,0.659-0.431,0.966c-0.16,0.277-0.346,0.514-0.539,0.709
		c-0.199,0.195-0.438,0.328-0.633,0.447c-0.223,0.103-0.483,0.153-0.73,0.153c-0.424,0-0.742-0.101-0.896-0.273
		c-0.174-0.182-0.291-0.49-0.26-0.873C132.295,28.414,132.297,28.262,132.314,28.128z"/>
	<path d="M139.125,31.629c0,0.307,0.025,0.564,0.122,0.827c0.081,0.244,0.198,0.425,0.356,0.622c0.156,0.17,0.322,0.277,0.578,0.389
		c0.228,0.088,0.467,0.133,0.783,0.133c0.502,0,0.947-0.133,1.408-0.318c0.436-0.213,0.845-0.541,1.311-0.953h0.002l-0.424-0.459
		c-0.178,0.181-0.363,0.325-0.51,0.467c-0.162,0.13-0.346,0.218-0.484,0.32c-0.16,0.083-0.35,0.131-0.49,0.184
		c-0.166,0.039-0.358,0.059-0.527,0.059c-0.354,0-0.637-0.1-0.784-0.285c-0.168-0.19-0.256-0.495-0.252-0.909
		c0-0.137-0.004-0.272,0.017-0.381c0.012-0.116,0.002-0.225,0.045-0.323c2.586,0,3.861-0.7,3.879-2.07
		c0-0.393-0.152-0.703-0.377-0.908c-0.25-0.213-0.643-0.319-1.101-0.319c-0.53,0-1.022,0.099-1.466,0.331
		c-0.447,0.221-0.85,0.51-1.145,0.922c-0.159,0.193-0.314,0.375-0.414,0.623c-0.117,0.221-0.234,0.428-0.295,0.681
		c-0.08,0.232-0.166,0.446-0.176,0.698C139.145,31.189,139.116,31.404,139.125,31.629z M140.389,30.398
		c0.1-0.318,0.203-0.618,0.369-0.866c0.146-0.259,0.294-0.503,0.489-0.662c0.18-0.183,0.364-0.339,0.573-0.422
		c0.201-0.099,0.396-0.148,0.613-0.148c0.223,0,0.379,0.034,0.51,0.194c0.117,0.128,0.17,0.296,0.177,0.534
		c0,0.198-0.073,0.354-0.156,0.545c-0.104,0.166-0.292,0.308-0.487,0.43c-0.222,0.121-0.513,0.187-0.851,0.286
		c-0.345,0.07-0.787,0.107-1.237,0.111V30.398z"/>
	<path d="M145.172,35.771c0.123,0.02,0.2,0.029,0.314,0.029c0.162-0.008,0.302-0.041,0.467-0.055
		c0.15-0.028,0.301-0.077,0.451-0.145c0.152-0.066,0.285-0.166,0.468-0.267c0.16-0.111,0.304-0.256,0.521-0.427
		c0.187-0.174,0.391-0.41,0.611-0.623c0.221-0.241,0.454-0.536,0.744-0.861c0.634-0.826,1.186-1.7,1.706-2.556
		c0.503-0.878,0.92-1.8,1.323-2.734l-0.198-0.331h-1.613l-0.073,0.398c0.203,0.012,0.34,0.045,0.435,0.127
		c0.087,0.072,0.112,0.163,0.13,0.357c0.004,0.168-0.047,0.373-0.119,0.672c-0.082,0.28-0.227,0.562-0.359,0.931
		c-0.155,0.34-0.348,0.679-0.574,1.084c-0.227,0.383-0.493,0.759-0.764,1.133c-0.035-0.274-0.08-0.576-0.108-0.839
		c-0.038-0.285-0.081-0.572-0.119-0.833c-0.04-0.271-0.11-0.548-0.123-0.778c-0.042-0.247-0.104-0.499-0.125-0.681
		c-0.042-0.207-0.097-0.397-0.119-0.544c-0.038-0.156-0.085-0.299-0.108-0.361c-0.064-0.138-0.143-0.26-0.19-0.352
		c-0.062-0.098-0.144-0.203-0.213-0.237c-0.08-0.06-0.19-0.12-0.267-0.133c-0.098-0.029-0.22-0.044-0.352-0.044
		c-0.166,0-0.337-0.001-0.458,0.059c-0.14,0.04-0.292,0.086-0.411,0.2c-0.134,0.094-0.283,0.207-0.406,0.383
		c-0.136,0.16-0.314,0.347-0.447,0.604l0.438,0.284c0.102-0.156,0.158-0.3,0.256-0.377c0.071-0.097,0.109-0.182,0.197-0.224
		c0.061-0.053,0.1-0.097,0.175-0.104c0.056-0.019,0.103-0.027,0.187-0.027c0.072,0,0.123,0,0.201,0.072
		c0.062,0.047,0.113,0.123,0.184,0.266c0.061,0.129,0.117,0.283,0.186,0.542c0.064,0.232,0.125,0.506,0.213,0.906
		c0.078,0.371,0.135,0.809,0.258,1.348c0.095,0.528,0.199,1.15,0.33,1.877h0.004c-0.399,0.485-0.771,0.814-1.024,1.059
		c-0.284,0.22-0.58,0.331-0.839,0.331c-0.207,0-0.325-0.166-0.311-0.459V34.4h-0.517l-0.282,1.294
		C144.941,35.727,145.027,35.729,145.172,35.771z"/>
	<path d="M45.119,48.086c0.546,0.876,1.373,1.314,2.498,1.314h0.001c1.139,0,2-0.5,2.598-1.403c0.594-0.937,0.889-2.335,0.891-4.142
		c0-1.763-0.302-3.08-0.831-3.949c-0.555-0.87-1.414-1.307-2.533-1.307c-0.503,0-0.983,0.101-1.391,0.325
		c-0.425,0.218-0.809,0.542-1.092,1.002c-0.303,0.45-0.556,1.009-0.708,1.711c-0.168,0.69-0.252,1.479-0.252,2.459
		C44.3,45.881,44.567,47.181,45.119,48.086z M45.899,41.956c0.063-0.565,0.163-1.049,0.316-1.437
		c0.149-0.394,0.344-0.699,0.586-0.904c0.242-0.209,0.541-0.314,0.902-0.314c0.396,0,0.728,0.135,1.011,0.476
		c0.279,0.316,0.474,0.825,0.652,1.566c0.156,0.728,0.234,1.646,0.234,2.854c0,1.536-0.167,2.672-0.458,3.405
		c-0.304,0.732-0.785,1.099-1.4,1.099c-0.66,0-1.175-0.4-1.464-1.167c-0.315-0.779-0.475-2.023-0.473-3.667l0,0.001
		C45.805,43.158,45.837,42.502,45.899,41.956z"/>
	<path d="M69.819,48.086c0.545,0.876,1.373,1.314,2.498,1.314h0c1.139,0,2-0.5,2.598-1.403c0.594-0.937,0.889-2.335,0.891-4.142
		c0-1.763-0.302-3.08-0.831-3.949c-0.554-0.87-1.413-1.307-2.533-1.307c-0.503,0-0.982,0.101-1.391,0.325
		c-0.425,0.218-0.809,0.542-1.091,1.002c-0.303,0.45-0.557,1.009-0.708,1.711C69.084,42.328,69,43.116,69,44.097
		C69,45.881,69.267,47.181,69.819,48.086z M70.599,41.956c0.063-0.565,0.164-1.049,0.316-1.437c0.149-0.394,0.344-0.699,0.586-0.904
		c0.242-0.209,0.541-0.314,0.902-0.314c0.396,0,0.728,0.135,1.011,0.476c0.279,0.316,0.474,0.825,0.652,1.566
		c0.156,0.728,0.234,1.646,0.234,2.854c0,1.536-0.167,2.672-0.458,3.405c-0.304,0.732-0.785,1.099-1.4,1.099
		c-0.66,0-1.175-0.4-1.464-1.167c-0.315-0.779-0.474-2.023-0.472-3.667l-0.001,0.001C70.505,43.158,70.537,42.502,70.599,41.956z"/>
	<path d="M96.711,48.061c-0.062,0.159-0.165,0.272-0.289,0.37c-0.131,0.089-0.339,0.145-0.572,0.197
		c-0.25,0.044-0.667,0.068-1.25,0.104V49.3h5.805v-0.567c-0.404-0.01-0.739-0.055-0.978-0.058c-0.247-0.028-0.456-0.086-0.616-0.123
		c-0.162-0.055-0.299-0.139-0.373-0.225c-0.086-0.097-0.164-0.238-0.181-0.372c-0.035-0.153-0.054-0.405-0.052-0.678v-0.001V40.66
		c0-0.878-0.001-1.565,0.047-2.062h-0.427L94.2,40.801l0.341,0.598c0.449-0.304,0.802-0.57,1.13-0.716
		c0.304-0.172,0.515-0.267,0.705-0.259c0.139,0,0.214,0.025,0.316,0.145c0.071,0.095,0.108,0.238,0.108,0.449v6.264
		C96.801,47.643,96.768,47.881,96.711,48.061z"/>
	<rect x="119.355" y="44.3" width="9.566" height="1"/>
	<path d="M136.365,41.801c-0.947,0-1.903,0.666-2.858,2.096l-0.092-0.009c0.119-0.321,0.147-0.65,0.178-0.919
		c0-0.353-0.098-0.642-0.284-0.848c-0.188-0.213-0.459-0.32-0.764-0.32c-0.393,0-0.775,0.101-1.074,0.32
		c-0.324,0.213-0.748,0.54-1.185,1.045l0.442,0.434c0.311-0.341,0.535-0.606,0.733-0.705c0.179-0.13,0.324-0.194,0.509-0.194
		c0.146,0,0.223,0.034,0.318,0.139c0.068,0.091,0.072,0.212,0.102,0.445c0,0.302-0.063,0.674-0.164,1.161l-1.871,8.154h2.398
		l0.062-0.381c-0.338-0.031-0.576-0.104-0.68-0.188c-0.115-0.095-0.195-0.271-0.174-0.481c0-0.236,0.012-0.552,0.116-0.9
		l0.358-1.686c0.455,0.292,1.01,0.438,1.715,0.438c0.756,0,1.438-0.268,2.049-0.72c0.611-0.479,1.078-1.141,1.433-1.946
		c0.345-0.817,0.5-1.662,0.517-2.495c0-0.775-0.184-1.389-0.469-1.801C137.367,42.014,136.906,41.801,136.365,41.801z
		 M136.672,45.391c-0.064,0.389-0.189,0.758-0.288,1.133c-0.127,0.367-0.288,0.659-0.431,0.967c-0.16,0.277-0.346,0.513-0.539,0.709
		c-0.199,0.195-0.438,0.328-0.633,0.447c-0.223,0.102-0.483,0.152-0.73,0.152c-0.424,0-0.742-0.1-0.896-0.272
		c-0.174-0.183-0.291-0.491-0.26-0.873c0-0.14,0.002-0.291,0.02-0.425c0.013-0.144,0.042-0.354,0.098-0.623v-0.002l0.062-0.323
		c0.098-0.492,0.206-0.953,0.403-1.31c0.17-0.38,0.377-0.771,0.713-1.154c0.308-0.392,0.576-0.697,0.845-0.853
		c0.257-0.177,0.512-0.266,0.78-0.266c0.33,0,0.56,0.1,0.725,0.396c0.152,0.266,0.207,0.666,0.23,1.205
		C136.77,44.64,136.713,44.973,136.672,45.391z"/>
	<path d="M140.876,50.1c2.585,0,3.86-0.699,3.878-2.069c0-0.394-0.152-0.703-0.377-0.908c-0.25-0.213-0.643-0.32-1.1-0.32
		c-0.53,0-1.022,0.1-1.467,0.331c-0.447,0.221-0.85,0.51-1.145,0.922c-0.159,0.193-0.314,0.375-0.414,0.623
		c-0.117,0.221-0.234,0.428-0.294,0.682c-0.08,0.231-0.166,0.445-0.177,0.697c-0.037,0.233-0.065,0.447-0.057,0.672
		c0,0.308,0.025,0.564,0.123,0.827c0.08,0.244,0.198,0.425,0.355,0.622c0.156,0.17,0.322,0.277,0.578,0.39
		c0.228,0.088,0.467,0.133,0.783,0.133c0.502,0,0.947-0.133,1.408-0.319c0.437-0.213,0.846-0.541,1.312-0.953h0.002l-0.425-0.459
		c-0.178,0.182-0.363,0.325-0.51,0.467c-0.162,0.131-0.346,0.219-0.483,0.32c-0.161,0.083-0.351,0.131-0.491,0.184
		c-0.166,0.039-0.357,0.06-0.527,0.06c-0.354,0-0.637-0.101-0.783-0.286c-0.168-0.189-0.256-0.495-0.252-0.909
		c0-0.137-0.004-0.271,0.017-0.381C140.842,50.307,140.832,50.199,140.876,50.1z M140.988,49.499c0.1-0.319,0.203-0.619,0.369-0.867
		c0.147-0.259,0.295-0.503,0.49-0.662c0.18-0.182,0.363-0.339,0.572-0.422c0.202-0.098,0.396-0.147,0.614-0.147
		c0.222,0,0.378,0.033,0.509,0.193c0.118,0.128,0.171,0.296,0.178,0.534c0,0.198-0.074,0.354-0.156,0.545
		c-0.105,0.166-0.293,0.308-0.488,0.431c-0.221,0.12-0.512,0.187-0.85,0.285C141.881,49.459,141.439,49.496,140.988,49.499
		L140.988,49.499z"/>
	<path d="M148.529,50.248c0.238-0.257,0.463-0.507,0.689-0.744c0.221-0.238,0.414-0.506,0.662-0.717
		c0.221-0.24,0.428-0.503,0.667-0.731c0.226-0.248,0.443-0.532,0.711-0.782l-0.136-0.372h-4.406l-0.35,1.598h0.576
		c0.125-0.212,0.211-0.412,0.328-0.512c0.095-0.13,0.172-0.259,0.289-0.304c0.099-0.072,0.178-0.135,0.323-0.146
		c0.116-0.025,0.255-0.037,0.425-0.037h1.457c0.006,0.004-0.015,0.004,0.032,0.028c-0.284,0.3-0.616,0.625-0.952,1.016
		c-0.351,0.377-0.732,0.762-1.095,1.185c-0.379,0.412-0.796,0.803-1.155,1.261c-0.392,0.428-0.789,0.831-1.131,1.237l0.153,0.373
		h4.497l0.361-1.699l0.002-0.002h-0.584c-0.098,0.189-0.195,0.322-0.254,0.477c-0.072,0.127-0.152,0.201-0.205,0.314
		c-0.063,0.082-0.142,0.118-0.195,0.186c-0.065,0.042-0.145,0.05-0.217,0.091c-0.08,0.019-0.188-0.004-0.278,0.03
		c-0.104,0.002-0.253,0.003-0.373,0.003h-1.394c-0.008-0.004-0.033-0.037-0.035-0.028c0.3-0.326,0.553-0.649,0.84-0.914
		C148.043,50.773,148.283,50.488,148.529,50.248z"/>
	<path d="M45.119,67.286c0.546,0.876,1.373,1.313,2.498,1.313h0.001c1.139,0,2-0.5,2.598-1.402c0.594-0.937,0.889-2.335,0.891-4.142
		c0-1.763-0.302-3.081-0.831-3.95c-0.555-0.869-1.414-1.306-2.533-1.306c-0.503,0-0.983,0.101-1.391,0.325
		c-0.425,0.217-0.809,0.542-1.092,1.002c-0.303,0.45-0.556,1.008-0.708,1.711c-0.168,0.69-0.252,1.479-0.252,2.459
		C44.3,65.081,44.567,66.381,45.119,67.286z M45.899,61.156c0.063-0.565,0.163-1.049,0.316-1.437c0.149-0.394,0.344-0.7,0.586-0.905
		c0.242-0.209,0.541-0.313,0.902-0.313c0.396,0,0.728,0.134,1.011,0.476c0.279,0.316,0.474,0.824,0.652,1.566
		c0.156,0.727,0.234,1.646,0.234,2.854c0,1.536-0.167,2.672-0.458,3.405c-0.304,0.732-0.785,1.099-1.4,1.099
		c-0.66,0-1.175-0.4-1.464-1.168c-0.315-0.778-0.475-2.022-0.473-3.666l0,0.001C45.805,62.357,45.837,61.702,45.899,61.156z"/>
	<path d="M69.819,67.286c0.545,0.876,1.373,1.313,2.498,1.313h0c1.139,0,2-0.5,2.598-1.402c0.594-0.937,0.889-2.335,0.891-4.142
		c0-1.763-0.302-3.081-0.831-3.95c-0.554-0.869-1.413-1.306-2.533-1.306c-0.503,0-0.982,0.101-1.391,0.325
		c-0.425,0.217-0.809,0.542-1.091,1.002c-0.303,0.45-0.557,1.008-0.708,1.711C69.084,61.528,69,62.316,69,63.297
		C69,65.081,69.267,66.381,69.819,67.286z M70.599,61.156c0.063-0.565,0.164-1.049,0.316-1.437c0.149-0.394,0.344-0.7,0.586-0.905
		c0.242-0.209,0.541-0.313,0.902-0.313c0.396,0,0.728,0.134,1.011,0.476c0.279,0.316,0.474,0.824,0.652,1.566
		c0.156,0.727,0.234,1.646,0.234,2.854c0,1.536-0.167,2.672-0.458,3.405c-0.304,0.732-0.785,1.099-1.4,1.099
		c-0.66,0-1.175-0.4-1.464-1.168c-0.315-0.778-0.474-2.022-0.472-3.666l-0.001,0.001C70.505,62.357,70.537,61.702,70.599,61.156z"/>
	<path d="M94.619,67.286c0.546,0.876,1.373,1.313,2.498,1.313h0.001c1.139,0,2-0.5,2.598-1.402c0.595-0.937,0.89-2.335,0.892-4.142
		c0-1.763-0.303-3.081-0.831-3.95c-0.555-0.869-1.413-1.306-2.533-1.306c-0.503,0-0.983,0.101-1.392,0.325
		c-0.425,0.217-0.809,0.542-1.092,1.002c-0.303,0.45-0.556,1.008-0.708,1.711c-0.168,0.69-0.252,1.479-0.252,2.459
		C93.8,65.081,94.067,66.381,94.619,67.286z M95.398,61.156c0.063-0.565,0.164-1.049,0.316-1.437c0.149-0.394,0.344-0.7,0.586-0.905
		c0.242-0.209,0.541-0.313,0.902-0.313c0.396,0,0.728,0.134,1.011,0.476c0.279,0.316,0.474,0.824,0.652,1.566
		c0.155,0.727,0.233,1.646,0.233,2.854c0,1.536-0.167,2.672-0.457,3.405c-0.305,0.732-0.785,1.099-1.4,1.099
		c-0.66,0-1.175-0.4-1.464-1.168c-0.315-0.778-0.475-2.022-0.473-3.666l-0.001,0.001C95.305,62.357,95.337,61.702,95.398,61.156z"/>
	<path d="M134.91,67.261c-0.061,0.159-0.164,0.272-0.288,0.37c-0.131,0.088-0.339,0.145-0.572,0.197
		c-0.25,0.044-0.667,0.068-1.25,0.104V68.5h5.806v-0.567c-0.405-0.01-0.74-0.055-0.979-0.058c-0.247-0.028-0.456-0.086-0.615-0.123
		c-0.162-0.055-0.3-0.139-0.373-0.225c-0.087-0.097-0.166-0.238-0.182-0.372c-0.035-0.153-0.055-0.405-0.053-0.679V59.86
		c0-0.878,0-1.565,0.048-2.062h-0.427l-3.625,2.202l0.341,0.598c0.448-0.304,0.802-0.57,1.13-0.716
		c0.304-0.172,0.514-0.267,0.705-0.259c0.139,0,0.214,0.024,0.316,0.144c0.071,0.096,0.108,0.239,0.108,0.45v6.263
		C135.001,66.842,134.967,67.081,134.91,67.261z"/>
	<polygon points="161.4,2.302 164.4,2.302 164.4,17.901 166,17.901 166,1.602 161.4,1.602 	"/>
	<polygon points="164.4,20.8 164.4,34.401 166,34.401 166,20.8 166,17.901 164.4,17.901 	"/>
	<polygon points="164.4,37.4 164.4,51.102 166,51.102 166,37.4 166,34.401 164.4,34.401 	"/>
	<polygon points="164.4,53.9 164.4,69.7 161.4,69.7 161.4,70.4 166,70.4 166,53.9 166,51.102 164.4,51.102 	"/>
</g>
</svg>
