<?xml version="1.0" encoding="utf-8"?>
<!-- Generator: Adobe Illustrator 15.1.0, SVG Export Plug-In . SVG Version: 6.00 Build 0)  -->
<!DOCTYPE svg PUBLIC "-//W3C//DTD SVG 1.1 Tiny//EN" "http://www.w3.org/Graphics/SVG/1.1/DTD/svg11-tiny.dtd">
<svg version="1.1" baseProfile="tiny" id="Layer_1" xmlns="http://www.w3.org/2000/svg" xmlns:xlink="http://www.w3.org/1999/xlink"
	 x="0px" y="0px" width="78px" height="14px" viewBox="0 0 78 14" overflow="inherit" xml:space="preserve">
<g>
	<path fill="none" d="M40.472,8.2c0.603,0,1.132-0.064,1.518-0.192c0.356-0.132,0.702-0.329,0.948-0.598
		c0.232-0.274,0.436-0.591,0.569-0.961c0.132-0.387,0.202-0.777,0.202-1.221c-0.003-0.605-0.153-1.033-0.458-1.311
		c-0.323-0.284-0.812-0.417-1.522-0.417c-0.33,0-0.656,0.008-1.009,0.022l-1.056,4.678L40.472,8.2L40.472,8.2z"/>
	<path fill="none" d="M4.572,8.2c0.602,0,1.132-0.064,1.517-0.192C6.446,7.876,6.791,7.679,7.037,7.41
		c0.233-0.274,0.436-0.591,0.57-0.961c0.132-0.387,0.202-0.777,0.202-1.221C7.806,4.623,7.656,4.195,7.351,3.918
		C7.028,3.634,6.539,3.501,5.829,3.501c-0.331,0-0.657,0.008-1.009,0.022L3.764,8.201L4.572,8.2L4.572,8.2z"/>
	<path d="M1.759,11.073c-0.113,0.511-0.201,0.853-0.256,1.032c-0.056,0.179-0.125,0.31-0.186,0.453
		c-0.066,0.125-0.173,0.205-0.248,0.291C0.971,12.919,0.815,12.969,0.627,13l-0.086,0.4h3.191L3.818,13
		c-0.253-0.021-0.459-0.054-0.536-0.094c-0.104-0.041-0.198-0.11-0.233-0.2c-0.052-0.092-0.102-0.228-0.078-0.38
		c0-0.105-0.024-0.247,0.019-0.356c0.013-0.133,0.017-0.29,0.047-0.372c0.018-0.115,0.039-0.28,0.098-0.494L3.632,8.8
		c0.352,0.021,0.774,0.021,1.319,0.031c0.88,0,1.63-0.144,2.264-0.4c0.629-0.266,1.124-0.71,1.494-1.245
		c0.368-0.564,0.532-1.26,0.552-2.002c0-0.399-0.087-0.761-0.191-1.053c-0.125-0.303-0.349-0.58-0.573-0.75
		C8.241,3.183,7.908,3.023,7.519,2.942C7.123,2.848,6.616,2.8,6,2.8L5.997,2.799H2.574l-0.086,0.4c0.27,0.015,0.44,0.049,0.583,0.17
		C3.19,3.467,3.232,3.611,3.249,3.896c0,0.299-0.084,0.699-0.17,1.222L1.759,11.073z M4.82,3.523
		c0.352-0.015,0.678-0.022,1.009-0.022c0.71,0,1.199,0.133,1.522,0.417c0.305,0.277,0.455,0.705,0.458,1.311
		c0,0.443-0.07,0.834-0.202,1.221C7.473,6.819,7.27,7.136,7.037,7.41C6.791,7.679,6.446,7.876,6.089,8.008
		C5.704,8.136,5.174,8.2,4.572,8.2v0.001H3.764L4.82,3.523z"/>
	<polygon points="13.692,1.602 13.692,1.604 13.693,1.604 	"/>
	<polygon points="13.692,1.604 12.232,1.604 11.144,6.403 11.806,6.602 13.692,2.043 	"/>
	<rect x="20.856" y="10" width="9.566" height="1"/>
	<rect x="20.856" y="6.8" width="9.566" height="1"/>
	<path d="M37.659,11.073c-0.113,0.511-0.201,0.853-0.256,1.032c-0.057,0.179-0.125,0.31-0.186,0.453
		c-0.066,0.125-0.173,0.205-0.248,0.291c-0.098,0.069-0.254,0.119-0.442,0.15l-0.086,0.4h3.191l0.086-0.4
		c-0.253-0.021-0.459-0.054-0.536-0.094c-0.103-0.041-0.198-0.11-0.233-0.2c-0.052-0.092-0.102-0.228-0.078-0.38
		c0-0.105-0.024-0.247,0.019-0.356c0.014-0.133,0.018-0.29,0.047-0.372c0.018-0.115,0.039-0.28,0.098-0.494L39.532,8.8
		c0.352,0.021,0.773,0.021,1.319,0.031c0.879,0,1.629-0.144,2.264-0.4c0.629-0.266,1.124-0.71,1.494-1.245
		c0.367-0.564,0.531-1.26,0.552-2.002c0-0.399-0.087-0.761-0.191-1.053c-0.126-0.303-0.349-0.58-0.573-0.75
		c-0.256-0.198-0.589-0.357-0.978-0.438C43.023,2.848,42.516,2.8,41.9,2.8l-0.004-0.001h-3.423l-0.086,0.4
		c0.27,0.015,0.44,0.049,0.583,0.17c0.119,0.098,0.161,0.242,0.178,0.527c0,0.299-0.084,0.699-0.17,1.222L37.659,11.073z
		 M40.72,3.523c0.353-0.015,0.679-0.022,1.009-0.022c0.711,0,1.199,0.133,1.522,0.417c0.305,0.277,0.455,0.705,0.458,1.311
		c0,0.443-0.07,0.834-0.202,1.221c-0.134,0.37-0.337,0.687-0.569,0.961c-0.246,0.269-0.592,0.466-0.948,0.598
		C41.604,8.136,41.074,8.2,40.472,8.2v0.001h-0.808L40.72,3.523z"/>
	<path d="M48.866,5.117l-1.32,5.955c-0.113,0.511-0.229,0.853-0.256,1.033c-0.056,0.178-0.12,0.309-0.187,0.452
		c-0.065,0.125-0.168,0.205-0.248,0.291c-0.098,0.069-0.248,0.119-0.441,0.15l-0.086,0.399h2.717l0.086-0.399
		c-0.273-0.021-0.484-0.088-0.586-0.175c-0.117-0.096-0.198-0.271-0.175-0.494c0-0.315,0.043-0.725,0.162-1.212l0.792-3.592
		c0.218-0.99,0.41-2.065,0.591-3.228h0.155c0.115,1.202,0.19,2.135,0.311,2.866l0.645,5.034h0.847l3.533-5.859
		c0.562-0.941,0.896-1.588,1.086-1.872H56.6c-0.187,0.642-0.353,1.251-0.496,1.931L55.07,11.07
		c-0.113,0.511-0.203,0.854-0.256,1.033c-0.059,0.179-0.129,0.311-0.188,0.453c-0.065,0.125-0.175,0.205-0.248,0.291
		c-0.098,0.07-0.257,0.121-0.44,0.152l-0.086,0.4h3.105l0.084-0.4c-0.273-0.02-0.488-0.087-0.586-0.173
		c-0.117-0.097-0.202-0.271-0.175-0.494c0-0.144,0.006-0.321,0.03-0.483c0.021-0.179,0.052-0.429,0.134-0.725l1.327-6.016
		c0.109-0.495,0.186-0.865,0.269-1.073c0.069-0.219,0.123-0.398,0.209-0.484c0.07-0.103,0.121-0.186,0.233-0.23
		c0.085-0.052,0.225-0.126,0.423-0.142l0.084-0.38h-2.445V2.799l-4.526,7.567l-0.885-7.567h-2.771l-0.086,0.4
		c0.264,0.015,0.438,0.049,0.578,0.167c0.121,0.095,0.17,0.239,0.183,0.506c0,0.206-0.045,0.382-0.047,0.61
		C48.959,4.684,48.896,4.889,48.866,5.117z"/>
	<path d="M66.418,2.299l0.459-1.997h-6.178l-0.426,1.913h0.606c0.103-0.201,0.176-0.406,0.269-0.516
		c0.08-0.144,0.13-0.275,0.217-0.361c0.065-0.099,0.111-0.178,0.191-0.232c0.063-0.057,0.111-0.125,0.202-0.134
		c0.071-0.032,0.119-0.056,0.237-0.059c0.087-0.007,0.189-0.011,0.316-0.011h0.783l-1.145,5.039
		c-0.045,0.196-0.096,0.35-0.119,0.496c-0.034,0.135-0.078,0.222-0.102,0.325c-0.034,0.083-0.077,0.13-0.106,0.198
		c-0.036,0.048-0.111,0.061-0.127,0.114c-0.049,0.026-0.115,0.035-0.175,0.067c-0.068,0.017-0.176,0.035-0.244,0.058l-0.073,0.398
		h2.502l0.08-0.399c-0.132-0.007-0.261-0.041-0.323-0.039c-0.082-0.02-0.17-0.072-0.197-0.083c-0.051-0.037-0.105-0.097-0.103-0.138
		c-0.018-0.054-0.04-0.134-0.034-0.191c0-0.097-0.01-0.213,0.025-0.327c0.018-0.12,0.033-0.294,0.089-0.437l1.167-5.083h0.911
		c0.095,0,0.154,0,0.233,0.011c0.06,0.007,0.108,0.003,0.154,0.039c0.044,0.019,0.074,0.035,0.108,0.08
		c0.028,0.035,0.021,0.058,0.081,0.13c0.019,0.042,0.019,0.089,0.05,0.163c0.016,0.065,0,0.125,0.041,0.216
		c0.011,0.077,0.015,0.131,0.024,0.231c0.007,0.077,0.002,0.121,0.01,0.205v0.322H66.418z"/>
	<polygon points="61.005,7.6 61.005,7.599 61.004,7.599 	"/>
	<path d="M68.745,5.401h0.745c0.272-0.587,0.477-1.02,0.697-1.253c0.191-0.248,0.363-0.432,0.575-0.511
		c0.192-0.091,0.438-0.137,0.77-0.137h0.985l-1.662,7.573c-0.104,0.47-0.222,0.812-0.268,1.053c-0.075,0.23-0.171,0.389-0.225,0.509
		c-0.075,0.109-0.163,0.164-0.262,0.241c-0.098,0.051-0.265,0.092-0.457,0.123l-0.084,0.4h3.267l0.002,0.001l0.086-0.4
		c-0.253-0.021-0.457-0.054-0.536-0.092c-0.103-0.042-0.195-0.111-0.232-0.197c-0.053-0.091-0.101-0.228-0.078-0.377
		c0-0.104-0.022-0.248,0.019-0.353c0.013-0.131,0.019-0.259,0.047-0.375c0.019-0.118,0.041-0.287,0.099-0.479L73.916,3.5h1.148
		c0.269,0,0.447,0,0.562,0.072c0.106,0.048,0.165,0.125,0.269,0.266c0.073,0.128,0.108,0.282,0.147,0.561
		c0.026,0.246,0.012,0.613,0.039,1.103h0.745l0.605-2.7h-8.105L68.745,5.401z"/>
</g>
</svg>
