<?xml version="1.0" encoding="utf-8"?>
<!-- Generator: Adobe Illustrator 15.1.0, SVG Export Plug-In . SVG Version: 6.00 Build 0)  -->
<!DOCTYPE svg PUBLIC "-//W3C//DTD SVG 1.1 Tiny//EN" "http://www.w3.org/Graphics/SVG/1.1/DTD/svg11-tiny.dtd">
<svg version="1.1" baseProfile="tiny" id="Layer_1" xmlns="http://www.w3.org/2000/svg" xmlns:xlink="http://www.w3.org/1999/xlink"
	 x="0px" y="0px" width="419px" height="60px" viewBox="0 0 419 60" overflow="inherit" xml:space="preserve">
<g>
	<path fill="none" d="M227.979,32.033c0.289,0.767,0.804,1.167,1.463,1.167c0.615,0,1.097-0.366,1.4-1.099
		c0.291-0.733,0.458-1.869,0.458-3.405c0-1.207-0.077-2.126-0.233-2.854c-0.178-0.741-0.373-1.25-0.652-1.566
		c-0.283-0.341-0.615-0.476-1.012-0.476c-0.36,0-0.659,0.105-0.901,0.314c-0.242,0.205-0.437,0.511-0.586,0.904
		c-0.153,0.388-0.253,0.871-0.315,1.437c-0.062,0.546-0.095,1.202-0.095,1.911l0.001-0.001
		C227.504,30.01,227.663,31.254,227.979,32.033z"/>
	<path fill="none" d="M76.189,51.629c0.138,0.195,0.383,0.368,0.645,0.489c0.251,0.114,0.582,0.181,0.958,0.181
		c0.391,0,0.783-0.084,1.084-0.252c0.275-0.185,0.53-0.419,0.688-0.75C79.7,50.932,79.8,50.573,79.8,50.12
		c0-0.489-0.085-0.898-0.255-1.247c-0.185-0.375-0.409-0.616-0.719-0.8c-0.317-0.208-0.666-0.275-1.073-0.275
		c-0.399,0-0.702,0.058-0.962,0.173c-0.29,0.092-0.47,0.271-0.633,0.467c-0.182,0.183-0.279,0.427-0.348,0.691
		c-0.072,0.253-0.103,0.546-0.103,0.848l-0.001,0.002c-0.002,0.301,0.038,0.633,0.116,0.916
		C75.892,51.146,76.021,51.423,76.189,51.629z"/>
	<path fill="none" d="M306.611,31.803v0.002c-0.056,0.271-0.084,0.48-0.098,0.623c-0.017,0.135-0.019,0.286-0.019,0.426
		c-0.032,0.382,0.086,0.69,0.259,0.873c0.155,0.172,0.473,0.272,0.897,0.272c0.247,0,0.508-0.051,0.729-0.153
		c0.196-0.119,0.435-0.252,0.633-0.447c0.194-0.195,0.379-0.432,0.539-0.709c0.144-0.307,0.305-0.599,0.432-0.966
		c0.099-0.376,0.223-0.745,0.288-1.133c0.04-0.418,0.097-0.751,0.097-1.091c-0.023-0.539-0.077-0.939-0.23-1.205
		c-0.165-0.297-0.394-0.396-0.725-0.396c-0.268,0-0.523,0.089-0.78,0.266c-0.268,0.155-0.537,0.461-0.844,0.852
		c-0.336,0.385-0.543,0.775-0.714,1.155c-0.196,0.356-0.305,0.817-0.403,1.31L306.611,31.803z"/>
	<path fill="none" d="M378.589,51.629c0.138,0.195,0.383,0.368,0.646,0.489c0.251,0.114,0.582,0.181,0.958,0.181
		c0.391,0,0.782-0.084,1.084-0.252c0.274-0.185,0.529-0.419,0.688-0.75c0.136-0.365,0.236-0.724,0.236-1.177
		c0-0.489-0.085-0.898-0.255-1.247c-0.186-0.375-0.409-0.616-0.72-0.8c-0.316-0.208-0.666-0.275-1.072-0.275
		c-0.399,0-0.702,0.058-0.962,0.173c-0.29,0.092-0.471,0.271-0.634,0.467c-0.182,0.183-0.278,0.427-0.348,0.691
		c-0.072,0.253-0.103,0.546-0.103,0.848l-0.001,0.002c-0.003,0.301,0.037,0.633,0.115,0.916
		C378.292,51.146,378.421,51.423,378.589,51.629z"/>
	<path fill="none" d="M12.994,32.6c-0.254,0-0.431,0.049-0.623,0.146c-0.216,0.081-0.368,0.228-0.527,0.395
		c-0.173,0.153-0.299,0.36-0.422,0.58c-0.13,0.212-0.227,0.451-0.312,0.695c-0.087,0.24-0.148,0.496-0.192,0.755
		c-0.05,0.235-0.066,0.506-0.066,0.744c-0.017,0.396,0.058,0.699,0.173,0.894C11.132,37,11.327,37.1,11.583,37.1
		c0.1,0,0.252-0.021,0.37-0.066c0.102-0.055,0.246-0.115,0.378-0.211c0.322-0.264,0.615-0.568,0.848-0.937
		c0.208-0.396,0.41-0.802,0.527-1.303c0.051-0.258,0.095-0.438,0.125-0.623c0.02-0.206,0.045-0.363,0.045-0.53
		c-0.026-0.307-0.071-0.509-0.212-0.638C13.501,32.633,13.299,32.6,12.994,32.6z"/>
	<path fill="none" d="M379.232,46.929c0.242,0.105,0.565,0.173,0.936,0.173c0.402,0,0.782-0.084,1.072-0.248
		c0.276-0.185,0.506-0.41,0.646-0.73c0.113-0.328,0.213-0.691,0.213-1.111c0-0.464-0.084-0.85-0.25-1.17
		c-0.184-0.333-0.396-0.556-0.688-0.709c-0.313-0.164-0.629-0.23-1.008-0.23c-0.665,0-1.142,0.176-1.483,0.526
		c-0.364,0.341-0.511,0.849-0.511,1.491c-0.021,0.296,0.036,0.586,0.107,0.852c0.05,0.242,0.188,0.496,0.346,0.691
		C378.767,46.637,378.978,46.812,379.232,46.929z"/>
	<path fill="none" d="M76.832,46.929c0.243,0.105,0.566,0.173,0.936,0.173c0.402,0,0.782-0.084,1.072-0.248
		c0.277-0.185,0.506-0.41,0.647-0.73c0.113-0.328,0.213-0.691,0.213-1.111c0-0.464-0.084-0.85-0.25-1.17
		c-0.184-0.333-0.396-0.556-0.689-0.709c-0.312-0.164-0.629-0.23-1.008-0.23c-0.665,0-1.141,0.176-1.483,0.526
		c-0.364,0.341-0.511,0.849-0.511,1.491c-0.02,0.296,0.036,0.586,0.108,0.852c0.049,0.242,0.187,0.496,0.345,0.691
		C76.367,46.637,76.578,46.812,76.832,46.929z"/>
	<path fill="none" d="M228.532,46.929c0.243,0.105,0.565,0.173,0.936,0.173c0.402,0,0.782-0.084,1.072-0.248
		c0.276-0.185,0.506-0.41,0.647-0.73c0.112-0.328,0.213-0.691,0.213-1.111c0-0.464-0.084-0.85-0.25-1.17
		c-0.185-0.333-0.396-0.556-0.689-0.709c-0.312-0.164-0.629-0.23-1.008-0.23c-0.665,0-1.141,0.176-1.482,0.526
		c-0.365,0.341-0.512,0.849-0.512,1.491c-0.02,0.296,0.036,0.586,0.107,0.852c0.05,0.242,0.188,0.496,0.346,0.691
		C228.066,46.637,228.277,46.812,228.532,46.929z"/>
	<path fill="none" d="M88.378,51.133c0.289,0.768,0.804,1.167,1.464,1.167c0.615,0,1.096-0.366,1.4-1.098
		c0.291-0.734,0.458-1.869,0.458-3.406c0-1.207-0.078-2.126-0.234-2.853c-0.178-0.742-0.373-1.25-0.652-1.567
		c-0.283-0.341-0.615-0.475-1.011-0.475c-0.361,0-0.66,0.104-0.902,0.313c-0.242,0.205-0.438,0.512-0.586,0.905
		c-0.153,0.387-0.253,0.871-0.316,1.436c-0.062,0.546-0.094,1.202-0.094,1.911l0-0.001C87.904,49.11,88.063,50.354,88.378,51.133z"
		/>
	<path fill="none" d="M240.078,51.133c0.289,0.768,0.804,1.167,1.464,1.167c0.615,0,1.097-0.366,1.399-1.098
		c0.291-0.734,0.459-1.869,0.459-3.406c0-1.207-0.078-2.126-0.234-2.853c-0.178-0.742-0.373-1.25-0.652-1.567
		c-0.283-0.341-0.615-0.475-1.011-0.475c-0.36,0-0.66,0.104-0.901,0.313c-0.242,0.205-0.438,0.512-0.586,0.905
		c-0.154,0.387-0.254,0.871-0.316,1.436c-0.062,0.546-0.094,1.202-0.094,1.911C239.604,49.11,239.764,50.354,240.078,51.133z"/>
	<path fill="none" d="M227.889,51.629c0.139,0.195,0.383,0.368,0.646,0.489c0.251,0.114,0.582,0.181,0.958,0.181
		c0.391,0,0.783-0.084,1.084-0.252c0.275-0.185,0.529-0.419,0.688-0.75c0.137-0.365,0.236-0.724,0.236-1.177
		c0-0.489-0.085-0.898-0.255-1.247c-0.185-0.375-0.409-0.616-0.72-0.8c-0.316-0.208-0.666-0.275-1.072-0.275
		c-0.398,0-0.702,0.058-0.962,0.173c-0.29,0.092-0.47,0.271-0.634,0.467c-0.182,0.183-0.278,0.427-0.348,0.691
		c-0.072,0.253-0.103,0.546-0.103,0.848l-0.001,0.002c-0.002,0.301,0.037,0.633,0.115,0.916
		C227.592,51.146,227.721,51.423,227.889,51.629z"/>
	<path fill="none" d="M154.911,31.803v0.002c-0.055,0.271-0.084,0.48-0.097,0.623c-0.017,0.135-0.019,0.286-0.019,0.426
		c-0.032,0.382,0.086,0.69,0.259,0.873c0.155,0.172,0.473,0.272,0.897,0.272c0.247,0,0.508-0.051,0.73-0.153
		c0.196-0.119,0.434-0.252,0.633-0.447c0.194-0.195,0.379-0.432,0.539-0.709c0.143-0.307,0.304-0.599,0.431-0.966
		c0.099-0.376,0.223-0.745,0.288-1.133c0.041-0.418,0.097-0.751,0.097-1.091c-0.023-0.539-0.077-0.939-0.23-1.205
		c-0.165-0.297-0.394-0.396-0.725-0.396c-0.268,0-0.523,0.089-0.78,0.266c-0.268,0.155-0.537,0.461-0.844,0.852
		c-0.336,0.385-0.543,0.775-0.714,1.155c-0.196,0.356-0.305,0.817-0.403,1.31L154.911,31.803z"/>
	<path fill="none" d="M163.207,37.114c0.136,0.12,0.36,0.186,0.666,0.186c0.285,0,0.594-0.097,0.855-0.292
		c0.252-0.197,0.485-0.45,0.672-0.766c0.188-0.33,0.334-0.67,0.439-1.064c0.093-0.42,0.159-0.791,0.159-1.191
		c-0.033-0.426-0.058-0.694-0.173-0.892c-0.124-0.229-0.3-0.295-0.552-0.295c-0.195,0-0.359,0.056-0.562,0.164
		c-0.207,0.088-0.404,0.272-0.603,0.487c-0.201,0.197-0.381,0.481-0.548,0.8c-0.187,0.3-0.301,0.681-0.4,1.094h-0.001
		c-0.05,0.186-0.064,0.397-0.102,0.591c-0.057,0.182-0.056,0.373-0.056,0.539C163,36.751,163.07,36.989,163.207,37.114z"/>
	<path fill="none" d="M76.278,32.033c0.289,0.767,0.804,1.167,1.464,1.167c0.615,0,1.096-0.366,1.4-1.099
		c0.291-0.733,0.458-1.869,0.458-3.405c0-1.207-0.078-2.126-0.234-2.854c-0.178-0.741-0.373-1.25-0.652-1.566
		c-0.283-0.341-0.615-0.476-1.011-0.476c-0.361,0-0.66,0.105-0.902,0.314c-0.242,0.205-0.437,0.511-0.586,0.904
		c-0.153,0.388-0.253,0.871-0.316,1.437c-0.062,0.546-0.094,1.202-0.094,1.911l0-0.001C75.804,30.01,75.963,31.254,76.278,32.033z"
		/>
	<path fill="none" d="M3.011,31.803v0.002c-0.055,0.271-0.084,0.48-0.097,0.623c-0.017,0.135-0.019,0.286-0.019,0.426
		c-0.032,0.382,0.086,0.69,0.259,0.873c0.155,0.172,0.473,0.272,0.897,0.272c0.247,0,0.508-0.051,0.729-0.153
		c0.196-0.119,0.434-0.252,0.633-0.447c0.194-0.195,0.379-0.432,0.539-0.709c0.143-0.307,0.304-0.599,0.431-0.966
		c0.099-0.376,0.223-0.745,0.288-1.133c0.041-0.418,0.097-0.751,0.097-1.091c-0.023-0.539-0.077-0.939-0.23-1.205
		c-0.165-0.297-0.394-0.396-0.725-0.396c-0.268,0-0.523,0.089-0.78,0.266c-0.268,0.155-0.537,0.461-0.844,0.852
		c-0.336,0.385-0.543,0.775-0.714,1.155c-0.196,0.356-0.305,0.817-0.403,1.31L3.011,31.803z"/>
	<path fill="none" d="M390.778,51.133c0.289,0.768,0.804,1.167,1.464,1.167c0.615,0,1.096-0.366,1.399-1.098
		c0.291-0.734,0.458-1.869,0.458-3.406c0-1.207-0.077-2.126-0.233-2.853c-0.179-0.742-0.373-1.25-0.652-1.567
		c-0.283-0.341-0.615-0.475-1.011-0.475c-0.361,0-0.66,0.104-0.902,0.313c-0.242,0.205-0.437,0.512-0.586,0.905
		c-0.152,0.387-0.253,0.871-0.315,1.436c-0.062,0.546-0.095,1.202-0.095,1.911l0.001-0.001
		C390.304,49.11,390.463,50.354,390.778,51.133z"/>
	<path fill="none" d="M378.678,32.033c0.289,0.767,0.805,1.167,1.464,1.167c0.615,0,1.097-0.366,1.4-1.099
		c0.291-0.733,0.458-1.869,0.458-3.405c0-1.207-0.078-2.126-0.234-2.854c-0.178-0.741-0.373-1.25-0.651-1.566
		c-0.283-0.341-0.615-0.476-1.012-0.476c-0.36,0-0.659,0.105-0.901,0.314c-0.242,0.205-0.438,0.511-0.586,0.904
		c-0.153,0.388-0.253,0.871-0.316,1.437c-0.062,0.546-0.094,1.202-0.094,1.911l0.001-0.001
		C378.204,30.01,378.363,31.254,378.678,32.033z"/>
	<path d="M3.309,27.321c-0.189-0.214-0.459-0.32-0.764-0.32c-0.393,0-0.775,0.101-1.075,0.32c-0.324,0.213-0.747,0.54-1.184,1.045
		L0.728,28.8c0.311-0.341,0.535-0.606,0.734-0.705C1.64,27.965,1.786,27.9,1.97,27.9c0.146,0,0.223,0.033,0.319,0.139
		c0.068,0.091,0.072,0.212,0.102,0.445c0,0.302-0.064,0.674-0.164,1.16H2.226L0.356,37.8h2.398l0.062-0.381
		c-0.337-0.031-0.576-0.104-0.68-0.188c-0.115-0.096-0.193-0.271-0.173-0.481c0-0.236,0.012-0.552,0.116-0.9l0.358-1.686
		c0.455,0.292,1.01,0.438,1.716,0.438c0.754,0,1.437-0.268,2.048-0.72c0.612-0.479,1.078-1.141,1.433-1.946
		c0.344-0.817,0.5-1.662,0.518-2.496c0-0.774-0.184-1.388-0.471-1.8c-0.313-0.426-0.775-0.639-1.316-0.639
		c-0.947,0-1.903,0.666-2.858,2.095l-0.092-0.008c0.119-0.322,0.147-0.65,0.178-0.919C3.593,27.816,3.495,27.527,3.309,27.321z
		 M3.476,30.171c0.171-0.38,0.378-0.771,0.714-1.155c0.307-0.391,0.576-0.696,0.844-0.852c0.257-0.177,0.512-0.266,0.78-0.266
		c0.331,0,0.56,0.1,0.725,0.396c0.153,0.266,0.207,0.666,0.23,1.205c0,0.34-0.056,0.673-0.097,1.091
		c-0.065,0.388-0.189,0.757-0.288,1.133c-0.127,0.367-0.288,0.659-0.431,0.966c-0.16,0.277-0.345,0.514-0.539,0.709
		c-0.199,0.195-0.437,0.328-0.633,0.447c-0.222,0.103-0.483,0.153-0.729,0.153c-0.424,0-0.742-0.101-0.897-0.272
		c-0.173-0.183-0.291-0.491-0.259-0.873c0-0.14,0.002-0.291,0.019-0.426c0.013-0.143,0.042-0.353,0.097-0.623v-0.002l0.062-0.322
		C3.171,30.988,3.28,30.527,3.476,30.171z"/>
	<path d="M14.461,35.809l0.853-3.69l-0.459-0.117l-0.547,0.392c-0.189-0.121-0.426-0.219-0.627-0.287
		c-0.228-0.069-0.521-0.104-0.791-0.104c-0.282,0-0.579,0.033-0.82,0.144c-0.264,0.097-0.521,0.215-0.748,0.406
		c-0.233,0.174-0.474,0.357-0.645,0.628c-0.196,0.244-0.388,0.484-0.506,0.812c-0.142,0.297-0.266,0.6-0.33,0.955
		c-0.078,0.339-0.125,0.689-0.116,1.058c0,0.618,0.091,1.084,0.367,1.413c0.246,0.323,0.582,0.484,1.043,0.484
		c0.196,0,0.384-0.034,0.566-0.086c0.181-0.058,0.347-0.161,0.537-0.27c0.178-0.123,0.332-0.305,0.539-0.469
		c0.181-0.189,0.354-0.448,0.561-0.688l0.002-0.001l0.08,0.034c-0.053,0.156-0.093,0.315-0.08,0.488
		c0,0.307,0.054,0.537,0.227,0.725c0.15,0.176,0.362,0.264,0.634,0.264c0.15,0,0.284-0.033,0.434-0.061
		c0.141-0.041,0.262-0.12,0.427-0.197c0.146-0.091,0.292-0.238,0.45-0.35c0.155-0.141,0.318-0.339,0.518-0.509
		c-0.061-0.062-0.137-0.157-0.188-0.189c-0.065-0.063-0.146-0.162-0.188-0.194c-0.117,0.123-0.234,0.224-0.314,0.319
		c-0.093,0.088-0.206,0.149-0.255,0.218c-0.078,0.056-0.172,0.077-0.216,0.125c-0.065,0.025-0.155,0.038-0.198,0.038
		c-0.109,0-0.199-0.032-0.253-0.095c-0.059-0.064-0.098-0.199-0.088-0.311c0-0.105-0.01-0.236,0.028-0.362
		C14.377,36.193,14.391,36.016,14.461,35.809z M13.831,33.96c-0.03,0.185-0.074,0.365-0.125,0.623
		c-0.117,0.501-0.319,0.907-0.527,1.303c-0.232,0.368-0.525,0.673-0.848,0.937c-0.132,0.096-0.276,0.156-0.378,0.211
		c-0.118,0.045-0.271,0.066-0.37,0.066c-0.256,0-0.451-0.1-0.558-0.292c-0.115-0.194-0.19-0.497-0.173-0.894
		c0-0.238,0.016-0.509,0.066-0.744c0.044-0.259,0.105-0.515,0.192-0.755c0.084-0.244,0.182-0.483,0.312-0.695
		c0.123-0.22,0.249-0.427,0.422-0.58c0.159-0.167,0.311-0.313,0.527-0.395c0.192-0.097,0.369-0.146,0.623-0.146
		c0.305,0,0.507,0.033,0.67,0.192c0.141,0.129,0.186,0.331,0.212,0.638C13.876,33.597,13.851,33.754,13.831,33.96z"/>
	<rect x="22.856" y="27.9" width="9.566" height="1"/>
	<rect x="22.856" y="31.1" width="9.566" height="1"/>
	<polygon points="44.264,1.602 44.264,0.801 39.9,0.801 39.9,59.098 44.264,59.098 44.264,58.298 41.5,58.298 41.5,1.602 	"/>
	<rect x="62.556" y="9.7" width="9.565" height="1"/>
	<path d="M78.705,6.061c0-0.879-0.001-1.565,0.047-2.062h-0.427L74.7,6.201l0.341,0.598c0.449-0.304,0.802-0.57,1.13-0.716
		c0.304-0.172,0.514-0.267,0.705-0.259c0.139,0,0.214,0.024,0.316,0.144c0.072,0.095,0.109,0.239,0.109,0.45v6.263
		c0,0.361-0.034,0.601-0.091,0.78c-0.062,0.159-0.165,0.271-0.289,0.37c-0.131,0.088-0.339,0.144-0.572,0.197
		c-0.25,0.044-0.667,0.067-1.25,0.104V14.7h5.805v-0.567c-0.405-0.01-0.74-0.055-0.979-0.058c-0.247-0.028-0.456-0.086-0.616-0.123
		c-0.162-0.056-0.299-0.14-0.373-0.226c-0.086-0.096-0.165-0.237-0.181-0.371c-0.035-0.153-0.054-0.405-0.052-0.679v-0.001V6.061z"
		/>
	<rect x="83" y="12.9" width="1.569" height="1.8"/>
	
		<line fill="none" stroke="#000000" stroke-width="0" stroke-linecap="round" stroke-linejoin="round" x1="86.6" y1="14.223" x2="86.6" y2="14.222"/>
	<path d="M89.431,14.099c-0.493,0-0.902-0.133-1.205-0.387c-0.309-0.258-0.551-0.662-0.695-1.212H86.6v1.722
		c0.971,0.386,1.871,0.577,2.791,0.577c0.744,0,1.381-0.134,1.934-0.391c0.544-0.26,0.936-0.663,1.248-1.139
		c0.288-0.5,0.431-1.123,0.433-1.796c0-0.613-0.136-1.172-0.383-1.618c-0.254-0.467-0.629-0.852-1.084-1.077
		c-0.468-0.253-1.014-0.38-1.611-0.38c-0.311,0-0.653,0-0.933,0.084c-0.311,0.056-0.609,0.128-0.863,0.252V5.398h4.354l0.113-1.801
		h-0.6c-0.06,0.162-0.127,0.263-0.159,0.33c-0.046,0.06-0.126,0.082-0.183,0.13c-0.076,0.028-0.229,0.041-0.372,0.041h-4.187V9.14
		l0.623,0.359c0.283-0.104,0.543-0.204,0.797-0.228c0.249-0.048,0.543-0.072,0.891-0.072c0.41,0,0.741,0.066,1.08,0.244
		c0.309,0.162,0.546,0.414,0.737,0.785c0.182,0.362,0.273,0.819,0.273,1.373c0,0.829-0.2,1.429-0.523,1.87
		C90.628,13.89,90.103,14.099,89.431,14.099z"/>
	<rect x="62.556" y="28.8" width="9.565" height="1"/>
	<path d="M74.3,28.597c0,1.784,0.268,3.084,0.819,3.989c0.546,0.876,1.373,1.314,2.498,1.314h0.001c1.139,0,2-0.5,2.598-1.403
		c0.594-0.937,0.889-2.335,0.891-4.142c0-1.763-0.302-3.08-0.831-3.949c-0.555-0.87-1.414-1.307-2.533-1.307
		c-0.503,0-0.983,0.101-1.391,0.325c-0.425,0.218-0.809,0.542-1.092,1.002c-0.303,0.45-0.556,1.009-0.708,1.711
		C74.384,26.828,74.3,27.616,74.3,28.597z M75.899,26.456c0.063-0.565,0.163-1.049,0.316-1.437c0.149-0.394,0.344-0.699,0.586-0.904
		c0.242-0.209,0.541-0.314,0.902-0.314c0.396,0,0.728,0.135,1.011,0.476c0.279,0.316,0.474,0.825,0.652,1.566
		c0.156,0.728,0.234,1.646,0.234,2.854c0,1.536-0.167,2.672-0.458,3.405c-0.304,0.732-0.785,1.099-1.4,1.099
		c-0.66,0-1.175-0.4-1.464-1.167c-0.315-0.779-0.475-2.023-0.473-3.667l0,0.001C75.805,27.658,75.837,27.002,75.899,26.456z"/>
	<rect x="83" y="32" width="1.569" height="1.8"/>
	<path d="M87.201,25.7c0.098-0.347,0.165-0.58,0.234-0.695c0.058-0.118,0.113-0.219,0.217-0.283
		c0.086-0.071,0.169-0.146,0.322-0.164c0.128-0.038,0.271-0.058,0.514-0.058h3.453v0.117L87.7,33.52V33.9h1.1l4.6-10.323h0.001V23.2
		h-6.7l-0.2,2.5H87.201z"/>
	
		<line fill="none" stroke="#000000" stroke-width="0" stroke-linecap="round" stroke-linejoin="round" x1="95.4" y1="33.323" x2="95.4" y2="33.322"/>
	<path d="M98.231,33.199c-0.493,0-0.903-0.133-1.205-0.387c-0.309-0.259-0.551-0.662-0.695-1.213H95.4v1.723
		c0.971,0.385,1.871,0.576,2.791,0.576c0.744,0,1.381-0.134,1.934-0.391c0.544-0.26,0.936-0.663,1.248-1.139
		c0.288-0.5,0.431-1.123,0.433-1.795c0-0.614-0.136-1.172-0.383-1.619c-0.254-0.466-0.629-0.852-1.084-1.077
		c-0.468-0.253-1.014-0.38-1.611-0.38c-0.311,0-0.653,0-0.933,0.084c-0.311,0.056-0.609,0.128-0.863,0.252v-3.336h4.353l0.114-1.8
		h-0.6c-0.06,0.162-0.127,0.262-0.159,0.33c-0.046,0.059-0.126,0.082-0.183,0.13c-0.076,0.027-0.229,0.041-0.372,0.041h-4.186v5.041
		l0.622,0.358c0.283-0.104,0.543-0.204,0.797-0.227c0.25-0.048,0.543-0.073,0.891-0.073c0.41,0,0.741,0.067,1.08,0.244
		c0.309,0.162,0.546,0.414,0.737,0.786c0.182,0.362,0.273,0.819,0.273,1.373c0,0.829-0.2,1.428-0.522,1.87
		C99.428,32.99,98.903,33.199,98.231,33.199z"/>
	<rect x="53.756" y="47.9" width="9.565" height="1"/>
	<path d="M68.41,51.661c-0.062,0.159-0.164,0.271-0.288,0.37c-0.131,0.088-0.339,0.144-0.572,0.197
		c-0.25,0.043-0.667,0.067-1.25,0.104V52.9h5.805v-0.567c-0.405-0.01-0.74-0.055-0.978-0.058c-0.247-0.028-0.456-0.086-0.616-0.123
		c-0.162-0.056-0.299-0.14-0.373-0.226c-0.086-0.096-0.165-0.237-0.181-0.372c-0.035-0.152-0.054-0.404-0.052-0.678v-0.001V44.26
		c0-0.878-0.001-1.564,0.047-2.061h-0.427L65.9,44.401l0.341,0.598c0.449-0.304,0.802-0.571,1.13-0.716
		c0.304-0.172,0.514-0.268,0.705-0.26c0.139,0,0.214,0.025,0.316,0.145c0.072,0.095,0.109,0.239,0.109,0.45v6.263
		C68.501,51.242,68.467,51.48,68.41,51.661z"/>
	<path d="M74.428,48.967c-0.152,0.326-0.228,0.704-0.228,1.155c0,0.592,0.133,1.084,0.433,1.542
		c0.289,0.436,0.678,0.748,1.216,0.995C76.371,52.887,76.955,53,77.668,53c0.738,0,1.382-0.133,1.936-0.372
		c0.554-0.248,0.952-0.624,1.266-1.055c0.291-0.455,0.435-1.013,0.437-1.581c0-0.608-0.168-1.139-0.484-1.562
		c-0.324-0.432-0.797-0.775-1.363-0.985l-0.016-0.109h-0.001c0.585-0.26,1.004-0.605,1.297-1.008
		c0.279-0.413,0.399-0.922,0.419-1.475c0-0.556-0.153-1.039-0.383-1.429c-0.254-0.396-0.646-0.705-1.139-0.909
		c-0.505-0.211-1.15-0.315-1.869-0.315c-0.654,0-1.277,0.1-1.789,0.358c-0.538,0.239-0.964,0.553-1.244,0.989
		c-0.291,0.421-0.437,0.871-0.437,1.435c0,1.175,0.533,1.98,1.669,2.487l0.016,0.111c-0.382,0.174-0.711,0.347-0.95,0.578
		C74.783,48.371,74.572,48.618,74.428,48.967z M75.867,45.771c-0.072-0.266-0.128-0.556-0.108-0.852c0-0.643,0.147-1.15,0.511-1.491
		c0.342-0.351,0.818-0.526,1.483-0.526c0.379,0,0.695,0.066,1.008,0.23c0.293,0.153,0.505,0.376,0.689,0.709
		c0.166,0.32,0.25,0.706,0.25,1.17c0,0.42-0.1,0.783-0.213,1.111c-0.141,0.32-0.37,0.546-0.647,0.73
		c-0.29,0.164-0.67,0.248-1.072,0.248c-0.37,0-0.693-0.067-0.936-0.173c-0.254-0.116-0.465-0.292-0.62-0.466
		C76.054,46.268,75.916,46.014,75.867,45.771z M75.707,49.977c0-0.302,0.031-0.595,0.103-0.848c0.069-0.265,0.166-0.509,0.348-0.691
		c0.164-0.195,0.343-0.375,0.633-0.467c0.26-0.115,0.563-0.173,0.962-0.173c0.407,0,0.756,0.067,1.073,0.275
		c0.31,0.184,0.534,0.425,0.719,0.8c0.17,0.349,0.255,0.758,0.255,1.247c0,0.453-0.1,0.812-0.236,1.177
		c-0.158,0.331-0.413,0.565-0.688,0.75c-0.301,0.168-0.693,0.252-1.084,0.252c-0.376,0-0.707-0.066-0.958-0.181
		c-0.262-0.121-0.507-0.294-0.645-0.489c-0.168-0.206-0.297-0.482-0.367-0.734c-0.078-0.283-0.118-0.615-0.116-0.916L75.707,49.977z
		"/>
	<rect x="83" y="51.1" width="1.569" height="1.801"/>
	<path d="M87.219,51.686C87.765,52.562,88.592,53,89.717,53h0c1.139,0,2-0.5,2.598-1.403c0.594-0.936,0.889-2.335,0.891-4.141
		c0-1.763-0.302-3.081-0.831-3.95c-0.554-0.87-1.413-1.306-2.533-1.306c-0.503,0-0.982,0.1-1.391,0.325
		c-0.425,0.217-0.809,0.542-1.092,1.002c-0.303,0.449-0.557,1.008-0.708,1.711c-0.168,0.689-0.252,1.478-0.252,2.459
		C86.4,49.48,86.667,50.781,87.219,51.686z M87.999,45.556c0.063-0.564,0.163-1.049,0.316-1.436c0.149-0.394,0.344-0.7,0.586-0.905
		c0.242-0.209,0.541-0.313,0.902-0.313c0.396,0,0.728,0.134,1.011,0.475c0.279,0.317,0.474,0.825,0.652,1.567
		c0.156,0.727,0.234,1.646,0.234,2.853c0,1.537-0.167,2.672-0.458,3.406c-0.304,0.731-0.785,1.098-1.4,1.098
		c-0.66,0-1.175-0.399-1.464-1.167c-0.315-0.779-0.474-2.022-0.472-3.667l0,0.001C87.905,46.758,87.937,46.102,87.999,45.556z"/>
	<polygon points="111.338,58.298 111.338,59.098 115.701,59.098 115.701,0.801 111.338,0.801 111.338,1.602 114.101,1.602 
		114.101,58.298 	"/>
	<path d="M155.209,27.321c-0.189-0.214-0.459-0.32-0.764-0.32c-0.393,0-0.775,0.101-1.075,0.32c-0.324,0.213-0.747,0.54-1.184,1.045
		l0.442,0.434c0.311-0.341,0.535-0.606,0.734-0.705c0.178-0.13,0.324-0.194,0.508-0.194c0.146,0,0.223,0.033,0.319,0.139
		c0.068,0.091,0.072,0.212,0.102,0.445c0,0.302-0.064,0.674-0.164,1.16h-0.001l-1.87,8.155h2.398l0.062-0.381
		c-0.337-0.031-0.576-0.104-0.68-0.188c-0.115-0.096-0.194-0.271-0.173-0.481c0-0.236,0.012-0.552,0.116-0.9l0.358-1.686
		c0.455,0.292,1.01,0.438,1.716,0.438c0.755,0,1.437-0.268,2.048-0.72c0.612-0.479,1.078-1.141,1.433-1.946
		c0.344-0.817,0.5-1.662,0.517-2.496c0-0.774-0.184-1.388-0.47-1.8c-0.314-0.426-0.775-0.639-1.316-0.639
		c-0.947,0-1.903,0.666-2.858,2.095l-0.092-0.008c0.119-0.322,0.147-0.65,0.178-0.919C155.493,27.816,155.395,27.527,155.209,27.321
		z M155.376,30.171c0.171-0.38,0.378-0.771,0.714-1.155c0.307-0.391,0.576-0.696,0.844-0.852c0.257-0.177,0.512-0.266,0.78-0.266
		c0.331,0,0.56,0.1,0.725,0.396c0.153,0.266,0.207,0.666,0.23,1.205c0,0.34-0.056,0.673-0.097,1.091
		c-0.065,0.388-0.189,0.757-0.288,1.133c-0.127,0.367-0.288,0.659-0.431,0.966c-0.16,0.277-0.345,0.514-0.539,0.709
		c-0.199,0.195-0.437,0.328-0.633,0.447c-0.222,0.103-0.483,0.153-0.73,0.153c-0.424,0-0.742-0.101-0.897-0.272
		c-0.173-0.183-0.291-0.491-0.259-0.873c0-0.14,0.002-0.291,0.019-0.426c0.013-0.143,0.042-0.353,0.097-0.623v-0.002l0.062-0.322
		C155.071,30.988,155.18,30.527,155.376,30.171z"/>
	<path d="M162.918,31.785l-1.359,6.003c0.068,0.022,0.115,0.026,0.214,0.059c0.076,0.017,0.119,0.034,0.216,0.054
		c0.087-0.058,0.157-0.123,0.277-0.181c0.099-0.064,0.178-0.138,0.291-0.177c0.218,0.128,0.433,0.213,0.673,0.273
		c0.23,0.055,0.454,0.082,0.753,0.082c0.423,0,0.796-0.133,1.203-0.313c0.38-0.21,0.685-0.506,1-0.861
		c0.286-0.363,0.491-0.805,0.681-1.269c0.168-0.483,0.246-1.002,0.252-1.542c0-0.625-0.14-1.13-0.363-1.425
		c-0.24-0.325-0.592-0.487-1.028-0.487c-0.178,0-0.354,0-0.517,0.08c-0.166,0.053-0.336,0.125-0.5,0.241
		c-0.168,0.106-0.371,0.233-0.516,0.414c-0.177,0.168-0.375,0.355-0.552,0.592l-0.08-0.039l0.792-3.186h-0.408l-1.558,0.1
		l-0.084,0.4c0.144,0.004,0.242,0.004,0.356,0.027c0.095,0.016,0.141,0.038,0.227,0.07c0.057,0.031,0.095,0.064,0.119,0.127
		c0.022,0.052,0.02,0.109,0.034,0.184c0,0.09-0.013,0.187-0.031,0.314C162.989,31.444,162.953,31.569,162.918,31.785z
		 M163.057,35.936c0.038-0.193,0.052-0.405,0.102-0.591h0.001c0.099-0.413,0.213-0.794,0.4-1.094c0.167-0.318,0.347-0.603,0.548-0.8
		c0.199-0.215,0.396-0.399,0.603-0.487c0.203-0.108,0.367-0.164,0.562-0.164c0.252,0,0.428,0.066,0.552,0.295
		c0.115,0.197,0.14,0.466,0.173,0.892c0,0.4-0.066,0.771-0.159,1.191c-0.105,0.395-0.251,0.734-0.439,1.064
		c-0.187,0.315-0.42,0.568-0.672,0.766c-0.261,0.195-0.57,0.292-0.855,0.292c-0.306,0-0.53-0.065-0.666-0.186
		c-0.137-0.125-0.207-0.363-0.206-0.64C163.001,36.309,163,36.117,163.057,35.936z"/>
	<rect x="174.556" y="31.1" width="9.566" height="1"/>
	<rect x="174.556" y="27.9" width="9.566" height="1"/>
	<polygon points="195.964,1.602 195.964,0.801 191.6,0.801 191.6,59.098 195.964,59.098 195.964,58.298 193.2,58.298 193.2,1.602 	
		"/>
	<path d="M230.404,6.061c0-0.879,0-1.565,0.048-2.062h-0.427L226.4,6.201l0.341,0.598c0.448-0.304,0.802-0.57,1.13-0.716
		c0.304-0.172,0.514-0.267,0.705-0.259c0.139,0,0.214,0.024,0.316,0.144c0.071,0.095,0.108,0.239,0.108,0.45v6.263
		c0,0.361-0.034,0.601-0.091,0.78c-0.061,0.159-0.164,0.271-0.288,0.37c-0.131,0.088-0.339,0.144-0.572,0.197
		c-0.25,0.044-0.667,0.067-1.25,0.104V14.7h5.806v-0.567c-0.405-0.01-0.74-0.055-0.979-0.058c-0.247-0.028-0.456-0.086-0.615-0.123
		c-0.162-0.056-0.3-0.14-0.373-0.226c-0.087-0.096-0.166-0.237-0.182-0.371c-0.035-0.153-0.055-0.405-0.053-0.679v-0.001V6.061z"/>
	<rect x="234.7" y="12.9" width="1.568" height="1.8"/>
	
		<line fill="none" stroke="#000000" stroke-width="0" stroke-linecap="round" stroke-linejoin="round" x1="238.3" y1="14.223" x2="238.3" y2="14.222"/>
	<path d="M241.131,14.099c-0.492,0-0.902-0.133-1.205-0.387c-0.309-0.258-0.551-0.662-0.695-1.212H238.3v1.722
		c0.972,0.386,1.871,0.577,2.791,0.577c0.744,0,1.382-0.134,1.935-0.391c0.543-0.26,0.936-0.663,1.248-1.139
		c0.287-0.5,0.431-1.123,0.433-1.796c0-0.613-0.136-1.172-0.383-1.618c-0.255-0.467-0.63-0.852-1.085-1.077
		c-0.467-0.253-1.014-0.38-1.61-0.38c-0.312,0-0.653,0-0.933,0.084c-0.312,0.056-0.609,0.128-0.863,0.252V5.398h4.354l0.113-1.801
		h-0.6c-0.061,0.162-0.127,0.263-0.159,0.33c-0.046,0.06-0.126,0.082-0.183,0.13c-0.076,0.028-0.229,0.041-0.373,0.041h-4.186V9.14
		l0.622,0.359c0.283-0.104,0.543-0.204,0.797-0.228c0.249-0.048,0.544-0.072,0.892-0.072c0.41,0,0.74,0.066,1.08,0.244
		c0.309,0.162,0.545,0.414,0.736,0.785c0.182,0.362,0.273,0.819,0.273,1.373c0,0.829-0.2,1.429-0.523,1.87
		C242.328,13.89,241.803,14.099,241.131,14.099z"/>
	<rect x="214.256" y="28.8" width="9.566" height="1"/>
	<path d="M226,28.597c0,1.784,0.268,3.084,0.818,3.989c0.547,0.876,1.373,1.314,2.498,1.314h0.002c1.139,0,2-0.5,2.598-1.403
		c0.594-0.937,0.889-2.335,0.891-4.142c0-1.763-0.302-3.08-0.83-3.949c-0.555-0.87-1.414-1.307-2.533-1.307
		c-0.504,0-0.983,0.101-1.392,0.325c-0.425,0.218-0.809,0.542-1.092,1.002c-0.303,0.45-0.556,1.009-0.708,1.711
		C226.084,26.828,226,27.616,226,28.597z M227.6,26.456c0.062-0.565,0.162-1.049,0.315-1.437c0.149-0.394,0.344-0.699,0.586-0.904
		c0.242-0.209,0.541-0.314,0.901-0.314c0.396,0,0.729,0.135,1.012,0.476c0.279,0.316,0.475,0.825,0.652,1.566
		c0.156,0.728,0.233,1.646,0.233,2.854c0,1.536-0.167,2.672-0.458,3.405c-0.304,0.732-0.785,1.099-1.4,1.099
		c-0.659,0-1.174-0.4-1.463-1.167c-0.315-0.779-0.475-2.023-0.473-3.667l-0.001,0.001C227.505,27.658,227.537,27.002,227.6,26.456z"
		/>
	<rect x="234.7" y="32" width="1.568" height="1.8"/>
	<path d="M238.9,25.7c0.099-0.347,0.166-0.58,0.234-0.695c0.059-0.118,0.113-0.219,0.217-0.283c0.086-0.071,0.17-0.146,0.322-0.164
		c0.128-0.038,0.27-0.058,0.514-0.058h3.453v0.117l-4.24,8.902V33.9h1.1l4.6-10.323h0.002V23.2H238.4l-0.199,2.5H238.9z"/>
	
		<line fill="none" stroke="#000000" stroke-width="0" stroke-linecap="round" stroke-linejoin="round" x1="247.1" y1="33.323" x2="247.1" y2="33.322"/>
	<path d="M249.932,33.199c-0.494,0-0.904-0.133-1.205-0.387c-0.31-0.259-0.552-0.662-0.695-1.213H247.1v1.723
		c0.971,0.385,1.871,0.576,2.791,0.576c0.744,0,1.381-0.134,1.935-0.391c0.544-0.26,0.937-0.663,1.248-1.139
		c0.288-0.5,0.431-1.123,0.433-1.795c0-0.614-0.136-1.172-0.383-1.619c-0.254-0.466-0.629-0.852-1.084-1.077
		c-0.469-0.253-1.014-0.38-1.611-0.38c-0.311,0-0.652,0-0.933,0.084c-0.312,0.056-0.608,0.128-0.863,0.252v-3.336h4.353l0.115-1.8
		h-0.601c-0.06,0.162-0.127,0.262-0.159,0.33c-0.046,0.059-0.126,0.082-0.183,0.13c-0.076,0.027-0.229,0.041-0.372,0.041H247.6
		v5.041l0.621,0.358c0.283-0.104,0.543-0.204,0.797-0.227c0.25-0.048,0.543-0.073,0.892-0.073c0.409,0,0.741,0.067,1.079,0.244
		c0.31,0.162,0.547,0.414,0.738,0.786c0.182,0.362,0.272,0.819,0.272,1.373c0,0.829-0.2,1.428-0.522,1.87
		C251.128,32.99,250.604,33.199,249.932,33.199z"/>
	<rect x="205.356" y="47.9" width="9.566" height="1"/>
	<path d="M220.109,51.661c-0.061,0.159-0.164,0.271-0.287,0.37c-0.131,0.088-0.34,0.144-0.572,0.197
		c-0.25,0.043-0.667,0.067-1.25,0.104V52.9h5.805v-0.567c-0.404-0.01-0.74-0.055-0.978-0.058c-0.247-0.028-0.456-0.086-0.616-0.123
		c-0.162-0.056-0.299-0.14-0.373-0.226c-0.086-0.096-0.165-0.237-0.181-0.372c-0.035-0.152-0.054-0.404-0.052-0.678v-0.001V44.26
		c0-0.878-0.002-1.564,0.047-2.061h-0.428l-3.625,2.202l0.342,0.598c0.449-0.304,0.802-0.571,1.129-0.716
		c0.305-0.172,0.515-0.268,0.705-0.26c0.14,0,0.215,0.025,0.316,0.145c0.072,0.095,0.109,0.239,0.109,0.45v6.263
		C220.201,51.242,220.167,51.48,220.109,51.661z"/>
	<path d="M226.128,48.967c-0.151,0.326-0.228,0.704-0.228,1.155c0,0.592,0.133,1.084,0.433,1.542
		c0.289,0.436,0.679,0.748,1.216,0.995c0.521,0.228,1.105,0.341,1.819,0.341c0.737,0,1.382-0.133,1.937-0.372
		c0.553-0.248,0.951-0.624,1.266-1.055c0.291-0.455,0.435-1.013,0.437-1.581c0-0.608-0.168-1.139-0.483-1.562
		c-0.324-0.432-0.797-0.775-1.363-0.985l-0.016-0.109h-0.002c0.586-0.26,1.004-0.605,1.297-1.008
		c0.279-0.413,0.399-0.922,0.42-1.475c0-0.556-0.153-1.039-0.383-1.429c-0.254-0.396-0.646-0.705-1.14-0.909
		c-0.505-0.211-1.149-0.315-1.869-0.315c-0.653,0-1.276,0.1-1.788,0.358c-0.539,0.239-0.965,0.553-1.244,0.989
		c-0.291,0.421-0.437,0.871-0.437,1.435c0,1.175,0.533,1.98,1.669,2.487l0.016,0.111c-0.382,0.174-0.711,0.347-0.949,0.578
		C226.482,48.371,226.271,48.618,226.128,48.967z M227.566,45.771c-0.071-0.266-0.127-0.556-0.107-0.852
		c0-0.643,0.146-1.15,0.512-1.491c0.342-0.351,0.817-0.526,1.482-0.526c0.379,0,0.695,0.066,1.008,0.23
		c0.293,0.153,0.505,0.376,0.689,0.709c0.166,0.32,0.25,0.706,0.25,1.17c0,0.42-0.101,0.783-0.213,1.111
		c-0.142,0.32-0.371,0.546-0.647,0.73c-0.29,0.164-0.67,0.248-1.072,0.248c-0.37,0-0.692-0.067-0.936-0.173
		c-0.255-0.116-0.466-0.292-0.62-0.466C227.754,46.268,227.616,46.014,227.566,45.771z M227.407,49.977
		c0-0.302,0.03-0.595,0.103-0.848c0.069-0.265,0.166-0.509,0.348-0.691c0.164-0.195,0.344-0.375,0.634-0.467
		c0.26-0.115,0.563-0.173,0.962-0.173c0.406,0,0.756,0.067,1.072,0.275c0.311,0.184,0.535,0.425,0.72,0.8
		c0.17,0.349,0.255,0.758,0.255,1.247c0,0.453-0.1,0.812-0.236,1.177c-0.158,0.331-0.412,0.565-0.688,0.75
		c-0.301,0.168-0.693,0.252-1.084,0.252c-0.376,0-0.707-0.066-0.958-0.181c-0.263-0.121-0.507-0.294-0.646-0.489
		c-0.168-0.206-0.297-0.482-0.367-0.734c-0.078-0.283-0.117-0.615-0.115-0.916L227.407,49.977z"/>
	<rect x="234.7" y="51.1" width="1.568" height="1.801"/>
	<path d="M238.919,51.686c0.546,0.877,1.373,1.314,2.498,1.314h0.001c1.139,0,2-0.5,2.598-1.403
		c0.594-0.936,0.889-2.335,0.892-4.141c0-1.763-0.302-3.081-0.831-3.95c-0.555-0.87-1.413-1.306-2.533-1.306
		c-0.503,0-0.982,0.1-1.391,0.325c-0.426,0.217-0.81,0.542-1.092,1.002c-0.304,0.449-0.557,1.008-0.709,1.711
		c-0.168,0.689-0.252,1.478-0.252,2.459C238.1,49.48,238.367,50.781,238.919,51.686z M240.016,44.12
		c0.148-0.394,0.344-0.7,0.586-0.905c0.241-0.209,0.541-0.313,0.901-0.313c0.396,0,0.728,0.134,1.011,0.475
		c0.279,0.317,0.475,0.825,0.652,1.567c0.156,0.727,0.234,1.646,0.234,2.853c0,1.537-0.168,2.672-0.459,3.406
		c-0.303,0.731-0.784,1.098-1.399,1.098c-0.66,0-1.175-0.399-1.464-1.167c-0.314-0.779-0.475-2.022-0.473-3.666
		c0-0.709,0.031-1.365,0.094-1.911C239.762,44.991,239.861,44.507,240.016,44.12z"/>
	<polygon points="263.038,58.298 263.038,59.098 267.4,59.098 267.4,0.801 263.038,0.801 263.038,1.602 265.801,1.602 
		265.801,58.298 	"/>
	<path d="M306.909,27.321c-0.189-0.214-0.459-0.32-0.765-0.32c-0.393,0-0.774,0.101-1.074,0.32c-0.324,0.213-0.747,0.54-1.185,1.045
		l0.442,0.434c0.311-0.341,0.535-0.606,0.734-0.705c0.178-0.13,0.323-0.194,0.508-0.194c0.146,0,0.223,0.033,0.318,0.139
		c0.068,0.091,0.072,0.212,0.103,0.445c0,0.302-0.064,0.674-0.164,1.16h-0.001l-1.87,8.155h2.397l0.062-0.381
		c-0.337-0.031-0.576-0.104-0.68-0.188c-0.115-0.096-0.194-0.271-0.174-0.481c0-0.236,0.013-0.552,0.117-0.9l0.357-1.686
		c0.455,0.292,1.01,0.438,1.716,0.438c0.755,0,1.438-0.268,2.048-0.72c0.612-0.479,1.078-1.141,1.434-1.946
		c0.344-0.817,0.5-1.662,0.517-2.496c0-0.774-0.184-1.388-0.47-1.8c-0.314-0.426-0.775-0.639-1.316-0.639
		c-0.947,0-1.902,0.666-2.857,2.095l-0.093-0.008c0.119-0.322,0.147-0.65,0.179-0.919C307.193,27.816,307.095,27.527,306.909,27.321
		z M307.076,30.171c0.171-0.38,0.378-0.771,0.714-1.155c0.307-0.391,0.576-0.696,0.844-0.852c0.257-0.177,0.513-0.266,0.78-0.266
		c0.331,0,0.56,0.1,0.725,0.396c0.153,0.266,0.207,0.666,0.23,1.205c0,0.34-0.057,0.673-0.097,1.091
		c-0.065,0.388-0.189,0.757-0.288,1.133c-0.127,0.367-0.288,0.659-0.432,0.966c-0.16,0.277-0.345,0.514-0.539,0.709
		c-0.198,0.195-0.437,0.328-0.633,0.447c-0.222,0.103-0.482,0.153-0.729,0.153c-0.425,0-0.742-0.101-0.897-0.272
		c-0.173-0.183-0.291-0.491-0.259-0.873c0-0.14,0.002-0.291,0.019-0.426c0.014-0.143,0.042-0.353,0.098-0.623v-0.002l0.062-0.322
		C306.771,30.988,306.88,30.527,307.076,30.171z"/>
	<path d="M314.717,34.378c0.096-0.25,0.189-0.509,0.341-0.698c0.133-0.217,0.246-0.41,0.439-0.565c0.16-0.161,0.328-0.3,0.52-0.378
		c0.188-0.092,0.382-0.137,0.587-0.137c0.129,0.004,0.228,0.004,0.325,0.054c0.09,0.03,0.146,0.079,0.216,0.159
		c0.056,0.074,0.074,0.17,0.119,0.305c0.025,0.128,0.037,0.289,0.042,0.482l0.001,0.002h0.669l0.316-1.414
		c-0.253-0.062-0.516-0.125-0.733-0.14c-0.235-0.03-0.521-0.045-0.766-0.045c-0.329,0-0.66,0.033-0.942,0.142
		c-0.298,0.094-0.581,0.213-0.833,0.398c-0.256,0.172-0.494,0.358-0.694,0.616c-0.207,0.237-0.415,0.485-0.536,0.795
		c-0.149,0.291-0.278,0.574-0.342,0.934c-0.08,0.331-0.128,0.668-0.119,1.031c0,0.635,0.125,1.096,0.467,1.467
		c0.311,0.343,0.747,0.515,1.345,0.515c0.47,0,0.89-0.101,1.314-0.301c0.408-0.199,0.791-0.533,1.223-0.916
		c-0.072-0.074-0.164-0.169-0.208-0.223c-0.064-0.073-0.154-0.161-0.206-0.223c-0.184,0.181-0.371,0.302-0.506,0.456
		c-0.153,0.122-0.304,0.19-0.445,0.297c-0.143,0.075-0.312,0.112-0.44,0.161c-0.151,0.031-0.341,0.048-0.494,0.048
		c-0.317,0-0.575-0.133-0.714-0.314c-0.159-0.21-0.246-0.539-0.238-0.919c0-0.269,0.026-0.558,0.077-0.808
		C314.551,34.889,314.617,34.602,314.717,34.378z"/>
	<rect x="325.256" y="31.1" width="9.566" height="1"/>
	<rect x="325.256" y="27.9" width="9.566" height="1"/>
	<polygon points="346.564,1.602 346.564,0.801 342.2,0.801 342.2,59.098 346.564,59.098 346.564,58.298 343.8,58.298 343.8,1.602 	
		"/>
	<rect x="364.956" y="9.7" width="9.565" height="1"/>
	<path d="M381.105,6.061c0-0.879-0.002-1.565,0.047-2.062h-0.428L377.1,6.201l0.342,0.598c0.448-0.304,0.802-0.57,1.13-0.716
		c0.304-0.172,0.514-0.267,0.705-0.259c0.139,0,0.214,0.024,0.315,0.144c0.072,0.095,0.109,0.239,0.109,0.45v6.263
		c0,0.361-0.034,0.601-0.091,0.78c-0.062,0.159-0.164,0.271-0.288,0.37c-0.131,0.088-0.339,0.144-0.572,0.197
		c-0.25,0.044-0.667,0.067-1.25,0.104V14.7h5.805v-0.567c-0.404-0.01-0.739-0.055-0.978-0.058c-0.247-0.028-0.456-0.086-0.616-0.123
		c-0.162-0.056-0.299-0.14-0.373-0.226c-0.086-0.096-0.165-0.237-0.181-0.371c-0.035-0.153-0.055-0.405-0.052-0.679v-0.001V6.061z"
		/>
	<rect x="385.4" y="12.9" width="1.568" height="1.8"/>
	
		<line fill="none" stroke="#000000" stroke-width="0" stroke-linecap="round" stroke-linejoin="round" x1="389" y1="14.223" x2="389" y2="14.222"/>
	<path d="M391.831,14.099c-0.493,0-0.903-0.133-1.205-0.387c-0.309-0.258-0.551-0.662-0.695-1.212H389v1.722
		c0.971,0.386,1.871,0.577,2.791,0.577c0.744,0,1.381-0.134,1.934-0.391c0.544-0.26,0.937-0.663,1.248-1.139
		c0.288-0.5,0.432-1.123,0.434-1.796c0-0.613-0.137-1.172-0.383-1.618c-0.255-0.467-0.63-0.852-1.084-1.077
		c-0.469-0.253-1.015-0.38-1.611-0.38c-0.312,0-0.653,0-0.934,0.084c-0.311,0.056-0.608,0.128-0.862,0.252V5.398h4.353l0.114-1.801
		h-0.6c-0.061,0.162-0.127,0.263-0.159,0.33c-0.046,0.06-0.126,0.082-0.184,0.13c-0.075,0.028-0.229,0.041-0.372,0.041h-4.186V9.14
		l0.622,0.359c0.283-0.104,0.543-0.204,0.797-0.228c0.249-0.048,0.543-0.072,0.891-0.072c0.41,0,0.741,0.066,1.08,0.244
		c0.31,0.162,0.546,0.414,0.737,0.785c0.182,0.362,0.273,0.819,0.273,1.373c0,0.829-0.2,1.429-0.523,1.87
		C393.028,13.89,392.503,14.099,391.831,14.099z"/>
	<path d="M376.7,28.597c0,1.784,0.267,3.084,0.818,3.989c0.547,0.876,1.373,1.314,2.498,1.314h0.001c1.14,0,2-0.5,2.599-1.403
		c0.594-0.937,0.889-2.335,0.891-4.142c0-1.763-0.302-3.08-0.831-3.949c-0.554-0.87-1.413-1.307-2.533-1.307
		c-0.503,0-0.982,0.101-1.391,0.325c-0.425,0.218-0.809,0.542-1.092,1.002c-0.303,0.45-0.557,1.009-0.708,1.711
		C376.784,26.828,376.7,27.616,376.7,28.597z M378.299,26.456c0.063-0.565,0.163-1.049,0.316-1.437
		c0.148-0.394,0.344-0.699,0.586-0.904c0.242-0.209,0.541-0.314,0.901-0.314c0.396,0,0.729,0.135,1.012,0.476
		c0.278,0.316,0.474,0.825,0.651,1.566c0.156,0.728,0.234,1.646,0.234,2.854c0,1.536-0.167,2.672-0.458,3.405
		c-0.304,0.732-0.785,1.099-1.4,1.099c-0.659,0-1.175-0.4-1.464-1.167c-0.314-0.779-0.474-2.023-0.472-3.667l-0.001,0.001
		C378.205,27.658,378.237,27.002,378.299,26.456z"/>
	<rect x="385.4" y="32" width="1.568" height="1.8"/>
	<path d="M389.601,25.7c0.099-0.347,0.165-0.58,0.234-0.695c0.058-0.118,0.113-0.219,0.217-0.283
		c0.086-0.071,0.169-0.146,0.322-0.164c0.128-0.038,0.27-0.058,0.514-0.058h3.453v0.117L390.1,33.52V33.9h1.101l4.6-10.323h0.001
		V23.2h-6.7l-0.199,2.5H389.601z"/>
	
		<line fill="none" stroke="#000000" stroke-width="0" stroke-linecap="round" stroke-linejoin="round" x1="397.8" y1="33.323" x2="397.8" y2="33.322"/>
	<path d="M400.631,33.199c-0.493,0-0.903-0.133-1.205-0.387c-0.309-0.259-0.551-0.662-0.694-1.213H397.8v1.723
		c0.972,0.385,1.871,0.576,2.791,0.576c0.744,0,1.381-0.134,1.935-0.391c0.544-0.26,0.936-0.663,1.248-1.139
		c0.287-0.5,0.431-1.123,0.433-1.795c0-0.614-0.136-1.172-0.383-1.619c-0.254-0.466-0.629-0.852-1.084-1.077
		c-0.468-0.253-1.015-0.38-1.611-0.38c-0.311,0-0.653,0-0.933,0.084c-0.312,0.056-0.609,0.128-0.863,0.252v-3.336h4.353l0.114-1.8
		h-0.6c-0.061,0.162-0.127,0.262-0.159,0.33c-0.046,0.059-0.126,0.082-0.183,0.13c-0.076,0.027-0.229,0.041-0.372,0.041h-4.187
		v5.041l0.622,0.358c0.283-0.104,0.543-0.204,0.797-0.227c0.249-0.048,0.543-0.073,0.892-0.073c0.409,0,0.74,0.067,1.08,0.244
		c0.309,0.162,0.546,0.414,0.736,0.786c0.183,0.362,0.273,0.819,0.273,1.373c0,0.829-0.2,1.428-0.523,1.87
		C401.828,32.99,401.303,33.199,400.631,33.199z"/>
	<rect x="356.056" y="47.9" width="9.566" height="1"/>
	<path d="M370.71,51.661c-0.061,0.159-0.164,0.271-0.288,0.37c-0.131,0.088-0.339,0.144-0.572,0.197
		c-0.25,0.043-0.667,0.067-1.25,0.104V52.9h5.806v-0.567c-0.405-0.01-0.74-0.055-0.979-0.058c-0.247-0.028-0.456-0.086-0.616-0.123
		c-0.161-0.056-0.299-0.14-0.373-0.226c-0.086-0.096-0.164-0.237-0.181-0.372c-0.035-0.152-0.054-0.404-0.052-0.678v-0.001V44.26
		c0-0.878-0.001-1.564,0.047-2.061h-0.427l-3.625,2.202l0.341,0.598c0.449-0.304,0.802-0.571,1.13-0.716
		c0.304-0.172,0.514-0.268,0.705-0.26c0.139,0,0.214,0.025,0.316,0.145c0.071,0.095,0.108,0.239,0.108,0.45v6.263
		C370.801,51.242,370.767,51.48,370.71,51.661z"/>
	<path d="M376.828,48.967c-0.152,0.326-0.229,0.704-0.229,1.155c0,0.592,0.134,1.084,0.434,1.542
		c0.289,0.436,0.678,0.748,1.216,0.995c0.522,0.228,1.106,0.341,1.819,0.341c0.737,0,1.382-0.133,1.936-0.372
		c0.554-0.248,0.952-0.624,1.266-1.055c0.291-0.455,0.436-1.013,0.438-1.581c0-0.608-0.168-1.139-0.484-1.562
		c-0.323-0.432-0.797-0.775-1.362-0.985l-0.017-0.109h-0.001c0.585-0.26,1.004-0.605,1.297-1.008
		c0.279-0.413,0.399-0.922,0.419-1.475c0-0.556-0.152-1.039-0.383-1.429c-0.254-0.396-0.646-0.705-1.139-0.909
		c-0.505-0.211-1.15-0.315-1.869-0.315c-0.654,0-1.277,0.1-1.789,0.358c-0.538,0.239-0.964,0.553-1.244,0.989
		c-0.291,0.421-0.436,0.871-0.436,1.435c0,1.175,0.533,1.98,1.669,2.487l0.016,0.111c-0.382,0.174-0.711,0.347-0.95,0.578
		C377.183,48.371,376.972,48.618,376.828,48.967z M378.267,45.771c-0.071-0.266-0.128-0.556-0.107-0.852
		c0-0.643,0.146-1.15,0.511-1.491c0.342-0.351,0.818-0.526,1.483-0.526c0.379,0,0.694,0.066,1.008,0.23
		c0.293,0.153,0.505,0.376,0.688,0.709c0.166,0.32,0.25,0.706,0.25,1.17c0,0.42-0.1,0.783-0.213,1.111
		c-0.141,0.32-0.37,0.546-0.646,0.73c-0.29,0.164-0.67,0.248-1.072,0.248c-0.37,0-0.693-0.067-0.936-0.173
		c-0.255-0.116-0.466-0.292-0.62-0.466C378.454,46.268,378.316,46.014,378.267,45.771z M378.107,49.977
		c0-0.302,0.03-0.595,0.103-0.848c0.069-0.265,0.166-0.509,0.348-0.691c0.163-0.195,0.344-0.375,0.634-0.467
		c0.26-0.115,0.562-0.173,0.962-0.173c0.406,0,0.756,0.067,1.072,0.275c0.311,0.184,0.534,0.425,0.72,0.8
		c0.17,0.349,0.255,0.758,0.255,1.247c0,0.453-0.101,0.812-0.236,1.177c-0.158,0.331-0.413,0.565-0.688,0.75
		c-0.302,0.168-0.693,0.252-1.084,0.252c-0.376,0-0.707-0.066-0.958-0.181c-0.263-0.121-0.508-0.294-0.646-0.489
		c-0.168-0.206-0.297-0.482-0.367-0.734c-0.078-0.283-0.118-0.615-0.115-0.916L378.107,49.977z"/>
	<rect x="385.4" y="51.1" width="1.568" height="1.801"/>
	<path d="M389.619,51.686c0.546,0.877,1.373,1.314,2.498,1.314h0.001c1.139,0,2-0.5,2.598-1.403c0.594-0.936,0.89-2.335,0.892-4.141
		c0-1.763-0.303-3.081-0.831-3.95c-0.555-0.87-1.413-1.306-2.533-1.306c-0.503,0-0.983,0.1-1.392,0.325
		c-0.425,0.217-0.809,0.542-1.092,1.002c-0.303,0.449-0.556,1.008-0.708,1.711c-0.168,0.689-0.252,1.478-0.252,2.459
		C388.8,49.48,389.067,50.781,389.619,51.686z M390.399,45.556c0.062-0.564,0.163-1.049,0.315-1.436
		c0.149-0.394,0.344-0.7,0.586-0.905c0.242-0.209,0.541-0.313,0.902-0.313c0.396,0,0.728,0.134,1.011,0.475
		c0.279,0.317,0.474,0.825,0.652,1.567c0.156,0.727,0.233,1.646,0.233,2.853c0,1.537-0.167,2.672-0.458,3.406
		c-0.304,0.731-0.784,1.098-1.399,1.098c-0.66,0-1.175-0.399-1.464-1.167c-0.315-0.779-0.475-2.022-0.473-3.667l-0.001,0.001
		C390.305,46.758,390.337,46.102,390.399,45.556z"/>
	<polygon points="413.738,1.602 416.501,1.602 416.501,58.298 413.738,58.298 413.738,59.098 418.101,59.098 418.101,0.801 
		413.738,0.801 	"/>
</g>
</svg>
