<?xml version="1.0" encoding="utf-8"?>
<!-- Generator: Adobe Illustrator 15.1.0, SVG Export Plug-In . SVG Version: 6.00 Build 0)  -->
<!DOCTYPE svg PUBLIC "-//W3C//DTD SVG 1.1 Tiny//EN" "http://www.w3.org/Graphics/SVG/1.1/DTD/svg11-tiny.dtd">
<svg version="1.1" baseProfile="tiny" id="Layer_1" xmlns="http://www.w3.org/2000/svg" xmlns:xlink="http://www.w3.org/1999/xlink"
	 x="0px" y="0px" width="238px" height="60px" viewBox="0 0 238 60" overflow="inherit" xml:space="preserve">
<g>
	<path fill="none" d="M156.434,33.641c0.389-0.32,0.6-0.772,0.6-1.397c-0.012-0.222-0.031-0.386-0.094-0.531
		c-0.076-0.149-0.162-0.265-0.297-0.354c-0.15-0.108-0.309-0.154-0.518-0.194c-0.218-0.062-0.464-0.062-0.762-0.062
		c-0.112,0-0.195,0.002-0.312,0.006c-0.134,0.002-0.229,0.006-0.339,0.006l-0.675,2.986h0.675
		C155.456,34.1,156.033,33.947,156.434,33.641z"/>
	<path fill="none" d="M87.478,32.033c0.289,0.767,0.804,1.167,1.464,1.167c0.615,0,1.096-0.366,1.4-1.099
		c0.291-0.733,0.458-1.869,0.458-3.405c0-1.207-0.078-2.126-0.234-2.854c-0.178-0.741-0.373-1.25-0.652-1.566
		c-0.283-0.341-0.615-0.476-1.011-0.476c-0.361,0-0.66,0.105-0.902,0.314c-0.242,0.205-0.437,0.511-0.586,0.904
		c-0.153,0.388-0.253,0.871-0.316,1.437c-0.062,0.546-0.094,1.202-0.094,1.911l0.001-0.001
		C87.004,30.01,87.163,31.254,87.478,32.033z"/>
	<path fill="none" d="M145.211,31.803v0.002c-0.055,0.271-0.084,0.48-0.098,0.623c-0.016,0.135-0.018,0.286-0.018,0.426
		c-0.033,0.382,0.086,0.69,0.258,0.873c0.155,0.172,0.474,0.272,0.897,0.272c0.247,0,0.508-0.051,0.729-0.153
		c0.196-0.119,0.435-0.252,0.633-0.447c0.195-0.195,0.38-0.432,0.539-0.709c0.144-0.307,0.305-0.599,0.432-0.966
		c0.1-0.376,0.223-0.745,0.288-1.133c0.041-0.418,0.097-0.751,0.097-1.091c-0.023-0.539-0.076-0.939-0.23-1.205
		c-0.164-0.297-0.393-0.396-0.725-0.396c-0.268,0-0.522,0.089-0.779,0.266c-0.269,0.155-0.537,0.461-0.844,0.852
		c-0.336,0.385-0.543,0.775-0.715,1.155c-0.195,0.356-0.305,0.817-0.402,1.31L145.211,31.803z"/>
	<path fill="none" d="M87.478,51.133c0.289,0.768,0.804,1.167,1.464,1.167c0.615,0,1.096-0.366,1.4-1.098
		c0.291-0.734,0.458-1.869,0.458-3.406c0-1.207-0.078-2.126-0.234-2.853c-0.178-0.742-0.373-1.25-0.652-1.567
		c-0.283-0.341-0.615-0.475-1.011-0.475c-0.361,0-0.66,0.104-0.902,0.313c-0.242,0.205-0.437,0.512-0.586,0.905
		c-0.153,0.387-0.253,0.871-0.316,1.436c-0.062,0.546-0.094,1.202-0.094,1.911l0.001-0.001
		C87.004,49.11,87.163,50.354,87.478,51.133z"/>
	<path fill="none" d="M3.011,31.803v0.002c-0.055,0.271-0.084,0.48-0.097,0.623c-0.017,0.135-0.019,0.286-0.019,0.426
		c-0.032,0.382,0.086,0.69,0.259,0.873c0.155,0.172,0.473,0.272,0.897,0.272c0.247,0,0.508-0.051,0.729-0.153
		c0.196-0.119,0.434-0.252,0.633-0.447c0.194-0.195,0.379-0.432,0.539-0.709c0.143-0.307,0.304-0.599,0.431-0.966
		c0.099-0.376,0.223-0.745,0.288-1.133c0.041-0.418,0.097-0.751,0.097-1.091c-0.023-0.539-0.077-0.939-0.23-1.205
		c-0.165-0.297-0.394-0.396-0.725-0.396c-0.268,0-0.523,0.089-0.78,0.266c-0.268,0.155-0.537,0.461-0.844,0.852
		c-0.336,0.385-0.543,0.775-0.714,1.155c-0.196,0.356-0.305,0.817-0.403,1.31L3.011,31.803z"/>
	<path fill="none" d="M219.178,51.133c0.289,0.768,0.805,1.167,1.465,1.167c0.614,0,1.096-0.366,1.399-1.098
		c0.291-0.734,0.458-1.869,0.458-3.406c0-1.207-0.078-2.126-0.234-2.853c-0.178-0.742-0.373-1.25-0.652-1.567
		c-0.282-0.341-0.614-0.475-1.01-0.475c-0.361,0-0.66,0.104-0.902,0.313c-0.242,0.205-0.438,0.512-0.586,0.905
		c-0.153,0.387-0.254,0.871-0.316,1.436c-0.062,0.546-0.094,1.202-0.094,1.911l0.001-0.001
		C218.704,49.11,218.863,50.354,219.178,51.133z"/>
	<path fill="none" d="M219.178,32.033c0.289,0.767,0.805,1.167,1.465,1.167c0.614,0,1.096-0.366,1.399-1.099
		c0.291-0.733,0.458-1.869,0.458-3.405c0-1.207-0.078-2.126-0.234-2.854c-0.178-0.741-0.373-1.25-0.652-1.566
		c-0.282-0.341-0.614-0.476-1.01-0.476c-0.361,0-0.66,0.105-0.902,0.314c-0.242,0.205-0.438,0.511-0.586,0.904
		c-0.153,0.388-0.254,0.871-0.316,1.437c-0.062,0.546-0.094,1.202-0.094,1.911l0.001-0.001
		C218.704,30.01,218.863,31.254,219.178,32.033z"/>
	<path d="M3.309,27.321c-0.189-0.214-0.459-0.32-0.764-0.32c-0.393,0-0.775,0.101-1.075,0.32c-0.324,0.213-0.747,0.54-1.184,1.045
		L0.728,28.8c0.311-0.341,0.535-0.606,0.734-0.705C1.64,27.965,1.786,27.9,1.97,27.9c0.146,0,0.223,0.033,0.319,0.139
		c0.068,0.091,0.072,0.212,0.102,0.445c0,0.302-0.064,0.674-0.164,1.16H2.226L0.356,37.8h2.398l0.062-0.381
		c-0.337-0.031-0.576-0.104-0.68-0.188c-0.115-0.096-0.193-0.271-0.173-0.481c0-0.236,0.012-0.552,0.116-0.9l0.358-1.686
		c0.455,0.292,1.01,0.438,1.716,0.438c0.754,0,1.437-0.268,2.048-0.72c0.612-0.479,1.078-1.141,1.433-1.946
		c0.344-0.817,0.5-1.662,0.518-2.496c0-0.774-0.184-1.388-0.471-1.8c-0.313-0.426-0.775-0.639-1.316-0.639
		c-0.947,0-1.903,0.666-2.858,2.095l-0.092-0.008c0.119-0.322,0.147-0.65,0.178-0.919C3.593,27.816,3.495,27.527,3.309,27.321z
		 M3.476,30.171c0.171-0.38,0.378-0.771,0.714-1.155c0.307-0.391,0.576-0.696,0.844-0.852c0.257-0.177,0.512-0.266,0.78-0.266
		c0.331,0,0.56,0.1,0.725,0.396c0.153,0.266,0.207,0.666,0.23,1.205c0,0.34-0.056,0.673-0.097,1.091
		c-0.065,0.388-0.189,0.757-0.288,1.133c-0.127,0.367-0.288,0.659-0.431,0.966c-0.16,0.277-0.345,0.514-0.539,0.709
		c-0.199,0.195-0.437,0.328-0.633,0.447c-0.222,0.103-0.483,0.153-0.729,0.153c-0.424,0-0.742-0.101-0.897-0.272
		c-0.173-0.183-0.291-0.491-0.259-0.873c0-0.14,0.002-0.291,0.019-0.426c0.013-0.143,0.042-0.353,0.097-0.623v-0.002l0.062-0.322
		C3.171,30.988,3.28,30.527,3.476,30.171z"/>
	<path d="M10.085,36.814c-0.047,0.157-0.109,0.254-0.158,0.355c-0.059,0.079-0.134,0.123-0.202,0.161
		c-0.075,0.028-0.184,0.05-0.289,0.069L9.373,37.8h4.991l0.581-2.2h-0.62c-0.143,0.35-0.285,0.615-0.395,0.838
		c-0.118,0.209-0.262,0.364-0.37,0.486c-0.128,0.113-0.281,0.172-0.419,0.223c-0.152,0.035-0.332,0.054-0.538,0.054h-1.48
		l1.15-5.036c0.069-0.296,0.111-0.55,0.167-0.675c0.044-0.153,0.063-0.283,0.147-0.349c0.055-0.078,0.092-0.158,0.198-0.152
		c0.079-0.024,0.183-0.053,0.316-0.086l0.061-0.4h-2.389l-0.086,0.4c0.23,0.004,0.368,0.037,0.475,0.108
		c0.087,0.068,0.1,0.164,0.131,0.345c0,0.09-0.031,0.171-0.028,0.322c-0.018,0.125-0.074,0.266-0.084,0.432h0.001l-0.93,4.037
		C10.189,36.432,10.105,36.65,10.085,36.814z"/>
	<rect x="22.056" y="27.9" width="9.566" height="1"/>
	<rect x="22.056" y="31.1" width="9.566" height="1"/>
	<polygon points="43.364,1.602 43.364,0.801 39,0.801 39,59.098 43.364,59.098 43.364,58.298 40.6,58.298 40.6,1.602 	"/>
	<rect x="52.856" y="9.7" width="9.565" height="1"/>
	<path d="M69.005,6.061c0-0.879-0.001-1.565,0.047-2.062h-0.427L65,6.201l0.341,0.598c0.449-0.304,0.802-0.57,1.13-0.716
		c0.304-0.172,0.514-0.267,0.705-0.259c0.139,0,0.213,0.024,0.316,0.144c0.072,0.095,0.109,0.239,0.109,0.45v6.263
		c0,0.361-0.034,0.601-0.091,0.78c-0.062,0.159-0.164,0.271-0.289,0.37c-0.131,0.088-0.339,0.144-0.572,0.197
		c-0.25,0.044-0.667,0.067-1.25,0.104V14.7h5.805v-0.567c-0.405-0.01-0.74-0.055-0.978-0.058c-0.247-0.028-0.456-0.086-0.616-0.123
		c-0.162-0.056-0.299-0.14-0.373-0.226c-0.086-0.096-0.165-0.237-0.181-0.371c-0.035-0.153-0.054-0.405-0.052-0.679v-0.001V6.061z"
		/>
	<rect x="73.3" y="12.9" width="1.569" height="1.8"/>
	<path d="M81.105,8.157c-0.14,0.27-0.376,0.584-0.642,0.959c-0.26,0.34-0.715,0.834-1.281,1.497
		c-0.687,0.766-1.247,1.428-1.591,1.997c-0.375,0.565-0.671,1.095-0.891,1.657v0.432h6.273l0.133-2.301h-0.7
		c-0.08,0.238-0.149,0.405-0.198,0.527c-0.052,0.114-0.155,0.205-0.214,0.277c-0.089,0.072-0.221,0.104-0.359,0.152
		c-0.15,0.029-0.361,0.045-0.591,0.045h-2.821c0.453-0.771,1.146-1.704,2.133-2.705c0.575-0.617,0.957-1.082,1.214-1.322
		c0.234-0.264,0.444-0.555,0.642-0.781c0.193-0.257,0.323-0.521,0.462-0.72c0.115-0.224,0.19-0.481,0.252-0.678
		c0.054-0.229,0.079-0.494,0.081-0.752c0-0.794-0.269-1.408-0.733-1.816c-0.489-0.418-1.214-0.627-2.166-0.627
		c-0.433,0-0.936,0.033-1.463,0.195c-0.541,0.13-1.123,0.331-1.745,0.63v1.475h0.931c0.335-1.066,0.958-1.6,1.95-1.6
		c0.387,0,0.694,0.066,0.964,0.255c0.255,0.169,0.44,0.385,0.569,0.698c0.124,0.295,0.186,0.609,0.186,1.02
		c0,0.242-0.033,0.451-0.092,0.723C81.346,7.633,81.244,7.868,81.105,8.157z"/>
	
		<line fill="none" stroke="#000000" stroke-width="0" stroke-linecap="round" stroke-linejoin="round" x1="85.7" y1="14.223" x2="85.7" y2="14.222"/>
	<path d="M88.531,14.099c-0.493,0-0.903-0.133-1.205-0.387c-0.309-0.258-0.551-0.662-0.695-1.212H85.7v1.722
		c0.971,0.386,1.871,0.577,2.791,0.577c0.744,0,1.381-0.134,1.934-0.391c0.544-0.26,0.936-0.663,1.248-1.139
		c0.288-0.5,0.431-1.123,0.433-1.796c0-0.613-0.136-1.172-0.383-1.618c-0.254-0.467-0.629-0.852-1.084-1.077
		c-0.468-0.253-1.014-0.38-1.611-0.38c-0.311,0-0.653,0-0.934,0.084c-0.311,0.056-0.609,0.128-0.863,0.252V5.398h4.354l0.113-1.801
		h-0.6c-0.06,0.162-0.127,0.263-0.159,0.33c-0.046,0.06-0.126,0.082-0.183,0.13c-0.076,0.028-0.229,0.041-0.372,0.041h-4.187V9.14
		l0.623,0.359c0.283-0.104,0.543-0.204,0.797-0.228c0.249-0.048,0.543-0.072,0.891-0.072c0.41,0,0.741,0.066,1.08,0.244
		c0.309,0.162,0.546,0.414,0.737,0.785c0.182,0.362,0.272,0.819,0.272,1.373c0,0.829-0.2,1.429-0.522,1.87
		C89.728,13.89,89.203,14.099,88.531,14.099z"/>
	<path d="M86.319,32.586c0.545,0.876,1.373,1.314,2.498,1.314h0c1.139,0,2-0.5,2.598-1.403c0.594-0.937,0.889-2.335,0.891-4.142
		c0-1.763-0.302-3.08-0.831-3.949c-0.554-0.87-1.413-1.307-2.533-1.307c-0.503,0-0.982,0.101-1.391,0.325
		c-0.425,0.218-0.809,0.542-1.091,1.002c-0.303,0.45-0.557,1.009-0.708,1.711c-0.168,0.69-0.252,1.479-0.252,2.459
		C85.5,30.381,85.767,31.681,86.319,32.586z M87.099,26.456c0.063-0.565,0.164-1.049,0.316-1.437
		c0.149-0.394,0.344-0.699,0.586-0.904c0.242-0.209,0.541-0.314,0.902-0.314c0.396,0,0.728,0.135,1.011,0.476
		c0.279,0.316,0.474,0.825,0.652,1.566c0.156,0.728,0.234,1.646,0.234,2.854c0,1.536-0.167,2.672-0.458,3.405
		c-0.304,0.732-0.785,1.099-1.4,1.099c-0.66,0-1.175-0.4-1.464-1.167c-0.315-0.779-0.474-2.023-0.472-3.667l-0.001,0.001
		C87.005,27.658,87.037,27.002,87.099,26.456z"/>
	<path d="M86.319,51.686C86.865,52.562,87.692,53,88.817,53h0c1.139,0,2-0.5,2.598-1.403c0.594-0.936,0.889-2.335,0.891-4.141
		c0-1.763-0.302-3.081-0.831-3.95c-0.554-0.87-1.413-1.306-2.533-1.306c-0.503,0-0.982,0.1-1.391,0.325
		c-0.425,0.217-0.809,0.542-1.091,1.002c-0.303,0.449-0.557,1.008-0.708,1.711c-0.168,0.689-0.252,1.478-0.252,2.459
		C85.5,49.48,85.767,50.781,86.319,51.686z M87.099,45.556c0.063-0.564,0.164-1.049,0.316-1.436c0.149-0.394,0.344-0.7,0.586-0.905
		c0.242-0.209,0.541-0.313,0.902-0.313c0.396,0,0.728,0.134,1.011,0.475c0.279,0.317,0.474,0.825,0.652,1.567
		c0.156,0.727,0.234,1.646,0.234,2.853c0,1.537-0.167,2.672-0.458,3.406c-0.304,0.731-0.785,1.098-1.4,1.098
		c-0.66,0-1.175-0.399-1.464-1.167c-0.315-0.779-0.474-2.022-0.472-3.667l-0.001,0.001C87.005,46.758,87.037,46.102,87.099,45.556z"
		/>
	<polygon points="101.638,58.298 101.638,59.098 106.001,59.098 106.001,0.801 101.638,0.801 101.638,1.602 104.401,1.602 
		104.401,58.298 	"/>
	<path d="M145.509,27.321c-0.188-0.214-0.459-0.32-0.764-0.32c-0.394,0-0.774,0.101-1.075,0.32c-0.324,0.213-0.747,0.54-1.184,1.045
		l0.441,0.434c0.311-0.341,0.535-0.606,0.734-0.705c0.178-0.13,0.324-0.194,0.508-0.194c0.146,0,0.223,0.033,0.318,0.139
		c0.068,0.091,0.072,0.212,0.103,0.445c0,0.302-0.063,0.674-0.164,1.16h-0.001l-1.869,8.155h2.397l0.062-0.381
		c-0.336-0.031-0.576-0.104-0.68-0.188c-0.115-0.096-0.193-0.271-0.173-0.481c0-0.236,0.012-0.552,0.116-0.9l0.357-1.686
		c0.455,0.292,1.01,0.438,1.717,0.438c0.754,0,1.437-0.268,2.047-0.72c0.613-0.479,1.078-1.141,1.434-1.946
		c0.344-0.817,0.5-1.662,0.518-2.496c0-0.774-0.185-1.388-0.471-1.8c-0.314-0.426-0.775-0.639-1.316-0.639
		c-0.946,0-1.902,0.666-2.857,2.095l-0.092-0.008c0.119-0.322,0.146-0.65,0.178-0.919C145.793,27.816,145.695,27.527,145.509,27.321
		z M145.676,30.171c0.172-0.38,0.379-0.771,0.715-1.155c0.307-0.391,0.575-0.696,0.844-0.852c0.257-0.177,0.512-0.266,0.779-0.266
		c0.332,0,0.561,0.1,0.725,0.396c0.154,0.266,0.207,0.666,0.23,1.205c0,0.34-0.056,0.673-0.097,1.091
		c-0.065,0.388-0.188,0.757-0.288,1.133c-0.127,0.367-0.288,0.659-0.432,0.966c-0.159,0.277-0.344,0.514-0.539,0.709
		c-0.198,0.195-0.437,0.328-0.633,0.447c-0.222,0.103-0.482,0.153-0.729,0.153c-0.424,0-0.742-0.101-0.897-0.272
		c-0.172-0.183-0.291-0.491-0.258-0.873c0-0.14,0.002-0.291,0.018-0.426c0.014-0.143,0.043-0.353,0.098-0.623v-0.002l0.062-0.322
		C145.371,30.988,145.48,30.527,145.676,30.171z"/>
	<path d="M153.382,32.109l-0.93,4.037c-0.063,0.285-0.147,0.504-0.17,0.668c-0.05,0.157-0.109,0.254-0.161,0.355
		c-0.059,0.079-0.133,0.123-0.198,0.161c-0.073,0.028-0.181,0.05-0.286,0.069l-0.062,0.399h2.419l0.073-0.399
		c-0.125-0.011-0.246-0.045-0.309-0.043c-0.081-0.019-0.167-0.07-0.193-0.074c-0.047-0.032-0.102-0.094-0.099-0.127
		c-0.019-0.053-0.04-0.139-0.028-0.191c0-0.109-0.012-0.266,0.051-0.436c0.033-0.181,0.072-0.391,0.128-0.581
		c0.051-0.207,0.079-0.423,0.155-0.638c0.054-0.218,0.097-0.421,0.147-0.61l0.002,0.002h0.673c0.148,0.007,0.25,0.007,0.375,0.036
		c0.102,0.017,0.18,0.039,0.26,0.102c0.07,0.051,0.129,0.105,0.187,0.206c0.053,0.085,0.082,0.171,0.153,0.345
		c0.049,0.144,0.093,0.314,0.149,0.531c0.052,0.211,0.112,0.438,0.189,0.75c0.05,0.197,0.081,0.373,0.17,0.606
		c0.063,0.206,0.104,0.38,0.198,0.522h1.646l0.08-0.399c-0.204-0.029-0.371-0.097-0.484-0.128c-0.117-0.056-0.224-0.146-0.295-0.264
		c-0.076-0.121-0.15-0.291-0.203-0.494c-0.059-0.208-0.164-0.514-0.222-0.818c-0.08-0.284-0.179-0.517-0.28-0.685
		c-0.107-0.173-0.279-0.344-0.429-0.433c0-0.013-0.028-0.04,0-0.036c0-0.011,0.003-0.026,0.013-0.039
		c0.693-0.199,1.193-0.501,1.553-0.866c0.341-0.378,0.49-0.857,0.512-1.414c0-0.244-0.055-0.484-0.125-0.68
		c-0.084-0.21-0.23-0.426-0.425-0.547c-0.2-0.155-0.472-0.288-0.798-0.364c-0.332-0.088-0.771-0.133-1.244-0.133h-2.6l-0.086,0.4
		c0.233,0.004,0.371,0.036,0.478,0.11c0.085,0.07,0.097,0.166,0.128,0.355c0,0.081-0.031,0.159-0.028,0.311
		C153.448,31.803,153.393,31.943,153.382,32.109z M154.713,31.113c0.109,0,0.205-0.004,0.339-0.006
		c0.116-0.004,0.199-0.006,0.312-0.006c0.298,0,0.544,0,0.762,0.062c0.209,0.04,0.367,0.086,0.518,0.194
		c0.135,0.09,0.221,0.205,0.297,0.354c0.062,0.146,0.082,0.31,0.094,0.531c0,0.625-0.211,1.077-0.6,1.397
		c-0.4,0.307-0.978,0.459-1.721,0.459h-0.675L154.713,31.113z"/>
	<rect x="165.656" y="31.1" width="9.566" height="1"/>
	<rect x="165.656" y="27.9" width="9.566" height="1"/>
	<polygon points="186.964,1.602 186.964,0.801 182.6,0.801 182.6,59.098 186.964,59.098 186.964,58.298 184.2,58.298 184.2,1.602 	
		"/>
	<path d="M200.705,6.061c0-0.879-0.001-1.565,0.047-2.062h-0.427L196.7,6.201l0.341,0.598c0.449-0.304,0.802-0.57,1.13-0.716
		c0.304-0.172,0.515-0.267,0.705-0.259c0.14,0,0.214,0.024,0.315,0.144c0.072,0.095,0.109,0.239,0.109,0.45v6.263
		c0,0.361-0.033,0.601-0.091,0.78c-0.062,0.159-0.164,0.271-0.288,0.37c-0.131,0.088-0.339,0.144-0.572,0.197
		c-0.25,0.044-0.666,0.067-1.25,0.104V14.7h5.805v-0.567c-0.404-0.01-0.739-0.055-0.978-0.058c-0.247-0.028-0.456-0.086-0.616-0.123
		c-0.162-0.056-0.299-0.14-0.373-0.226c-0.086-0.096-0.164-0.237-0.181-0.371c-0.034-0.153-0.054-0.405-0.052-0.679v-0.001V6.061z"
		/>
	<rect x="205" y="12.9" width="1.568" height="1.8"/>
	<path d="M212.805,8.157c-0.14,0.27-0.375,0.584-0.642,0.959c-0.261,0.34-0.715,0.834-1.281,1.497
		c-0.687,0.766-1.247,1.428-1.591,1.997c-0.375,0.565-0.671,1.095-0.891,1.657v0.432h6.272l0.134-2.301h-0.701
		c-0.08,0.238-0.148,0.405-0.197,0.527c-0.053,0.114-0.155,0.205-0.215,0.277c-0.088,0.072-0.221,0.104-0.358,0.152
		c-0.149,0.029-0.36,0.045-0.591,0.045h-2.821c0.453-0.771,1.146-1.704,2.134-2.705c0.574-0.617,0.957-1.082,1.213-1.322
		c0.234-0.264,0.444-0.555,0.643-0.781c0.193-0.257,0.322-0.521,0.462-0.72c0.114-0.224,0.19-0.481,0.252-0.678
		c0.054-0.229,0.079-0.494,0.081-0.752c0-0.794-0.27-1.408-0.732-1.816c-0.49-0.418-1.215-0.627-2.166-0.627
		c-0.434,0-0.937,0.033-1.463,0.195c-0.541,0.13-1.123,0.331-1.746,0.63v1.475h0.932c0.335-1.066,0.957-1.6,1.949-1.6
		c0.388,0,0.694,0.066,0.965,0.255c0.255,0.169,0.439,0.385,0.568,0.698c0.125,0.295,0.187,0.609,0.187,1.02
		c0,0.242-0.033,0.451-0.093,0.723C213.046,7.633,212.943,7.868,212.805,8.157z"/>
	
		<line fill="none" stroke="#000000" stroke-width="0" stroke-linecap="round" stroke-linejoin="round" x1="217.4" y1="14.223" x2="217.4" y2="14.222"/>
	<path d="M220.23,14.099c-0.492,0-0.902-0.133-1.205-0.387c-0.309-0.258-0.551-0.662-0.694-1.212H217.4v1.722
		c0.971,0.386,1.871,0.577,2.791,0.577c0.744,0,1.381-0.134,1.934-0.391c0.544-0.26,0.936-0.663,1.248-1.139
		c0.288-0.5,0.432-1.123,0.434-1.796c0-0.613-0.137-1.172-0.384-1.618c-0.254-0.467-0.629-0.852-1.084-1.077
		c-0.468-0.253-1.014-0.38-1.61-0.38c-0.312,0-0.653,0-0.934,0.084c-0.311,0.056-0.609,0.128-0.863,0.252V5.398h4.354l0.113-1.801
		h-0.6c-0.061,0.162-0.127,0.263-0.158,0.33c-0.047,0.06-0.127,0.082-0.184,0.13c-0.076,0.028-0.229,0.041-0.372,0.041h-4.187V9.14
		l0.623,0.359c0.283-0.104,0.543-0.204,0.797-0.228c0.248-0.048,0.543-0.072,0.891-0.072c0.41,0,0.741,0.066,1.08,0.244
		c0.309,0.162,0.546,0.414,0.736,0.785c0.183,0.362,0.273,0.819,0.273,1.373c0,0.829-0.199,1.429-0.523,1.87
		C221.428,13.89,220.902,14.099,220.23,14.099z"/>
	<path d="M218.02,32.586c0.545,0.876,1.373,1.314,2.498,1.314c1.14,0,2-0.5,2.599-1.403c0.594-0.937,0.889-2.335,0.891-4.142
		c0-1.763-0.302-3.08-0.831-3.949c-0.554-0.87-1.412-1.307-2.533-1.307c-0.502,0-0.982,0.101-1.391,0.325
		c-0.425,0.218-0.809,0.542-1.092,1.002c-0.303,0.45-0.557,1.009-0.708,1.711c-0.168,0.69-0.252,1.479-0.252,2.459
		C217.2,30.381,217.467,31.681,218.02,32.586z M218.799,26.456c0.062-0.565,0.163-1.049,0.316-1.437
		c0.148-0.394,0.344-0.699,0.586-0.904c0.242-0.209,0.541-0.314,0.902-0.314c0.396,0,0.728,0.135,1.01,0.476
		c0.279,0.316,0.475,0.825,0.652,1.566c0.156,0.728,0.234,1.646,0.234,2.854c0,1.536-0.167,2.672-0.458,3.405
		c-0.304,0.732-0.785,1.099-1.399,1.099c-0.66,0-1.176-0.4-1.465-1.167c-0.314-0.779-0.474-2.023-0.472-3.667l-0.001,0.001
		C218.705,27.658,218.736,27.002,218.799,26.456z"/>
	<path d="M218.02,51.686c0.545,0.877,1.373,1.314,2.498,1.314c1.14,0,2-0.5,2.599-1.403c0.594-0.936,0.889-2.335,0.891-4.141
		c0-1.763-0.302-3.081-0.831-3.95c-0.554-0.87-1.412-1.306-2.533-1.306c-0.502,0-0.982,0.1-1.391,0.325
		c-0.425,0.217-0.809,0.542-1.092,1.002c-0.303,0.449-0.557,1.008-0.708,1.711c-0.168,0.689-0.252,1.478-0.252,2.459
		C217.2,49.48,217.467,50.781,218.02,51.686z M218.799,45.556c0.062-0.564,0.163-1.049,0.316-1.436
		c0.148-0.394,0.344-0.7,0.586-0.905c0.242-0.209,0.541-0.313,0.902-0.313c0.396,0,0.728,0.134,1.01,0.475
		c0.279,0.317,0.475,0.825,0.652,1.567c0.156,0.727,0.234,1.646,0.234,2.853c0,1.537-0.167,2.672-0.458,3.406
		c-0.304,0.731-0.785,1.098-1.399,1.098c-0.66,0-1.176-0.399-1.465-1.167c-0.314-0.779-0.474-2.022-0.472-3.667l-0.001,0.001
		C218.705,46.758,218.736,46.102,218.799,45.556z"/>
	<polygon points="233.338,1.602 236.102,1.602 236.102,58.298 233.338,58.298 233.338,59.098 237.701,59.098 237.701,0.801 
		233.338,0.801 	"/>
</g>
</svg>
