<?xml version="1.0" encoding="utf-8"?>
<!-- Generator: Adobe Illustrator 15.1.0, SVG Export Plug-In . SVG Version: 6.00 Build 0)  -->
<!DOCTYPE svg PUBLIC "-//W3C//DTD SVG 1.1 Tiny//EN" "http://www.w3.org/Graphics/SVG/1.1/DTD/svg11-tiny.dtd">
<svg version="1.1" baseProfile="tiny" id="Layer_1" xmlns="http://www.w3.org/2000/svg" xmlns:xlink="http://www.w3.org/1999/xlink"
	 x="0px" y="0px" width="330px" height="12px" viewBox="0 0 330 12" overflow="inherit" xml:space="preserve">
<g>
	<path fill="none" d="M132.707,10.414c0.136,0.12,0.36,0.186,0.666,0.186c0.285,0,0.594-0.097,0.855-0.292
		c0.252-0.196,0.485-0.45,0.672-0.766c0.188-0.33,0.334-0.67,0.439-1.063c0.093-0.421,0.159-0.791,0.159-1.192
		c-0.033-0.425-0.058-0.694-0.173-0.892c-0.124-0.229-0.3-0.295-0.552-0.295c-0.195,0-0.359,0.056-0.562,0.164
		c-0.207,0.088-0.404,0.272-0.603,0.487c-0.201,0.198-0.381,0.481-0.548,0.8c-0.187,0.301-0.301,0.682-0.4,1.094h-0.001
		c-0.05,0.186-0.064,0.397-0.102,0.592c-0.057,0.181-0.056,0.373-0.056,0.539C132.5,10.051,132.57,10.289,132.707,10.414z"/>
	<path fill="none" d="M86.476,7.604c0.196-0.123,0.383-0.265,0.488-0.431c0.083-0.19,0.156-0.347,0.156-0.545
		c-0.006-0.238-0.059-0.406-0.177-0.534C86.812,5.934,86.656,5.9,86.434,5.9c-0.218,0-0.412,0.05-0.614,0.147
		c-0.209,0.083-0.393,0.24-0.573,0.422c-0.195,0.159-0.342,0.403-0.489,0.662c-0.166,0.248-0.27,0.548-0.369,0.867L84.388,8
		c0.451-0.004,0.893-0.041,1.238-0.111C85.964,7.79,86.255,7.724,86.476,7.604z"/>
	<path fill="none" d="M76.411,5.104v0.002c-0.055,0.27-0.084,0.479-0.097,0.623c-0.017,0.134-0.019,0.285-0.019,0.425
		c-0.032,0.382,0.086,0.69,0.259,0.873c0.155,0.173,0.473,0.272,0.897,0.272c0.247,0,0.508-0.051,0.729-0.152
		c0.196-0.119,0.434-0.252,0.633-0.447c0.194-0.196,0.379-0.432,0.539-0.709c0.143-0.308,0.304-0.6,0.431-0.967
		c0.099-0.375,0.223-0.744,0.288-1.133c0.041-0.418,0.097-0.751,0.097-1.091c-0.023-0.539-0.077-0.939-0.23-1.205
		c-0.165-0.297-0.394-0.396-0.725-0.396c-0.268,0-0.523,0.089-0.78,0.266c-0.268,0.155-0.537,0.461-0.844,0.853
		c-0.336,0.384-0.543,0.774-0.714,1.154c-0.196,0.356-0.305,0.817-0.403,1.31L76.411,5.104z"/>
	<path fill="none" d="M162.111,5.104v0.002c-0.055,0.27-0.084,0.479-0.097,0.623c-0.017,0.134-0.019,0.285-0.019,0.425
		c-0.032,0.382,0.086,0.69,0.259,0.873c0.155,0.173,0.473,0.272,0.897,0.272c0.247,0,0.508-0.051,0.73-0.152
		c0.196-0.119,0.434-0.252,0.633-0.447c0.194-0.196,0.379-0.432,0.539-0.709c0.143-0.308,0.304-0.6,0.431-0.967
		c0.099-0.375,0.223-0.744,0.288-1.133c0.041-0.418,0.097-0.751,0.097-1.091c-0.023-0.539-0.077-0.939-0.23-1.205
		c-0.165-0.297-0.394-0.396-0.725-0.396c-0.268,0-0.523,0.089-0.78,0.266c-0.268,0.155-0.537,0.461-0.844,0.853
		c-0.336,0.384-0.543,0.774-0.714,1.154c-0.196,0.356-0.305,0.817-0.403,1.31L162.111,5.104z"/>
	<path fill="none" d="M198.111,5.104v0.002c-0.055,0.27-0.084,0.479-0.098,0.623c-0.017,0.134-0.019,0.285-0.019,0.425
		c-0.032,0.382,0.086,0.69,0.259,0.873c0.155,0.173,0.473,0.272,0.896,0.272c0.248,0,0.509-0.051,0.73-0.152
		c0.196-0.119,0.434-0.252,0.633-0.447c0.194-0.196,0.379-0.432,0.539-0.709c0.143-0.308,0.305-0.6,0.432-0.967
		c0.099-0.375,0.223-0.744,0.287-1.133c0.041-0.418,0.098-0.751,0.098-1.091c-0.023-0.539-0.077-0.939-0.23-1.205
		c-0.164-0.297-0.394-0.396-0.725-0.396c-0.268,0-0.523,0.089-0.78,0.266c-0.268,0.155-0.536,0.461-0.844,0.853
		c-0.336,0.384-0.543,0.774-0.714,1.154c-0.196,0.356-0.305,0.817-0.403,1.31L198.111,5.104z"/>
	<path fill="none" d="M50.094,5.9c-0.254,0-0.431,0.048-0.623,0.145c-0.216,0.081-0.368,0.229-0.527,0.395
		c-0.173,0.153-0.299,0.36-0.422,0.58c-0.13,0.213-0.227,0.451-0.312,0.695c-0.087,0.24-0.148,0.496-0.192,0.755
		c-0.05,0.235-0.066,0.507-0.066,0.744c-0.017,0.396,0.058,0.699,0.173,0.894c0.107,0.192,0.302,0.293,0.558,0.293
		c0.1,0,0.252-0.022,0.371-0.067c0.102-0.055,0.246-0.115,0.377-0.211c0.322-0.263,0.615-0.568,0.848-0.937
		c0.208-0.396,0.41-0.802,0.527-1.303c0.051-0.258,0.096-0.438,0.125-0.623c0.021-0.206,0.045-0.363,0.045-0.529
		c-0.026-0.308-0.071-0.51-0.212-0.639C50.601,5.933,50.399,5.9,50.094,5.9z"/>
	<path fill="none" d="M208.176,7.604c0.196-0.123,0.383-0.265,0.488-0.431c0.083-0.19,0.156-0.347,0.156-0.545
		c-0.006-0.238-0.059-0.406-0.178-0.534c-0.131-0.16-0.287-0.193-0.509-0.193c-0.218,0-0.411,0.05-0.614,0.147
		c-0.209,0.083-0.393,0.24-0.572,0.422c-0.195,0.159-0.342,0.403-0.489,0.662c-0.166,0.248-0.271,0.548-0.369,0.867L206.088,8
		c0.451-0.004,0.893-0.041,1.238-0.111C207.664,7.79,207.955,7.724,208.176,7.604z"/>
	<path fill="none" d="M40.111,5.104v0.002c-0.055,0.27-0.084,0.479-0.097,0.623c-0.017,0.134-0.019,0.285-0.019,0.425
		c-0.032,0.382,0.086,0.69,0.259,0.873c0.155,0.173,0.473,0.272,0.897,0.272c0.247,0,0.508-0.051,0.729-0.152
		c0.196-0.119,0.434-0.252,0.633-0.447c0.194-0.196,0.379-0.432,0.539-0.709c0.143-0.308,0.304-0.6,0.431-0.967
		c0.099-0.375,0.223-0.744,0.288-1.133c0.041-0.418,0.097-0.751,0.097-1.091c-0.023-0.539-0.077-0.939-0.23-1.205
		c-0.166-0.297-0.394-0.396-0.725-0.396c-0.268,0-0.523,0.089-0.78,0.266c-0.268,0.155-0.537,0.461-0.844,0.853
		c-0.336,0.384-0.543,0.774-0.714,1.154c-0.196,0.356-0.305,0.817-0.403,1.31L40.111,5.104z"/>
	<path fill="none" d="M12.094,5.9c-0.254,0-0.431,0.048-0.623,0.145c-0.216,0.081-0.368,0.229-0.527,0.395
		c-0.173,0.153-0.299,0.36-0.422,0.58c-0.13,0.213-0.227,0.451-0.312,0.695c-0.087,0.24-0.148,0.496-0.192,0.755
		c-0.05,0.235-0.066,0.507-0.066,0.744c-0.017,0.396,0.058,0.699,0.173,0.894c0.107,0.192,0.302,0.293,0.558,0.293
		c0.1,0,0.252-0.022,0.371-0.067c0.102-0.055,0.246-0.115,0.377-0.211c0.322-0.263,0.615-0.568,0.848-0.937
		c0.208-0.396,0.41-0.802,0.527-1.303c0.051-0.258,0.096-0.438,0.125-0.623c0.021-0.206,0.045-0.363,0.045-0.529
		c-0.026-0.308-0.071-0.51-0.212-0.639C12.601,5.933,12.399,5.9,12.094,5.9z"/>
	<path fill="none" d="M170.407,10.414c0.136,0.12,0.36,0.186,0.666,0.186c0.284,0,0.594-0.097,0.854-0.292
		c0.252-0.196,0.485-0.45,0.672-0.766c0.188-0.33,0.334-0.67,0.439-1.063c0.093-0.421,0.159-0.791,0.159-1.192
		c-0.033-0.425-0.058-0.694-0.173-0.892C172.9,6.166,172.725,6.1,172.473,6.1c-0.195,0-0.359,0.056-0.562,0.164
		c-0.207,0.088-0.404,0.272-0.603,0.487c-0.201,0.198-0.382,0.481-0.549,0.8c-0.187,0.301-0.301,0.682-0.4,1.094
		c-0.051,0.186-0.064,0.397-0.103,0.592c-0.057,0.181-0.056,0.373-0.056,0.539C170.2,10.051,170.27,10.289,170.407,10.414z"/>
	<path fill="none" d="M327.776,7.604c0.195-0.123,0.383-0.265,0.487-0.431c0.083-0.19,0.156-0.347,0.156-0.545
		c-0.006-0.238-0.059-0.406-0.177-0.534c-0.131-0.16-0.287-0.193-0.509-0.193c-0.219,0-0.412,0.05-0.614,0.147
		c-0.209,0.083-0.394,0.24-0.573,0.422c-0.195,0.159-0.342,0.403-0.489,0.662c-0.166,0.248-0.27,0.548-0.368,0.867L325.688,8
		c0.451-0.004,0.894-0.041,1.238-0.111C327.264,7.79,327.555,7.724,327.776,7.604z"/>
	<path fill="none" d="M282.811,5.104v0.002c-0.055,0.27-0.084,0.479-0.097,0.623c-0.017,0.134-0.019,0.285-0.019,0.425
		c-0.032,0.382,0.086,0.69,0.259,0.873c0.155,0.173,0.473,0.272,0.897,0.272c0.246,0,0.508-0.051,0.729-0.152
		c0.196-0.119,0.435-0.252,0.633-0.447c0.194-0.196,0.379-0.432,0.539-0.709c0.144-0.308,0.304-0.6,0.431-0.967
		c0.1-0.375,0.224-0.744,0.289-1.133c0.041-0.418,0.096-0.751,0.096-1.091c-0.022-0.539-0.076-0.939-0.229-1.205
		c-0.165-0.297-0.394-0.396-0.725-0.396c-0.269,0-0.523,0.089-0.78,0.266c-0.268,0.155-0.537,0.461-0.844,0.853
		c-0.336,0.384-0.543,0.774-0.715,1.154c-0.195,0.356-0.305,0.817-0.402,1.31L282.811,5.104z"/>
	<path fill="none" d="M317.711,5.104v0.002c-0.055,0.27-0.084,0.479-0.097,0.623c-0.018,0.134-0.02,0.285-0.02,0.425
		c-0.032,0.382,0.086,0.69,0.259,0.873c0.155,0.173,0.474,0.272,0.897,0.272c0.247,0,0.508-0.051,0.73-0.152
		c0.195-0.119,0.434-0.252,0.633-0.447c0.193-0.196,0.379-0.432,0.539-0.709c0.143-0.308,0.304-0.6,0.431-0.967
		c0.099-0.375,0.223-0.744,0.288-1.133c0.041-0.418,0.097-0.751,0.097-1.091c-0.022-0.539-0.077-0.939-0.229-1.205
		c-0.165-0.297-0.395-0.396-0.726-0.396c-0.268,0-0.522,0.089-0.779,0.266c-0.269,0.155-0.537,0.461-0.845,0.853
		c-0.336,0.384-0.543,0.774-0.714,1.154c-0.195,0.356-0.305,0.817-0.402,1.31L317.711,5.104z"/>
	<path d="M2.825,5.505C2.856,5.22,2.882,4.917,2.942,4.63l0.434-2.841c0.01-0.057-0.014-0.12,0.023-0.188
		C3.404,1.534,3.405,1.433,3.407,1.39c0-0.126-0.035-0.256-0.039-0.381C3.343,0.88,3.287,0.744,3.224,0.657
		C3.154,0.55,3.046,0.431,2.933,0.398C2.809,0.333,2.632,0.3,2.452,0.3c-0.233,0-0.483,0.034-0.683,0.122
		c-0.224,0.08-0.446,0.173-0.638,0.32C0.93,0.875,0.721,0.994,0.558,1.186C0.376,1.349,0.191,1.487,0.045,1.681l0.372,0.435
		C0.511,2.023,0.605,1.918,0.72,1.817C0.828,1.711,0.921,1.605,1.057,1.52c0.116-0.095,0.231-0.2,0.345-0.23
		C1.517,1.23,1.616,1.2,1.721,1.2c0.124,0,0.184,0.032,0.264,0.155c0.052,0.104,0.057,0.219,0.078,0.396
		c0,0.052-0.021,0.101-0.02,0.245c-0.012,0.111-0.06,0.212-0.05,0.353L1.666,4.502C1.61,4.844,1.554,5.176,1.527,5.521
		C1.49,5.857,1.448,6.15,1.472,6.468c0,0.224,0.009,0.4,0.039,0.614C1.537,7.27,1.566,7.408,1.642,7.568
		c0.062,0.138,0.115,0.215,0.245,0.318C1.988,7.962,2.093,8,2.264,8l0.005-0.003c0.336,0,0.648-0.101,1.012-0.205
		c0.34-0.138,0.648-0.336,1.002-0.555C4.612,7.005,4.92,6.725,5.235,6.42C5.54,6.107,5.797,5.768,6.096,5.422
		C6.365,5.068,6.602,4.693,6.833,4.33c0.223-0.375,0.413-0.752,0.575-1.098c0.16-0.355,0.26-0.701,0.373-1.014
		c0.088-0.32,0.13-0.628,0.133-0.853c0-0.325-0.102-0.614-0.248-0.778C7.499,0.395,7.212,0.297,6.857,0.297
		c-0.191,0-0.408,0.033-0.589,0.117C6.065,0.493,5.844,0.587,5.68,0.727C5.491,0.857,5.299,0.98,5.144,1.18
		C4.976,1.352,4.829,1.523,4.706,1.718l0.442,0.396C5.345,1.84,5.53,1.602,5.718,1.451c0.184-0.169,0.38-0.253,0.604-0.253
		c0.171,0,0.265,0.032,0.377,0.153c0.08,0.101,0.115,0.217,0.12,0.433c0,0.432-0.071,0.836-0.214,1.288
		C6.461,3.5,6.261,3.875,6.048,4.291C5.82,4.675,5.539,5.011,5.279,5.364C4.995,5.695,4.703,5.973,4.426,6.222
		c-0.285,0.241-0.559,0.4-0.816,0.57C3.351,6.929,3.116,6.998,2.966,6.998c-0.072,0-0.126-0.1-0.146-0.203
		C2.793,6.659,2.754,6.46,2.78,6.261C2.78,6.042,2.788,5.787,2.825,5.505z"/>
	<path d="M13.561,9.109l0.853-3.691l-0.459-0.117l-0.547,0.392c-0.19-0.121-0.426-0.219-0.627-0.286
		c-0.228-0.07-0.522-0.105-0.791-0.105c-0.282,0-0.579,0.033-0.82,0.145c-0.264,0.096-0.521,0.214-0.748,0.406
		c-0.233,0.174-0.474,0.356-0.645,0.627C9.581,6.723,9.389,6.963,9.271,7.29c-0.142,0.297-0.266,0.6-0.33,0.955
		c-0.078,0.339-0.125,0.69-0.116,1.058c0,0.618,0.091,1.084,0.367,1.413c0.246,0.323,0.582,0.484,1.043,0.484
		c0.196,0,0.384-0.034,0.566-0.086c0.181-0.058,0.347-0.161,0.537-0.27c0.178-0.123,0.332-0.305,0.539-0.469
		c0.181-0.188,0.355-0.448,0.561-0.687l0.002-0.002l0.08,0.034c-0.053,0.156-0.093,0.315-0.08,0.488
		c0,0.308,0.054,0.537,0.227,0.726c0.15,0.176,0.362,0.264,0.634,0.264c0.15,0,0.284-0.034,0.434-0.062
		c0.14-0.041,0.262-0.12,0.427-0.196c0.146-0.092,0.292-0.239,0.45-0.351c0.155-0.141,0.318-0.339,0.517-0.509
		c-0.061-0.062-0.137-0.157-0.188-0.189c-0.065-0.063-0.146-0.162-0.188-0.194c-0.117,0.124-0.234,0.224-0.314,0.319
		c-0.093,0.088-0.206,0.149-0.255,0.218c-0.078,0.056-0.172,0.077-0.216,0.125c-0.065,0.025-0.155,0.038-0.198,0.038
		c-0.109,0-0.199-0.032-0.253-0.095c-0.059-0.064-0.098-0.198-0.088-0.311c0-0.105-0.01-0.236,0.028-0.362
		C13.477,9.493,13.491,9.316,13.561,9.109z M12.931,7.26c-0.029,0.186-0.074,0.365-0.125,0.623
		c-0.117,0.501-0.318,0.907-0.527,1.303c-0.233,0.368-0.526,0.674-0.848,0.937c-0.132,0.096-0.275,0.156-0.377,0.211
		c-0.118,0.045-0.271,0.067-0.371,0.067c-0.256,0-0.451-0.101-0.558-0.293C10.01,9.913,9.935,9.61,9.952,9.214
		c0-0.237,0.016-0.509,0.066-0.744c0.044-0.259,0.105-0.515,0.192-0.755c0.085-0.244,0.182-0.482,0.312-0.695
		c0.123-0.22,0.249-0.427,0.422-0.58c0.159-0.166,0.311-0.313,0.527-0.395C11.663,5.948,11.84,5.9,12.094,5.9
		c0.305,0,0.507,0.032,0.67,0.191c0.141,0.129,0.186,0.331,0.212,0.639C12.976,6.896,12.951,7.054,12.931,7.26z"/>
	<rect x="22.056" y="4.4" width="9.566" height="1"/>
	<rect x="22.056" y="1.2" width="9.566" height="1"/>
	<path d="M40.409,0.621c-0.189-0.213-0.459-0.32-0.764-0.32c-0.393,0-0.775,0.101-1.075,0.32c-0.324,0.213-0.747,0.54-1.184,1.045
		L37.828,2.1c0.311-0.341,0.535-0.606,0.734-0.705C38.74,1.265,38.886,1.2,39.07,1.2c0.146,0,0.223,0.034,0.319,0.139
		c0.068,0.091,0.072,0.212,0.102,0.445c0,0.302-0.064,0.674-0.164,1.161h-0.001l-1.87,8.154h2.398l0.062-0.381
		c-0.337-0.031-0.576-0.104-0.68-0.188c-0.115-0.095-0.194-0.271-0.173-0.481c0-0.236,0.012-0.552,0.116-0.9l0.358-1.686
		c0.455,0.292,1.01,0.438,1.716,0.438c0.755,0,1.437-0.268,2.048-0.72c0.612-0.479,1.078-1.141,1.433-1.946
		c0.344-0.817,0.5-1.662,0.517-2.495c0-0.775-0.184-1.389-0.47-1.801c-0.313-0.426-0.775-0.639-1.316-0.639
		c-0.947,0-1.903,0.666-2.858,2.096l-0.092-0.009c0.119-0.321,0.147-0.65,0.178-0.919C40.693,1.116,40.595,0.827,40.409,0.621z
		 M40.576,3.471c0.171-0.38,0.378-0.771,0.714-1.154c0.307-0.392,0.576-0.697,0.844-0.853c0.257-0.177,0.512-0.266,0.78-0.266
		c0.331,0,0.56,0.1,0.725,0.396c0.153,0.266,0.207,0.666,0.23,1.205c0,0.34-0.056,0.673-0.097,1.091
		c-0.065,0.389-0.189,0.758-0.288,1.133c-0.127,0.367-0.288,0.659-0.431,0.967c-0.16,0.277-0.345,0.513-0.539,0.709
		c-0.199,0.195-0.437,0.328-0.633,0.447c-0.222,0.102-0.483,0.152-0.729,0.152c-0.424,0-0.742-0.1-0.897-0.272
		c-0.173-0.183-0.291-0.491-0.259-0.873c0-0.14,0.002-0.291,0.019-0.425c0.013-0.144,0.042-0.354,0.097-0.623V5.104l0.062-0.323
		C40.271,4.288,40.38,3.827,40.576,3.471z"/>
	<path d="M51.561,9.109l0.853-3.691l-0.459-0.117l-0.547,0.392c-0.19-0.121-0.426-0.219-0.627-0.286
		c-0.228-0.07-0.522-0.105-0.791-0.105c-0.282,0-0.579,0.033-0.82,0.145c-0.264,0.096-0.521,0.214-0.748,0.406
		c-0.233,0.174-0.474,0.356-0.645,0.627c-0.196,0.244-0.388,0.484-0.506,0.812c-0.142,0.297-0.266,0.6-0.33,0.955
		c-0.078,0.339-0.125,0.69-0.116,1.058c0,0.618,0.091,1.084,0.367,1.413c0.246,0.323,0.582,0.484,1.043,0.484
		c0.196,0,0.384-0.034,0.566-0.086c0.181-0.058,0.347-0.161,0.537-0.27c0.178-0.123,0.332-0.305,0.539-0.469
		c0.181-0.188,0.355-0.448,0.561-0.687l0.002-0.002l0.08,0.034c-0.053,0.156-0.093,0.315-0.08,0.488
		c0,0.308,0.054,0.537,0.227,0.726c0.15,0.176,0.362,0.264,0.634,0.264c0.15,0,0.284-0.034,0.434-0.062
		c0.14-0.041,0.262-0.12,0.427-0.196c0.146-0.092,0.292-0.239,0.45-0.351c0.155-0.141,0.318-0.339,0.517-0.509
		c-0.061-0.062-0.137-0.157-0.188-0.189c-0.065-0.063-0.146-0.162-0.188-0.194c-0.117,0.124-0.234,0.224-0.314,0.319
		c-0.093,0.088-0.206,0.149-0.255,0.218c-0.078,0.056-0.172,0.077-0.216,0.125c-0.065,0.025-0.155,0.038-0.198,0.038
		c-0.109,0-0.199-0.032-0.253-0.095c-0.059-0.064-0.098-0.198-0.088-0.311c0-0.105-0.01-0.236,0.028-0.362
		C51.477,9.493,51.491,9.316,51.561,9.109z M50.931,7.26c-0.029,0.186-0.074,0.365-0.125,0.623
		c-0.117,0.501-0.318,0.907-0.527,1.303c-0.233,0.368-0.526,0.674-0.848,0.937c-0.132,0.096-0.275,0.156-0.377,0.211
		c-0.118,0.045-0.271,0.067-0.371,0.067c-0.256,0-0.451-0.101-0.558-0.293c-0.115-0.194-0.19-0.497-0.173-0.894
		c0-0.237,0.016-0.509,0.066-0.744c0.044-0.259,0.105-0.515,0.192-0.755c0.085-0.244,0.182-0.482,0.312-0.695
		c0.123-0.22,0.249-0.427,0.422-0.58c0.159-0.166,0.311-0.313,0.527-0.395C49.663,5.948,49.84,5.9,50.094,5.9
		c0.305,0,0.507,0.032,0.67,0.191c0.141,0.129,0.186,0.331,0.212,0.639C50.976,6.896,50.951,7.054,50.931,7.26z"/>
	<rect x="59.156" y="2.8" width="9.565" height="1"/>
	<path d="M76.709,0.621c-0.189-0.213-0.459-0.32-0.764-0.32c-0.393,0-0.775,0.101-1.075,0.32c-0.324,0.213-0.747,0.54-1.184,1.045
		L74.128,2.1c0.311-0.341,0.535-0.606,0.734-0.705C75.04,1.265,75.186,1.2,75.37,1.2c0.146,0,0.223,0.034,0.319,0.139
		c0.068,0.091,0.072,0.212,0.102,0.445c0,0.302-0.064,0.674-0.164,1.161h-0.001l-1.87,8.154h2.398l0.062-0.381
		c-0.337-0.031-0.576-0.104-0.68-0.188c-0.115-0.095-0.194-0.271-0.173-0.481c0-0.236,0.012-0.552,0.116-0.9l0.358-1.686
		c0.455,0.292,1.01,0.438,1.716,0.438c0.754,0,1.437-0.268,2.048-0.72c0.612-0.479,1.078-1.141,1.433-1.946
		c0.344-0.817,0.5-1.662,0.517-2.495c0-0.775-0.184-1.389-0.47-1.801c-0.314-0.426-0.775-0.639-1.316-0.639
		c-0.947,0-1.902,0.666-2.857,2.096l-0.092-0.009c0.119-0.321,0.147-0.65,0.178-0.919C76.993,1.116,76.895,0.827,76.709,0.621z
		 M76.876,3.471c0.171-0.38,0.378-0.771,0.714-1.154c0.307-0.392,0.576-0.697,0.844-0.853c0.257-0.177,0.512-0.266,0.78-0.266
		c0.331,0,0.56,0.1,0.725,0.396c0.153,0.266,0.207,0.666,0.23,1.205c0,0.34-0.056,0.673-0.097,1.091
		c-0.065,0.389-0.189,0.758-0.288,1.133c-0.127,0.367-0.288,0.659-0.431,0.967c-0.16,0.277-0.345,0.513-0.539,0.709
		c-0.199,0.195-0.437,0.328-0.633,0.447c-0.222,0.102-0.482,0.152-0.729,0.152c-0.424,0-0.742-0.1-0.897-0.272
		c-0.173-0.183-0.291-0.491-0.259-0.873c0-0.14,0.002-0.291,0.019-0.425c0.013-0.144,0.042-0.354,0.097-0.623V5.104l0.062-0.323
		C76.571,4.288,76.68,3.827,76.876,3.471z"/>
	<path d="M84.276,8.6c2.584,0,3.859-0.699,3.877-2.069c0-0.394-0.152-0.703-0.377-0.908c-0.25-0.213-0.642-0.32-1.1-0.32
		c-0.53,0-1.021,0.1-1.466,0.331c-0.447,0.221-0.85,0.51-1.145,0.922c-0.159,0.193-0.314,0.375-0.414,0.623
		c-0.117,0.221-0.234,0.428-0.294,0.682c-0.08,0.231-0.166,0.445-0.177,0.697c-0.037,0.233-0.064,0.447-0.056,0.672
		c0,0.308,0.025,0.564,0.122,0.827c0.081,0.244,0.199,0.425,0.356,0.622c0.157,0.17,0.323,0.277,0.578,0.39
		c0.229,0.088,0.467,0.133,0.784,0.133c0.502,0,0.947-0.133,1.408-0.319c0.436-0.213,0.845-0.541,1.311-0.953h0.002l-0.425-0.459
		c-0.177,0.182-0.363,0.325-0.509,0.467c-0.162,0.131-0.346,0.219-0.484,0.32c-0.161,0.083-0.35,0.131-0.491,0.184
		c-0.166,0.039-0.358,0.06-0.527,0.06c-0.354,0-0.637-0.101-0.784-0.286c-0.168-0.189-0.255-0.495-0.252-0.909
		c0-0.137-0.003-0.271,0.017-0.381C84.242,8.807,84.232,8.699,84.276,8.6z M84.389,7.999c0.099-0.319,0.203-0.619,0.369-0.867
		c0.147-0.259,0.294-0.503,0.489-0.662c0.18-0.182,0.364-0.339,0.573-0.422C86.022,5.95,86.216,5.9,86.434,5.9
		c0.222,0,0.378,0.033,0.509,0.193c0.118,0.128,0.171,0.296,0.177,0.534c0,0.198-0.073,0.354-0.156,0.545
		c-0.105,0.166-0.292,0.308-0.488,0.431c-0.221,0.12-0.512,0.187-0.85,0.285C85.281,7.959,84.839,7.996,84.388,8L84.389,7.999z"/>
	<path d="M125.142,4.63l0.434-2.841c0.01-0.057-0.014-0.12,0.023-0.188c0.005-0.067,0.006-0.169,0.008-0.212
		c0-0.126-0.035-0.256-0.039-0.381c-0.025-0.129-0.081-0.265-0.144-0.352c-0.07-0.107-0.178-0.227-0.291-0.259
		c-0.124-0.065-0.301-0.099-0.481-0.099c-0.233,0-0.483,0.034-0.683,0.122c-0.224,0.08-0.446,0.173-0.638,0.32
		c-0.201,0.133-0.41,0.252-0.573,0.443c-0.182,0.163-0.367,0.302-0.513,0.495l0.372,0.435c0.094-0.092,0.188-0.197,0.303-0.298
		c0.108-0.106,0.201-0.212,0.337-0.298c0.116-0.095,0.231-0.2,0.345-0.23c0.115-0.059,0.214-0.089,0.319-0.089
		c0.124,0,0.184,0.032,0.264,0.155c0.052,0.104,0.057,0.219,0.078,0.396c0,0.052-0.021,0.101-0.02,0.245
		c-0.012,0.111-0.06,0.212-0.05,0.353l-0.327,2.153c-0.056,0.342-0.112,0.674-0.139,1.02c-0.037,0.336-0.079,0.629-0.055,0.946
		c0,0.224,0.009,0.4,0.039,0.614c0.026,0.188,0.055,0.326,0.131,0.486c0.062,0.138,0.115,0.215,0.245,0.318
		C124.188,7.962,124.293,8,124.464,8l0.005-0.003c0.336,0,0.648-0.101,1.012-0.205c0.34-0.138,0.648-0.336,1.002-0.555
		c0.329-0.232,0.637-0.513,0.952-0.817c0.305-0.312,0.562-0.652,0.861-0.998c0.269-0.354,0.506-0.729,0.737-1.092
		c0.223-0.375,0.413-0.752,0.575-1.098c0.16-0.355,0.26-0.701,0.372-1.014c0.088-0.32,0.13-0.628,0.133-0.853
		c0-0.325-0.102-0.614-0.248-0.778c-0.166-0.193-0.453-0.291-0.808-0.291c-0.191,0-0.408,0.033-0.589,0.117
		c-0.203,0.079-0.424,0.173-0.588,0.312c-0.189,0.131-0.381,0.254-0.536,0.453c-0.168,0.172-0.315,0.344-0.438,0.538l0.442,0.396
		c0.197-0.273,0.382-0.512,0.57-0.662c0.184-0.169,0.38-0.253,0.603-0.253c0.171,0,0.265,0.032,0.377,0.153
		c0.08,0.101,0.115,0.217,0.12,0.433c0,0.432-0.071,0.836-0.214,1.288c-0.143,0.428-0.343,0.803-0.556,1.219
		c-0.228,0.384-0.509,0.72-0.769,1.073c-0.284,0.331-0.576,0.608-0.853,0.857c-0.285,0.241-0.559,0.4-0.816,0.57
		c-0.259,0.137-0.494,0.206-0.644,0.206c-0.072,0-0.126-0.1-0.147-0.203c-0.026-0.136-0.065-0.335-0.039-0.534
		c0-0.219,0.008-0.474,0.045-0.756C125.056,5.22,125.082,4.917,125.142,4.63z"/>
	<path d="M132.418,5.085l-1.359,6.003c0.068,0.022,0.115,0.027,0.214,0.059c0.076,0.017,0.119,0.034,0.216,0.054
		c0.087-0.058,0.157-0.123,0.277-0.181c0.099-0.064,0.178-0.138,0.291-0.177c0.218,0.128,0.433,0.213,0.673,0.273
		c0.23,0.055,0.454,0.083,0.753,0.083c0.423,0,0.796-0.133,1.203-0.314c0.38-0.21,0.685-0.506,1-0.861
		c0.286-0.363,0.491-0.805,0.681-1.269c0.168-0.483,0.246-1.002,0.252-1.542c0-0.625-0.14-1.13-0.363-1.425
		c-0.24-0.325-0.592-0.487-1.028-0.487c-0.178,0-0.354,0-0.517,0.08c-0.166,0.053-0.336,0.125-0.5,0.241
		c-0.168,0.106-0.371,0.233-0.516,0.414c-0.177,0.168-0.375,0.356-0.552,0.592l-0.08-0.039l0.792-3.186h-0.408l-1.558,0.1
		l-0.084,0.4c0.144,0.004,0.242,0.004,0.356,0.027c0.095,0.016,0.141,0.038,0.227,0.07c0.057,0.032,0.095,0.065,0.119,0.127
		c0.022,0.052,0.02,0.11,0.034,0.185c0,0.09-0.013,0.186-0.031,0.313C132.489,4.744,132.453,4.869,132.418,5.085z M132.557,9.236
		c0.038-0.194,0.052-0.406,0.102-0.592h0.001c0.099-0.412,0.213-0.793,0.4-1.094c0.167-0.318,0.347-0.602,0.548-0.8
		c0.199-0.215,0.396-0.399,0.603-0.487c0.203-0.108,0.367-0.164,0.562-0.164c0.252,0,0.428,0.066,0.552,0.295
		c0.115,0.197,0.14,0.467,0.173,0.892c0,0.401-0.066,0.771-0.159,1.192c-0.105,0.394-0.251,0.733-0.439,1.063
		c-0.187,0.315-0.42,0.569-0.672,0.766c-0.261,0.195-0.57,0.292-0.855,0.292c-0.306,0-0.53-0.065-0.666-0.186
		c-0.137-0.125-0.207-0.363-0.206-0.639C132.501,9.609,132.5,9.417,132.557,9.236z"/>
	<rect x="144.056" y="4.4" width="9.566" height="1"/>
	<rect x="144.056" y="1.2" width="9.566" height="1"/>
	<path d="M162.409,0.621c-0.189-0.213-0.459-0.32-0.764-0.32c-0.393,0-0.775,0.101-1.075,0.32c-0.324,0.213-0.747,0.54-1.184,1.045
		l0.442,0.434c0.311-0.341,0.535-0.606,0.734-0.705c0.178-0.13,0.324-0.194,0.508-0.194c0.146,0,0.223,0.034,0.319,0.139
		c0.068,0.091,0.072,0.212,0.102,0.445c0,0.302-0.064,0.674-0.164,1.161h-0.001l-1.87,8.154h2.398l0.062-0.381
		c-0.337-0.031-0.576-0.104-0.68-0.188c-0.115-0.095-0.194-0.271-0.173-0.481c0-0.236,0.012-0.552,0.116-0.9l0.358-1.686
		c0.455,0.292,1.01,0.438,1.716,0.438c0.755,0,1.437-0.268,2.048-0.72c0.612-0.479,1.078-1.141,1.434-1.946
		c0.344-0.817,0.5-1.662,0.517-2.495c0-0.775-0.185-1.389-0.47-1.801c-0.314-0.426-0.775-0.639-1.316-0.639
		c-0.947,0-1.903,0.666-2.858,2.096l-0.092-0.009c0.119-0.321,0.147-0.65,0.178-0.919C162.693,1.116,162.595,0.827,162.409,0.621z
		 M162.576,3.471c0.171-0.38,0.378-0.771,0.714-1.154c0.307-0.392,0.576-0.697,0.844-0.853c0.257-0.177,0.512-0.266,0.78-0.266
		c0.331,0,0.56,0.1,0.725,0.396c0.153,0.266,0.207,0.666,0.23,1.205c0,0.34-0.056,0.673-0.097,1.091
		c-0.065,0.389-0.189,0.758-0.288,1.133c-0.127,0.367-0.288,0.659-0.431,0.967c-0.16,0.277-0.345,0.513-0.539,0.709
		c-0.199,0.195-0.437,0.328-0.633,0.447c-0.222,0.102-0.483,0.152-0.73,0.152c-0.424,0-0.742-0.1-0.897-0.272
		c-0.173-0.183-0.291-0.491-0.259-0.873c0-0.14,0.002-0.291,0.019-0.425c0.013-0.144,0.042-0.354,0.097-0.623V5.104l0.062-0.323
		C162.271,4.288,162.38,3.827,162.576,3.471z"/>
	<path d="M170.118,5.085l-1.359,6.003c0.068,0.022,0.115,0.027,0.214,0.059c0.076,0.017,0.119,0.034,0.217,0.054
		c0.086-0.058,0.156-0.123,0.276-0.181c0.099-0.064,0.179-0.138,0.291-0.177c0.218,0.128,0.433,0.213,0.673,0.273
		c0.23,0.055,0.454,0.083,0.754,0.083c0.422,0,0.795-0.133,1.203-0.314c0.379-0.21,0.684-0.506,1-0.861
		c0.285-0.363,0.49-0.805,0.68-1.269c0.168-0.483,0.246-1.002,0.252-1.542c0-0.625-0.139-1.13-0.362-1.425
		c-0.24-0.325-0.593-0.487-1.028-0.487c-0.178,0-0.354,0-0.517,0.08c-0.166,0.053-0.336,0.125-0.5,0.241
		c-0.168,0.106-0.371,0.233-0.517,0.414c-0.177,0.168-0.375,0.356-0.552,0.592l-0.079-0.039l0.791-3.186h-0.408l-1.558,0.1
		l-0.084,0.4c0.144,0.004,0.242,0.004,0.356,0.027c0.095,0.016,0.141,0.038,0.227,0.07c0.057,0.032,0.096,0.065,0.119,0.127
		c0.021,0.052,0.02,0.11,0.034,0.185c0,0.09-0.013,0.186-0.031,0.313C170.189,4.744,170.152,4.869,170.118,5.085z M170.257,9.236
		c0.038-0.194,0.052-0.406,0.103-0.592c0.1-0.412,0.214-0.793,0.4-1.094c0.167-0.318,0.348-0.602,0.549-0.8
		c0.198-0.215,0.396-0.399,0.603-0.487c0.202-0.108,0.366-0.164,0.562-0.164c0.252,0,0.428,0.066,0.553,0.295
		c0.115,0.197,0.14,0.467,0.173,0.892c0,0.401-0.066,0.771-0.159,1.192c-0.105,0.394-0.251,0.733-0.439,1.063
		c-0.187,0.315-0.42,0.569-0.672,0.766c-0.261,0.195-0.57,0.292-0.854,0.292c-0.306,0-0.53-0.065-0.666-0.186
		c-0.138-0.125-0.207-0.363-0.206-0.639C170.201,9.609,170.2,9.417,170.257,9.236z"/>
	<rect x="180.855" y="2.8" width="9.566" height="1"/>
	<path d="M198.409,0.621c-0.188-0.213-0.459-0.32-0.765-0.32c-0.393,0-0.774,0.101-1.074,0.32c-0.324,0.213-0.747,0.54-1.184,1.045
		l0.441,0.434c0.311-0.341,0.535-0.606,0.734-0.705c0.178-0.13,0.324-0.194,0.508-0.194c0.146,0,0.223,0.034,0.318,0.139
		c0.068,0.091,0.072,0.212,0.103,0.445c0,0.302-0.064,0.674-0.164,1.161h-0.001l-1.87,8.154h2.397l0.062-0.381
		c-0.337-0.031-0.576-0.104-0.68-0.188c-0.115-0.095-0.194-0.271-0.174-0.481c0-0.236,0.013-0.552,0.117-0.9l0.357-1.686
		c0.455,0.292,1.01,0.438,1.716,0.438c0.755,0,1.437-0.268,2.048-0.72c0.612-0.479,1.078-1.141,1.434-1.946
		c0.344-0.817,0.5-1.662,0.517-2.495c0-0.775-0.185-1.389-0.47-1.801c-0.314-0.426-0.775-0.639-1.316-0.639
		c-0.947,0-1.902,0.666-2.857,2.096l-0.092-0.009c0.118-0.321,0.146-0.65,0.178-0.919C198.693,1.116,198.596,0.827,198.409,0.621z
		 M198.576,3.471c0.171-0.38,0.378-0.771,0.714-1.154c0.308-0.392,0.576-0.697,0.844-0.853c0.257-0.177,0.513-0.266,0.78-0.266
		c0.331,0,0.561,0.1,0.725,0.396c0.153,0.266,0.207,0.666,0.23,1.205c0,0.34-0.057,0.673-0.098,1.091
		c-0.064,0.389-0.188,0.758-0.287,1.133c-0.127,0.367-0.289,0.659-0.432,0.967c-0.16,0.277-0.345,0.513-0.539,0.709
		c-0.199,0.195-0.437,0.328-0.633,0.447c-0.222,0.102-0.482,0.152-0.73,0.152c-0.424,0-0.741-0.1-0.896-0.272
		c-0.173-0.183-0.291-0.491-0.259-0.873c0-0.14,0.002-0.291,0.019-0.425c0.014-0.144,0.043-0.354,0.098-0.623V5.104l0.062-0.323
		C198.271,4.288,198.38,3.827,198.576,3.471z"/>
	<path d="M205.977,8.6c2.584,0,3.859-0.699,3.877-2.069c0-0.394-0.151-0.703-0.377-0.908c-0.25-0.213-0.642-0.32-1.1-0.32
		c-0.529,0-1.021,0.1-1.466,0.331c-0.447,0.221-0.851,0.51-1.146,0.922c-0.158,0.193-0.313,0.375-0.414,0.623
		c-0.117,0.221-0.233,0.428-0.293,0.682c-0.08,0.231-0.166,0.445-0.178,0.697c-0.037,0.233-0.064,0.447-0.056,0.672
		c0,0.308,0.024,0.564,0.122,0.827c0.08,0.244,0.199,0.425,0.355,0.622c0.157,0.17,0.323,0.277,0.578,0.39
		c0.229,0.088,0.467,0.133,0.784,0.133c0.502,0,0.946-0.133,1.408-0.319c0.436-0.213,0.845-0.541,1.311-0.953h0.003l-0.426-0.459
		c-0.177,0.182-0.363,0.325-0.509,0.467c-0.162,0.131-0.347,0.219-0.484,0.32c-0.161,0.083-0.35,0.131-0.491,0.184
		c-0.166,0.039-0.357,0.06-0.526,0.06c-0.354,0-0.638-0.101-0.784-0.286c-0.168-0.189-0.256-0.495-0.252-0.909
		c0-0.137-0.004-0.271,0.018-0.381C205.941,8.807,205.932,8.699,205.977,8.6z M206.089,7.999c0.099-0.319,0.203-0.619,0.369-0.867
		c0.147-0.259,0.294-0.503,0.489-0.662c0.18-0.182,0.363-0.339,0.572-0.422c0.203-0.098,0.396-0.147,0.614-0.147
		c0.222,0,0.378,0.033,0.509,0.193c0.119,0.128,0.172,0.296,0.178,0.534c0,0.198-0.073,0.354-0.156,0.545
		c-0.105,0.166-0.292,0.308-0.488,0.431c-0.221,0.12-0.512,0.187-0.85,0.285C206.98,7.959,206.539,7.996,206.089,7.999
		L206.089,7.999z"/>
	<path d="M246.842,4.63l0.434-2.841c0.011-0.057-0.014-0.12,0.023-0.188c0.006-0.067,0.006-0.169,0.008-0.212
		c0-0.126-0.035-0.256-0.039-0.381c-0.024-0.129-0.08-0.265-0.144-0.352c-0.069-0.107-0.179-0.227-0.291-0.259
		c-0.124-0.065-0.301-0.099-0.481-0.099c-0.232,0-0.482,0.034-0.683,0.122c-0.224,0.08-0.446,0.173-0.638,0.32
		c-0.201,0.133-0.41,0.252-0.573,0.443c-0.183,0.163-0.367,0.302-0.513,0.495l0.371,0.435c0.095-0.092,0.188-0.197,0.304-0.298
		c0.108-0.106,0.2-0.212,0.337-0.298c0.116-0.095,0.23-0.2,0.345-0.23c0.115-0.059,0.214-0.089,0.319-0.089
		c0.124,0,0.184,0.032,0.264,0.155c0.053,0.104,0.057,0.219,0.078,0.396c0,0.052-0.021,0.101-0.02,0.245
		c-0.012,0.111-0.061,0.212-0.051,0.353l-0.326,2.153c-0.057,0.342-0.112,0.674-0.14,1.02c-0.036,0.336-0.079,0.629-0.055,0.946
		c0,0.224,0.009,0.4,0.039,0.614c0.026,0.188,0.055,0.326,0.131,0.486c0.062,0.138,0.115,0.215,0.245,0.318
		C245.889,7.962,245.993,8,246.164,8l0.005-0.003c0.336,0,0.647-0.101,1.013-0.205c0.34-0.138,0.647-0.336,1.002-0.555
		c0.328-0.232,0.637-0.513,0.951-0.817c0.305-0.312,0.562-0.652,0.861-0.998c0.27-0.354,0.506-0.729,0.736-1.092
		c0.224-0.375,0.414-0.752,0.576-1.098c0.159-0.355,0.26-0.701,0.371-1.014c0.088-0.32,0.131-0.628,0.133-0.853
		c0-0.325-0.102-0.614-0.248-0.778c-0.166-0.193-0.453-0.291-0.808-0.291c-0.19,0-0.407,0.033-0.589,0.117
		c-0.203,0.079-0.424,0.173-0.588,0.312c-0.189,0.131-0.381,0.254-0.536,0.453c-0.168,0.172-0.315,0.344-0.438,0.538l0.442,0.396
		c0.197-0.273,0.382-0.512,0.57-0.662c0.184-0.169,0.38-0.253,0.603-0.253c0.172,0,0.266,0.032,0.377,0.153
		c0.08,0.101,0.115,0.217,0.12,0.433c0,0.432-0.071,0.836-0.214,1.288c-0.143,0.428-0.343,0.803-0.556,1.219
		c-0.228,0.384-0.509,0.72-0.769,1.073c-0.285,0.331-0.576,0.608-0.854,0.857c-0.285,0.241-0.559,0.4-0.816,0.57
		c-0.259,0.137-0.494,0.206-0.644,0.206c-0.072,0-0.126-0.1-0.147-0.203c-0.025-0.136-0.064-0.335-0.039-0.534
		c0-0.219,0.008-0.474,0.045-0.756C246.756,5.22,246.782,4.917,246.842,4.63z"/>
	<path d="M257.477,6.901l0.315-1.414c-0.253-0.062-0.517-0.124-0.733-0.14c-0.235-0.029-0.521-0.045-0.766-0.045
		c-0.329,0-0.66,0.033-0.941,0.143c-0.299,0.093-0.582,0.212-0.834,0.397c-0.256,0.172-0.494,0.358-0.694,0.616
		c-0.207,0.238-0.415,0.486-0.536,0.795c-0.148,0.291-0.278,0.574-0.342,0.934c-0.08,0.332-0.129,0.668-0.119,1.031
		c0,0.635,0.125,1.096,0.467,1.467c0.311,0.344,0.747,0.515,1.346,0.515c0.469,0,0.889-0.101,1.313-0.3
		c0.407-0.2,0.791-0.534,1.223-0.916c-0.071-0.075-0.164-0.17-0.208-0.224c-0.064-0.073-0.154-0.161-0.206-0.223
		c-0.184,0.181-0.37,0.302-0.506,0.456c-0.153,0.122-0.304,0.191-0.444,0.297c-0.144,0.075-0.313,0.112-0.441,0.161
		c-0.151,0.032-0.342,0.048-0.494,0.048c-0.316,0-0.575-0.133-0.714-0.314c-0.159-0.209-0.246-0.539-0.238-0.918
		c0-0.27,0.026-0.559,0.077-0.809c0.051-0.27,0.117-0.557,0.217-0.781c0.096-0.25,0.189-0.509,0.342-0.697
		c0.131-0.218,0.246-0.41,0.438-0.566c0.16-0.161,0.328-0.299,0.521-0.378c0.187-0.091,0.381-0.136,0.586-0.136
		c0.129,0.004,0.228,0.004,0.326,0.053c0.09,0.031,0.146,0.08,0.215,0.159c0.056,0.075,0.074,0.17,0.119,0.305
		c0.025,0.128,0.037,0.289,0.043,0.483v0.001H257.477z"/>
	<rect x="264.756" y="1.2" width="9.566" height="1"/>
	<rect x="264.756" y="4.4" width="9.566" height="1"/>
	<path d="M283.109,0.621c-0.189-0.213-0.459-0.32-0.764-0.32c-0.394,0-0.775,0.101-1.076,0.32c-0.324,0.213-0.746,0.54-1.184,1.045
		l0.441,0.434c0.312-0.341,0.535-0.606,0.734-0.705c0.178-0.13,0.324-0.194,0.508-0.194c0.146,0,0.224,0.034,0.319,0.139
		c0.068,0.091,0.072,0.212,0.103,0.445c0,0.302-0.064,0.674-0.164,1.161h-0.002l-1.869,8.154h2.398l0.062-0.381
		c-0.337-0.031-0.576-0.104-0.681-0.188c-0.115-0.095-0.193-0.271-0.172-0.481c0-0.236,0.012-0.552,0.115-0.9l0.357-1.686
		c0.455,0.292,1.011,0.438,1.717,0.438c0.755,0,1.438-0.268,2.048-0.72c0.612-0.479,1.078-1.141,1.433-1.946
		c0.344-0.817,0.5-1.662,0.518-2.495c0-0.775-0.184-1.389-0.471-1.801c-0.313-0.426-0.774-0.639-1.315-0.639
		c-0.947,0-1.903,0.666-2.858,2.096l-0.092-0.009c0.119-0.321,0.146-0.65,0.178-0.919C283.393,1.116,283.295,0.827,283.109,0.621z
		 M283.275,3.471c0.172-0.38,0.379-0.771,0.715-1.154c0.307-0.392,0.576-0.697,0.844-0.853c0.257-0.177,0.512-0.266,0.78-0.266
		c0.331,0,0.56,0.1,0.725,0.396c0.153,0.266,0.207,0.666,0.229,1.205c0,0.34-0.055,0.673-0.096,1.091
		c-0.065,0.389-0.189,0.758-0.289,1.133c-0.127,0.367-0.287,0.659-0.431,0.967c-0.16,0.277-0.345,0.513-0.539,0.709
		c-0.198,0.195-0.437,0.328-0.633,0.447c-0.222,0.102-0.483,0.152-0.729,0.152c-0.425,0-0.742-0.1-0.897-0.272
		c-0.173-0.183-0.291-0.491-0.259-0.873c0-0.14,0.002-0.291,0.019-0.425c0.013-0.144,0.042-0.354,0.097-0.623V5.104l0.062-0.323
		C282.971,4.288,283.08,3.827,283.275,3.471z"/>
	<path d="M290.917,7.678c0.095-0.25,0.188-0.509,0.341-0.697c0.133-0.218,0.246-0.41,0.439-0.566c0.16-0.161,0.328-0.299,0.52-0.378
		c0.188-0.091,0.381-0.136,0.588-0.136c0.127,0.004,0.227,0.004,0.324,0.053c0.09,0.031,0.146,0.08,0.217,0.159
		c0.055,0.075,0.073,0.17,0.118,0.305c0.025,0.128,0.037,0.289,0.042,0.483l0.001,0.001h0.669l0.316-1.414
		c-0.253-0.062-0.516-0.124-0.733-0.14c-0.235-0.029-0.522-0.045-0.766-0.045c-0.329,0-0.66,0.033-0.942,0.143
		c-0.298,0.093-0.58,0.212-0.833,0.397c-0.256,0.172-0.495,0.358-0.694,0.616c-0.207,0.238-0.416,0.486-0.537,0.795
		c-0.148,0.291-0.277,0.574-0.342,0.934c-0.08,0.332-0.127,0.668-0.119,1.031c0,0.635,0.125,1.096,0.468,1.467
		c0.312,0.344,0.747,0.515,1.345,0.515c0.469,0,0.889-0.101,1.314-0.3c0.408-0.2,0.791-0.534,1.223-0.916
		c-0.072-0.075-0.164-0.17-0.208-0.224c-0.065-0.073-0.153-0.161-0.206-0.223c-0.184,0.181-0.371,0.302-0.506,0.456
		c-0.153,0.122-0.305,0.191-0.445,0.297c-0.143,0.075-0.312,0.112-0.441,0.161c-0.15,0.032-0.34,0.048-0.493,0.048
		c-0.317,0-0.575-0.133-0.714-0.314c-0.159-0.209-0.246-0.539-0.238-0.918c0-0.27,0.025-0.559,0.077-0.809
		C290.751,8.189,290.816,7.902,290.917,7.678z"/>
	<rect x="300.557" y="2.8" width="9.565" height="1"/>
	<path d="M318.009,0.621c-0.188-0.213-0.459-0.32-0.764-0.32c-0.394,0-0.775,0.101-1.075,0.32c-0.324,0.213-0.747,0.54-1.184,1.045
		l0.441,0.434c0.312-0.341,0.535-0.606,0.734-0.705c0.178-0.13,0.324-0.194,0.508-0.194c0.146,0,0.223,0.034,0.319,0.139
		c0.067,0.091,0.071,0.212,0.102,0.445c0,0.302-0.063,0.674-0.164,1.161h-0.001l-1.87,8.154h2.398l0.062-0.381
		c-0.337-0.031-0.575-0.104-0.68-0.188c-0.115-0.095-0.194-0.271-0.173-0.481c0-0.236,0.012-0.552,0.116-0.9l0.357-1.686
		c0.455,0.292,1.011,0.438,1.716,0.438c0.756,0,1.438-0.268,2.049-0.72c0.611-0.479,1.077-1.141,1.433-1.946
		c0.344-0.817,0.5-1.662,0.517-2.495c0-0.775-0.184-1.389-0.47-1.801c-0.313-0.426-0.774-0.639-1.315-0.639
		c-0.947,0-1.903,0.666-2.858,2.096l-0.092-0.009c0.119-0.321,0.146-0.65,0.178-0.919C318.293,1.116,318.195,0.827,318.009,0.621z
		 M318.176,3.471c0.171-0.38,0.378-0.771,0.714-1.154c0.308-0.392,0.576-0.697,0.845-0.853c0.257-0.177,0.512-0.266,0.779-0.266
		c0.331,0,0.561,0.1,0.726,0.396c0.152,0.266,0.207,0.666,0.229,1.205c0,0.34-0.056,0.673-0.097,1.091
		c-0.065,0.389-0.189,0.758-0.288,1.133c-0.127,0.367-0.288,0.659-0.431,0.967c-0.16,0.277-0.346,0.513-0.539,0.709
		c-0.199,0.195-0.438,0.328-0.633,0.447c-0.223,0.102-0.483,0.152-0.73,0.152c-0.424,0-0.742-0.1-0.897-0.272
		c-0.173-0.183-0.291-0.491-0.259-0.873c0-0.14,0.002-0.291,0.02-0.425c0.013-0.144,0.042-0.354,0.097-0.623V5.104l0.062-0.323
		C317.871,4.288,317.98,3.827,318.176,3.471z"/>
	<path d="M325.576,8.6c2.585,0,3.859-0.699,3.878-2.069c0-0.394-0.152-0.703-0.377-0.908c-0.25-0.213-0.643-0.32-1.101-0.32
		c-0.529,0-1.021,0.1-1.466,0.331c-0.446,0.221-0.85,0.51-1.145,0.922c-0.159,0.193-0.314,0.375-0.414,0.623
		c-0.117,0.221-0.234,0.428-0.294,0.682c-0.08,0.231-0.166,0.445-0.177,0.697c-0.037,0.233-0.065,0.447-0.057,0.672
		c0,0.308,0.025,0.564,0.122,0.827c0.081,0.244,0.199,0.425,0.356,0.622c0.156,0.17,0.322,0.277,0.578,0.39
		c0.228,0.088,0.467,0.133,0.783,0.133c0.502,0,0.947-0.133,1.408-0.319c0.437-0.213,0.845-0.541,1.312-0.953h0.002l-0.426-0.459
		c-0.177,0.182-0.362,0.325-0.509,0.467c-0.162,0.131-0.346,0.219-0.483,0.32c-0.161,0.083-0.351,0.131-0.491,0.184
		c-0.166,0.039-0.358,0.06-0.527,0.06c-0.354,0-0.637-0.101-0.784-0.286c-0.168-0.189-0.256-0.495-0.252-0.909
		c0-0.137-0.004-0.271,0.018-0.381C325.542,8.807,325.532,8.699,325.576,8.6z M325.689,7.999c0.099-0.319,0.202-0.619,0.368-0.867
		c0.147-0.259,0.294-0.503,0.489-0.662c0.18-0.182,0.364-0.339,0.573-0.422c0.202-0.098,0.396-0.147,0.614-0.147
		c0.222,0,0.378,0.033,0.509,0.193c0.118,0.128,0.171,0.296,0.177,0.534c0,0.198-0.073,0.354-0.156,0.545
		c-0.104,0.166-0.292,0.308-0.487,0.431c-0.222,0.12-0.513,0.187-0.851,0.285c-0.345,0.07-0.787,0.107-1.238,0.111L325.689,7.999z"
		/>
</g>
</svg>
