<?xml version="1.0" encoding="utf-8"?>
<!-- Generator: Adobe Illustrator 15.1.0, SVG Export Plug-In . SVG Version: 6.00 Build 0)  -->
<!DOCTYPE svg PUBLIC "-//W3C//DTD SVG 1.1 Tiny//EN" "http://www.w3.org/Graphics/SVG/1.1/DTD/svg11-tiny.dtd">
<svg version="1.1" baseProfile="tiny" id="Layer_1" xmlns="http://www.w3.org/2000/svg" xmlns:xlink="http://www.w3.org/1999/xlink"
	 x="0px" y="0px" width="100px" height="15px" viewBox="0 0 100 15" overflow="inherit" xml:space="preserve">
<g>
	<path fill="none" d="M4.461,4.6c-0.548,0-1.002,0.213-1.422,0.637C2.607,5.648,2.291,6.232,2.05,6.952
		C1.793,7.655,1.689,8.389,1.689,9.104c-0.03,0.534,0.073,0.937,0.22,1.2c0.145,0.265,0.395,0.397,0.742,0.397
		c0.143,0,0.322-0.034,0.488-0.104c0.152-0.102,0.338-0.182,0.516-0.336c0.16-0.174,0.355-0.341,0.528-0.562
		C4.33,9.444,4.517,9.255,4.662,9.032c0.124-0.234,0.279-0.489,0.403-0.795c0.103-0.318,0.231-0.675,0.319-1.106L5.454,6.8
		l0.001-0.002c0.06-0.403,0.117-0.721,0.117-1.05C5.548,5.331,5.486,5.055,5.316,4.873C5.14,4.666,4.86,4.6,4.461,4.6z"/>
	<path fill="none" d="M89.494,9.5c-0.254,0-0.432,0.048-0.623,0.145c-0.216,0.082-0.368,0.229-0.527,0.396
		c-0.173,0.153-0.299,0.36-0.422,0.58c-0.13,0.212-0.227,0.451-0.312,0.694c-0.087,0.24-0.148,0.496-0.192,0.756
		c-0.05,0.234-0.066,0.506-0.066,0.744c-0.016,0.396,0.059,0.698,0.174,0.894C87.632,13.9,87.827,14,88.083,14
		c0.1,0,0.253-0.021,0.37-0.067c0.102-0.055,0.246-0.114,0.378-0.211c0.322-0.263,0.615-0.567,0.848-0.936
		c0.208-0.396,0.41-0.802,0.527-1.304c0.051-0.258,0.095-0.438,0.125-0.622c0.021-0.206,0.045-0.363,0.045-0.53
		c-0.026-0.307-0.071-0.509-0.212-0.638C90.001,9.533,89.799,9.5,89.494,9.5z"/>
	<path d="M6.417,2.621l-0.403,1.8c-0.28-0.156-0.585-0.296-0.82-0.327C4.928,4.031,4.63,3.999,4.322,3.999
		c-0.75,0-1.458,0.233-2.042,0.705c-0.611,0.468-1.104,1.1-1.441,1.923C0.49,7.439,0.311,8.264,0.316,9.168
		c0,0.77,0.128,1.347,0.469,1.794C1.098,11.387,1.537,11.6,2.11,11.6c0.496,0,0.959-0.166,1.412-0.5
		c0.444-0.335,0.903-0.867,1.412-1.58l0.001-0.002l0.102,0.017c-0.12,0.319-0.199,0.608-0.18,0.905c0,0.35,0.081,0.603,0.287,0.842
		c0.192,0.212,0.444,0.316,0.769,0.316c0.378,0,0.707-0.133,1.056-0.308c0.326-0.206,0.703-0.571,1.203-1.058L7.73,9.798
		c-0.321,0.351-0.597,0.584-0.745,0.714c-0.176,0.124-0.371,0.187-0.498,0.187c-0.145,0-0.274-0.066-0.319-0.14
		c-0.067-0.092-0.123-0.246-0.1-0.447c0-0.258,0.043-0.662,0.17-1.146l1.933-8.567H7.714L5.766,0.499L5.672,0.898
		c0.275,0.016,0.45,0.016,0.57,0.078C6.348,1.014,6.4,1.054,6.487,1.152c0.057,0.08,0.061,0.195,0.086,0.354
		c0,0.156-0.025,0.32-0.047,0.547C6.495,2.261,6.453,2.443,6.417,2.621z M5.455,6.798L5.454,6.8l-0.07,0.331
		C5.296,7.562,5.168,7.919,5.065,8.237C4.941,8.543,4.786,8.798,4.662,9.032C4.517,9.255,4.33,9.444,4.184,9.699
		c-0.173,0.222-0.368,0.389-0.528,0.562c-0.178,0.154-0.364,0.234-0.516,0.336c-0.166,0.069-0.346,0.104-0.488,0.104
		c-0.348,0-0.598-0.133-0.742-0.397c-0.147-0.264-0.25-0.666-0.22-1.2c0-0.715,0.104-1.448,0.361-2.151
		c0.241-0.72,0.557-1.304,0.989-1.716C3.459,4.812,3.913,4.6,4.461,4.6c0.399,0,0.679,0.066,0.855,0.273
		c0.17,0.182,0.232,0.458,0.256,0.875C5.572,6.077,5.515,6.395,5.455,6.798z"/>
	<rect x="14.256" y="8.1" width="9.566" height="1"/>
	<rect x="14.256" y="4.9" width="9.566" height="1"/>
	<rect x="30.656" y="6.5" width="9.565" height="1"/>
	<path d="M44.973,12.046C44.391,10.874,44.1,9.359,44.1,7.577V7.575c0-1.746,0.266-3.205,0.873-4.351
		c0.582-1.153,1.458-1.963,2.691-2.328l-0.211-0.598c-1.51,0.398-2.695,1.232-3.459,2.577C43.198,4.196,42.8,5.771,42.8,7.653
		c0,1.87,0.366,3.452,1.189,4.777c0.793,1.315,1.93,2.171,3.464,2.569l0.187-0.598C46.444,14.004,45.531,13.204,44.973,12.046z"/>
	<path d="M51.325,9.205c0.03-0.285,0.057-0.588,0.117-0.875l0.434-2.841c0.01-0.058-0.014-0.12,0.022-0.188
		c0.006-0.067,0.007-0.169,0.009-0.212c0-0.126-0.035-0.256-0.039-0.381c-0.025-0.129-0.081-0.265-0.145-0.352
		c-0.069-0.107-0.178-0.227-0.291-0.26C51.309,4.033,51.132,4,50.952,4c-0.233,0-0.483,0.034-0.683,0.122
		c-0.224,0.08-0.446,0.173-0.638,0.32c-0.201,0.133-0.41,0.252-0.573,0.443c-0.182,0.163-0.367,0.302-0.513,0.495l0.372,0.434
		c0.094-0.092,0.188-0.196,0.303-0.297c0.108-0.106,0.201-0.212,0.337-0.299c0.116-0.094,0.231-0.199,0.345-0.229
		C50.017,4.93,50.116,4.9,50.221,4.9c0.124,0,0.184,0.032,0.264,0.155c0.052,0.104,0.057,0.218,0.078,0.396
		c0,0.052-0.021,0.101-0.02,0.245c-0.012,0.111-0.06,0.212-0.05,0.353l-0.327,2.153c-0.056,0.342-0.112,0.674-0.139,1.019
		c-0.037,0.337-0.079,0.629-0.055,0.947c0,0.223,0.009,0.4,0.039,0.614c0.026,0.187,0.055,0.325,0.131,0.485
		c0.062,0.139,0.115,0.215,0.245,0.319c0.101,0.075,0.206,0.113,0.377,0.113l0.005-0.003c0.336,0,0.648-0.101,1.012-0.205
		c0.34-0.139,0.647-0.336,1.002-0.555c0.329-0.232,0.637-0.513,0.952-0.817c0.305-0.312,0.562-0.653,0.86-0.998
		c0.27-0.354,0.506-0.729,0.737-1.092c0.223-0.375,0.413-0.752,0.575-1.098c0.16-0.355,0.26-0.702,0.372-1.014
		c0.088-0.321,0.13-0.628,0.133-0.853c0-0.325-0.103-0.614-0.248-0.778c-0.166-0.194-0.453-0.291-0.808-0.291
		c-0.191,0-0.408,0.033-0.59,0.117c-0.203,0.079-0.424,0.173-0.588,0.312c-0.188,0.13-0.381,0.254-0.535,0.453
		c-0.168,0.172-0.315,0.344-0.438,0.538l0.442,0.395c0.196-0.272,0.382-0.512,0.569-0.661c0.185-0.169,0.38-0.253,0.604-0.253
		c0.171,0,0.265,0.032,0.377,0.152c0.08,0.102,0.114,0.217,0.12,0.434c0,0.432-0.071,0.836-0.215,1.287
		c-0.143,0.429-0.343,0.804-0.556,1.22c-0.228,0.384-0.509,0.72-0.769,1.073c-0.284,0.33-0.576,0.608-0.854,0.857
		c-0.285,0.241-0.559,0.4-0.815,0.57c-0.259,0.137-0.494,0.206-0.645,0.206c-0.071,0-0.126-0.101-0.146-0.203
		c-0.026-0.136-0.065-0.335-0.039-0.534C51.28,9.742,51.288,9.487,51.325,9.205z"/>
	<path d="M59.638,9.895c0-0.299-0.08-0.564-0.229-0.722C59.256,8.991,59.02,8.9,58.761,8.9c-0.155,0-0.309,0-0.441,0.063
		c-0.141,0.042-0.313,0.087-0.423,0.2c-0.141,0.09-0.307,0.202-0.447,0.348c-0.156,0.142-0.34,0.303-0.518,0.508l0.392,0.369
		c0.112-0.117,0.205-0.246,0.306-0.305c0.091-0.088,0.148-0.183,0.252-0.216c0.077-0.058,0.15-0.114,0.221-0.128
		c0.069-0.028,0.136-0.042,0.207-0.042c0.223,0,0.319,0.134,0.334,0.413c0,0.098-0.015,0.193-0.035,0.378
		c-0.021,0.153-0.058,0.323-0.105,0.524l-0.85,3.685h1.11l0.634-2.83c0.037-0.173,0.072-0.363,0.179-0.522
		c0.082-0.175,0.157-0.357,0.28-0.502c0.105-0.158,0.221-0.341,0.348-0.449c0.126-0.142,0.225-0.274,0.387-0.367
		c0.132-0.104,0.235-0.213,0.395-0.242c0.13-0.059,0.235-0.087,0.365-0.087c0.197,0,0.313,0.034,0.429,0.164
		c0.088,0.108,0.129,0.254,0.133,0.513c0,0.098-0.038,0.206-0.038,0.369c-0.025,0.148-0.082,0.3-0.102,0.508
		c-0.043,0.19-0.101,0.372-0.153,0.62c-0.06,0.223-0.131,0.432-0.189,0.7c-0.064,0.24-0.141,0.449-0.145,0.663
		c-0.031,0.202-0.06,0.355-0.047,0.526c0,0.152,0.021,0.265,0.066,0.416c0.046,0.125,0.077,0.233,0.192,0.327
		c0.083,0.092,0.15,0.157,0.297,0.216c0.116,0.053,0.217,0.08,0.378,0.08s0.304-0.033,0.456-0.066
		c0.145-0.045,0.268-0.123,0.434-0.205c0.146-0.094,0.293-0.235,0.451-0.351c0.155-0.141,0.317-0.334,0.51-0.506L63.63,13.3
		c-0.112,0.124-0.224,0.224-0.306,0.32c-0.092,0.088-0.199,0.149-0.25,0.217c-0.075,0.056-0.167,0.078-0.217,0.125
		c-0.07,0.026-0.156,0.039-0.213,0.039c-0.117,0-0.232-0.033-0.256-0.095c-0.052-0.065-0.082-0.199-0.078-0.312
		c0-0.038-0.004-0.135,0.051-0.286c0.035-0.153,0.047-0.356,0.13-0.558c0.053-0.219,0.089-0.469,0.17-0.714
		c0.06-0.257,0.106-0.536,0.17-0.752c0.053-0.245,0.076-0.473,0.13-0.678c0.035-0.206,0.047-0.375,0.052-0.483
		c0-0.388-0.104-0.696-0.298-0.902c-0.197-0.213-0.503-0.319-0.895-0.319c-0.381,0-0.756,0.099-1.108,0.373
		c-0.356,0.248-0.727,0.623-1.084,1.125v-0.004l-0.08-0.027c0.034-0.075,0.051-0.165,0.07-0.237
		C59.631,10.049,59.625,9.938,59.638,9.895z"/>
	<path d="M71.646,7.636C71.816,7.459,71.9,7.214,71.9,6.95c0-0.28-0.101-0.53-0.254-0.685C71.479,6.089,71.263,6,71,6
		s-0.496,0.067-0.648,0.266C70.184,6.442,70.1,6.653,70.1,6.95c0,0.28,0.067,0.497,0.252,0.686C70.52,7.812,70.736,7.9,71,7.9
		C71.263,7.9,71.463,7.8,71.646,7.636z"/>
	<path d="M80.125,9.205c0.031-0.285,0.057-0.588,0.117-0.875l0.434-2.841c0.01-0.058-0.014-0.12,0.023-0.188
		c0.005-0.067,0.006-0.169,0.008-0.212c0-0.126-0.035-0.256-0.039-0.381c-0.025-0.129-0.081-0.265-0.145-0.352
		c-0.069-0.107-0.178-0.227-0.291-0.26C80.109,4.033,79.932,4,79.752,4c-0.232,0-0.482,0.034-0.683,0.122
		c-0.225,0.08-0.446,0.173-0.639,0.32c-0.2,0.133-0.409,0.252-0.573,0.443c-0.182,0.163-0.366,0.302-0.513,0.495l0.372,0.434
		c0.094-0.092,0.188-0.196,0.303-0.297c0.108-0.106,0.201-0.212,0.338-0.299c0.115-0.094,0.23-0.199,0.345-0.229
		C78.817,4.93,78.916,4.9,79.021,4.9c0.123,0,0.184,0.032,0.264,0.155c0.052,0.104,0.057,0.218,0.078,0.396
		c0,0.052-0.021,0.101-0.021,0.245c-0.012,0.111-0.06,0.212-0.05,0.353l-0.327,2.153c-0.056,0.342-0.112,0.674-0.139,1.019
		c-0.037,0.337-0.079,0.629-0.056,0.947c0,0.223,0.01,0.4,0.039,0.614c0.026,0.187,0.056,0.325,0.132,0.485
		c0.062,0.139,0.114,0.215,0.245,0.319c0.101,0.075,0.205,0.113,0.377,0.113l0.005-0.003c0.336,0,0.647-0.101,1.012-0.205
		c0.34-0.139,0.647-0.336,1.002-0.555c0.329-0.232,0.637-0.513,0.952-0.817c0.305-0.312,0.562-0.653,0.861-0.998
		c0.269-0.354,0.506-0.729,0.736-1.092c0.223-0.375,0.413-0.752,0.575-1.098c0.16-0.355,0.26-0.702,0.372-1.014
		c0.088-0.321,0.131-0.628,0.133-0.853c0-0.325-0.102-0.614-0.248-0.778c-0.166-0.194-0.453-0.291-0.808-0.291
		c-0.191,0-0.408,0.033-0.589,0.117c-0.203,0.079-0.424,0.173-0.588,0.312c-0.189,0.13-0.382,0.254-0.536,0.453
		c-0.168,0.172-0.315,0.344-0.438,0.538l0.442,0.395c0.196-0.272,0.382-0.512,0.569-0.661c0.185-0.169,0.381-0.253,0.604-0.253
		c0.171,0,0.265,0.032,0.377,0.152c0.08,0.102,0.115,0.217,0.12,0.434c0,0.432-0.071,0.836-0.214,1.287
		c-0.144,0.429-0.344,0.804-0.557,1.22c-0.228,0.384-0.509,0.72-0.769,1.073c-0.284,0.33-0.576,0.608-0.853,0.857
		c-0.285,0.241-0.56,0.4-0.816,0.57c-0.259,0.137-0.494,0.206-0.645,0.206c-0.071,0-0.126-0.101-0.146-0.203
		c-0.026-0.136-0.065-0.335-0.039-0.534C80.08,9.742,80.088,9.487,80.125,9.205z"/>
	<path d="M90.961,12.709l0.854-3.691l-0.459-0.116l-0.548,0.391c-0.189-0.121-0.426-0.218-0.627-0.286
		c-0.228-0.07-0.521-0.104-0.791-0.104c-0.282,0-0.579,0.032-0.819,0.144c-0.265,0.096-0.521,0.214-0.748,0.406
		c-0.233,0.174-0.475,0.356-0.646,0.628c-0.196,0.244-0.388,0.483-0.506,0.811c-0.142,0.298-0.266,0.601-0.33,0.955
		c-0.078,0.339-0.125,0.69-0.116,1.059c0,0.618,0.092,1.084,0.367,1.413c0.246,0.322,0.582,0.483,1.044,0.483
		c0.196,0,0.384-0.034,0.566-0.086c0.181-0.057,0.347-0.161,0.537-0.269c0.178-0.123,0.332-0.306,0.539-0.469
		c0.181-0.189,0.354-0.448,0.561-0.688l0.002-0.001l0.08,0.034c-0.053,0.156-0.093,0.314-0.08,0.488
		c0,0.307,0.054,0.536,0.228,0.725c0.149,0.176,0.361,0.264,0.634,0.264c0.149,0,0.284-0.034,0.434-0.061
		c0.141-0.041,0.263-0.12,0.427-0.197c0.146-0.091,0.293-0.239,0.45-0.35c0.155-0.142,0.318-0.34,0.518-0.51
		c-0.062-0.062-0.138-0.156-0.188-0.188c-0.064-0.064-0.145-0.162-0.188-0.195c-0.117,0.124-0.234,0.224-0.314,0.32
		c-0.093,0.088-0.206,0.149-0.254,0.217c-0.079,0.056-0.173,0.078-0.217,0.125c-0.065,0.026-0.155,0.039-0.198,0.039
		c-0.108,0-0.199-0.033-0.253-0.095c-0.059-0.065-0.098-0.199-0.088-0.312c0-0.104-0.01-0.235,0.027-0.362
		C90.877,13.093,90.891,12.916,90.961,12.709z M90.331,10.86c-0.03,0.185-0.074,0.364-0.125,0.622
		c-0.117,0.502-0.319,0.907-0.527,1.304c-0.232,0.368-0.525,0.673-0.848,0.936c-0.132,0.097-0.276,0.156-0.378,0.211
		C88.336,13.979,88.183,14,88.083,14c-0.256,0-0.451-0.1-0.558-0.292c-0.115-0.195-0.189-0.498-0.174-0.894
		c0-0.238,0.017-0.51,0.066-0.744c0.044-0.26,0.105-0.516,0.192-0.756c0.085-0.243,0.182-0.482,0.312-0.694
		c0.123-0.22,0.249-0.427,0.422-0.58c0.159-0.167,0.312-0.313,0.527-0.396C89.062,9.548,89.24,9.5,89.494,9.5
		c0.305,0,0.507,0.033,0.67,0.192c0.141,0.129,0.186,0.331,0.212,0.638C90.376,10.497,90.352,10.654,90.331,10.86z"/>
	<path d="M94.347,0.301l-0.209,0.598c1.216,0.398,2.104,1.166,2.692,2.328c0.58,1.154,0.87,2.579,0.87,4.351v0.002
		c0,1.808-0.3,3.282-0.873,4.469c-0.582,1.172-1.491,1.958-2.666,2.356L94.346,15h0.007c1.514-0.399,2.663-1.265,3.458-2.567
		C98.604,11.119,99,9.508,99,7.655c0-1.865-0.4-3.482-1.194-4.777C97.011,1.558,95.843,0.699,94.347,0.301z"/>
</g>
</svg>
