<?xml version="1.0" encoding="utf-8"?>
<!-- Generator: Adobe Illustrator 15.1.0, SVG Export Plug-In . SVG Version: 6.00 Build 0)  -->
<!DOCTYPE svg PUBLIC "-//W3C//DTD SVG 1.1 Tiny//EN" "http://www.w3.org/Graphics/SVG/1.1/DTD/svg11-tiny.dtd">
<svg version="1.1" baseProfile="tiny" id="Layer_1" xmlns="http://www.w3.org/2000/svg" xmlns:xlink="http://www.w3.org/1999/xlink"
	 x="0px" y="0px" width="250px" height="51px" viewBox="0 0 250 51" overflow="inherit" xml:space="preserve">
<g>
	<path fill="none" d="M113.361,4.7c-0.548,0-1.002,0.212-1.422,0.636c-0.432,0.412-0.748,0.996-0.989,1.716
		c-0.257,0.703-0.361,1.438-0.361,2.152c-0.03,0.534,0.073,0.936,0.22,1.2c0.145,0.264,0.395,0.396,0.742,0.396
		c0.143,0,0.323-0.033,0.489-0.103c0.152-0.103,0.338-0.183,0.516-0.336c0.16-0.175,0.355-0.341,0.528-0.563
		c0.146-0.255,0.333-0.443,0.478-0.667c0.124-0.233,0.279-0.489,0.403-0.795c0.103-0.317,0.231-0.675,0.319-1.106l0.07-0.33
		l0.001-0.002c0.06-0.404,0.117-0.722,0.117-1.051c-0.024-0.417-0.086-0.692-0.256-0.875C114.04,4.766,113.76,4.7,113.361,4.7z"/>
	<path fill="none" d="M111.551,45.901c0.143,0,0.323-0.034,0.489-0.104c0.152-0.102,0.338-0.182,0.516-0.336
		c0.16-0.174,0.355-0.341,0.528-0.563c0.146-0.254,0.333-0.443,0.478-0.666c0.124-0.234,0.279-0.489,0.403-0.795
		c0.103-0.318,0.231-0.676,0.319-1.106l0.07-0.331l0.001-0.002c0.06-0.404,0.117-0.721,0.117-1.05
		c-0.024-0.417-0.086-0.693-0.256-0.875c-0.176-0.207-0.456-0.273-0.855-0.273c-0.548,0-1.002,0.212-1.422,0.636
		c-0.432,0.412-0.748,0.996-0.989,1.717c-0.257,0.703-0.361,1.437-0.361,2.151c-0.03,0.534,0.073,0.937,0.22,1.2
		C110.954,45.768,111.204,45.901,111.551,45.901z"/>
	<path fill="none" d="M207.607,14.214c0.136,0.12,0.359,0.187,0.666,0.187c0.285,0,0.594-0.098,0.854-0.293
		c0.252-0.196,0.485-0.449,0.672-0.766c0.188-0.33,0.334-0.67,0.438-1.063c0.094-0.421,0.16-0.791,0.16-1.192
		c-0.033-0.425-0.059-0.693-0.174-0.891c-0.123-0.229-0.3-0.295-0.552-0.295c-0.194,0-0.358,0.055-0.562,0.164
		c-0.207,0.088-0.404,0.271-0.604,0.486c-0.201,0.198-0.381,0.482-0.548,0.801c-0.187,0.3-0.301,0.681-0.399,1.094h-0.002
		c-0.05,0.185-0.063,0.396-0.102,0.591c-0.057,0.181-0.057,0.373-0.057,0.539C207.4,13.852,207.471,14.089,207.607,14.214z"/>
	<path fill="none" d="M75.483,49.2c0.1,0,0.252-0.022,0.37-0.067c0.102-0.055,0.246-0.115,0.378-0.211
		c0.322-0.263,0.615-0.568,0.848-0.936c0.208-0.396,0.41-0.803,0.527-1.304c0.051-0.258,0.095-0.438,0.125-0.622
		c0.02-0.207,0.045-0.363,0.045-0.53c-0.026-0.308-0.071-0.509-0.212-0.638c-0.163-0.16-0.365-0.192-0.67-0.192
		c-0.254,0-0.431,0.048-0.623,0.145c-0.216,0.081-0.368,0.229-0.527,0.396c-0.173,0.152-0.299,0.359-0.422,0.58
		c-0.129,0.212-0.227,0.451-0.312,0.694c-0.087,0.24-0.148,0.496-0.192,0.755c-0.05,0.235-0.066,0.507-0.066,0.744
		c-0.017,0.396,0.058,0.699,0.173,0.895C75.032,49.1,75.227,49.2,75.483,49.2z"/>
	<path fill="none" d="M2.008,44.004L2.008,44.004c-0.08,0.359-0.116,0.71-0.116,1.049c-0.031,0.387,0.089,0.698,0.267,0.878
		C2.318,46.1,2.634,46.2,3.048,46.2c0.196,0,0.414-0.034,0.606-0.104c0.173-0.102,0.387-0.184,0.586-0.344
		c0.185-0.177,0.388-0.369,0.566-0.628c0.177-0.268,0.344-0.579,0.494-0.958c0.15-0.402,0.266-0.787,0.348-1.22
		c0.067-0.45,0.125-0.85,0.125-1.245c-0.025-0.534-0.077-0.933-0.23-1.2C5.376,40.234,5.147,40.1,4.81,40.1
		c-0.252,0-0.492,0.079-0.733,0.236c-0.267,0.145-0.509,0.416-0.805,0.778c-0.32,0.356-0.536,0.731-0.722,1.112
		c-0.204,0.369-0.345,0.863-0.473,1.454L2.008,44.004z"/>
	<path fill="none" d="M76.894,9.7c-0.254,0-0.431,0.048-0.623,0.145c-0.216,0.081-0.368,0.229-0.527,0.396
		c-0.173,0.152-0.299,0.359-0.422,0.58c-0.129,0.212-0.227,0.451-0.312,0.694c-0.087,0.24-0.148,0.496-0.192,0.755
		c-0.05,0.235-0.066,0.507-0.066,0.744c-0.017,0.396,0.058,0.699,0.173,0.895c0.107,0.191,0.302,0.292,0.558,0.292
		c0.1,0,0.252-0.022,0.37-0.067c0.102-0.055,0.246-0.115,0.378-0.211c0.322-0.263,0.615-0.568,0.848-0.936
		c0.208-0.396,0.41-0.803,0.527-1.304c0.051-0.258,0.095-0.438,0.125-0.622c0.02-0.207,0.045-0.363,0.045-0.53
		c-0.026-0.308-0.071-0.509-0.212-0.638C77.401,9.732,77.199,9.7,76.894,9.7z"/>
	<path fill="none" d="M245.561,39.8c-0.547,0-1.002,0.212-1.422,0.636c-0.432,0.412-0.748,0.996-0.988,1.717
		c-0.258,0.703-0.361,1.437-0.361,2.151c-0.03,0.534,0.072,0.937,0.22,1.2c0.146,0.264,0.396,0.397,0.742,0.397
		c0.144,0,0.323-0.034,0.489-0.104c0.152-0.102,0.338-0.182,0.516-0.336c0.16-0.174,0.355-0.341,0.528-0.563
		c0.146-0.254,0.333-0.443,0.478-0.666c0.125-0.234,0.279-0.489,0.403-0.795c0.103-0.318,0.231-0.676,0.319-1.106l0.07-0.331v-0.002
		c0.061-0.404,0.117-0.721,0.117-1.05c-0.023-0.417-0.086-0.693-0.256-0.875C246.24,39.866,245.96,39.8,245.561,39.8z"/>
	<path fill="none" d="M245.561,4.7c-0.547,0-1.002,0.212-1.422,0.636c-0.432,0.412-0.748,0.996-0.988,1.716
		c-0.258,0.703-0.361,1.438-0.361,2.152c-0.03,0.534,0.072,0.936,0.22,1.2c0.146,0.264,0.396,0.396,0.742,0.396
		c0.144,0,0.323-0.033,0.489-0.103c0.152-0.103,0.338-0.183,0.516-0.336c0.16-0.175,0.355-0.341,0.528-0.563
		c0.146-0.255,0.333-0.443,0.478-0.667c0.125-0.233,0.279-0.489,0.403-0.795c0.103-0.317,0.231-0.675,0.319-1.106l0.07-0.33V6.898
		c0.061-0.404,0.117-0.722,0.117-1.051c-0.023-0.417-0.086-0.692-0.256-0.875C246.24,4.766,245.96,4.7,245.561,4.7z"/>
	<path d="M5.273,10.393c0,0.381,0.076,0.685,0.302,0.939c0.202,0.245,0.444,0.367,0.808,0.367c0.394,0,0.733-0.101,1.067-0.289
		c0.319-0.193,0.702-0.563,1.23-1.077L8.239,9.898c-0.321,0.352-0.6,0.584-0.745,0.715c-0.176,0.124-0.374,0.186-0.497,0.186
		c-0.145,0-0.277-0.066-0.319-0.139c-0.068-0.092-0.127-0.246-0.102-0.448c0-0.253,0.042-0.657,0.172-1.145L8.657,0.5H8.199
		L6.243,0.6L6.149,1c0.275,0.015,0.458,0.015,0.57,0.078c0.106,0.035,0.166,0.076,0.245,0.173c0.057,0.08,0.069,0.196,0.086,0.353
		c0,0.139-0.017,0.271-0.039,0.451C6.985,2.217,6.914,2.433,6.878,2.708l0.001-0.001L5.49,8.895
		C5.345,9.549,5.249,10.018,5.273,10.393z"/>
	<rect x="14.856" y="5" width="9.566" height="1"/>
	<rect x="14.856" y="8.2" width="9.566" height="1"/>
	<path d="M33.573,3.325c0.582-1.154,1.458-1.963,2.691-2.328l-0.211-0.599c-1.51,0.398-2.695,1.232-3.459,2.578
		C31.798,4.296,31.4,5.871,31.4,7.753c0,1.871,0.366,3.453,1.189,4.778c0.794,1.314,1.93,2.171,3.464,2.568l0.187-0.598
		c-1.196-0.398-2.109-1.198-2.667-2.355c-0.582-1.173-0.873-2.688-0.873-4.47V7.675C32.7,5.929,32.966,4.47,33.573,3.325z"/>
	<path d="M40.042,8.43l0.434-2.841c0.01-0.057-0.014-0.12,0.023-0.187c0.005-0.068,0.006-0.17,0.008-0.213
		c0-0.125-0.035-0.256-0.039-0.381c-0.025-0.129-0.081-0.265-0.144-0.352c-0.07-0.107-0.178-0.227-0.291-0.259
		C39.909,4.133,39.732,4.1,39.552,4.1c-0.232,0-0.482,0.034-0.683,0.122c-0.224,0.08-0.446,0.173-0.638,0.32
		c-0.201,0.133-0.41,0.252-0.573,0.444c-0.182,0.162-0.367,0.301-0.513,0.494l0.372,0.435c0.094-0.092,0.188-0.197,0.303-0.298
		c0.108-0.106,0.201-0.211,0.337-0.298c0.116-0.095,0.23-0.2,0.345-0.23C38.617,5.03,38.716,5,38.821,5
		c0.124,0,0.184,0.033,0.264,0.156c0.052,0.103,0.057,0.218,0.078,0.395c0,0.053-0.021,0.102-0.02,0.245
		c-0.012,0.112-0.06,0.212-0.05,0.353l-0.327,2.153c-0.056,0.343-0.112,0.675-0.139,1.02c-0.037,0.337-0.079,0.629-0.055,0.946
		c0,0.224,0.009,0.4,0.039,0.614c0.026,0.188,0.055,0.326,0.131,0.486c0.062,0.138,0.115,0.215,0.245,0.319
		c0.101,0.074,0.206,0.112,0.377,0.112l0.005-0.003c0.336,0,0.648-0.1,1.012-0.205c0.34-0.138,0.648-0.336,1.002-0.555
		c0.329-0.232,0.637-0.512,0.952-0.817c0.305-0.312,0.562-0.652,0.861-0.998c0.269-0.354,0.506-0.729,0.736-1.092
		c0.223-0.375,0.414-0.752,0.575-1.097c0.16-0.356,0.26-0.702,0.372-1.014c0.088-0.321,0.13-0.629,0.133-0.854
		c0-0.325-0.102-0.614-0.248-0.778c-0.166-0.193-0.453-0.291-0.808-0.291c-0.191,0-0.408,0.033-0.589,0.117
		c-0.203,0.079-0.424,0.173-0.588,0.313c-0.189,0.13-0.381,0.254-0.536,0.453c-0.168,0.172-0.315,0.344-0.438,0.537l0.442,0.396
		c0.197-0.273,0.382-0.512,0.57-0.662c0.184-0.169,0.38-0.253,0.603-0.253c0.171,0,0.265,0.033,0.377,0.153
		c0.08,0.101,0.115,0.217,0.12,0.433c0,0.432-0.071,0.836-0.214,1.288c-0.143,0.428-0.343,0.803-0.556,1.219
		c-0.228,0.384-0.509,0.72-0.769,1.073c-0.284,0.331-0.576,0.609-0.853,0.857c-0.285,0.241-0.559,0.4-0.816,0.57
		c-0.259,0.137-0.494,0.206-0.644,0.206c-0.072,0-0.126-0.1-0.147-0.203c-0.026-0.136-0.065-0.335-0.039-0.534
		c0-0.219,0.008-0.474,0.045-0.756C39.956,9.02,39.982,8.717,40.042,8.43z"/>
	<path d="M48.01,9.376c-0.152-0.183-0.389-0.274-0.647-0.274c-0.152,0-0.306,0-0.438,0.063c-0.14,0.042-0.281,0.087-0.425,0.2
		c-0.143,0.09-0.309,0.202-0.45,0.348c-0.156,0.141-0.34,0.303-0.517,0.508l0.391,0.369c0.113-0.117,0.205-0.247,0.306-0.305
		c0.09-0.088,0.147-0.184,0.248-0.216c0.076-0.058,0.117-0.114,0.219-0.128c0.069-0.028,0.137-0.043,0.212-0.043
		c0.222,0,0.319,0.135,0.333,0.414c0,0.099-0.014,0.193-0.031,0.362c-0.02,0.144-0.057,0.318-0.109,0.541l0.002-0.001l-0.85,3.684
		h1.111l0.578-2.702c0.041-0.194,0.095-0.393,0.187-0.578c0.083-0.192,0.174-0.398,0.292-0.544c0.111-0.171,0.205-0.33,0.353-0.473
		c0.125-0.146,0.235-0.279,0.377-0.378c0.127-0.105,0.244-0.214,0.359-0.245c0.114-0.057,0.211-0.084,0.302-0.08
		c0.147,0,0.244,0.034,0.336,0.14c0.078,0.093,0.096,0.247,0.145,0.461h0.656l0.287-1.322c-0.117-0.021-0.262-0.048-0.364-0.055
		C50.746,9.107,50.589,9.1,50.467,9.1c-0.382,0-0.771,0.101-1.113,0.361c-0.36,0.24-0.745,0.586-1.114,1.127l-0.078-0.034
		c0.052-0.132,0.065-0.284,0.078-0.455C48.24,9.801,48.16,9.534,48.01,9.376z"/>
	<path d="M58.4,8c0.263,0,0.463-0.1,0.647-0.264C59.216,7.559,59.3,7.314,59.3,7.05c0-0.28-0.1-0.53-0.253-0.684
		C58.879,6.189,58.663,6.1,58.4,6.1c-0.263,0-0.496,0.067-0.648,0.267C57.584,6.542,57.5,6.753,57.5,7.05
		c0,0.281,0.067,0.497,0.252,0.687C57.92,7.912,58.136,8,58.4,8z"/>
	<path d="M67.642,8.43l0.434-2.841c0.01-0.057-0.014-0.12,0.022-0.187c0.005-0.068,0.006-0.17,0.008-0.213
		c0-0.125-0.035-0.256-0.039-0.381c-0.025-0.129-0.081-0.265-0.144-0.352c-0.07-0.107-0.178-0.227-0.291-0.259
		C67.509,4.133,67.332,4.1,67.152,4.1c-0.233,0-0.483,0.034-0.683,0.122c-0.224,0.08-0.446,0.173-0.638,0.32
		c-0.201,0.133-0.41,0.252-0.573,0.444c-0.182,0.162-0.367,0.301-0.513,0.494l0.372,0.435c0.094-0.092,0.188-0.197,0.303-0.298
		c0.108-0.106,0.201-0.211,0.337-0.298c0.116-0.095,0.231-0.2,0.345-0.23C66.217,5.03,66.316,5,66.421,5
		c0.124,0,0.184,0.033,0.264,0.156c0.052,0.103,0.057,0.218,0.078,0.395c0,0.053-0.021,0.102-0.02,0.245
		c-0.012,0.112-0.061,0.212-0.05,0.353l-0.327,2.153c-0.056,0.343-0.112,0.675-0.139,1.02c-0.037,0.337-0.079,0.629-0.055,0.946
		c0,0.224,0.009,0.4,0.039,0.614c0.026,0.188,0.055,0.326,0.131,0.486c0.062,0.138,0.115,0.215,0.245,0.319
		c0.101,0.074,0.206,0.112,0.377,0.112l0.005-0.003c0.336,0,0.648-0.1,1.012-0.205c0.34-0.138,0.648-0.336,1.002-0.555
		c0.329-0.232,0.637-0.512,0.952-0.817c0.305-0.312,0.562-0.652,0.861-0.998c0.269-0.354,0.506-0.729,0.737-1.092
		c0.223-0.375,0.414-0.752,0.575-1.097c0.16-0.356,0.26-0.702,0.372-1.014c0.088-0.321,0.13-0.629,0.133-0.854
		c0-0.325-0.102-0.614-0.248-0.778c-0.166-0.193-0.453-0.291-0.808-0.291c-0.191,0-0.408,0.033-0.589,0.117
		c-0.203,0.079-0.424,0.173-0.588,0.313c-0.189,0.13-0.381,0.254-0.536,0.453c-0.168,0.172-0.315,0.344-0.438,0.537l0.442,0.396
		c0.197-0.273,0.382-0.512,0.57-0.662c0.184-0.169,0.38-0.253,0.603-0.253c0.171,0,0.265,0.033,0.377,0.153
		c0.08,0.101,0.115,0.217,0.12,0.433c0,0.432-0.071,0.836-0.214,1.288c-0.143,0.428-0.343,0.803-0.556,1.219
		c-0.228,0.384-0.509,0.72-0.769,1.073c-0.284,0.331-0.576,0.609-0.853,0.857c-0.285,0.241-0.559,0.4-0.816,0.57
		c-0.259,0.137-0.494,0.206-0.644,0.206c-0.072,0-0.126-0.1-0.147-0.203c-0.026-0.136-0.065-0.335-0.039-0.534
		c0-0.219,0.008-0.474,0.045-0.756C67.556,9.02,67.582,8.717,67.642,8.43z"/>
	<path d="M78.361,12.909l0.853-3.691l-0.459-0.116l-0.547,0.391c-0.19-0.121-0.426-0.219-0.627-0.286
		c-0.228-0.07-0.522-0.104-0.791-0.104c-0.282,0-0.579,0.032-0.82,0.144c-0.264,0.096-0.521,0.214-0.748,0.406
		c-0.232,0.174-0.474,0.356-0.645,0.628c-0.196,0.244-0.388,0.483-0.506,0.811c-0.143,0.297-0.266,0.6-0.33,0.955
		c-0.078,0.339-0.125,0.69-0.116,1.059c0,0.617,0.091,1.084,0.367,1.412C74.238,14.839,74.574,15,75.036,15
		c0.196,0,0.384-0.034,0.566-0.086c0.181-0.057,0.347-0.161,0.537-0.27c0.178-0.123,0.332-0.305,0.539-0.469
		c0.181-0.188,0.354-0.447,0.561-0.687l0.002-0.001l0.08,0.033c-0.053,0.156-0.093,0.315-0.08,0.488
		c0,0.308,0.054,0.537,0.227,0.726c0.15,0.176,0.362,0.264,0.634,0.264c0.15,0,0.284-0.034,0.434-0.062
		c0.14-0.041,0.262-0.119,0.427-0.196c0.146-0.091,0.292-0.239,0.45-0.351c0.155-0.141,0.318-0.339,0.517-0.509
		c-0.061-0.062-0.137-0.157-0.188-0.188c-0.065-0.064-0.146-0.162-0.188-0.195c-0.117,0.124-0.234,0.224-0.314,0.32
		c-0.093,0.088-0.206,0.148-0.254,0.217c-0.078,0.056-0.172,0.078-0.216,0.125c-0.065,0.025-0.155,0.039-0.198,0.039
		c-0.109,0-0.199-0.033-0.253-0.096c-0.059-0.064-0.098-0.198-0.088-0.311c0-0.105-0.01-0.236,0.028-0.362
		C78.277,13.293,78.291,13.116,78.361,12.909z M77.731,11.061c-0.03,0.185-0.074,0.364-0.125,0.622
		c-0.117,0.501-0.319,0.907-0.527,1.304c-0.233,0.367-0.526,0.673-0.848,0.936c-0.132,0.096-0.276,0.156-0.378,0.211
		c-0.118,0.045-0.27,0.067-0.37,0.067c-0.256,0-0.451-0.101-0.558-0.292c-0.115-0.195-0.189-0.498-0.173-0.895
		c0-0.237,0.016-0.509,0.066-0.744c0.044-0.259,0.105-0.515,0.192-0.755c0.084-0.243,0.182-0.482,0.312-0.694
		c0.123-0.221,0.25-0.428,0.422-0.58c0.159-0.167,0.311-0.314,0.527-0.396C76.463,9.748,76.64,9.7,76.894,9.7
		c0.305,0,0.507,0.032,0.67,0.192c0.141,0.129,0.186,0.33,0.212,0.638C77.776,10.697,77.751,10.854,77.731,11.061z"/>
	<path d="M84.227,12.148c-0.582,1.172-1.491,1.957-2.666,2.355l0.186,0.598c1.516-0.397,2.668-1.265,3.464-2.568
		c0.793-1.314,1.189-2.926,1.189-4.778c0-1.865-0.4-3.481-1.194-4.776c-0.795-1.32-1.963-2.18-3.459-2.577l-0.209,0.598
		c1.215,0.397,2.103,1.165,2.692,2.328c0.58,1.153,0.87,2.579,0.87,4.35v0.002C85.1,9.487,84.8,10.961,84.227,12.148z"/>
	<path d="M94.618,4.423C94.429,4.208,94.157,4.1,93.846,4.1c-0.398,0-0.78,0.101-1.072,0.313c-0.316,0.208-0.741,0.537-1.188,1.053
		L92.028,5.9c0.311-0.342,0.535-0.607,0.734-0.705C92.94,5.064,93.086,5,93.27,5c0.146,0,0.223,0.034,0.319,0.139
		c0.068,0.092,0.072,0.213,0.102,0.445c0,0.268-0.064,0.639-0.172,1.139L93.517,6.72l-1.133,4.877h1.344l0.737-3.342
		c0.108-0.479,0.219-0.899,0.419-1.208c0.171-0.327,0.376-0.677,0.68-1.011c0.282-0.349,0.527-0.628,0.8-0.78
		c0.25-0.172,0.463-0.259,0.702-0.259c0.27,0,0.447,0.065,0.583,0.233c0.119,0.157,0.169,0.412,0.178,0.767
		c0,0.144-0.043,0.311-0.058,0.563c-0.038,0.23-0.129,0.575-0.245,1.068l-0.341,1.33c-0.17,0.646-0.265,1.126-0.256,1.47
		c0,0.369,0.091,0.659,0.302,0.911c0.202,0.239,0.459,0.358,0.808,0.358c0.425,0,0.779-0.134,1.134-0.328
		c0.331-0.218,0.707-0.575,1.164-1.037l-0.442-0.435c-0.321,0.352-0.585,0.584-0.745,0.715c-0.176,0.124-0.359,0.186-0.497,0.186
		c-0.146,0-0.262-0.066-0.319-0.137c-0.067-0.092-0.111-0.247-0.1-0.445c0-0.229,0.055-0.636,0.209-1.183l0.505-2.011
		c0.15-0.593,0.201-1.067,0.225-1.373c0-0.485-0.157-0.869-0.389-1.14C98.524,4.237,98.13,4.1,97.673,4.1
		c-0.487,0-0.978,0.168-1.417,0.515c-0.458,0.343-0.943,0.838-1.448,1.581l-0.092-0.008c0.124-0.339,0.186-0.668,0.186-0.92
		C94.902,4.921,94.802,4.631,94.618,4.423z"/>
	<polygon points="106.72,0.5 101.1,14.9 102.3,14.9 107.906,0.5 	"/>
	<path d="M115.317,2.721l-0.403,1.801c-0.28-0.156-0.585-0.297-0.82-0.327c-0.266-0.063-0.564-0.096-0.872-0.096
		c-0.751,0-1.458,0.234-2.042,0.705c-0.611,0.468-1.104,1.101-1.441,1.923c-0.349,0.813-0.528,1.638-0.523,2.541
		c0,0.771,0.128,1.348,0.469,1.795c0.313,0.425,0.752,0.638,1.325,0.638c0.496,0,0.96-0.166,1.412-0.5
		c0.444-0.335,0.903-0.868,1.412-1.58l0.001-0.002l0.102,0.016c-0.12,0.32-0.199,0.608-0.18,0.905c0,0.35,0.081,0.604,0.287,0.842
		c0.192,0.212,0.444,0.317,0.769,0.317c0.378,0,0.707-0.134,1.056-0.309c0.326-0.206,0.703-0.57,1.203-1.058l-0.442-0.434
		c-0.321,0.351-0.597,0.584-0.745,0.714c-0.176,0.124-0.371,0.186-0.497,0.186c-0.145,0-0.274-0.065-0.319-0.139
		c-0.067-0.092-0.123-0.246-0.1-0.448c0-0.258,0.043-0.662,0.17-1.145l1.933-8.567h-0.458l-1.948,0.1l-0.094,0.4
		c0.275,0.015,0.45,0.015,0.57,0.078c0.106,0.037,0.158,0.077,0.245,0.175c0.057,0.081,0.061,0.196,0.086,0.355
		c0,0.155-0.025,0.319-0.047,0.547C115.395,2.361,115.353,2.543,115.317,2.721z M114.355,6.898L114.354,6.9l-0.07,0.33
		c-0.088,0.432-0.216,0.789-0.319,1.106c-0.124,0.306-0.279,0.562-0.403,0.795c-0.145,0.224-0.332,0.412-0.478,0.667
		c-0.173,0.223-0.368,0.389-0.528,0.563c-0.178,0.153-0.364,0.233-0.516,0.336c-0.166,0.069-0.346,0.103-0.489,0.103
		c-0.347,0-0.597-0.133-0.742-0.396c-0.147-0.265-0.25-0.666-0.22-1.2c0-0.715,0.104-1.449,0.361-2.152
		c0.241-0.72,0.557-1.304,0.989-1.716c0.42-0.424,0.874-0.636,1.422-0.636c0.399,0,0.679,0.065,0.855,0.272
		c0.17,0.183,0.232,0.458,0.256,0.875C114.472,6.177,114.415,6.494,114.355,6.898z"/>
	<path d="M137.312,4.421c-0.189-0.215-0.459-0.323-0.772-0.323c-0.388,0-0.767,0.101-1.063,0.313
		c-0.322,0.208-0.746,0.537-1.195,1.053l0.443,0.435c0.311-0.342,0.537-0.607,0.733-0.705c0.179-0.131,0.326-0.195,0.509-0.195
		c0.145,0,0.223,0.034,0.317,0.139c0.067,0.092,0.073,0.212,0.103,0.445c0,0.112-0.027,0.251-0.031,0.423
		c-0.021,0.169-0.071,0.4-0.14,0.716l-1.127,4.877h1.345l0.736-3.339c0.107-0.482,0.219-0.903,0.406-1.194
		c0.162-0.313,0.372-0.67,0.656-0.979c0.274-0.339,0.498-0.602,0.742-0.748c0.219-0.159,0.395-0.239,0.608-0.239
		c0.119,0,0.192,0,0.294,0.069c0.078,0.045,0.119,0.122,0.203,0.241c0.057,0.116,0.097,0.28,0.131,0.491h0.801l0.372-1.717
		c-0.254-0.056-0.582-0.084-0.946-0.084c-0.483,0-0.961,0.133-1.428,0.481c-0.468,0.322-0.972,0.794-1.463,1.513l0.002-0.003
		l-0.1-0.022c0.098-0.275,0.115-0.565,0.146-0.803C137.596,4.919,137.498,4.629,137.312,4.421z"/>
	<rect x="147.256" y="8.2" width="9.566" height="1"/>
	<rect x="147.256" y="5" width="9.566" height="1"/>
	<path d="M166.073,3.325c0.581-1.154,1.458-1.963,2.69-2.328l-0.211-0.599c-1.51,0.398-2.695,1.232-3.459,2.578
		c-0.796,1.319-1.193,2.895-1.193,4.776c0,1.871,0.365,3.453,1.188,4.778c0.794,1.314,1.931,2.171,3.464,2.568l0.188-0.598
		c-1.196-0.398-2.109-1.198-2.667-2.355c-0.582-1.173-0.873-2.688-0.873-4.47V7.675C165.2,5.929,165.466,4.47,166.073,3.325z"/>
	<path d="M172.425,9.305c0.031-0.285,0.058-0.588,0.117-0.875l0.435-2.841c0.01-0.057-0.015-0.12,0.022-0.187
		c0.005-0.068,0.006-0.17,0.008-0.213c0-0.125-0.034-0.256-0.039-0.381c-0.024-0.129-0.081-0.265-0.144-0.352
		c-0.07-0.107-0.178-0.227-0.291-0.259c-0.124-0.065-0.301-0.099-0.481-0.099c-0.233,0-0.483,0.034-0.683,0.122
		c-0.225,0.08-0.446,0.173-0.639,0.32c-0.201,0.133-0.41,0.252-0.572,0.444c-0.182,0.162-0.367,0.301-0.514,0.494l0.373,0.435
		c0.094-0.092,0.188-0.197,0.303-0.298c0.107-0.106,0.201-0.211,0.337-0.298c0.116-0.095,0.231-0.2,0.345-0.23
		C171.117,5.03,171.216,5,171.32,5c0.125,0,0.185,0.033,0.265,0.156c0.052,0.103,0.058,0.218,0.078,0.395
		c0,0.053-0.021,0.102-0.021,0.245c-0.012,0.112-0.06,0.212-0.05,0.353l-0.327,2.153c-0.056,0.343-0.111,0.675-0.139,1.02
		c-0.037,0.337-0.079,0.629-0.055,0.946c0,0.224,0.009,0.4,0.039,0.614c0.025,0.188,0.055,0.326,0.131,0.486
		c0.062,0.138,0.115,0.215,0.244,0.319c0.102,0.074,0.207,0.112,0.377,0.112l0.006-0.003c0.336,0,0.648-0.1,1.012-0.205
		c0.34-0.138,0.648-0.336,1.002-0.555c0.329-0.232,0.637-0.512,0.952-0.817c0.306-0.312,0.562-0.652,0.86-0.998
		c0.27-0.354,0.507-0.729,0.738-1.092c0.223-0.375,0.412-0.752,0.574-1.097c0.16-0.356,0.26-0.702,0.372-1.014
		c0.088-0.321,0.13-0.629,0.134-0.854c0-0.325-0.103-0.614-0.248-0.778c-0.166-0.193-0.453-0.291-0.809-0.291
		c-0.191,0-0.408,0.033-0.589,0.117c-0.203,0.079-0.425,0.173-0.589,0.313c-0.188,0.13-0.381,0.254-0.535,0.453
		c-0.168,0.172-0.314,0.344-0.438,0.537l0.441,0.396c0.197-0.273,0.382-0.512,0.57-0.662c0.184-0.169,0.38-0.253,0.603-0.253
		c0.171,0,0.265,0.033,0.377,0.153c0.08,0.101,0.115,0.217,0.12,0.433c0,0.432-0.07,0.836-0.214,1.288
		c-0.144,0.428-0.343,0.803-0.556,1.219c-0.229,0.384-0.51,0.72-0.77,1.073c-0.283,0.331-0.576,0.609-0.854,0.857
		c-0.284,0.241-0.559,0.4-0.815,0.57c-0.259,0.137-0.494,0.206-0.644,0.206c-0.072,0-0.127-0.1-0.147-0.203
		c-0.026-0.136-0.065-0.335-0.039-0.534C172.38,9.842,172.389,9.587,172.425,9.305z"/>
	<path d="M180.41,9.376c-0.152-0.183-0.389-0.274-0.646-0.274c-0.152,0-0.307,0-0.438,0.063c-0.14,0.042-0.281,0.087-0.425,0.2
		c-0.144,0.09-0.31,0.202-0.45,0.348c-0.156,0.141-0.341,0.303-0.517,0.508l0.391,0.369c0.113-0.117,0.205-0.247,0.306-0.305
		c0.091-0.088,0.147-0.184,0.248-0.216c0.076-0.058,0.117-0.114,0.22-0.128c0.068-0.028,0.137-0.043,0.211-0.043
		c0.223,0,0.319,0.135,0.334,0.414c0,0.099-0.015,0.193-0.031,0.362c-0.021,0.144-0.057,0.318-0.109,0.541l0.002-0.001l-0.85,3.684
		h1.111l0.576-2.702c0.041-0.194,0.096-0.393,0.188-0.578c0.082-0.192,0.174-0.398,0.291-0.544c0.111-0.171,0.205-0.33,0.354-0.473
		c0.125-0.146,0.235-0.279,0.377-0.378c0.127-0.105,0.244-0.214,0.359-0.245c0.113-0.057,0.211-0.084,0.302-0.08
		c0.147,0,0.244,0.034,0.336,0.14c0.078,0.093,0.097,0.247,0.146,0.461h0.656l0.287-1.322c-0.117-0.021-0.263-0.048-0.365-0.055
		c-0.125-0.015-0.283-0.022-0.404-0.022c-0.383,0-0.77,0.101-1.113,0.361c-0.359,0.24-0.745,0.586-1.113,1.127l-0.078-0.034
		c0.051-0.132,0.064-0.284,0.078-0.455C180.641,9.801,180.561,9.534,180.41,9.376z"/>
	<path d="M190.8,6.1c-0.263,0-0.495,0.067-0.647,0.267c-0.168,0.176-0.252,0.387-0.252,0.684c0,0.281,0.066,0.497,0.252,0.687
		C190.32,7.912,190.536,8,190.8,8c0.263,0,0.464-0.1,0.647-0.264c0.169-0.178,0.253-0.422,0.253-0.687
		c0-0.28-0.101-0.53-0.253-0.684C191.279,6.189,191.062,6.1,190.8,6.1z"/>
	<path d="M199.925,9.305c0.031-0.285,0.058-0.588,0.117-0.875l0.435-2.841c0.01-0.057-0.015-0.12,0.022-0.187
		c0.005-0.068,0.006-0.17,0.008-0.213c0-0.125-0.034-0.256-0.039-0.381c-0.024-0.129-0.081-0.265-0.144-0.352
		c-0.07-0.107-0.178-0.227-0.291-0.259c-0.124-0.065-0.301-0.099-0.481-0.099c-0.233,0-0.483,0.034-0.683,0.122
		c-0.225,0.08-0.446,0.173-0.639,0.32c-0.201,0.133-0.41,0.252-0.572,0.444c-0.182,0.162-0.367,0.301-0.514,0.494l0.373,0.435
		c0.094-0.092,0.188-0.197,0.303-0.298c0.107-0.106,0.201-0.211,0.337-0.298c0.116-0.095,0.231-0.2,0.345-0.23
		C198.617,5.03,198.716,5,198.82,5c0.125,0,0.185,0.033,0.265,0.156c0.052,0.103,0.058,0.218,0.078,0.395
		c0,0.053-0.021,0.102-0.021,0.245c-0.012,0.112-0.06,0.212-0.05,0.353l-0.327,2.153c-0.056,0.343-0.111,0.675-0.139,1.02
		c-0.037,0.337-0.079,0.629-0.055,0.946c0,0.224,0.009,0.4,0.039,0.614c0.025,0.188,0.055,0.326,0.131,0.486
		c0.062,0.138,0.115,0.215,0.244,0.319c0.102,0.074,0.207,0.112,0.377,0.112l0.006-0.003c0.336,0,0.648-0.1,1.012-0.205
		c0.34-0.138,0.648-0.336,1.002-0.555c0.329-0.232,0.637-0.512,0.952-0.817c0.306-0.312,0.562-0.652,0.86-0.998
		c0.27-0.354,0.507-0.729,0.738-1.092c0.223-0.375,0.412-0.752,0.574-1.097c0.16-0.356,0.26-0.702,0.372-1.014
		c0.088-0.321,0.13-0.629,0.134-0.854c0-0.325-0.103-0.614-0.248-0.778c-0.166-0.193-0.453-0.291-0.809-0.291
		c-0.191,0-0.408,0.033-0.589,0.117c-0.203,0.079-0.425,0.173-0.589,0.313c-0.188,0.13-0.381,0.254-0.535,0.453
		c-0.168,0.172-0.314,0.344-0.438,0.537l0.441,0.396c0.197-0.273,0.382-0.512,0.57-0.662c0.184-0.169,0.38-0.253,0.603-0.253
		c0.171,0,0.265,0.033,0.377,0.153c0.08,0.101,0.115,0.217,0.12,0.433c0,0.432-0.07,0.836-0.214,1.288
		c-0.144,0.428-0.343,0.803-0.556,1.219c-0.229,0.384-0.51,0.72-0.77,1.073c-0.283,0.331-0.576,0.609-0.854,0.857
		c-0.284,0.241-0.559,0.4-0.815,0.57c-0.259,0.137-0.494,0.206-0.644,0.206c-0.072,0-0.127-0.1-0.147-0.203
		c-0.026-0.136-0.065-0.335-0.039-0.534C199.88,9.842,199.889,9.587,199.925,9.305z"/>
	<path d="M207.318,8.885l-1.359,6.003c0.068,0.022,0.115,0.027,0.214,0.06c0.076,0.016,0.119,0.033,0.216,0.053
		c0.088-0.057,0.157-0.123,0.277-0.18c0.1-0.065,0.178-0.139,0.291-0.178c0.218,0.129,0.434,0.213,0.673,0.273
		c0.229,0.055,0.454,0.083,0.753,0.083c0.424,0,0.797-0.133,1.203-0.313c0.38-0.211,0.686-0.507,1-0.861
		c0.286-0.364,0.491-0.805,0.682-1.27c0.168-0.482,0.246-1.002,0.252-1.542c0-0.625-0.141-1.13-0.363-1.425
		c-0.24-0.325-0.592-0.486-1.028-0.486c-0.178,0-0.354,0-0.517,0.079c-0.166,0.054-0.336,0.125-0.5,0.241
		c-0.168,0.107-0.371,0.234-0.516,0.414c-0.178,0.168-0.375,0.356-0.553,0.592l-0.08-0.039l0.792-3.186h-0.407l-1.559,0.1
		l-0.084,0.4c0.145,0.004,0.242,0.004,0.355,0.027c0.096,0.016,0.142,0.039,0.228,0.07c0.058,0.032,0.095,0.065,0.119,0.127
		c0.022,0.053,0.02,0.11,0.034,0.185c0,0.09-0.014,0.186-0.031,0.313C207.389,8.544,207.354,8.669,207.318,8.885z M207.457,13.036
		c0.038-0.194,0.052-0.406,0.102-0.591h0.002c0.099-0.413,0.213-0.794,0.399-1.094c0.167-0.318,0.347-0.603,0.548-0.801
		c0.199-0.215,0.396-0.398,0.604-0.486c0.203-0.109,0.367-0.164,0.562-0.164c0.252,0,0.429,0.065,0.552,0.295
		c0.115,0.197,0.141,0.466,0.174,0.891c0,0.401-0.066,0.771-0.16,1.192c-0.104,0.394-0.25,0.733-0.438,1.063
		c-0.187,0.316-0.42,0.569-0.672,0.766c-0.261,0.195-0.569,0.293-0.854,0.293c-0.307,0-0.53-0.066-0.666-0.187
		c-0.137-0.125-0.207-0.362-0.207-0.639C207.4,13.409,207.4,13.217,207.457,13.036z"/>
	<path d="M216.427,12.148c-0.581,1.172-1.491,1.957-2.665,2.355l0.186,0.598c1.516-0.397,2.668-1.265,3.464-2.568
		c0.793-1.314,1.188-2.926,1.188-4.778c0-1.865-0.399-3.481-1.193-4.776c-0.795-1.32-1.963-2.18-3.459-2.577l-0.209,0.598
		c1.215,0.397,2.103,1.165,2.691,2.328c0.58,1.153,0.87,2.579,0.87,4.35v0.002C217.3,9.487,217,10.961,216.427,12.148z"/>
	<path d="M226.818,4.423c-0.189-0.215-0.461-0.323-0.772-0.323c-0.397,0-0.78,0.101-1.071,0.313
		c-0.316,0.208-0.742,0.537-1.188,1.053l0.442,0.435c0.311-0.342,0.535-0.607,0.733-0.705C225.141,5.064,225.286,5,225.471,5
		c0.146,0,0.223,0.034,0.318,0.139c0.068,0.092,0.072,0.213,0.102,0.445c0,0.268-0.063,0.639-0.172,1.139l-0.002-0.003l-1.133,4.877
		h1.344l0.737-3.342c0.108-0.479,0.219-0.899,0.419-1.208c0.171-0.327,0.376-0.677,0.68-1.011c0.282-0.349,0.527-0.628,0.801-0.78
		c0.25-0.172,0.463-0.259,0.701-0.259c0.271,0,0.447,0.065,0.584,0.233c0.118,0.157,0.168,0.412,0.178,0.767
		c0,0.144-0.043,0.311-0.059,0.563c-0.037,0.23-0.129,0.575-0.244,1.068l-0.342,1.33c-0.171,0.646-0.265,1.126-0.256,1.47
		c0,0.369,0.091,0.659,0.303,0.911c0.201,0.239,0.459,0.358,0.807,0.358c0.426,0,0.779-0.134,1.135-0.328
		c0.331-0.218,0.707-0.575,1.164-1.037l-0.442-0.435c-0.321,0.352-0.585,0.584-0.745,0.715c-0.176,0.124-0.359,0.186-0.496,0.186
		c-0.146,0-0.263-0.066-0.319-0.137c-0.067-0.092-0.111-0.247-0.101-0.445c0-0.229,0.055-0.636,0.209-1.183l0.506-2.011
		c0.149-0.593,0.201-1.067,0.225-1.373c0-0.485-0.157-0.869-0.389-1.14c-0.258-0.273-0.652-0.411-1.109-0.411
		c-0.486,0-0.979,0.168-1.417,0.515c-0.458,0.343-0.942,0.838-1.448,1.581l-0.092-0.008c0.124-0.339,0.186-0.668,0.186-0.92
		C227.102,4.921,227.002,4.631,226.818,4.423z"/>
	<polygon points="238.92,0.5 233.3,14.9 234.5,14.9 240.105,0.5 	"/>
	<path d="M249.271,0.499h-0.457l-1.948,0.1l-0.095,0.4c0.275,0.015,0.451,0.015,0.57,0.078c0.106,0.037,0.158,0.077,0.245,0.175
		c0.058,0.081,0.062,0.196,0.086,0.355c0,0.155-0.024,0.319-0.047,0.547c-0.03,0.207-0.073,0.389-0.108,0.566l-0.404,1.801
		c-0.279-0.156-0.584-0.297-0.819-0.327c-0.267-0.063-0.563-0.096-0.872-0.096c-0.751,0-1.458,0.234-2.042,0.705
		c-0.61,0.468-1.104,1.101-1.44,1.923c-0.35,0.813-0.528,1.638-0.523,2.541c0,0.771,0.128,1.348,0.469,1.795
		c0.313,0.425,0.752,0.638,1.325,0.638c0.496,0,0.96-0.166,1.412-0.5c0.444-0.335,0.903-0.868,1.412-1.58l0.001-0.002l0.102,0.016
		c-0.119,0.32-0.199,0.608-0.18,0.905c0,0.35,0.081,0.604,0.287,0.842c0.191,0.212,0.443,0.317,0.77,0.317
		c0.377,0,0.707-0.134,1.055-0.309c0.326-0.206,0.703-0.57,1.203-1.058l-0.441-0.434c-0.321,0.351-0.598,0.584-0.745,0.714
		c-0.176,0.124-0.371,0.186-0.497,0.186c-0.145,0-0.273-0.065-0.318-0.139c-0.067-0.092-0.123-0.246-0.101-0.448
		c0-0.258,0.043-0.662,0.17-1.145L249.271,0.499z M246.555,6.898V6.9l-0.07,0.33c-0.088,0.432-0.217,0.789-0.319,1.106
		c-0.124,0.306-0.278,0.562-0.403,0.795c-0.145,0.224-0.332,0.412-0.478,0.667c-0.173,0.223-0.368,0.389-0.528,0.563
		c-0.178,0.153-0.363,0.233-0.516,0.336c-0.166,0.069-0.346,0.103-0.489,0.103c-0.347,0-0.597-0.133-0.742-0.396
		c-0.147-0.265-0.25-0.666-0.22-1.2c0-0.715,0.104-1.449,0.361-2.152c0.24-0.72,0.557-1.304,0.988-1.716
		c0.42-0.424,0.875-0.636,1.422-0.636c0.399,0,0.68,0.065,0.855,0.272c0.17,0.183,0.232,0.458,0.256,0.875
		C246.672,6.177,246.615,6.494,246.555,6.898z"/>
	<path d="M0.114,46.677L0.611,46.8l0.714-0.494l0.002,0.001c0.533,0.33,1.125,0.494,1.833,0.494c0.755,0,1.436-0.267,2.048-0.719
		c0.612-0.48,1.076-1.141,1.433-1.947c0.344-0.816,0.498-1.662,0.517-2.495c0-0.774-0.185-1.388-0.47-1.8
		c-0.313-0.426-0.775-0.639-1.316-0.639c-0.44,0-0.896,0.133-1.32,0.447c-0.439,0.3-0.924,0.783-1.413,1.453l-0.102-0.03l1.367-5.47
		h-0.45l-1.964,0.1l-0.094,0.4c0.341,0.011,0.576,0.043,0.709,0.146c0.132,0.087,0.197,0.238,0.198,0.456
		c0,0.237-0.068,0.602-0.178,1.142L0.114,46.677z M2.55,42.227c0.186-0.381,0.402-0.756,0.722-1.112
		c0.296-0.362,0.538-0.634,0.805-0.778C4.318,40.179,4.558,40.1,4.81,40.1c0.337,0,0.566,0.135,0.733,0.402
		c0.153,0.268,0.205,0.666,0.23,1.2c0,0.396-0.058,0.795-0.125,1.245C5.566,43.38,5.45,43.765,5.3,44.167
		c-0.15,0.379-0.317,0.69-0.494,0.958c-0.178,0.259-0.381,0.451-0.566,0.628c-0.199,0.16-0.413,0.242-0.586,0.344
		C3.462,46.166,3.244,46.2,3.048,46.2c-0.414,0-0.73-0.101-0.889-0.27c-0.178-0.18-0.298-0.491-0.267-0.878
		c0-0.339,0.036-0.689,0.117-1.048l-0.001-0.001l0.069-0.323C2.205,43.09,2.346,42.596,2.55,42.227z"/>
	<rect x="13.656" y="43.3" width="9.566" height="1"/>
	<rect x="13.656" y="40.1" width="9.566" height="1"/>
	<path d="M30.2,42.854c0,1.87,0.366,3.452,1.189,4.777c0.793,1.315,1.93,2.171,3.464,2.569l0.187-0.599
		c-1.196-0.397-2.109-1.197-2.667-2.355c-0.582-1.172-0.873-2.688-0.873-4.469v-0.002c0-1.746,0.266-3.205,0.873-4.351
		c0.582-1.153,1.458-1.963,2.691-2.328l-0.211-0.598c-1.51,0.397-2.695,1.231-3.459,2.577C30.598,39.396,30.2,40.971,30.2,42.854z"
		/>
	<path d="M36.458,40.086c-0.182,0.163-0.367,0.301-0.513,0.495l0.373,0.434c0.094-0.092,0.188-0.196,0.303-0.298
		c0.108-0.105,0.201-0.211,0.337-0.298c0.116-0.094,0.231-0.2,0.345-0.229c0.115-0.06,0.214-0.09,0.319-0.09
		c0.124,0,0.184,0.033,0.264,0.156c0.052,0.104,0.057,0.218,0.078,0.396c0,0.052-0.021,0.101-0.02,0.245
		c-0.012,0.111-0.06,0.211-0.05,0.353l-0.327,2.153c-0.056,0.342-0.112,0.674-0.139,1.019c-0.037,0.337-0.079,0.629-0.055,0.947
		c0,0.223,0.009,0.399,0.039,0.614c0.026,0.187,0.055,0.325,0.131,0.485c0.062,0.138,0.115,0.215,0.245,0.319
		c0.101,0.075,0.206,0.113,0.377,0.113l0.005-0.004c0.336,0,0.648-0.1,1.012-0.204c0.34-0.139,0.648-0.337,1.002-0.556
		c0.33-0.231,0.637-0.512,0.953-0.816c0.305-0.312,0.562-0.653,0.861-0.998c0.269-0.354,0.506-0.729,0.737-1.092
		c0.223-0.375,0.413-0.752,0.575-1.098c0.16-0.355,0.26-0.702,0.373-1.014c0.088-0.321,0.13-0.628,0.133-0.854
		c0-0.324-0.102-0.613-0.248-0.777c-0.166-0.194-0.453-0.291-0.808-0.291c-0.191,0-0.408,0.033-0.589,0.117
		c-0.203,0.078-0.424,0.173-0.588,0.312c-0.189,0.13-0.381,0.254-0.536,0.453c-0.168,0.172-0.315,0.344-0.438,0.538l0.442,0.395
		c0.197-0.272,0.382-0.512,0.57-0.661c0.184-0.17,0.38-0.254,0.603-0.254c0.171,0,0.265,0.033,0.377,0.153
		c0.08,0.101,0.115,0.217,0.12,0.433c0,0.433-0.071,0.836-0.214,1.288c-0.143,0.429-0.343,0.804-0.556,1.22
		c-0.229,0.384-0.509,0.72-0.77,1.072c-0.284,0.331-0.576,0.609-0.853,0.858c-0.285,0.241-0.559,0.399-0.816,0.57
		c-0.259,0.137-0.494,0.206-0.644,0.206c-0.072,0-0.126-0.101-0.147-0.203c-0.026-0.137-0.065-0.335-0.039-0.534
		c0-0.219,0.008-0.474,0.045-0.756c0.031-0.285,0.057-0.588,0.117-0.875l0.434-2.841c0.01-0.058-0.014-0.12,0.022-0.188
		c0.005-0.068,0.006-0.169,0.008-0.212c0-0.126-0.035-0.256-0.039-0.381c-0.025-0.129-0.081-0.265-0.144-0.353
		c-0.07-0.106-0.178-0.226-0.291-0.259c-0.124-0.065-0.301-0.098-0.481-0.098c-0.233,0-0.483,0.034-0.683,0.122
		c-0.224,0.08-0.446,0.173-0.638,0.32C36.83,39.775,36.621,39.895,36.458,40.086z"/>
	<path d="M44.855,44.693c-0.161,0.143-0.346,0.312-0.547,0.527l0.387,0.369c0.113-0.117,0.213-0.247,0.305-0.305
		c0.091-0.088,0.157-0.184,0.252-0.216c0.078-0.058,0.128-0.114,0.219-0.128c0.068-0.028,0.111-0.043,0.209-0.043
		c0.227,0,0.334,0.135,0.341,0.414c0,0.102-0.041,0.23-0.055,0.427c-0.036,0.182-0.091,0.368-0.133,0.608
		c-0.053,0.226-0.13,0.442-0.169,0.702c-0.06,0.243-0.148,0.459-0.17,0.697c-0.053,0.222-0.118,0.407-0.134,0.604
		c-0.035,0.181-0.055,0.297-0.053,0.424c0,0.395,0.098,0.67,0.303,0.908C45.811,49.895,46.108,50,46.512,50
		c0.382,0,0.744-0.133,1.102-0.372c0.354-0.248,0.715-0.624,1.091-1.116l-0.003-0.002l0.069,0.023
		c-0.031,0.074-0.055,0.129-0.063,0.234c-0.012,0.08-0.048,0.157-0.017,0.241c0,0.306,0.069,0.535,0.23,0.724
		c0.153,0.176,0.345,0.264,0.637,0.264c0.15,0,0.264-0.033,0.438-0.062c0.141-0.039,0.275-0.119,0.427-0.197
		c0.144-0.092,0.269-0.239,0.453-0.354c0.158-0.143,0.332-0.338,0.522-0.514l-0.391-0.373c-0.113,0.124-0.217,0.224-0.306,0.32
		c-0.09,0.088-0.192,0.148-0.253,0.217c-0.077,0.056-0.16,0.078-0.217,0.125c-0.068,0.025-0.145,0.039-0.209,0.039
		c-0.118,0-0.226-0.033-0.255-0.096c-0.052-0.063-0.108-0.198-0.078-0.312c0-0.104,0.003-0.236,0.028-0.384
		c0.018-0.151,0.045-0.354,0.095-0.514l0.872-3.692h-1.113l-0.623,2.825c-0.068,0.253-0.184,0.477-0.32,0.766
		c-0.145,0.257-0.321,0.46-0.495,0.7c-0.185,0.209-0.396,0.378-0.581,0.511c-0.201,0.131-0.419,0.197-0.569,0.197
		c-0.196,0-0.357-0.067-0.428-0.166c-0.089-0.11-0.14-0.288-0.133-0.503c0-0.181,0.026-0.49,0.125-0.849
		c0.084-0.386,0.168-0.847,0.341-1.35c0.071-0.251,0.109-0.496,0.152-0.68c0.03-0.204,0.017-0.389,0.045-0.553
		c0-0.304-0.095-0.57-0.244-0.728c-0.162-0.181-0.409-0.272-0.65-0.272c-0.162,0-0.326,0-0.453,0.059
		c-0.14,0.038-0.286,0.085-0.425,0.188C45.168,44.434,44.996,44.518,44.855,44.693z"/>
	<path d="M57.752,42.836C57.92,43.012,58.136,43.1,58.4,43.1c0.263,0,0.463-0.1,0.647-0.264c0.169-0.177,0.253-0.422,0.253-0.686
		c0-0.28-0.1-0.53-0.253-0.685C58.879,41.289,58.663,41.2,58.4,41.2c-0.263,0-0.496,0.067-0.648,0.266
		c-0.168,0.177-0.252,0.388-0.252,0.685C57.5,42.431,57.567,42.646,57.752,42.836z"/>
	<path d="M65.117,41.015c0.094-0.092,0.188-0.196,0.303-0.298c0.108-0.105,0.201-0.211,0.337-0.298
		c0.116-0.094,0.231-0.2,0.345-0.229c0.115-0.06,0.214-0.09,0.319-0.09c0.124,0,0.184,0.033,0.264,0.156
		c0.052,0.104,0.057,0.218,0.078,0.396c0,0.052-0.021,0.101-0.02,0.245c-0.012,0.111-0.061,0.211-0.05,0.353l-0.327,2.153
		c-0.056,0.342-0.112,0.674-0.139,1.019c-0.037,0.337-0.079,0.629-0.055,0.947c0,0.223,0.009,0.399,0.039,0.614
		c0.026,0.187,0.055,0.325,0.131,0.485c0.062,0.138,0.115,0.215,0.245,0.319c0.101,0.075,0.206,0.113,0.377,0.113l0.005-0.004
		c0.336,0,0.648-0.1,1.012-0.204c0.34-0.139,0.648-0.337,1.002-0.556c0.329-0.231,0.637-0.512,0.952-0.816
		c0.305-0.312,0.562-0.653,0.861-0.998c0.269-0.354,0.506-0.729,0.737-1.092c0.223-0.375,0.414-0.752,0.575-1.098
		c0.16-0.355,0.26-0.702,0.372-1.014c0.088-0.321,0.13-0.628,0.133-0.854c0-0.324-0.102-0.613-0.248-0.777
		c-0.166-0.194-0.453-0.291-0.808-0.291c-0.191,0-0.408,0.033-0.589,0.117c-0.203,0.078-0.424,0.173-0.588,0.312
		c-0.189,0.13-0.381,0.254-0.536,0.453c-0.168,0.172-0.315,0.344-0.438,0.538l0.442,0.395c0.197-0.272,0.382-0.512,0.57-0.661
		c0.184-0.17,0.38-0.254,0.603-0.254c0.171,0,0.265,0.033,0.377,0.153c0.08,0.101,0.115,0.217,0.12,0.433
		c0,0.433-0.071,0.836-0.214,1.288c-0.143,0.429-0.343,0.804-0.556,1.22c-0.228,0.384-0.509,0.72-0.769,1.072
		c-0.284,0.331-0.576,0.609-0.853,0.858c-0.285,0.241-0.559,0.399-0.816,0.57c-0.259,0.137-0.494,0.206-0.644,0.206
		c-0.072,0-0.126-0.101-0.147-0.203c-0.026-0.137-0.065-0.335-0.039-0.534c0-0.219,0.008-0.474,0.045-0.756
		c0.031-0.285,0.057-0.588,0.117-0.875l0.434-2.841c0.01-0.058-0.014-0.12,0.022-0.188c0.005-0.068,0.006-0.169,0.008-0.212
		c0-0.126-0.035-0.256-0.039-0.381c-0.025-0.129-0.081-0.265-0.144-0.353c-0.07-0.106-0.178-0.226-0.291-0.259
		c-0.124-0.065-0.301-0.098-0.481-0.098c-0.233,0-0.483,0.034-0.683,0.122c-0.224,0.08-0.446,0.173-0.638,0.32
		c-0.201,0.133-0.41,0.252-0.573,0.443c-0.182,0.163-0.367,0.301-0.513,0.495L65.117,41.015z"/>
	<path d="M73.992,49.516C74.238,49.839,74.574,50,75.036,50c0.196,0,0.384-0.034,0.566-0.086c0.181-0.057,0.347-0.161,0.537-0.27
		c0.178-0.123,0.332-0.305,0.539-0.469c0.181-0.188,0.354-0.447,0.561-0.687l0.002-0.001l0.08,0.033
		c-0.053,0.156-0.093,0.315-0.08,0.488c0,0.308,0.054,0.537,0.227,0.726c0.15,0.176,0.362,0.264,0.634,0.264
		c0.15,0,0.284-0.034,0.434-0.062c0.14-0.041,0.262-0.119,0.427-0.196c0.146-0.091,0.292-0.239,0.45-0.351
		c0.155-0.141,0.318-0.339,0.517-0.509c-0.061-0.062-0.137-0.157-0.188-0.188c-0.065-0.064-0.146-0.162-0.188-0.195
		c-0.117,0.124-0.234,0.224-0.314,0.32c-0.093,0.088-0.206,0.148-0.254,0.217c-0.078,0.056-0.172,0.078-0.216,0.125
		c-0.065,0.025-0.155,0.039-0.198,0.039c-0.109,0-0.199-0.033-0.253-0.096c-0.059-0.064-0.098-0.198-0.088-0.311
		c0-0.105-0.01-0.236,0.028-0.362c0.019-0.138,0.033-0.314,0.103-0.521l0.853-3.691l-0.459-0.116l-0.547,0.391
		c-0.19-0.121-0.426-0.219-0.627-0.286c-0.228-0.07-0.522-0.104-0.791-0.104c-0.282,0-0.579,0.032-0.82,0.144
		c-0.264,0.096-0.521,0.214-0.748,0.406c-0.232,0.174-0.474,0.356-0.645,0.628c-0.196,0.244-0.388,0.483-0.506,0.811
		c-0.143,0.297-0.266,0.6-0.33,0.955c-0.078,0.339-0.125,0.69-0.116,1.059C73.625,48.721,73.716,49.188,73.992,49.516z
		 M74.818,47.27c0.044-0.259,0.105-0.515,0.192-0.755c0.084-0.243,0.182-0.482,0.312-0.694c0.123-0.221,0.25-0.428,0.422-0.58
		c0.159-0.167,0.311-0.314,0.527-0.396c0.192-0.097,0.369-0.145,0.623-0.145c0.305,0,0.507,0.032,0.67,0.192
		c0.141,0.129,0.186,0.33,0.212,0.638c0,0.167-0.025,0.323-0.045,0.53c-0.03,0.185-0.074,0.364-0.125,0.622
		c-0.117,0.501-0.319,0.907-0.527,1.304c-0.233,0.367-0.526,0.673-0.848,0.936c-0.132,0.096-0.276,0.156-0.378,0.211
		c-0.118,0.045-0.27,0.067-0.37,0.067c-0.256,0-0.451-0.101-0.558-0.292c-0.115-0.195-0.189-0.498-0.173-0.895
		C74.752,47.776,74.768,47.505,74.818,47.27z"/>
	<path d="M84.23,38.427c0.58,1.154,0.87,2.579,0.87,4.351v0.002c0,1.808-0.3,3.281-0.873,4.469
		c-0.582,1.172-1.491,1.958-2.666,2.355l0.186,0.599c1.516-0.398,2.668-1.265,3.464-2.569c0.793-1.313,1.189-2.925,1.189-4.777
		c0-1.865-0.4-3.482-1.194-4.777c-0.795-1.32-1.963-2.18-3.459-2.577l-0.209,0.598C82.753,36.497,83.641,37.264,84.23,38.427z"/>
	<path d="M92.028,41c0.311-0.341,0.535-0.607,0.734-0.705c0.178-0.13,0.324-0.195,0.508-0.195c0.146,0,0.223,0.034,0.319,0.14
		c0.068,0.091,0.072,0.212,0.102,0.444c0,0.268-0.064,0.64-0.172,1.14l-0.002-0.003l-1.133,4.877h1.344l0.737-3.342
		c0.108-0.479,0.219-0.899,0.419-1.209c0.171-0.326,0.376-0.677,0.68-1.011c0.282-0.348,0.527-0.628,0.8-0.78
		c0.25-0.172,0.463-0.259,0.702-0.259c0.27,0,0.447,0.066,0.583,0.234c0.119,0.157,0.169,0.412,0.178,0.766
		c0,0.145-0.043,0.312-0.058,0.563c-0.038,0.23-0.129,0.576-0.245,1.068l-0.341,1.33c-0.17,0.647-0.265,1.127-0.256,1.471
		c0,0.369,0.091,0.658,0.302,0.91c0.202,0.239,0.459,0.358,0.808,0.358c0.425,0,0.779-0.133,1.134-0.328
		c0.331-0.218,0.707-0.575,1.164-1.037l-0.442-0.434c-0.321,0.351-0.585,0.584-0.745,0.714c-0.176,0.124-0.359,0.186-0.497,0.186
		c-0.146,0-0.262-0.065-0.319-0.137c-0.067-0.092-0.111-0.247-0.1-0.444c0-0.23,0.055-0.637,0.209-1.184l0.505-2.011
		c0.15-0.592,0.201-1.067,0.225-1.373c0-0.485-0.157-0.869-0.389-1.139c-0.258-0.274-0.652-0.411-1.109-0.411
		c-0.487,0-0.978,0.167-1.417,0.514c-0.458,0.343-0.943,0.838-1.448,1.581l-0.092-0.008c0.124-0.338,0.186-0.667,0.186-0.919
		c0-0.347-0.1-0.638-0.284-0.845c-0.189-0.216-0.461-0.323-0.772-0.323c-0.398,0-0.78,0.1-1.072,0.312
		c-0.316,0.208-0.741,0.537-1.188,1.054L92.028,41z"/>
	<polygon points="102.3,50 107.906,35.6 106.72,35.6 101.1,50 	"/>
	<path d="M109.685,46.162c0.313,0.425,0.752,0.638,1.325,0.638c0.496,0,0.96-0.166,1.412-0.5c0.444-0.335,0.903-0.868,1.412-1.58
		l0.001-0.002l0.102,0.017c-0.12,0.319-0.199,0.607-0.18,0.904c0,0.351,0.081,0.604,0.287,0.842
		c0.192,0.213,0.444,0.317,0.769,0.317c0.378,0,0.707-0.133,1.056-0.308c0.326-0.206,0.703-0.571,1.203-1.059l-0.442-0.434
		c-0.321,0.351-0.597,0.584-0.745,0.714c-0.176,0.124-0.371,0.187-0.497,0.187c-0.145,0-0.274-0.066-0.319-0.14
		c-0.067-0.092-0.123-0.246-0.1-0.448c0-0.258,0.043-0.662,0.17-1.145l1.933-8.567h-0.458l-1.948,0.101l-0.094,0.399
		c0.275,0.016,0.45,0.016,0.57,0.078c0.106,0.037,0.158,0.077,0.245,0.175c0.057,0.081,0.061,0.196,0.086,0.355
		c0,0.156-0.025,0.32-0.047,0.547c-0.031,0.207-0.073,0.389-0.109,0.567l-0.403,1.8c-0.28-0.156-0.585-0.296-0.82-0.327
		c-0.266-0.063-0.564-0.095-0.872-0.095c-0.751,0-1.458,0.233-2.042,0.705c-0.611,0.468-1.104,1.1-1.441,1.923
		c-0.349,0.812-0.528,1.637-0.523,2.541C109.216,45.138,109.344,45.715,109.685,46.162z M110.95,42.152
		c0.241-0.721,0.557-1.305,0.989-1.717c0.42-0.424,0.874-0.636,1.422-0.636c0.399,0,0.679,0.066,0.855,0.273
		c0.17,0.182,0.232,0.458,0.256,0.875c0,0.329-0.057,0.646-0.117,1.05L114.354,42l-0.07,0.331c-0.088,0.431-0.216,0.788-0.319,1.106
		c-0.124,0.306-0.279,0.561-0.403,0.795c-0.145,0.223-0.332,0.412-0.478,0.666c-0.173,0.223-0.368,0.39-0.528,0.563
		c-0.178,0.154-0.364,0.234-0.516,0.336c-0.166,0.069-0.346,0.104-0.489,0.104c-0.347,0-0.597-0.134-0.742-0.397
		c-0.147-0.264-0.25-0.666-0.22-1.2C110.589,43.589,110.693,42.855,110.95,42.152z"/>
	<path d="M138.018,43.085l0.691-2.983h2.359l0.172-0.801h-2.361l0.428-1.899h-1.07c-0.166,0.531-0.311,0.897-0.373,1.116
		c-0.082,0.211-0.17,0.373-0.256,0.524c-0.088,0.137-0.19,0.223-0.291,0.315c-0.106,0.073-0.246,0.121-0.397,0.174
		c-0.157,0.041-0.397,0.064-0.694,0.07l-0.117,0.5h1.306l-0.916,3.991c-0.089,0.379-0.154,0.715-0.134,1.084
		c0,1.082,0.512,1.623,1.623,1.623c0.455,0,0.861-0.133,1.309-0.372c0.416-0.248,0.818-0.656,1.301-1.152l-0.451-0.476
		c-0.353,0.402-0.668,0.668-0.912,0.853c-0.256,0.165-0.502,0.248-0.726,0.248c-0.534,0-0.803-0.333-0.8-0.953
		c0-0.153-0.003-0.369,0.053-0.612C137.797,44.081,137.876,43.636,138.018,43.085z"/>
	<rect x="147.057" y="43.3" width="9.565" height="1"/>
	<rect x="147.057" y="40.1" width="9.565" height="1"/>
	<path d="M164.889,47.631c0.795,1.315,1.93,2.171,3.465,2.569l0.187-0.599c-1.196-0.397-2.108-1.197-2.667-2.355
		c-0.582-1.172-0.873-2.688-0.873-4.469v-0.002c0-1.746,0.266-3.205,0.873-4.351c0.582-1.153,1.458-1.963,2.691-2.328l-0.211-0.598
		c-1.511,0.397-2.695,1.231-3.459,2.577c-0.797,1.32-1.194,2.895-1.194,4.777C163.7,44.724,164.066,46.306,164.889,47.631z"/>
	<path d="M169.816,41.015c0.095-0.092,0.188-0.196,0.304-0.298c0.108-0.105,0.2-0.211,0.337-0.298c0.116-0.094,0.23-0.2,0.345-0.229
		c0.115-0.06,0.214-0.09,0.319-0.09c0.124,0,0.184,0.033,0.264,0.156c0.053,0.104,0.057,0.218,0.078,0.396
		c0,0.052-0.021,0.101-0.02,0.245c-0.012,0.111-0.061,0.211-0.051,0.353l-0.326,2.153c-0.057,0.342-0.112,0.674-0.14,1.019
		c-0.036,0.337-0.079,0.629-0.055,0.947c0,0.223,0.009,0.399,0.039,0.614c0.026,0.187,0.055,0.325,0.131,0.485
		c0.062,0.138,0.115,0.215,0.245,0.319c0.102,0.075,0.206,0.113,0.377,0.113l0.005-0.004c0.336,0,0.647-0.1,1.013-0.204
		c0.34-0.139,0.647-0.337,1.002-0.556c0.328-0.231,0.637-0.512,0.951-0.816c0.305-0.312,0.562-0.653,0.861-0.998
		c0.27-0.354,0.506-0.729,0.736-1.092c0.224-0.375,0.414-0.752,0.576-1.098c0.159-0.355,0.26-0.702,0.371-1.014
		c0.088-0.321,0.131-0.628,0.133-0.854c0-0.324-0.102-0.613-0.248-0.777c-0.166-0.194-0.453-0.291-0.808-0.291
		c-0.19,0-0.407,0.033-0.589,0.117c-0.203,0.078-0.424,0.173-0.588,0.312c-0.189,0.13-0.381,0.254-0.536,0.453
		c-0.168,0.172-0.315,0.344-0.438,0.538l0.442,0.395c0.197-0.272,0.382-0.512,0.57-0.661c0.184-0.17,0.38-0.254,0.603-0.254
		c0.172,0,0.266,0.033,0.377,0.153c0.08,0.101,0.115,0.217,0.12,0.433c0,0.433-0.071,0.836-0.214,1.288
		c-0.143,0.429-0.343,0.804-0.556,1.22c-0.228,0.384-0.509,0.72-0.769,1.072c-0.285,0.331-0.576,0.609-0.854,0.858
		c-0.285,0.241-0.559,0.399-0.816,0.57c-0.259,0.137-0.494,0.206-0.644,0.206c-0.072,0-0.126-0.101-0.147-0.203
		c-0.025-0.137-0.064-0.335-0.039-0.534c0-0.219,0.008-0.474,0.045-0.756c0.031-0.285,0.058-0.588,0.117-0.875l0.434-2.841
		c0.011-0.058-0.014-0.12,0.023-0.188c0.006-0.068,0.006-0.169,0.008-0.212c0-0.126-0.035-0.256-0.039-0.381
		c-0.024-0.129-0.08-0.265-0.144-0.353c-0.069-0.106-0.179-0.226-0.291-0.259c-0.124-0.065-0.301-0.098-0.481-0.098
		c-0.232,0-0.482,0.034-0.683,0.122c-0.224,0.08-0.446,0.173-0.638,0.32c-0.201,0.133-0.41,0.252-0.573,0.443
		c-0.183,0.163-0.367,0.301-0.513,0.495L169.816,41.015z"/>
	<path d="M178.193,45.59c0.113-0.117,0.215-0.247,0.306-0.305c0.091-0.088,0.157-0.184,0.252-0.216
		c0.078-0.058,0.128-0.114,0.22-0.128c0.067-0.028,0.11-0.043,0.209-0.043c0.227,0,0.334,0.135,0.34,0.414
		c0,0.102-0.041,0.23-0.055,0.427c-0.035,0.182-0.091,0.368-0.133,0.608c-0.053,0.226-0.13,0.442-0.169,0.702
		c-0.06,0.243-0.147,0.459-0.17,0.697c-0.054,0.222-0.118,0.407-0.134,0.604c-0.035,0.181-0.055,0.297-0.053,0.424
		c0,0.395,0.098,0.67,0.303,0.908c0.201,0.211,0.498,0.316,0.902,0.316c0.383,0,0.744-0.133,1.102-0.372
		c0.354-0.248,0.716-0.624,1.092-1.116l-0.003-0.002l0.069,0.023c-0.031,0.074-0.056,0.129-0.063,0.234
		c-0.013,0.08-0.048,0.157-0.017,0.241c0,0.306,0.068,0.535,0.229,0.724c0.153,0.176,0.345,0.264,0.638,0.264
		c0.149,0,0.264-0.033,0.437-0.062c0.142-0.039,0.274-0.119,0.427-0.197c0.145-0.092,0.27-0.239,0.453-0.354
		c0.158-0.143,0.332-0.338,0.521-0.514l-0.391-0.373c-0.113,0.124-0.217,0.224-0.306,0.32c-0.091,0.088-0.192,0.148-0.253,0.217
		c-0.077,0.056-0.16,0.078-0.217,0.125c-0.068,0.025-0.146,0.039-0.209,0.039c-0.119,0-0.227-0.033-0.256-0.096
		c-0.052-0.063-0.107-0.198-0.078-0.312c0-0.104,0.004-0.236,0.028-0.384c0.019-0.151,0.046-0.354,0.095-0.514l0.873-3.692h-1.115
		l-0.623,2.825c-0.067,0.253-0.184,0.477-0.319,0.766c-0.146,0.257-0.321,0.46-0.495,0.7c-0.186,0.209-0.396,0.378-0.581,0.511
		c-0.2,0.131-0.419,0.197-0.569,0.197c-0.195,0-0.356-0.067-0.428-0.166c-0.089-0.11-0.14-0.288-0.133-0.503
		c0-0.181,0.025-0.49,0.125-0.849c0.084-0.386,0.168-0.847,0.342-1.35c0.07-0.251,0.108-0.496,0.151-0.68
		c0.03-0.204,0.017-0.389,0.045-0.553c0-0.304-0.095-0.57-0.244-0.728c-0.162-0.181-0.409-0.272-0.649-0.272
		c-0.162,0-0.326,0-0.453,0.059c-0.141,0.038-0.286,0.085-0.426,0.188c-0.143,0.088-0.314,0.172-0.455,0.348
		c-0.162,0.143-0.347,0.312-0.547,0.527L178.193,45.59z"/>
	<path d="M190.9,42.15c0,0.28,0.066,0.496,0.252,0.686c0.168,0.176,0.384,0.264,0.647,0.264c0.263,0,0.464-0.1,0.647-0.264
		c0.169-0.177,0.253-0.422,0.253-0.686c0-0.28-0.101-0.53-0.253-0.685c-0.168-0.177-0.385-0.266-0.647-0.266
		s-0.495,0.067-0.647,0.266C190.984,41.643,190.9,41.854,190.9,42.15z"/>
	<path d="M205.057,39.197c-0.19,0-0.408,0.033-0.589,0.117c-0.202,0.078-0.424,0.173-0.588,0.312
		c-0.188,0.13-0.381,0.254-0.536,0.453c-0.168,0.172-0.314,0.344-0.438,0.538l0.441,0.395c0.197-0.272,0.383-0.512,0.57-0.661
		c0.184-0.17,0.38-0.254,0.604-0.254c0.17,0,0.265,0.033,0.377,0.153c0.08,0.101,0.115,0.217,0.119,0.433
		c0,0.433-0.07,0.836-0.213,1.288c-0.144,0.429-0.344,0.804-0.557,1.22c-0.229,0.384-0.51,0.72-0.77,1.072
		c-0.283,0.331-0.576,0.609-0.853,0.858c-0.285,0.241-0.56,0.399-0.815,0.57c-0.26,0.137-0.494,0.206-0.645,0.206
		c-0.072,0-0.126-0.101-0.146-0.203c-0.026-0.137-0.065-0.335-0.039-0.534c0-0.219,0.008-0.474,0.045-0.756
		c0.031-0.285,0.057-0.588,0.117-0.875l0.434-2.841c0.01-0.058-0.014-0.12,0.023-0.188c0.004-0.068,0.006-0.169,0.008-0.212
		c0-0.126-0.035-0.256-0.039-0.381c-0.025-0.129-0.082-0.265-0.145-0.353c-0.07-0.106-0.178-0.226-0.291-0.259
		c-0.124-0.065-0.301-0.098-0.48-0.098c-0.233,0-0.483,0.034-0.684,0.122c-0.224,0.08-0.445,0.173-0.638,0.32
		c-0.201,0.133-0.41,0.252-0.573,0.443c-0.182,0.163-0.367,0.301-0.513,0.495l0.372,0.434c0.094-0.092,0.188-0.196,0.303-0.298
		c0.107-0.105,0.201-0.211,0.337-0.298c0.116-0.094,0.231-0.2,0.345-0.229c0.115-0.06,0.215-0.09,0.319-0.09
		c0.124,0,0.185,0.033,0.265,0.156c0.051,0.104,0.057,0.218,0.078,0.396c0,0.052-0.021,0.101-0.021,0.245
		c-0.013,0.111-0.06,0.211-0.05,0.353l-0.327,2.153c-0.056,0.342-0.112,0.674-0.14,1.019c-0.037,0.337-0.078,0.629-0.055,0.947
		c0,0.223,0.01,0.399,0.039,0.614c0.025,0.187,0.055,0.325,0.131,0.485c0.062,0.138,0.115,0.215,0.245,0.319
		c0.101,0.075,0.206,0.113,0.377,0.113l0.005-0.004c0.336,0,0.648-0.1,1.012-0.204c0.34-0.139,0.648-0.337,1.002-0.556
		c0.33-0.231,0.638-0.512,0.953-0.816c0.305-0.312,0.562-0.653,0.86-0.998c0.269-0.354,0.506-0.729,0.737-1.092
		c0.223-0.375,0.412-0.752,0.574-1.098c0.16-0.355,0.261-0.702,0.373-1.014c0.088-0.321,0.129-0.628,0.133-0.854
		c0-0.324-0.102-0.613-0.248-0.777C205.699,39.294,205.412,39.197,205.057,39.197z"/>
	<path d="M208.518,46.479c0.094-0.25,0.188-0.51,0.34-0.698c0.133-0.218,0.246-0.41,0.439-0.566c0.16-0.161,0.328-0.299,0.52-0.378
		c0.188-0.091,0.382-0.136,0.588-0.136c0.128,0.004,0.227,0.004,0.324,0.053c0.09,0.031,0.146,0.08,0.217,0.159
		c0.055,0.075,0.074,0.17,0.119,0.305c0.024,0.128,0.037,0.289,0.041,0.483l0.002,0.001h0.668l0.316-1.414
		c-0.253-0.062-0.516-0.124-0.732-0.139c-0.236-0.03-0.522-0.045-0.767-0.045c-0.329,0-0.659,0.032-0.942,0.142
		c-0.297,0.093-0.58,0.212-0.832,0.397c-0.256,0.172-0.495,0.358-0.695,0.616c-0.207,0.238-0.415,0.486-0.536,0.795
		c-0.149,0.291-0.278,0.574-0.342,0.935c-0.08,0.331-0.128,0.668-0.119,1.031c0,0.635,0.125,1.096,0.467,1.467
		c0.312,0.343,0.747,0.514,1.345,0.514c0.47,0,0.89-0.1,1.314-0.3c0.408-0.2,0.791-0.534,1.223-0.916
		c-0.072-0.075-0.164-0.169-0.207-0.224c-0.065-0.072-0.154-0.16-0.207-0.223c-0.184,0.182-0.371,0.302-0.506,0.456
		c-0.152,0.122-0.304,0.191-0.445,0.297c-0.143,0.075-0.312,0.112-0.44,0.161c-0.151,0.032-0.341,0.048-0.494,0.048
		c-0.317,0-0.575-0.133-0.714-0.313c-0.159-0.21-0.246-0.539-0.238-0.919c0-0.27,0.026-0.559,0.077-0.809
		C208.352,46.989,208.417,46.702,208.518,46.479z"/>
	<path d="M216.43,38.427c0.58,1.154,0.87,2.579,0.87,4.351v0.002c0,1.808-0.3,3.281-0.873,4.469
		c-0.581,1.172-1.491,1.958-2.665,2.355l0.186,0.599c1.516-0.398,2.668-1.265,3.464-2.569c0.793-1.313,1.188-2.925,1.188-4.777
		c0-1.865-0.399-3.482-1.193-4.777c-0.795-1.32-1.963-2.18-3.459-2.577l-0.209,0.598C214.953,36.497,215.841,37.264,216.43,38.427z"
		/>
	<path d="M224.229,41c0.311-0.341,0.535-0.607,0.733-0.705c0.179-0.13,0.324-0.195,0.509-0.195c0.146,0,0.223,0.034,0.318,0.14
		c0.068,0.091,0.072,0.212,0.102,0.444c0,0.268-0.063,0.64-0.172,1.14l-0.002-0.003l-1.133,4.877h1.344l0.737-3.342
		c0.108-0.479,0.219-0.899,0.419-1.209c0.171-0.326,0.376-0.677,0.68-1.011c0.282-0.348,0.527-0.628,0.801-0.78
		c0.25-0.172,0.463-0.259,0.701-0.259c0.271,0,0.447,0.066,0.584,0.234c0.118,0.157,0.168,0.412,0.178,0.766
		c0,0.145-0.043,0.312-0.059,0.563c-0.037,0.23-0.129,0.576-0.244,1.068l-0.342,1.33c-0.171,0.647-0.265,1.127-0.256,1.471
		c0,0.369,0.091,0.658,0.303,0.91c0.201,0.239,0.459,0.358,0.807,0.358c0.426,0,0.779-0.133,1.135-0.328
		c0.331-0.218,0.707-0.575,1.164-1.037l-0.442-0.434c-0.321,0.351-0.585,0.584-0.745,0.714c-0.176,0.124-0.359,0.186-0.496,0.186
		c-0.146,0-0.263-0.065-0.319-0.137c-0.067-0.092-0.111-0.247-0.101-0.444c0-0.23,0.055-0.637,0.209-1.184l0.506-2.011
		c0.149-0.592,0.201-1.067,0.225-1.373c0-0.485-0.157-0.869-0.389-1.139c-0.258-0.274-0.652-0.411-1.109-0.411
		c-0.486,0-0.979,0.167-1.417,0.514c-0.458,0.343-0.942,0.838-1.448,1.581l-0.092-0.008c0.124-0.338,0.186-0.667,0.186-0.919
		c0-0.347-0.1-0.638-0.283-0.845c-0.189-0.216-0.461-0.323-0.772-0.323c-0.397,0-0.78,0.1-1.071,0.312
		c-0.316,0.208-0.742,0.537-1.188,1.054L224.229,41z"/>
	<polygon points="234.5,50 240.105,35.6 238.92,35.6 233.3,50 	"/>
	<path d="M247.518,37.821l-0.404,1.8c-0.279-0.156-0.584-0.296-0.819-0.327c-0.267-0.063-0.563-0.095-0.872-0.095
		c-0.751,0-1.458,0.233-2.042,0.705c-0.61,0.468-1.104,1.1-1.44,1.923c-0.35,0.812-0.528,1.637-0.523,2.541
		c0,0.77,0.128,1.347,0.469,1.794c0.313,0.425,0.752,0.638,1.325,0.638c0.496,0,0.96-0.166,1.412-0.5
		c0.444-0.335,0.903-0.868,1.412-1.58l0.001-0.002l0.102,0.017c-0.119,0.319-0.199,0.607-0.18,0.904
		c0,0.351,0.081,0.604,0.287,0.842c0.191,0.213,0.443,0.317,0.77,0.317c0.377,0,0.707-0.133,1.055-0.308
		c0.326-0.206,0.703-0.571,1.203-1.059l-0.441-0.434c-0.321,0.351-0.598,0.584-0.745,0.714c-0.176,0.124-0.371,0.187-0.497,0.187
		c-0.145,0-0.273-0.066-0.318-0.14c-0.067-0.092-0.123-0.246-0.101-0.448c0-0.258,0.043-0.662,0.17-1.145l1.933-8.567h-0.457
		l-1.948,0.101l-0.095,0.399c0.275,0.016,0.451,0.016,0.57,0.078c0.106,0.037,0.158,0.077,0.245,0.175
		c0.058,0.081,0.062,0.196,0.086,0.355c0,0.156-0.024,0.32-0.047,0.547C247.596,37.461,247.553,37.643,247.518,37.821z
		 M246.555,41.998V42l-0.07,0.331c-0.088,0.431-0.217,0.788-0.319,1.106c-0.124,0.306-0.278,0.561-0.403,0.795
		c-0.145,0.223-0.332,0.412-0.478,0.666c-0.173,0.223-0.368,0.39-0.528,0.563c-0.178,0.154-0.363,0.234-0.516,0.336
		c-0.166,0.069-0.346,0.104-0.489,0.104c-0.347,0-0.597-0.134-0.742-0.397c-0.147-0.264-0.25-0.666-0.22-1.2
		c0-0.715,0.104-1.448,0.361-2.151c0.24-0.721,0.557-1.305,0.988-1.717c0.42-0.424,0.875-0.636,1.422-0.636
		c0.399,0,0.68,0.066,0.855,0.273c0.17,0.182,0.232,0.458,0.256,0.875C246.672,41.277,246.615,41.594,246.555,41.998z"/>
</g>
</svg>
