<?xml version="1.0" encoding="utf-8"?>
<!-- Generator: Adobe Illustrator 15.1.0, SVG Export Plug-In . SVG Version: 6.00 Build 0)  -->
<!DOCTYPE svg PUBLIC "-//W3C//DTD SVG 1.1 Tiny//EN" "http://www.w3.org/Graphics/SVG/1.1/DTD/svg11-tiny.dtd">
<svg version="1.1" baseProfile="tiny" id="Layer_1" xmlns="http://www.w3.org/2000/svg" xmlns:xlink="http://www.w3.org/1999/xlink"
	 x="0px" y="0px" width="191px" height="71px" viewBox="0 0 191 71" overflow="inherit" xml:space="preserve">
<g>
	<path fill="none" d="M171.378,9.333c0.289,0.767,0.804,1.167,1.464,1.167c0.615,0,1.096-0.366,1.4-1.098
		c0.291-0.734,0.458-1.869,0.458-3.406c0-1.207-0.078-2.126-0.234-2.854c-0.178-0.741-0.373-1.25-0.651-1.566
		c-0.283-0.341-0.615-0.475-1.012-0.475c-0.361,0-0.66,0.104-0.902,0.313c-0.241,0.205-0.437,0.511-0.586,0.905
		c-0.152,0.387-0.252,0.871-0.315,1.436c-0.062,0.546-0.095,1.202-0.095,1.911l0.002-0.001
		C170.904,7.311,171.062,8.554,171.378,9.333z"/>
	<path fill="none" d="M171.378,28.433c0.289,0.768,0.804,1.167,1.464,1.167c0.615,0,1.096-0.365,1.4-1.098
		c0.291-0.734,0.458-1.869,0.458-3.406c0-1.207-0.078-2.126-0.234-2.853c-0.178-0.742-0.373-1.25-0.651-1.567
		c-0.283-0.341-0.615-0.475-1.012-0.475c-0.361,0-0.66,0.104-0.902,0.313c-0.241,0.205-0.437,0.512-0.586,0.905
		c-0.152,0.387-0.252,0.871-0.315,1.436c-0.062,0.547-0.095,1.202-0.095,1.912l0.002-0.002
		C170.904,26.41,171.062,27.654,171.378,28.433z"/>
	<path fill="none" d="M141.113,58.977c-0.282-0.342-0.614-0.476-1.01-0.476c-0.361,0-0.66,0.104-0.902,0.313
		c-0.242,0.205-0.438,0.512-0.586,0.905c-0.153,0.388-0.254,0.871-0.316,1.437c-0.062,0.546-0.094,1.201-0.094,1.911l0.001-0.001
		c-0.002,1.644,0.157,2.888,0.472,3.666c0.289,0.768,0.805,1.168,1.465,1.168c0.614,0,1.096-0.366,1.399-1.099
		c0.291-0.733,0.458-1.869,0.458-3.405c0-1.207-0.078-2.127-0.234-2.854C141.588,59.801,141.393,59.293,141.113,58.977z"/>
	<path fill="none" d="M171.378,47.533c0.289,0.767,0.804,1.167,1.464,1.167c0.615,0,1.096-0.366,1.4-1.099
		c0.291-0.733,0.458-1.869,0.458-3.405c0-1.207-0.078-2.126-0.234-2.854c-0.178-0.741-0.373-1.25-0.651-1.566
		c-0.283-0.341-0.615-0.476-1.012-0.476c-0.361,0-0.66,0.105-0.902,0.314c-0.241,0.205-0.437,0.511-0.586,0.904
		c-0.152,0.388-0.252,0.871-0.315,1.437c-0.062,0.546-0.095,1.202-0.095,1.911l0.002-0.001
		C170.904,45.51,171.062,46.754,171.378,47.533z"/>
	<path fill="none" d="M60.614,58.977c-0.283-0.342-0.615-0.476-1.011-0.476c-0.361,0-0.66,0.104-0.902,0.313
		c-0.242,0.205-0.437,0.512-0.586,0.905c-0.153,0.388-0.252,0.871-0.316,1.437c-0.062,0.546-0.094,1.201-0.094,1.911l0.001-0.001
		c-0.002,1.644,0.157,2.888,0.472,3.666c0.289,0.768,0.804,1.168,1.464,1.168c0.615,0,1.096-0.366,1.4-1.099
		c0.291-0.733,0.458-1.869,0.458-3.405c0-1.207-0.078-2.127-0.234-2.854C61.088,59.801,60.893,59.293,60.614,58.977z"/>
	<path fill="none" d="M100.514,58.977c-0.283-0.342-0.615-0.476-1.011-0.476c-0.36,0-0.66,0.104-0.901,0.313
		c-0.242,0.205-0.438,0.512-0.587,0.905c-0.152,0.388-0.253,0.871-0.315,1.437c-0.062,0.546-0.094,1.201-0.094,1.91
		c-0.002,1.644,0.157,2.888,0.473,3.666c0.289,0.768,0.804,1.168,1.464,1.168c0.615,0,1.097-0.366,1.399-1.099
		c0.291-0.733,0.459-1.869,0.459-3.405c0-1.207-0.078-2.127-0.234-2.854C100.988,59.801,100.793,59.293,100.514,58.977z"/>
	<path d="M3.066,32.217l-1.32,5.955c-0.113,0.511-0.229,0.854-0.256,1.033c-0.056,0.178-0.12,0.309-0.186,0.453
		c-0.066,0.125-0.168,0.205-0.248,0.291c-0.098,0.068-0.249,0.119-0.441,0.149l-0.086,0.4h2.717l0.086-0.4
		c-0.274-0.021-0.484-0.088-0.586-0.175c-0.117-0.096-0.198-0.271-0.175-0.494c0-0.314,0.043-0.725,0.162-1.212l0.792-3.592
		c0.218-0.99,0.41-2.065,0.591-3.228H4.27c0.115,1.203,0.191,2.136,0.311,2.866l0.644,5.034h0.847l3.533-5.859
		c0.563-0.94,0.896-1.588,1.086-1.871H10.8c-0.187,0.641-0.353,1.251-0.497,1.93L9.27,38.17c-0.113,0.511-0.203,0.854-0.256,1.034
		c-0.058,0.178-0.129,0.31-0.188,0.453c-0.066,0.125-0.175,0.205-0.248,0.291C8.48,40.018,8.321,40.069,8.137,40.1l-0.086,0.4h3.106
		l0.084-0.4c-0.274-0.02-0.488-0.087-0.586-0.173c-0.117-0.096-0.202-0.271-0.175-0.494c0-0.144,0.006-0.32,0.031-0.482
		c0.021-0.179,0.051-0.429,0.133-0.726l1.327-6.016c0.11-0.495,0.186-0.865,0.269-1.073c0.069-0.219,0.123-0.397,0.209-0.483
		c0.07-0.104,0.121-0.187,0.233-0.231c0.085-0.052,0.225-0.126,0.423-0.141l0.084-0.38h-2.445v-0.002l-4.527,7.567l-0.884-7.567
		H2.561l-0.086,0.4c0.264,0.016,0.439,0.049,0.578,0.167c0.122,0.095,0.17,0.239,0.183,0.506c0,0.206-0.045,0.382-0.047,0.611
		C3.159,31.784,3.096,31.989,3.066,32.217z"/>
	<rect x="19.256" y="37.1" width="9.566" height="1"/>
	<rect x="19.256" y="33.9" width="9.566" height="1"/>
	<polygon points="36.6,2.302 39.7,2.302 39.7,1.602 35,1.602 35,17.901 36.6,17.901 	"/>
	<polygon points="36.6,20.8 36.6,17.901 35,17.901 34.97,17.901 34.97,34.401 36.6,34.401 	"/>
	<polygon points="36.6,51.102 36.6,37.4 36.6,34.401 34.97,34.401 34.97,37.4 34.97,53.9 35,53.9 35,51.102 	"/>
	<polygon points="36.6,51.102 35,51.102 35,53.9 35,70.4 39.7,70.4 39.7,69.7 36.6,69.7 36.6,53.9 	"/>
	<path d="M51.642,7.93l0.434-2.841c0.01-0.057-0.014-0.12,0.022-0.187c0.005-0.068,0.006-0.17,0.008-0.213
		c0-0.125-0.035-0.256-0.039-0.381c-0.025-0.129-0.081-0.265-0.144-0.352c-0.07-0.107-0.178-0.227-0.291-0.259
		C51.509,3.633,51.332,3.6,51.152,3.6c-0.233,0-0.483,0.034-0.683,0.122c-0.224,0.08-0.446,0.173-0.638,0.32
		c-0.201,0.133-0.41,0.252-0.573,0.444c-0.182,0.162-0.367,0.301-0.513,0.494l0.372,0.435c0.094-0.092,0.188-0.197,0.303-0.298
		c0.108-0.106,0.201-0.211,0.337-0.298c0.116-0.095,0.231-0.2,0.345-0.23C50.217,4.53,50.316,4.5,50.421,4.5
		c0.124,0,0.184,0.033,0.264,0.156c0.052,0.103,0.057,0.218,0.078,0.395c0,0.053-0.021,0.102-0.02,0.245
		c-0.012,0.112-0.061,0.212-0.05,0.353l-0.327,2.153c-0.056,0.343-0.112,0.675-0.139,1.02c-0.037,0.337-0.079,0.629-0.055,0.946
		c0,0.224,0.009,0.4,0.039,0.614c0.026,0.188,0.055,0.326,0.131,0.486c0.062,0.138,0.115,0.215,0.245,0.319
		c0.101,0.074,0.206,0.112,0.377,0.112l0.005-0.003c0.336,0,0.648-0.1,1.012-0.205c0.34-0.138,0.648-0.336,1.002-0.555
		c0.329-0.232,0.637-0.512,0.952-0.817c0.305-0.312,0.562-0.652,0.861-0.998c0.269-0.354,0.506-0.729,0.737-1.092
		c0.223-0.375,0.414-0.752,0.575-1.097c0.16-0.356,0.26-0.702,0.372-1.014c0.088-0.321,0.13-0.629,0.133-0.854
		c0-0.325-0.102-0.614-0.248-0.778c-0.166-0.193-0.453-0.291-0.808-0.291c-0.191,0-0.408,0.033-0.589,0.117
		c-0.203,0.079-0.424,0.173-0.588,0.313c-0.189,0.13-0.381,0.254-0.536,0.453c-0.168,0.172-0.315,0.344-0.438,0.537l0.442,0.396
		c0.197-0.273,0.382-0.512,0.57-0.662c0.184-0.169,0.38-0.253,0.603-0.253c0.171,0,0.265,0.033,0.377,0.153
		c0.08,0.101,0.115,0.217,0.12,0.433c0,0.432-0.071,0.836-0.214,1.288c-0.143,0.428-0.343,0.803-0.556,1.219
		c-0.228,0.384-0.509,0.72-0.769,1.073c-0.284,0.331-0.576,0.609-0.853,0.857c-0.285,0.241-0.559,0.4-0.816,0.57
		c-0.259,0.137-0.494,0.206-0.644,0.206c-0.072,0-0.126-0.1-0.147-0.203c-0.026-0.136-0.065-0.335-0.039-0.534
		c0-0.219,0.008-0.474,0.045-0.756C51.556,8.52,51.582,8.217,51.642,7.93z"/>
	<path d="M59.61,8.776c-0.152-0.184-0.389-0.275-0.647-0.275c-0.152,0-0.306,0-0.438,0.063c-0.14,0.043-0.281,0.088-0.425,0.2
		c-0.143,0.091-0.309,0.202-0.45,0.349c-0.156,0.141-0.34,0.303-0.517,0.508l0.391,0.369c0.113-0.117,0.205-0.247,0.306-0.305
		c0.09-0.089,0.147-0.184,0.248-0.217c0.076-0.057,0.117-0.113,0.219-0.128c0.069-0.028,0.137-0.042,0.212-0.042
		c0.222,0,0.319,0.134,0.333,0.413c0,0.099-0.014,0.194-0.031,0.363c-0.02,0.143-0.057,0.317-0.109,0.541l0.002-0.001l-0.85,3.684
		h1.111l0.577-2.703c0.041-0.193,0.095-0.392,0.187-0.578c0.083-0.191,0.174-0.397,0.292-0.544c0.111-0.171,0.205-0.329,0.353-0.473
		c0.125-0.146,0.235-0.279,0.377-0.377c0.127-0.106,0.244-0.214,0.359-0.245c0.113-0.057,0.211-0.084,0.302-0.08
		c0.147,0,0.244,0.034,0.336,0.139c0.078,0.094,0.096,0.248,0.145,0.461h0.656l0.287-1.321c-0.117-0.022-0.262-0.048-0.364-0.056
		C62.346,8.507,62.189,8.5,62.067,8.5c-0.382,0-0.771,0.1-1.113,0.361c-0.36,0.24-0.745,0.586-1.114,1.127l-0.078-0.034
		c0.052-0.132,0.065-0.284,0.078-0.455C59.84,9.201,59.76,8.934,59.61,8.776z"/>
	<path d="M64.889,12.891c-0.125,0.144-0.253,0.245-0.308,0.334c-0.082,0.081-0.175,0.139-0.202,0.178
		c-0.053,0.037-0.112,0.035-0.139,0.071c-0.04,0.012-0.086,0.02-0.122,0.023c-0.114,0-0.186-0.101-0.186-0.3h-0.483l-0.259,1.098
		c0.139,0.068,0.277,0.102,0.503,0.102c0.136,0,0.24-0.032,0.372-0.033c0.111-0.023,0.191-0.078,0.325-0.125
		c0.106-0.061,0.21-0.174,0.323-0.247c0.109-0.104,0.205-0.27,0.367-0.397c0.136-0.162,0.277-0.359,0.456-0.58
		c0.169-0.225,0.357-0.496,0.592-0.792h0.062c0.004,0.046,0.008,0.104,0.025,0.208c0.013,0.094,0.008,0.183,0.053,0.316
		c0.023,0.117,0.034,0.234,0.086,0.377c0.034,0.134,0.05,0.259,0.112,0.389c0.041,0.125,0.086,0.221,0.136,0.351
		c0.05,0.107,0.082,0.186,0.159,0.258c0.083,0.106,0.163,0.166,0.294,0.219c0.113,0.039,0.229,0.06,0.386,0.06
		c0.166,0,0.286-0.034,0.442-0.051c0.128-0.031,0.233-0.115,0.373-0.187c0.12-0.093,0.235-0.247,0.373-0.383
		c0.129-0.163,0.252-0.391,0.441-0.627l-0.423-0.278c-0.098,0.159-0.214,0.267-0.255,0.383c-0.072,0.096-0.169,0.143-0.195,0.221
		c-0.058,0.051-0.124,0.059-0.17,0.1c-0.054,0.015-0.13,0.021-0.178,0.021c-0.086,0-0.17-0.033-0.232-0.074
		c-0.068-0.051-0.14-0.159-0.203-0.323c-0.068-0.164-0.139-0.431-0.213-0.712c-0.074-0.312-0.174-0.74-0.264-1.241
		c0.201-0.254,0.356-0.504,0.533-0.661c0.155-0.188,0.266-0.35,0.414-0.473c0.121-0.129,0.193-0.234,0.314-0.314
		c0.088-0.08,0.156-0.146,0.234-0.187c0.069-0.044,0.125-0.082,0.177-0.089C68.656,9.508,68.687,9.5,68.742,9.5
		c0.109,0,0.161,0.1,0.181,0.3h0.47l0.283-1.188c-0.156-0.072-0.348-0.109-0.516-0.109c-0.128,0-0.248-0.001-0.348,0.028
		c-0.104,0.019-0.208,0.042-0.302,0.104c-0.098,0.051-0.201,0.106-0.303,0.219c-0.104,0.095-0.239,0.211-0.352,0.369
		c-0.13,0.151-0.282,0.311-0.445,0.557c-0.166,0.22-0.37,0.46-0.588,0.777h-0.073c-0.065-0.328-0.148-0.647-0.183-0.877
		c-0.056-0.256-0.145-0.482-0.214-0.645c-0.087-0.175-0.204-0.32-0.328-0.397c-0.132-0.091-0.307-0.136-0.509-0.136
		c-0.175,0-0.347,0-0.463,0.062c-0.135,0.043-0.286,0.088-0.383,0.207c-0.121,0.096-0.245,0.205-0.369,0.386
		c-0.124,0.161-0.291,0.342-0.417,0.591l0.437,0.284c0.091-0.151,0.15-0.295,0.241-0.369c0.069-0.094,0.116-0.183,0.192-0.22
		c0.058-0.054,0.107-0.101,0.169-0.111c0.055-0.02,0.115-0.031,0.18-0.031c0.067,0.004,0.1,0.004,0.178,0.045
		c0.051,0.026,0.091,0.045,0.141,0.133c0.044,0.062,0.07,0.137,0.128,0.25c0.041,0.105,0.058,0.229,0.128,0.409
		c0.043,0.167,0.084,0.354,0.141,0.601c0.051,0.232,0.079,0.486,0.18,0.822L66,11.558c-0.254,0.317-0.486,0.563-0.652,0.798
		C65.167,12.57,64.985,12.717,64.889,12.891z"/>
	<path d="M90.725,8.805c0.031-0.285,0.057-0.588,0.117-0.875l0.434-2.841c0.01-0.057-0.014-0.12,0.022-0.187
		c0.005-0.068,0.006-0.17,0.008-0.213c0-0.125-0.035-0.256-0.039-0.381c-0.025-0.129-0.081-0.265-0.144-0.352
		c-0.07-0.107-0.178-0.227-0.291-0.259C90.709,3.633,90.532,3.6,90.352,3.6c-0.233,0-0.483,0.034-0.683,0.122
		c-0.224,0.08-0.446,0.173-0.638,0.32c-0.201,0.133-0.41,0.252-0.573,0.444c-0.182,0.162-0.367,0.301-0.513,0.494l0.373,0.435
		c0.094-0.092,0.188-0.197,0.303-0.298c0.108-0.106,0.201-0.211,0.337-0.298c0.116-0.095,0.231-0.2,0.345-0.23
		C89.417,4.53,89.516,4.5,89.621,4.5c0.124,0,0.184,0.033,0.264,0.156c0.052,0.103,0.057,0.218,0.078,0.395
		c0,0.053-0.021,0.102-0.02,0.245c-0.012,0.112-0.06,0.212-0.05,0.353l-0.327,2.153c-0.056,0.343-0.112,0.675-0.139,1.02
		c-0.037,0.337-0.079,0.629-0.055,0.946c0,0.224,0.009,0.4,0.039,0.614c0.026,0.188,0.055,0.326,0.131,0.486
		c0.062,0.138,0.115,0.215,0.245,0.319c0.101,0.074,0.206,0.112,0.377,0.112l0.005-0.003c0.336,0,0.648-0.1,1.012-0.205
		c0.34-0.138,0.648-0.336,1.002-0.555c0.33-0.232,0.637-0.512,0.953-0.817c0.305-0.312,0.562-0.652,0.861-0.998
		c0.269-0.354,0.506-0.729,0.737-1.092c0.223-0.375,0.413-0.752,0.575-1.097c0.16-0.356,0.26-0.702,0.373-1.014
		c0.088-0.321,0.13-0.629,0.133-0.854c0-0.325-0.102-0.614-0.248-0.778c-0.166-0.193-0.453-0.291-0.808-0.291
		c-0.191,0-0.408,0.033-0.589,0.117c-0.203,0.079-0.424,0.173-0.588,0.313c-0.189,0.13-0.381,0.254-0.536,0.453
		c-0.168,0.172-0.315,0.344-0.438,0.537l0.442,0.396c0.197-0.273,0.382-0.512,0.57-0.662c0.184-0.169,0.38-0.253,0.603-0.253
		c0.171,0,0.265,0.033,0.377,0.153c0.08,0.101,0.115,0.217,0.12,0.433c0,0.432-0.071,0.836-0.214,1.288
		c-0.143,0.428-0.343,0.803-0.556,1.219c-0.229,0.384-0.509,0.72-0.77,1.073c-0.284,0.331-0.576,0.609-0.853,0.857
		c-0.285,0.241-0.559,0.4-0.816,0.57c-0.259,0.137-0.494,0.206-0.644,0.206c-0.072,0-0.126-0.1-0.147-0.203
		c-0.026-0.136-0.065-0.335-0.039-0.534C90.68,9.342,90.688,9.087,90.725,8.805z"/>
	<path d="M98.886,10.732c0.071-0.252,0.109-0.496,0.152-0.681c0.03-0.204,0.017-0.388,0.045-0.552c0-0.304-0.095-0.571-0.244-0.729
		C98.677,8.591,98.43,8.5,98.189,8.5c-0.162,0-0.326,0-0.453,0.058c-0.141,0.038-0.286,0.085-0.426,0.188
		c-0.143,0.088-0.314,0.172-0.456,0.347c-0.161,0.144-0.346,0.312-0.547,0.528l0.387,0.369c0.113-0.117,0.213-0.247,0.305-0.305
		c0.091-0.089,0.157-0.184,0.252-0.217c0.078-0.057,0.128-0.113,0.219-0.128c0.068-0.028,0.111-0.042,0.209-0.042
		c0.228,0,0.334,0.134,0.341,0.413c0,0.103-0.041,0.231-0.055,0.427c-0.036,0.183-0.091,0.369-0.133,0.609
		c-0.053,0.225-0.13,0.441-0.169,0.702c-0.06,0.243-0.148,0.459-0.17,0.696c-0.054,0.223-0.118,0.407-0.134,0.605
		c-0.035,0.18-0.056,0.296-0.054,0.423c0,0.396,0.099,0.67,0.304,0.909c0.201,0.211,0.498,0.316,0.902,0.316
		c0.383,0,0.744-0.133,1.103-0.372c0.354-0.248,0.715-0.624,1.091-1.116l-0.003-0.002l0.069,0.022
		c-0.031,0.075-0.056,0.13-0.063,0.234c-0.013,0.081-0.048,0.158-0.017,0.242c0,0.306,0.068,0.535,0.229,0.723
		c0.153,0.176,0.345,0.265,0.638,0.265c0.149,0,0.264-0.033,0.437-0.062c0.142-0.04,0.274-0.119,0.427-0.198
		c0.145-0.092,0.27-0.239,0.453-0.353c0.158-0.144,0.332-0.338,0.521-0.514l-0.391-0.373c-0.113,0.123-0.217,0.224-0.306,0.319
		c-0.091,0.088-0.192,0.149-0.253,0.217c-0.077,0.057-0.16,0.078-0.217,0.125c-0.068,0.026-0.146,0.039-0.209,0.039
		c-0.119,0-0.227-0.032-0.256-0.095c-0.052-0.064-0.107-0.199-0.078-0.312c0-0.104,0.004-0.235,0.028-0.384
		c0.019-0.15,0.046-0.353,0.095-0.514l0.873-3.692h-1.115l-0.623,2.825c-0.067,0.253-0.184,0.478-0.319,0.767
		c-0.146,0.257-0.321,0.46-0.495,0.699c-0.185,0.209-0.396,0.379-0.581,0.512c-0.201,0.131-0.419,0.196-0.569,0.196
		c-0.195,0-0.356-0.066-0.428-0.166c-0.089-0.109-0.14-0.288-0.133-0.503c0-0.18,0.026-0.49,0.125-0.848
		C98.629,11.696,98.713,11.235,98.886,10.732z"/>
	<path d="M105.488,12.891c-0.123,0.144-0.252,0.245-0.307,0.334c-0.082,0.081-0.176,0.139-0.203,0.178
		c-0.053,0.037-0.111,0.035-0.139,0.071c-0.04,0.012-0.086,0.02-0.122,0.023c-0.114,0-0.186-0.101-0.186-0.3h-0.483l-0.259,1.098
		c0.14,0.068,0.276,0.102,0.503,0.102c0.137,0,0.24-0.032,0.372-0.033c0.11-0.023,0.19-0.078,0.325-0.125
		c0.105-0.061,0.21-0.174,0.322-0.247c0.109-0.104,0.205-0.27,0.367-0.397c0.137-0.162,0.277-0.359,0.457-0.58
		c0.168-0.225,0.356-0.496,0.592-0.792h0.062c0.004,0.046,0.008,0.104,0.024,0.208c0.014,0.094,0.009,0.183,0.054,0.316
		c0.022,0.117,0.034,0.234,0.086,0.377c0.034,0.134,0.05,0.259,0.112,0.389c0.041,0.125,0.086,0.221,0.136,0.351
		c0.05,0.107,0.082,0.186,0.159,0.258c0.082,0.106,0.162,0.166,0.293,0.219c0.113,0.039,0.229,0.06,0.387,0.06
		c0.166,0,0.286-0.034,0.441-0.051c0.129-0.031,0.233-0.115,0.373-0.187c0.121-0.093,0.235-0.247,0.373-0.383
		c0.129-0.163,0.252-0.391,0.441-0.627l-0.423-0.278c-0.099,0.159-0.214,0.267-0.255,0.383c-0.072,0.096-0.169,0.143-0.195,0.221
		c-0.059,0.051-0.124,0.059-0.17,0.1c-0.054,0.015-0.13,0.021-0.178,0.021c-0.088,0-0.17-0.033-0.233-0.074
		c-0.067-0.051-0.14-0.159-0.202-0.323c-0.068-0.164-0.14-0.431-0.214-0.712c-0.073-0.312-0.174-0.74-0.264-1.241
		c0.2-0.254,0.356-0.504,0.532-0.661c0.156-0.188,0.267-0.35,0.414-0.473c0.121-0.129,0.193-0.234,0.314-0.314
		c0.088-0.08,0.156-0.146,0.234-0.187c0.068-0.044,0.125-0.082,0.177-0.089c0.048-0.016,0.079-0.023,0.134-0.023
		c0.109,0,0.161,0.1,0.182,0.3h0.47l0.282-1.188c-0.155-0.072-0.348-0.109-0.516-0.109c-0.128,0-0.248-0.001-0.348,0.028
		c-0.104,0.019-0.208,0.042-0.303,0.104c-0.098,0.051-0.2,0.106-0.303,0.219c-0.104,0.095-0.238,0.211-0.352,0.369
		c-0.13,0.151-0.282,0.311-0.445,0.557c-0.166,0.22-0.369,0.46-0.588,0.777h-0.072c-0.065-0.328-0.148-0.647-0.184-0.877
		c-0.057-0.256-0.145-0.482-0.214-0.645c-0.087-0.175-0.204-0.32-0.328-0.397c-0.132-0.091-0.308-0.136-0.509-0.136
		c-0.176,0-0.348,0-0.463,0.062c-0.135,0.043-0.286,0.088-0.383,0.207c-0.121,0.096-0.246,0.205-0.369,0.386
		c-0.125,0.161-0.291,0.342-0.418,0.591l0.437,0.284c0.091-0.151,0.151-0.295,0.241-0.369c0.068-0.094,0.115-0.183,0.191-0.22
		c0.059-0.054,0.107-0.101,0.17-0.111c0.055-0.02,0.115-0.031,0.18-0.031c0.066,0.004,0.1,0.004,0.178,0.045
		c0.051,0.026,0.092,0.045,0.141,0.133c0.045,0.062,0.07,0.137,0.129,0.25c0.041,0.105,0.058,0.229,0.127,0.409
		c0.045,0.167,0.086,0.354,0.142,0.601c0.051,0.232,0.079,0.486,0.181,0.822c-0.253,0.316-0.484,0.562-0.649,0.795
		C105.768,12.57,105.585,12.717,105.488,12.891z"/>
	<path d="M131.441,7.93l0.435-2.841c0.011-0.057-0.015-0.12,0.022-0.187c0.006-0.068,0.006-0.17,0.009-0.213
		c0-0.125-0.035-0.256-0.039-0.381c-0.025-0.129-0.081-0.265-0.144-0.352c-0.07-0.107-0.179-0.227-0.291-0.259
		c-0.125-0.065-0.302-0.099-0.481-0.099c-0.233,0-0.483,0.034-0.683,0.122c-0.225,0.08-0.446,0.173-0.639,0.32
		c-0.201,0.133-0.41,0.252-0.572,0.444c-0.183,0.162-0.367,0.301-0.514,0.494l0.372,0.435c0.095-0.092,0.188-0.197,0.304-0.298
		c0.107-0.106,0.2-0.211,0.336-0.298c0.116-0.095,0.231-0.2,0.346-0.23c0.115-0.059,0.214-0.089,0.318-0.089
		c0.125,0,0.184,0.033,0.264,0.156c0.053,0.103,0.058,0.218,0.078,0.395c0,0.053-0.021,0.102-0.02,0.245
		c-0.012,0.112-0.061,0.212-0.05,0.353l-0.327,2.153c-0.057,0.343-0.111,0.675-0.139,1.02c-0.037,0.337-0.079,0.629-0.055,0.946
		c0,0.224,0.008,0.4,0.039,0.614c0.025,0.188,0.055,0.326,0.131,0.486c0.062,0.138,0.114,0.215,0.244,0.319
		c0.102,0.074,0.206,0.112,0.377,0.112l0.006-0.003c0.336,0,0.647-0.1,1.012-0.205c0.34-0.138,0.648-0.336,1.002-0.555
		c0.328-0.232,0.637-0.512,0.951-0.817c0.306-0.312,0.562-0.652,0.861-0.998c0.27-0.354,0.506-0.729,0.737-1.092
		c0.224-0.375,0.413-0.752,0.575-1.097c0.16-0.356,0.26-0.702,0.371-1.014c0.089-0.321,0.131-0.629,0.134-0.854
		c0-0.325-0.103-0.614-0.248-0.778c-0.166-0.193-0.453-0.291-0.808-0.291c-0.191,0-0.408,0.033-0.59,0.117
		c-0.203,0.079-0.424,0.173-0.588,0.313c-0.188,0.13-0.381,0.254-0.535,0.453c-0.168,0.172-0.315,0.344-0.438,0.537l0.442,0.396
		c0.197-0.273,0.381-0.512,0.569-0.662c0.185-0.169,0.38-0.253,0.603-0.253c0.172,0,0.266,0.033,0.378,0.153
		c0.079,0.101,0.114,0.217,0.12,0.433c0,0.432-0.071,0.836-0.215,1.288c-0.143,0.428-0.342,0.803-0.556,1.219
		c-0.228,0.384-0.509,0.72-0.769,1.073c-0.284,0.331-0.576,0.609-0.854,0.857c-0.285,0.241-0.559,0.4-0.816,0.57
		c-0.258,0.137-0.493,0.206-0.644,0.206c-0.071,0-0.126-0.1-0.147-0.203c-0.025-0.136-0.064-0.335-0.039-0.534
		c0-0.219,0.009-0.474,0.046-0.756C131.355,8.52,131.382,8.217,131.441,7.93z"/>
	<path d="M139.639,9.495c0-0.299-0.08-0.565-0.23-0.722c-0.152-0.183-0.389-0.273-0.646-0.273c-0.156,0-0.31,0-0.443,0.064
		c-0.139,0.041-0.312,0.087-0.422,0.199c-0.141,0.09-0.307,0.202-0.447,0.349c-0.156,0.141-0.34,0.303-0.518,0.508l0.392,0.369
		c0.112-0.117,0.204-0.247,0.306-0.306c0.092-0.088,0.148-0.183,0.252-0.216c0.077-0.057,0.15-0.114,0.221-0.128
		c0.069-0.027,0.135-0.042,0.207-0.042c0.223,0,0.319,0.134,0.334,0.413c0,0.098-0.015,0.194-0.035,0.378
		c-0.021,0.154-0.058,0.324-0.105,0.525l-0.85,3.684h1.111l0.633-2.83c0.037-0.173,0.072-0.362,0.179-0.521
		c0.082-0.175,0.157-0.358,0.28-0.502c0.105-0.159,0.221-0.341,0.348-0.45c0.126-0.141,0.225-0.274,0.387-0.367
		c0.133-0.104,0.235-0.213,0.395-0.242c0.129-0.058,0.236-0.087,0.365-0.087c0.197,0,0.313,0.034,0.428,0.164
		c0.089,0.109,0.13,0.254,0.134,0.513c0,0.099-0.038,0.206-0.038,0.369c-0.025,0.148-0.082,0.301-0.102,0.508
		c-0.043,0.19-0.101,0.372-0.153,0.62c-0.06,0.224-0.132,0.433-0.188,0.7c-0.066,0.241-0.142,0.45-0.146,0.663
		c-0.031,0.202-0.06,0.356-0.048,0.527c0,0.151,0.021,0.264,0.068,0.416c0.045,0.125,0.076,0.232,0.191,0.327
		c0.083,0.092,0.15,0.156,0.297,0.216c0.116,0.053,0.217,0.08,0.378,0.08s0.304-0.033,0.456-0.067
		c0.145-0.045,0.268-0.123,0.434-0.205c0.146-0.093,0.293-0.234,0.451-0.35c0.155-0.142,0.317-0.334,0.51-0.506L143.63,12.9
		c-0.112,0.123-0.224,0.224-0.306,0.319c-0.092,0.088-0.199,0.149-0.25,0.218c-0.075,0.056-0.167,0.077-0.217,0.125
		c-0.07,0.025-0.156,0.039-0.213,0.039c-0.117,0-0.232-0.033-0.256-0.096c-0.052-0.064-0.082-0.199-0.078-0.311
		c0-0.038-0.004-0.135,0.051-0.286c0.035-0.154,0.047-0.357,0.13-0.558c0.053-0.22,0.089-0.47,0.17-0.715
		c0.06-0.257,0.106-0.535,0.17-0.752c0.053-0.245,0.076-0.473,0.13-0.677c0.035-0.207,0.047-0.376,0.053-0.484
		c0-0.388-0.104-0.695-0.299-0.901c-0.197-0.213-0.503-0.32-0.895-0.32c-0.381,0-0.756,0.1-1.108,0.373
		c-0.356,0.248-0.728,0.623-1.084,1.125V9.997l-0.08-0.028c0.034-0.074,0.052-0.165,0.07-0.236
		C139.631,9.648,139.625,9.538,139.639,9.495z"/>
	<path d="M146.089,12.891c-0.124,0.144-0.253,0.245-0.308,0.334c-0.082,0.081-0.176,0.139-0.202,0.178
		c-0.054,0.037-0.112,0.035-0.14,0.071c-0.039,0.012-0.086,0.02-0.121,0.023c-0.114,0-0.187-0.101-0.187-0.3h-0.483l-0.258,1.098
		c0.139,0.068,0.276,0.102,0.502,0.102c0.137,0,0.24-0.032,0.373-0.033c0.11-0.023,0.19-0.078,0.324-0.125
		c0.105-0.061,0.21-0.174,0.323-0.247c0.108-0.104,0.205-0.27,0.366-0.397c0.137-0.162,0.277-0.359,0.457-0.58
		c0.168-0.225,0.356-0.496,0.592-0.792h0.062c0.004,0.046,0.008,0.104,0.024,0.208c0.013,0.094,0.008,0.183,0.053,0.316
		c0.023,0.117,0.034,0.234,0.087,0.377c0.033,0.134,0.049,0.259,0.111,0.389c0.041,0.125,0.086,0.221,0.136,0.351
		c0.05,0.107,0.082,0.186,0.159,0.258c0.083,0.106,0.163,0.166,0.294,0.219c0.113,0.039,0.229,0.06,0.386,0.06
		c0.166,0,0.286-0.034,0.442-0.051c0.128-0.031,0.233-0.115,0.373-0.187c0.12-0.093,0.235-0.247,0.373-0.383
		c0.129-0.163,0.252-0.391,0.44-0.627l-0.422-0.278c-0.099,0.159-0.215,0.267-0.256,0.383c-0.072,0.096-0.169,0.143-0.195,0.221
		c-0.058,0.051-0.123,0.059-0.17,0.1c-0.054,0.015-0.129,0.021-0.178,0.021c-0.087,0-0.17-0.033-0.232-0.074
		c-0.068-0.051-0.141-0.159-0.203-0.323c-0.068-0.164-0.139-0.431-0.213-0.712c-0.074-0.312-0.174-0.74-0.264-1.241
		c0.2-0.254,0.355-0.504,0.532-0.661c0.155-0.188,0.267-0.35,0.414-0.473c0.121-0.129,0.192-0.234,0.313-0.314
		c0.088-0.08,0.156-0.146,0.234-0.187c0.069-0.044,0.125-0.082,0.178-0.089c0.047-0.016,0.078-0.023,0.133-0.023
		c0.109,0,0.162,0.1,0.182,0.3h0.47l0.283-1.188c-0.155-0.072-0.349-0.109-0.517-0.109c-0.127,0-0.248-0.001-0.348,0.028
		c-0.104,0.019-0.207,0.042-0.302,0.104c-0.099,0.051-0.201,0.106-0.303,0.219c-0.104,0.095-0.239,0.211-0.353,0.369
		c-0.13,0.151-0.281,0.311-0.445,0.557c-0.166,0.22-0.369,0.46-0.588,0.777h-0.072c-0.065-0.328-0.148-0.647-0.184-0.877
		c-0.056-0.256-0.145-0.482-0.214-0.645c-0.087-0.175-0.204-0.32-0.327-0.397c-0.133-0.091-0.308-0.136-0.51-0.136
		c-0.175,0-0.347,0-0.463,0.062c-0.135,0.043-0.286,0.088-0.383,0.207c-0.121,0.096-0.245,0.205-0.369,0.386
		c-0.124,0.161-0.291,0.342-0.417,0.591l0.437,0.284c0.09-0.151,0.15-0.295,0.24-0.369c0.069-0.094,0.116-0.183,0.192-0.22
		c0.058-0.054,0.106-0.101,0.169-0.111c0.055-0.02,0.115-0.031,0.18-0.031c0.067,0.004,0.1,0.004,0.178,0.045
		c0.051,0.026,0.092,0.045,0.142,0.133c0.044,0.062,0.069,0.137,0.128,0.25c0.041,0.105,0.059,0.229,0.128,0.409
		c0.044,0.167,0.085,0.354,0.142,0.601c0.051,0.232,0.078,0.486,0.18,0.822l0.003-0.003c-0.255,0.317-0.486,0.563-0.652,0.798
		C146.367,12.57,146.186,12.717,146.089,12.891z"/>
	<path d="M172.717,11.2L172.717,11.2c1.141,0,2.001-0.5,2.6-1.403c0.594-0.936,0.889-2.335,0.891-4.141
		c0-1.764-0.303-3.081-0.831-3.95c-0.554-0.87-1.413-1.306-2.533-1.306c-0.503,0-0.983,0.1-1.391,0.324
		c-0.425,0.218-0.81,0.543-1.093,1.002c-0.303,0.45-0.555,1.009-0.707,1.711c-0.168,0.69-0.252,1.479-0.252,2.459
		c0,1.784,0.267,3.084,0.818,3.989C170.766,10.762,171.592,11.2,172.717,11.2z M170.999,3.756c0.063-0.564,0.163-1.049,0.315-1.436
		c0.149-0.395,0.345-0.7,0.586-0.905c0.242-0.209,0.541-0.313,0.902-0.313c0.396,0,0.729,0.134,1.012,0.475
		c0.278,0.316,0.474,0.825,0.651,1.566c0.156,0.728,0.234,1.646,0.234,2.854c0,1.537-0.167,2.672-0.458,3.406
		c-0.305,0.731-0.785,1.098-1.4,1.098c-0.66,0-1.175-0.4-1.464-1.167c-0.315-0.779-0.474-2.022-0.472-3.667l-0.002,0.001
		C170.904,4.958,170.938,4.302,170.999,3.756z"/>
	<path d="M48.917,24.515c0.094-0.092,0.188-0.196,0.303-0.298c0.108-0.105,0.201-0.211,0.337-0.298
		c0.116-0.094,0.231-0.2,0.345-0.229c0.115-0.06,0.214-0.09,0.319-0.09c0.124,0,0.184,0.033,0.264,0.156
		c0.052,0.104,0.057,0.218,0.078,0.396c0,0.052-0.021,0.101-0.02,0.245c-0.012,0.111-0.06,0.211-0.05,0.353l-0.327,2.153
		c-0.056,0.342-0.112,0.674-0.139,1.019c-0.037,0.337-0.079,0.629-0.055,0.947c0,0.223,0.009,0.399,0.039,0.614
		c0.026,0.187,0.055,0.325,0.131,0.485c0.062,0.138,0.115,0.215,0.245,0.319c0.101,0.075,0.206,0.113,0.377,0.113l0.005-0.004
		c0.336,0,0.648-0.1,1.012-0.204c0.34-0.139,0.648-0.337,1.002-0.556c0.33-0.231,0.637-0.512,0.953-0.816
		c0.305-0.312,0.562-0.653,0.861-0.998c0.269-0.354,0.506-0.729,0.737-1.092c0.223-0.375,0.413-0.752,0.575-1.098
		c0.16-0.355,0.26-0.702,0.373-1.014c0.088-0.321,0.13-0.628,0.133-0.854c0-0.324-0.102-0.613-0.248-0.777
		c-0.166-0.194-0.453-0.291-0.808-0.291c-0.191,0-0.408,0.033-0.589,0.117c-0.203,0.078-0.424,0.173-0.588,0.312
		c-0.189,0.13-0.381,0.254-0.536,0.453c-0.168,0.172-0.315,0.344-0.438,0.538l0.442,0.395c0.197-0.272,0.382-0.512,0.57-0.661
		c0.184-0.17,0.38-0.254,0.604-0.254c0.171,0,0.265,0.033,0.377,0.153c0.08,0.101,0.115,0.217,0.12,0.433
		c0,0.433-0.071,0.836-0.214,1.288c-0.143,0.429-0.343,0.804-0.556,1.22c-0.228,0.384-0.509,0.72-0.769,1.072
		c-0.284,0.331-0.576,0.609-0.853,0.858c-0.285,0.241-0.559,0.399-0.816,0.57c-0.259,0.137-0.494,0.206-0.645,0.206
		c-0.072,0-0.126-0.101-0.146-0.203c-0.026-0.137-0.065-0.335-0.039-0.534c0-0.219,0.008-0.474,0.045-0.756
		c0.031-0.285,0.057-0.588,0.117-0.875l0.434-2.841c0.01-0.058-0.014-0.12,0.023-0.188c0.005-0.068,0.006-0.169,0.008-0.212
		c0-0.126-0.035-0.256-0.039-0.381c-0.025-0.129-0.081-0.265-0.145-0.353c-0.07-0.106-0.178-0.226-0.291-0.259
		c-0.124-0.065-0.301-0.098-0.48-0.098c-0.233,0-0.483,0.034-0.683,0.122c-0.224,0.08-0.446,0.173-0.638,0.32
		c-0.201,0.133-0.41,0.252-0.573,0.443c-0.182,0.163-0.367,0.301-0.513,0.495L48.917,24.515z"/>
	<path d="M56.833,28.821l0.391,0.368c0.113-0.116,0.205-0.246,0.307-0.305c0.09-0.088,0.146-0.183,0.248-0.216
		c0.076-0.057,0.117-0.114,0.219-0.128c0.069-0.028,0.137-0.042,0.212-0.042c0.222,0,0.319,0.134,0.333,0.413
		c0,0.099-0.014,0.193-0.031,0.363c-0.02,0.143-0.057,0.317-0.109,0.541l0.002-0.002l-0.85,3.685h1.111l0.577-2.703
		c0.041-0.194,0.095-0.392,0.187-0.578c0.083-0.191,0.174-0.397,0.292-0.544c0.111-0.171,0.205-0.33,0.353-0.473
		c0.125-0.146,0.235-0.279,0.377-0.377c0.127-0.106,0.244-0.214,0.359-0.245c0.114-0.058,0.211-0.084,0.302-0.08
		c0.146,0,0.244,0.034,0.336,0.139c0.078,0.093,0.096,0.247,0.145,0.461h0.656l0.287-1.321c-0.117-0.022-0.262-0.049-0.364-0.056
		c-0.126-0.015-0.283-0.021-0.405-0.021c-0.382,0-0.77,0.1-1.113,0.36c-0.36,0.24-0.745,0.586-1.114,1.127l-0.078-0.033
		c0.052-0.133,0.065-0.284,0.078-0.455c0-0.298-0.08-0.565-0.23-0.723c-0.152-0.184-0.389-0.275-0.647-0.275
		c-0.152,0-0.306,0-0.438,0.063c-0.14,0.042-0.281,0.087-0.425,0.2c-0.143,0.09-0.309,0.202-0.45,0.348
		C57.194,28.454,57.01,28.616,56.833,28.821z"/>
	<path d="M63.272,35.771c0.123,0.02,0.2,0.029,0.314,0.029c0.162-0.008,0.302-0.041,0.467-0.055c0.15-0.028,0.301-0.077,0.452-0.145
		c0.151-0.066,0.284-0.166,0.467-0.267c0.16-0.111,0.305-0.256,0.521-0.427c0.187-0.174,0.391-0.41,0.612-0.623
		c0.221-0.241,0.454-0.536,0.744-0.861c0.634-0.826,1.186-1.7,1.706-2.556c0.503-0.878,0.92-1.8,1.323-2.734l-0.198-0.331h-1.613
		l-0.073,0.398c0.203,0.012,0.339,0.045,0.434,0.127c0.087,0.072,0.112,0.163,0.13,0.357c0.004,0.168-0.047,0.373-0.119,0.672
		c-0.082,0.28-0.227,0.562-0.359,0.931c-0.156,0.34-0.348,0.679-0.575,1.084c-0.226,0.383-0.493,0.759-0.764,1.133
		c-0.034-0.274-0.079-0.576-0.108-0.839c-0.038-0.285-0.081-0.572-0.119-0.833c-0.04-0.271-0.109-0.548-0.123-0.778
		c-0.042-0.247-0.104-0.499-0.125-0.681c-0.042-0.207-0.096-0.397-0.119-0.544c-0.038-0.156-0.085-0.299-0.108-0.361
		c-0.065-0.138-0.143-0.26-0.191-0.352c-0.062-0.098-0.143-0.203-0.213-0.237c-0.08-0.06-0.189-0.12-0.266-0.133
		c-0.098-0.029-0.22-0.044-0.352-0.044c-0.166,0-0.337-0.001-0.458,0.059c-0.14,0.04-0.292,0.086-0.411,0.2
		c-0.134,0.094-0.283,0.207-0.406,0.383c-0.136,0.16-0.315,0.347-0.447,0.604l0.437,0.284c0.101-0.156,0.158-0.3,0.256-0.377
		c0.07-0.097,0.109-0.182,0.197-0.224c0.06-0.053,0.099-0.097,0.175-0.104c0.056-0.019,0.103-0.027,0.187-0.027
		c0.071,0,0.122,0,0.2,0.072c0.062,0.047,0.114,0.123,0.184,0.266c0.06,0.129,0.117,0.283,0.186,0.542
		c0.064,0.232,0.125,0.506,0.212,0.906c0.078,0.371,0.135,0.809,0.258,1.348c0.095,0.528,0.2,1.15,0.33,1.877h0.005
		c-0.4,0.485-0.772,0.814-1.025,1.059c-0.284,0.22-0.58,0.331-0.839,0.331c-0.207,0-0.325-0.166-0.311-0.459V34.4H63.23
		l-0.283,1.294C63.041,35.727,63.127,35.729,63.272,35.771z"/>
	<path d="M88.117,24.515c0.094-0.092,0.188-0.196,0.303-0.298c0.108-0.105,0.201-0.211,0.337-0.298
		c0.116-0.094,0.231-0.2,0.345-0.229c0.115-0.06,0.214-0.09,0.319-0.09c0.124,0,0.184,0.033,0.264,0.156
		c0.052,0.104,0.057,0.218,0.078,0.396c0,0.052-0.021,0.101-0.02,0.245c-0.012,0.111-0.061,0.211-0.05,0.353l-0.327,2.153
		c-0.056,0.342-0.112,0.674-0.139,1.019c-0.037,0.337-0.079,0.629-0.055,0.947c0,0.223,0.009,0.399,0.039,0.614
		c0.026,0.187,0.055,0.325,0.131,0.485c0.062,0.138,0.115,0.215,0.245,0.319c0.101,0.075,0.206,0.113,0.377,0.113l0.005-0.004
		c0.336,0,0.648-0.1,1.012-0.204c0.34-0.139,0.648-0.337,1.002-0.556c0.329-0.231,0.637-0.512,0.952-0.816
		c0.305-0.312,0.562-0.653,0.861-0.998c0.269-0.354,0.506-0.729,0.737-1.092c0.223-0.375,0.414-0.752,0.575-1.098
		c0.16-0.355,0.26-0.702,0.372-1.014c0.088-0.321,0.13-0.628,0.133-0.854c0-0.324-0.102-0.613-0.248-0.777
		c-0.166-0.194-0.453-0.291-0.808-0.291c-0.191,0-0.408,0.033-0.589,0.117c-0.203,0.078-0.424,0.173-0.588,0.312
		c-0.189,0.13-0.381,0.254-0.536,0.453c-0.168,0.172-0.315,0.344-0.438,0.538l0.442,0.395c0.197-0.272,0.382-0.512,0.57-0.661
		c0.184-0.17,0.38-0.254,0.603-0.254c0.171,0,0.265,0.033,0.377,0.153c0.08,0.101,0.115,0.217,0.12,0.433
		c0,0.433-0.071,0.836-0.214,1.288c-0.143,0.429-0.343,0.804-0.556,1.22c-0.228,0.384-0.509,0.72-0.769,1.072
		c-0.284,0.331-0.576,0.609-0.853,0.858c-0.285,0.241-0.559,0.399-0.816,0.57c-0.259,0.137-0.494,0.206-0.644,0.206
		c-0.072,0-0.126-0.101-0.147-0.203c-0.026-0.137-0.065-0.335-0.039-0.534c0-0.219,0.008-0.474,0.045-0.756
		c0.031-0.285,0.057-0.588,0.117-0.875l0.434-2.841c0.01-0.058-0.014-0.12,0.022-0.188c0.005-0.068,0.006-0.169,0.008-0.212
		c0-0.126-0.035-0.256-0.039-0.381c-0.025-0.129-0.081-0.265-0.144-0.353c-0.07-0.106-0.178-0.226-0.291-0.259
		c-0.124-0.065-0.301-0.098-0.481-0.098c-0.233,0-0.483,0.034-0.683,0.122c-0.224,0.08-0.446,0.173-0.638,0.32
		c-0.201,0.133-0.41,0.252-0.573,0.443c-0.182,0.163-0.367,0.301-0.513,0.495L88.117,24.515z"/>
	<path d="M96.008,28.821l0.386,0.368c0.113-0.116,0.214-0.246,0.305-0.305c0.091-0.088,0.157-0.183,0.252-0.216
		c0.078-0.057,0.128-0.114,0.219-0.128c0.068-0.028,0.111-0.042,0.209-0.042c0.227,0,0.334,0.134,0.341,0.413
		c0,0.102-0.041,0.23-0.055,0.427c-0.036,0.183-0.091,0.369-0.133,0.609c-0.054,0.225-0.13,0.441-0.169,0.702
		c-0.061,0.242-0.148,0.459-0.17,0.696c-0.054,0.223-0.118,0.407-0.135,0.605c-0.035,0.18-0.055,0.296-0.053,0.423
		c0,0.395,0.098,0.67,0.303,0.909c0.202,0.211,0.499,0.315,0.903,0.315c0.382,0,0.744-0.133,1.103-0.371
		c0.354-0.248,0.715-0.625,1.09-1.116l-0.002-0.002l0.068,0.022c-0.031,0.075-0.055,0.129-0.062,0.234
		c-0.012,0.081-0.049,0.158-0.018,0.242c0,0.306,0.069,0.535,0.23,0.723c0.152,0.176,0.345,0.264,0.637,0.264
		c0.15,0,0.264-0.033,0.438-0.062c0.141-0.04,0.275-0.119,0.427-0.198c0.144-0.092,0.269-0.239,0.453-0.354
		c0.157-0.143,0.332-0.338,0.522-0.514l-0.392-0.373c-0.113,0.124-0.218,0.225-0.306,0.32c-0.09,0.088-0.192,0.148-0.254,0.217
		c-0.076,0.057-0.16,0.078-0.217,0.125c-0.068,0.026-0.145,0.039-0.209,0.039c-0.117,0-0.226-0.033-0.255-0.095
		c-0.052-0.064-0.108-0.199-0.077-0.312c0-0.104,0.002-0.235,0.027-0.384c0.018-0.15,0.045-0.353,0.096-0.514l0.871-3.692h-1.113
		l-0.623,2.825c-0.068,0.253-0.185,0.477-0.32,0.766c-0.145,0.258-0.321,0.461-0.495,0.7c-0.185,0.209-0.396,0.378-0.581,0.511
		c-0.201,0.131-0.419,0.197-0.569,0.197c-0.195,0-0.356-0.066-0.428-0.166c-0.089-0.109-0.14-0.288-0.133-0.503
		c0-0.18,0.026-0.49,0.125-0.848c0.084-0.386,0.168-0.847,0.341-1.351c0.071-0.251,0.109-0.496,0.152-0.68
		c0.029-0.204,0.017-0.388,0.045-0.552c0-0.304-0.096-0.571-0.244-0.729c-0.162-0.181-0.409-0.271-0.65-0.271
		c-0.162,0-0.326,0-0.453,0.058c-0.14,0.038-0.285,0.085-0.425,0.188c-0.143,0.088-0.314,0.172-0.456,0.347
		C96.394,28.436,96.209,28.605,96.008,28.821z"/>
	<path d="M103.872,35.771c0.123,0.02,0.2,0.029,0.313,0.029c0.162-0.008,0.303-0.041,0.467-0.055
		c0.15-0.028,0.302-0.077,0.453-0.145c0.15-0.066,0.283-0.166,0.467-0.267c0.16-0.111,0.304-0.256,0.52-0.427
		c0.188-0.174,0.391-0.41,0.612-0.623c0.221-0.241,0.454-0.536,0.744-0.861c0.634-0.826,1.186-1.7,1.706-2.556
		c0.503-0.878,0.92-1.8,1.322-2.734l-0.197-0.331h-1.613l-0.073,0.398c0.203,0.012,0.339,0.045,0.435,0.127
		c0.086,0.072,0.111,0.163,0.13,0.357c0.004,0.168-0.048,0.373-0.119,0.672c-0.082,0.28-0.228,0.562-0.358,0.931
		c-0.156,0.34-0.349,0.679-0.576,1.084c-0.226,0.383-0.492,0.759-0.764,1.133c-0.033-0.274-0.078-0.576-0.107-0.839
		c-0.039-0.285-0.082-0.572-0.119-0.833c-0.04-0.271-0.11-0.548-0.123-0.778c-0.042-0.247-0.104-0.499-0.125-0.681
		c-0.042-0.207-0.096-0.397-0.119-0.544c-0.038-0.156-0.085-0.299-0.107-0.361c-0.065-0.138-0.144-0.26-0.191-0.352
		c-0.062-0.098-0.143-0.203-0.213-0.237c-0.08-0.06-0.19-0.12-0.267-0.133c-0.098-0.029-0.22-0.044-0.352-0.044
		c-0.166,0-0.337-0.001-0.458,0.059c-0.141,0.04-0.292,0.086-0.411,0.2c-0.134,0.094-0.283,0.207-0.406,0.383
		c-0.136,0.16-0.315,0.347-0.446,0.604l0.437,0.284c0.101-0.156,0.157-0.3,0.256-0.377c0.071-0.097,0.108-0.182,0.197-0.224
		c0.06-0.053,0.099-0.097,0.175-0.104c0.057-0.019,0.104-0.027,0.188-0.027c0.07,0,0.121,0,0.199,0.072
		c0.062,0.047,0.114,0.123,0.184,0.266c0.061,0.129,0.117,0.283,0.187,0.542c0.063,0.232,0.125,0.506,0.212,0.906
		c0.078,0.371,0.135,0.809,0.258,1.348c0.096,0.528,0.201,1.15,0.33,1.877h0.006c-0.4,0.485-0.772,0.814-1.025,1.059
		c-0.284,0.22-0.58,0.331-0.839,0.331c-0.207,0-0.325-0.166-0.312-0.459V34.4h-0.516l-0.283,1.294
		C103.641,35.727,103.727,35.729,103.872,35.771z"/>
	<path d="M128.717,24.515c0.094-0.092,0.188-0.196,0.303-0.298c0.108-0.105,0.201-0.211,0.338-0.298
		c0.115-0.094,0.23-0.2,0.345-0.229c0.114-0.06,0.214-0.09,0.319-0.09c0.123,0,0.184,0.033,0.264,0.156
		c0.052,0.104,0.057,0.218,0.078,0.396c0,0.052-0.021,0.101-0.021,0.245c-0.012,0.111-0.06,0.211-0.05,0.353l-0.327,2.153
		c-0.056,0.342-0.112,0.674-0.139,1.019c-0.037,0.337-0.079,0.629-0.056,0.947c0,0.223,0.01,0.399,0.039,0.614
		c0.026,0.187,0.056,0.325,0.131,0.485c0.062,0.138,0.115,0.215,0.246,0.319c0.101,0.075,0.205,0.113,0.377,0.113l0.004-0.004
		c0.336,0,0.648-0.1,1.013-0.204c0.34-0.139,0.647-0.337,1.002-0.556c0.329-0.231,0.638-0.512,0.952-0.816
		c0.305-0.312,0.562-0.653,0.861-0.998c0.269-0.354,0.506-0.729,0.736-1.092c0.223-0.375,0.413-0.752,0.575-1.098
		c0.16-0.355,0.26-0.702,0.372-1.014c0.088-0.321,0.13-0.628,0.133-0.854c0-0.324-0.102-0.613-0.248-0.777
		c-0.166-0.194-0.453-0.291-0.808-0.291c-0.191,0-0.408,0.033-0.589,0.117c-0.203,0.078-0.424,0.173-0.588,0.312
		c-0.189,0.13-0.381,0.254-0.537,0.453c-0.168,0.172-0.314,0.344-0.438,0.538l0.442,0.395c0.196-0.272,0.382-0.512,0.569-0.661
		c0.185-0.17,0.381-0.254,0.604-0.254c0.171,0,0.266,0.033,0.377,0.153c0.08,0.101,0.115,0.217,0.12,0.433
		c0,0.433-0.071,0.836-0.214,1.288c-0.143,0.429-0.344,0.804-0.557,1.22c-0.228,0.384-0.509,0.72-0.769,1.072
		c-0.284,0.331-0.576,0.609-0.853,0.858c-0.285,0.241-0.56,0.399-0.816,0.57c-0.26,0.137-0.494,0.206-0.645,0.206
		c-0.072,0-0.125-0.101-0.146-0.203c-0.026-0.137-0.064-0.335-0.039-0.534c0-0.219,0.008-0.474,0.045-0.756
		c0.031-0.285,0.057-0.588,0.117-0.875l0.434-2.841c0.01-0.058-0.014-0.12,0.023-0.188c0.005-0.068,0.006-0.169,0.008-0.212
		c0-0.126-0.035-0.256-0.039-0.381c-0.025-0.129-0.081-0.265-0.145-0.353c-0.069-0.106-0.178-0.226-0.291-0.259
		c-0.123-0.065-0.301-0.098-0.48-0.098c-0.232,0-0.482,0.034-0.684,0.122c-0.223,0.08-0.445,0.173-0.637,0.32
		c-0.201,0.133-0.41,0.252-0.574,0.443c-0.182,0.163-0.366,0.301-0.512,0.495L128.717,24.515z"/>
	<path d="M137.123,29.189c0.113-0.117,0.205-0.247,0.307-0.306c0.09-0.088,0.147-0.183,0.252-0.216
		c0.076-0.057,0.149-0.114,0.219-0.128c0.07-0.028,0.137-0.042,0.209-0.042c0.222,0,0.318,0.134,0.332,0.413
		c0,0.098-0.014,0.194-0.033,0.378c-0.021,0.154-0.059,0.324-0.106,0.525l-0.85,3.684h1.11l0.635-2.83
		c0.037-0.173,0.072-0.363,0.178-0.521c0.082-0.176,0.157-0.358,0.279-0.502c0.107-0.159,0.222-0.342,0.349-0.45
		c0.126-0.142,0.226-0.274,0.388-0.367c0.131-0.104,0.234-0.213,0.394-0.242c0.13-0.058,0.235-0.087,0.366-0.087
		c0.197,0,0.312,0.034,0.428,0.164c0.088,0.109,0.129,0.254,0.133,0.513c0,0.099-0.038,0.206-0.038,0.369
		c-0.024,0.148-0.082,0.3-0.103,0.508c-0.043,0.19-0.1,0.372-0.152,0.62c-0.059,0.223-0.131,0.432-0.189,0.7
		c-0.064,0.241-0.141,0.45-0.145,0.663c-0.031,0.202-0.059,0.355-0.047,0.527c0,0.151,0.021,0.264,0.066,0.416
		c0.047,0.125,0.078,0.232,0.192,0.326c0.083,0.092,0.151,0.157,0.297,0.217c0.116,0.053,0.218,0.08,0.378,0.08
		c0.161,0,0.305-0.033,0.456-0.067c0.144-0.045,0.269-0.123,0.433-0.205c0.146-0.093,0.293-0.235,0.453-0.351
		c0.154-0.141,0.316-0.334,0.508-0.506L143.43,32.1c-0.113,0.124-0.224,0.225-0.306,0.32c-0.091,0.088-0.199,0.149-0.25,0.217
		c-0.075,0.057-0.167,0.078-0.217,0.125c-0.07,0.026-0.156,0.039-0.214,0.039c-0.116,0-0.231-0.033-0.254-0.095
		c-0.053-0.065-0.082-0.199-0.078-0.312c0-0.037-0.004-0.135,0.05-0.285c0.034-0.154,0.047-0.357,0.13-0.559
		c0.053-0.219,0.089-0.469,0.17-0.714c0.061-0.257,0.105-0.536,0.17-0.752c0.053-0.245,0.076-0.473,0.131-0.677
		c0.034-0.207,0.047-0.376,0.051-0.484c0-0.388-0.104-0.695-0.297-0.902c-0.199-0.213-0.504-0.319-0.896-0.319
		c-0.382,0-0.755,0.099-1.108,0.373c-0.355,0.248-0.727,0.623-1.084,1.125v-0.003l-0.08-0.028c0.034-0.075,0.051-0.165,0.07-0.237
		c0.014-0.083,0.007-0.193,0.02-0.236c0-0.299-0.08-0.565-0.229-0.723c-0.151-0.182-0.39-0.272-0.647-0.272
		c-0.154,0-0.309,0-0.441,0.063c-0.141,0.042-0.312,0.088-0.422,0.2c-0.141,0.09-0.307,0.202-0.448,0.349
		c-0.156,0.141-0.34,0.303-0.517,0.508L137.123,29.189z"/>
	<path d="M144.473,35.771c0.123,0.02,0.199,0.029,0.313,0.029c0.162-0.008,0.302-0.041,0.467-0.055
		c0.149-0.028,0.302-0.077,0.452-0.145c0.15-0.066,0.283-0.166,0.467-0.267c0.16-0.111,0.305-0.256,0.52-0.427
		c0.188-0.174,0.392-0.41,0.613-0.623c0.221-0.241,0.453-0.536,0.743-0.861c0.634-0.826,1.187-1.7,1.706-2.556
		c0.503-0.878,0.92-1.8,1.323-2.734l-0.198-0.331h-1.613l-0.072,0.398c0.203,0.012,0.339,0.045,0.434,0.127
		c0.087,0.072,0.111,0.163,0.13,0.357c0.005,0.168-0.047,0.373-0.118,0.672c-0.082,0.28-0.228,0.562-0.359,0.931
		c-0.156,0.34-0.348,0.679-0.575,1.084c-0.226,0.383-0.493,0.759-0.765,1.133c-0.033-0.274-0.078-0.576-0.107-0.839
		c-0.038-0.285-0.081-0.572-0.119-0.833c-0.04-0.271-0.109-0.548-0.123-0.778c-0.042-0.247-0.104-0.499-0.125-0.681
		c-0.042-0.207-0.096-0.397-0.119-0.544c-0.037-0.156-0.084-0.299-0.107-0.361c-0.065-0.138-0.143-0.26-0.191-0.352
		c-0.062-0.098-0.143-0.203-0.213-0.237c-0.08-0.06-0.189-0.12-0.266-0.133c-0.098-0.029-0.221-0.044-0.353-0.044
		c-0.166,0-0.337-0.001-0.458,0.059c-0.14,0.04-0.292,0.086-0.41,0.2c-0.135,0.094-0.283,0.207-0.406,0.383
		c-0.137,0.16-0.315,0.347-0.447,0.604l0.438,0.284c0.101-0.156,0.157-0.3,0.256-0.377c0.07-0.097,0.108-0.182,0.196-0.224
		c0.06-0.053,0.099-0.097,0.175-0.104c0.057-0.019,0.104-0.027,0.188-0.027c0.07,0,0.122,0,0.199,0.072
		c0.062,0.047,0.115,0.123,0.185,0.266c0.06,0.129,0.117,0.283,0.187,0.542c0.063,0.232,0.125,0.506,0.211,0.906
		c0.078,0.371,0.136,0.809,0.259,1.348c0.095,0.528,0.2,1.15,0.33,1.877h0.005c-0.4,0.485-0.771,0.814-1.025,1.059
		c-0.283,0.22-0.58,0.331-0.839,0.331c-0.207,0-0.325-0.166-0.312-0.459V34.4h-0.516l-0.283,1.294
		C144.241,35.727,144.327,35.729,144.473,35.771z"/>
	<path d="M170.219,28.986c0.547,0.876,1.373,1.313,2.498,1.313h0.001c1.14,0,2-0.5,2.599-1.403c0.594-0.936,0.889-2.334,0.891-4.141
		c0-1.763-0.303-3.081-0.831-3.95c-0.554-0.87-1.413-1.306-2.533-1.306c-0.503,0-0.983,0.1-1.391,0.325
		c-0.425,0.217-0.81,0.542-1.093,1.002c-0.303,0.45-0.555,1.008-0.707,1.711c-0.168,0.69-0.252,1.478-0.252,2.459
		C169.4,26.781,169.667,28.081,170.219,28.986z M170.999,22.855c0.063-0.564,0.163-1.049,0.315-1.436
		c0.149-0.394,0.345-0.7,0.586-0.905c0.242-0.209,0.541-0.313,0.902-0.313c0.396,0,0.729,0.134,1.012,0.475
		c0.278,0.317,0.474,0.825,0.651,1.567c0.156,0.727,0.234,1.646,0.234,2.853c0,1.537-0.167,2.672-0.458,3.406
		c-0.305,0.732-0.785,1.098-1.4,1.098c-0.66,0-1.175-0.399-1.464-1.167c-0.315-0.778-0.474-2.022-0.472-3.667l-0.002,0.002
		C170.904,24.058,170.938,23.402,170.999,22.855z"/>
	<path d="M55.957,41.797c-0.191,0-0.408,0.033-0.589,0.117c-0.203,0.079-0.424,0.173-0.588,0.312
		c-0.189,0.131-0.381,0.254-0.536,0.453c-0.168,0.172-0.315,0.344-0.438,0.538l0.442,0.396c0.197-0.273,0.382-0.512,0.57-0.662
		c0.184-0.169,0.38-0.253,0.603-0.253c0.171,0,0.265,0.032,0.377,0.153c0.08,0.101,0.115,0.217,0.12,0.433
		c0,0.432-0.071,0.836-0.214,1.288c-0.143,0.428-0.343,0.803-0.556,1.219c-0.228,0.384-0.509,0.72-0.769,1.073
		c-0.284,0.331-0.576,0.608-0.853,0.857c-0.285,0.241-0.559,0.4-0.816,0.57c-0.259,0.137-0.495,0.206-0.645,0.206
		c-0.072,0-0.126-0.1-0.147-0.203c-0.026-0.136-0.065-0.335-0.039-0.534c0-0.219,0.008-0.474,0.045-0.756
		c0.031-0.285,0.057-0.588,0.117-0.875l0.434-2.841c0.01-0.057-0.014-0.12,0.023-0.188c0.005-0.067,0.006-0.169,0.008-0.212
		c0-0.126-0.035-0.256-0.039-0.381c-0.025-0.129-0.081-0.265-0.144-0.352c-0.07-0.107-0.178-0.227-0.291-0.259
		c-0.124-0.065-0.301-0.099-0.481-0.099c-0.232,0-0.482,0.034-0.683,0.122c-0.224,0.08-0.446,0.173-0.638,0.32
		c-0.201,0.133-0.41,0.252-0.573,0.443c-0.182,0.163-0.367,0.302-0.513,0.495l0.372,0.435c0.094-0.092,0.188-0.197,0.303-0.298
		c0.108-0.106,0.201-0.212,0.337-0.298c0.116-0.095,0.23-0.2,0.345-0.23c0.115-0.059,0.214-0.089,0.319-0.089
		c0.124,0,0.184,0.032,0.264,0.155c0.052,0.104,0.057,0.219,0.078,0.396c0,0.052-0.021,0.101-0.02,0.245
		c-0.012,0.111-0.06,0.212-0.05,0.353l-0.327,2.153c-0.056,0.342-0.112,0.674-0.139,1.02c-0.037,0.336-0.079,0.629-0.055,0.946
		c0,0.224,0.009,0.4,0.039,0.614c0.026,0.188,0.055,0.326,0.131,0.486c0.062,0.138,0.115,0.215,0.245,0.318
		c0.101,0.075,0.206,0.113,0.377,0.113l0.005-0.003c0.336,0,0.648-0.101,1.012-0.205c0.34-0.138,0.648-0.336,1.002-0.555
		c0.329-0.232,0.637-0.513,0.953-0.817c0.304-0.312,0.562-0.652,0.861-0.998c0.269-0.354,0.506-0.729,0.736-1.092
		c0.223-0.375,0.414-0.752,0.575-1.098c0.16-0.355,0.26-0.701,0.372-1.014c0.088-0.32,0.13-0.628,0.133-0.853
		c0-0.325-0.102-0.614-0.248-0.778C56.599,41.895,56.312,41.797,55.957,41.797z"/>
	<path d="M62.367,46.8c-0.382,0-0.771,0.101-1.113,0.361c-0.36,0.24-0.745,0.586-1.114,1.127l-0.078-0.034
		c0.052-0.132,0.065-0.284,0.078-0.455c0-0.298-0.08-0.564-0.229-0.723c-0.152-0.184-0.389-0.275-0.647-0.275
		c-0.152,0-0.306,0-0.438,0.064c-0.14,0.042-0.281,0.087-0.425,0.199c-0.143,0.091-0.309,0.203-0.45,0.349
		c-0.156,0.141-0.34,0.303-0.518,0.508l0.391,0.369c0.113-0.117,0.205-0.247,0.306-0.305c0.09-0.089,0.147-0.184,0.248-0.216
		c0.076-0.058,0.117-0.114,0.219-0.129c0.069-0.027,0.137-0.042,0.212-0.042c0.222,0,0.319,0.134,0.333,0.413
		c0,0.1-0.014,0.194-0.031,0.363c-0.02,0.143-0.057,0.318-0.109,0.541l0.002-0.001l-0.85,3.684h1.111l0.578-2.702
		c0.041-0.194,0.095-0.393,0.187-0.578c0.083-0.192,0.174-0.398,0.292-0.545c0.111-0.17,0.205-0.329,0.353-0.473
		c0.125-0.145,0.235-0.279,0.377-0.377c0.127-0.105,0.244-0.214,0.359-0.245c0.114-0.057,0.211-0.084,0.302-0.08
		c0.147,0,0.244,0.034,0.336,0.14c0.078,0.093,0.096,0.247,0.145,0.461h0.656l0.287-1.322c-0.117-0.021-0.262-0.048-0.364-0.055
		C62.646,46.807,62.489,46.8,62.367,46.8z"/>
	<path d="M66.63,50.248c0.238-0.257,0.462-0.507,0.689-0.744c0.22-0.238,0.414-0.506,0.662-0.717
		c0.221-0.24,0.427-0.503,0.667-0.731c0.225-0.248,0.443-0.532,0.711-0.782l-0.136-0.372h-4.406l-0.35,1.598h0.577
		c0.125-0.212,0.211-0.412,0.328-0.512c0.094-0.13,0.171-0.259,0.289-0.304c0.098-0.072,0.178-0.135,0.323-0.146
		c0.116-0.025,0.255-0.037,0.425-0.037h1.456c0.007,0.004-0.014,0.004,0.033,0.028c-0.284,0.3-0.616,0.625-0.952,1.016
		c-0.352,0.377-0.732,0.762-1.095,1.185c-0.379,0.412-0.796,0.803-1.156,1.261c-0.391,0.428-0.789,0.831-1.13,1.237l0.153,0.373
		h4.497l0.362-1.699l0.001-0.002h-0.583c-0.098,0.189-0.196,0.322-0.255,0.477c-0.072,0.127-0.152,0.201-0.205,0.314
		c-0.063,0.082-0.141,0.118-0.195,0.186c-0.065,0.042-0.145,0.05-0.217,0.091c-0.079,0.019-0.187-0.004-0.278,0.03
		c-0.105,0.002-0.252,0.003-0.373,0.003h-1.394c-0.007-0.004-0.032-0.037-0.034-0.028c0.299-0.326,0.552-0.649,0.839-0.914
		C66.143,50.773,66.383,50.488,66.63,50.248z"/>
	<path d="M95.157,41.797c-0.191,0-0.408,0.033-0.589,0.117c-0.203,0.079-0.424,0.173-0.588,0.312
		c-0.189,0.131-0.381,0.254-0.536,0.453c-0.168,0.172-0.315,0.344-0.438,0.538l0.442,0.396c0.197-0.273,0.382-0.512,0.57-0.662
		c0.184-0.169,0.38-0.253,0.603-0.253c0.171,0,0.265,0.032,0.377,0.153c0.08,0.101,0.115,0.217,0.12,0.433
		c0,0.432-0.071,0.836-0.214,1.288c-0.143,0.428-0.343,0.803-0.556,1.219c-0.228,0.384-0.509,0.72-0.769,1.073
		c-0.284,0.331-0.576,0.608-0.853,0.857c-0.285,0.241-0.559,0.4-0.816,0.57c-0.259,0.137-0.494,0.206-0.644,0.206
		c-0.072,0-0.126-0.1-0.147-0.203c-0.026-0.136-0.065-0.335-0.039-0.534c0-0.219,0.008-0.474,0.045-0.756
		c0.031-0.285,0.057-0.588,0.117-0.875l0.434-2.841c0.01-0.057-0.014-0.12,0.022-0.188c0.005-0.067,0.006-0.169,0.008-0.212
		c0-0.126-0.035-0.256-0.039-0.381c-0.025-0.129-0.081-0.265-0.144-0.352c-0.07-0.107-0.178-0.227-0.291-0.259
		c-0.124-0.065-0.301-0.099-0.481-0.099c-0.233,0-0.483,0.034-0.683,0.122c-0.225,0.08-0.446,0.173-0.639,0.32
		c-0.201,0.133-0.41,0.252-0.573,0.443c-0.182,0.163-0.367,0.302-0.513,0.495l0.373,0.435c0.094-0.092,0.188-0.197,0.303-0.298
		c0.108-0.106,0.201-0.212,0.337-0.298c0.116-0.095,0.231-0.2,0.345-0.23c0.115-0.059,0.214-0.089,0.319-0.089
		c0.124,0,0.184,0.032,0.264,0.155c0.052,0.104,0.057,0.219,0.078,0.396c0,0.052-0.021,0.101-0.02,0.245
		c-0.012,0.111-0.06,0.212-0.05,0.353l-0.327,2.153c-0.056,0.342-0.112,0.674-0.139,1.02c-0.037,0.336-0.079,0.629-0.055,0.946
		c0,0.224,0.009,0.4,0.039,0.614c0.026,0.188,0.055,0.326,0.131,0.486c0.062,0.138,0.115,0.215,0.245,0.318
		c0.101,0.075,0.206,0.113,0.377,0.113l0.005-0.003c0.336,0,0.648-0.101,1.012-0.205c0.34-0.138,0.648-0.336,1.002-0.555
		c0.329-0.232,0.637-0.513,0.952-0.817c0.305-0.312,0.562-0.652,0.861-0.998c0.269-0.354,0.506-0.729,0.737-1.092
		c0.223-0.375,0.413-0.752,0.575-1.098c0.16-0.355,0.26-0.701,0.372-1.014c0.088-0.32,0.13-0.628,0.133-0.853
		c0-0.325-0.102-0.614-0.248-0.778C95.799,41.895,95.512,41.797,95.157,41.797z"/>
	<path d="M103.1,51.516c-0.09,0.088-0.191,0.149-0.252,0.217c-0.078,0.057-0.16,0.078-0.218,0.125
		c-0.067,0.026-0.146,0.039-0.209,0.039c-0.118,0-0.226-0.032-0.255-0.095c-0.053-0.063-0.107-0.198-0.078-0.312
		c0-0.105,0.003-0.236,0.028-0.385c0.018-0.15,0.045-0.353,0.095-0.514l0.872-3.691h-1.114l-0.623,2.824
		c-0.068,0.254-0.184,0.478-0.32,0.767c-0.145,0.257-0.32,0.46-0.494,0.7c-0.186,0.209-0.396,0.378-0.581,0.511
		c-0.201,0.131-0.419,0.196-0.569,0.196c-0.195,0-0.357-0.066-0.428-0.166c-0.089-0.109-0.141-0.287-0.133-0.502
		c0-0.181,0.025-0.49,0.125-0.849c0.084-0.386,0.168-0.847,0.341-1.35c0.071-0.251,0.108-0.496,0.151-0.681
		c0.03-0.203,0.018-0.388,0.045-0.552c0-0.304-0.095-0.571-0.243-0.728c-0.162-0.182-0.409-0.272-0.65-0.272
		c-0.162,0-0.326,0-0.453,0.058c-0.14,0.039-0.286,0.086-0.425,0.188c-0.143,0.088-0.314,0.172-0.456,0.347
		c-0.161,0.144-0.346,0.312-0.547,0.528l0.386,0.369c0.113-0.117,0.214-0.247,0.305-0.305c0.092-0.089,0.157-0.184,0.253-0.216
		c0.077-0.058,0.128-0.114,0.219-0.129c0.067-0.027,0.11-0.042,0.209-0.042c0.227,0,0.334,0.134,0.341,0.413
		c0,0.103-0.041,0.231-0.055,0.428c-0.036,0.182-0.092,0.368-0.133,0.608c-0.054,0.226-0.131,0.442-0.17,0.702
		c-0.06,0.243-0.147,0.459-0.17,0.697c-0.053,0.222-0.117,0.406-0.134,0.604c-0.035,0.181-0.055,0.296-0.053,0.423
		c0,0.396,0.098,0.67,0.303,0.909c0.202,0.211,0.499,0.316,0.903,0.316c0.382,0,0.744-0.133,1.102-0.372
		c0.354-0.248,0.715-0.624,1.092-1.116l-0.004-0.002l0.069,0.022c-0.03,0.075-0.055,0.13-0.063,0.234
		c-0.012,0.081-0.047,0.158-0.017,0.242c0,0.306,0.069,0.535,0.229,0.723c0.154,0.176,0.346,0.265,0.638,0.265
		c0.149,0,0.265-0.033,0.437-0.062c0.142-0.04,0.275-0.119,0.428-0.198c0.144-0.092,0.269-0.238,0.453-0.353
		c0.158-0.144,0.332-0.338,0.521-0.514l-0.391-0.373C103.293,51.32,103.189,51.42,103.1,51.516z"/>
	<path d="M107.23,50.248c0.237-0.257,0.461-0.507,0.688-0.744c0.22-0.238,0.414-0.506,0.662-0.717
		c0.221-0.24,0.427-0.503,0.667-0.731c0.225-0.248,0.443-0.532,0.711-0.782l-0.136-0.372h-4.406l-0.351,1.598h0.578
		c0.125-0.212,0.211-0.412,0.328-0.512c0.094-0.13,0.17-0.259,0.289-0.304c0.098-0.072,0.178-0.135,0.322-0.146
		c0.116-0.025,0.255-0.037,0.425-0.037h1.456c0.008,0.004-0.014,0.004,0.033,0.028c-0.284,0.3-0.616,0.625-0.952,1.016
		c-0.351,0.377-0.731,0.762-1.095,1.185c-0.379,0.412-0.797,0.803-1.156,1.261c-0.391,0.428-0.789,0.831-1.13,1.237l0.153,0.373
		h4.496l0.362-1.699l0.001-0.002h-0.582c-0.099,0.189-0.197,0.322-0.256,0.477c-0.072,0.127-0.152,0.201-0.205,0.314
		c-0.062,0.082-0.141,0.118-0.195,0.186c-0.064,0.042-0.145,0.05-0.217,0.091c-0.078,0.019-0.187-0.004-0.277,0.03
		c-0.105,0.002-0.254,0.003-0.373,0.003h-1.395c-0.007-0.004-0.031-0.037-0.033-0.028c0.299-0.326,0.551-0.649,0.838-0.914
		C106.743,50.773,106.982,50.488,107.23,50.248z"/>
	<path d="M135.757,41.797c-0.19,0-0.407,0.033-0.589,0.117c-0.203,0.079-0.424,0.173-0.588,0.312
		c-0.189,0.131-0.381,0.254-0.536,0.453c-0.168,0.172-0.315,0.344-0.438,0.538l0.442,0.396c0.197-0.273,0.382-0.512,0.57-0.662
		c0.184-0.169,0.38-0.253,0.603-0.253c0.172,0,0.266,0.032,0.377,0.153c0.08,0.101,0.115,0.217,0.12,0.433
		c0,0.432-0.071,0.836-0.214,1.288c-0.143,0.428-0.343,0.803-0.556,1.219c-0.228,0.384-0.509,0.72-0.769,1.073
		c-0.285,0.331-0.576,0.608-0.854,0.857c-0.285,0.241-0.559,0.4-0.816,0.57c-0.259,0.137-0.494,0.206-0.644,0.206
		c-0.072,0-0.126-0.1-0.147-0.203c-0.025-0.136-0.064-0.335-0.039-0.534c0-0.219,0.008-0.474,0.045-0.756
		c0.031-0.285,0.058-0.588,0.117-0.875l0.434-2.841c0.011-0.057-0.014-0.12,0.023-0.188c0.006-0.067,0.006-0.169,0.008-0.212
		c0-0.126-0.035-0.256-0.039-0.381c-0.024-0.129-0.08-0.265-0.144-0.352c-0.069-0.107-0.179-0.227-0.291-0.259
		c-0.124-0.065-0.301-0.099-0.481-0.099c-0.232,0-0.482,0.034-0.683,0.122c-0.224,0.08-0.446,0.173-0.638,0.32
		c-0.201,0.133-0.41,0.252-0.573,0.443c-0.183,0.163-0.367,0.302-0.513,0.495l0.371,0.435c0.095-0.092,0.188-0.197,0.304-0.298
		c0.108-0.106,0.2-0.212,0.337-0.298c0.116-0.095,0.23-0.2,0.345-0.23c0.115-0.059,0.214-0.089,0.319-0.089
		c0.124,0,0.184,0.032,0.264,0.155c0.053,0.104,0.057,0.219,0.078,0.396c0,0.052-0.021,0.101-0.02,0.245
		c-0.012,0.111-0.061,0.212-0.051,0.353l-0.326,2.153c-0.057,0.342-0.112,0.674-0.14,1.02c-0.036,0.336-0.079,0.629-0.055,0.946
		c0,0.224,0.009,0.4,0.039,0.614c0.026,0.188,0.055,0.326,0.131,0.486c0.062,0.138,0.115,0.215,0.245,0.318
		c0.102,0.075,0.206,0.113,0.377,0.113l0.005-0.003c0.336,0,0.647-0.101,1.013-0.205c0.34-0.138,0.647-0.336,1.002-0.555
		c0.328-0.232,0.637-0.513,0.951-0.817c0.305-0.312,0.562-0.652,0.861-0.998c0.27-0.354,0.506-0.729,0.736-1.092
		c0.224-0.375,0.414-0.752,0.576-1.098c0.159-0.355,0.26-0.701,0.371-1.014c0.088-0.32,0.131-0.628,0.133-0.853
		c0-0.325-0.102-0.614-0.248-0.778C136.398,41.895,136.111,41.797,135.757,41.797z"/>
	<path d="M143.725,51.52c-0.092,0.088-0.199,0.149-0.25,0.218c-0.076,0.056-0.168,0.077-0.218,0.125
		c-0.069,0.025-0.155,0.039-0.213,0.039c-0.117,0-0.231-0.033-0.255-0.096c-0.053-0.064-0.082-0.198-0.078-0.311
		c0-0.038-0.004-0.135,0.051-0.286c0.034-0.154,0.047-0.357,0.129-0.558c0.053-0.22,0.09-0.47,0.17-0.714
		c0.061-0.258,0.106-0.536,0.17-0.752c0.054-0.246,0.076-0.474,0.131-0.678c0.035-0.207,0.047-0.376,0.052-0.484
		c0-0.388-0.104-0.695-0.298-0.901c-0.198-0.213-0.504-0.32-0.895-0.32c-0.382,0-0.756,0.1-1.109,0.373
		c-0.355,0.248-0.727,0.623-1.084,1.125v-0.003l-0.079-0.027c0.034-0.075,0.051-0.166,0.069-0.237
		c0.014-0.083,0.008-0.194,0.021-0.237c0-0.299-0.08-0.564-0.229-0.722c-0.152-0.183-0.39-0.273-0.647-0.273
		c-0.155,0-0.31,0-0.442,0.064c-0.14,0.042-0.312,0.087-0.422,0.2c-0.141,0.09-0.307,0.201-0.447,0.348
		c-0.156,0.141-0.341,0.303-0.518,0.508l0.391,0.369c0.113-0.117,0.205-0.247,0.307-0.305c0.091-0.088,0.147-0.184,0.252-0.217
		c0.076-0.057,0.15-0.113,0.22-0.128c0.069-0.027,0.136-0.042,0.208-0.042c0.223,0,0.318,0.135,0.333,0.413
		c0,0.099-0.015,0.194-0.034,0.378c-0.021,0.154-0.058,0.324-0.105,0.525l-0.851,3.684h1.111l0.634-2.83
		c0.037-0.173,0.072-0.362,0.178-0.521c0.082-0.175,0.157-0.358,0.28-0.502c0.106-0.159,0.222-0.341,0.349-0.45
		c0.125-0.141,0.225-0.274,0.387-0.367c0.132-0.103,0.234-0.213,0.394-0.241c0.13-0.059,0.236-0.088,0.366-0.088
		c0.197,0,0.312,0.034,0.428,0.164c0.088,0.109,0.129,0.254,0.133,0.514c0,0.098-0.037,0.205-0.037,0.369
		c-0.025,0.147-0.082,0.3-0.103,0.508c-0.043,0.189-0.101,0.371-0.153,0.619c-0.059,0.224-0.131,0.433-0.188,0.7
		c-0.065,0.241-0.142,0.45-0.146,0.663c-0.031,0.202-0.059,0.356-0.047,0.527c0,0.152,0.021,0.264,0.067,0.416
		c0.046,0.125,0.077,0.232,0.192,0.327c0.082,0.092,0.15,0.157,0.297,0.216c0.115,0.053,0.217,0.08,0.377,0.08
		c0.162,0,0.305-0.033,0.457-0.067c0.144-0.045,0.268-0.123,0.433-0.205c0.146-0.093,0.293-0.234,0.452-0.35
		c0.154-0.142,0.316-0.334,0.509-0.506l-0.392-0.373C143.917,51.324,143.807,51.424,143.725,51.52z"/>
	<path d="M147.83,50.248c0.238-0.257,0.462-0.507,0.689-0.744c0.219-0.238,0.414-0.506,0.662-0.717
		c0.221-0.24,0.426-0.503,0.666-0.731c0.226-0.248,0.443-0.532,0.711-0.782l-0.136-0.372h-4.405l-0.351,1.598h0.577
		c0.125-0.212,0.211-0.412,0.328-0.512c0.094-0.13,0.171-0.259,0.289-0.304c0.098-0.072,0.178-0.135,0.322-0.146
		c0.116-0.025,0.256-0.037,0.426-0.037h1.455c0.008,0.004-0.014,0.004,0.033,0.028c-0.283,0.3-0.615,0.625-0.951,1.016
		c-0.352,0.377-0.732,0.762-1.096,1.185c-0.379,0.412-0.796,0.803-1.156,1.261c-0.391,0.428-0.789,0.831-1.129,1.237l0.152,0.373
		h4.497l0.362-1.699v-0.002h-0.582c-0.098,0.189-0.196,0.322-0.256,0.477c-0.071,0.127-0.151,0.201-0.205,0.314
		c-0.062,0.082-0.141,0.118-0.194,0.186c-0.065,0.042-0.146,0.05-0.217,0.091c-0.079,0.019-0.187-0.004-0.278,0.03
		c-0.105,0.002-0.253,0.003-0.373,0.003h-1.395c-0.006-0.004-0.031-0.037-0.033-0.028c0.299-0.326,0.552-0.649,0.839-0.914
		C147.343,50.773,147.583,50.488,147.83,50.248z"/>
	<path d="M170.219,48.086c0.547,0.876,1.373,1.314,2.498,1.314h0.001c1.14,0,2-0.5,2.599-1.403c0.594-0.937,0.889-2.335,0.891-4.142
		c0-1.763-0.303-3.08-0.831-3.949c-0.554-0.87-1.413-1.307-2.533-1.307c-0.503,0-0.983,0.101-1.391,0.325
		c-0.425,0.218-0.81,0.542-1.093,1.002c-0.303,0.45-0.555,1.009-0.707,1.711c-0.168,0.69-0.252,1.479-0.252,2.459
		C169.4,45.881,169.667,47.181,170.219,48.086z M170.999,41.956c0.063-0.565,0.163-1.049,0.315-1.437
		c0.149-0.394,0.345-0.699,0.586-0.904c0.242-0.209,0.541-0.314,0.902-0.314c0.396,0,0.729,0.135,1.012,0.476
		c0.278,0.316,0.474,0.825,0.651,1.566c0.156,0.728,0.234,1.646,0.234,2.854c0,1.536-0.167,2.672-0.458,3.405
		c-0.305,0.732-0.785,1.099-1.4,1.099c-0.66,0-1.175-0.4-1.464-1.167c-0.315-0.779-0.474-2.023-0.472-3.667l-0.002,0.001
		C170.904,43.158,170.938,42.502,170.999,41.956z"/>
	<path d="M59.643,57.8c-0.503,0-0.983,0.101-1.391,0.325c-0.425,0.217-0.809,0.542-1.092,1.002c-0.303,0.45-0.556,1.008-0.708,1.711
		c-0.168,0.69-0.252,1.479-0.252,2.459c0,1.784,0.267,3.084,0.819,3.989c0.546,0.876,1.373,1.313,2.498,1.313h0.001
		c1.139,0,2-0.5,2.598-1.402c0.594-0.937,0.889-2.335,0.891-4.142c0-1.763-0.302-3.081-0.831-3.95
		C61.622,58.236,60.763,57.8,59.643,57.8z M61.042,66.802c-0.304,0.732-0.785,1.099-1.4,1.099c-0.66,0-1.175-0.4-1.464-1.168
		c-0.315-0.778-0.474-2.022-0.472-3.666l-0.001,0.001c0-0.71,0.032-1.365,0.094-1.911c0.063-0.565,0.163-1.049,0.316-1.437
		c0.149-0.394,0.344-0.7,0.586-0.905c0.242-0.209,0.541-0.313,0.902-0.313c0.396,0,0.728,0.134,1.011,0.476
		c0.279,0.316,0.474,0.824,0.652,1.566c0.156,0.727,0.234,1.646,0.234,2.854C61.5,64.933,61.333,66.068,61.042,66.802z"/>
	<path d="M99.543,57.8c-0.503,0-0.982,0.101-1.391,0.325c-0.426,0.217-0.81,0.542-1.092,1.002c-0.304,0.45-0.557,1.008-0.708,1.711
		c-0.168,0.69-0.252,1.479-0.252,2.459c0,1.784,0.267,3.084,0.819,3.989c0.546,0.876,1.373,1.313,2.498,1.313h0.001
		c1.139,0,2-0.5,2.598-1.402c0.594-0.937,0.889-2.335,0.892-4.142c0-1.763-0.302-3.081-0.831-3.95
		C101.521,58.236,100.663,57.8,99.543,57.8z M100.941,66.802c-0.303,0.732-0.784,1.099-1.399,1.099c-0.66,0-1.175-0.4-1.464-1.168
		c-0.315-0.778-0.475-2.022-0.473-3.666c0-0.709,0.031-1.364,0.094-1.91c0.062-0.565,0.163-1.049,0.315-1.437
		c0.149-0.394,0.345-0.7,0.587-0.905c0.241-0.209,0.541-0.313,0.901-0.313c0.396,0,0.728,0.134,1.011,0.476
		c0.279,0.316,0.475,0.824,0.652,1.566c0.156,0.727,0.234,1.646,0.234,2.854C101.4,64.933,101.232,66.068,100.941,66.802z"/>
	<path d="M140.143,57.8c-0.502,0-0.982,0.101-1.391,0.325c-0.425,0.217-0.809,0.542-1.092,1.002
		c-0.303,0.45-0.557,1.008-0.708,1.711c-0.168,0.69-0.252,1.479-0.252,2.459c0,1.784,0.267,3.084,0.819,3.989
		c0.545,0.876,1.373,1.313,2.498,1.313c1.14,0,2-0.5,2.599-1.402c0.594-0.937,0.889-2.335,0.891-4.142
		c0-1.763-0.302-3.081-0.831-3.95C142.122,58.236,141.264,57.8,140.143,57.8z M141.542,66.802c-0.304,0.732-0.785,1.099-1.399,1.099
		c-0.66,0-1.176-0.4-1.465-1.168c-0.314-0.778-0.474-2.022-0.472-3.666l-0.001,0.001c0-0.71,0.031-1.365,0.094-1.911
		c0.062-0.565,0.163-1.049,0.316-1.437c0.148-0.394,0.344-0.7,0.586-0.905c0.242-0.209,0.541-0.313,0.902-0.313
		c0.396,0,0.728,0.134,1.01,0.476c0.279,0.316,0.475,0.824,0.652,1.566c0.156,0.727,0.234,1.646,0.234,2.854
		C142,64.933,141.833,66.068,141.542,66.802z"/>
	<path d="M172.311,67.261c-0.062,0.159-0.164,0.272-0.289,0.37c-0.131,0.088-0.338,0.145-0.571,0.197
		c-0.25,0.044-0.667,0.068-1.25,0.104V68.5h5.805v-0.567c-0.405-0.01-0.739-0.055-0.978-0.058c-0.248-0.028-0.457-0.086-0.616-0.123
		c-0.162-0.055-0.3-0.139-0.373-0.225c-0.086-0.097-0.165-0.238-0.181-0.372c-0.035-0.153-0.055-0.405-0.053-0.679V59.86
		c0-0.878,0-1.565,0.047-2.062h-0.427l-3.625,2.202l0.341,0.598c0.449-0.304,0.803-0.57,1.131-0.716
		c0.304-0.172,0.514-0.267,0.705-0.259c0.139,0,0.213,0.024,0.315,0.144c0.071,0.096,0.108,0.239,0.108,0.45v6.263
		C172.4,66.842,172.367,67.081,172.311,67.261z"/>
	<polygon points="185.5,2.302 188.5,2.302 188.5,17.901 190.1,17.901 190.1,1.602 185.5,1.602 	"/>
	<polygon points="188.5,20.8 188.5,34.401 190.1,34.401 190.1,20.8 190.1,17.901 188.5,17.901 	"/>
	<polygon points="188.5,37.4 188.5,51.102 190.1,51.102 190.1,37.4 190.1,34.401 188.5,34.401 	"/>
	<polygon points="188.5,53.9 188.5,69.7 185.5,69.7 185.5,70.4 190.1,70.4 190.1,53.9 190.1,51.102 188.5,51.102 	"/>
</g>
</svg>
