<?xml version="1.0" encoding="utf-8"?>
<!-- Generator: Adobe Illustrator 15.1.0, SVG Export Plug-In . SVG Version: 6.00 Build 0)  -->
<!DOCTYPE svg PUBLIC "-//W3C//DTD SVG 1.1 Tiny//EN" "http://www.w3.org/Graphics/SVG/1.1/DTD/svg11-tiny.dtd">
<svg version="1.1" baseProfile="tiny" id="Layer_1" xmlns="http://www.w3.org/2000/svg" xmlns:xlink="http://www.w3.org/1999/xlink"
	 x="0px" y="0px" width="364px" height="71px" viewBox="0 0 364 71" overflow="inherit" xml:space="preserve">
<g>
	<path fill="none" d="M345.078,28.433c0.289,0.768,0.804,1.167,1.464,1.167c0.615,0,1.096-0.365,1.4-1.098
		c0.291-0.734,0.458-1.869,0.458-3.406c0-1.207-0.078-2.126-0.234-2.853c-0.178-0.742-0.373-1.25-0.652-1.567
		c-0.282-0.341-0.614-0.475-1.011-0.475c-0.361,0-0.66,0.104-0.902,0.313c-0.241,0.205-0.437,0.512-0.586,0.905
		c-0.152,0.387-0.253,0.871-0.315,1.436c-0.062,0.547-0.094,1.202-0.094,1.912l0.001-0.002
		C344.604,26.41,344.763,27.654,345.078,28.433z"/>
	<path fill="none" d="M211.479,66.732c0.289,0.768,0.804,1.168,1.463,1.168c0.615,0,1.097-0.366,1.4-1.099
		c0.291-0.733,0.458-1.869,0.458-3.405c0-1.207-0.077-2.127-0.233-2.854c-0.178-0.742-0.373-1.25-0.652-1.566
		c-0.283-0.342-0.615-0.476-1.012-0.476c-0.36,0-0.659,0.104-0.901,0.313c-0.242,0.205-0.437,0.512-0.586,0.905
		c-0.153,0.388-0.253,0.871-0.315,1.437c-0.062,0.546-0.095,1.201-0.095,1.911l0.001-0.001
		C211.004,64.71,211.163,65.954,211.479,66.732z"/>
	<path fill="none" d="M345.078,9.333c0.289,0.767,0.804,1.167,1.464,1.167c0.615,0,1.096-0.366,1.4-1.098
		c0.291-0.734,0.458-1.869,0.458-3.406c0-1.207-0.078-2.126-0.234-2.854c-0.178-0.741-0.373-1.25-0.652-1.566
		c-0.282-0.341-0.614-0.475-1.011-0.475c-0.361,0-0.66,0.104-0.902,0.313c-0.241,0.205-0.437,0.511-0.586,0.905
		c-0.152,0.387-0.253,0.871-0.315,1.436c-0.062,0.546-0.094,1.202-0.094,1.911l0.001-0.001
		C344.604,7.311,344.763,8.554,345.078,9.333z"/>
	<path fill="none" d="M77.878,28.433c0.289,0.768,0.804,1.167,1.464,1.167c0.615,0,1.096-0.365,1.4-1.098
		c0.291-0.734,0.458-1.869,0.458-3.406c0-1.207-0.078-2.126-0.234-2.853c-0.178-0.742-0.373-1.25-0.652-1.567
		c-0.283-0.341-0.615-0.475-1.011-0.475c-0.361,0-0.66,0.104-0.902,0.313c-0.242,0.205-0.438,0.512-0.586,0.905
		c-0.153,0.387-0.253,0.871-0.316,1.436c-0.062,0.547-0.094,1.202-0.094,1.912l0-0.002C77.404,26.41,77.563,27.654,77.878,28.433z"
		/>
	<path fill="none" d="M213.914,1.576c-0.283-0.341-0.615-0.475-1.012-0.475c-0.36,0-0.659,0.104-0.901,0.313
		c-0.242,0.205-0.437,0.511-0.586,0.905c-0.153,0.387-0.253,0.871-0.315,1.436c-0.062,0.546-0.095,1.202-0.095,1.911l0.001-0.001
		c-0.002,1.645,0.157,2.888,0.473,3.667c0.289,0.767,0.804,1.167,1.463,1.167c0.615,0,1.097-0.366,1.4-1.098
		c0.291-0.734,0.458-1.869,0.458-3.406c0-1.207-0.077-2.126-0.233-2.854C214.389,2.401,214.193,1.893,213.914,1.576z"/>
	<path fill="none" d="M77.878,47.533c0.289,0.767,0.804,1.167,1.464,1.167c0.615,0,1.096-0.366,1.4-1.099
		c0.291-0.733,0.458-1.869,0.458-3.405c0-1.207-0.078-2.126-0.234-2.854c-0.178-0.741-0.373-1.25-0.652-1.566
		c-0.283-0.341-0.615-0.476-1.011-0.476c-0.361,0-0.66,0.105-0.902,0.314c-0.242,0.205-0.438,0.511-0.586,0.904
		c-0.153,0.388-0.253,0.871-0.316,1.437c-0.062,0.546-0.094,1.202-0.094,1.911l0-0.001C77.404,45.51,77.563,46.754,77.878,47.533z"
		/>
	<path fill="none" d="M211.479,47.533c0.289,0.767,0.804,1.167,1.463,1.167c0.615,0,1.097-0.366,1.4-1.099
		c0.291-0.733,0.458-1.869,0.458-3.405c0-1.207-0.077-2.126-0.233-2.854c-0.178-0.741-0.373-1.25-0.652-1.566
		c-0.283-0.341-0.615-0.476-1.012-0.476c-0.36,0-0.659,0.105-0.901,0.314c-0.242,0.205-0.437,0.511-0.586,0.904
		c-0.153,0.388-0.253,0.871-0.315,1.437c-0.062,0.546-0.095,1.202-0.095,1.911l0.001-0.001
		C211.004,45.51,211.163,46.754,211.479,47.533z"/>
	<path fill="none" d="M77.878,66.732c0.289,0.768,0.804,1.168,1.464,1.168c0.615,0,1.096-0.366,1.4-1.099
		c0.291-0.733,0.458-1.869,0.458-3.405c0-1.207-0.078-2.127-0.234-2.854c-0.178-0.742-0.373-1.25-0.652-1.566
		c-0.283-0.342-0.615-0.476-1.011-0.476c-0.361,0-0.66,0.104-0.902,0.313c-0.242,0.205-0.438,0.512-0.586,0.905
		c-0.153,0.388-0.253,0.871-0.316,1.437c-0.062,0.546-0.094,1.201-0.094,1.911l0-0.001C77.404,64.71,77.563,65.954,77.878,66.732z"
		/>
	<path fill="none" d="M345.078,66.732c0.289,0.768,0.804,1.168,1.464,1.168c0.615,0,1.096-0.366,1.4-1.099
		c0.291-0.733,0.458-1.869,0.458-3.405c0-1.207-0.078-2.127-0.234-2.854c-0.178-0.742-0.373-1.25-0.652-1.566
		c-0.282-0.342-0.614-0.476-1.011-0.476c-0.361,0-0.66,0.104-0.902,0.313c-0.241,0.205-0.437,0.512-0.586,0.905
		c-0.152,0.388-0.253,0.871-0.315,1.437c-0.062,0.546-0.094,1.201-0.094,1.911l0.001-0.001
		C344.604,64.71,344.763,65.954,345.078,66.732z"/>
	<path d="M2.825,38.205c0.031-0.285,0.057-0.588,0.117-0.875l0.434-2.841c0.01-0.058-0.014-0.12,0.023-0.188
		c0.005-0.067,0.006-0.169,0.008-0.212c0-0.126-0.035-0.256-0.039-0.381c-0.025-0.129-0.081-0.265-0.145-0.352
		c-0.07-0.107-0.178-0.227-0.291-0.26C2.809,33.033,2.632,33,2.452,33c-0.233,0-0.483,0.034-0.683,0.122
		c-0.224,0.08-0.446,0.173-0.638,0.32c-0.201,0.133-0.41,0.252-0.573,0.443c-0.182,0.163-0.367,0.302-0.513,0.495l0.372,0.434
		c0.094-0.092,0.188-0.196,0.303-0.297c0.108-0.106,0.201-0.212,0.337-0.299c0.116-0.094,0.231-0.199,0.345-0.229
		C1.517,33.93,1.616,33.9,1.721,33.9c0.124,0,0.184,0.032,0.264,0.155c0.052,0.104,0.057,0.218,0.078,0.396
		c0,0.052-0.021,0.101-0.02,0.245c-0.012,0.111-0.06,0.212-0.05,0.353l-0.327,2.153c-0.056,0.342-0.112,0.674-0.139,1.019
		c-0.037,0.337-0.079,0.629-0.055,0.947c0,0.223,0.009,0.4,0.039,0.614c0.026,0.187,0.055,0.325,0.131,0.485
		c0.062,0.139,0.115,0.215,0.245,0.319C1.988,40.662,2.093,40.7,2.264,40.7l0.005-0.003c0.336,0,0.648-0.101,1.012-0.205
		c0.34-0.139,0.648-0.336,1.002-0.555c0.33-0.232,0.637-0.513,0.953-0.817c0.305-0.312,0.562-0.653,0.861-0.998
		c0.269-0.354,0.506-0.729,0.737-1.092c0.223-0.375,0.413-0.752,0.575-1.098c0.16-0.355,0.26-0.702,0.373-1.014
		c0.088-0.321,0.13-0.628,0.133-0.853c0-0.325-0.102-0.614-0.248-0.778c-0.166-0.194-0.453-0.291-0.808-0.291
		c-0.191,0-0.408,0.033-0.589,0.117c-0.203,0.079-0.424,0.173-0.588,0.312c-0.189,0.13-0.381,0.254-0.536,0.453
		c-0.168,0.172-0.315,0.344-0.438,0.538l0.442,0.395c0.197-0.272,0.382-0.512,0.57-0.661c0.184-0.169,0.38-0.253,0.604-0.253
		c0.171,0,0.265,0.032,0.377,0.152c0.08,0.102,0.115,0.217,0.12,0.434c0,0.432-0.071,0.836-0.214,1.287
		c-0.143,0.429-0.343,0.804-0.556,1.22c-0.228,0.384-0.509,0.72-0.769,1.073c-0.284,0.33-0.576,0.608-0.853,0.857
		c-0.285,0.241-0.559,0.4-0.816,0.57c-0.259,0.137-0.494,0.206-0.645,0.206c-0.072,0-0.126-0.101-0.146-0.203
		c-0.026-0.136-0.065-0.335-0.039-0.534C2.78,38.742,2.788,38.487,2.825,38.205z"/>
	<path d="M10.81,38.176c-0.152-0.183-0.389-0.274-0.647-0.274c-0.152,0-0.306,0-0.438,0.063c-0.14,0.042-0.281,0.087-0.425,0.2
		c-0.143,0.09-0.309,0.202-0.45,0.348c-0.156,0.142-0.34,0.304-0.517,0.509l0.391,0.368c0.113-0.116,0.205-0.247,0.307-0.305
		c0.09-0.088,0.146-0.183,0.248-0.216c0.076-0.057,0.117-0.114,0.219-0.128c0.069-0.028,0.137-0.042,0.212-0.042
		c0.222,0,0.319,0.134,0.333,0.413c0,0.099-0.014,0.193-0.031,0.362c-0.02,0.144-0.057,0.318-0.109,0.541l0.002-0.001l-0.85,3.685
		h1.111l0.577-2.703c0.041-0.194,0.095-0.393,0.187-0.578c0.083-0.191,0.174-0.398,0.292-0.544c0.111-0.171,0.205-0.33,0.353-0.473
		c0.125-0.146,0.235-0.279,0.377-0.378c0.127-0.105,0.244-0.213,0.359-0.244c0.114-0.058,0.211-0.084,0.302-0.08
		c0.146,0,0.244,0.033,0.336,0.139c0.078,0.093,0.096,0.247,0.145,0.461h0.656l0.287-1.322c-0.117-0.021-0.262-0.048-0.364-0.055
		c-0.126-0.015-0.283-0.021-0.405-0.021c-0.382,0-0.77,0.1-1.113,0.36c-0.36,0.24-0.745,0.586-1.114,1.127l-0.078-0.034
		c0.052-0.132,0.065-0.283,0.078-0.455C11.04,38.602,10.96,38.334,10.81,38.176z"/>
	<rect x="21.056" y="37.1" width="9.566" height="1"/>
	<rect x="21.056" y="33.9" width="9.566" height="1"/>
	<path d="M39.166,32.217l-1.32,5.955c-0.113,0.511-0.229,0.854-0.256,1.033c-0.056,0.178-0.12,0.309-0.186,0.453
		c-0.066,0.125-0.168,0.205-0.248,0.291c-0.098,0.068-0.249,0.119-0.442,0.149l-0.086,0.4h2.717l0.086-0.4
		c-0.273-0.021-0.484-0.088-0.586-0.175c-0.117-0.096-0.198-0.271-0.175-0.494c0-0.314,0.043-0.725,0.162-1.212l0.792-3.592
		c0.218-0.99,0.41-2.065,0.591-3.228h0.155c0.115,1.203,0.191,2.136,0.311,2.866l0.645,5.034h0.847l3.533-5.859
		c0.563-0.94,0.896-1.588,1.086-1.871H46.9c-0.187,0.641-0.353,1.251-0.497,1.93L45.37,38.17c-0.113,0.511-0.203,0.854-0.256,1.034
		c-0.059,0.178-0.129,0.31-0.188,0.453c-0.066,0.125-0.175,0.205-0.248,0.291c-0.098,0.069-0.257,0.121-0.441,0.151l-0.086,0.4
		h3.105l0.084-0.4c-0.273-0.02-0.488-0.087-0.586-0.173c-0.117-0.096-0.202-0.271-0.175-0.494c0-0.144,0.006-0.32,0.031-0.482
		c0.021-0.179,0.051-0.429,0.133-0.726l1.327-6.016c0.109-0.495,0.186-0.865,0.269-1.073c0.069-0.219,0.123-0.397,0.209-0.483
		c0.07-0.104,0.121-0.187,0.233-0.231c0.085-0.052,0.225-0.126,0.423-0.141l0.084-0.38h-2.445v-0.002l-4.527,7.567l-0.885-7.567
		h-2.771l-0.086,0.4c0.264,0.016,0.439,0.049,0.578,0.167c0.122,0.095,0.17,0.239,0.183,0.506c0,0.206-0.045,0.382-0.047,0.611
		C39.259,31.784,39.196,31.989,39.166,32.217z"/>
	<path d="M56.147,36.636c0.169-0.177,0.253-0.422,0.253-0.686c0-0.28-0.1-0.53-0.253-0.685C55.979,35.089,55.763,35,55.5,35
		s-0.496,0.067-0.648,0.266c-0.168,0.177-0.252,0.388-0.252,0.685c0,0.28,0.067,0.497,0.252,0.686
		C55.02,36.812,55.236,36.9,55.5,36.9C55.763,36.9,55.963,36.8,56.147,36.636z"/>
	<polygon points="63.6,2.302 66.7,2.302 66.7,1.602 62,1.602 62,17.901 63.6,17.901 	"/>
	<polygon points="63.6,20.8 63.6,17.901 62,17.901 61.97,17.901 61.97,34.401 63.6,34.401 	"/>
	<polygon points="63.6,51.102 63.6,37.4 63.6,34.401 61.97,34.401 61.97,37.4 61.97,53.9 62,53.9 62,51.102 	"/>
	<polygon points="63.6,51.102 62,51.102 62,53.9 62,70.4 66.7,70.4 66.7,69.7 63.6,69.7 63.6,53.9 	"/>
	<path d="M80.305,2.46c0-0.878-0.001-1.565,0.047-2.062h-0.427L76.3,2.602l0.341,0.598c0.449-0.305,0.802-0.571,1.13-0.717
		c0.304-0.172,0.514-0.267,0.705-0.259c0.139,0,0.214,0.025,0.316,0.145c0.072,0.095,0.109,0.239,0.109,0.45v6.263
		c0,0.361-0.034,0.6-0.091,0.78c-0.061,0.158-0.164,0.271-0.288,0.369c-0.131,0.089-0.339,0.145-0.572,0.197
		c-0.25,0.044-0.667,0.068-1.25,0.105V11.1h5.805v-0.566c-0.405-0.01-0.74-0.055-0.978-0.059c-0.247-0.027-0.456-0.086-0.616-0.123
		c-0.162-0.055-0.299-0.139-0.373-0.225c-0.086-0.096-0.165-0.238-0.181-0.372c-0.035-0.153-0.054-0.405-0.052-0.678V9.076V2.46z"/>
	<path d="M75.9,24.997c0,1.784,0.267,3.084,0.819,3.989c0.545,0.876,1.373,1.313,2.498,1.313h0c1.139,0,2-0.5,2.598-1.403
		c0.594-0.936,0.889-2.334,0.891-4.141c0-1.763-0.302-3.081-0.831-3.95c-0.554-0.87-1.413-1.306-2.533-1.306
		c-0.503,0-0.982,0.1-1.391,0.325c-0.425,0.217-0.809,0.542-1.092,1.002c-0.303,0.45-0.557,1.008-0.708,1.711
		C75.984,23.229,75.9,24.016,75.9,24.997z M77.499,22.855c0.063-0.564,0.163-1.049,0.316-1.436c0.149-0.394,0.344-0.7,0.586-0.905
		c0.242-0.209,0.541-0.313,0.902-0.313c0.396,0,0.728,0.134,1.011,0.475c0.279,0.317,0.474,0.825,0.652,1.567
		c0.156,0.727,0.234,1.646,0.234,2.853c0,1.537-0.167,2.672-0.458,3.406c-0.304,0.732-0.785,1.098-1.4,1.098
		c-0.66,0-1.175-0.399-1.464-1.167c-0.315-0.778-0.474-2.022-0.472-3.667l0,0.002C77.405,24.058,77.437,23.402,77.499,22.855z"/>
	<path d="M76.719,48.086c0.545,0.876,1.373,1.314,2.498,1.314h0c1.139,0,2-0.5,2.598-1.403c0.594-0.937,0.889-2.335,0.891-4.142
		c0-1.763-0.302-3.08-0.831-3.949c-0.554-0.87-1.413-1.307-2.533-1.307c-0.503,0-0.982,0.101-1.391,0.325
		c-0.425,0.218-0.809,0.542-1.092,1.002c-0.303,0.45-0.557,1.009-0.708,1.711c-0.168,0.69-0.252,1.479-0.252,2.459
		C75.9,45.881,76.167,47.181,76.719,48.086z M77.499,41.956c0.063-0.565,0.163-1.049,0.316-1.437
		c0.149-0.394,0.344-0.699,0.586-0.904c0.242-0.209,0.541-0.314,0.902-0.314c0.396,0,0.728,0.135,1.011,0.476
		c0.279,0.316,0.474,0.825,0.652,1.566c0.156,0.728,0.234,1.646,0.234,2.854c0,1.536-0.167,2.672-0.458,3.405
		c-0.304,0.732-0.785,1.099-1.4,1.099c-0.66,0-1.175-0.4-1.464-1.167c-0.315-0.779-0.474-2.023-0.472-3.667l0,0.001
		C77.405,43.158,77.437,42.502,77.499,41.956z"/>
	<path d="M76.719,67.286c0.545,0.876,1.373,1.313,2.498,1.313h0c1.139,0,2-0.5,2.598-1.402c0.594-0.937,0.889-2.335,0.891-4.142
		c0-1.763-0.302-3.081-0.831-3.95c-0.554-0.869-1.413-1.306-2.533-1.306c-0.503,0-0.982,0.101-1.391,0.325
		c-0.425,0.217-0.809,0.542-1.092,1.002c-0.303,0.45-0.557,1.008-0.708,1.711c-0.168,0.69-0.252,1.479-0.252,2.459
		C75.9,65.081,76.167,66.381,76.719,67.286z M77.499,61.156c0.063-0.565,0.163-1.049,0.316-1.437c0.149-0.394,0.344-0.7,0.586-0.905
		c0.242-0.209,0.541-0.313,0.902-0.313c0.396,0,0.728,0.134,1.011,0.476c0.279,0.316,0.474,0.824,0.652,1.566
		c0.156,0.727,0.234,1.646,0.234,2.854c0,1.536-0.167,2.672-0.458,3.405c-0.304,0.732-0.785,1.099-1.4,1.099
		c-0.66,0-1.175-0.4-1.464-1.168c-0.315-0.778-0.474-2.022-0.472-3.666l0,0.001C77.405,62.357,77.437,61.702,77.499,61.156z"/>
	<polygon points="96.6,17.901 96.6,1.602 92,1.602 92,2.302 95,2.302 95,17.901 	"/>
	<polygon points="95,20.8 95,34.401 96.6,34.401 96.6,20.8 96.6,17.901 95,17.901 	"/>
	<polygon points="95,37.4 95,51.102 96.6,51.102 96.6,37.4 96.6,34.401 95,34.401 	"/>
	<polygon points="95,53.9 95,69.7 92,69.7 92,70.4 96.6,70.4 96.6,53.9 96.6,51.102 95,51.102 	"/>
	<path d="M135.225,38.205c0.031-0.285,0.057-0.588,0.117-0.875l0.434-2.841c0.01-0.058-0.014-0.12,0.023-0.188
		c0.005-0.067,0.006-0.169,0.008-0.212c0-0.126-0.035-0.256-0.039-0.381c-0.025-0.129-0.081-0.265-0.144-0.352
		c-0.07-0.107-0.178-0.227-0.291-0.26c-0.124-0.064-0.301-0.098-0.481-0.098c-0.233,0-0.483,0.034-0.683,0.122
		c-0.224,0.08-0.446,0.173-0.638,0.32c-0.201,0.133-0.41,0.252-0.573,0.443c-0.182,0.163-0.367,0.302-0.513,0.495l0.372,0.434
		c0.094-0.092,0.188-0.196,0.303-0.297c0.108-0.106,0.201-0.212,0.337-0.299c0.116-0.094,0.231-0.199,0.345-0.229
		c0.115-0.06,0.214-0.089,0.319-0.089c0.124,0,0.184,0.032,0.264,0.155c0.052,0.104,0.057,0.218,0.078,0.396
		c0,0.052-0.021,0.101-0.02,0.245c-0.012,0.111-0.06,0.212-0.05,0.353l-0.327,2.153c-0.056,0.342-0.112,0.674-0.139,1.019
		c-0.037,0.337-0.079,0.629-0.055,0.947c0,0.223,0.009,0.4,0.039,0.614c0.026,0.187,0.055,0.325,0.131,0.485
		c0.062,0.139,0.115,0.215,0.245,0.319c0.101,0.075,0.206,0.113,0.377,0.113l0.005-0.003c0.336,0,0.648-0.101,1.012-0.205
		c0.34-0.139,0.648-0.336,1.002-0.555c0.329-0.232,0.637-0.513,0.952-0.817c0.305-0.312,0.562-0.653,0.861-0.998
		c0.269-0.354,0.506-0.729,0.737-1.092c0.223-0.375,0.413-0.752,0.575-1.098c0.16-0.355,0.26-0.702,0.372-1.014
		c0.088-0.321,0.13-0.628,0.133-0.853c0-0.325-0.102-0.614-0.248-0.778c-0.166-0.194-0.453-0.291-0.808-0.291
		c-0.191,0-0.408,0.033-0.589,0.117c-0.203,0.079-0.424,0.173-0.588,0.312c-0.189,0.13-0.381,0.254-0.536,0.453
		c-0.168,0.172-0.315,0.344-0.438,0.538l0.442,0.395c0.197-0.272,0.382-0.512,0.57-0.661c0.184-0.169,0.38-0.253,0.603-0.253
		c0.171,0,0.265,0.032,0.377,0.152c0.08,0.102,0.115,0.217,0.12,0.434c0,0.432-0.071,0.836-0.214,1.287
		c-0.143,0.429-0.343,0.804-0.556,1.22c-0.228,0.384-0.509,0.72-0.769,1.073c-0.284,0.33-0.576,0.608-0.853,0.857
		c-0.285,0.241-0.559,0.4-0.816,0.57c-0.259,0.137-0.494,0.206-0.644,0.206c-0.072,0-0.126-0.101-0.147-0.203
		c-0.026-0.136-0.065-0.335-0.039-0.534C135.18,38.742,135.188,38.487,135.225,38.205z"/>
	<path d="M143.286,40.132c0.071-0.251,0.109-0.496,0.152-0.68c0.03-0.204,0.017-0.388,0.045-0.552c0-0.305-0.095-0.571-0.244-0.729
		c-0.162-0.181-0.409-0.271-0.65-0.271c-0.162,0-0.326,0-0.453,0.058c-0.14,0.038-0.286,0.085-0.425,0.188
		c-0.143,0.088-0.315,0.172-0.456,0.347c-0.161,0.143-0.346,0.312-0.547,0.528l0.386,0.368c0.113-0.116,0.214-0.247,0.305-0.305
		c0.091-0.088,0.157-0.183,0.252-0.216c0.078-0.057,0.128-0.114,0.219-0.128c0.068-0.028,0.111-0.042,0.209-0.042
		c0.227,0,0.334,0.134,0.341,0.413c0,0.102-0.041,0.23-0.055,0.427c-0.036,0.182-0.091,0.369-0.133,0.609
		c-0.053,0.225-0.13,0.441-0.169,0.701c-0.06,0.243-0.148,0.459-0.17,0.697c-0.053,0.223-0.118,0.407-0.134,0.605
		c-0.035,0.18-0.055,0.296-0.053,0.423c0,0.395,0.098,0.67,0.303,0.909c0.202,0.211,0.499,0.315,0.903,0.315
		c0.382,0,0.744-0.133,1.102-0.372c0.354-0.248,0.715-0.624,1.091-1.115l-0.003-0.002l0.069,0.022
		c-0.031,0.075-0.055,0.129-0.063,0.234c-0.012,0.081-0.048,0.157-0.017,0.241c0,0.307,0.069,0.535,0.23,0.724
		c0.153,0.176,0.345,0.264,0.637,0.264c0.15,0,0.264-0.033,0.437-0.062c0.141-0.04,0.275-0.119,0.427-0.198
		c0.144-0.092,0.269-0.239,0.453-0.354c0.158-0.143,0.332-0.338,0.522-0.514l-0.391-0.373c-0.113,0.124-0.217,0.224-0.306,0.32
		c-0.09,0.088-0.192,0.148-0.253,0.217c-0.077,0.056-0.16,0.078-0.217,0.125c-0.068,0.026-0.145,0.039-0.209,0.039
		c-0.118,0-0.226-0.033-0.255-0.095c-0.052-0.064-0.108-0.199-0.078-0.312c0-0.104,0.003-0.236,0.028-0.384
		c0.018-0.151,0.045-0.353,0.095-0.514L147.083,38h-1.114l-0.623,2.825c-0.068,0.253-0.184,0.477-0.32,0.766
		c-0.145,0.257-0.321,0.46-0.495,0.7c-0.185,0.209-0.396,0.378-0.581,0.511c-0.201,0.131-0.419,0.197-0.569,0.197
		c-0.196,0-0.357-0.067-0.428-0.166c-0.089-0.11-0.14-0.288-0.133-0.503c0-0.18,0.026-0.49,0.125-0.848
		C143.029,41.096,143.113,40.635,143.286,40.132z"/>
	<rect x="154.656" y="33.9" width="9.566" height="1"/>
	<rect x="154.656" y="37.1" width="9.566" height="1"/>
	<path d="M172.766,32.217l-1.32,5.955c-0.113,0.511-0.229,0.854-0.256,1.033c-0.056,0.178-0.12,0.309-0.186,0.453
		c-0.066,0.125-0.168,0.205-0.248,0.291c-0.098,0.068-0.249,0.119-0.442,0.149l-0.086,0.4h2.717l0.086-0.4
		c-0.274-0.021-0.484-0.088-0.586-0.175c-0.117-0.096-0.198-0.271-0.175-0.494c0-0.314,0.043-0.725,0.162-1.212l0.792-3.592
		c0.218-0.99,0.41-2.065,0.591-3.228h0.155c0.115,1.203,0.191,2.136,0.311,2.866l0.644,5.034h0.847l3.533-5.859
		c0.563-0.94,0.896-1.588,1.086-1.871h0.109c-0.187,0.641-0.353,1.251-0.497,1.93l-1.033,4.672
		c-0.113,0.511-0.203,0.854-0.256,1.034c-0.058,0.178-0.129,0.31-0.188,0.453c-0.066,0.125-0.175,0.205-0.248,0.291
		c-0.098,0.069-0.257,0.121-0.441,0.151l-0.086,0.4h3.106l0.084-0.4c-0.274-0.02-0.488-0.087-0.586-0.173
		c-0.117-0.096-0.202-0.271-0.175-0.494c0-0.144,0.006-0.32,0.031-0.482c0.021-0.179,0.051-0.429,0.133-0.726l1.327-6.016
		c0.11-0.495,0.186-0.865,0.269-1.073c0.069-0.219,0.123-0.397,0.209-0.483c0.07-0.104,0.121-0.187,0.233-0.231
		c0.085-0.052,0.225-0.126,0.423-0.141l0.084-0.38h-2.445v-0.002l-4.527,7.567l-0.884-7.567h-2.772l-0.086,0.4
		c0.264,0.016,0.439,0.049,0.578,0.167c0.122,0.095,0.171,0.239,0.183,0.506c0,0.206-0.045,0.382-0.047,0.611
		C172.859,31.784,172.796,31.989,172.766,32.217z"/>
	<path d="M189.747,36.636c0.169-0.177,0.253-0.422,0.253-0.686c0-0.28-0.1-0.53-0.253-0.685C189.579,35.089,189.363,35,189.1,35
		c-0.263,0-0.496,0.067-0.647,0.266c-0.168,0.177-0.252,0.388-0.252,0.685c0,0.28,0.067,0.497,0.252,0.686
		c0.168,0.177,0.384,0.265,0.647,0.265S189.562,36.8,189.747,36.636z"/>
	<polygon points="197.199,20.8 197.2,20.8 197.2,2.302 200.3,2.302 200.3,1.602 195.6,1.602 195.6,17.901 197.199,17.901 	"/>
	<polygon points="197.199,20.8 197.199,17.901 195.6,17.901 195.57,17.901 195.57,34.401 197.199,34.401 	"/>
	<polygon points="197.199,34.401 195.57,34.401 195.57,37.4 195.57,53.9 195.6,53.9 195.6,51.102 197.199,51.102 197.199,37.4 	"/>
	<polygon points="195.6,53.9 195.6,70.4 200.3,70.4 200.3,69.7 197.2,69.7 197.2,51.102 197.199,51.102 195.6,51.102 	"/>
	<path d="M215.477,1.706c-0.555-0.87-1.414-1.306-2.533-1.306c-0.504,0-0.983,0.1-1.392,0.324c-0.425,0.218-0.809,0.543-1.092,1.002
		c-0.303,0.45-0.556,1.009-0.708,1.711c-0.168,0.69-0.252,1.479-0.252,2.459c0,1.784,0.268,3.084,0.818,3.989
		c0.547,0.876,1.373,1.314,2.498,1.314h0.002c1.139,0,2-0.5,2.598-1.403c0.594-0.936,0.889-2.335,0.891-4.141
		C216.307,3.893,216.005,2.575,215.477,1.706z M214.342,9.402c-0.304,0.731-0.785,1.098-1.4,1.098c-0.659,0-1.174-0.4-1.463-1.167
		c-0.315-0.779-0.475-2.022-0.473-3.667l-0.001,0.001c0-0.709,0.032-1.365,0.095-1.911c0.062-0.564,0.162-1.049,0.315-1.436
		c0.149-0.395,0.344-0.7,0.586-0.905c0.242-0.209,0.541-0.313,0.901-0.313c0.396,0,0.729,0.134,1.012,0.475
		c0.279,0.316,0.475,0.825,0.652,1.566c0.156,0.728,0.233,1.646,0.233,2.854C214.8,7.533,214.633,8.668,214.342,9.402z"/>
	<path d="M212.41,28.961c-0.061,0.159-0.164,0.271-0.288,0.37c-0.131,0.088-0.339,0.144-0.572,0.197
		c-0.25,0.044-0.667,0.067-1.25,0.104V30.2h5.806v-0.567c-0.405-0.01-0.74-0.055-0.979-0.058c-0.247-0.028-0.456-0.086-0.615-0.123
		c-0.162-0.056-0.3-0.14-0.373-0.226c-0.087-0.096-0.166-0.237-0.182-0.371c-0.035-0.153-0.055-0.405-0.053-0.679v-0.001v-6.615
		c0-0.879,0-1.565,0.048-2.062h-0.427l-3.625,2.202l0.341,0.598c0.448-0.304,0.802-0.57,1.13-0.716
		c0.304-0.172,0.514-0.267,0.705-0.259c0.139,0,0.214,0.024,0.316,0.144c0.071,0.095,0.108,0.239,0.108,0.45v6.263
		C212.501,28.542,212.467,28.781,212.41,28.961z"/>
	<path d="M210.318,48.086c0.547,0.876,1.373,1.314,2.498,1.314h0.002c1.139,0,2-0.5,2.598-1.403
		c0.594-0.937,0.889-2.335,0.891-4.142c0-1.763-0.302-3.08-0.83-3.949c-0.555-0.87-1.414-1.307-2.533-1.307
		c-0.504,0-0.983,0.101-1.392,0.325c-0.425,0.218-0.809,0.542-1.092,1.002c-0.303,0.45-0.556,1.009-0.708,1.711
		c-0.168,0.69-0.252,1.479-0.252,2.459C209.5,45.881,209.768,47.181,210.318,48.086z M211.1,41.956
		c0.062-0.565,0.162-1.049,0.315-1.437c0.149-0.394,0.344-0.699,0.586-0.904c0.242-0.209,0.541-0.314,0.901-0.314
		c0.396,0,0.729,0.135,1.012,0.476c0.279,0.316,0.475,0.825,0.652,1.566c0.156,0.728,0.233,1.646,0.233,2.854
		c0,1.536-0.167,2.672-0.458,3.405c-0.304,0.732-0.785,1.099-1.4,1.099c-0.659,0-1.174-0.4-1.463-1.167
		c-0.315-0.779-0.475-2.023-0.473-3.667l-0.001,0.001C211.005,43.158,211.037,42.502,211.1,41.956z"/>
	<path d="M210.318,67.286c0.547,0.876,1.373,1.313,2.498,1.313h0.002c1.139,0,2-0.5,2.598-1.402
		c0.594-0.937,0.889-2.335,0.891-4.142c0-1.763-0.302-3.081-0.83-3.95c-0.555-0.869-1.414-1.306-2.533-1.306
		c-0.504,0-0.983,0.101-1.392,0.325c-0.425,0.217-0.809,0.542-1.092,1.002c-0.303,0.45-0.556,1.008-0.708,1.711
		c-0.168,0.69-0.252,1.479-0.252,2.459C209.5,65.081,209.768,66.381,210.318,67.286z M211.1,61.156
		c0.062-0.565,0.162-1.049,0.315-1.437c0.149-0.394,0.344-0.7,0.586-0.905c0.242-0.209,0.541-0.313,0.901-0.313
		c0.396,0,0.729,0.134,1.012,0.476c0.279,0.316,0.475,0.824,0.652,1.566c0.156,0.727,0.233,1.646,0.233,2.854
		c0,1.536-0.167,2.672-0.458,3.405c-0.304,0.732-0.785,1.099-1.4,1.099c-0.659,0-1.174-0.4-1.463-1.168
		c-0.315-0.778-0.475-2.022-0.473-3.666l-0.001,0.001C211.005,62.357,211.037,61.702,211.1,61.156z"/>
	<polygon points="230.2,17.901 230.2,1.602 225.6,1.602 225.6,2.302 228.6,2.302 228.6,17.901 	"/>
	<polygon points="228.6,20.8 228.6,34.401 230.2,34.401 230.2,20.8 230.2,17.901 228.6,17.901 	"/>
	<polygon points="228.6,37.4 228.6,51.102 230.2,51.102 230.2,37.4 230.2,34.401 228.6,34.401 	"/>
	<polygon points="228.6,53.9 228.6,69.7 225.6,69.7 225.6,70.4 230.2,70.4 230.2,53.9 230.2,51.102 228.6,51.102 	"/>
	<path d="M268.941,37.33l0.435-2.841c0.01-0.058-0.015-0.12,0.022-0.188c0.006-0.067,0.006-0.169,0.009-0.212
		c0-0.126-0.035-0.256-0.039-0.381c-0.025-0.129-0.081-0.265-0.144-0.352c-0.07-0.107-0.179-0.227-0.291-0.26
		c-0.125-0.064-0.302-0.098-0.481-0.098c-0.233,0-0.483,0.034-0.683,0.122c-0.225,0.08-0.446,0.173-0.639,0.32
		c-0.201,0.133-0.41,0.252-0.572,0.443c-0.183,0.163-0.367,0.302-0.514,0.495l0.372,0.434c0.094-0.092,0.188-0.196,0.304-0.297
		c0.107-0.106,0.2-0.212,0.336-0.299c0.116-0.094,0.231-0.199,0.346-0.229c0.115-0.06,0.214-0.089,0.318-0.089
		c0.125,0,0.184,0.032,0.264,0.155c0.053,0.104,0.058,0.218,0.078,0.396c0,0.052-0.021,0.101-0.02,0.245
		c-0.012,0.111-0.061,0.212-0.05,0.353l-0.327,2.153c-0.057,0.342-0.111,0.674-0.139,1.019c-0.037,0.337-0.079,0.629-0.055,0.947
		c0,0.223,0.008,0.4,0.038,0.614c0.026,0.187,0.056,0.325,0.132,0.485c0.062,0.139,0.114,0.215,0.244,0.319
		c0.102,0.075,0.206,0.113,0.377,0.113l0.006-0.003c0.336,0,0.647-0.101,1.012-0.205c0.34-0.139,0.648-0.336,1.002-0.555
		c0.328-0.232,0.637-0.513,0.951-0.817c0.306-0.312,0.562-0.653,0.861-0.998c0.27-0.354,0.506-0.729,0.737-1.092
		c0.224-0.375,0.413-0.752,0.575-1.098c0.16-0.355,0.26-0.702,0.371-1.014c0.089-0.321,0.131-0.628,0.134-0.853
		c0-0.325-0.103-0.614-0.248-0.778c-0.166-0.194-0.453-0.291-0.808-0.291c-0.191,0-0.408,0.033-0.59,0.117
		c-0.203,0.079-0.424,0.173-0.588,0.312c-0.188,0.13-0.381,0.254-0.535,0.453c-0.168,0.172-0.315,0.344-0.438,0.538l0.442,0.395
		c0.197-0.272,0.381-0.512,0.569-0.661c0.185-0.169,0.38-0.253,0.603-0.253c0.172,0,0.266,0.032,0.378,0.152
		c0.079,0.102,0.114,0.217,0.12,0.434c0,0.432-0.071,0.836-0.215,1.287c-0.143,0.429-0.343,0.804-0.556,1.22
		c-0.228,0.384-0.509,0.72-0.769,1.073c-0.284,0.33-0.576,0.608-0.854,0.857c-0.285,0.241-0.559,0.4-0.816,0.57
		c-0.258,0.137-0.493,0.206-0.644,0.206c-0.071,0-0.126-0.101-0.147-0.203c-0.025-0.136-0.064-0.335-0.039-0.534
		c0-0.219,0.009-0.474,0.046-0.756C268.855,37.92,268.882,37.617,268.941,37.33z"/>
	<path d="M277.038,38.895c0-0.299-0.08-0.564-0.229-0.722c-0.152-0.182-0.39-0.272-0.647-0.272c-0.155,0-0.31,0-0.442,0.063
		c-0.14,0.042-0.312,0.087-0.422,0.2c-0.141,0.09-0.307,0.202-0.447,0.348c-0.156,0.142-0.341,0.303-0.518,0.508l0.391,0.369
		c0.113-0.117,0.205-0.246,0.307-0.305c0.091-0.088,0.147-0.183,0.252-0.216c0.076-0.058,0.15-0.114,0.22-0.128
		c0.069-0.028,0.136-0.042,0.208-0.042c0.223,0,0.318,0.134,0.333,0.413c0,0.098-0.015,0.193-0.034,0.378
		c-0.021,0.153-0.058,0.323-0.105,0.524l-0.851,3.685h1.111l0.634-2.83c0.037-0.173,0.072-0.363,0.178-0.522
		c0.082-0.175,0.157-0.357,0.28-0.502c0.106-0.158,0.222-0.341,0.349-0.449c0.125-0.142,0.225-0.274,0.387-0.367
		c0.132-0.104,0.234-0.213,0.394-0.242c0.13-0.059,0.236-0.087,0.366-0.087c0.197,0,0.312,0.034,0.428,0.164
		c0.088,0.108,0.129,0.254,0.133,0.513c0,0.098-0.037,0.206-0.037,0.369c-0.025,0.148-0.082,0.3-0.103,0.508
		c-0.043,0.19-0.101,0.372-0.153,0.62c-0.059,0.223-0.131,0.432-0.188,0.7c-0.065,0.24-0.142,0.449-0.146,0.663
		c-0.031,0.202-0.059,0.355-0.047,0.526c0,0.152,0.021,0.265,0.067,0.416c0.046,0.125,0.077,0.233,0.192,0.327
		c0.082,0.092,0.15,0.157,0.297,0.216c0.115,0.053,0.217,0.08,0.377,0.08c0.162,0,0.305-0.033,0.457-0.066
		c0.144-0.045,0.268-0.123,0.433-0.205c0.146-0.094,0.293-0.235,0.452-0.351c0.154-0.141,0.316-0.334,0.509-0.506l-0.392-0.373
		c-0.112,0.124-0.223,0.224-0.305,0.32c-0.092,0.088-0.199,0.149-0.25,0.217c-0.076,0.056-0.168,0.078-0.218,0.125
		c-0.069,0.026-0.155,0.039-0.213,0.039c-0.117,0-0.231-0.033-0.255-0.095c-0.053-0.065-0.082-0.199-0.078-0.312
		c0-0.038-0.004-0.135,0.05-0.286c0.035-0.153,0.048-0.356,0.13-0.558c0.053-0.219,0.09-0.469,0.17-0.714
		c0.061-0.257,0.106-0.536,0.17-0.752c0.054-0.245,0.076-0.473,0.131-0.678c0.035-0.206,0.047-0.375,0.052-0.483
		c0-0.388-0.104-0.696-0.298-0.902c-0.198-0.213-0.504-0.319-0.895-0.319c-0.382,0-0.756,0.099-1.109,0.373
		c-0.355,0.248-0.727,0.623-1.084,1.125v-0.004l-0.079-0.027c0.034-0.075,0.051-0.165,0.069-0.237
		C277.031,39.049,277.025,38.938,277.038,38.895z"/>
	<rect x="288.256" y="37.1" width="9.566" height="1"/>
	<rect x="288.256" y="33.9" width="9.566" height="1"/>
	<path d="M306.366,32.217l-1.32,5.955c-0.112,0.511-0.229,0.854-0.256,1.033c-0.056,0.178-0.12,0.309-0.187,0.453
		c-0.065,0.125-0.168,0.205-0.248,0.291c-0.098,0.068-0.248,0.119-0.441,0.149l-0.086,0.4h2.717l0.086-0.4
		c-0.273-0.021-0.483-0.088-0.586-0.175c-0.117-0.096-0.197-0.271-0.175-0.494c0-0.314,0.043-0.725,0.162-1.212l0.792-3.592
		c0.218-0.99,0.41-2.065,0.591-3.228h0.155c0.114,1.203,0.19,2.136,0.311,2.866l0.645,5.034h0.847l3.533-5.859
		c0.562-0.94,0.896-1.588,1.086-1.871h0.108c-0.187,0.641-0.353,1.251-0.497,1.93l-1.032,4.672
		c-0.113,0.511-0.203,0.854-0.256,1.034c-0.059,0.178-0.13,0.31-0.188,0.453c-0.066,0.125-0.175,0.205-0.248,0.291
		c-0.098,0.069-0.257,0.121-0.44,0.151l-0.087,0.4h3.106l0.084-0.4c-0.274-0.02-0.488-0.087-0.586-0.173
		c-0.117-0.096-0.202-0.271-0.175-0.494c0-0.144,0.006-0.32,0.03-0.482c0.021-0.179,0.052-0.429,0.134-0.726l1.327-6.016
		c0.109-0.495,0.186-0.865,0.269-1.073c0.069-0.219,0.123-0.397,0.209-0.483c0.07-0.104,0.121-0.187,0.233-0.231
		c0.085-0.052,0.225-0.126,0.423-0.141l0.084-0.38h-2.445v-0.002l-4.527,7.567l-0.884-7.567h-2.771l-0.086,0.4
		c0.264,0.016,0.438,0.049,0.577,0.167c0.122,0.095,0.172,0.239,0.184,0.506c0,0.206-0.045,0.382-0.047,0.611
		C306.459,31.784,306.396,31.989,306.366,32.217z"/>
	<path d="M323.347,36.636c0.169-0.177,0.253-0.422,0.253-0.686c0-0.28-0.1-0.53-0.253-0.685C323.179,35.089,322.963,35,322.7,35
		s-0.496,0.067-0.648,0.266c-0.168,0.177-0.252,0.388-0.252,0.685c0,0.28,0.067,0.497,0.252,0.686
		c0.168,0.177,0.384,0.265,0.648,0.265C322.963,36.9,323.163,36.8,323.347,36.636z"/>
	<polygon points="330.8,2.302 333.9,2.302 333.9,1.602 329.2,1.602 329.2,17.901 330.8,17.901 	"/>
	<polygon points="330.8,20.8 330.8,17.901 329.2,17.901 329.17,17.901 329.17,34.401 330.8,34.401 	"/>
	<polygon points="330.8,51.102 330.8,37.4 330.8,34.401 329.17,34.401 329.17,37.4 329.17,53.9 329.2,53.9 329.2,51.102 	"/>
	<polygon points="330.8,51.102 329.2,51.102 329.2,53.9 329.2,70.4 333.9,70.4 333.9,69.7 330.8,69.7 330.8,53.9 	"/>
	<path d="M346.417,11.2L346.417,11.2c1.14,0,2.001-0.5,2.599-1.403c0.595-0.936,0.89-2.335,0.892-4.141
		c0-1.764-0.302-3.081-0.831-3.95c-0.554-0.87-1.413-1.306-2.533-1.306c-0.503,0-0.983,0.1-1.391,0.324
		c-0.426,0.218-0.81,0.543-1.093,1.002c-0.303,0.45-0.556,1.009-0.708,1.711c-0.168,0.69-0.252,1.479-0.252,2.459
		c0,1.784,0.268,3.084,0.819,3.989C344.465,10.762,345.292,11.2,346.417,11.2z M344.699,3.756c0.062-0.564,0.163-1.049,0.315-1.436
		c0.149-0.395,0.345-0.7,0.586-0.905c0.242-0.209,0.541-0.313,0.902-0.313c0.396,0,0.729,0.134,1.011,0.475
		c0.279,0.316,0.475,0.825,0.652,1.566c0.156,0.728,0.234,1.646,0.234,2.854c0,1.537-0.167,2.672-0.458,3.406
		c-0.305,0.731-0.785,1.098-1.4,1.098c-0.66,0-1.175-0.4-1.464-1.167c-0.315-0.779-0.475-2.022-0.472-3.667l-0.001,0.001
		C344.605,4.958,344.637,4.302,344.699,3.756z"/>
	<path d="M343.919,28.986c0.546,0.876,1.373,1.313,2.498,1.313h0.001c1.139,0,2-0.5,2.598-1.403c0.595-0.936,0.89-2.334,0.892-4.141
		c0-1.763-0.302-3.081-0.831-3.95c-0.554-0.87-1.413-1.306-2.533-1.306c-0.503,0-0.983,0.1-1.391,0.325
		c-0.426,0.217-0.81,0.542-1.093,1.002c-0.303,0.45-0.556,1.008-0.708,1.711c-0.168,0.69-0.252,1.478-0.252,2.459
		C343.1,26.781,343.367,28.081,343.919,28.986z M344.699,22.855c0.062-0.564,0.163-1.049,0.315-1.436
		c0.149-0.394,0.345-0.7,0.586-0.905c0.242-0.209,0.541-0.313,0.902-0.313c0.396,0,0.729,0.134,1.011,0.475
		c0.279,0.317,0.475,0.825,0.652,1.567c0.156,0.727,0.234,1.646,0.234,2.853c0,1.537-0.167,2.672-0.458,3.406
		c-0.305,0.732-0.785,1.098-1.4,1.098c-0.66,0-1.175-0.399-1.464-1.167c-0.315-0.778-0.475-2.022-0.472-3.667l-0.001,0.002
		C344.605,24.058,344.637,23.402,344.699,22.855z"/>
	<path d="M346.01,48.061c-0.061,0.159-0.164,0.272-0.288,0.37c-0.131,0.089-0.339,0.145-0.571,0.197
		c-0.25,0.044-0.667,0.068-1.25,0.104V49.3h5.805v-0.567c-0.405-0.01-0.74-0.055-0.979-0.058c-0.246-0.028-0.455-0.086-0.615-0.123
		c-0.162-0.055-0.299-0.139-0.373-0.225c-0.086-0.097-0.165-0.238-0.182-0.372c-0.034-0.153-0.054-0.405-0.052-0.678v-0.001V40.66
		c0-0.878-0.001-1.565,0.047-2.062h-0.427l-3.625,2.202l0.341,0.598c0.449-0.304,0.802-0.57,1.13-0.716
		c0.305-0.172,0.515-0.267,0.705-0.259c0.14,0,0.214,0.025,0.316,0.145c0.072,0.095,0.108,0.238,0.108,0.449v6.264
		C346.101,47.643,346.067,47.881,346.01,48.061z"/>
	<path d="M343.919,67.286c0.546,0.876,1.373,1.313,2.498,1.313h0.001c1.139,0,2-0.5,2.598-1.402c0.595-0.937,0.89-2.335,0.892-4.142
		c0-1.763-0.302-3.081-0.831-3.95c-0.554-0.869-1.413-1.306-2.533-1.306c-0.503,0-0.983,0.101-1.391,0.325
		c-0.426,0.217-0.81,0.542-1.093,1.002c-0.303,0.45-0.556,1.008-0.708,1.711c-0.168,0.69-0.252,1.479-0.252,2.459
		C343.1,65.081,343.367,66.381,343.919,67.286z M344.699,61.156c0.062-0.565,0.163-1.049,0.315-1.437
		c0.149-0.394,0.345-0.7,0.586-0.905c0.242-0.209,0.541-0.313,0.902-0.313c0.396,0,0.729,0.134,1.011,0.476
		c0.279,0.316,0.475,0.824,0.652,1.566c0.156,0.727,0.234,1.646,0.234,2.854c0,1.536-0.167,2.672-0.458,3.405
		c-0.305,0.732-0.785,1.099-1.4,1.099c-0.66,0-1.175-0.4-1.464-1.168c-0.315-0.778-0.475-2.022-0.472-3.666l-0.001,0.001
		C344.605,62.357,344.637,61.702,344.699,61.156z"/>
	<polygon points="359.2,2.302 362.2,2.302 362.2,17.901 363.8,17.901 363.8,1.602 359.2,1.602 	"/>
	<polygon points="362.2,20.8 362.2,34.401 363.8,34.401 363.8,20.8 363.8,17.901 362.2,17.901 	"/>
	<polygon points="362.2,37.4 362.2,51.102 363.8,51.102 363.8,37.4 363.8,34.401 362.2,34.401 	"/>
	<polygon points="362.2,53.9 362.2,69.7 359.2,69.7 359.2,70.4 363.8,70.4 363.8,53.9 363.8,51.102 362.2,51.102 	"/>
</g>
</svg>
