<?xml version="1.0" encoding="utf-8"?>
<!-- Generator: Adobe Illustrator 15.1.0, SVG Export Plug-In . SVG Version: 6.00 Build 0)  -->
<!DOCTYPE svg PUBLIC "-//W3C//DTD SVG 1.1 Tiny//EN" "http://www.w3.org/Graphics/SVG/1.1/DTD/svg11-tiny.dtd">
<svg version="1.1" baseProfile="tiny" id="Layer_1" xmlns="http://www.w3.org/2000/svg" xmlns:xlink="http://www.w3.org/1999/xlink"
	 x="0px" y="0px" width="364px" height="71px" viewBox="0 0 364 71" overflow="inherit" xml:space="preserve">
<g>
	<path fill="none" d="M148.378,47.533c0.289,0.767,0.804,1.167,1.464,1.167c0.615,0,1.096-0.366,1.4-1.099
		c0.291-0.733,0.458-1.869,0.458-3.405c0-1.207-0.078-2.126-0.234-2.854c-0.178-0.741-0.373-1.25-0.652-1.566
		c-0.283-0.341-0.615-0.476-1.011-0.476c-0.361,0-0.66,0.105-0.902,0.314c-0.242,0.205-0.437,0.511-0.586,0.904
		c-0.153,0.388-0.253,0.871-0.316,1.437c-0.062,0.546-0.094,1.202-0.094,1.911l0.001-0.001
		C147.904,45.51,148.063,46.754,148.378,47.533z"/>
	<path fill="none" d="M150.814,1.576c-0.283-0.341-0.615-0.475-1.011-0.475c-0.361,0-0.66,0.104-0.902,0.313
		c-0.242,0.205-0.437,0.511-0.586,0.905c-0.153,0.387-0.253,0.871-0.316,1.436c-0.062,0.546-0.094,1.202-0.094,1.911l0.001-0.001
		c-0.002,1.645,0.157,2.888,0.472,3.667c0.289,0.767,0.804,1.167,1.464,1.167c0.615,0,1.096-0.366,1.4-1.098
		c0.291-0.734,0.458-1.869,0.458-3.406c0-1.207-0.078-2.126-0.234-2.854C151.288,2.401,151.093,1.893,150.814,1.576z"/>
	<path fill="none" d="M281.979,9.333c0.289,0.767,0.804,1.167,1.463,1.167c0.615,0,1.097-0.366,1.4-1.098
		c0.291-0.734,0.458-1.869,0.458-3.406c0-1.207-0.077-2.126-0.233-2.854c-0.178-0.741-0.373-1.25-0.652-1.566
		c-0.283-0.341-0.615-0.475-1.012-0.475c-0.36,0-0.659,0.104-0.901,0.313c-0.242,0.205-0.437,0.511-0.586,0.905
		c-0.153,0.387-0.253,0.871-0.315,1.436c-0.062,0.546-0.095,1.202-0.095,1.911l0.001-0.001
		C281.504,7.311,281.663,8.554,281.979,9.333z"/>
	<path fill="none" d="M148.378,66.732c0.289,0.768,0.804,1.168,1.464,1.168c0.615,0,1.096-0.366,1.4-1.099
		c0.291-0.733,0.458-1.869,0.458-3.405c0-1.207-0.078-2.127-0.234-2.854c-0.178-0.742-0.373-1.25-0.652-1.566
		c-0.283-0.342-0.615-0.476-1.011-0.476c-0.361,0-0.66,0.104-0.902,0.313c-0.242,0.205-0.437,0.512-0.586,0.905
		c-0.153,0.388-0.253,0.871-0.316,1.437c-0.062,0.546-0.094,1.201-0.094,1.911l0.001-0.001
		C147.904,64.71,148.063,65.954,148.378,66.732z"/>
	<path fill="none" d="M281.979,66.732c0.289,0.768,0.804,1.168,1.463,1.168c0.615,0,1.097-0.366,1.4-1.099
		c0.291-0.733,0.458-1.869,0.458-3.405c0-1.207-0.077-2.127-0.233-2.854c-0.178-0.742-0.373-1.25-0.652-1.566
		c-0.283-0.342-0.615-0.476-1.012-0.476c-0.36,0-0.659,0.104-0.901,0.313c-0.242,0.205-0.437,0.512-0.586,0.905
		c-0.153,0.388-0.253,0.871-0.315,1.437c-0.062,0.546-0.095,1.201-0.095,1.911l0.001-0.001
		C281.504,64.71,281.663,65.954,281.979,66.732z"/>
	<path fill="none" d="M281.979,28.433c0.289,0.768,0.804,1.167,1.463,1.167c0.615,0,1.097-0.365,1.4-1.098
		c0.291-0.734,0.458-1.869,0.458-3.406c0-1.207-0.077-2.126-0.233-2.853c-0.178-0.742-0.373-1.25-0.652-1.567
		c-0.283-0.341-0.615-0.475-1.012-0.475c-0.36,0-0.659,0.104-0.901,0.313c-0.242,0.205-0.437,0.512-0.586,0.905
		c-0.153,0.387-0.253,0.871-0.315,1.436c-0.062,0.547-0.095,1.202-0.095,1.912l0.001-0.002
		C281.504,26.41,281.663,27.654,281.979,28.433z"/>
	<path fill="none" d="M15.978,66.732c0.289,0.768,0.804,1.168,1.464,1.168c0.615,0,1.096-0.366,1.4-1.099
		c0.291-0.733,0.458-1.869,0.458-3.405c0-1.207-0.078-2.127-0.234-2.854c-0.178-0.742-0.373-1.25-0.652-1.566
		c-0.283-0.342-0.615-0.476-1.011-0.476c-0.361,0-0.66,0.104-0.902,0.313c-0.242,0.205-0.437,0.512-0.586,0.905
		c-0.153,0.388-0.253,0.871-0.316,1.437c-0.062,0.546-0.094,1.201-0.094,1.911l0.001-0.001
		C15.504,64.71,15.663,65.954,15.978,66.732z"/>
	<path fill="none" d="M15.978,28.433c0.289,0.768,0.804,1.167,1.464,1.167c0.615,0,1.096-0.365,1.4-1.098
		c0.291-0.734,0.458-1.869,0.458-3.406c0-1.207-0.078-2.126-0.234-2.853c-0.178-0.742-0.373-1.25-0.652-1.567
		c-0.283-0.341-0.615-0.475-1.011-0.475c-0.361,0-0.66,0.104-0.902,0.313c-0.242,0.205-0.437,0.512-0.586,0.905
		c-0.153,0.387-0.253,0.871-0.316,1.436c-0.062,0.547-0.094,1.202-0.094,1.912l0.001-0.002
		C15.504,26.41,15.663,27.654,15.978,28.433z"/>
	<path fill="none" d="M15.978,47.533c0.289,0.767,0.804,1.167,1.464,1.167c0.615,0,1.096-0.366,1.4-1.099
		c0.291-0.733,0.458-1.869,0.458-3.405c0-1.207-0.078-2.126-0.234-2.854c-0.178-0.741-0.373-1.25-0.652-1.566
		c-0.283-0.341-0.615-0.476-1.011-0.476c-0.361,0-0.66,0.105-0.902,0.314c-0.242,0.205-0.437,0.511-0.586,0.904
		c-0.153,0.388-0.253,0.871-0.316,1.437c-0.062,0.546-0.094,1.202-0.094,1.911l0.001-0.001
		C15.504,45.51,15.663,46.754,15.978,47.533z"/>
	<polygon points="1.7,2.302 4.8,2.302 4.8,1.602 0.1,1.602 0.1,17.901 1.7,17.901 	"/>
	<polygon points="1.7,20.8 1.7,17.901 0.1,17.901 0.07,17.901 0.07,34.401 1.7,34.401 	"/>
	<polygon points="1.7,51.102 1.7,37.4 1.7,34.401 0.07,34.401 0.07,37.4 0.07,53.9 0.1,53.9 0.1,51.102 	"/>
	<polygon points="1.7,51.102 0.1,51.102 0.1,53.9 0.1,70.4 4.8,70.4 4.8,69.7 1.7,69.7 1.7,53.9 	"/>
	<path d="M18.405,2.46c0-0.878-0.001-1.565,0.047-2.062h-0.427L14.4,2.602l0.341,0.598c0.449-0.305,0.802-0.571,1.13-0.717
		c0.304-0.172,0.514-0.267,0.705-0.259c0.139,0,0.214,0.025,0.316,0.145c0.072,0.095,0.109,0.239,0.109,0.45v6.263
		c0,0.361-0.034,0.6-0.091,0.78c-0.062,0.158-0.164,0.271-0.288,0.369c-0.131,0.089-0.339,0.145-0.572,0.197
		c-0.25,0.044-0.667,0.068-1.25,0.105V11.1h5.805v-0.566c-0.405-0.01-0.74-0.055-0.978-0.059c-0.247-0.027-0.456-0.086-0.616-0.123
		c-0.162-0.055-0.299-0.139-0.373-0.225c-0.086-0.096-0.165-0.238-0.181-0.372c-0.035-0.153-0.054-0.405-0.052-0.678V9.076V2.46z"/>
	<path d="M14,24.997c0,1.784,0.267,3.084,0.819,3.989c0.545,0.876,1.373,1.313,2.498,1.313h0c1.139,0,2-0.5,2.598-1.403
		c0.594-0.936,0.889-2.334,0.891-4.141c0-1.763-0.302-3.081-0.831-3.95c-0.554-0.87-1.413-1.306-2.533-1.306
		c-0.503,0-0.983,0.1-1.391,0.325c-0.425,0.217-0.809,0.542-1.092,1.002c-0.303,0.45-0.556,1.008-0.708,1.711
		C14.084,23.229,14,24.016,14,24.997z M15.599,22.855c0.063-0.564,0.164-1.049,0.316-1.436c0.149-0.394,0.344-0.7,0.586-0.905
		c0.242-0.209,0.541-0.313,0.902-0.313c0.396,0,0.728,0.134,1.011,0.475c0.279,0.317,0.474,0.825,0.652,1.567
		c0.156,0.727,0.234,1.646,0.234,2.853c0,1.537-0.167,2.672-0.458,3.406c-0.304,0.732-0.785,1.098-1.4,1.098
		c-0.66,0-1.175-0.399-1.464-1.167c-0.315-0.778-0.474-2.022-0.472-3.667l-0.001,0.002C15.505,24.058,15.537,23.402,15.599,22.855z"
		/>
	<path d="M14.819,48.086c0.545,0.876,1.373,1.314,2.498,1.314h0c1.139,0,2-0.5,2.598-1.403c0.594-0.937,0.889-2.335,0.891-4.142
		c0-1.763-0.302-3.08-0.831-3.949c-0.554-0.87-1.413-1.307-2.533-1.307c-0.503,0-0.983,0.101-1.391,0.325
		c-0.425,0.218-0.809,0.542-1.092,1.002c-0.303,0.45-0.556,1.009-0.708,1.711C14.084,42.328,14,43.116,14,44.097
		C14,45.881,14.267,47.181,14.819,48.086z M15.599,41.956c0.063-0.565,0.164-1.049,0.316-1.437c0.149-0.394,0.344-0.699,0.586-0.904
		c0.242-0.209,0.541-0.314,0.902-0.314c0.396,0,0.728,0.135,1.011,0.476c0.279,0.316,0.474,0.825,0.652,1.566
		c0.156,0.728,0.234,1.646,0.234,2.854c0,1.536-0.167,2.672-0.458,3.405c-0.304,0.732-0.785,1.099-1.4,1.099
		c-0.66,0-1.175-0.4-1.464-1.167c-0.315-0.779-0.474-2.023-0.472-3.667l-0.001,0.001C15.505,43.158,15.537,42.502,15.599,41.956z"/>
	<path d="M14.819,67.286c0.545,0.876,1.373,1.313,2.498,1.313h0c1.139,0,2-0.5,2.598-1.402c0.594-0.937,0.889-2.335,0.891-4.142
		c0-1.763-0.302-3.081-0.831-3.95c-0.554-0.869-1.413-1.306-2.533-1.306c-0.503,0-0.983,0.101-1.391,0.325
		c-0.425,0.217-0.809,0.542-1.092,1.002c-0.303,0.45-0.556,1.008-0.708,1.711C14.084,61.528,14,62.316,14,63.297
		C14,65.081,14.267,66.381,14.819,67.286z M15.599,61.156c0.063-0.565,0.164-1.049,0.316-1.437c0.149-0.394,0.344-0.7,0.586-0.905
		c0.242-0.209,0.541-0.313,0.902-0.313c0.396,0,0.728,0.134,1.011,0.476c0.279,0.316,0.474,0.824,0.652,1.566
		c0.156,0.727,0.234,1.646,0.234,2.854c0,1.536-0.167,2.672-0.458,3.405c-0.304,0.732-0.785,1.099-1.4,1.099
		c-0.66,0-1.175-0.4-1.464-1.168c-0.315-0.778-0.474-2.022-0.472-3.666l-0.001,0.001C15.505,62.357,15.537,61.702,15.599,61.156z"/>
	<polygon points="34.7,17.901 34.7,1.602 30.1,1.602 30.1,2.302 33.1,2.302 33.1,17.901 	"/>
	<polygon points="33.1,20.8 33.1,34.401 34.7,34.401 34.7,20.8 34.7,17.901 33.1,17.901 	"/>
	<polygon points="33.1,37.4 33.1,51.102 34.7,51.102 34.7,37.4 34.7,34.401 33.1,34.401 	"/>
	<polygon points="33.1,53.9 33.1,69.7 30.1,69.7 30.1,70.4 34.7,70.4 34.7,53.9 34.7,51.102 33.1,51.102 	"/>
	<rect x="40.956" y="37.1" width="9.566" height="1"/>
	<rect x="40.956" y="33.9" width="9.566" height="1"/>
	<path d="M59.166,32.217l-1.32,5.955c-0.113,0.511-0.229,0.854-0.256,1.033c-0.056,0.178-0.12,0.309-0.186,0.453
		c-0.066,0.125-0.168,0.205-0.248,0.291c-0.098,0.068-0.249,0.119-0.442,0.149l-0.086,0.4h2.717l0.086-0.4
		c-0.273-0.021-0.484-0.088-0.586-0.175c-0.117-0.096-0.198-0.271-0.175-0.494c0-0.314,0.043-0.725,0.162-1.212l0.792-3.592
		c0.218-0.99,0.41-2.065,0.591-3.228h0.155c0.115,1.203,0.191,2.136,0.311,2.866l0.645,5.034h0.847l3.533-5.859
		c0.563-0.94,0.896-1.588,1.086-1.871H66.9c-0.187,0.641-0.353,1.251-0.497,1.93L65.37,38.17c-0.113,0.511-0.203,0.854-0.256,1.034
		c-0.059,0.178-0.129,0.31-0.188,0.453c-0.066,0.125-0.175,0.205-0.248,0.291c-0.098,0.069-0.257,0.121-0.441,0.151l-0.086,0.4
		h3.105l0.084-0.4c-0.273-0.02-0.488-0.087-0.586-0.173c-0.117-0.096-0.202-0.271-0.175-0.494c0-0.144,0.006-0.32,0.031-0.482
		c0.021-0.179,0.051-0.429,0.133-0.726l1.327-6.016c0.109-0.495,0.186-0.865,0.269-1.073c0.069-0.219,0.123-0.397,0.209-0.483
		c0.07-0.104,0.121-0.187,0.233-0.231c0.085-0.052,0.225-0.126,0.423-0.141l0.084-0.38h-2.445v-0.002l-4.527,7.567l-0.885-7.567
		h-2.771l-0.086,0.4c0.264,0.016,0.439,0.049,0.578,0.167c0.122,0.095,0.17,0.239,0.183,0.506c0,0.206-0.045,0.382-0.047,0.611
		C59.259,31.784,59.196,31.989,59.166,32.217z"/>
	<path d="M76.147,36.636c0.169-0.177,0.253-0.422,0.253-0.686c0-0.28-0.1-0.53-0.253-0.685C75.979,35.089,75.763,35,75.5,35
		s-0.496,0.067-0.648,0.266c-0.168,0.177-0.252,0.388-0.252,0.685c0,0.28,0.067,0.497,0.252,0.686
		C75.02,36.812,75.236,36.9,75.5,36.9C75.763,36.9,75.963,36.8,76.147,36.636z"/>
	<path d="M84.625,38.205c0.031-0.285,0.057-0.588,0.117-0.875l0.434-2.841c0.01-0.058-0.014-0.12,0.022-0.188
		c0.005-0.067,0.006-0.169,0.008-0.212c0-0.126-0.035-0.256-0.039-0.381c-0.025-0.129-0.081-0.265-0.144-0.352
		c-0.07-0.107-0.178-0.227-0.291-0.26C84.609,33.033,84.432,33,84.252,33c-0.233,0-0.483,0.034-0.683,0.122
		c-0.225,0.08-0.446,0.173-0.639,0.32c-0.201,0.133-0.41,0.252-0.573,0.443c-0.182,0.163-0.367,0.302-0.513,0.495l0.373,0.434
		c0.094-0.092,0.188-0.196,0.303-0.297c0.108-0.106,0.201-0.212,0.337-0.299c0.116-0.094,0.231-0.199,0.345-0.229
		c0.115-0.06,0.214-0.089,0.319-0.089c0.124,0,0.184,0.032,0.264,0.155c0.052,0.104,0.057,0.218,0.078,0.396
		c0,0.052-0.021,0.101-0.02,0.245c-0.012,0.111-0.06,0.212-0.05,0.353l-0.327,2.153c-0.056,0.342-0.112,0.674-0.139,1.019
		c-0.037,0.337-0.079,0.629-0.055,0.947c0,0.223,0.009,0.4,0.039,0.614c0.026,0.187,0.055,0.325,0.131,0.485
		c0.062,0.139,0.115,0.215,0.245,0.319c0.101,0.075,0.206,0.113,0.377,0.113l0.005-0.003c0.336,0,0.648-0.101,1.012-0.205
		c0.34-0.139,0.648-0.336,1.002-0.555c0.329-0.232,0.637-0.513,0.952-0.817c0.305-0.312,0.562-0.653,0.861-0.998
		c0.269-0.354,0.506-0.729,0.737-1.092c0.223-0.375,0.413-0.752,0.575-1.098c0.16-0.355,0.26-0.702,0.372-1.014
		c0.088-0.321,0.13-0.628,0.133-0.853c0-0.325-0.102-0.614-0.248-0.778c-0.166-0.194-0.453-0.291-0.808-0.291
		c-0.191,0-0.408,0.033-0.589,0.117c-0.203,0.079-0.424,0.173-0.588,0.312c-0.189,0.13-0.381,0.254-0.536,0.453
		c-0.168,0.172-0.315,0.344-0.438,0.538l0.442,0.395c0.197-0.272,0.382-0.512,0.57-0.661c0.184-0.169,0.38-0.253,0.603-0.253
		c0.171,0,0.265,0.032,0.377,0.152c0.08,0.102,0.115,0.217,0.12,0.434c0,0.432-0.071,0.836-0.214,1.287
		c-0.143,0.429-0.343,0.804-0.556,1.22c-0.228,0.384-0.509,0.72-0.769,1.073c-0.284,0.33-0.576,0.608-0.853,0.857
		c-0.285,0.241-0.559,0.4-0.816,0.57c-0.259,0.137-0.494,0.206-0.644,0.206c-0.072,0-0.126-0.101-0.147-0.203
		c-0.026-0.136-0.065-0.335-0.039-0.534C84.58,38.742,84.588,38.487,84.625,38.205z"/>
	<path d="M92.71,38.176c-0.153-0.183-0.389-0.274-0.647-0.274c-0.152,0-0.306,0-0.438,0.063c-0.14,0.042-0.281,0.087-0.425,0.2
		c-0.143,0.09-0.309,0.202-0.45,0.348c-0.156,0.142-0.34,0.304-0.517,0.509l0.391,0.368c0.113-0.116,0.205-0.247,0.306-0.305
		c0.09-0.088,0.147-0.183,0.248-0.216c0.076-0.057,0.117-0.114,0.219-0.128c0.069-0.028,0.137-0.042,0.212-0.042
		c0.222,0,0.319,0.134,0.333,0.413c0,0.099-0.014,0.193-0.031,0.362c-0.02,0.144-0.057,0.318-0.109,0.541l0.002-0.001l-0.85,3.685
		h1.111l0.577-2.703c0.041-0.194,0.095-0.393,0.187-0.578c0.083-0.191,0.174-0.398,0.292-0.544c0.111-0.171,0.205-0.33,0.353-0.473
		c0.125-0.146,0.235-0.279,0.377-0.378c0.127-0.105,0.244-0.213,0.359-0.244c0.113-0.058,0.21-0.084,0.302-0.08
		c0.147,0,0.244,0.033,0.336,0.139c0.078,0.093,0.096,0.247,0.145,0.461h0.656l0.287-1.322c-0.117-0.021-0.262-0.048-0.364-0.055
		c-0.125-0.015-0.283-0.021-0.405-0.021c-0.382,0-0.77,0.1-1.113,0.36c-0.359,0.24-0.745,0.586-1.114,1.127l-0.078-0.034
		c0.052-0.132,0.064-0.283,0.078-0.455C92.94,38.602,92.86,38.334,92.71,38.176z"/>
	<polygon points="134.1,20.8 134.1,20.8 134.1,2.302 137.2,2.302 137.2,1.602 132.5,1.602 132.5,17.901 134.1,17.901 	"/>
	<polygon points="134.1,20.8 134.1,17.901 132.5,17.901 132.47,17.901 132.47,34.401 134.1,34.401 	"/>
	<polygon points="134.1,34.401 132.47,34.401 132.47,37.4 132.47,53.9 132.5,53.9 132.5,51.102 134.1,51.102 134.1,37.4 	"/>
	<polygon points="132.5,53.9 132.5,70.4 137.2,70.4 137.2,69.7 134.1,69.7 134.1,51.102 134.1,51.102 132.5,51.102 	"/>
	<path d="M152.376,1.706c-0.554-0.87-1.413-1.306-2.533-1.306c-0.503,0-0.983,0.1-1.391,0.324c-0.425,0.218-0.809,0.543-1.092,1.002
		c-0.303,0.45-0.556,1.009-0.708,1.711c-0.168,0.69-0.252,1.479-0.252,2.459c0,1.784,0.267,3.084,0.819,3.989
		c0.546,0.876,1.373,1.314,2.498,1.314h0.001c1.139,0,2-0.5,2.598-1.403c0.594-0.936,0.889-2.335,0.891-4.141
		C153.207,3.893,152.905,2.575,152.376,1.706z M151.242,9.402c-0.304,0.731-0.785,1.098-1.4,1.098c-0.66,0-1.175-0.4-1.464-1.167
		c-0.315-0.779-0.474-2.022-0.472-3.667l-0.001,0.001c0-0.709,0.032-1.365,0.094-1.911c0.063-0.564,0.163-1.049,0.316-1.436
		c0.149-0.395,0.344-0.7,0.586-0.905c0.242-0.209,0.541-0.313,0.902-0.313c0.396,0,0.728,0.134,1.011,0.475
		c0.279,0.316,0.474,0.825,0.652,1.566c0.156,0.728,0.234,1.646,0.234,2.854C151.7,7.533,151.533,8.668,151.242,9.402z"/>
	<path d="M149.31,28.961c-0.061,0.159-0.164,0.271-0.288,0.37c-0.131,0.088-0.339,0.144-0.572,0.197
		c-0.25,0.044-0.667,0.067-1.25,0.104V30.2h5.805v-0.567c-0.405-0.01-0.74-0.055-0.978-0.058c-0.247-0.028-0.456-0.086-0.616-0.123
		c-0.162-0.056-0.299-0.14-0.373-0.226c-0.086-0.096-0.165-0.237-0.181-0.371c-0.035-0.153-0.054-0.405-0.052-0.679v-0.001v-6.615
		c0-0.879-0.001-1.565,0.047-2.062h-0.427l-3.625,2.202l0.341,0.598c0.449-0.304,0.802-0.57,1.13-0.716
		c0.304-0.172,0.514-0.267,0.705-0.259c0.139,0,0.214,0.024,0.316,0.144c0.072,0.095,0.109,0.239,0.109,0.45v6.263
		C149.401,28.542,149.367,28.781,149.31,28.961z"/>
	<path d="M147.219,48.086c0.546,0.876,1.373,1.314,2.498,1.314h0.001c1.139,0,2-0.5,2.598-1.403
		c0.594-0.937,0.889-2.335,0.891-4.142c0-1.763-0.302-3.08-0.831-3.949c-0.554-0.87-1.413-1.307-2.533-1.307
		c-0.503,0-0.983,0.101-1.391,0.325c-0.425,0.218-0.809,0.542-1.092,1.002c-0.303,0.45-0.556,1.009-0.708,1.711
		c-0.168,0.69-0.252,1.479-0.252,2.459C146.4,45.881,146.667,47.181,147.219,48.086z M147.999,41.956
		c0.063-0.565,0.163-1.049,0.316-1.437c0.149-0.394,0.344-0.699,0.586-0.904c0.242-0.209,0.541-0.314,0.902-0.314
		c0.396,0,0.728,0.135,1.011,0.476c0.279,0.316,0.474,0.825,0.652,1.566c0.156,0.728,0.234,1.646,0.234,2.854
		c0,1.536-0.167,2.672-0.458,3.405c-0.304,0.732-0.785,1.099-1.4,1.099c-0.66,0-1.175-0.4-1.464-1.167
		c-0.315-0.779-0.474-2.023-0.472-3.667l-0.001,0.001C147.905,43.158,147.937,42.502,147.999,41.956z"/>
	<path d="M147.219,67.286c0.546,0.876,1.373,1.313,2.498,1.313h0.001c1.139,0,2-0.5,2.598-1.402
		c0.594-0.937,0.889-2.335,0.891-4.142c0-1.763-0.302-3.081-0.831-3.95c-0.554-0.869-1.413-1.306-2.533-1.306
		c-0.503,0-0.983,0.101-1.391,0.325c-0.425,0.217-0.809,0.542-1.092,1.002c-0.303,0.45-0.556,1.008-0.708,1.711
		c-0.168,0.69-0.252,1.479-0.252,2.459C146.4,65.081,146.667,66.381,147.219,67.286z M147.999,61.156
		c0.063-0.565,0.163-1.049,0.316-1.437c0.149-0.394,0.344-0.7,0.586-0.905c0.242-0.209,0.541-0.313,0.902-0.313
		c0.396,0,0.728,0.134,1.011,0.476c0.279,0.316,0.474,0.824,0.652,1.566c0.156,0.727,0.234,1.646,0.234,2.854
		c0,1.536-0.167,2.672-0.458,3.405c-0.304,0.732-0.785,1.099-1.4,1.099c-0.66,0-1.175-0.4-1.464-1.168
		c-0.315-0.778-0.474-2.022-0.472-3.666l-0.001,0.001C147.905,62.357,147.937,61.702,147.999,61.156z"/>
	<polygon points="167.1,17.901 167.1,1.602 162.5,1.602 162.5,2.302 165.5,2.302 165.5,17.901 	"/>
	<polygon points="165.5,20.8 165.5,34.401 167.1,34.401 167.1,20.8 167.1,17.901 165.5,17.901 	"/>
	<polygon points="165.5,37.4 165.5,51.102 167.1,51.102 167.1,37.4 167.1,34.401 165.5,34.401 	"/>
	<polygon points="165.5,53.9 165.5,69.7 162.5,69.7 162.5,70.4 167.1,70.4 167.1,53.9 167.1,51.102 165.5,51.102 	"/>
	<rect x="173.356" y="37.1" width="9.566" height="1"/>
	<rect x="173.356" y="33.9" width="9.566" height="1"/>
	<path d="M191.466,32.217l-1.319,5.955c-0.113,0.511-0.229,0.854-0.256,1.033c-0.057,0.178-0.121,0.309-0.187,0.453
		c-0.065,0.125-0.168,0.205-0.248,0.291c-0.099,0.068-0.249,0.119-0.442,0.149l-0.086,0.4h2.717l0.086-0.4
		c-0.273-0.021-0.483-0.088-0.586-0.175c-0.117-0.096-0.197-0.271-0.174-0.494c0-0.314,0.043-0.725,0.161-1.212l0.792-3.592
		c0.219-0.99,0.41-2.065,0.592-3.228h0.154c0.115,1.203,0.191,2.136,0.311,2.866l0.645,5.034h0.848l3.532-5.859
		c0.563-0.94,0.896-1.588,1.086-1.871h0.109c-0.187,0.641-0.353,1.251-0.497,1.93l-1.033,4.672
		c-0.113,0.511-0.203,0.854-0.256,1.034c-0.059,0.178-0.129,0.31-0.188,0.453c-0.066,0.125-0.176,0.205-0.248,0.291
		c-0.099,0.069-0.258,0.121-0.441,0.151l-0.086,0.4h3.105l0.084-0.4c-0.273-0.02-0.488-0.087-0.586-0.173
		c-0.117-0.096-0.201-0.271-0.175-0.494c0-0.144,0.007-0.32,0.031-0.482c0.021-0.179,0.051-0.429,0.133-0.726l1.327-6.016
		c0.109-0.495,0.186-0.865,0.27-1.073c0.068-0.219,0.123-0.397,0.209-0.483c0.069-0.104,0.121-0.187,0.232-0.231
		c0.085-0.052,0.225-0.126,0.423-0.141l0.084-0.38h-2.444v-0.002l-4.527,7.567l-0.885-7.567h-2.771l-0.086,0.4
		c0.264,0.016,0.439,0.049,0.578,0.167c0.122,0.095,0.171,0.239,0.184,0.506c0,0.206-0.046,0.382-0.048,0.611
		C191.559,31.784,191.496,31.989,191.466,32.217z"/>
	<path d="M208.447,36.636c0.169-0.177,0.253-0.422,0.253-0.686c0-0.28-0.101-0.53-0.253-0.685C208.279,35.089,208.062,35,207.8,35
		s-0.495,0.067-0.647,0.266c-0.168,0.177-0.252,0.388-0.252,0.685c0,0.28,0.066,0.497,0.252,0.686
		c0.168,0.177,0.384,0.265,0.647,0.265C208.062,36.9,208.264,36.8,208.447,36.636z"/>
	<path d="M217.025,38.205c0.031-0.285,0.057-0.588,0.117-0.875l0.434-2.841c0.01-0.058-0.014-0.12,0.023-0.188
		c0.004-0.067,0.006-0.169,0.008-0.212c0-0.126-0.035-0.256-0.039-0.381c-0.025-0.129-0.082-0.265-0.145-0.352
		c-0.07-0.107-0.178-0.227-0.291-0.26c-0.124-0.064-0.301-0.098-0.48-0.098c-0.233,0-0.483,0.034-0.684,0.122
		c-0.224,0.08-0.445,0.173-0.638,0.32c-0.201,0.133-0.41,0.252-0.573,0.443c-0.182,0.163-0.367,0.302-0.513,0.495l0.372,0.434
		c0.094-0.092,0.188-0.196,0.303-0.297c0.107-0.106,0.201-0.212,0.337-0.299c0.116-0.094,0.231-0.199,0.345-0.229
		c0.115-0.06,0.215-0.089,0.319-0.089c0.124,0,0.185,0.032,0.265,0.155c0.051,0.104,0.057,0.218,0.078,0.396
		c0,0.052-0.021,0.101-0.021,0.245c-0.013,0.111-0.06,0.212-0.05,0.353l-0.327,2.153c-0.056,0.342-0.112,0.674-0.14,1.019
		c-0.037,0.337-0.078,0.629-0.055,0.947c0,0.223,0.01,0.4,0.039,0.614c0.025,0.187,0.055,0.325,0.131,0.485
		c0.062,0.139,0.115,0.215,0.245,0.319c0.101,0.075,0.206,0.113,0.377,0.113l0.005-0.003c0.336,0,0.648-0.101,1.012-0.205
		c0.34-0.139,0.648-0.336,1.002-0.555c0.33-0.232,0.638-0.513,0.953-0.817c0.305-0.312,0.562-0.653,0.86-0.998
		c0.269-0.354,0.506-0.729,0.737-1.092c0.223-0.375,0.412-0.752,0.574-1.098c0.16-0.355,0.261-0.702,0.373-1.014
		c0.088-0.321,0.129-0.628,0.133-0.853c0-0.325-0.102-0.614-0.248-0.778c-0.166-0.194-0.453-0.291-0.809-0.291
		c-0.19,0-0.408,0.033-0.589,0.117c-0.202,0.079-0.424,0.173-0.588,0.312c-0.188,0.13-0.381,0.254-0.536,0.453
		c-0.168,0.172-0.314,0.344-0.438,0.538l0.441,0.395c0.197-0.272,0.383-0.512,0.57-0.661c0.184-0.169,0.38-0.253,0.604-0.253
		c0.17,0,0.265,0.032,0.377,0.152c0.08,0.102,0.115,0.217,0.119,0.434c0,0.432-0.07,0.836-0.213,1.287
		c-0.144,0.429-0.344,0.804-0.557,1.22c-0.229,0.384-0.51,0.72-0.77,1.073c-0.283,0.33-0.576,0.608-0.853,0.857
		c-0.285,0.241-0.56,0.4-0.815,0.57c-0.26,0.137-0.494,0.206-0.645,0.206c-0.072,0-0.126-0.101-0.146-0.203
		c-0.026-0.136-0.065-0.335-0.039-0.534C216.98,38.742,216.988,38.487,217.025,38.205z"/>
	<path d="M225.186,40.132c0.071-0.251,0.109-0.496,0.152-0.68c0.03-0.204,0.018-0.388,0.045-0.552c0-0.305-0.095-0.571-0.244-0.729
		c-0.162-0.181-0.408-0.271-0.65-0.271c-0.161,0-0.325,0-0.452,0.058c-0.14,0.038-0.286,0.085-0.425,0.188
		c-0.144,0.088-0.315,0.172-0.457,0.347c-0.16,0.143-0.346,0.312-0.547,0.528l0.387,0.368c0.113-0.116,0.214-0.247,0.305-0.305
		c0.092-0.088,0.157-0.183,0.252-0.216c0.078-0.057,0.129-0.114,0.219-0.128c0.068-0.028,0.111-0.042,0.209-0.042
		c0.228,0,0.334,0.134,0.342,0.413c0,0.102-0.041,0.23-0.055,0.427c-0.037,0.182-0.092,0.369-0.134,0.609
		c-0.053,0.225-0.13,0.441-0.169,0.701c-0.061,0.243-0.148,0.459-0.17,0.697c-0.053,0.223-0.118,0.407-0.134,0.605
		c-0.035,0.18-0.056,0.296-0.054,0.423c0,0.395,0.099,0.67,0.304,0.909c0.202,0.211,0.499,0.315,0.903,0.315
		c0.381,0,0.744-0.133,1.102-0.372c0.354-0.248,0.715-0.624,1.091-1.115l-0.003-0.002l0.068,0.022
		c-0.03,0.075-0.055,0.129-0.062,0.234c-0.012,0.081-0.048,0.157-0.017,0.241c0,0.307,0.069,0.535,0.229,0.724
		c0.153,0.176,0.346,0.264,0.637,0.264c0.15,0,0.265-0.033,0.438-0.062c0.141-0.04,0.275-0.119,0.428-0.198
		c0.144-0.092,0.269-0.239,0.452-0.354c0.158-0.143,0.332-0.338,0.522-0.514l-0.391-0.373c-0.113,0.124-0.218,0.224-0.307,0.32
		c-0.09,0.088-0.191,0.148-0.253,0.217c-0.077,0.056-0.16,0.078-0.218,0.125c-0.067,0.026-0.145,0.039-0.209,0.039
		c-0.117,0-0.225-0.033-0.254-0.095c-0.053-0.064-0.108-0.199-0.078-0.312c0-0.104,0.003-0.236,0.027-0.384
		c0.019-0.151,0.045-0.353,0.096-0.514L228.982,38h-1.113l-0.623,2.825c-0.068,0.253-0.184,0.477-0.32,0.766
		c-0.145,0.257-0.32,0.46-0.494,0.7c-0.186,0.209-0.396,0.378-0.582,0.511c-0.201,0.131-0.418,0.197-0.568,0.197
		c-0.196,0-0.357-0.067-0.428-0.166c-0.09-0.11-0.141-0.288-0.133-0.503c0-0.18,0.025-0.49,0.125-0.848
		C224.93,41.096,225.014,40.635,225.186,40.132z"/>
	<polygon points="267.699,20.8 267.7,20.8 267.7,2.302 270.8,2.302 270.8,1.602 266.1,1.602 266.1,17.901 267.699,17.901 	"/>
	<polygon points="267.699,20.8 267.699,17.901 266.1,17.901 266.07,17.901 266.07,34.401 267.699,34.401 	"/>
	<polygon points="267.699,34.401 266.07,34.401 266.07,37.4 266.07,53.9 266.1,53.9 266.1,51.102 267.699,51.102 267.699,37.4 	"/>
	<polygon points="266.1,53.9 266.1,70.4 270.8,70.4 270.8,69.7 267.7,69.7 267.7,51.102 267.699,51.102 266.1,51.102 	"/>
	<path d="M283.316,11.2h0.002c1.139,0,2-0.5,2.598-1.403c0.594-0.936,0.889-2.335,0.891-4.141c0-1.764-0.302-3.081-0.83-3.95
		c-0.555-0.87-1.414-1.306-2.533-1.306c-0.504,0-0.983,0.1-1.392,0.324c-0.425,0.218-0.809,0.543-1.092,1.002
		c-0.303,0.45-0.556,1.009-0.708,1.711C280.084,4.128,280,4.916,280,5.896c0,1.784,0.268,3.084,0.818,3.989
		C281.365,10.762,282.191,11.2,283.316,11.2z M281.6,3.756c0.062-0.564,0.162-1.049,0.315-1.436c0.149-0.395,0.344-0.7,0.586-0.905
		c0.242-0.209,0.541-0.313,0.901-0.313c0.396,0,0.729,0.134,1.012,0.475c0.279,0.316,0.475,0.825,0.652,1.566
		c0.156,0.728,0.233,1.646,0.233,2.854c0,1.537-0.167,2.672-0.458,3.406c-0.304,0.731-0.785,1.098-1.4,1.098
		c-0.659,0-1.174-0.4-1.463-1.167c-0.315-0.779-0.475-2.022-0.473-3.667l-0.001,0.001C281.505,4.958,281.537,4.302,281.6,3.756z"/>
	<path d="M280.818,28.986c0.547,0.876,1.373,1.313,2.498,1.313h0.002c1.139,0,2-0.5,2.598-1.403
		c0.594-0.936,0.889-2.334,0.891-4.141c0-1.763-0.302-3.081-0.83-3.95c-0.555-0.87-1.414-1.306-2.533-1.306
		c-0.504,0-0.983,0.1-1.392,0.325c-0.425,0.217-0.809,0.542-1.092,1.002c-0.303,0.45-0.556,1.008-0.708,1.711
		c-0.168,0.69-0.252,1.478-0.252,2.459C280,26.781,280.268,28.081,280.818,28.986z M281.6,22.855
		c0.062-0.564,0.162-1.049,0.315-1.436c0.149-0.394,0.344-0.7,0.586-0.905c0.242-0.209,0.541-0.313,0.901-0.313
		c0.396,0,0.729,0.134,1.012,0.475c0.279,0.317,0.475,0.825,0.652,1.567c0.156,0.727,0.233,1.646,0.233,2.853
		c0,1.537-0.167,2.672-0.458,3.406c-0.304,0.732-0.785,1.098-1.4,1.098c-0.659,0-1.174-0.399-1.463-1.167
		c-0.315-0.778-0.475-2.022-0.473-3.667l-0.001,0.002C281.505,24.058,281.537,23.402,281.6,22.855z"/>
	<path d="M282.91,48.061c-0.061,0.159-0.164,0.272-0.288,0.37c-0.131,0.089-0.339,0.145-0.572,0.197
		c-0.25,0.044-0.667,0.068-1.25,0.104V49.3h5.806v-0.567c-0.405-0.01-0.74-0.055-0.979-0.058c-0.247-0.028-0.456-0.086-0.616-0.123
		c-0.161-0.055-0.299-0.139-0.372-0.225c-0.087-0.097-0.166-0.238-0.182-0.372c-0.035-0.153-0.055-0.405-0.053-0.678v-0.001V40.66
		c0-0.878,0-1.565,0.048-2.062h-0.427l-3.625,2.202l0.341,0.598c0.448-0.304,0.802-0.57,1.13-0.716
		c0.304-0.172,0.514-0.267,0.705-0.259c0.139,0,0.214,0.025,0.316,0.145c0.071,0.095,0.108,0.238,0.108,0.449v6.264
		C283.001,47.643,282.967,47.881,282.91,48.061z"/>
	<path d="M280.818,67.286c0.547,0.876,1.373,1.313,2.498,1.313h0.002c1.139,0,2-0.5,2.598-1.402
		c0.594-0.937,0.889-2.335,0.891-4.142c0-1.763-0.302-3.081-0.83-3.95c-0.555-0.869-1.414-1.306-2.533-1.306
		c-0.504,0-0.983,0.101-1.392,0.325c-0.425,0.217-0.809,0.542-1.092,1.002c-0.303,0.45-0.556,1.008-0.708,1.711
		c-0.168,0.69-0.252,1.479-0.252,2.459C280,65.081,280.268,66.381,280.818,67.286z M281.6,61.156
		c0.062-0.565,0.162-1.049,0.315-1.437c0.149-0.394,0.344-0.7,0.586-0.905c0.242-0.209,0.541-0.313,0.901-0.313
		c0.396,0,0.729,0.134,1.012,0.476c0.279,0.316,0.475,0.824,0.652,1.566c0.156,0.727,0.233,1.646,0.233,2.854
		c0,1.536-0.167,2.672-0.458,3.405c-0.304,0.732-0.785,1.099-1.4,1.099c-0.659,0-1.174-0.4-1.463-1.168
		c-0.315-0.778-0.475-2.022-0.473-3.666l-0.001,0.001C281.505,62.357,281.537,61.702,281.6,61.156z"/>
	<polygon points="300.7,17.901 300.7,1.602 296.1,1.602 296.1,2.302 299.1,2.302 299.1,17.901 	"/>
	<polygon points="299.1,20.8 299.1,34.401 300.7,34.401 300.7,20.8 300.7,17.901 299.1,17.901 	"/>
	<polygon points="299.1,37.4 299.1,51.102 300.7,51.102 300.7,37.4 300.7,34.401 299.1,34.401 	"/>
	<polygon points="299.1,53.9 299.1,69.7 296.1,69.7 296.1,70.4 300.7,70.4 300.7,53.9 300.7,51.102 299.1,51.102 	"/>
	<rect x="306.956" y="37.1" width="9.566" height="1"/>
	<rect x="306.956" y="33.9" width="9.566" height="1"/>
	<path d="M325.066,32.217l-1.32,5.955c-0.113,0.511-0.229,0.854-0.256,1.033c-0.057,0.178-0.12,0.309-0.187,0.453
		c-0.065,0.125-0.168,0.205-0.248,0.291c-0.098,0.068-0.249,0.119-0.441,0.149l-0.086,0.4h2.717l0.086-0.4
		c-0.274-0.021-0.484-0.088-0.586-0.175c-0.117-0.096-0.198-0.271-0.175-0.494c0-0.314,0.043-0.725,0.162-1.212l0.792-3.592
		c0.218-0.99,0.409-2.065,0.591-3.228h0.154c0.115,1.203,0.191,2.136,0.312,2.866l0.644,5.034h0.848l3.533-5.859
		c0.562-0.94,0.896-1.588,1.086-1.871h0.108c-0.187,0.641-0.353,1.251-0.497,1.93l-1.033,4.672
		c-0.112,0.511-0.202,0.854-0.256,1.034c-0.058,0.178-0.129,0.31-0.188,0.453c-0.066,0.125-0.175,0.205-0.248,0.291
		c-0.098,0.069-0.257,0.121-0.441,0.151l-0.086,0.4h3.106l0.084-0.4c-0.274-0.02-0.488-0.087-0.586-0.173
		c-0.117-0.096-0.202-0.271-0.175-0.494c0-0.144,0.006-0.32,0.03-0.482c0.021-0.179,0.052-0.429,0.133-0.726l1.327-6.016
		c0.11-0.495,0.187-0.865,0.27-1.073c0.068-0.219,0.123-0.397,0.209-0.483c0.069-0.104,0.121-0.187,0.232-0.231
		c0.085-0.052,0.226-0.126,0.424-0.141l0.084-0.38h-2.445v-0.002l-4.527,7.567l-0.884-7.567h-2.772l-0.086,0.4
		c0.265,0.016,0.439,0.049,0.578,0.167c0.122,0.095,0.171,0.239,0.184,0.506c0,0.206-0.045,0.382-0.047,0.611
		C325.159,31.784,325.096,31.989,325.066,32.217z"/>
	<path d="M342.047,36.636c0.169-0.177,0.253-0.422,0.253-0.686c0-0.28-0.1-0.53-0.253-0.685C341.879,35.089,341.663,35,341.4,35
		c-0.264,0-0.496,0.067-0.648,0.266c-0.168,0.177-0.252,0.388-0.252,0.685c0,0.28,0.067,0.497,0.252,0.686
		c0.168,0.177,0.384,0.265,0.648,0.265C341.663,36.9,341.863,36.8,342.047,36.636z"/>
	<path d="M350.625,38.205c0.031-0.285,0.057-0.588,0.117-0.875l0.434-2.841c0.01-0.058-0.014-0.12,0.023-0.188
		c0.005-0.067,0.006-0.169,0.008-0.212c0-0.126-0.035-0.256-0.039-0.381c-0.025-0.129-0.081-0.265-0.144-0.352
		c-0.07-0.107-0.179-0.227-0.291-0.26c-0.124-0.064-0.302-0.098-0.481-0.098c-0.233,0-0.483,0.034-0.683,0.122
		c-0.225,0.08-0.446,0.173-0.639,0.32c-0.2,0.133-0.409,0.252-0.572,0.443c-0.183,0.163-0.367,0.302-0.514,0.495l0.372,0.434
		c0.094-0.092,0.188-0.196,0.303-0.297c0.108-0.106,0.201-0.212,0.338-0.299c0.115-0.094,0.23-0.199,0.345-0.229
		c0.115-0.06,0.214-0.089,0.319-0.089c0.123,0,0.184,0.032,0.264,0.155c0.052,0.104,0.057,0.218,0.078,0.396
		c0,0.052-0.021,0.101-0.021,0.245c-0.012,0.111-0.06,0.212-0.05,0.353l-0.327,2.153c-0.056,0.342-0.112,0.674-0.139,1.019
		c-0.037,0.337-0.079,0.629-0.055,0.947c0,0.223,0.009,0.4,0.038,0.614c0.026,0.187,0.056,0.325,0.132,0.485
		c0.062,0.139,0.114,0.215,0.245,0.319c0.101,0.075,0.205,0.113,0.377,0.113l0.005-0.003c0.336,0,0.647-0.101,1.012-0.205
		c0.34-0.139,0.647-0.336,1.002-0.555c0.329-0.232,0.637-0.513,0.952-0.817c0.305-0.312,0.562-0.653,0.861-0.998
		c0.269-0.354,0.506-0.729,0.736-1.092c0.224-0.375,0.413-0.752,0.575-1.098c0.16-0.355,0.26-0.702,0.372-1.014
		c0.088-0.321,0.13-0.628,0.133-0.853c0-0.325-0.102-0.614-0.248-0.778c-0.166-0.194-0.453-0.291-0.808-0.291
		c-0.191,0-0.408,0.033-0.589,0.117c-0.203,0.079-0.425,0.173-0.588,0.312c-0.189,0.13-0.382,0.254-0.536,0.453
		c-0.168,0.172-0.315,0.344-0.438,0.538l0.442,0.395c0.196-0.272,0.382-0.512,0.569-0.661c0.185-0.169,0.381-0.253,0.604-0.253
		c0.171,0,0.265,0.032,0.377,0.152c0.08,0.102,0.115,0.217,0.12,0.434c0,0.432-0.071,0.836-0.214,1.287
		c-0.144,0.429-0.344,0.804-0.557,1.22c-0.228,0.384-0.509,0.72-0.769,1.073c-0.284,0.33-0.576,0.608-0.854,0.857
		c-0.284,0.241-0.559,0.4-0.815,0.57c-0.259,0.137-0.494,0.206-0.645,0.206c-0.071,0-0.126-0.101-0.146-0.203
		c-0.026-0.136-0.065-0.335-0.039-0.534C350.58,38.742,350.588,38.487,350.625,38.205z"/>
	<path d="M362.624,42.62c-0.091,0.088-0.199,0.149-0.25,0.217c-0.075,0.056-0.167,0.078-0.217,0.125
		c-0.07,0.026-0.156,0.039-0.213,0.039c-0.117,0-0.232-0.033-0.255-0.095c-0.053-0.065-0.082-0.199-0.078-0.312
		c0-0.038-0.004-0.135,0.05-0.286c0.035-0.153,0.047-0.356,0.13-0.558c0.053-0.219,0.089-0.469,0.17-0.714
		c0.061-0.257,0.106-0.536,0.17-0.752c0.053-0.245,0.076-0.473,0.13-0.678c0.035-0.206,0.047-0.375,0.052-0.483
		c0-0.388-0.104-0.696-0.298-0.902c-0.197-0.213-0.503-0.319-0.895-0.319c-0.381,0-0.755,0.099-1.108,0.373
		c-0.355,0.248-0.727,0.623-1.084,1.125v-0.004l-0.08-0.027c0.034-0.075,0.052-0.165,0.07-0.237c0.013-0.083,0.007-0.194,0.02-0.237
		c0-0.299-0.079-0.564-0.229-0.722c-0.152-0.182-0.389-0.272-0.647-0.272c-0.154,0-0.309,0-0.441,0.063
		c-0.141,0.042-0.313,0.087-0.422,0.2c-0.142,0.09-0.308,0.202-0.448,0.348c-0.156,0.142-0.34,0.303-0.517,0.508l0.391,0.369
		c0.113-0.117,0.205-0.246,0.306-0.305c0.091-0.088,0.148-0.183,0.252-0.216c0.077-0.058,0.15-0.114,0.221-0.128
		c0.069-0.028,0.136-0.042,0.208-0.042c0.222,0,0.318,0.134,0.333,0.413c0,0.098-0.015,0.193-0.034,0.378
		c-0.022,0.153-0.059,0.323-0.106,0.524l-0.85,3.685h1.11l0.635-2.83c0.037-0.173,0.071-0.363,0.178-0.522
		c0.082-0.175,0.157-0.357,0.28-0.502c0.105-0.158,0.221-0.341,0.348-0.449c0.126-0.142,0.225-0.274,0.387-0.367
		c0.133-0.104,0.235-0.213,0.395-0.242c0.13-0.059,0.235-0.087,0.366-0.087c0.196,0,0.312,0.034,0.428,0.164
		c0.088,0.108,0.129,0.254,0.133,0.513c0,0.098-0.038,0.206-0.038,0.369c-0.024,0.148-0.082,0.3-0.102,0.508
		c-0.043,0.19-0.101,0.372-0.153,0.62c-0.059,0.223-0.131,0.432-0.189,0.7c-0.064,0.24-0.141,0.449-0.145,0.663
		c-0.031,0.202-0.059,0.355-0.047,0.526c0,0.152,0.021,0.265,0.066,0.416c0.047,0.125,0.077,0.233,0.192,0.327
		c0.083,0.092,0.151,0.157,0.297,0.216c0.116,0.053,0.217,0.08,0.378,0.08s0.305-0.033,0.456-0.066
		c0.145-0.045,0.269-0.123,0.434-0.205c0.146-0.094,0.293-0.235,0.452-0.351c0.154-0.141,0.316-0.334,0.509-0.506L362.93,42.3
		C362.817,42.424,362.706,42.523,362.624,42.62z"/>
</g>
</svg>
