<?xml version="1.0" encoding="utf-8"?>
<!-- Generator: Adobe Illustrator 15.1.0, SVG Export Plug-In . SVG Version: 6.00 Build 0)  -->
<!DOCTYPE svg PUBLIC "-//W3C//DTD SVG 1.1 Tiny//EN" "http://www.w3.org/Graphics/SVG/1.1/DTD/svg11-tiny.dtd">
<svg version="1.1" baseProfile="tiny" id="Layer_1" xmlns="http://www.w3.org/2000/svg" xmlns:xlink="http://www.w3.org/1999/xlink"
	 x="0px" y="0px" width="199px" height="71px" viewBox="0 0 199 71" overflow="inherit" xml:space="preserve">
<g>
	<path fill="none" d="M179.777,28.433c0.289,0.768,0.805,1.167,1.465,1.167c0.615,0,1.096-0.365,1.4-1.098
		c0.291-0.734,0.457-1.869,0.457-3.406c0-1.207-0.078-2.126-0.233-2.853c-0.179-0.742-0.373-1.25-0.652-1.567
		c-0.282-0.341-0.614-0.475-1.011-0.475c-0.361,0-0.66,0.104-0.902,0.313c-0.242,0.205-0.438,0.512-0.586,0.905
		c-0.152,0.387-0.253,0.871-0.316,1.436c-0.062,0.547-0.094,1.202-0.094,1.912l0.002-0.002
		C179.305,26.41,179.463,27.654,179.777,28.433z"/>
	<path fill="none" d="M150.113,58.977c-0.282-0.342-0.614-0.476-1.01-0.476c-0.361,0-0.66,0.104-0.902,0.313
		c-0.242,0.205-0.438,0.512-0.586,0.905c-0.153,0.388-0.254,0.871-0.316,1.437c-0.062,0.546-0.094,1.201-0.094,1.911l0.001-0.001
		c-0.002,1.644,0.157,2.888,0.472,3.666c0.289,0.768,0.805,1.168,1.465,1.168c0.614,0,1.096-0.366,1.399-1.099
		c0.291-0.733,0.458-1.869,0.458-3.405c0-1.207-0.078-2.127-0.234-2.854C150.588,59.801,150.393,59.293,150.113,58.977z"/>
	<path fill="none" d="M179.777,47.533c0.289,0.767,0.805,1.167,1.465,1.167c0.615,0,1.096-0.366,1.4-1.099
		c0.291-0.733,0.457-1.869,0.457-3.405c0-1.207-0.078-2.126-0.233-2.854c-0.179-0.741-0.373-1.25-0.652-1.566
		c-0.282-0.341-0.614-0.476-1.011-0.476c-0.361,0-0.66,0.105-0.902,0.314c-0.242,0.205-0.438,0.511-0.586,0.904
		c-0.152,0.388-0.253,0.871-0.316,1.437c-0.062,0.546-0.094,1.202-0.094,1.911l0.002-0.001
		C179.305,45.51,179.463,46.754,179.777,47.533z"/>
	<path fill="none" d="M179.777,9.333c0.289,0.767,0.805,1.167,1.465,1.167c0.615,0,1.096-0.366,1.4-1.098
		c0.291-0.734,0.457-1.869,0.457-3.406c0-1.207-0.078-2.126-0.233-2.854c-0.179-0.741-0.373-1.25-0.652-1.566
		c-0.282-0.341-0.614-0.475-1.011-0.475c-0.361,0-0.66,0.104-0.902,0.313c-0.242,0.205-0.438,0.511-0.586,0.905
		c-0.152,0.387-0.253,0.871-0.316,1.436c-0.062,0.546-0.094,1.202-0.094,1.911l0.002-0.001
		C179.305,7.311,179.463,8.554,179.777,9.333z"/>
	<path fill="none" d="M69.714,58.977c-0.283-0.342-0.615-0.476-1.011-0.476c-0.361,0-0.66,0.104-0.902,0.313
		c-0.242,0.205-0.437,0.512-0.586,0.905c-0.153,0.388-0.253,0.871-0.316,1.437c-0.062,0.546-0.094,1.201-0.094,1.911l0-0.001
		c-0.002,1.644,0.157,2.888,0.473,3.666c0.289,0.768,0.804,1.168,1.464,1.168c0.615,0,1.096-0.366,1.4-1.099
		c0.291-0.733,0.458-1.869,0.458-3.405c0-1.207-0.078-2.127-0.234-2.854C70.188,59.801,69.993,59.293,69.714,58.977z"/>
	<path fill="none" d="M110.113,58.977c-0.282-0.342-0.614-0.476-1.01-0.476c-0.361,0-0.66,0.104-0.902,0.313
		c-0.242,0.205-0.438,0.512-0.586,0.905c-0.153,0.388-0.254,0.871-0.316,1.437c-0.062,0.546-0.094,1.201-0.094,1.911l0.001-0.001
		c-0.002,1.644,0.157,2.888,0.472,3.666c0.289,0.768,0.805,1.168,1.465,1.168c0.614,0,1.096-0.366,1.399-1.099
		c0.291-0.733,0.458-1.869,0.458-3.405c0-1.207-0.078-2.127-0.234-2.854C110.588,59.801,110.393,59.293,110.113,58.977z"/>
	<path d="M3.066,32.217l-1.32,5.955c-0.113,0.511-0.229,0.854-0.256,1.033c-0.056,0.178-0.12,0.309-0.186,0.453
		c-0.066,0.125-0.168,0.205-0.248,0.291c-0.098,0.068-0.249,0.119-0.441,0.149l-0.086,0.4h2.717l0.086-0.4
		c-0.274-0.021-0.484-0.088-0.586-0.175c-0.117-0.096-0.198-0.271-0.175-0.494c0-0.314,0.043-0.725,0.162-1.212l0.792-3.592
		c0.218-0.99,0.41-2.065,0.591-3.228H4.27c0.115,1.203,0.191,2.136,0.311,2.866l0.644,5.034h0.847l3.533-5.859
		c0.563-0.94,0.896-1.588,1.086-1.871H10.8c-0.187,0.641-0.353,1.251-0.497,1.93L9.27,38.17c-0.113,0.511-0.203,0.854-0.256,1.034
		c-0.058,0.178-0.129,0.31-0.188,0.453c-0.066,0.125-0.175,0.205-0.248,0.291C8.48,40.018,8.321,40.069,8.137,40.1l-0.086,0.4h3.106
		l0.084-0.4c-0.274-0.02-0.488-0.087-0.586-0.173c-0.117-0.096-0.202-0.271-0.175-0.494c0-0.144,0.006-0.32,0.031-0.482
		c0.021-0.179,0.051-0.429,0.133-0.726l1.327-6.016c0.11-0.495,0.186-0.865,0.269-1.073c0.069-0.219,0.123-0.397,0.209-0.483
		c0.07-0.104,0.121-0.187,0.233-0.231c0.085-0.052,0.225-0.126,0.423-0.141l0.084-0.38h-2.445v-0.002l-4.527,7.567l-0.884-7.567
		H2.561l-0.086,0.4c0.264,0.016,0.439,0.049,0.578,0.167c0.122,0.095,0.17,0.239,0.183,0.506c0,0.206-0.045,0.382-0.047,0.611
		C3.159,31.784,3.096,31.989,3.066,32.217z"/>
	<path d="M20.518,29.398l0.459-1.996h-6.178l-0.425,1.912h0.606c0.102-0.2,0.176-0.405,0.269-0.516
		c0.079-0.143,0.129-0.275,0.216-0.361c0.066-0.099,0.112-0.178,0.192-0.232c0.062-0.057,0.111-0.124,0.202-0.133
		c0.071-0.032,0.119-0.057,0.237-0.06c0.086-0.007,0.189-0.011,0.317-0.011h0.783l-1.145,5.039c-0.045,0.197-0.095,0.35-0.119,0.497
		c-0.034,0.134-0.078,0.221-0.102,0.325c-0.034,0.083-0.077,0.129-0.106,0.197c-0.036,0.049-0.111,0.062-0.127,0.114
		c-0.049,0.027-0.115,0.035-0.175,0.067c-0.068,0.017-0.175,0.036-0.244,0.058l-0.073,0.399h2.502l0.08-0.4
		c-0.132-0.007-0.261-0.041-0.323-0.039c-0.082-0.019-0.17-0.072-0.198-0.083c-0.05-0.037-0.105-0.096-0.102-0.137
		c-0.018-0.054-0.04-0.134-0.034-0.192c0-0.097-0.01-0.213,0.025-0.326c0.018-0.12,0.033-0.295,0.089-0.438l1.167-5.083h0.911
		c0.096,0,0.154,0,0.233,0.011c0.06,0.008,0.109,0.003,0.155,0.039c0.043,0.02,0.074,0.035,0.107,0.08
		c0.028,0.035,0.022,0.059,0.081,0.13c0.019,0.042,0.019,0.089,0.05,0.163c0.016,0.066,0,0.125,0.041,0.216
		c0.012,0.077,0.016,0.132,0.025,0.231c0.006,0.078,0.001,0.121,0.009,0.205v0.322H20.518z"/>
	<polygon points="15.105,34.7 15.105,34.699 15.104,34.699 	"/>
	<rect x="27.956" y="37.1" width="9.566" height="1"/>
	<rect x="27.956" y="33.9" width="9.566" height="1"/>
	<polygon points="45.3,2.302 48.4,2.302 48.4,1.602 43.7,1.602 43.7,17.901 45.3,17.901 	"/>
	<polygon points="45.3,20.8 45.3,17.901 43.7,17.901 43.67,17.901 43.67,34.401 45.3,34.401 	"/>
	<polygon points="45.3,51.102 45.3,37.4 45.3,34.401 43.67,34.401 43.67,37.4 43.67,53.9 43.7,53.9 43.7,51.102 	"/>
	<polygon points="45.3,51.102 43.7,51.102 43.7,53.9 43.7,70.4 48.4,70.4 48.4,69.7 45.3,69.7 45.3,53.9 	"/>
	<path d="M60.625,8.805c0.031-0.285,0.057-0.588,0.117-0.875l0.434-2.841c0.01-0.057-0.014-0.12,0.022-0.187
		c0.005-0.068,0.006-0.17,0.008-0.213c0-0.125-0.035-0.256-0.039-0.381c-0.025-0.129-0.081-0.265-0.144-0.352
		c-0.07-0.107-0.178-0.227-0.291-0.259C60.609,3.633,60.432,3.6,60.252,3.6c-0.233,0-0.483,0.034-0.683,0.122
		c-0.225,0.08-0.446,0.173-0.639,0.32c-0.201,0.133-0.41,0.252-0.573,0.444c-0.182,0.162-0.367,0.301-0.513,0.494l0.373,0.435
		c0.094-0.092,0.188-0.197,0.303-0.298c0.108-0.106,0.201-0.211,0.337-0.298c0.116-0.095,0.231-0.2,0.345-0.23
		C59.317,4.53,59.416,4.5,59.521,4.5c0.124,0,0.184,0.033,0.264,0.156c0.052,0.103,0.057,0.218,0.078,0.395
		c0,0.053-0.021,0.102-0.02,0.245c-0.012,0.112-0.06,0.212-0.05,0.353l-0.327,2.153c-0.056,0.343-0.112,0.675-0.139,1.02
		c-0.037,0.337-0.079,0.629-0.055,0.946c0,0.224,0.009,0.4,0.039,0.614c0.026,0.188,0.055,0.326,0.131,0.486
		c0.062,0.138,0.115,0.215,0.245,0.319c0.101,0.074,0.206,0.112,0.377,0.112l0.005-0.003c0.336,0,0.648-0.1,1.012-0.205
		c0.34-0.138,0.648-0.336,1.002-0.555c0.329-0.232,0.637-0.512,0.952-0.817c0.305-0.312,0.562-0.652,0.861-0.998
		c0.269-0.354,0.506-0.729,0.737-1.092c0.223-0.375,0.413-0.752,0.575-1.097c0.16-0.356,0.26-0.702,0.372-1.014
		c0.088-0.321,0.13-0.629,0.133-0.854c0-0.325-0.102-0.614-0.248-0.778c-0.166-0.193-0.453-0.291-0.808-0.291
		c-0.191,0-0.408,0.033-0.589,0.117c-0.203,0.079-0.424,0.173-0.588,0.313c-0.189,0.13-0.381,0.254-0.536,0.453
		c-0.168,0.172-0.315,0.344-0.438,0.537l0.442,0.396c0.197-0.273,0.382-0.512,0.57-0.662c0.184-0.169,0.38-0.253,0.603-0.253
		c0.171,0,0.265,0.033,0.377,0.153c0.08,0.101,0.115,0.217,0.12,0.433c0,0.432-0.071,0.836-0.214,1.288
		c-0.143,0.428-0.343,0.803-0.556,1.219c-0.228,0.384-0.509,0.72-0.769,1.073c-0.284,0.331-0.576,0.609-0.853,0.857
		c-0.285,0.241-0.559,0.4-0.816,0.57c-0.259,0.137-0.494,0.206-0.644,0.206c-0.072,0-0.126-0.1-0.147-0.203
		c-0.026-0.136-0.065-0.335-0.039-0.534C60.58,9.342,60.588,9.087,60.625,8.805z"/>
	<path d="M68.71,8.776c-0.153-0.184-0.389-0.275-0.647-0.275c-0.152,0-0.306,0-0.438,0.063c-0.14,0.043-0.281,0.088-0.425,0.2
		c-0.143,0.091-0.309,0.202-0.45,0.349c-0.156,0.141-0.34,0.303-0.517,0.508l0.391,0.369c0.113-0.117,0.205-0.247,0.306-0.305
		c0.09-0.089,0.147-0.184,0.248-0.217c0.076-0.057,0.117-0.113,0.219-0.128c0.069-0.028,0.137-0.042,0.212-0.042
		c0.222,0,0.319,0.134,0.333,0.413c0,0.099-0.014,0.194-0.031,0.363c-0.02,0.143-0.057,0.317-0.109,0.541l0.002-0.001l-0.85,3.684
		h1.111l0.577-2.703c0.041-0.193,0.095-0.392,0.187-0.578c0.083-0.191,0.174-0.397,0.292-0.544c0.111-0.171,0.205-0.329,0.353-0.473
		c0.125-0.146,0.235-0.279,0.377-0.377c0.127-0.106,0.244-0.214,0.359-0.245c0.113-0.057,0.21-0.084,0.302-0.08
		c0.147,0,0.244,0.034,0.336,0.139c0.078,0.094,0.096,0.248,0.145,0.461h0.656l0.287-1.321c-0.117-0.022-0.262-0.048-0.364-0.056
		C71.446,8.507,71.289,8.5,71.167,8.5c-0.382,0-0.77,0.1-1.113,0.361c-0.359,0.24-0.745,0.586-1.114,1.127l-0.078-0.034
		c0.052-0.132,0.064-0.284,0.078-0.455C68.94,9.201,68.86,8.934,68.71,8.776z"/>
	<path d="M74.089,12.891c-0.124,0.144-0.253,0.245-0.308,0.334c-0.082,0.081-0.175,0.139-0.202,0.178
		c-0.053,0.037-0.112,0.035-0.139,0.071c-0.04,0.012-0.086,0.02-0.122,0.023c-0.114,0-0.186-0.101-0.186-0.3h-0.483l-0.259,1.098
		c0.139,0.068,0.277,0.102,0.503,0.102c0.136,0,0.24-0.032,0.372-0.033c0.111-0.023,0.191-0.078,0.325-0.125
		c0.106-0.061,0.21-0.174,0.323-0.247c0.109-0.104,0.205-0.27,0.367-0.397c0.136-0.162,0.277-0.359,0.456-0.58
		c0.169-0.225,0.357-0.496,0.592-0.792h0.062c0.004,0.046,0.008,0.104,0.025,0.208c0.013,0.094,0.008,0.183,0.053,0.316
		c0.023,0.117,0.034,0.234,0.086,0.377c0.034,0.134,0.05,0.259,0.112,0.389c0.041,0.125,0.086,0.221,0.136,0.351
		c0.05,0.107,0.082,0.186,0.159,0.258c0.083,0.106,0.163,0.166,0.294,0.219c0.113,0.039,0.229,0.06,0.386,0.06
		c0.166,0,0.286-0.034,0.442-0.051c0.128-0.031,0.233-0.115,0.373-0.187c0.12-0.093,0.235-0.247,0.373-0.383
		c0.129-0.163,0.252-0.391,0.441-0.627l-0.423-0.278c-0.098,0.159-0.214,0.267-0.254,0.383c-0.072,0.096-0.169,0.143-0.195,0.221
		c-0.058,0.051-0.124,0.059-0.17,0.1c-0.054,0.015-0.13,0.021-0.178,0.021c-0.087,0-0.17-0.033-0.233-0.074
		c-0.068-0.051-0.14-0.159-0.203-0.323c-0.068-0.164-0.139-0.431-0.213-0.712c-0.074-0.312-0.174-0.74-0.264-1.241
		c0.201-0.254,0.356-0.504,0.533-0.661c0.155-0.188,0.266-0.35,0.414-0.473c0.121-0.129,0.193-0.234,0.314-0.314
		c0.088-0.08,0.156-0.146,0.234-0.187c0.069-0.044,0.125-0.082,0.177-0.089c0.048-0.016,0.08-0.023,0.135-0.023
		c0.109,0,0.161,0.1,0.181,0.3h0.47l0.283-1.188c-0.156-0.072-0.348-0.109-0.516-0.109c-0.128,0-0.248-0.001-0.348,0.028
		c-0.104,0.019-0.208,0.042-0.302,0.104c-0.098,0.051-0.202,0.106-0.303,0.219c-0.104,0.095-0.239,0.211-0.352,0.369
		c-0.13,0.151-0.282,0.311-0.445,0.557c-0.166,0.22-0.371,0.46-0.588,0.777h-0.073c-0.065-0.328-0.147-0.647-0.183-0.877
		c-0.056-0.256-0.145-0.482-0.214-0.645c-0.087-0.175-0.204-0.32-0.328-0.397c-0.131-0.091-0.307-0.136-0.509-0.136
		c-0.175,0-0.347,0-0.463,0.062c-0.135,0.043-0.286,0.088-0.383,0.207c-0.121,0.096-0.245,0.205-0.369,0.386
		c-0.124,0.161-0.291,0.342-0.417,0.591l0.436,0.284c0.091-0.151,0.151-0.295,0.241-0.369c0.069-0.094,0.116-0.183,0.192-0.22
		c0.058-0.054,0.107-0.101,0.169-0.111c0.055-0.02,0.115-0.031,0.18-0.031c0.067,0.004,0.1,0.004,0.178,0.045
		c0.051,0.026,0.091,0.045,0.141,0.133c0.044,0.062,0.07,0.137,0.128,0.25c0.041,0.105,0.058,0.229,0.128,0.409
		c0.044,0.167,0.085,0.354,0.141,0.601c0.051,0.232,0.079,0.486,0.18,0.822l0.003-0.003c-0.254,0.317-0.486,0.563-0.652,0.798
		C74.367,12.57,74.185,12.717,74.089,12.891z"/>
	<path d="M100.942,7.93l0.434-2.841c0.011-0.057-0.015-0.12,0.022-0.187c0.006-0.068,0.006-0.17,0.009-0.213
		c0-0.125-0.035-0.256-0.039-0.381c-0.025-0.129-0.081-0.265-0.144-0.352c-0.07-0.107-0.179-0.227-0.292-0.259
		c-0.124-0.065-0.301-0.099-0.481-0.099c-0.233,0-0.483,0.034-0.683,0.122c-0.224,0.08-0.446,0.173-0.638,0.32
		c-0.201,0.133-0.41,0.252-0.573,0.444c-0.182,0.162-0.367,0.301-0.513,0.494l0.372,0.435c0.094-0.092,0.188-0.197,0.303-0.298
		c0.108-0.106,0.201-0.211,0.337-0.298c0.116-0.095,0.231-0.2,0.345-0.23C99.517,4.53,99.616,4.5,99.721,4.5
		c0.124,0,0.184,0.033,0.264,0.156c0.052,0.103,0.057,0.218,0.078,0.395c0,0.053-0.021,0.102-0.02,0.245
		c-0.012,0.112-0.06,0.212-0.05,0.353l-0.327,2.153c-0.056,0.343-0.112,0.675-0.139,1.02c-0.037,0.337-0.079,0.629-0.055,0.946
		c0,0.224,0.009,0.4,0.039,0.614c0.026,0.188,0.055,0.326,0.131,0.486c0.062,0.138,0.115,0.215,0.245,0.319
		c0.101,0.074,0.206,0.112,0.377,0.112l0.005-0.003c0.336,0,0.648-0.1,1.012-0.205c0.34-0.138,0.648-0.336,1.002-0.555
		c0.328-0.232,0.637-0.512,0.951-0.817c0.306-0.312,0.562-0.652,0.861-0.998c0.27-0.354,0.506-0.729,0.737-1.092
		c0.224-0.375,0.413-0.752,0.575-1.097c0.16-0.356,0.26-0.702,0.371-1.014c0.089-0.321,0.131-0.629,0.134-0.854
		c0-0.325-0.103-0.614-0.248-0.778c-0.166-0.193-0.453-0.291-0.808-0.291c-0.191,0-0.408,0.033-0.59,0.117
		c-0.203,0.079-0.424,0.173-0.588,0.313c-0.188,0.13-0.381,0.254-0.535,0.453c-0.168,0.172-0.315,0.344-0.438,0.537l0.442,0.396
		c0.197-0.273,0.381-0.512,0.569-0.662c0.185-0.169,0.38-0.253,0.603-0.253c0.172,0,0.266,0.033,0.378,0.153
		c0.079,0.101,0.114,0.217,0.12,0.433c0,0.432-0.071,0.836-0.215,1.288c-0.143,0.428-0.342,0.803-0.556,1.219
		c-0.228,0.384-0.509,0.72-0.769,1.073c-0.284,0.331-0.576,0.609-0.854,0.857c-0.285,0.241-0.559,0.4-0.816,0.57
		c-0.258,0.137-0.493,0.206-0.644,0.206c-0.072,0-0.126-0.1-0.147-0.203c-0.026-0.136-0.065-0.335-0.039-0.534
		c0-0.219,0.008-0.474,0.045-0.756C100.856,8.52,100.882,8.217,100.942,7.93z"/>
	<path d="M108.91,8.776c-0.152-0.184-0.389-0.275-0.646-0.275c-0.152,0-0.307,0-0.438,0.063c-0.14,0.043-0.281,0.088-0.425,0.2
		c-0.144,0.091-0.31,0.202-0.45,0.349c-0.156,0.141-0.341,0.303-0.517,0.508l0.391,0.369c0.113-0.117,0.205-0.247,0.306-0.305
		c0.091-0.089,0.147-0.184,0.248-0.217c0.076-0.057,0.117-0.113,0.22-0.128c0.068-0.028,0.137-0.042,0.211-0.042
		c0.223,0,0.319,0.134,0.334,0.413c0,0.099-0.015,0.194-0.031,0.363c-0.021,0.143-0.057,0.317-0.109,0.541l0.002-0.001l-0.85,3.684
		h1.111l0.576-2.703c0.041-0.193,0.096-0.392,0.188-0.578c0.082-0.191,0.174-0.397,0.291-0.544c0.111-0.171,0.205-0.329,0.354-0.473
		c0.125-0.146,0.235-0.279,0.377-0.377c0.127-0.106,0.244-0.214,0.359-0.245c0.113-0.057,0.211-0.084,0.302-0.08
		c0.147,0,0.244,0.034,0.336,0.139c0.078,0.094,0.097,0.248,0.146,0.461h0.656l0.287-1.321c-0.117-0.022-0.263-0.048-0.365-0.056
		c-0.125-0.015-0.283-0.021-0.404-0.021c-0.383,0-0.77,0.1-1.113,0.361c-0.359,0.24-0.745,0.586-1.113,1.127l-0.078-0.034
		c0.051-0.132,0.064-0.284,0.078-0.455C109.141,9.201,109.061,8.934,108.91,8.776z"/>
	<path d="M112.73,15.2l-0.283,1.294c0.094,0.032,0.18,0.034,0.324,0.077c0.123,0.02,0.201,0.03,0.314,0.03
		c0.162-0.009,0.303-0.041,0.467-0.056c0.15-0.028,0.301-0.077,0.452-0.144c0.151-0.067,0.284-0.167,0.468-0.268
		c0.159-0.111,0.303-0.256,0.52-0.427c0.188-0.174,0.391-0.41,0.611-0.623c0.222-0.241,0.455-0.536,0.744-0.861
		c0.635-0.825,1.187-1.7,1.707-2.556c0.502-0.878,0.92-1.8,1.322-2.734l-0.197-0.33h-1.613l-0.073,0.397
		c0.202,0.012,0.339,0.045,0.434,0.127c0.087,0.072,0.112,0.163,0.13,0.358c0.004,0.168-0.047,0.373-0.119,0.672
		c-0.082,0.279-0.227,0.561-0.358,0.93c-0.156,0.34-0.349,0.68-0.575,1.084c-0.227,0.383-0.492,0.759-0.764,1.133
		c-0.034-0.274-0.079-0.576-0.108-0.839c-0.038-0.285-0.081-0.571-0.118-0.833c-0.041-0.271-0.111-0.548-0.123-0.777
		c-0.043-0.248-0.104-0.5-0.125-0.682c-0.043-0.207-0.097-0.396-0.119-0.544c-0.039-0.156-0.086-0.299-0.108-0.36
		c-0.065-0.139-0.144-0.261-0.19-0.353c-0.062-0.097-0.144-0.203-0.214-0.237c-0.079-0.06-0.19-0.119-0.266-0.133
		c-0.099-0.029-0.22-0.044-0.353-0.044c-0.166,0-0.336-0.001-0.457,0.06c-0.141,0.039-0.293,0.086-0.412,0.199
		c-0.133,0.094-0.283,0.207-0.405,0.383c-0.136,0.16-0.315,0.347-0.447,0.604l0.437,0.284c0.102-0.156,0.158-0.3,0.256-0.377
		c0.072-0.097,0.109-0.182,0.197-0.224c0.061-0.053,0.1-0.097,0.176-0.104c0.056-0.019,0.103-0.027,0.187-0.027
		c0.071,0,0.122,0,0.2,0.072c0.062,0.047,0.113,0.123,0.184,0.266c0.061,0.13,0.117,0.283,0.187,0.542
		c0.063,0.232,0.125,0.506,0.212,0.906c0.078,0.371,0.135,0.809,0.258,1.348c0.096,0.528,0.2,1.15,0.33,1.877h0.005
		c-0.399,0.485-0.772,0.814-1.024,1.059c-0.285,0.22-0.58,0.331-0.84,0.331c-0.207,0-0.324-0.166-0.311-0.459V15.2H112.73z"/>
	<path d="M141.425,8.805c0.031-0.285,0.058-0.588,0.117-0.875l0.435-2.841c0.01-0.057-0.015-0.12,0.022-0.187
		c0.005-0.068,0.006-0.17,0.008-0.213c0-0.125-0.034-0.256-0.039-0.381c-0.024-0.129-0.081-0.265-0.144-0.352
		c-0.07-0.107-0.178-0.227-0.291-0.259c-0.124-0.065-0.301-0.099-0.481-0.099c-0.233,0-0.483,0.034-0.683,0.122
		c-0.225,0.08-0.446,0.173-0.639,0.32c-0.201,0.133-0.41,0.252-0.572,0.444c-0.182,0.162-0.367,0.301-0.514,0.494l0.373,0.435
		c0.094-0.092,0.188-0.197,0.303-0.298c0.107-0.106,0.201-0.211,0.337-0.298c0.116-0.095,0.231-0.2,0.345-0.23
		c0.115-0.059,0.214-0.089,0.318-0.089c0.125,0,0.185,0.033,0.265,0.156c0.052,0.103,0.058,0.218,0.078,0.395
		c0,0.053-0.021,0.102-0.021,0.245c-0.012,0.112-0.06,0.212-0.05,0.353l-0.327,2.153c-0.056,0.343-0.111,0.675-0.139,1.02
		c-0.037,0.337-0.079,0.629-0.055,0.946c0,0.224,0.009,0.4,0.039,0.614c0.025,0.188,0.055,0.326,0.131,0.486
		c0.062,0.138,0.115,0.215,0.244,0.319c0.102,0.074,0.207,0.112,0.377,0.112l0.006-0.003c0.336,0,0.648-0.1,1.012-0.205
		c0.34-0.138,0.648-0.336,1.002-0.555c0.329-0.232,0.637-0.512,0.952-0.817c0.306-0.312,0.562-0.652,0.86-0.998
		c0.27-0.354,0.507-0.729,0.738-1.092c0.223-0.375,0.412-0.752,0.574-1.097c0.16-0.356,0.26-0.702,0.372-1.014
		c0.088-0.321,0.13-0.629,0.134-0.854c0-0.325-0.103-0.614-0.248-0.778c-0.166-0.193-0.453-0.291-0.809-0.291
		c-0.191,0-0.408,0.033-0.589,0.117c-0.203,0.079-0.425,0.173-0.589,0.313c-0.188,0.13-0.381,0.254-0.535,0.453
		c-0.168,0.172-0.314,0.344-0.438,0.537l0.441,0.396c0.197-0.273,0.382-0.512,0.57-0.662c0.184-0.169,0.38-0.253,0.603-0.253
		c0.171,0,0.265,0.033,0.377,0.153c0.08,0.101,0.115,0.217,0.12,0.433c0,0.432-0.07,0.836-0.214,1.288
		c-0.144,0.428-0.343,0.803-0.556,1.219c-0.229,0.384-0.51,0.72-0.77,1.073c-0.283,0.331-0.576,0.609-0.854,0.857
		c-0.284,0.241-0.559,0.4-0.815,0.57c-0.259,0.137-0.494,0.206-0.644,0.206c-0.072,0-0.127-0.1-0.147-0.203
		c-0.026-0.136-0.065-0.335-0.039-0.534C141.38,9.342,141.389,9.087,141.425,8.805z"/>
	<path d="M149.51,8.776c-0.152-0.184-0.389-0.275-0.646-0.275c-0.152,0-0.307,0-0.438,0.063c-0.14,0.043-0.28,0.088-0.425,0.2
		c-0.143,0.091-0.309,0.202-0.45,0.349c-0.155,0.141-0.34,0.303-0.517,0.508l0.391,0.369c0.113-0.117,0.205-0.247,0.307-0.305
		c0.09-0.089,0.146-0.184,0.248-0.217c0.076-0.057,0.117-0.113,0.219-0.128c0.068-0.028,0.137-0.042,0.212-0.042
		c0.222,0,0.319,0.134,0.333,0.413c0,0.099-0.014,0.194-0.031,0.363c-0.02,0.143-0.057,0.317-0.109,0.541l0.002-0.001l-0.85,3.684
		h1.111l0.576-2.703c0.041-0.193,0.096-0.392,0.188-0.578c0.083-0.191,0.174-0.397,0.292-0.544c0.111-0.171,0.205-0.329,0.353-0.473
		c0.125-0.146,0.235-0.279,0.377-0.377c0.127-0.106,0.244-0.214,0.359-0.245c0.114-0.057,0.211-0.084,0.303-0.08
		c0.146,0,0.244,0.034,0.336,0.139c0.078,0.094,0.096,0.248,0.145,0.461h0.656l0.287-1.321c-0.117-0.022-0.262-0.048-0.364-0.056
		c-0.126-0.015-0.283-0.021-0.405-0.021c-0.382,0-0.77,0.1-1.113,0.361c-0.359,0.24-0.744,0.586-1.113,1.127l-0.078-0.034
		c0.052-0.132,0.064-0.284,0.078-0.455C149.74,9.201,149.66,8.934,149.51,8.776z"/>
	<path d="M155.352,11.428c-0.379,0.413-0.797,0.803-1.156,1.262c-0.391,0.428-0.789,0.83-1.131,1.237l0.153,0.373h4.497l0.362-1.7
		l0.001-0.002h-0.583c-0.099,0.19-0.196,0.323-0.255,0.478c-0.072,0.127-0.152,0.201-0.205,0.313
		c-0.062,0.082-0.141,0.119-0.195,0.187c-0.064,0.042-0.145,0.05-0.217,0.091c-0.079,0.018-0.188-0.004-0.277,0.03
		c-0.105,0.002-0.254,0.003-0.373,0.003h-1.395c-0.008-0.004-0.032-0.037-0.034-0.028c0.299-0.326,0.552-0.649,0.839-0.914
		c0.26-0.283,0.5-0.569,0.747-0.809c0.238-0.257,0.462-0.507,0.688-0.744c0.221-0.238,0.414-0.506,0.662-0.717
		c0.222-0.24,0.428-0.503,0.668-0.731c0.225-0.248,0.442-0.533,0.711-0.783l-0.137-0.371h-4.406l-0.35,1.598h0.577
		c0.125-0.212,0.211-0.412,0.328-0.512c0.094-0.131,0.171-0.26,0.289-0.304c0.098-0.073,0.178-0.135,0.323-0.146
		c0.115-0.025,0.254-0.037,0.425-0.037h1.456c0.007,0.004-0.014,0.004,0.033,0.028c-0.285,0.3-0.616,0.625-0.953,1.016
		C156.096,10.621,155.714,11.006,155.352,11.428z"/>
	<path d="M181.117,11.2L181.117,11.2c1.14,0,2.001-0.5,2.599-1.403c0.595-0.936,0.89-2.335,0.892-4.141
		c0-1.764-0.303-3.081-0.832-3.95c-0.553-0.87-1.412-1.306-2.532-1.306c-0.503,0-0.983,0.1-1.392,0.324
		c-0.425,0.218-0.809,0.543-1.092,1.002c-0.303,0.45-0.556,1.009-0.708,1.711c-0.168,0.69-0.252,1.479-0.252,2.459
		c0,1.784,0.267,3.084,0.819,3.989C179.165,10.762,179.992,11.2,181.117,11.2z M179.398,3.756c0.063-0.564,0.164-1.049,0.316-1.436
		c0.148-0.395,0.344-0.7,0.586-0.905c0.242-0.209,0.541-0.313,0.902-0.313c0.396,0,0.729,0.134,1.011,0.475
		c0.279,0.316,0.474,0.825,0.652,1.566c0.155,0.728,0.233,1.646,0.233,2.854c0,1.537-0.166,2.672-0.457,3.406
		c-0.305,0.731-0.785,1.098-1.4,1.098c-0.66,0-1.176-0.4-1.465-1.167c-0.314-0.779-0.473-2.022-0.471-3.667l-0.002,0.001
		C179.305,4.958,179.337,4.302,179.398,3.756z"/>
	<path d="M57.145,24.081l0.372,0.434c0.094-0.092,0.188-0.196,0.303-0.298c0.108-0.105,0.201-0.211,0.337-0.298
		c0.116-0.094,0.23-0.2,0.345-0.229c0.115-0.06,0.214-0.09,0.319-0.09c0.124,0,0.184,0.033,0.264,0.156
		c0.052,0.104,0.057,0.218,0.078,0.396c0,0.052-0.021,0.101-0.02,0.245c-0.012,0.111-0.06,0.211-0.05,0.353l-0.327,2.153
		c-0.056,0.342-0.112,0.674-0.139,1.019c-0.037,0.337-0.079,0.629-0.055,0.947c0,0.223,0.009,0.399,0.039,0.614
		c0.026,0.187,0.055,0.325,0.131,0.485c0.062,0.138,0.115,0.215,0.245,0.319c0.101,0.075,0.206,0.113,0.377,0.113l0.005-0.004
		c0.336,0,0.648-0.1,1.012-0.204c0.34-0.139,0.648-0.337,1.002-0.556c0.329-0.231,0.637-0.512,0.953-0.816
		c0.304-0.312,0.562-0.653,0.861-0.998c0.269-0.354,0.506-0.729,0.736-1.092c0.223-0.375,0.414-0.752,0.575-1.098
		c0.16-0.355,0.26-0.702,0.372-1.014c0.088-0.321,0.13-0.628,0.133-0.854c0-0.324-0.102-0.613-0.248-0.777
		c-0.166-0.194-0.453-0.291-0.808-0.291c-0.191,0-0.408,0.033-0.589,0.117c-0.203,0.078-0.424,0.173-0.588,0.312
		c-0.189,0.13-0.381,0.254-0.536,0.453c-0.168,0.172-0.315,0.344-0.438,0.538l0.442,0.395c0.197-0.272,0.382-0.512,0.57-0.661
		c0.184-0.17,0.38-0.254,0.603-0.254c0.171,0,0.265,0.033,0.377,0.153c0.08,0.101,0.115,0.217,0.12,0.433
		c0,0.433-0.071,0.836-0.214,1.288c-0.143,0.429-0.343,0.804-0.556,1.22c-0.228,0.384-0.509,0.72-0.769,1.072
		c-0.284,0.331-0.576,0.609-0.853,0.858c-0.285,0.241-0.559,0.399-0.816,0.57c-0.259,0.137-0.495,0.206-0.645,0.206
		c-0.072,0-0.126-0.101-0.147-0.203c-0.026-0.137-0.065-0.335-0.039-0.534c0-0.219,0.008-0.474,0.045-0.756
		c0.031-0.285,0.057-0.588,0.117-0.875l0.434-2.841c0.01-0.058-0.014-0.12,0.023-0.188c0.005-0.068,0.006-0.169,0.008-0.212
		c0-0.126-0.035-0.256-0.039-0.381c-0.025-0.129-0.081-0.265-0.144-0.353c-0.07-0.106-0.178-0.226-0.291-0.259
		c-0.124-0.065-0.301-0.098-0.481-0.098c-0.232,0-0.482,0.034-0.683,0.122c-0.224,0.08-0.446,0.173-0.638,0.32
		c-0.201,0.133-0.41,0.252-0.573,0.443C57.476,23.749,57.291,23.887,57.145,24.081z"/>
	<path d="M65.508,28.821l0.386,0.368c0.113-0.116,0.214-0.246,0.305-0.305c0.091-0.088,0.157-0.183,0.252-0.216
		c0.078-0.057,0.128-0.114,0.219-0.128c0.068-0.028,0.111-0.042,0.209-0.042c0.227,0,0.334,0.134,0.341,0.413
		c0,0.102-0.041,0.23-0.055,0.427c-0.036,0.183-0.091,0.369-0.133,0.609c-0.053,0.225-0.13,0.441-0.169,0.702
		c-0.06,0.242-0.148,0.459-0.17,0.696c-0.053,0.223-0.118,0.407-0.134,0.605c-0.035,0.18-0.055,0.296-0.053,0.423
		c0,0.395,0.098,0.67,0.303,0.909c0.202,0.211,0.499,0.315,0.903,0.315c0.382,0,0.744-0.133,1.102-0.371
		c0.354-0.248,0.715-0.625,1.091-1.116l-0.003-0.002l0.069,0.022c-0.031,0.075-0.055,0.129-0.063,0.234
		c-0.012,0.081-0.047,0.158-0.017,0.242c0,0.306,0.069,0.535,0.23,0.723c0.153,0.176,0.345,0.264,0.637,0.264
		c0.15,0,0.264-0.033,0.437-0.062c0.141-0.04,0.275-0.119,0.427-0.198c0.144-0.092,0.269-0.239,0.453-0.354
		c0.158-0.143,0.332-0.338,0.521-0.514l-0.391-0.373c-0.113,0.124-0.217,0.225-0.306,0.32c-0.09,0.088-0.192,0.148-0.253,0.217
		c-0.077,0.057-0.16,0.078-0.217,0.125c-0.068,0.026-0.145,0.039-0.209,0.039c-0.118,0-0.226-0.033-0.255-0.095
		c-0.052-0.064-0.108-0.199-0.078-0.312c0-0.104,0.003-0.235,0.028-0.384c0.018-0.15,0.045-0.353,0.095-0.514l0.872-3.692h-1.114
		l-0.623,2.825c-0.068,0.253-0.184,0.477-0.32,0.766c-0.146,0.258-0.321,0.461-0.495,0.7c-0.185,0.209-0.396,0.378-0.581,0.511
		c-0.201,0.131-0.419,0.197-0.569,0.197c-0.195,0-0.357-0.066-0.428-0.166c-0.089-0.109-0.14-0.288-0.133-0.503
		c0-0.18,0.026-0.49,0.125-0.848c0.084-0.386,0.168-0.847,0.341-1.351c0.071-0.251,0.109-0.496,0.152-0.68
		c0.03-0.204,0.017-0.388,0.045-0.552c0-0.304-0.095-0.571-0.244-0.729c-0.162-0.181-0.409-0.271-0.65-0.271
		c-0.162,0-0.326,0-0.453,0.058c-0.14,0.038-0.286,0.085-0.425,0.188c-0.143,0.088-0.314,0.172-0.456,0.347
		C65.894,28.436,65.709,28.605,65.508,28.821z"/>
	<path d="M79.06,27.702c-0.128,0-0.248-0.001-0.348,0.028c-0.104,0.019-0.208,0.041-0.302,0.104
		c-0.098,0.051-0.201,0.106-0.303,0.219c-0.104,0.095-0.239,0.21-0.352,0.369c-0.13,0.151-0.282,0.31-0.445,0.556
		c-0.166,0.221-0.37,0.461-0.588,0.778h-0.073c-0.065-0.329-0.148-0.647-0.183-0.877c-0.056-0.256-0.145-0.483-0.214-0.645
		c-0.087-0.175-0.204-0.32-0.328-0.397c-0.132-0.091-0.307-0.136-0.509-0.136c-0.175,0-0.347,0-0.463,0.062
		c-0.135,0.042-0.286,0.087-0.383,0.206c-0.121,0.097-0.246,0.206-0.369,0.387c-0.124,0.16-0.291,0.342-0.417,0.591l0.437,0.284
		c0.091-0.151,0.151-0.295,0.241-0.369c0.068-0.094,0.116-0.183,0.191-0.221c0.059-0.053,0.107-0.1,0.169-0.11
		c0.055-0.021,0.115-0.031,0.18-0.031c0.067,0.004,0.1,0.004,0.178,0.045c0.051,0.026,0.091,0.045,0.141,0.133
		c0.044,0.062,0.07,0.136,0.128,0.25c0.041,0.105,0.058,0.229,0.128,0.409c0.044,0.167,0.085,0.354,0.141,0.6
		c0.051,0.233,0.079,0.487,0.18,0.823l0.003-0.003c-0.254,0.317-0.486,0.563-0.652,0.797c-0.181,0.215-0.363,0.362-0.459,0.536
		c-0.124,0.144-0.253,0.245-0.308,0.334c-0.082,0.081-0.175,0.138-0.202,0.177c-0.053,0.037-0.112,0.035-0.139,0.072
		c-0.04,0.012-0.086,0.02-0.122,0.023c-0.114,0-0.186-0.101-0.186-0.301h-0.483l-0.259,1.099c0.139,0.067,0.277,0.102,0.503,0.102
		c0.136,0,0.24-0.032,0.372-0.034c0.111-0.022,0.191-0.077,0.325-0.125c0.106-0.06,0.21-0.174,0.323-0.246
		c0.109-0.104,0.205-0.27,0.367-0.397c0.136-0.162,0.277-0.36,0.456-0.58c0.169-0.225,0.357-0.497,0.592-0.792h0.062
		c0.004,0.046,0.008,0.104,0.025,0.208c0.013,0.093,0.008,0.183,0.053,0.316c0.023,0.116,0.034,0.233,0.086,0.377
		c0.034,0.134,0.05,0.259,0.112,0.389c0.041,0.125,0.086,0.22,0.136,0.351c0.05,0.107,0.082,0.186,0.159,0.258
		c0.083,0.105,0.163,0.166,0.294,0.219c0.113,0.039,0.229,0.059,0.386,0.059c0.166,0,0.286-0.033,0.442-0.05
		c0.128-0.032,0.233-0.115,0.373-0.187c0.121-0.094,0.235-0.247,0.373-0.383c0.129-0.164,0.252-0.391,0.441-0.627l-0.423-0.278
		c-0.098,0.159-0.214,0.267-0.255,0.383c-0.072,0.096-0.169,0.143-0.195,0.22c-0.058,0.051-0.124,0.06-0.17,0.101
		c-0.054,0.015-0.13,0.021-0.178,0.021c-0.087,0-0.17-0.033-0.233-0.075c-0.068-0.05-0.14-0.158-0.203-0.322
		c-0.068-0.164-0.139-0.432-0.213-0.713c-0.074-0.311-0.174-0.739-0.264-1.24c0.201-0.254,0.356-0.504,0.533-0.661
		c0.155-0.188,0.266-0.351,0.414-0.474c0.121-0.129,0.193-0.233,0.314-0.313c0.088-0.08,0.156-0.146,0.234-0.187
		c0.069-0.045,0.125-0.082,0.177-0.09c0.048-0.015,0.079-0.022,0.134-0.022c0.109,0,0.161,0.1,0.181,0.3h0.47l0.283-1.189
		C79.42,27.739,79.228,27.702,79.06,27.702z"/>
	<path d="M97.345,24.081l0.373,0.434c0.094-0.092,0.188-0.196,0.303-0.298c0.108-0.105,0.201-0.211,0.337-0.298
		c0.116-0.094,0.231-0.2,0.345-0.229c0.115-0.06,0.214-0.09,0.319-0.09c0.124,0,0.184,0.033,0.264,0.156
		c0.052,0.104,0.057,0.218,0.078,0.396c0,0.052-0.021,0.101-0.02,0.245c-0.012,0.111-0.06,0.211-0.05,0.353l-0.327,2.153
		c-0.056,0.342-0.112,0.674-0.139,1.019c-0.037,0.337-0.079,0.629-0.055,0.947c0,0.223,0.009,0.399,0.039,0.614
		c0.026,0.187,0.055,0.325,0.131,0.485c0.062,0.138,0.115,0.215,0.245,0.319c0.101,0.075,0.206,0.113,0.377,0.113l0.005-0.004
		c0.336,0,0.647-0.1,1.012-0.204c0.34-0.139,0.647-0.337,1.002-0.556c0.329-0.231,0.638-0.512,0.952-0.816
		c0.305-0.312,0.562-0.653,0.861-0.998c0.269-0.354,0.506-0.729,0.736-1.092c0.223-0.375,0.413-0.752,0.575-1.098
		c0.16-0.355,0.26-0.702,0.372-1.014c0.088-0.321,0.13-0.628,0.133-0.854c0-0.324-0.102-0.613-0.248-0.777
		c-0.166-0.194-0.453-0.291-0.808-0.291c-0.191,0-0.408,0.033-0.589,0.117c-0.203,0.078-0.424,0.173-0.588,0.312
		c-0.189,0.13-0.381,0.254-0.537,0.453c-0.168,0.172-0.314,0.344-0.438,0.538l0.442,0.395c0.196-0.272,0.382-0.512,0.569-0.661
		c0.185-0.17,0.381-0.254,0.604-0.254c0.171,0,0.266,0.033,0.377,0.153c0.08,0.101,0.115,0.217,0.12,0.433
		c0,0.433-0.071,0.836-0.214,1.288c-0.143,0.429-0.344,0.804-0.557,1.22c-0.228,0.384-0.509,0.72-0.769,1.072
		c-0.284,0.331-0.576,0.609-0.853,0.858c-0.285,0.241-0.56,0.399-0.816,0.57c-0.259,0.137-0.494,0.206-0.644,0.206
		c-0.072,0-0.126-0.101-0.147-0.203c-0.026-0.137-0.065-0.335-0.039-0.534c0-0.219,0.008-0.474,0.045-0.756
		c0.031-0.285,0.057-0.588,0.117-0.875l0.434-2.841c0.01-0.058-0.014-0.12,0.023-0.188c0.005-0.068,0.006-0.169,0.008-0.212
		c0-0.126-0.035-0.256-0.039-0.381c-0.025-0.129-0.081-0.265-0.144-0.353c-0.07-0.106-0.178-0.226-0.291-0.259
		c-0.124-0.065-0.301-0.098-0.481-0.098c-0.233,0-0.483,0.034-0.683,0.122c-0.225,0.08-0.446,0.173-0.639,0.32
		c-0.201,0.133-0.41,0.252-0.573,0.443C97.676,23.749,97.491,23.887,97.345,24.081z"/>
	<path d="M105.708,28.821l0.386,0.368c0.113-0.116,0.215-0.246,0.305-0.305c0.092-0.088,0.158-0.183,0.252-0.216
		c0.078-0.057,0.129-0.114,0.22-0.128c0.067-0.028,0.11-0.042,0.209-0.042c0.228,0,0.334,0.134,0.341,0.413
		c0,0.102-0.041,0.23-0.055,0.427c-0.036,0.183-0.092,0.369-0.133,0.609c-0.053,0.225-0.131,0.441-0.17,0.702
		c-0.06,0.242-0.147,0.459-0.17,0.696c-0.053,0.223-0.117,0.407-0.134,0.605c-0.034,0.18-0.055,0.296-0.053,0.423
		c0,0.395,0.099,0.67,0.303,0.909c0.202,0.211,0.499,0.315,0.903,0.315c0.382,0,0.744-0.133,1.102-0.371
		c0.354-0.248,0.715-0.625,1.092-1.116l-0.004-0.002l0.069,0.022c-0.03,0.075-0.055,0.129-0.063,0.234
		c-0.012,0.081-0.047,0.158-0.017,0.242c0,0.306,0.069,0.535,0.229,0.723c0.154,0.176,0.346,0.264,0.638,0.264
		c0.149,0,0.265-0.033,0.437-0.062c0.142-0.04,0.275-0.119,0.428-0.198c0.144-0.092,0.269-0.239,0.453-0.354
		c0.158-0.143,0.332-0.338,0.521-0.514l-0.391-0.373c-0.113,0.124-0.217,0.225-0.307,0.32c-0.09,0.088-0.191,0.148-0.252,0.217
		c-0.078,0.057-0.16,0.078-0.218,0.125c-0.067,0.026-0.146,0.039-0.209,0.039c-0.118,0-0.226-0.033-0.255-0.095
		c-0.053-0.064-0.107-0.199-0.078-0.312c0-0.104,0.003-0.235,0.028-0.384c0.018-0.15,0.045-0.353,0.095-0.514l0.872-3.692h-1.114
		l-0.623,2.825c-0.068,0.253-0.184,0.477-0.32,0.766c-0.145,0.258-0.32,0.461-0.494,0.7c-0.186,0.209-0.396,0.378-0.581,0.511
		c-0.201,0.131-0.419,0.197-0.569,0.197c-0.195,0-0.357-0.066-0.428-0.166c-0.09-0.109-0.141-0.288-0.133-0.503
		c0-0.18,0.025-0.49,0.125-0.848c0.084-0.386,0.168-0.847,0.341-1.351c0.071-0.251,0.108-0.496,0.151-0.68
		c0.03-0.204,0.018-0.388,0.045-0.552c0-0.304-0.094-0.571-0.244-0.729c-0.161-0.181-0.408-0.271-0.649-0.271
		c-0.162,0-0.325,0-0.452,0.058c-0.141,0.038-0.287,0.085-0.426,0.188c-0.143,0.088-0.314,0.172-0.456,0.347
		C106.094,28.436,105.909,28.605,105.708,28.821z"/>
	<path d="M119.879,27.803h-1.613l-0.072,0.398c0.203,0.012,0.339,0.045,0.434,0.127c0.087,0.072,0.111,0.163,0.13,0.357
		c0.005,0.168-0.047,0.373-0.118,0.672c-0.082,0.28-0.228,0.562-0.359,0.931c-0.156,0.34-0.348,0.679-0.575,1.084
		c-0.226,0.383-0.493,0.759-0.765,1.133c-0.033-0.274-0.078-0.576-0.107-0.839c-0.038-0.285-0.081-0.572-0.119-0.833
		c-0.04-0.271-0.109-0.548-0.123-0.778c-0.042-0.247-0.104-0.499-0.125-0.681c-0.042-0.207-0.096-0.397-0.119-0.544
		c-0.037-0.156-0.084-0.299-0.107-0.361c-0.065-0.138-0.143-0.26-0.191-0.352c-0.062-0.098-0.143-0.203-0.213-0.237
		c-0.08-0.06-0.189-0.12-0.266-0.133c-0.098-0.029-0.221-0.044-0.353-0.044c-0.166,0-0.337-0.001-0.458,0.059
		c-0.14,0.04-0.292,0.086-0.41,0.2c-0.135,0.094-0.283,0.207-0.406,0.383c-0.137,0.16-0.315,0.347-0.447,0.604l0.438,0.284
		c0.101-0.156,0.157-0.3,0.256-0.377c0.07-0.097,0.108-0.182,0.196-0.224c0.06-0.053,0.099-0.097,0.175-0.104
		c0.057-0.019,0.104-0.027,0.188-0.027c0.07,0,0.122,0,0.199,0.072c0.062,0.047,0.115,0.123,0.185,0.266
		c0.06,0.129,0.117,0.283,0.187,0.542c0.063,0.232,0.125,0.506,0.211,0.906c0.078,0.371,0.136,0.809,0.259,1.348
		c0.095,0.528,0.2,1.15,0.33,1.877h0.005c-0.4,0.485-0.771,0.814-1.025,1.059c-0.283,0.22-0.58,0.331-0.839,0.331
		c-0.207,0-0.325-0.166-0.312-0.459V34.4h-0.516l-0.283,1.294c0.095,0.032,0.181,0.034,0.326,0.077
		c0.123,0.02,0.199,0.029,0.313,0.029c0.162-0.008,0.302-0.041,0.467-0.055c0.149-0.028,0.302-0.077,0.452-0.145
		c0.15-0.066,0.283-0.166,0.467-0.267c0.16-0.111,0.305-0.256,0.52-0.427c0.188-0.174,0.392-0.41,0.613-0.623
		c0.221-0.241,0.453-0.536,0.743-0.861c0.634-0.826,1.187-1.7,1.706-2.556c0.503-0.878,0.92-1.8,1.323-2.734L119.879,27.803z"/>
	<path d="M137.945,24.081l0.371,0.434c0.095-0.092,0.188-0.196,0.304-0.298c0.108-0.105,0.2-0.211,0.337-0.298
		c0.116-0.094,0.23-0.2,0.345-0.229c0.115-0.06,0.214-0.09,0.319-0.09c0.124,0,0.184,0.033,0.264,0.156
		c0.053,0.104,0.057,0.218,0.078,0.396c0,0.052-0.021,0.101-0.02,0.245c-0.012,0.111-0.061,0.211-0.051,0.353l-0.326,2.153
		c-0.057,0.342-0.112,0.674-0.14,1.019c-0.036,0.337-0.079,0.629-0.055,0.947c0,0.223,0.009,0.399,0.039,0.614
		c0.026,0.187,0.055,0.325,0.131,0.485c0.062,0.138,0.115,0.215,0.245,0.319c0.102,0.075,0.206,0.113,0.377,0.113l0.005-0.004
		c0.336,0,0.647-0.1,1.013-0.204c0.34-0.139,0.647-0.337,1.002-0.556c0.328-0.231,0.637-0.512,0.951-0.816
		c0.305-0.312,0.562-0.653,0.861-0.998c0.27-0.354,0.506-0.729,0.736-1.092c0.224-0.375,0.414-0.752,0.576-1.098
		c0.159-0.355,0.26-0.702,0.371-1.014c0.088-0.321,0.131-0.628,0.133-0.854c0-0.324-0.102-0.613-0.248-0.777
		c-0.166-0.194-0.453-0.291-0.808-0.291c-0.19,0-0.407,0.033-0.589,0.117c-0.203,0.078-0.424,0.173-0.588,0.312
		c-0.189,0.13-0.381,0.254-0.536,0.453c-0.168,0.172-0.315,0.344-0.438,0.538l0.442,0.395c0.197-0.272,0.382-0.512,0.57-0.661
		c0.184-0.17,0.38-0.254,0.603-0.254c0.172,0,0.266,0.033,0.377,0.153c0.08,0.101,0.115,0.217,0.12,0.433
		c0,0.433-0.071,0.836-0.214,1.288c-0.143,0.429-0.343,0.804-0.556,1.22c-0.228,0.384-0.509,0.72-0.769,1.072
		c-0.285,0.331-0.576,0.609-0.854,0.858c-0.285,0.241-0.559,0.399-0.816,0.57c-0.259,0.137-0.494,0.206-0.644,0.206
		c-0.072,0-0.126-0.101-0.147-0.203c-0.025-0.137-0.064-0.335-0.039-0.534c0-0.219,0.008-0.474,0.045-0.756
		c0.031-0.285,0.058-0.588,0.117-0.875l0.434-2.841c0.011-0.058-0.014-0.12,0.023-0.188c0.006-0.068,0.006-0.169,0.008-0.212
		c0-0.126-0.035-0.256-0.039-0.381c-0.024-0.129-0.08-0.265-0.144-0.353c-0.069-0.106-0.179-0.226-0.291-0.259
		c-0.124-0.065-0.301-0.098-0.481-0.098c-0.232,0-0.482,0.034-0.683,0.122c-0.224,0.08-0.446,0.173-0.638,0.32
		c-0.201,0.133-0.41,0.252-0.573,0.443C138.275,23.749,138.091,23.887,137.945,24.081z"/>
	<path d="M146.309,28.821l0.385,0.368c0.113-0.116,0.215-0.246,0.306-0.305c0.091-0.088,0.157-0.183,0.252-0.216
		c0.078-0.057,0.128-0.114,0.22-0.128c0.067-0.028,0.11-0.042,0.209-0.042c0.227,0,0.334,0.134,0.34,0.413
		c0,0.102-0.041,0.23-0.055,0.427c-0.035,0.183-0.091,0.369-0.133,0.609c-0.053,0.225-0.13,0.441-0.169,0.702
		c-0.06,0.242-0.147,0.459-0.17,0.696c-0.054,0.223-0.118,0.407-0.134,0.605c-0.035,0.18-0.055,0.296-0.053,0.423
		c0,0.395,0.098,0.67,0.303,0.909c0.201,0.211,0.498,0.315,0.902,0.315c0.383,0,0.744-0.133,1.102-0.371
		c0.354-0.248,0.716-0.625,1.092-1.116l-0.003-0.002l0.069,0.022c-0.031,0.075-0.056,0.129-0.063,0.234
		c-0.013,0.081-0.048,0.158-0.017,0.242c0,0.306,0.068,0.535,0.229,0.723c0.153,0.176,0.345,0.264,0.638,0.264
		c0.149,0,0.264-0.033,0.437-0.062c0.142-0.04,0.274-0.119,0.427-0.198c0.145-0.092,0.27-0.239,0.453-0.354
		c0.158-0.143,0.332-0.338,0.521-0.514l-0.391-0.373c-0.113,0.124-0.217,0.225-0.306,0.32c-0.091,0.088-0.192,0.148-0.253,0.217
		c-0.077,0.057-0.16,0.078-0.217,0.125c-0.068,0.026-0.146,0.039-0.209,0.039c-0.119,0-0.227-0.033-0.256-0.095
		c-0.052-0.064-0.107-0.199-0.078-0.312c0-0.104,0.004-0.235,0.028-0.384c0.019-0.15,0.046-0.353,0.095-0.514l0.873-3.692h-1.115
		l-0.623,2.825c-0.067,0.253-0.184,0.477-0.319,0.766c-0.146,0.258-0.321,0.461-0.495,0.7c-0.186,0.209-0.396,0.378-0.581,0.511
		c-0.2,0.131-0.419,0.197-0.569,0.197c-0.195,0-0.356-0.066-0.428-0.166c-0.089-0.109-0.14-0.288-0.133-0.503
		c0-0.18,0.025-0.49,0.125-0.848c0.084-0.386,0.168-0.847,0.342-1.351c0.07-0.251,0.108-0.496,0.151-0.68
		c0.03-0.204,0.017-0.388,0.045-0.552c0-0.304-0.095-0.571-0.244-0.729c-0.162-0.181-0.409-0.271-0.649-0.271
		c-0.162,0-0.326,0-0.453,0.058c-0.141,0.038-0.286,0.085-0.426,0.188c-0.143,0.088-0.314,0.172-0.455,0.347
		C146.693,28.436,146.509,28.605,146.309,28.821z"/>
	<path d="M159.423,27.801h-4.405l-0.351,1.598h0.577c0.125-0.211,0.211-0.411,0.328-0.512c0.094-0.13,0.171-0.259,0.289-0.303
		c0.098-0.073,0.178-0.135,0.322-0.146c0.116-0.025,0.256-0.037,0.426-0.037h1.455c0.008,0.004-0.014,0.004,0.033,0.027
		c-0.283,0.301-0.615,0.625-0.951,1.017c-0.352,0.377-0.732,0.762-1.096,1.184c-0.379,0.413-0.796,0.803-1.156,1.261
		c-0.391,0.429-0.789,0.831-1.129,1.238l0.152,0.373h4.497l0.362-1.7v-0.002h-0.582c-0.098,0.19-0.196,0.323-0.256,0.478
		c-0.071,0.127-0.151,0.201-0.205,0.313c-0.062,0.082-0.141,0.119-0.194,0.187c-0.065,0.042-0.146,0.05-0.217,0.091
		c-0.079,0.018-0.187-0.004-0.278,0.03c-0.105,0.002-0.253,0.002-0.373,0.002h-1.395c-0.006-0.004-0.031-0.036-0.033-0.027
		c0.299-0.326,0.552-0.65,0.839-0.914c0.26-0.283,0.5-0.569,0.747-0.809c0.238-0.258,0.462-0.508,0.689-0.744
		c0.219-0.238,0.414-0.506,0.662-0.717c0.221-0.24,0.426-0.504,0.666-0.731c0.226-0.248,0.443-0.533,0.711-0.783L159.423,27.801z"/>
	<path d="M178.619,28.986c0.546,0.876,1.373,1.313,2.498,1.313h0.001c1.139,0,2-0.5,2.598-1.403c0.595-0.936,0.89-2.334,0.892-4.141
		c0-1.763-0.303-3.081-0.832-3.95c-0.553-0.87-1.412-1.306-2.532-1.306c-0.503,0-0.983,0.1-1.392,0.325
		c-0.425,0.217-0.809,0.542-1.092,1.002c-0.303,0.45-0.556,1.008-0.708,1.711c-0.168,0.69-0.252,1.478-0.252,2.459
		C177.8,26.781,178.066,28.081,178.619,28.986z M179.398,22.855c0.063-0.564,0.164-1.049,0.316-1.436
		c0.148-0.394,0.344-0.7,0.586-0.905c0.242-0.209,0.541-0.313,0.902-0.313c0.396,0,0.729,0.134,1.011,0.475
		c0.279,0.317,0.474,0.825,0.652,1.567c0.155,0.727,0.233,1.646,0.233,2.853c0,1.537-0.166,2.672-0.457,3.406
		c-0.305,0.732-0.785,1.098-1.4,1.098c-0.66,0-1.176-0.399-1.465-1.167c-0.314-0.778-0.473-2.022-0.471-3.667l-0.002,0.002
		C179.305,24.058,179.337,23.402,179.398,22.855z"/>
	<path d="M57.517,43.615c0.094-0.092,0.188-0.197,0.303-0.298c0.108-0.106,0.201-0.212,0.337-0.298c0.116-0.095,0.23-0.2,0.345-0.23
		c0.115-0.059,0.214-0.089,0.319-0.089c0.124,0,0.184,0.032,0.264,0.155c0.052,0.104,0.057,0.219,0.078,0.396
		c0,0.052-0.021,0.101-0.02,0.245c-0.012,0.111-0.06,0.212-0.05,0.353l-0.327,2.153c-0.056,0.342-0.112,0.674-0.139,1.02
		c-0.037,0.336-0.079,0.629-0.055,0.946c0,0.224,0.009,0.4,0.039,0.614c0.026,0.188,0.055,0.326,0.131,0.486
		c0.062,0.138,0.115,0.215,0.245,0.318c0.101,0.075,0.206,0.113,0.377,0.113l0.005-0.003c0.336,0,0.648-0.101,1.012-0.205
		c0.34-0.138,0.648-0.336,1.002-0.555c0.329-0.232,0.637-0.513,0.953-0.817c0.304-0.312,0.562-0.652,0.861-0.998
		c0.269-0.354,0.506-0.729,0.736-1.092c0.223-0.375,0.414-0.752,0.575-1.098c0.16-0.355,0.26-0.701,0.372-1.014
		c0.088-0.32,0.13-0.628,0.133-0.853c0-0.325-0.102-0.614-0.248-0.778c-0.166-0.193-0.453-0.291-0.808-0.291
		c-0.191,0-0.408,0.033-0.589,0.117c-0.203,0.079-0.424,0.173-0.588,0.312c-0.189,0.131-0.381,0.254-0.536,0.453
		c-0.168,0.172-0.315,0.344-0.438,0.538l0.442,0.396c0.197-0.273,0.382-0.512,0.57-0.662c0.184-0.169,0.38-0.253,0.603-0.253
		c0.171,0,0.265,0.032,0.377,0.153c0.08,0.101,0.115,0.217,0.12,0.433c0,0.432-0.071,0.836-0.214,1.288
		c-0.143,0.428-0.343,0.803-0.556,1.219c-0.228,0.384-0.509,0.72-0.769,1.073c-0.284,0.331-0.576,0.608-0.853,0.857
		c-0.285,0.241-0.559,0.4-0.816,0.57c-0.259,0.137-0.495,0.206-0.645,0.206c-0.072,0-0.126-0.1-0.147-0.203
		c-0.026-0.136-0.065-0.335-0.039-0.534c0-0.219,0.008-0.474,0.045-0.756c0.031-0.285,0.057-0.588,0.117-0.875l0.434-2.841
		c0.01-0.057-0.014-0.12,0.023-0.188c0.005-0.067,0.006-0.169,0.008-0.212c0-0.126-0.035-0.256-0.039-0.381
		c-0.025-0.129-0.081-0.265-0.144-0.352c-0.07-0.107-0.178-0.227-0.291-0.259c-0.124-0.065-0.301-0.099-0.481-0.099
		c-0.232,0-0.482,0.034-0.683,0.122c-0.224,0.08-0.446,0.173-0.638,0.32c-0.201,0.133-0.41,0.252-0.573,0.443
		c-0.182,0.163-0.367,0.302-0.513,0.495L57.517,43.615z"/>
	<path d="M72.621,51.573L72.23,51.2c-0.113,0.124-0.224,0.224-0.306,0.319c-0.091,0.088-0.199,0.149-0.25,0.218
		c-0.075,0.056-0.167,0.077-0.217,0.125c-0.07,0.025-0.156,0.039-0.213,0.039c-0.117,0-0.232-0.033-0.255-0.096
		c-0.052-0.064-0.082-0.198-0.078-0.311c0-0.038-0.004-0.135,0.05-0.286c0.035-0.154,0.047-0.357,0.13-0.558
		c0.053-0.22,0.089-0.47,0.17-0.714c0.061-0.258,0.106-0.536,0.17-0.752c0.053-0.246,0.076-0.474,0.13-0.678
		c0.035-0.207,0.047-0.376,0.052-0.484c0-0.388-0.104-0.695-0.298-0.901c-0.198-0.213-0.503-0.32-0.895-0.32
		c-0.381,0-0.755,0.1-1.108,0.373c-0.356,0.248-0.727,0.623-1.084,1.125v-0.003l-0.08-0.027c0.034-0.075,0.051-0.166,0.07-0.237
		c0.013-0.083,0.007-0.194,0.02-0.237c0-0.299-0.08-0.564-0.23-0.722c-0.152-0.183-0.389-0.273-0.647-0.273
		c-0.155,0-0.309,0-0.442,0.064c-0.14,0.042-0.313,0.087-0.422,0.2c-0.141,0.09-0.307,0.201-0.448,0.348
		c-0.156,0.141-0.34,0.303-0.517,0.508l0.391,0.369c0.113-0.117,0.205-0.247,0.306-0.305c0.091-0.088,0.148-0.184,0.252-0.217
		c0.077-0.057,0.15-0.113,0.22-0.128c0.07-0.027,0.136-0.042,0.208-0.042c0.222,0,0.319,0.135,0.333,0.413
		c0,0.099-0.014,0.194-0.034,0.378c-0.022,0.154-0.058,0.324-0.106,0.525l-0.85,3.684h1.111l0.634-2.83
		c0.037-0.173,0.072-0.362,0.178-0.521c0.082-0.175,0.157-0.358,0.28-0.502c0.106-0.159,0.221-0.341,0.348-0.45
		c0.125-0.141,0.225-0.274,0.387-0.367c0.132-0.103,0.235-0.213,0.394-0.241c0.13-0.059,0.236-0.088,0.366-0.088
		c0.197,0,0.312,0.034,0.428,0.164c0.088,0.109,0.129,0.254,0.133,0.514c0,0.098-0.038,0.205-0.038,0.369
		c-0.025,0.147-0.082,0.3-0.102,0.508c-0.043,0.189-0.1,0.371-0.153,0.619c-0.059,0.224-0.131,0.433-0.189,0.7
		c-0.065,0.241-0.141,0.45-0.145,0.663c-0.031,0.202-0.059,0.356-0.047,0.527c0,0.152,0.021,0.264,0.067,0.416
		c0.046,0.125,0.077,0.232,0.192,0.327c0.083,0.092,0.151,0.157,0.297,0.216c0.116,0.053,0.217,0.08,0.378,0.08
		c0.161,0,0.304-0.033,0.456-0.067c0.144-0.045,0.268-0.123,0.433-0.205c0.146-0.093,0.293-0.234,0.452-0.35
		C72.267,51.938,72.429,51.745,72.621,51.573z"/>
	<path d="M77.783,48.413c0.121-0.129,0.193-0.234,0.314-0.314c0.088-0.079,0.156-0.146,0.234-0.187
		c0.069-0.044,0.125-0.082,0.177-0.089c0.048-0.016,0.079-0.023,0.134-0.023c0.109,0,0.161,0.101,0.181,0.3h0.47l0.283-1.188
		c-0.156-0.072-0.348-0.109-0.516-0.109c-0.128,0-0.248-0.001-0.348,0.028c-0.104,0.019-0.208,0.042-0.302,0.105
		c-0.098,0.051-0.201,0.105-0.303,0.219c-0.104,0.094-0.239,0.21-0.352,0.369c-0.13,0.15-0.282,0.31-0.445,0.556
		c-0.166,0.22-0.37,0.46-0.588,0.778h-0.073c-0.065-0.329-0.148-0.648-0.183-0.877c-0.056-0.257-0.145-0.483-0.214-0.646
		c-0.087-0.175-0.204-0.32-0.328-0.397c-0.132-0.091-0.307-0.136-0.509-0.136c-0.175,0-0.347,0-0.463,0.063
		c-0.135,0.042-0.286,0.087-0.383,0.206c-0.121,0.096-0.246,0.206-0.369,0.386c-0.124,0.161-0.291,0.342-0.417,0.591l0.437,0.284
		c0.091-0.151,0.151-0.295,0.241-0.369c0.068-0.094,0.116-0.182,0.191-0.22c0.059-0.054,0.107-0.101,0.169-0.111
		c0.055-0.02,0.115-0.03,0.18-0.03c0.067,0.004,0.1,0.004,0.178,0.045c0.051,0.025,0.091,0.045,0.141,0.133
		c0.044,0.062,0.07,0.136,0.128,0.25c0.041,0.104,0.058,0.229,0.128,0.408c0.044,0.168,0.085,0.354,0.141,0.601
		c0.051,0.233,0.079,0.487,0.18,0.823c-0.253,0.315-0.483,0.561-0.649,0.794c-0.181,0.215-0.363,0.362-0.459,0.536
		c-0.124,0.143-0.253,0.244-0.308,0.334c-0.082,0.08-0.175,0.138-0.202,0.177c-0.053,0.037-0.112,0.035-0.139,0.071
		c-0.04,0.012-0.086,0.02-0.122,0.023c-0.114,0-0.186-0.1-0.186-0.3h-0.483l-0.259,1.098c0.139,0.068,0.277,0.103,0.503,0.103
		c0.136,0,0.24-0.033,0.372-0.034c0.111-0.023,0.191-0.078,0.325-0.125c0.106-0.06,0.21-0.174,0.323-0.247
		c0.109-0.104,0.205-0.27,0.367-0.396c0.136-0.162,0.277-0.36,0.456-0.58c0.169-0.226,0.357-0.497,0.592-0.793h0.062
		c0.004,0.047,0.008,0.104,0.025,0.209c0.013,0.093,0.008,0.182,0.053,0.315c0.023,0.117,0.034,0.234,0.086,0.377
		c0.034,0.134,0.05,0.259,0.112,0.39c0.041,0.125,0.086,0.22,0.136,0.35c0.05,0.107,0.082,0.186,0.159,0.258
		c0.083,0.106,0.163,0.166,0.294,0.219c0.113,0.039,0.229,0.06,0.386,0.06c0.166,0,0.286-0.034,0.442-0.05
		c0.128-0.032,0.233-0.115,0.373-0.188c0.121-0.093,0.235-0.247,0.373-0.383c0.129-0.163,0.252-0.391,0.441-0.627l-0.423-0.278
		c-0.098,0.159-0.214,0.267-0.255,0.383c-0.072,0.097-0.169,0.144-0.195,0.221c-0.058,0.051-0.124,0.059-0.17,0.1
		c-0.054,0.015-0.13,0.022-0.178,0.022c-0.087,0-0.17-0.033-0.233-0.075c-0.068-0.05-0.14-0.159-0.203-0.323
		c-0.068-0.164-0.139-0.431-0.213-0.712c-0.074-0.312-0.174-0.74-0.264-1.241c0.201-0.254,0.356-0.504,0.533-0.661
		C77.524,48.699,77.635,48.536,77.783,48.413z"/>
	<path d="M97.717,43.615c0.094-0.092,0.188-0.197,0.303-0.298c0.108-0.106,0.201-0.212,0.337-0.298
		c0.116-0.095,0.231-0.2,0.345-0.23c0.115-0.059,0.214-0.089,0.319-0.089c0.124,0,0.184,0.032,0.264,0.155
		c0.052,0.104,0.057,0.219,0.078,0.396c0,0.052-0.021,0.101-0.02,0.245c-0.012,0.111-0.06,0.212-0.05,0.353l-0.327,2.153
		c-0.056,0.342-0.112,0.674-0.139,1.02c-0.037,0.336-0.079,0.629-0.055,0.946c0,0.224,0.009,0.4,0.039,0.614
		c0.026,0.188,0.055,0.326,0.131,0.486c0.062,0.138,0.115,0.215,0.245,0.318c0.101,0.075,0.206,0.113,0.377,0.113l0.005-0.003
		c0.336,0,0.647-0.101,1.012-0.205c0.34-0.138,0.647-0.336,1.002-0.555c0.329-0.232,0.638-0.513,0.952-0.817
		c0.305-0.312,0.562-0.652,0.861-0.998c0.269-0.354,0.506-0.729,0.736-1.092c0.223-0.375,0.413-0.752,0.575-1.098
		c0.16-0.355,0.26-0.701,0.372-1.014c0.088-0.32,0.13-0.628,0.133-0.853c0-0.325-0.102-0.614-0.248-0.778
		c-0.166-0.193-0.453-0.291-0.808-0.291c-0.191,0-0.408,0.033-0.589,0.117c-0.203,0.079-0.424,0.173-0.588,0.312
		c-0.189,0.131-0.381,0.254-0.537,0.453c-0.168,0.172-0.314,0.344-0.438,0.538l0.442,0.396c0.196-0.273,0.382-0.512,0.569-0.662
		c0.185-0.169,0.381-0.253,0.604-0.253c0.171,0,0.266,0.032,0.377,0.153c0.08,0.101,0.115,0.217,0.12,0.433
		c0,0.432-0.071,0.836-0.214,1.288c-0.143,0.428-0.344,0.803-0.557,1.219c-0.228,0.384-0.509,0.72-0.769,1.073
		c-0.284,0.331-0.576,0.608-0.853,0.857c-0.285,0.241-0.56,0.4-0.816,0.57c-0.259,0.137-0.494,0.206-0.644,0.206
		c-0.072,0-0.126-0.1-0.147-0.203c-0.026-0.136-0.065-0.335-0.039-0.534c0-0.219,0.008-0.474,0.045-0.756
		c0.031-0.285,0.057-0.588,0.117-0.875l0.434-2.841c0.01-0.057-0.014-0.12,0.023-0.188c0.005-0.067,0.006-0.169,0.008-0.212
		c0-0.126-0.035-0.256-0.039-0.381c-0.025-0.129-0.081-0.265-0.144-0.352c-0.07-0.107-0.178-0.227-0.291-0.259
		c-0.124-0.065-0.301-0.099-0.481-0.099c-0.233,0-0.483,0.034-0.683,0.122c-0.225,0.08-0.446,0.173-0.639,0.32
		c-0.201,0.133-0.41,0.252-0.573,0.443c-0.182,0.163-0.367,0.302-0.513,0.495L97.717,43.615z"/>
	<path d="M112.82,51.573L112.43,51.2c-0.113,0.124-0.224,0.224-0.306,0.319c-0.091,0.088-0.199,0.149-0.25,0.218
		c-0.075,0.056-0.167,0.077-0.217,0.125c-0.07,0.025-0.156,0.039-0.214,0.039c-0.116,0-0.231-0.033-0.254-0.096
		c-0.053-0.064-0.082-0.198-0.078-0.311c0-0.038-0.004-0.135,0.05-0.286c0.034-0.154,0.047-0.357,0.13-0.558
		c0.053-0.22,0.089-0.47,0.17-0.714c0.061-0.258,0.105-0.536,0.17-0.752c0.053-0.246,0.076-0.474,0.131-0.678
		c0.034-0.207,0.047-0.376,0.051-0.484c0-0.388-0.104-0.695-0.297-0.901c-0.199-0.213-0.504-0.32-0.896-0.32
		c-0.382,0-0.755,0.1-1.108,0.373c-0.355,0.248-0.727,0.623-1.084,1.125v-0.003l-0.08-0.027c0.034-0.075,0.051-0.166,0.07-0.237
		c0.014-0.083,0.007-0.194,0.02-0.237c0-0.299-0.08-0.564-0.229-0.722c-0.151-0.183-0.39-0.273-0.647-0.273
		c-0.154,0-0.309,0-0.441,0.064c-0.141,0.042-0.312,0.087-0.422,0.2c-0.141,0.09-0.307,0.201-0.448,0.348
		c-0.156,0.141-0.34,0.303-0.517,0.508l0.391,0.369c0.113-0.117,0.205-0.247,0.307-0.305c0.09-0.088,0.147-0.184,0.252-0.217
		c0.076-0.057,0.149-0.113,0.219-0.128c0.07-0.027,0.137-0.042,0.209-0.042c0.222,0,0.318,0.135,0.332,0.413
		c0,0.099-0.014,0.194-0.033,0.378c-0.021,0.154-0.059,0.324-0.106,0.525l-0.85,3.684h1.11l0.635-2.83
		c0.037-0.173,0.072-0.362,0.178-0.521c0.082-0.175,0.157-0.358,0.279-0.502c0.107-0.159,0.222-0.341,0.349-0.45
		c0.126-0.141,0.226-0.274,0.388-0.367c0.131-0.103,0.234-0.213,0.394-0.241c0.13-0.059,0.235-0.088,0.366-0.088
		c0.197,0,0.312,0.034,0.428,0.164c0.088,0.109,0.129,0.254,0.133,0.514c0,0.098-0.038,0.205-0.038,0.369
		c-0.024,0.147-0.082,0.3-0.103,0.508c-0.043,0.189-0.1,0.371-0.152,0.619c-0.059,0.224-0.131,0.433-0.189,0.7
		c-0.064,0.241-0.141,0.45-0.145,0.663c-0.031,0.202-0.059,0.356-0.047,0.527c0,0.152,0.021,0.264,0.066,0.416
		c0.047,0.125,0.078,0.232,0.192,0.327c0.083,0.092,0.151,0.157,0.297,0.216c0.116,0.053,0.218,0.08,0.378,0.08
		c0.161,0,0.305-0.033,0.456-0.067c0.144-0.045,0.269-0.123,0.433-0.205c0.146-0.093,0.293-0.234,0.453-0.35
		C112.467,51.938,112.629,51.745,112.82,51.573z"/>
	<path d="M113.43,53.5l-0.283,1.294c0.095,0.032,0.181,0.034,0.326,0.077c0.123,0.02,0.199,0.03,0.313,0.03
		c0.162-0.009,0.302-0.041,0.467-0.056c0.149-0.027,0.302-0.076,0.452-0.144s0.283-0.167,0.467-0.267
		c0.16-0.111,0.305-0.257,0.52-0.428c0.188-0.174,0.392-0.41,0.613-0.623c0.221-0.24,0.453-0.536,0.743-0.861
		c0.634-0.825,1.187-1.699,1.706-2.556c0.503-0.878,0.92-1.8,1.323-2.733l-0.198-0.331h-1.613l-0.072,0.397
		c0.203,0.012,0.339,0.045,0.434,0.127c0.087,0.072,0.111,0.163,0.13,0.358c0.005,0.168-0.047,0.373-0.118,0.672
		c-0.082,0.28-0.228,0.562-0.359,0.93c-0.156,0.341-0.348,0.68-0.575,1.084c-0.226,0.384-0.493,0.759-0.765,1.134
		c-0.033-0.275-0.078-0.576-0.107-0.84c-0.038-0.285-0.081-0.571-0.119-0.833c-0.04-0.271-0.109-0.548-0.123-0.777
		c-0.042-0.247-0.104-0.499-0.125-0.682c-0.042-0.206-0.096-0.396-0.119-0.544c-0.037-0.156-0.084-0.299-0.107-0.36
		c-0.065-0.139-0.143-0.261-0.191-0.353c-0.062-0.097-0.143-0.203-0.213-0.236c-0.08-0.061-0.189-0.12-0.266-0.134
		c-0.098-0.028-0.221-0.044-0.353-0.044c-0.166,0-0.337-0.001-0.458,0.06c-0.14,0.04-0.292,0.086-0.41,0.2
		c-0.135,0.094-0.283,0.207-0.406,0.383c-0.137,0.16-0.315,0.346-0.447,0.603l0.438,0.284c0.101-0.156,0.157-0.299,0.256-0.377
		c0.07-0.096,0.108-0.182,0.196-0.223c0.06-0.054,0.099-0.098,0.175-0.105c0.057-0.018,0.104-0.027,0.188-0.027
		c0.07,0,0.122,0,0.199,0.072c0.062,0.047,0.115,0.123,0.185,0.266c0.06,0.13,0.117,0.283,0.187,0.543
		c0.063,0.231,0.125,0.506,0.211,0.905c0.078,0.371,0.136,0.81,0.259,1.349c0.095,0.527,0.2,1.149,0.33,1.877h0.005
		c-0.4,0.484-0.771,0.813-1.025,1.058c-0.283,0.22-0.58,0.331-0.839,0.331c-0.207,0-0.325-0.166-0.312-0.459V53.5H113.43z"/>
	<path d="M138.316,43.615c0.095-0.092,0.188-0.197,0.304-0.298c0.108-0.106,0.2-0.212,0.337-0.298c0.116-0.095,0.23-0.2,0.345-0.23
		c0.115-0.059,0.214-0.089,0.319-0.089c0.124,0,0.184,0.032,0.264,0.155c0.053,0.104,0.057,0.219,0.078,0.396
		c0,0.052-0.021,0.101-0.02,0.245c-0.012,0.111-0.061,0.212-0.051,0.353l-0.326,2.153c-0.057,0.342-0.112,0.674-0.14,1.02
		c-0.036,0.336-0.079,0.629-0.055,0.946c0,0.224,0.009,0.4,0.039,0.614c0.026,0.188,0.055,0.326,0.131,0.486
		c0.062,0.138,0.115,0.215,0.245,0.318c0.102,0.075,0.206,0.113,0.377,0.113l0.005-0.003c0.336,0,0.647-0.101,1.013-0.205
		c0.34-0.138,0.647-0.336,1.002-0.555c0.328-0.232,0.637-0.513,0.951-0.817c0.305-0.312,0.562-0.652,0.861-0.998
		c0.27-0.354,0.506-0.729,0.736-1.092c0.224-0.375,0.414-0.752,0.576-1.098c0.159-0.355,0.26-0.701,0.371-1.014
		c0.088-0.32,0.131-0.628,0.133-0.853c0-0.325-0.102-0.614-0.248-0.778c-0.166-0.193-0.453-0.291-0.808-0.291
		c-0.19,0-0.407,0.033-0.589,0.117c-0.203,0.079-0.424,0.173-0.588,0.312c-0.189,0.131-0.381,0.254-0.536,0.453
		c-0.168,0.172-0.315,0.344-0.438,0.538l0.442,0.396c0.197-0.273,0.382-0.512,0.57-0.662c0.184-0.169,0.38-0.253,0.603-0.253
		c0.172,0,0.266,0.032,0.377,0.153c0.08,0.101,0.115,0.217,0.12,0.433c0,0.432-0.071,0.836-0.214,1.288
		c-0.143,0.428-0.343,0.803-0.556,1.219c-0.228,0.384-0.509,0.72-0.769,1.073c-0.285,0.331-0.576,0.608-0.854,0.857
		c-0.285,0.241-0.559,0.4-0.816,0.57c-0.259,0.137-0.494,0.206-0.644,0.206c-0.072,0-0.126-0.1-0.147-0.203
		c-0.025-0.136-0.064-0.335-0.039-0.534c0-0.219,0.008-0.474,0.045-0.756c0.031-0.285,0.058-0.588,0.117-0.875l0.434-2.841
		c0.011-0.057-0.014-0.12,0.023-0.188c0.006-0.067,0.006-0.169,0.008-0.212c0-0.126-0.035-0.256-0.039-0.381
		c-0.024-0.129-0.08-0.265-0.144-0.352c-0.069-0.107-0.179-0.227-0.291-0.259c-0.124-0.065-0.301-0.099-0.481-0.099
		c-0.232,0-0.482,0.034-0.683,0.122c-0.224,0.08-0.446,0.173-0.638,0.32c-0.201,0.133-0.41,0.252-0.573,0.443
		c-0.183,0.163-0.367,0.302-0.513,0.495L138.316,43.615z"/>
	<path d="M153.421,51.573l-0.392-0.373c-0.112,0.124-0.223,0.224-0.305,0.319c-0.092,0.088-0.199,0.149-0.25,0.218
		c-0.076,0.056-0.168,0.077-0.218,0.125c-0.069,0.025-0.155,0.039-0.213,0.039c-0.117,0-0.231-0.033-0.255-0.096
		c-0.053-0.064-0.082-0.198-0.078-0.311c0-0.038-0.004-0.135,0.051-0.286c0.034-0.154,0.047-0.357,0.129-0.558
		c0.053-0.22,0.09-0.47,0.17-0.714c0.061-0.258,0.106-0.536,0.17-0.752c0.054-0.246,0.076-0.474,0.131-0.678
		c0.035-0.207,0.047-0.376,0.052-0.484c0-0.388-0.104-0.695-0.298-0.901c-0.198-0.213-0.504-0.32-0.895-0.32
		c-0.382,0-0.756,0.1-1.109,0.373c-0.355,0.248-0.727,0.623-1.084,1.125v-0.003l-0.079-0.027c0.034-0.075,0.051-0.166,0.069-0.237
		c0.014-0.083,0.008-0.194,0.021-0.237c0-0.299-0.08-0.564-0.229-0.722c-0.152-0.183-0.39-0.273-0.647-0.273
		c-0.155,0-0.31,0-0.442,0.064c-0.14,0.042-0.312,0.087-0.422,0.2c-0.141,0.09-0.307,0.201-0.447,0.348
		c-0.156,0.141-0.341,0.303-0.518,0.508l0.391,0.369c0.113-0.117,0.205-0.247,0.307-0.305c0.091-0.088,0.147-0.184,0.252-0.217
		c0.076-0.057,0.15-0.113,0.22-0.128c0.069-0.027,0.136-0.042,0.208-0.042c0.223,0,0.318,0.135,0.333,0.413
		c0,0.099-0.015,0.194-0.034,0.378c-0.021,0.154-0.058,0.324-0.105,0.525l-0.851,3.684h1.111l0.634-2.83
		c0.037-0.173,0.072-0.362,0.178-0.521c0.082-0.175,0.157-0.358,0.28-0.502c0.106-0.159,0.222-0.341,0.349-0.45
		c0.125-0.141,0.225-0.274,0.387-0.367c0.132-0.103,0.234-0.213,0.394-0.241c0.13-0.059,0.236-0.088,0.366-0.088
		c0.197,0,0.312,0.034,0.428,0.164c0.088,0.109,0.129,0.254,0.133,0.514c0,0.098-0.037,0.205-0.037,0.369
		c-0.025,0.147-0.082,0.3-0.103,0.508c-0.043,0.189-0.101,0.371-0.153,0.619c-0.059,0.224-0.131,0.433-0.188,0.7
		c-0.065,0.241-0.142,0.45-0.146,0.663c-0.031,0.202-0.059,0.356-0.047,0.527c0,0.152,0.021,0.264,0.067,0.416
		c0.046,0.125,0.077,0.232,0.192,0.327c0.082,0.092,0.15,0.157,0.297,0.216c0.115,0.053,0.217,0.08,0.377,0.08
		c0.162,0,0.305-0.033,0.457-0.067c0.144-0.045,0.268-0.123,0.433-0.205c0.146-0.093,0.293-0.234,0.452-0.35
		C153.066,51.938,153.229,51.745,153.421,51.573z"/>
	<path d="M156.83,50.248c0.238-0.257,0.462-0.507,0.689-0.744c0.219-0.238,0.414-0.506,0.662-0.717
		c0.221-0.24,0.426-0.503,0.666-0.731c0.226-0.248,0.443-0.532,0.711-0.782l-0.136-0.372h-4.405l-0.351,1.598h0.577
		c0.125-0.212,0.211-0.412,0.328-0.512c0.094-0.13,0.171-0.259,0.289-0.304c0.098-0.072,0.178-0.135,0.322-0.146
		c0.116-0.025,0.256-0.037,0.426-0.037h1.455c0.008,0.004-0.014,0.004,0.033,0.028c-0.283,0.3-0.615,0.625-0.951,1.016
		c-0.352,0.377-0.732,0.762-1.096,1.185c-0.379,0.412-0.796,0.803-1.156,1.261c-0.391,0.428-0.789,0.831-1.129,1.237l0.152,0.373
		h4.497l0.362-1.699v-0.002h-0.582c-0.098,0.189-0.196,0.322-0.256,0.477c-0.071,0.127-0.151,0.201-0.205,0.314
		c-0.062,0.082-0.141,0.118-0.194,0.186c-0.065,0.042-0.146,0.05-0.217,0.091c-0.079,0.019-0.187-0.004-0.278,0.03
		c-0.105,0.002-0.253,0.003-0.373,0.003h-1.395c-0.006-0.004-0.031-0.037-0.033-0.028c0.299-0.326,0.552-0.649,0.839-0.914
		C156.343,50.773,156.583,50.488,156.83,50.248z"/>
	<path d="M178.619,48.086c0.546,0.876,1.373,1.314,2.498,1.314h0.001c1.139,0,2-0.5,2.598-1.403c0.595-0.937,0.89-2.335,0.892-4.142
		c0-1.763-0.303-3.08-0.832-3.949c-0.553-0.87-1.412-1.307-2.532-1.307c-0.503,0-0.983,0.101-1.392,0.325
		c-0.425,0.218-0.809,0.542-1.092,1.002c-0.303,0.45-0.556,1.009-0.708,1.711c-0.168,0.69-0.252,1.479-0.252,2.459
		C177.8,45.881,178.066,47.181,178.619,48.086z M179.398,41.956c0.063-0.565,0.164-1.049,0.316-1.437
		c0.148-0.394,0.344-0.699,0.586-0.904c0.242-0.209,0.541-0.314,0.902-0.314c0.396,0,0.729,0.135,1.011,0.476
		c0.279,0.316,0.474,0.825,0.652,1.566c0.155,0.728,0.233,1.646,0.233,2.854c0,1.536-0.166,2.672-0.457,3.405
		c-0.305,0.732-0.785,1.099-1.4,1.099c-0.66,0-1.176-0.4-1.465-1.167c-0.314-0.779-0.473-2.023-0.471-3.667l-0.002,0.001
		C179.305,43.158,179.337,42.502,179.398,41.956z"/>
	<path d="M68.743,57.8c-0.503,0-0.983,0.101-1.391,0.325c-0.425,0.217-0.809,0.542-1.092,1.002c-0.303,0.45-0.556,1.008-0.708,1.711
		c-0.168,0.69-0.252,1.479-0.252,2.459c0,1.784,0.268,3.084,0.819,3.989c0.546,0.876,1.373,1.313,2.498,1.313h0.001
		c1.139,0,2-0.5,2.598-1.402c0.594-0.937,0.889-2.335,0.891-4.142c0-1.763-0.302-3.081-0.831-3.95
		C70.722,58.236,69.863,57.8,68.743,57.8z M70.142,66.802c-0.304,0.732-0.785,1.099-1.4,1.099c-0.66,0-1.175-0.4-1.464-1.168
		c-0.315-0.778-0.475-2.022-0.473-3.666l0,0.001c0-0.71,0.032-1.365,0.094-1.911c0.063-0.565,0.163-1.049,0.316-1.437
		c0.149-0.394,0.344-0.7,0.586-0.905c0.242-0.209,0.541-0.313,0.902-0.313c0.396,0,0.728,0.134,1.011,0.476
		c0.279,0.316,0.474,0.824,0.652,1.566c0.156,0.727,0.234,1.646,0.234,2.854C70.6,64.933,70.433,66.068,70.142,66.802z"/>
	<path d="M109.143,57.8c-0.502,0-0.982,0.101-1.391,0.325c-0.425,0.217-0.809,0.542-1.092,1.002
		c-0.303,0.45-0.557,1.008-0.708,1.711c-0.168,0.69-0.252,1.479-0.252,2.459c0,1.784,0.267,3.084,0.819,3.989
		c0.545,0.876,1.373,1.313,2.498,1.313c1.14,0,2-0.5,2.599-1.402c0.594-0.937,0.889-2.335,0.891-4.142
		c0-1.763-0.302-3.081-0.831-3.95C111.122,58.236,110.264,57.8,109.143,57.8z M110.542,66.802c-0.304,0.732-0.785,1.099-1.399,1.099
		c-0.66,0-1.176-0.4-1.465-1.168c-0.314-0.778-0.474-2.022-0.472-3.666l-0.001,0.001c0-0.71,0.031-1.365,0.094-1.911
		c0.062-0.565,0.163-1.049,0.316-1.437c0.148-0.394,0.344-0.7,0.586-0.905c0.242-0.209,0.541-0.313,0.902-0.313
		c0.396,0,0.728,0.134,1.01,0.476c0.279,0.316,0.475,0.824,0.652,1.566c0.156,0.727,0.234,1.646,0.234,2.854
		C111,64.933,110.833,66.068,110.542,66.802z"/>
	<path d="M149.143,57.8c-0.502,0-0.982,0.101-1.391,0.325c-0.425,0.217-0.809,0.542-1.092,1.002
		c-0.303,0.45-0.557,1.008-0.708,1.711c-0.168,0.69-0.252,1.479-0.252,2.459c0,1.784,0.267,3.084,0.819,3.989
		c0.545,0.876,1.373,1.313,2.498,1.313c1.14,0,2-0.5,2.599-1.402c0.594-0.937,0.889-2.335,0.891-4.142
		c0-1.763-0.302-3.081-0.831-3.95C151.122,58.236,150.264,57.8,149.143,57.8z M150.542,66.802c-0.304,0.732-0.785,1.099-1.399,1.099
		c-0.66,0-1.176-0.4-1.465-1.168c-0.314-0.778-0.474-2.022-0.472-3.666l-0.001,0.001c0-0.71,0.031-1.365,0.094-1.911
		c0.062-0.565,0.163-1.049,0.316-1.437c0.148-0.394,0.344-0.7,0.586-0.905c0.242-0.209,0.541-0.313,0.902-0.313
		c0.396,0,0.728,0.134,1.01,0.476c0.279,0.316,0.475,0.824,0.652,1.566c0.156,0.727,0.234,1.646,0.234,2.854
		C151,64.933,150.833,66.068,150.542,66.802z"/>
	<path d="M180.71,67.261c-0.062,0.159-0.164,0.272-0.288,0.37c-0.131,0.088-0.339,0.145-0.572,0.197
		c-0.25,0.044-0.666,0.068-1.25,0.104V68.5h5.805v-0.567c-0.404-0.01-0.739-0.055-0.978-0.058c-0.247-0.028-0.456-0.086-0.616-0.123
		c-0.162-0.055-0.299-0.139-0.373-0.225c-0.086-0.097-0.164-0.238-0.181-0.372c-0.034-0.153-0.054-0.405-0.052-0.679V59.86
		c0-0.878-0.001-1.565,0.047-2.062h-0.427l-3.625,2.202l0.341,0.598c0.449-0.304,0.802-0.57,1.13-0.716
		c0.304-0.172,0.515-0.267,0.705-0.259c0.14,0,0.214,0.024,0.315,0.144c0.072,0.096,0.109,0.239,0.109,0.45v6.263
		C180.801,66.842,180.768,67.081,180.71,67.261z"/>
	<polygon points="193.9,2.302 196.9,2.302 196.9,17.901 198.5,17.901 198.5,1.602 193.9,1.602 	"/>
	<polygon points="196.9,20.8 196.9,34.401 198.5,34.401 198.5,20.8 198.5,17.901 196.9,17.901 	"/>
	<polygon points="196.9,37.4 196.9,51.102 198.5,51.102 198.5,37.4 198.5,34.401 196.9,34.401 	"/>
	<polygon points="196.9,53.9 196.9,69.7 193.9,69.7 193.9,70.4 198.5,70.4 198.5,53.9 198.5,51.102 196.9,51.102 	"/>
</g>
</svg>
