<?xml version="1.0" encoding="utf-8"?>
<!-- Generator: Adobe Illustrator 15.1.0, SVG Export Plug-In . SVG Version: 6.00 Build 0)  -->
<!DOCTYPE svg PUBLIC "-//W3C//DTD SVG 1.1 Tiny//EN" "http://www.w3.org/Graphics/SVG/1.1/DTD/svg11-tiny.dtd">
<svg version="1.1" baseProfile="tiny" xmlns="http://www.w3.org/2000/svg" xmlns:xlink="http://www.w3.org/1999/xlink" x="0px"
	 y="0px" width="372.368px" height="220.471px" viewBox="0 0 372.368 220.471" overflow="inherit" xml:space="preserve">
<g id="Layer_1_copy">
	<path fill="#CCCCCC" d="M286.505,186.446c-0.021-50.915-28.16-96.854-70.088-123.062l0.005,0.002
		c-4.706,6.911-21.929,12.961-47.168,15.487l-0.001-0.003c14.248,35.295,23.818,87.332,23.838,138.247
		c49.989-5.005,84.104-16.987,93.418-30.679L286.505,186.446z"/>
</g>
<g id="Layer_1_copy_2">
	<path fill="none" stroke="#BFBFBF" d="M9.293,192.474c-26.539-21.115,12.723-44.316,87.693-51.822s157.26,3.527,183.799,24.643
		s-12.724,44.317-87.694,51.823"/>
	<path fill="none" stroke="#000000" stroke-width="2" d="M130.653,35.553c3.562-0.312,8.438-0.74,13.57-0.719
		c2.407,0.011,9.734,0.041,16.412,0.846c3.893,0.469,9.224,1.11,16.146,2.687c6.993,1.594,10.305,2.699,16.315,4.707
		c1.301,0.435,13.071,4.464,25.721,12.094c4.911,2.962,11.133,7.436,15.729,10.867c2.558,1.91,5.719,4.775,8.086,6.917
		c4.715,4.264,10.363,10.624,14.496,15.454c2.573,3.008,5.502,7.418,7.818,10.627c0.058,0.079,5.984,8.498,11.506,20.774
		c1.537,3.415,3.517,8.018,4.621,11.595c2.015,6.521,4.332,15.334,5.76,22.008c0.798,3.729,1.342,8.8,1.678,12.599
		c0.338,3.834,0.552,8.97,0.567,12.819c0.007,16.709-36.899,32.375-95.987,38.29c-74.97,7.505-157.26-3.527-183.798-24.644
		c-5.622-4.473-8.292-9.04-8.293-13.532c0.141-3.532,0.175-8.253,0.47-11.776c0.316-3.781,0.937-8.811,1.565-12.553
		c2.132-12.691,5.778-22.688,5.933-23.106c1.157-3.148,2.724-7.342,4.083-10.407c1.509-3.404,3.566-7.941,5.469-11.143
		c3.336-5.613,8.059-12.939,11.844-18.26c2.153-3.027,5.427-6.764,7.918-9.519c17.89-19.785,36.399-29.128,43.367-32.645
		C88.304,46.174,106.402,38.087,130.653,35.553"/>
</g>
<g id="Layer_5">
	<polygon fill="#3A3A3A" points="40.936,146.142 40.293,156.134 28.04,160.199 28.683,150.207 	"/>
	<polygon fill="#141414" points="28.04,160.199 2.719,154.716 3.361,144.724 28.683,150.207 	"/>
	<polygon fill="#696969" points="28.683,150.207 3.361,144.724 15.614,140.658 40.936,146.142 	"/>
</g>
<g id="Layer_3">
	<line fill="none" stroke="#808080" stroke-width="0.5" stroke-dasharray="1" x1="35.033" y1="152.73" x2="216.422" y2="63.386"/>
	<line fill="none" stroke="#808080" stroke-width="0.5" stroke-dasharray="1" x1="35.033" y1="152.73" x2="193.091" y2="217.117"/>
	<line fill="none" stroke="#808080" stroke-width="0.5" stroke-dasharray="1" x1="35.033" y1="152.73" x2="169.254" y2="78.873"/>
	<line fill="none" stroke="#808080" stroke-width="0.5" stroke-dasharray="1" x1="35.033" y1="152.73" x2="286.509" y2="186.438"/>
	<line fill="none" stroke="#000000" x1="35.033" y1="152.73" x2="347.411" y2="47.801"/>
	<line fill="none" stroke="#000000" stroke-dasharray="2" x1="103.025" y1="167.445" x2="330.411" y2="11.469"/>
	<polygon fill="#FFFFFF" stroke="#000000" points="331.118,1.13 334.097,7.167 340.759,8.135 335.938,12.834 337.077,19.469 
		331.118,16.336 325.159,19.469 326.298,12.834 321.476,8.135 328.14,7.167 	"/>
	<polygon fill="#FFFFFF" stroke="#000000" points="347.452,38.129 350.431,44.166 357.093,45.134 352.272,49.833 353.411,56.468 
		347.452,53.335 341.493,56.468 342.632,49.833 337.81,45.134 344.474,44.166 	"/>
	<polygon fill="#FFFFFF" stroke="#000000" points="207.566,86.13 211.59,88.635 215.554,87.351 215.089,91.482 219.144,95.708 
		213.8,96.23 210.715,103.484 208.38,95.843 201.993,94.356 207.557,90.625 	"/>
	<g>
		<circle fill="#B2B2B2" stroke="#000000" cx="103.025" cy="167.445" r="9"/>
		<path fill="none" stroke="#000000" d="M85.025,167.445c0,0,9-9,18-9s18,9,18,9s-9,9-18,9S85.025,167.445,85.025,167.445z"/>
		<circle cx="103.025" cy="167.445" r="4.5"/>
	</g>
</g>
<g id="Layer_6">
	<g>
		<path d="M40.235,169.092c0,0.568-0.094,1.081-0.281,1.538s-0.456,0.847-0.804,1.169s-0.776,0.571-1.283,0.747
			s-1.112,0.264-1.815,0.264H34.76v4.096c0,0.047-0.013,0.088-0.04,0.123s-0.067,0.063-0.123,0.083s-0.132,0.038-0.229,0.053
			s-0.218,0.022-0.365,0.022s-0.268-0.007-0.365-0.022s-0.174-0.032-0.233-0.053s-0.1-0.048-0.123-0.083s-0.035-0.076-0.035-0.123
			v-10.494c0-0.234,0.062-0.401,0.185-0.501s0.261-0.149,0.413-0.149h2.435c0.246,0,0.482,0.01,0.708,0.031s0.492,0.064,0.8,0.132
			s0.621,0.193,0.94,0.378s0.59,0.412,0.813,0.681s0.394,0.582,0.514,0.936S40.235,168.664,40.235,169.092z M38.645,169.215
			c0-0.463-0.086-0.85-0.259-1.16s-0.387-0.542-0.642-0.694s-0.519-0.249-0.791-0.29s-0.538-0.062-0.795-0.062H34.76v4.562h1.362
			c0.457,0,0.836-0.059,1.138-0.176s0.555-0.28,0.76-0.488s0.36-0.457,0.466-0.747S38.645,169.555,38.645,169.215z"/>
	</g>
	<g>
		<path d="M117.847,193.875c-0.023,0.064-0.056,0.117-0.097,0.158s-0.098,0.073-0.171,0.097s-0.167,0.04-0.281,0.048
			s-0.256,0.013-0.426,0.013c-0.129,0-0.242-0.001-0.338-0.004s-0.18-0.01-0.25-0.022s-0.13-0.025-0.18-0.04
			s-0.092-0.034-0.127-0.057s-0.063-0.051-0.083-0.083s-0.04-0.072-0.057-0.119l-3.718-10.564c-0.047-0.129-0.072-0.233-0.075-0.312
			s0.022-0.139,0.075-0.18s0.138-0.067,0.255-0.079s0.275-0.018,0.475-0.018c0.164,0,0.294,0.004,0.391,0.013
			s0.171,0.025,0.224,0.048s0.092,0.054,0.119,0.092s0.051,0.086,0.075,0.145l3.261,9.571h0.009l3.173-9.554
			c0.018-0.064,0.038-0.117,0.062-0.158s0.064-0.073,0.123-0.097s0.141-0.04,0.246-0.048s0.246-0.013,0.422-0.013
			c0.182,0,0.325,0.007,0.431,0.022s0.177,0.042,0.215,0.083s0.053,0.101,0.044,0.18s-0.037,0.183-0.083,0.312L117.847,193.875z"/>
	</g>
	<g>
		<path d="M220.428,116.909c0,0.047-0.012,0.088-0.035,0.123s-0.064,0.063-0.123,0.083s-0.136,0.038-0.233,0.053
			s-0.218,0.022-0.365,0.022c-0.141,0-0.261-0.007-0.36-0.022s-0.179-0.032-0.237-0.053s-0.1-0.048-0.123-0.083
			s-0.035-0.076-0.035-0.123v-10.916c0-0.047,0.013-0.088,0.04-0.123s0.07-0.063,0.132-0.083s0.141-0.038,0.237-0.053
			s0.212-0.022,0.347-0.022c0.146,0,0.268,0.007,0.365,0.022s0.174,0.032,0.233,0.053s0.1,0.048,0.123,0.083
			s0.035,0.076,0.035,0.123V116.909z"/>
	</g>
	<g>
		<path d="M355.527,14.936c0.047,0.129,0.071,0.233,0.075,0.312c0.002,0.079-0.02,0.139-0.066,0.18s-0.125,0.067-0.232,0.079
			c-0.109,0.012-0.254,0.018-0.436,0.018s-0.327-0.004-0.436-0.013s-0.19-0.023-0.246-0.044s-0.096-0.048-0.123-0.083
			c-0.025-0.035-0.051-0.079-0.074-0.132l-0.976-2.769h-4.729l-0.932,2.733c-0.018,0.053-0.041,0.098-0.07,0.136
			s-0.072,0.07-0.128,0.097s-0.135,0.045-0.236,0.057c-0.104,0.012-0.236,0.018-0.4,0.018c-0.17,0-0.31-0.007-0.418-0.022
			s-0.184-0.042-0.229-0.083c-0.043-0.041-0.064-0.101-0.061-0.18c0.002-0.079,0.027-0.183,0.074-0.312L349.7,4.362
			c0.023-0.064,0.054-0.117,0.092-0.158s0.094-0.073,0.168-0.097c0.072-0.023,0.166-0.04,0.281-0.048
			c0.113-0.009,0.259-0.013,0.435-0.013c0.188,0,0.343,0.004,0.466,0.013s0.223,0.025,0.299,0.048s0.135,0.057,0.176,0.101
			s0.073,0.098,0.097,0.163L355.527,14.936z M350.632,5.61h-0.009l-1.96,5.669h3.955L350.632,5.61z"/>
	</g>
	<g>
		<path d="M371.586,52.541c0,0.357-0.046,0.687-0.136,0.989c-0.092,0.302-0.219,0.573-0.383,0.813s-0.362,0.451-0.594,0.633
			s-0.492,0.334-0.781,0.457c-0.291,0.123-0.602,0.215-0.932,0.277c-0.332,0.062-0.711,0.092-1.139,0.092h-2.971
			c-0.135,0-0.263-0.045-0.383-0.136s-0.18-0.25-0.18-0.479V45.044c0-0.229,0.06-0.388,0.18-0.479s0.248-0.136,0.383-0.136h2.584
			c0.68,0,1.236,0.064,1.67,0.193s0.795,0.316,1.086,0.562c0.289,0.246,0.508,0.548,0.654,0.905s0.22,0.762,0.22,1.213
			c0,0.27-0.032,0.527-0.097,0.773s-0.16,0.473-0.285,0.681c-0.127,0.208-0.285,0.394-0.475,0.558
			c-0.191,0.164-0.409,0.299-0.655,0.404c0.311,0.059,0.601,0.166,0.87,0.321s0.506,0.353,0.707,0.593
			c0.203,0.24,0.362,0.521,0.479,0.844S371.586,52.154,371.586,52.541z M369.31,47.452c0-0.275-0.038-0.524-0.114-0.747
			s-0.195-0.412-0.359-0.567c-0.163-0.155-0.377-0.274-0.64-0.356c-0.264-0.082-0.611-0.123-1.044-0.123h-1.561v3.683h1.719
			c0.392,0,0.707-0.051,0.947-0.154c0.239-0.103,0.438-0.24,0.596-0.413s0.273-0.375,0.347-0.606S369.31,47.698,369.31,47.452z
			 M369.995,52.629c0-0.34-0.054-0.639-0.162-0.896s-0.267-0.475-0.474-0.65c-0.208-0.176-0.468-0.309-0.781-0.4
			c-0.312-0.091-0.706-0.136-1.18-0.136h-1.807v4.008h2.192c0.346,0,0.646-0.041,0.904-0.123c0.257-0.082,0.483-0.204,0.68-0.365
			c0.195-0.161,0.35-0.362,0.46-0.602C369.939,53.224,369.995,52.945,369.995,52.629z"/>
	</g>
</g>
</svg>
