<?xml version="1.0" encoding="utf-8"?>
<!-- Generator: Adobe Illustrator 15.1.0, SVG Export Plug-In . SVG Version: 6.00 Build 0)  -->
<!DOCTYPE svg PUBLIC "-//W3C//DTD SVG 1.1 Tiny//EN" "http://www.w3.org/Graphics/SVG/1.1/DTD/svg11-tiny.dtd">
<svg version="1.1" baseProfile="tiny" id="Layer_1" xmlns="http://www.w3.org/2000/svg" xmlns:xlink="http://www.w3.org/1999/xlink"
	 x="0px" y="0px" width="287.5px" height="287.5px" viewBox="0 0 287.5 287.5" overflow="inherit" xml:space="preserve">
<line fill="none" stroke="#C7C8CA" x1="57.801" y1="0.5" x2="57.8" y2="229.699"/>
<line fill="none" stroke="#C7C8CA" x1="57.8" y1="229.699" x2="0.5" y2="287"/>
<line fill="none" stroke="#C7C8CA" x1="57.8" y1="229.699" x2="287" y2="229.699"/>
<line fill="none" stroke="#000000" x1="229.699" y1="287" x2="287" y2="229.699"/>
<line fill="none" stroke="#000000" x1="287" y1="229.699" x2="287" y2="0.5"/>
<line fill="none" stroke="#000000" x1="0.5" y1="57.801" x2="57.801" y2="0.5"/>
<line fill="none" stroke="#000000" x1="57.801" y1="0.5" x2="287" y2="0.5"/>
<line fill="none" stroke="#000000" x1="0.5" y1="57.801" x2="0.5" y2="287"/>
<line fill="none" stroke="#000000" x1="0.5" y1="287" x2="229.699" y2="287"/>
<line fill="none" stroke="#C7C8CA" x1="57.8" y1="115.101" x2="0.5" y2="172.4"/>
<line fill="none" stroke="#C7C8CA" x1="57.8" y1="115.101" x2="287" y2="115.101"/>
<line fill="none" stroke="#000000" x1="229.699" y1="172.4" x2="287" y2="115.101"/>
<line fill="none" stroke="#000000" x1="0.5" y1="172.4" x2="229.699" y2="172.4"/>
<path fill="#FFFFFF" d="M258.351,143.75c0-63.343-51.258-114.6-114.601-114.6S29.149,80.407,29.149,143.75"/>
<path fill="#FFFFFF" stroke="#C7C8CA" d="M29.149,143.75c15.824-15.822,79.96-28.649,143.252-28.649s101.771,12.827,85.949,28.649"
	/>
<path fill="#FFFFFF" stroke="#000000" stroke-width="2" d="M258.351,143.75c-15.824,15.822-79.96,28.65-143.252,28.65
	s-101.771-12.828-85.949-28.65"/>
<line fill="none" stroke="#C7C8CA" x1="29.149" y1="143.75" x2="258.351" y2="143.75"/>
<path fill="none" stroke="#C7C8CA" d="M172.399,115.101c0-47.508-12.812-85.95-28.649-85.95"/>
<path fill="none" stroke="#000000" stroke-width="2" d="M258.351,143.75c0-63.343-51.258-114.6-114.601-114.6
	S29.149,80.407,29.149,143.75"/>
<line fill="none" stroke="#C7C8CA" x1="172.401" y1="115.101" x2="115.099" y2="172.4"/>
<path fill="none" stroke="#000000" d="M115.101,172.4c0-79.18,12.812-143.25,28.649-143.25"/>
<line fill="none" stroke="#000000" x1="287" y1="0.5" x2="229.699" y2="57.801"/>
<line fill="none" stroke="#000000" x1="229.699" y1="57.801" x2="229.699" y2="287"/>
<line fill="none" stroke="#000000" x1="229.699" y1="57.801" x2="0.5" y2="57.801"/>
<g>
	<path d="M143.75,147.25c4.514,0,4.514-7,0-7S139.236,147.25,143.75,147.25L143.75,147.25z"/>
</g>
</svg>
