<?xml version="1.0" encoding="utf-8"?>
<!-- Generator: Adobe Illustrator 15.1.0, SVG Export Plug-In . SVG Version: 6.00 Build 0)  -->
<!DOCTYPE svg PUBLIC "-//W3C//DTD SVG 1.1 Tiny//EN" "http://www.w3.org/Graphics/SVG/1.1/DTD/svg11-tiny.dtd">
<svg version="1.1" baseProfile="tiny" id="Layer_1" xmlns="http://www.w3.org/2000/svg" xmlns:xlink="http://www.w3.org/1999/xlink"
	 x="0px" y="0px" width="447.25px" height="131.698px" viewBox="0 0 447.25 131.698" overflow="inherit" xml:space="preserve">
<g>
	<path fill="#E6E6E6" stroke="#000000" d="M350.852,11.931c0,0,0.969,76.219,46.506,116.267
		c-10.012-66.531,21.963-90.107,46.508-93.014C417.059-25.533,350.852,11.931,350.852,11.931z"/>
	<g>
		<path fill="none" d="M397.357,128.198"/>
		<path d="M397.357,131.698c4.514,0,4.514-7,0-7S392.844,131.698,397.357,131.698L397.357,131.698z"/>
	</g>
	<g>
		<path fill="none" d="M350.852,11.931"/>
		<path d="M350.852,15.431c4.514,0,4.514-7,0-7S346.338,15.431,350.852,15.431L350.852,15.431z"/>
	</g>
	<g>
		<path fill="none" d="M443.865,35.184"/>
		<path d="M443.865,38.684c4.514,0,4.514-7,0-7S439.352,38.684,443.865,38.684L443.865,38.684z"/>
	</g>
</g>
<g>
	<path fill="none" stroke="#ED1F24" d="M119.208,11.931c0,0,0.969,76.219,46.507,116.267
		c-10.012-66.531,21.961-90.107,46.507-93.014C185.415-25.533,119.208,11.931,119.208,11.931z"/>
	<polygon fill="#E6E6E6" stroke="#000000" stroke-linejoin="round" points="130.84,73.388 119.208,11.931 165.033,0.571 	"/>
	<polygon fill="#E6E6E6" stroke="#000000" stroke-linejoin="round" points="130.84,73.388 165.033,0.571 170.264,68.55 	"/>
	<polygon fill="#E6E6E6" stroke="#000000" stroke-linejoin="round" points="170.264,68.55 165.715,128.198 130.84,73.388 	"/>
	<polygon fill="#E6E6E6" stroke="#000000" stroke-linejoin="round" points="165.033,0.571 212.222,35.184 170.264,68.55 	"/>
	<g>
		<path fill="none" d="M119.208,11.931"/>
		<path d="M119.208,15.431c4.514,0,4.514-7,0-7S114.694,15.431,119.208,15.431L119.208,15.431z"/>
	</g>
	<g>
		<path fill="none" d="M212.222,35.184"/>
		<path d="M212.222,38.684c4.514,0,4.514-7,0-7S207.708,38.684,212.222,38.684L212.222,38.684z"/>
	</g>
	<g>
		<path fill="none" d="M165.715,128.198"/>
		<path d="M165.715,131.698c4.514,0,4.514-7,0-7S161.201,131.698,165.715,131.698L165.715,131.698z"/>
	</g>
</g>
<g>
	<path fill="none" stroke="#ED1F24" d="M235.03,11.931c0,0,0.969,76.219,46.507,116.267c-10.013-66.531,21.961-90.107,46.506-93.014
		C301.237-25.533,235.03,11.931,235.03,11.931z"/>
	<polygon fill="#E6E6E6" stroke="#000000" stroke-linejoin="round" points="263.758,36.98 246.662,73.388 238.736,43.746 	"/>
	<polygon fill="#E6E6E6" stroke="#000000" stroke-linejoin="round" points="257.942,3.138 280.855,0.571 263.758,36.98 	"/>
	<polygon fill="#E6E6E6" stroke="#000000" stroke-linejoin="round" points="238.736,43.746 235.03,11.931 257.942,3.138 	"/>
	<polygon fill="#E6E6E6" stroke="#000000" stroke-linejoin="round" points="266.374,70.97 246.662,73.388 263.758,36.98 	"/>
	<polygon fill="#E6E6E6" stroke="#000000" stroke-linejoin="round" points="283.471,34.561 286.086,68.55 266.374,70.97 	"/>
	<polygon fill="#E6E6E6" stroke="#000000" stroke-linejoin="round" points="263.758,36.98 280.855,0.571 283.471,34.561 	"/>
	<polygon fill="#E6E6E6" stroke="#000000" stroke-linejoin="round" points="266.374,70.97 286.086,68.55 279.855,97.412 	"/>
	<polygon fill="#E6E6E6" stroke="#000000" stroke-linejoin="round" points="261.087,103.806 246.662,73.388 266.374,70.97 	"/>
	<polygon fill="#E6E6E6" stroke="#000000" stroke-linejoin="round" points="279.855,97.412 281.537,128.198 261.087,103.806 	"/>
	<polygon fill="#E6E6E6" stroke="#000000" stroke-linejoin="round" points="283.471,34.561 280.855,0.571 310.807,11.519 	"/>
	<polygon fill="#E6E6E6" stroke="#000000" stroke-linejoin="round" points="301.837,46.639 286.086,68.55 283.471,34.561 	"/>
	<polygon fill="#E6E6E6" stroke="#000000" stroke-linejoin="round" points="310.807,11.519 328.043,35.184 301.837,46.639 	"/>
	<polygon fill="#E6E6E6" stroke="#000000" stroke-linejoin="round" points="238.736,43.746 257.942,3.138 263.758,36.98 	"/>
	<polygon fill="#E6E6E6" stroke="#000000" stroke-linejoin="round" points="283.471,34.561 310.807,11.519 301.837,46.639 	"/>
	<polygon fill="#E6E6E6" stroke="#000000" stroke-linejoin="round" points="263.758,36.98 283.471,34.561 266.374,70.97 	"/>
	<polygon fill="#E6E6E6" stroke="#000000" stroke-linejoin="round" points="266.374,70.97 279.855,97.412 261.087,103.806 	"/>
	<g>
		<path fill="none" d="M235.03,11.931"/>
		<path d="M235.03,15.431c4.514,0,4.514-7,0-7S230.517,15.431,235.03,15.431L235.03,15.431z"/>
	</g>
	<g>
		<path fill="none" d="M328.043,35.184"/>
		<path d="M328.043,38.684c4.514,0,4.514-7,0-7S323.529,38.684,328.043,38.684L328.043,38.684z"/>
	</g>
	<g>
		<path fill="none" d="M281.537,128.198"/>
		<path d="M281.537,131.698c4.514,0,4.514-7,0-7S277.023,131.698,281.537,131.698L281.537,131.698z"/>
	</g>
</g>
<g>
	<polygon fill="#E6E6E6" stroke="#000000" points="3.386,11.931 49.893,128.198 96.399,35.184 	"/>
	<g>
		<path fill="none" d="M96.399,35.184"/>
		<path d="M96.399,38.684c4.514,0,4.514-7,0-7S91.886,38.684,96.399,38.684L96.399,38.684z"/>
	</g>
	<g>
		<path fill="none" d="M49.893,128.198"/>
		<path d="M49.893,131.698c4.514,0,4.514-7,0-7S45.379,131.698,49.893,131.698L49.893,131.698z"/>
	</g>
	<g>
		<path fill="none" d="M3.386,11.931"/>
		<path d="M3.386,15.431c4.514,0,4.514-7,0-7S-1.128,15.431,3.386,15.431L3.386,15.431z"/>
	</g>
</g>
</svg>
