<?xml version="1.0" encoding="utf-8"?>
<!-- Generator: Adobe Illustrator 15.1.0, SVG Export Plug-In . SVG Version: 6.00 Build 0)  -->
<!DOCTYPE svg PUBLIC "-//W3C//DTD SVG 1.1 Tiny//EN" "http://www.w3.org/Graphics/SVG/1.1/DTD/svg11-tiny.dtd">
<svg version="1.1" baseProfile="tiny" id="Layer_1" xmlns="http://www.w3.org/2000/svg" xmlns:xlink="http://www.w3.org/1999/xlink"
	 x="0px" y="0px" width="425.276px" height="175.557px" viewBox="0 0 425.276 175.557" overflow="inherit" xml:space="preserve">
<polygon fill="none" stroke="#939598" stroke-width="0.5" points="214.081,3.5 150.873,108.848 277.29,172.057 "/>
<polygon fill="none" stroke="#000000" stroke-width="0.5" points="66.594,3.5 3.385,108.848 129.803,172.057 "/>
<g>
	<rect x="150.873" y="87.779" fill="none" stroke="#000000" stroke-width="0.5" width="21.069" height="21.068"/>
	<rect x="150.873" y="108.848" fill="none" stroke="#000000" stroke-width="0.5" width="21.069" height="21.07"/>
	<rect x="171.942" y="87.779" fill="none" stroke="#000000" stroke-width="0.5" width="21.069" height="21.068"/>
	<rect x="193.011" y="87.779" fill="none" stroke="#000000" stroke-width="0.5" width="21.069" height="21.068"/>
	<rect x="214.081" y="87.779" fill="none" stroke="#000000" stroke-width="0.5" width="21.069" height="21.068"/>
	<rect x="171.942" y="66.709" fill="none" stroke="#000000" stroke-width="0.5" width="21.069" height="21.07"/>
	<rect x="150.873" y="66.709" fill="none" stroke="#000000" stroke-width="0.5" width="21.069" height="21.07"/>
	<rect x="193.011" y="66.709" fill="none" stroke="#000000" stroke-width="0.5" width="21.069" height="21.07"/>
	<rect x="214.081" y="66.709" fill="none" stroke="#000000" stroke-width="0.5" width="21.069" height="21.07"/>
	<rect x="235.15" y="66.709" fill="none" stroke="#000000" stroke-width="0.5" width="21.07" height="21.07"/>
	<rect x="171.942" y="45.64" fill="none" stroke="#000000" stroke-width="0.5" width="21.069" height="21.069"/>
	<rect x="193.011" y="45.64" fill="none" stroke="#000000" stroke-width="0.5" width="21.069" height="21.069"/>
	<rect x="214.081" y="45.64" fill="none" stroke="#000000" stroke-width="0.5" width="21.069" height="21.069"/>
	<rect x="193.011" y="24.57" fill="none" stroke="#000000" stroke-width="0.5" width="21.069" height="21.069"/>
	<rect x="193.011" y="3.5" fill="none" stroke="#000000" stroke-width="0.5" width="21.069" height="21.07"/>
	<rect x="214.081" y="3.5" fill="none" stroke="#000000" stroke-width="0.5" width="21.069" height="21.07"/>
	<rect x="214.081" y="24.57" fill="none" stroke="#000000" stroke-width="0.5" width="21.069" height="21.069"/>
	<rect x="235.15" y="87.779" fill="none" stroke="#000000" stroke-width="0.5" width="21.07" height="21.068"/>
	<rect x="171.942" y="108.848" fill="none" stroke="#000000" stroke-width="0.5" width="21.069" height="21.07"/>
	<rect x="193.011" y="108.848" fill="none" stroke="#000000" stroke-width="0.5" width="21.069" height="21.07"/>
	<rect x="214.081" y="108.848" fill="none" stroke="#000000" stroke-width="0.5" width="21.069" height="21.07"/>
	<rect x="235.15" y="108.848" fill="none" stroke="#000000" stroke-width="0.5" width="21.07" height="21.07"/>
	<rect x="256.22" y="108.848" fill="none" stroke="#000000" stroke-width="0.5" width="21.069" height="21.07"/>
	<rect x="193.011" y="129.918" fill="none" stroke="#000000" stroke-width="0.5" width="21.069" height="21.069"/>
	<rect x="214.081" y="129.918" fill="none" stroke="#000000" stroke-width="0.5" width="21.069" height="21.069"/>
	<rect x="235.15" y="129.918" fill="none" stroke="#000000" stroke-width="0.5" width="21.07" height="21.069"/>
	<rect x="256.22" y="129.918" fill="none" stroke="#000000" stroke-width="0.5" width="21.069" height="21.069"/>
	<rect x="256.22" y="150.987" fill="none" stroke="#000000" stroke-width="0.5" width="21.069" height="21.069"/>
	<rect x="235.15" y="150.987" fill="none" stroke="#000000" stroke-width="0.5" width="21.07" height="21.069"/>
</g>
<g>
	<rect x="298.359" y="87.779" fill="#202020" stroke="#FFFFFF" width="21.069" height="21.068"/>
	<rect x="298.359" y="108.848" fill="#535353" stroke="#FFFFFF" width="21.069" height="21.07"/>
	<rect x="319.428" y="87.779" fill="#202020" stroke="#FFFFFF" width="21.069" height="21.068"/>
	<rect x="340.498" y="87.779" fill="#969696" stroke="#FFFFFF" width="21.07" height="21.068"/>
	<rect x="361.568" y="87.779" fill="#969696" stroke="#FFFFFF" width="21.068" height="21.068"/>
	<rect x="319.428" y="66.709" fill="#969696" stroke="#FFFFFF" width="21.069" height="21.07"/>
	<rect x="298.359" y="66.709" fill="#202020" stroke="#FFFFFF" width="21.069" height="21.07"/>
	<rect x="340.498" y="66.709" fill="#969696" stroke="#FFFFFF" width="21.07" height="21.07"/>
	<rect x="361.568" y="66.709" fill="#BABABA" stroke="#FFFFFF" width="21.068" height="21.07"/>
	<rect x="382.636" y="66.709" fill="#BABABA" stroke="#FFFFFF" width="21.07" height="21.07"/>
	<rect x="319.428" y="45.64" fill="#BABABA" stroke="#FFFFFF" width="21.069" height="21.069"/>
	<rect x="340.498" y="45.64" fill="#BABABA" stroke="#FFFFFF" width="21.07" height="21.069"/>
	<rect x="361.568" y="45.64" fill="#BABABA" stroke="#FFFFFF" width="21.068" height="21.069"/>
	<rect x="340.498" y="24.57" fill="#BABABA" stroke="#FFFFFF" width="21.07" height="21.069"/>
	<rect x="340.498" y="3.5" fill="#D4D4D4" stroke="#FFFFFF" width="21.07" height="21.07"/>
	<rect x="361.568" y="3.5" fill="#D4D4D4" stroke="#FFFFFF" width="21.068" height="21.07"/>
	<rect x="361.568" y="24.57" fill="#D4D4D4" stroke="#FFFFFF" width="21.068" height="21.069"/>
	<rect x="382.636" y="87.779" fill="#BABABA" stroke="#FFFFFF" width="21.07" height="21.068"/>
	<rect x="319.428" y="108.848" fill="#535353" stroke="#FFFFFF" width="21.069" height="21.07"/>
	<rect x="340.498" y="108.848" fill="#202020" stroke="#FFFFFF" width="21.07" height="21.07"/>
	<rect x="361.568" y="108.848" fill="#202020" stroke="#FFFFFF" width="21.068" height="21.07"/>
	<rect x="382.636" y="108.848" fill="#969696" stroke="#FFFFFF" width="21.07" height="21.07"/>
	<rect x="403.707" y="108.848" fill="#969696" stroke="#FFFFFF" width="21.069" height="21.07"/>
	<rect x="340.498" y="129.918" fill="#535353" stroke="#FFFFFF" width="21.07" height="21.069"/>
	<rect x="361.568" y="129.918" fill="#535353" stroke="#FFFFFF" width="21.068" height="21.069"/>
	<rect x="382.636" y="129.918" fill="#202020" stroke="#FFFFFF" width="21.07" height="21.069"/>
	<rect x="403.707" y="129.918" fill="#202020" stroke="#FFFFFF" width="21.069" height="21.069"/>
	<rect x="403.707" y="150.987" fill="#535353" stroke="#FFFFFF" width="21.069" height="21.069"/>
	<rect x="382.636" y="150.987" fill="#535353" stroke="#FFFFFF" width="21.07" height="21.069"/>
</g>
<g>
	<path fill="none" d="M66.594,3.5"/>
	<path d="M66.594,7c4.514,0,4.514-7,0-7S62.081,7,66.594,7L66.594,7z"/>
</g>
<g>
	<path fill="none" d="M3.385,108.848"/>
	<path d="M3.385,112.348c4.514,0,4.514-7,0-7S-1.128,112.348,3.385,112.348L3.385,112.348z"/>
</g>
<g>
	<path fill="none" d="M129.803,172.057"/>
	<path d="M129.803,175.557c4.514,0,4.514-7,0-7S125.29,175.557,129.803,175.557L129.803,175.557z"/>
</g>
</svg>
