<?xml version="1.0" encoding="utf-8"?>
<!-- Generator: Adobe Illustrator 15.1.0, SVG Export Plug-In . SVG Version: 6.00 Build 0)  -->
<!DOCTYPE svg PUBLIC "-//W3C//DTD SVG 1.1 Tiny//EN" "http://www.w3.org/Graphics/SVG/1.1/DTD/svg11-tiny.dtd">
<svg version="1.1" baseProfile="tiny" id="Layer_1" xmlns="http://www.w3.org/2000/svg" xmlns:xlink="http://www.w3.org/1999/xlink"
	 x="0px" y="0px" width="454.118px" height="164.798px" viewBox="0 0 454.118 164.798" overflow="inherit" xml:space="preserve">
<g display="none">
	<path display="inline" fill="none" stroke="#ED1F24" d="M242.086,3.747c45.316,22.839,98.781,22.839,144.097,0
		c21.518,42.691,43.033,85.384,64.55,128.075c-85.915,43.302-187.281,43.302-273.195,0C199.054,89.131,220.571,46.438,242.086,3.747
		z"/>
	<path display="inline" fill="none" stroke="#ED1F24" d="M199.065,89.109c72.375,36.478,157.766,36.478,230.141,0"/>
	<path display="inline" fill="none" stroke="#ED1F24" d="M220.56,46.459c58.855,29.664,128.294,29.664,187.15,0"/>
	<path display="inline" fill="none" stroke="#ED1F24" d="M338.767,18.971c7.355,47.238,14.712,94.477,22.067,141.716"/>
	<path display="inline" fill="none" stroke="#ED1F24" d="M289.504,18.971c-7.357,47.238-14.713,94.477-22.068,141.716"/>
</g>
<g>
	<rect x="3.385" y="3.5" fill="none" stroke="#000000" width="143.423" height="143.423"/>
	<line fill="none" stroke="#000000" x1="3.385" y1="99.092" x2="146.808" y2="99.092"/>
	<line fill="none" stroke="#000000" x1="3.385" y1="51.33" x2="146.808" y2="51.33"/>
	<line fill="none" stroke="#000000" x1="99.012" y1="3.5" x2="99.012" y2="146.923"/>
	<line fill="none" stroke="#000000" x1="51.181" y1="3.5" x2="51.181" y2="146.923"/>
</g>
<g>
	<polyline fill="none" stroke="#000000" points="386.183,3.747 338.767,18.971 289.504,18.971 242.086,3.747 	"/>
	<polyline fill="none" stroke="#000000" points="220.56,46.459 282.144,66.229 346.131,66.229 407.71,46.459 	"/>
	<polyline fill="none" stroke="#000000" points="429.206,89.109 353.48,113.422 274.795,113.422 199.065,89.109 	"/>
	<polyline fill="none" stroke="#000000" points="177.538,131.822 267.436,160.687 360.834,160.687 450.733,131.822 	"/>
	<polyline fill="none" stroke="#000000" points="242.086,3.747 220.56,46.459 199.065,89.109 177.538,131.822 	"/>
	<polyline fill="none" stroke="#000000" points="289.504,18.971 282.144,66.229 274.795,113.422 267.436,160.687 	"/>
	<polyline fill="none" stroke="#000000" points="338.767,18.971 346.131,66.229 353.48,113.422 360.834,160.687 	"/>
	<polyline fill="none" stroke="#000000" points="386.183,3.747 407.71,46.459 429.206,89.109 450.733,131.822 	"/>
</g>
<g>
	<path d="M3.385,7c4.514,0,4.514-7,0-7S-1.128,7,3.385,7L3.385,7z"/>
</g>
<g>
	<path d="M51.181,7c4.514,0,4.514-7,0-7S46.667,7,51.181,7L51.181,7z"/>
</g>
<g>
	<path d="M99.012,7c4.514,0,4.514-7,0-7S94.499,7,99.012,7L99.012,7z"/>
</g>
<g>
	<path d="M146.808,7c4.514,0,4.514-7,0-7S142.294,7,146.808,7L146.808,7z"/>
</g>
<g>
	<path d="M146.808,54.83c4.514,0,4.514-7,0-7S142.294,54.83,146.808,54.83L146.808,54.83z"/>
</g>
<g>
	<path d="M99.012,54.83c4.514,0,4.514-7,0-7S94.499,54.83,99.012,54.83L99.012,54.83z"/>
</g>
<g>
	<path d="M51.181,54.83c4.514,0,4.514-7,0-7S46.667,54.83,51.181,54.83L51.181,54.83z"/>
</g>
<g>
	<path d="M3.385,54.83c4.514,0,4.514-7,0-7S-1.128,54.83,3.385,54.83L3.385,54.83z"/>
</g>
<g>
	<path d="M3.385,102.592c4.514,0,4.514-7,0-7S-1.128,102.592,3.385,102.592L3.385,102.592z"/>
</g>
<g>
	<path d="M51.181,102.592c4.514,0,4.514-7,0-7S46.667,102.592,51.181,102.592L51.181,102.592z"/>
</g>
<g>
	<path d="M99.012,102.592c4.514,0,4.514-7,0-7S94.499,102.592,99.012,102.592L99.012,102.592z"/>
</g>
<g>
	<path d="M146.808,102.592c4.514,0,4.514-7,0-7S142.294,102.592,146.808,102.592L146.808,102.592z"/>
</g>
<g>
	<path d="M146.808,150.423c4.514,0,4.514-7,0-7S142.294,150.423,146.808,150.423L146.808,150.423z"/>
</g>
<g>
	<path d="M99.012,150.423c4.514,0,4.514-7,0-7S94.499,150.423,99.012,150.423L99.012,150.423z"/>
</g>
<g>
	<path d="M51.181,150.423c4.514,0,4.514-7,0-7S46.667,150.423,51.181,150.423L51.181,150.423z"/>
</g>
<g>
	<path d="M3.385,150.423c4.514,0,4.514-7,0-7S-1.128,150.423,3.385,150.423L3.385,150.423z"/>
</g>
<g>
	<path d="M242.086,7.247c4.514,0,4.514-7,0-7S237.573,7.247,242.086,7.247L242.086,7.247z"/>
</g>
<g>
	<path d="M220.56,49.959c4.514,0,4.514-7,0-7S216.046,49.959,220.56,49.959L220.56,49.959z"/>
</g>
<g>
	<path d="M199.065,92.609c4.514,0,4.514-7,0-7S194.551,92.609,199.065,92.609L199.065,92.609z"/>
</g>
<g>
	<path d="M177.538,135.322c4.514,0,4.514-7,0-7S173.024,135.322,177.538,135.322L177.538,135.322z"/>
</g>
<g>
	<path d="M289.504,22.471c4.514,0,4.514-7,0-7S284.991,22.471,289.504,22.471L289.504,22.471z"/>
</g>
<g>
	<path d="M282.144,69.729c4.514,0,4.514-7,0-7S277.63,69.729,282.144,69.729L282.144,69.729z"/>
</g>
<g>
	<path d="M274.795,116.922c4.514,0,4.514-7,0-7S270.282,116.922,274.795,116.922L274.795,116.922z"/>
</g>
<g>
	<path d="M267.436,164.187c4.514,0,4.514-7,0-7S262.922,164.187,267.436,164.187L267.436,164.187z"/>
</g>
<g>
	<path d="M338.767,22.471c4.514,0,4.514-7,0-7S334.253,22.471,338.767,22.471L338.767,22.471z"/>
</g>
<g>
	<path d="M346.131,69.729c4.514,0,4.514-7,0-7S341.618,69.729,346.131,69.729L346.131,69.729z"/>
</g>
<g>
	<path d="M353.48,116.922c4.514,0,4.514-7,0-7S348.966,116.922,353.48,116.922L353.48,116.922z"/>
</g>
<g>
	<path d="M360.834,164.187c4.514,0,4.514-7,0-7S356.321,164.187,360.834,164.187L360.834,164.187z"/>
</g>
<g>
	<path d="M386.183,7.247c4.514,0,4.514-7,0-7S381.669,7.247,386.183,7.247L386.183,7.247z"/>
</g>
<g>
	<path d="M407.71,49.959c4.514,0,4.514-7,0-7S403.197,49.959,407.71,49.959L407.71,49.959z"/>
</g>
<g>
	<path d="M429.206,92.609c4.514,0,4.514-7,0-7S424.692,92.609,429.206,92.609L429.206,92.609z"/>
</g>
<g>
	<path d="M450.733,135.322c4.514,0,4.514-7,0-7S446.219,135.322,450.733,135.322L450.733,135.322z"/>
</g>
</svg>
