<?xml version="1.0" encoding="utf-8"?>
<!-- Generator: Adobe Illustrator 15.1.0, SVG Export Plug-In . SVG Version: 6.00 Build 0)  -->
<!DOCTYPE svg PUBLIC "-//W3C//DTD SVG 1.1 Tiny//EN" "http://www.w3.org/Graphics/SVG/1.1/DTD/svg11-tiny.dtd">
<svg version="1.1" baseProfile="tiny" id="Layer_1" xmlns="http://www.w3.org/2000/svg" xmlns:xlink="http://www.w3.org/1999/xlink"
	 x="0px" y="0px" width="138px" height="71px" viewBox="0 0 138 71" overflow="inherit" xml:space="preserve">
<g>
	<path fill="none" d="M119.549,26.901c-0.229,0-0.41,0.046-0.595,0.139c-0.203,0.08-0.356,0.221-0.511,0.384
		c-0.168,0.155-0.293,0.355-0.416,0.578c-0.131,0.221-0.227,0.461-0.312,0.717c-0.091,0.25-0.151,0.523-0.196,0.803
		c-0.052,0.271-0.067,0.556-0.067,0.834c-0.017,0.407,0.089,0.739,0.269,0.941c0.174,0.17,0.453,0.303,0.819,0.303
		c0.19,0,0.397-0.049,0.578-0.146c0.175-0.116,0.347-0.232,0.498-0.398c0.146-0.185,0.286-0.361,0.405-0.586
		c0.112-0.248,0.221-0.465,0.303-0.72c0.074-0.272,0.146-0.521,0.189-0.792c0.038-0.291,0.065-0.539,0.065-0.798
		c-0.026-0.433-0.084-0.726-0.25-0.938C120.154,27.001,119.902,26.901,119.549,26.901z"/>
	<path fill="none" d="M28.876,66.803c0.196-0.122,0.383-0.264,0.488-0.43c0.083-0.19,0.156-0.347,0.156-0.545
		c-0.006-0.238-0.059-0.406-0.177-0.534c-0.131-0.16-0.287-0.194-0.509-0.194c-0.218,0-0.412,0.051-0.614,0.148
		c-0.209,0.083-0.393,0.24-0.573,0.422c-0.195,0.159-0.342,0.403-0.489,0.662c-0.166,0.248-0.27,0.548-0.369,0.867L26.788,67.2
		c0.451-0.004,0.893-0.041,1.238-0.111C28.364,66.99,28.655,66.924,28.876,66.803z"/>
	<path fill="none" d="M120.454,65.24c-0.203,0.08-0.356,0.221-0.511,0.384c-0.168,0.155-0.293,0.354-0.416,0.578
		c-0.131,0.221-0.227,0.461-0.312,0.717c-0.091,0.25-0.151,0.523-0.196,0.802c-0.052,0.271-0.067,0.557-0.067,0.834
		c-0.017,0.408,0.089,0.74,0.269,0.942c0.174,0.17,0.453,0.303,0.819,0.303c0.19,0,0.397-0.049,0.578-0.146
		c0.175-0.116,0.347-0.232,0.498-0.398c0.146-0.185,0.286-0.362,0.405-0.586c0.112-0.248,0.221-0.465,0.303-0.72
		c0.074-0.272,0.146-0.521,0.189-0.792c0.038-0.291,0.065-0.539,0.065-0.798c-0.026-0.433-0.084-0.726-0.25-0.938
		c-0.175-0.22-0.427-0.319-0.78-0.319C120.82,65.102,120.639,65.146,120.454,65.24z"/>
	<path fill="none" d="M119.35,7.701c-0.229,0-0.41,0.046-0.596,0.139c-0.203,0.08-0.355,0.221-0.511,0.384
		c-0.168,0.155-0.293,0.355-0.416,0.578c-0.132,0.222-0.226,0.461-0.312,0.718c-0.091,0.25-0.15,0.522-0.197,0.802
		c-0.051,0.271-0.066,0.556-0.066,0.834c-0.018,0.407,0.089,0.739,0.27,0.941c0.172,0.171,0.453,0.304,0.818,0.304
		c0.191,0,0.396-0.049,0.578-0.147c0.175-0.116,0.348-0.231,0.498-0.397c0.146-0.186,0.286-0.362,0.404-0.586
		c0.113-0.248,0.222-0.466,0.304-0.721c0.075-0.271,0.146-0.52,0.188-0.792c0.039-0.291,0.066-0.539,0.066-0.798
		c-0.025-0.432-0.084-0.725-0.25-0.938C119.954,7.801,119.703,7.701,119.35,7.701z"/>
	<path fill="none" d="M117.939,50.7c0.191,0,0.397-0.049,0.578-0.147c0.176-0.115,0.348-0.231,0.498-0.397
		c0.146-0.186,0.286-0.362,0.405-0.586c0.113-0.248,0.222-0.466,0.304-0.721c0.074-0.271,0.146-0.52,0.188-0.792
		c0.039-0.291,0.065-0.539,0.065-0.798c-0.025-0.432-0.084-0.725-0.25-0.938c-0.174-0.22-0.426-0.32-0.779-0.32
		c-0.229,0-0.41,0.046-0.596,0.139c-0.203,0.08-0.355,0.222-0.511,0.384c-0.168,0.155-0.293,0.355-0.416,0.578
		c-0.131,0.222-0.226,0.461-0.311,0.718c-0.091,0.25-0.151,0.522-0.197,0.802c-0.051,0.271-0.067,0.556-0.067,0.834
		c-0.017,0.408,0.09,0.74,0.27,0.941C117.294,50.567,117.574,50.7,117.939,50.7z"/>
	<path fill="none" d="M26.876,47.703c0.196-0.122,0.383-0.264,0.488-0.43c0.083-0.19,0.156-0.348,0.156-0.545
		c-0.006-0.238-0.059-0.406-0.177-0.534C27.212,46.034,27.056,46,26.834,46c-0.218,0-0.412,0.05-0.614,0.148
		c-0.209,0.082-0.393,0.239-0.573,0.422c-0.195,0.158-0.342,0.402-0.489,0.662c-0.166,0.248-0.27,0.548-0.369,0.866L24.788,48.1
		c0.451-0.004,0.893-0.041,1.238-0.11C26.364,47.89,26.655,47.824,26.876,47.703z"/>
	<path fill="none" d="M27.234,7.7c-0.218,0-0.412,0.05-0.614,0.147c-0.209,0.083-0.393,0.24-0.573,0.422
		c-0.195,0.159-0.342,0.403-0.489,0.662c-0.166,0.248-0.27,0.549-0.369,0.867L25.188,9.8c0.451-0.004,0.893-0.041,1.238-0.11
		c0.338-0.1,0.629-0.166,0.85-0.286c0.195-0.122,0.383-0.265,0.488-0.431c0.083-0.189,0.156-0.347,0.156-0.545
		c-0.006-0.238-0.059-0.406-0.177-0.533C27.612,7.734,27.456,7.7,27.234,7.7z"/>
	<path fill="none" d="M27.434,26.9c-0.218,0-0.412,0.05-0.614,0.147c-0.209,0.083-0.393,0.24-0.573,0.422
		c-0.195,0.159-0.342,0.403-0.489,0.662c-0.166,0.248-0.27,0.548-0.369,0.867L25.388,29c0.451-0.004,0.893-0.041,1.238-0.111
		c0.338-0.099,0.629-0.165,0.85-0.285c0.196-0.123,0.383-0.265,0.488-0.431c0.083-0.19,0.156-0.347,0.156-0.545
		c-0.006-0.238-0.059-0.406-0.177-0.534C27.812,26.934,27.656,26.9,27.434,26.9z"/>
	<polygon points="1.7,0.902 4.8,0.902 4.8,0.202 0.1,0.202 0.1,16.502 1.7,16.502 	"/>
	<polygon points="1.7,19.4 1.7,16.502 0.1,16.502 0.07,16.502 0.07,33.002 1.7,33.002 	"/>
	<polygon points="1.7,49.702 1.7,36 1.7,33.002 0.07,33.002 0.07,36 0.07,52.5 0.1,52.5 0.1,49.702 	"/>
	<polygon points="1.7,49.702 0.1,49.702 0.1,52.5 0.1,69 4.8,69 4.8,68.3 1.7,68.3 1.7,52.5 	"/>
	<path d="M17.248,7.588c-0.263,0.309-0.481,0.51-0.62,0.677c-0.15,0.144-0.294,0.221-0.345,0.273
		c-0.08,0.037-0.176,0.056-0.228,0.056c-0.151,0-0.271-0.1-0.272-0.3h-0.543L14.928,9.7c0.155,0.062,0.344,0.094,0.598,0.094
		c0.269,0,0.458-0.034,0.646-0.097c0.164-0.063,0.304-0.198,0.505-0.333c0.174-0.158,0.379-0.415,0.661-0.736
		c0.267-0.332,0.652-0.91,1.222-1.642h0.078c0.036,0.347,0.122,0.815,0.295,1.5c0.088,0.367,0.175,0.636,0.302,0.811
		c0.115,0.173,0.235,0.272,0.405,0.378c0.155,0.079,0.34,0.119,0.567,0.119c0.403,0,0.732-0.134,1.044-0.33
		c0.293-0.219,0.607-0.608,0.983-1.137L21.73,7.994c-0.249,0.383-0.461,0.616-0.572,0.738c-0.131,0.108-0.285,0.162-0.406,0.162
		c-0.078,0-0.163-0.032-0.206-0.041c-0.059-0.028-0.143-0.08-0.175-0.146c-0.056-0.07-0.114-0.174-0.159-0.312
		c-0.049-0.138-0.121-0.339-0.17-0.563c-0.065-0.239-0.147-0.551-0.222-0.894c-0.082-0.358-0.19-0.807-0.264-1.275l0.528-0.645
		c0.191-0.232,0.362-0.474,0.559-0.668c0.181-0.212,0.332-0.397,0.489-0.539c0.145-0.146,0.233-0.252,0.33-0.295
		c0.075-0.05,0.12-0.091,0.191-0.098c0.052-0.015,0.1-0.023,0.146-0.023c0.151,0,0.217,0.101,0.272,0.301h0.544l0.311-1.406
		c-0.155-0.062-0.365-0.094-0.598-0.094c-0.268,0-0.512,0-0.648,0.097c-0.163,0.063-0.357,0.165-0.508,0.331
		c-0.176,0.157-0.401,0.381-0.648,0.716c-0.257,0.32-0.666,0.806-1.13,1.52h-0.078c-0.046-0.321-0.119-0.642-0.16-0.929
		c-0.06-0.299-0.146-0.576-0.19-0.75c-0.066-0.201-0.156-0.362-0.209-0.478C18.687,2.587,18.6,2.485,18.51,2.417
		c-0.093-0.074-0.23-0.147-0.322-0.164c-0.121-0.037-0.284-0.055-0.422-0.055c-0.409,0-0.765,0.1-1.064,0.366
		c-0.3,0.242-0.634,0.587-0.939,1.1l0.505,0.334c0.171-0.258,0.281-0.458,0.411-0.57c0.104-0.122,0.177-0.23,0.286-0.256
		c0.088-0.048,0.167-0.073,0.297-0.073c0.098,0,0.177,0,0.244,0.059c0.065,0.039,0.096,0.086,0.183,0.208
		c0.057,0.099,0.127,0.277,0.217,0.633c0.088,0.322,0.153,0.656,0.256,1.044c0.084,0.373,0.163,0.759,0.241,1.166l-0.005-0.006
		C17.896,6.818,17.495,7.249,17.248,7.588z"/>
	<path d="M27.477,7.102c-0.53,0-1.022,0.1-1.466,0.331c-0.447,0.222-0.85,0.511-1.145,0.923c-0.159,0.192-0.314,0.375-0.414,0.623
		c-0.117,0.221-0.234,0.428-0.294,0.681c-0.08,0.231-0.166,0.446-0.177,0.698c-0.037,0.232-0.065,0.446-0.056,0.672
		c0,0.307,0.025,0.563,0.122,0.826c0.081,0.244,0.199,0.426,0.356,0.623c0.157,0.17,0.323,0.276,0.578,0.389
		C25.209,12.955,25.448,13,25.765,13c0.502,0,0.947-0.133,1.408-0.319c0.436-0.213,0.845-0.541,1.311-0.952h0.002l-0.425-0.459
		c-0.177,0.181-0.363,0.324-0.509,0.467c-0.162,0.13-0.346,0.218-0.484,0.319c-0.161,0.083-0.35,0.132-0.491,0.185
		c-0.166,0.039-0.358,0.059-0.527,0.059c-0.354,0-0.637-0.1-0.784-0.286c-0.168-0.189-0.256-0.495-0.252-0.909
		c0-0.137-0.004-0.271,0.017-0.381c0.011-0.115,0.001-0.224,0.045-0.322c2.585,0,3.86-0.7,3.878-2.07
		c0-0.393-0.152-0.703-0.377-0.908C28.327,7.209,27.935,7.102,27.477,7.102z M27.764,8.973c-0.105,0.166-0.292,0.309-0.488,0.431
		c-0.221,0.12-0.512,0.187-0.85,0.286c-0.345,0.069-0.787,0.106-1.238,0.11l0.001-0.001c0.099-0.318,0.203-0.619,0.369-0.867
		c0.147-0.259,0.294-0.503,0.489-0.662c0.18-0.182,0.364-0.339,0.573-0.422C26.822,7.75,27.016,7.7,27.234,7.7
		c0.222,0,0.378,0.034,0.509,0.194c0.118,0.127,0.171,0.295,0.177,0.533C27.92,8.626,27.847,8.783,27.764,8.973z"/>
	<path d="M16.79,30.445c-0.398,0.369-0.762,0.556-1.047,0.556c-0.229,0-0.343-0.167-0.342-0.5h-0.614l-0.333,1.5
		c0.077,0.03,0.159,0.03,0.33,0.072c0.143,0.019,0.248,0.028,0.377,0.028c0.315,0,0.595-0.067,0.892-0.17
		c0.352-0.148,0.7-0.426,1.095-0.738c0.544-0.502,1.194-1.333,2.042-2.437c0.854-1.179,1.591-2.364,2.275-3.552
		c0.672-1.214,1.184-2.383,1.598-3.42l-0.209-0.384h-2.042l-0.077,0.399c0.248,0.016,0.402,0.049,0.527,0.153
		c0.104,0.087,0.15,0.235,0.156,0.489c0,0.314-0.107,0.701-0.23,1.23c-0.152,0.504-0.415,1.079-0.753,1.781
		c-0.35,0.683-0.795,1.365-1.277,2.095c-0.084-0.621-0.203-1.305-0.3-2.022c-0.115-0.728-0.235-1.437-0.359-2.077
		c-0.073-0.393-0.139-0.709-0.198-0.903c-0.059-0.21-0.16-0.425-0.209-0.566c-0.082-0.168-0.178-0.328-0.277-0.394
		c-0.103-0.094-0.208-0.19-0.309-0.203c-0.151-0.056-0.353-0.084-0.544-0.084c-0.384,0-0.738,0.101-1.041,0.331
		c-0.311,0.221-0.652,0.577-1.002,1.134l0.505,0.334c0.213-0.331,0.371-0.563,0.536-0.697c0.145-0.136,0.291-0.202,0.466-0.202
		c0.108,0,0.166,0.033,0.272,0.1c0.119,0.107,0.22,0.34,0.341,0.741c0.089,0.322,0.242,1.142,0.544,2.502
		c0.259,1.26,0.432,2.313,0.614,3.228h0C17.658,29.516,17.159,30.059,16.79,30.445z"/>
	<path d="M27.677,26.302c-0.53,0-1.021,0.1-1.466,0.331c-0.447,0.221-0.85,0.51-1.145,0.922c-0.159,0.193-0.314,0.375-0.414,0.623
		c-0.117,0.221-0.234,0.428-0.294,0.682c-0.08,0.231-0.166,0.445-0.177,0.697c-0.037,0.233-0.064,0.447-0.056,0.672
		c0,0.308,0.025,0.564,0.122,0.827c0.081,0.244,0.199,0.425,0.356,0.622c0.157,0.17,0.323,0.277,0.578,0.39
		c0.229,0.088,0.467,0.133,0.784,0.133c0.502,0,0.947-0.133,1.408-0.319c0.436-0.213,0.845-0.541,1.311-0.953h0.002l-0.425-0.459
		c-0.177,0.182-0.363,0.325-0.509,0.467c-0.162,0.131-0.346,0.219-0.484,0.32c-0.161,0.083-0.35,0.131-0.491,0.184
		c-0.166,0.039-0.358,0.06-0.527,0.06c-0.354,0-0.637-0.101-0.784-0.286c-0.168-0.189-0.256-0.495-0.252-0.909
		c0-0.137-0.004-0.271,0.017-0.381c0.011-0.116,0.001-0.224,0.045-0.323c2.584,0,3.859-0.699,3.877-2.069
		c0-0.394-0.152-0.703-0.377-0.908C28.527,26.409,28.135,26.302,27.677,26.302z M27.964,28.173
		c-0.105,0.166-0.292,0.308-0.488,0.431c-0.221,0.12-0.512,0.187-0.85,0.285c-0.345,0.07-0.787,0.107-1.238,0.111l0.001-0.001
		c0.099-0.319,0.203-0.619,0.369-0.867c0.147-0.259,0.294-0.503,0.489-0.662c0.18-0.182,0.364-0.339,0.573-0.422
		c0.202-0.098,0.396-0.147,0.614-0.147c0.222,0,0.378,0.033,0.509,0.193c0.118,0.128,0.171,0.296,0.177,0.534
		C28.12,27.826,28.047,27.982,27.964,28.173z"/>
	<path d="M22.592,40.889L22.444,40.5h-5.52l-0.458,2h0.69c0.176-0.328,0.324-0.595,0.478-0.758c0.143-0.178,0.264-0.324,0.4-0.4
		c0.124-0.089,0.246-0.17,0.372-0.187c0.125-0.037,0.29-0.056,0.591-0.056h1.817l0.047,0.056c-0.279,0.291-0.732,0.772-1.32,1.469
		l-4.247,4.896l0.148,0.381h5.62l0.473-2.2v-0.001h-0.691c-0.197,0.416-0.379,0.716-0.494,0.916
		c-0.131,0.195-0.282,0.322-0.384,0.436c-0.125,0.096-0.279,0.146-0.435,0.197c-0.166,0.035-0.41,0.052-0.713,0.052h-1.755
		l-0.047-0.055c0.528-0.575,1.122-1.289,1.872-2.099L22.592,40.889z"/>
	<path d="M23.581,48.657c-0.037,0.232-0.065,0.446-0.056,0.672c0,0.307,0.025,0.563,0.122,0.827
		c0.081,0.244,0.199,0.425,0.356,0.622c0.157,0.17,0.323,0.276,0.578,0.389c0.228,0.088,0.467,0.133,0.784,0.133
		c0.502,0,0.947-0.133,1.408-0.319c0.436-0.213,0.845-0.541,1.311-0.952h0.002l-0.425-0.459c-0.177,0.181-0.363,0.325-0.509,0.467
		c-0.162,0.13-0.346,0.218-0.484,0.319c-0.161,0.084-0.35,0.132-0.491,0.185c-0.166,0.039-0.357,0.059-0.527,0.059
		c-0.354,0-0.637-0.1-0.784-0.286c-0.168-0.189-0.256-0.494-0.252-0.908c0-0.137-0.004-0.272,0.017-0.381
		c0.011-0.116,0.001-0.225,0.045-0.323c2.584,0,3.86-0.7,3.877-2.07c0-0.393-0.152-0.703-0.377-0.908
		c-0.25-0.213-0.642-0.319-1.1-0.319c-0.53,0-1.022,0.099-1.466,0.33c-0.447,0.222-0.85,0.511-1.145,0.923
		c-0.159,0.192-0.314,0.375-0.414,0.623c-0.117,0.221-0.234,0.428-0.294,0.681C23.678,48.191,23.592,48.405,23.581,48.657z
		 M24.789,48.099c0.099-0.318,0.203-0.618,0.369-0.866c0.147-0.26,0.294-0.504,0.489-0.662c0.18-0.183,0.364-0.34,0.573-0.422
		C26.422,46.05,26.616,46,26.834,46c0.222,0,0.378,0.034,0.509,0.194c0.118,0.128,0.171,0.296,0.177,0.534
		c0,0.197-0.073,0.354-0.156,0.545c-0.105,0.166-0.292,0.308-0.488,0.43c-0.221,0.121-0.512,0.187-0.85,0.286
		C25.681,48.059,25.239,48.096,24.789,48.099L24.789,48.099z"/>
	<path d="M13.427,60.1c0.25,0.021,0.407,0.055,0.536,0.17c0.108,0.093,0.154,0.201,0.233,0.414c0.047,0.185,0.081,0.424,0.117,0.724
		l0.589,5.792h1.041c0.709-1.078,1.295-2.045,1.786-2.872c0.482-0.837,0.839-1.613,1.141-2.281l0.086,0.008
		c0.01,0.222,0.026,0.503,0.058,0.941c0.029,0.405,0.025,0.707,0.081,0.983l0.319,3.221h0.923c0.45-0.607,0.839-1.174,1.173-1.639
		c0.331-0.486,0.627-0.94,0.897-1.351c0.267-0.414,0.498-0.817,0.694-1.139c0.197-0.345,0.363-0.701,0.559-1.037
		c0.176-0.347,0.29-0.659,0.427-0.892c0.109-0.248,0.247-0.628,0.436-1.057L24.312,59.7H22.31L22.232,60.1
		c0.248,0.017,0.404,0.051,0.527,0.155c0.104,0.087,0.151,0.236,0.156,0.491c0,0.531-0.238,1.216-0.633,2.066
		c-0.422,0.847-1.049,1.81-1.844,2.974v0.001l-0.567-6.086h-1.117l-0.086,0.378c-0.082,0.487-0.204,0.928-0.356,1.406
		c-0.156,0.448-0.426,0.954-0.719,1.598c-0.325,0.615-0.855,1.488-1.58,2.695L15.547,59.7h-2.034L13.427,60.1z"/>
	<path d="M26.676,67.8c2.584,0,3.86-0.7,3.877-2.069c0-0.394-0.152-0.703-0.377-0.908c-0.25-0.213-0.642-0.32-1.1-0.32
		c-0.53,0-1.022,0.1-1.466,0.331c-0.447,0.221-0.85,0.51-1.145,0.922c-0.159,0.193-0.314,0.375-0.414,0.623
		c-0.117,0.221-0.234,0.428-0.294,0.681c-0.08,0.232-0.166,0.446-0.177,0.698c-0.037,0.233-0.065,0.447-0.056,0.672
		c0,0.308,0.025,0.564,0.122,0.827c0.081,0.244,0.199,0.425,0.356,0.622c0.157,0.17,0.323,0.277,0.578,0.39
		c0.228,0.088,0.467,0.133,0.784,0.133c0.502,0,0.947-0.133,1.408-0.319c0.436-0.213,0.845-0.541,1.311-0.953h0.002l-0.425-0.459
		c-0.177,0.181-0.363,0.325-0.509,0.467c-0.162,0.13-0.346,0.218-0.484,0.32c-0.161,0.083-0.35,0.131-0.491,0.184
		c-0.166,0.039-0.357,0.06-0.527,0.06c-0.354,0-0.637-0.101-0.784-0.286c-0.168-0.19-0.256-0.495-0.252-0.909
		c0-0.137-0.004-0.271,0.017-0.381C26.642,68.007,26.632,67.898,26.676,67.8z M26.789,67.199c0.099-0.319,0.203-0.619,0.369-0.867
		c0.147-0.259,0.294-0.503,0.489-0.662c0.18-0.182,0.364-0.339,0.573-0.422c0.202-0.098,0.396-0.148,0.614-0.148
		c0.222,0,0.378,0.034,0.509,0.194c0.118,0.128,0.171,0.296,0.177,0.534c0,0.198-0.073,0.354-0.156,0.545
		c-0.105,0.166-0.292,0.308-0.488,0.43c-0.221,0.121-0.512,0.188-0.85,0.286C27.681,67.159,27.239,67.196,26.789,67.199
		L26.789,67.199z"/>
	<polygon points="45.1,16.502 45.1,0.202 40.5,0.202 40.5,0.902 43.5,0.902 43.5,16.502 	"/>
	<polygon points="43.5,19.4 43.5,33.002 45.1,33.002 45.1,19.4 45.1,16.502 43.5,16.502 	"/>
	<polygon points="43.5,36 43.5,49.702 45.1,49.702 45.1,36 45.1,33.002 43.5,33.002 	"/>
	<polygon points="43.5,52.5 43.5,68.3 40.5,68.3 40.5,69 45.1,69 45.1,52.5 45.1,49.702 43.5,49.702 	"/>
	<rect x="51.356" y="32.5" width="9.566" height="1"/>
	<rect x="51.356" y="35.7" width="9.566" height="1"/>
	<path d="M69.566,30.817l-1.32,5.954c-0.113,0.512-0.229,0.854-0.256,1.033c-0.056,0.178-0.12,0.31-0.186,0.453
		c-0.066,0.125-0.168,0.205-0.248,0.291c-0.098,0.069-0.249,0.119-0.441,0.15l-0.086,0.399h2.717l0.086-0.399
		c-0.274-0.021-0.484-0.088-0.586-0.176c-0.117-0.096-0.198-0.271-0.175-0.493c0-0.315,0.043-0.726,0.162-1.212l0.792-3.592
		c0.219-0.99,0.41-2.065,0.592-3.228h0.154c0.115,1.202,0.191,2.135,0.312,2.866l0.644,5.033h0.848l3.533-5.858
		c0.562-0.941,0.896-1.588,1.086-1.872H77.3c-0.187,0.641-0.353,1.251-0.497,1.93L75.77,36.77c-0.112,0.512-0.202,0.854-0.256,1.034
		c-0.058,0.179-0.129,0.311-0.188,0.453c-0.066,0.125-0.175,0.205-0.248,0.291c-0.098,0.07-0.257,0.121-0.441,0.152L74.551,39.1
		h3.106l0.084-0.399c-0.274-0.021-0.488-0.087-0.586-0.173c-0.117-0.097-0.202-0.271-0.175-0.494c0-0.145,0.006-0.321,0.03-0.483
		c0.021-0.179,0.052-0.429,0.134-0.725l1.326-6.017c0.11-0.494,0.187-0.864,0.27-1.072c0.068-0.219,0.123-0.398,0.209-0.484
		c0.07-0.104,0.121-0.186,0.232-0.23c0.086-0.053,0.226-0.127,0.424-0.142l0.084-0.38h-2.445v-0.001l-4.527,7.567l-0.884-7.567
		h-2.772l-0.086,0.399c0.264,0.016,0.439,0.05,0.578,0.168c0.122,0.095,0.17,0.238,0.183,0.506c0,0.206-0.045,0.382-0.047,0.61
		C69.659,30.384,69.596,30.589,69.566,30.817z"/>
	<path d="M86.547,35.236c0.169-0.178,0.253-0.422,0.253-0.687c0-0.28-0.1-0.53-0.253-0.684C86.379,33.689,86.163,33.6,85.9,33.6
		c-0.264,0-0.496,0.067-0.648,0.267C85.084,34.042,85,34.253,85,34.55c0,0.281,0.067,0.497,0.252,0.687
		C85.42,35.412,85.636,35.5,85.9,35.5C86.163,35.5,86.363,35.4,86.547,35.236z"/>
	<polygon points="93.9,0.902 97,0.902 97,0.202 92.3,0.202 92.3,16.502 93.9,16.502 	"/>
	<polygon points="93.9,19.4 93.9,16.502 92.3,16.502 92.271,16.502 92.271,33.002 93.9,33.002 	"/>
	<polygon points="93.9,49.702 93.9,36 93.9,33.002 92.271,33.002 92.271,36 92.271,52.5 92.3,52.5 92.3,49.702 	"/>
	<polygon points="93.9,49.702 92.3,49.702 92.3,52.5 92.3,69 97,69 97,68.3 93.9,68.3 93.9,52.5 	"/>
	<path d="M109.448,7.588c-0.263,0.309-0.481,0.51-0.62,0.677c-0.15,0.144-0.294,0.221-0.346,0.273
		c-0.08,0.037-0.176,0.056-0.228,0.056c-0.151,0-0.271-0.1-0.272-0.3h-0.543L107.128,9.7c0.155,0.062,0.345,0.094,0.599,0.094
		c0.269,0,0.457-0.034,0.646-0.097c0.164-0.063,0.304-0.198,0.505-0.333c0.174-0.158,0.38-0.415,0.661-0.736
		c0.268-0.332,0.652-0.91,1.223-1.642h0.077c0.036,0.347,0.122,0.815,0.295,1.5c0.089,0.367,0.175,0.636,0.302,0.811
		c0.115,0.173,0.235,0.272,0.405,0.378c0.155,0.079,0.341,0.119,0.567,0.119c0.402,0,0.732-0.134,1.044-0.33
		c0.293-0.219,0.606-0.608,0.983-1.137l-0.506-0.333c-0.248,0.383-0.461,0.616-0.572,0.738c-0.131,0.108-0.284,0.162-0.405,0.162
		c-0.078,0-0.163-0.032-0.206-0.041c-0.059-0.028-0.143-0.08-0.176-0.146c-0.055-0.07-0.113-0.174-0.158-0.312
		c-0.049-0.138-0.121-0.339-0.17-0.563c-0.065-0.239-0.146-0.551-0.223-0.894c-0.082-0.358-0.189-0.807-0.264-1.275l0.528-0.645
		c0.19-0.232,0.362-0.474,0.559-0.668c0.181-0.212,0.332-0.397,0.489-0.539c0.145-0.146,0.232-0.252,0.33-0.295
		c0.074-0.05,0.12-0.091,0.191-0.098c0.051-0.015,0.1-0.023,0.146-0.023c0.15,0,0.217,0.101,0.271,0.301h0.545l0.311-1.406
		c-0.154-0.062-0.365-0.094-0.598-0.094c-0.268,0-0.512,0-0.648,0.097c-0.163,0.063-0.357,0.165-0.508,0.331
		c-0.176,0.157-0.4,0.381-0.648,0.716c-0.257,0.32-0.666,0.806-1.129,1.52h-0.078c-0.047-0.321-0.119-0.642-0.16-0.929
		c-0.06-0.299-0.146-0.576-0.19-0.75c-0.065-0.201-0.155-0.362-0.209-0.478c-0.071-0.117-0.158-0.219-0.248-0.287
		c-0.093-0.074-0.229-0.147-0.321-0.164c-0.121-0.037-0.285-0.055-0.423-0.055c-0.409,0-0.765,0.1-1.063,0.366
		c-0.301,0.242-0.635,0.587-0.939,1.1l0.505,0.334c0.171-0.258,0.281-0.458,0.411-0.57c0.104-0.122,0.178-0.23,0.286-0.256
		c0.088-0.048,0.167-0.073,0.297-0.073c0.099,0,0.177,0,0.244,0.059c0.065,0.039,0.096,0.086,0.183,0.208
		c0.057,0.099,0.127,0.277,0.217,0.633c0.088,0.322,0.153,0.656,0.256,1.044c0.084,0.373,0.164,0.759,0.242,1.166l-0.006-0.006
		C110.096,6.818,109.695,7.249,109.448,7.588z"/>
	<path d="M120.984,7.711c-0.168-0.188-0.396-0.357-0.635-0.445c-0.256-0.108-0.57-0.164-0.892-0.164
		c-0.476,0-0.929,0.101-1.319,0.301c-0.406,0.199-0.783,0.466-1.053,0.819c-0.296,0.347-0.559,0.738-0.697,1.221
		c-0.168,0.468-0.264,0.954-0.252,1.508c0,0.317,0.021,0.601,0.139,0.854c0.093,0.252,0.201,0.45,0.398,0.646
		c0.174,0.178,0.383,0.294,0.635,0.407c0.25,0.095,0.514,0.143,0.844,0.143h0.002c0.477,0,0.893-0.1,1.322-0.271
		c0.406-0.183,0.748-0.459,1.06-0.775c0.3-0.335,0.522-0.753,0.705-1.205c0.17-0.468,0.224-1.018,0.255-1.564
		c0-0.287-0.064-0.582-0.128-0.811C121.282,8.12,121.127,7.895,120.984,7.711z M120.312,9.757c-0.043,0.272-0.113,0.521-0.188,0.792
		c-0.082,0.255-0.19,0.473-0.304,0.721c-0.118,0.224-0.258,0.4-0.404,0.586c-0.15,0.166-0.323,0.281-0.498,0.397
		c-0.182,0.099-0.387,0.147-0.578,0.147c-0.365,0-0.646-0.133-0.818-0.304c-0.181-0.202-0.287-0.534-0.27-0.941
		c0-0.278,0.016-0.563,0.066-0.834c0.047-0.279,0.106-0.552,0.197-0.802c0.086-0.257,0.18-0.496,0.312-0.718
		c0.123-0.223,0.248-0.423,0.416-0.578c0.155-0.163,0.308-0.304,0.511-0.384c0.186-0.093,0.367-0.139,0.596-0.139
		c0.354,0,0.604,0.1,0.779,0.32c0.166,0.213,0.225,0.506,0.25,0.938C120.379,9.218,120.352,9.466,120.312,9.757z"/>
	<path d="M109.09,30.445c-0.398,0.369-0.762,0.556-1.047,0.556c-0.229,0-0.343-0.167-0.342-0.5h-0.614l-0.333,1.5
		c0.077,0.03,0.159,0.03,0.33,0.072c0.143,0.019,0.248,0.028,0.377,0.028c0.314,0,0.596-0.067,0.893-0.17
		c0.352-0.148,0.699-0.426,1.095-0.738c0.544-0.502,1.194-1.333,2.042-2.437c0.854-1.179,1.591-2.364,2.275-3.552
		c0.672-1.214,1.184-2.383,1.598-3.42l-0.209-0.384h-2.043l-0.076,0.399c0.248,0.016,0.402,0.049,0.527,0.153
		c0.104,0.087,0.149,0.235,0.155,0.489c0,0.314-0.106,0.701-0.229,1.23c-0.152,0.504-0.415,1.079-0.754,1.781
		c-0.35,0.683-0.795,1.365-1.276,2.095c-0.084-0.621-0.203-1.305-0.3-2.022c-0.115-0.728-0.235-1.437-0.359-2.077
		c-0.072-0.393-0.139-0.709-0.197-0.903c-0.06-0.21-0.16-0.425-0.209-0.566c-0.082-0.168-0.179-0.328-0.277-0.394
		c-0.104-0.094-0.208-0.19-0.309-0.203c-0.152-0.056-0.354-0.084-0.545-0.084c-0.384,0-0.738,0.101-1.041,0.331
		c-0.311,0.221-0.652,0.577-1.002,1.134l0.506,0.334c0.213-0.331,0.371-0.563,0.535-0.697c0.145-0.136,0.291-0.202,0.467-0.202
		c0.107,0,0.166,0.033,0.271,0.1c0.119,0.107,0.22,0.34,0.341,0.741c0.089,0.322,0.242,1.142,0.544,2.502
		c0.26,1.26,0.432,2.313,0.614,3.228h-0.001C109.958,29.516,109.459,30.059,109.09,30.445z"/>
	<path d="M121.186,26.911c-0.17-0.188-0.397-0.358-0.637-0.445c-0.255-0.108-0.57-0.164-0.891-0.164c-0.477,0-0.928,0.101-1.32,0.3
		c-0.404,0.2-0.783,0.467-1.052,0.82c-0.296,0.346-0.558,0.738-0.697,1.221c-0.168,0.468-0.264,0.953-0.252,1.508
		c0,0.317,0.021,0.601,0.14,0.854c0.092,0.252,0.199,0.45,0.397,0.646c0.173,0.178,0.382,0.294,0.634,0.407
		c0.25,0.095,0.514,0.143,0.846,0.143h0.002c0.476,0,0.892-0.101,1.321-0.272c0.406-0.182,0.747-0.458,1.06-0.774
		c0.3-0.335,0.521-0.753,0.705-1.205c0.17-0.468,0.224-1.018,0.254-1.564c0-0.288-0.064-0.582-0.127-0.811
		C121.482,27.32,121.327,27.095,121.186,26.911z M120.514,28.957c-0.043,0.271-0.115,0.52-0.189,0.792
		c-0.082,0.255-0.19,0.472-0.303,0.72c-0.119,0.225-0.26,0.401-0.405,0.586c-0.151,0.166-0.323,0.282-0.498,0.398
		c-0.181,0.098-0.388,0.146-0.578,0.146c-0.366,0-0.646-0.133-0.819-0.303c-0.18-0.202-0.285-0.534-0.269-0.941
		c0-0.278,0.016-0.563,0.067-0.834c0.045-0.279,0.105-0.553,0.196-0.803c0.085-0.256,0.181-0.496,0.312-0.717
		c0.123-0.223,0.248-0.423,0.416-0.578c0.154-0.163,0.308-0.304,0.511-0.384c0.185-0.093,0.366-0.139,0.595-0.139
		c0.354,0,0.605,0.1,0.78,0.319c0.166,0.213,0.224,0.506,0.25,0.938C120.579,28.418,120.552,28.666,120.514,28.957z"/>
	<path d="M114.792,40.889l-0.147-0.389h-5.52l-0.458,2h0.69c0.177-0.328,0.324-0.595,0.478-0.758c0.144-0.178,0.265-0.324,0.399-0.4
		c0.125-0.089,0.246-0.17,0.373-0.187c0.125-0.037,0.289-0.056,0.591-0.056h1.817l0.047,0.056c-0.279,0.291-0.732,0.772-1.32,1.469
		l-4.247,4.896l0.147,0.381h5.621l0.473-2.2v-0.001h-0.691c-0.197,0.416-0.379,0.716-0.494,0.916
		c-0.131,0.195-0.281,0.322-0.384,0.436c-0.124,0.096-0.278,0.146-0.435,0.197c-0.166,0.035-0.409,0.052-0.713,0.052h-1.756
		l-0.047-0.055c0.528-0.575,1.122-1.289,1.872-2.099L114.792,40.889z"/>
	<path d="M115.736,49.25c0,0.318,0.021,0.602,0.14,0.855c0.092,0.252,0.2,0.449,0.397,0.645c0.174,0.178,0.383,0.294,0.635,0.408
		c0.25,0.094,0.514,0.142,0.845,0.142h0.002c0.476,0,0.892-0.1,1.322-0.271c0.405-0.183,0.747-0.458,1.06-0.775
		c0.299-0.335,0.521-0.753,0.704-1.205c0.171-0.468,0.224-1.017,0.255-1.563c0-0.288-0.064-0.582-0.128-0.812
		c-0.086-0.253-0.241-0.478-0.383-0.662c-0.169-0.187-0.397-0.357-0.636-0.444c-0.256-0.109-0.57-0.164-0.891-0.164
		c-0.477,0-0.929,0.1-1.32,0.3c-0.405,0.2-0.783,0.466-1.053,0.819c-0.295,0.347-0.558,0.738-0.697,1.221
		C115.82,48.21,115.725,48.696,115.736,49.25z M116.919,48.621c0.046-0.279,0.106-0.552,0.197-0.802
		c0.085-0.257,0.18-0.496,0.311-0.718c0.123-0.223,0.248-0.423,0.416-0.578c0.155-0.162,0.308-0.304,0.511-0.384
		c0.186-0.093,0.367-0.139,0.596-0.139c0.354,0,0.605,0.101,0.779,0.32c0.166,0.213,0.225,0.506,0.25,0.938
		c0,0.259-0.026,0.507-0.065,0.798c-0.043,0.272-0.114,0.521-0.188,0.792c-0.082,0.255-0.19,0.473-0.304,0.721
		c-0.119,0.224-0.259,0.4-0.405,0.586c-0.15,0.166-0.322,0.282-0.498,0.397c-0.181,0.099-0.387,0.147-0.578,0.147
		c-0.365,0-0.646-0.133-0.818-0.304c-0.18-0.201-0.286-0.533-0.27-0.941C116.852,49.177,116.868,48.893,116.919,48.621z"/>
	<path d="M105.727,60.1c0.25,0.021,0.407,0.055,0.537,0.17c0.107,0.093,0.153,0.201,0.232,0.414
		c0.047,0.185,0.081,0.424,0.117,0.724l0.589,5.792h1.041c0.709-1.078,1.295-2.045,1.786-2.872c0.482-0.837,0.839-1.613,1.141-2.281
		l0.086,0.008c0.01,0.222,0.026,0.503,0.059,0.941c0.028,0.405,0.024,0.707,0.08,0.983l0.319,3.221h0.923
		c0.45-0.607,0.84-1.174,1.174-1.639c0.33-0.486,0.627-0.94,0.896-1.351c0.268-0.414,0.498-0.817,0.693-1.139
		c0.197-0.345,0.363-0.701,0.56-1.037c0.177-0.347,0.29-0.659,0.427-0.892c0.109-0.248,0.247-0.628,0.437-1.057l-0.212-0.386h-2.002
		l-0.077,0.399c0.247,0.017,0.403,0.051,0.526,0.155c0.104,0.087,0.151,0.236,0.156,0.491c0,0.531-0.238,1.216-0.633,2.066
		c-0.422,0.847-1.049,1.81-1.844,2.974v0.001l-0.567-6.086h-1.116l-0.087,0.378c-0.081,0.487-0.204,0.928-0.356,1.406
		c-0.155,0.448-0.426,0.954-0.719,1.598c-0.324,0.615-0.854,1.488-1.58,2.695l-0.465-6.078h-2.035L105.727,60.1z"/>
	<path d="M119.838,64.802c-0.404,0.2-0.783,0.466-1.052,0.82c-0.296,0.346-0.558,0.738-0.697,1.22
		c-0.168,0.469-0.264,0.954-0.252,1.508c0,0.318,0.021,0.602,0.14,0.855c0.092,0.252,0.199,0.45,0.397,0.645
		c0.173,0.179,0.382,0.295,0.634,0.408c0.25,0.094,0.514,0.143,0.846,0.143h0.002c0.476,0,0.892-0.101,1.321-0.272
		c0.406-0.182,0.747-0.458,1.06-0.774c0.3-0.336,0.521-0.754,0.705-1.205c0.17-0.469,0.224-1.018,0.254-1.564
		c0-0.288-0.064-0.582-0.127-0.811c-0.086-0.254-0.241-0.479-0.383-0.662c-0.17-0.188-0.397-0.358-0.637-0.445
		c-0.255-0.109-0.57-0.164-0.891-0.164C120.682,64.502,120.23,64.602,119.838,64.802z M122.079,66.359
		c0,0.259-0.027,0.507-0.065,0.798c-0.043,0.271-0.115,0.52-0.189,0.792c-0.082,0.255-0.19,0.472-0.303,0.72
		c-0.119,0.224-0.26,0.401-0.405,0.586c-0.151,0.166-0.323,0.282-0.498,0.398c-0.181,0.098-0.388,0.146-0.578,0.146
		c-0.366,0-0.646-0.133-0.819-0.303c-0.18-0.202-0.285-0.534-0.269-0.942c0-0.277,0.016-0.562,0.067-0.834
		c0.045-0.278,0.105-0.552,0.196-0.802c0.085-0.256,0.181-0.496,0.312-0.717c0.123-0.224,0.248-0.423,0.416-0.578
		c0.154-0.163,0.308-0.304,0.511-0.384c0.185-0.094,0.366-0.139,0.595-0.139c0.354,0,0.605,0.1,0.78,0.319
		C121.995,65.634,122.053,65.927,122.079,66.359z"/>
	<polygon points="133.2,0.902 136.2,0.902 136.2,16.502 137.8,16.502 137.8,0.202 133.2,0.202 	"/>
	<polygon points="136.2,19.4 136.2,33.002 137.8,33.002 137.8,19.4 137.8,16.502 136.2,16.502 	"/>
	<polygon points="136.2,36 136.2,49.702 137.8,49.702 137.8,36 137.8,33.002 136.2,33.002 	"/>
	<polygon points="136.2,52.5 136.2,68.3 133.2,68.3 133.2,69 137.8,69 137.8,52.5 137.8,49.702 136.2,49.702 	"/>
</g>
</svg>
