<?xml version="1.0" encoding="utf-8"?>
<!-- Generator: Adobe Illustrator 15.1.0, SVG Export Plug-In . SVG Version: 6.00 Build 0)  -->
<!DOCTYPE svg PUBLIC "-//W3C//DTD SVG 1.1 Tiny//EN" "http://www.w3.org/Graphics/SVG/1.1/DTD/svg11-tiny.dtd">
<svg version="1.1" baseProfile="tiny" id="Layer_1" xmlns="http://www.w3.org/2000/svg" xmlns:xlink="http://www.w3.org/1999/xlink"
	 x="0px" y="0px" width="389px" height="39px" viewBox="0 0 389 39" overflow="inherit" xml:space="preserve">
<g>
	<path fill="none" d="M146.276,34.604c0.196-0.123,0.383-0.265,0.488-0.431c0.083-0.19,0.156-0.347,0.156-0.545
		c-0.006-0.238-0.059-0.406-0.177-0.534c-0.131-0.16-0.287-0.193-0.509-0.193c-0.218,0-0.412,0.05-0.614,0.147
		c-0.209,0.083-0.393,0.24-0.573,0.422c-0.195,0.159-0.342,0.403-0.489,0.662c-0.166,0.248-0.27,0.548-0.369,0.867L144.188,35
		c0.451-0.004,0.893-0.041,1.238-0.111C145.764,34.79,146.055,34.724,146.276,34.604z"/>
	<path fill="none" d="M172.576,11.903c0.196-0.122,0.383-0.265,0.488-0.431c0.083-0.189,0.156-0.347,0.156-0.545
		c-0.006-0.238-0.059-0.406-0.177-0.533c-0.131-0.16-0.287-0.194-0.509-0.194c-0.218,0-0.412,0.05-0.614,0.147
		c-0.209,0.083-0.393,0.24-0.573,0.422c-0.195,0.159-0.342,0.403-0.489,0.662c-0.166,0.248-0.27,0.549-0.369,0.867l-0.001,0.001
		c0.451-0.004,0.893-0.041,1.238-0.11C172.064,12.09,172.355,12.023,172.576,11.903z"/>
	<path fill="none" d="M304.309,32.204L304.309,32.204c-0.08,0.358-0.117,0.71-0.117,1.049c-0.03,0.387,0.09,0.698,0.268,0.878
		c0.159,0.169,0.475,0.27,0.889,0.27c0.196,0,0.414-0.034,0.606-0.104c0.173-0.102,0.387-0.184,0.586-0.344
		c0.185-0.177,0.388-0.369,0.566-0.628c0.177-0.269,0.344-0.579,0.493-0.958c0.15-0.402,0.267-0.787,0.349-1.221
		c0.066-0.449,0.125-0.849,0.125-1.244c-0.025-0.534-0.077-0.934-0.23-1.2c-0.167-0.269-0.396-0.402-0.732-0.402
		c-0.252,0-0.492,0.079-0.733,0.236c-0.267,0.145-0.509,0.416-0.805,0.778c-0.32,0.356-0.536,0.731-0.723,1.111
		c-0.203,0.37-0.345,0.864-0.473,1.455L304.309,32.204z"/>
	<path fill="none" d="M81.976,11.903c0.196-0.122,0.383-0.265,0.488-0.431c0.083-0.189,0.156-0.347,0.156-0.545
		c-0.006-0.238-0.059-0.406-0.177-0.533c-0.131-0.16-0.287-0.194-0.509-0.194c-0.218,0-0.412,0.05-0.614,0.147
		c-0.209,0.083-0.393,0.24-0.573,0.422c-0.195,0.159-0.342,0.403-0.489,0.662c-0.166,0.248-0.27,0.549-0.369,0.867L79.888,12.3
		c0.451-0.004,0.893-0.041,1.238-0.11C81.464,12.09,81.755,12.023,81.976,11.903z"/>
	<path fill="none" d="M349.308,9.504L349.308,9.504c-0.08,0.359-0.115,0.71-0.115,1.049c-0.031,0.387,0.089,0.698,0.267,0.878
		c0.159,0.169,0.475,0.27,0.889,0.27c0.196,0,0.414-0.034,0.606-0.104c0.173-0.102,0.387-0.184,0.586-0.344
		c0.185-0.177,0.388-0.369,0.566-0.628c0.177-0.268,0.344-0.579,0.493-0.958c0.15-0.402,0.267-0.787,0.349-1.22
		c0.066-0.45,0.125-0.85,0.125-1.245c-0.025-0.534-0.077-0.933-0.23-1.2c-0.167-0.268-0.396-0.402-0.732-0.402
		c-0.252,0-0.492,0.079-0.733,0.236c-0.267,0.145-0.509,0.416-0.805,0.778c-0.32,0.356-0.536,0.731-0.723,1.112
		c-0.203,0.369-0.345,0.863-0.473,1.454L349.308,9.504z"/>
	<path fill="none" d="M385.276,11.903c0.195-0.122,0.383-0.265,0.487-0.431c0.083-0.189,0.156-0.347,0.156-0.545
		c-0.006-0.238-0.059-0.406-0.177-0.533c-0.131-0.16-0.287-0.194-0.509-0.194c-0.219,0-0.412,0.05-0.614,0.147
		c-0.209,0.083-0.394,0.24-0.573,0.422c-0.195,0.159-0.342,0.403-0.489,0.662c-0.166,0.248-0.27,0.549-0.368,0.867l-0.002,0.001
		c0.451-0.004,0.894-0.041,1.238-0.11C384.764,12.09,385.055,12.023,385.276,11.903z"/>
	<path fill="none" d="M11.184,27.699c0.146,0,0.366-0.057,0.578-0.172c0.191-0.125,0.416-0.282,0.614-0.498
		c0.173-0.228,0.38-0.482,0.545-0.794c0.16-0.324,0.291-0.663,0.375-1.054l-0.001,0.001c0.01-0.229,0.079-0.401,0.113-0.602
		c0.032-0.228,0.052-0.385,0.052-0.552c-0.02-0.312-0.069-0.515-0.206-0.642c-0.155-0.155-0.357-0.188-0.659-0.188
		c-0.254,0-0.43,0.048-0.62,0.142c-0.215,0.081-0.366,0.226-0.525,0.392c-0.175,0.153-0.3,0.355-0.425,0.572
		c-0.132,0.215-0.229,0.448-0.314,0.695c-0.087,0.246-0.148,0.5-0.192,0.758c-0.05,0.239-0.066,0.51-0.066,0.755
		c-0.017,0.396,0.058,0.699,0.173,0.895C10.733,27.599,10.928,27.699,11.184,27.699z"/>
	<path fill="none" d="M358.776,34.604c0.195-0.123,0.383-0.265,0.487-0.431c0.083-0.19,0.156-0.347,0.156-0.545
		c-0.006-0.238-0.059-0.406-0.177-0.534c-0.131-0.16-0.287-0.193-0.509-0.193c-0.219,0-0.412,0.05-0.614,0.147
		c-0.209,0.083-0.394,0.24-0.573,0.422c-0.195,0.159-0.342,0.403-0.489,0.662c-0.166,0.248-0.27,0.548-0.368,0.867L356.688,35
		c0.451-0.004,0.894-0.041,1.238-0.111C358.264,34.79,358.555,34.724,358.776,34.604z"/>
	<path fill="none" d="M221.184,27.699c0.146,0,0.366-0.057,0.578-0.172c0.191-0.125,0.416-0.282,0.614-0.498
		c0.173-0.228,0.38-0.482,0.545-0.794c0.16-0.324,0.291-0.663,0.375-1.054l-0.001,0.001c0.01-0.229,0.079-0.401,0.113-0.602
		c0.031-0.228,0.052-0.385,0.052-0.552c-0.021-0.312-0.069-0.515-0.206-0.642c-0.154-0.155-0.357-0.188-0.658-0.188
		c-0.255,0-0.431,0.048-0.621,0.142c-0.215,0.081-0.365,0.226-0.524,0.392c-0.175,0.153-0.3,0.355-0.425,0.572
		c-0.133,0.215-0.229,0.448-0.314,0.695c-0.087,0.246-0.148,0.5-0.191,0.758c-0.051,0.239-0.066,0.51-0.066,0.755
		c-0.018,0.396,0.059,0.699,0.173,0.895C220.732,27.599,220.928,27.699,221.184,27.699z"/>
	<path fill="none" d="M292.477,11.903c0.195-0.122,0.383-0.265,0.487-0.431c0.083-0.189,0.156-0.347,0.156-0.545
		c-0.006-0.238-0.06-0.406-0.177-0.533c-0.131-0.16-0.287-0.194-0.51-0.194c-0.218,0-0.412,0.05-0.613,0.147
		c-0.209,0.083-0.394,0.24-0.573,0.422c-0.195,0.159-0.343,0.403-0.489,0.662c-0.166,0.248-0.27,0.549-0.369,0.867V12.3
		c0.45-0.004,0.893-0.041,1.237-0.11C291.964,12.09,292.255,12.023,292.477,11.903z"/>
	<path d="M2.648,22.088c-0.263,0.309-0.481,0.51-0.62,0.677c-0.15,0.144-0.294,0.221-0.346,0.273
		c-0.08,0.037-0.176,0.056-0.228,0.056c-0.151,0-0.271-0.1-0.272-0.3H0.639L0.328,24.2c0.155,0.062,0.344,0.094,0.598,0.094
		c0.269,0,0.458-0.034,0.647-0.097c0.164-0.063,0.304-0.198,0.505-0.333c0.174-0.158,0.38-0.415,0.661-0.736
		c0.267-0.332,0.652-0.91,1.222-1.642h0.078c0.036,0.347,0.122,0.815,0.295,1.5c0.088,0.367,0.175,0.636,0.302,0.811
		c0.115,0.173,0.235,0.272,0.405,0.378c0.155,0.079,0.34,0.119,0.567,0.119c0.403,0,0.732-0.134,1.044-0.33
		c0.293-0.219,0.607-0.608,0.983-1.137L7.13,22.494c-0.249,0.383-0.461,0.616-0.572,0.738c-0.131,0.108-0.285,0.162-0.406,0.162
		c-0.078,0-0.163-0.032-0.206-0.041c-0.059-0.028-0.143-0.08-0.175-0.146c-0.056-0.07-0.114-0.174-0.159-0.312
		c-0.049-0.138-0.121-0.339-0.17-0.563c-0.065-0.239-0.147-0.551-0.223-0.894c-0.082-0.358-0.189-0.807-0.264-1.275l0.528-0.645
		c0.191-0.232,0.362-0.474,0.559-0.668c0.181-0.212,0.332-0.397,0.489-0.539c0.145-0.146,0.232-0.252,0.33-0.295
		c0.075-0.05,0.12-0.091,0.191-0.098c0.052-0.015,0.1-0.023,0.147-0.023c0.151,0,0.217,0.101,0.271,0.301h0.544l0.311-1.406
		c-0.155-0.062-0.365-0.094-0.598-0.094c-0.268,0-0.512,0-0.648,0.097c-0.163,0.063-0.357,0.165-0.508,0.331
		c-0.176,0.157-0.401,0.381-0.648,0.716c-0.257,0.32-0.666,0.806-1.13,1.52H4.717c-0.046-0.321-0.119-0.642-0.16-0.929
		c-0.06-0.299-0.146-0.576-0.19-0.75c-0.066-0.201-0.156-0.362-0.209-0.478C4.087,17.087,4,16.985,3.91,16.917
		c-0.093-0.074-0.23-0.147-0.322-0.164c-0.121-0.037-0.284-0.055-0.422-0.055c-0.409,0-0.765,0.1-1.064,0.366
		c-0.3,0.242-0.634,0.587-0.939,1.1l0.505,0.334c0.171-0.258,0.281-0.458,0.411-0.57c0.103-0.122,0.177-0.23,0.286-0.256
		c0.088-0.048,0.167-0.073,0.297-0.073c0.098,0,0.177,0,0.244,0.059c0.065,0.039,0.096,0.086,0.183,0.208
		c0.057,0.099,0.127,0.277,0.217,0.633c0.088,0.322,0.153,0.656,0.256,1.044c0.084,0.373,0.163,0.759,0.241,1.166l-0.005-0.006
		C3.296,21.318,2.895,21.749,2.648,22.088z"/>
	<polygon points="12.392,12.743 12.392,12.303 10.932,12.303 9.844,17.104 10.506,17.301 	"/>
	<polygon points="12.392,12.302 12.392,12.303 12.393,12.303 	"/>
	<path d="M9.443,25.546c-0.078,0.339-0.125,0.69-0.116,1.058c0,0.618,0.091,1.084,0.367,1.414c0.246,0.322,0.582,0.483,1.043,0.483
		c0.196,0,0.384-0.034,0.566-0.086c0.182-0.058,0.348-0.161,0.537-0.269c0.178-0.123,0.332-0.306,0.539-0.47
		c0.181-0.188,0.355-0.448,0.561-0.687l0.08,0.033c-0.053,0.155-0.093,0.314-0.08,0.489c0,0.307,0.054,0.535,0.227,0.724
		c0.15,0.176,0.362,0.264,0.634,0.264c0.15,0,0.284-0.033,0.434-0.062c0.14-0.041,0.262-0.12,0.427-0.202
		c0.146-0.095,0.292-0.238,0.45-0.356c0.155-0.144,0.318-0.337,0.517-0.506c-0.061-0.061-0.137-0.151-0.188-0.184
		c-0.065-0.062-0.146-0.158-0.188-0.19c-0.117,0.125-0.234,0.225-0.314,0.32c-0.093,0.089-0.206,0.148-0.255,0.219
		c-0.078,0.056-0.172,0.077-0.216,0.123c-0.065,0.026-0.155,0.039-0.198,0.039c-0.109,0-0.199-0.033-0.253-0.095
		c-0.059-0.063-0.098-0.199-0.088-0.309c0-0.104-0.01-0.236,0.025-0.353c0.017-0.132,0.033-0.313,0.106-0.527h0.003l1.312-5.716
		h-0.289l-1.688,0.1l-0.073,0.4c0.147,0.008,0.24,0.007,0.366,0.033c0.096,0.014,0.167,0.035,0.223,0.068
		c0.053,0.031,0.082,0.064,0.111,0.122c0.02,0.049,0.013,0.107,0.031,0.185c0,0.089-0.019,0.186-0.038,0.333
		c-0.024,0.132-0.064,0.251-0.094,0.434c-0.038,0.158-0.113,0.332-0.152,0.591c-0.19-0.146-0.413-0.269-0.595-0.292
		c-0.207-0.048-0.466-0.073-0.686-0.073c-0.282,0-0.579,0.033-0.82,0.145c-0.264,0.096-0.521,0.214-0.748,0.406
		c-0.233,0.174-0.474,0.356-0.645,0.628c-0.196,0.243-0.388,0.483-0.506,0.811C9.631,24.888,9.507,25.191,9.443,25.546z
		 M10.519,25.758c0.044-0.258,0.105-0.512,0.192-0.758c0.085-0.247,0.182-0.48,0.314-0.695c0.125-0.217,0.25-0.419,0.425-0.572
		c0.159-0.166,0.31-0.311,0.525-0.392c0.19-0.094,0.366-0.142,0.62-0.142c0.302,0,0.504,0.033,0.659,0.188
		c0.137,0.127,0.186,0.33,0.206,0.642c0,0.167-0.02,0.324-0.052,0.552c-0.034,0.2-0.103,0.373-0.113,0.602l0.001-0.001
		c-0.084,0.391-0.215,0.729-0.375,1.054c-0.165,0.312-0.372,0.566-0.545,0.794c-0.198,0.216-0.423,0.373-0.614,0.498
		c-0.212,0.115-0.432,0.172-0.578,0.172c-0.256,0-0.451-0.101-0.558-0.292c-0.115-0.195-0.19-0.498-0.173-0.895
		C10.453,26.268,10.469,25.997,10.519,25.758z"/>
	<rect x="22.756" y="17.6" width="9.566" height="1"/>
	<rect x="22.756" y="20.8" width="9.566" height="1"/>
	<path d="M45.205,5.657c-0.14,0.27-0.376,0.584-0.642,0.959c-0.26,0.34-0.715,0.834-1.281,1.497
		c-0.688,0.766-1.247,1.428-1.591,1.997c-0.375,0.565-0.671,1.095-0.891,1.657v0.432h6.273l0.133-2.301h-0.7
		c-0.08,0.238-0.149,0.405-0.198,0.527c-0.052,0.114-0.154,0.205-0.213,0.277c-0.089,0.072-0.221,0.104-0.359,0.152
		c-0.15,0.029-0.361,0.045-0.591,0.045h-2.821c0.453-0.771,1.146-1.704,2.133-2.705c0.575-0.617,0.957-1.082,1.214-1.322
		c0.234-0.264,0.444-0.555,0.642-0.781c0.193-0.257,0.323-0.521,0.462-0.72c0.115-0.224,0.19-0.481,0.252-0.678
		c0.054-0.229,0.079-0.494,0.081-0.752c0-0.794-0.269-1.408-0.733-1.816c-0.489-0.418-1.214-0.627-2.166-0.627
		c-0.433,0-0.936,0.033-1.463,0.195c-0.541,0.13-1.123,0.331-1.745,0.63v1.475h0.931c0.335-1.066,0.958-1.6,1.95-1.6
		c0.387,0,0.694,0.066,0.964,0.255c0.255,0.169,0.44,0.385,0.569,0.698c0.124,0.295,0.186,0.609,0.186,1.02
		c0,0.242-0.033,0.451-0.092,0.723C45.446,5.133,45.344,5.368,45.205,5.657z"/>
	<path d="M51.918,5.023C51.729,4.808,51.457,4.7,51.146,4.7c-0.398,0-0.78,0.1-1.072,0.312c-0.316,0.208-0.741,0.537-1.188,1.054
		L49.328,6.5c0.311-0.341,0.535-0.607,0.734-0.705C50.24,5.665,50.386,5.6,50.57,5.6c0.146,0,0.223,0.034,0.319,0.14
		c0.068,0.091,0.072,0.212,0.102,0.444c0,0.268-0.064,0.64-0.172,1.14L50.817,7.32l-1.133,4.877h1.344l0.736-3.342
		c0.108-0.479,0.219-0.899,0.419-1.209c0.171-0.326,0.376-0.677,0.68-1.011c0.282-0.348,0.527-0.628,0.8-0.78
		c0.251-0.172,0.463-0.259,0.702-0.259c0.27,0,0.447,0.066,0.583,0.234c0.119,0.157,0.169,0.412,0.178,0.766
		c0,0.145-0.043,0.312-0.058,0.563c-0.039,0.23-0.129,0.576-0.246,1.068l-0.341,1.33c-0.171,0.647-0.265,1.127-0.256,1.471
		c0,0.369,0.091,0.658,0.302,0.91c0.202,0.239,0.459,0.358,0.808,0.358c0.425,0,0.779-0.133,1.134-0.328
		c0.331-0.218,0.707-0.575,1.164-1.037l-0.442-0.434c-0.321,0.351-0.585,0.584-0.745,0.714c-0.176,0.124-0.359,0.186-0.497,0.186
		c-0.146,0-0.262-0.065-0.319-0.137c-0.067-0.092-0.111-0.247-0.1-0.444c0-0.23,0.055-0.637,0.209-1.184l0.505-2.011
		c0.15-0.592,0.201-1.067,0.225-1.373c0-0.485-0.157-0.869-0.389-1.139C55.824,4.837,55.43,4.7,54.973,4.7
		c-0.487,0-0.978,0.167-1.417,0.514c-0.458,0.343-0.943,0.838-1.448,1.581l-0.092-0.008c0.124-0.338,0.185-0.667,0.186-0.919
		C52.202,5.521,52.102,5.23,51.918,5.023z"/>
	<path d="M64.147,8.336C64.316,8.159,64.4,7.914,64.4,7.65c0-0.28-0.1-0.53-0.253-0.685C63.979,6.789,63.763,6.7,63.5,6.7
		s-0.496,0.067-0.648,0.266C62.684,7.143,62.6,7.354,62.6,7.65c0,0.28,0.067,0.496,0.252,0.686C63.02,8.512,63.236,8.6,63.5,8.6
		C63.763,8.6,63.963,8.5,64.147,8.336z"/>
	<path d="M71.948,10.088c-0.263,0.309-0.481,0.51-0.62,0.677c-0.15,0.144-0.294,0.221-0.345,0.273
		c-0.08,0.037-0.176,0.056-0.228,0.056c-0.151,0-0.271-0.1-0.272-0.3h-0.544L69.628,12.2c0.155,0.062,0.344,0.094,0.598,0.094
		c0.269,0,0.458-0.034,0.647-0.097c0.164-0.063,0.304-0.198,0.505-0.333c0.174-0.158,0.38-0.415,0.661-0.736
		c0.267-0.332,0.652-0.91,1.222-1.642h0.078c0.036,0.347,0.122,0.815,0.295,1.5c0.088,0.367,0.175,0.636,0.302,0.811
		c0.115,0.173,0.235,0.272,0.405,0.378c0.155,0.079,0.34,0.119,0.567,0.119c0.403,0,0.732-0.134,1.044-0.33
		c0.293-0.219,0.607-0.608,0.983-1.137l-0.505-0.333c-0.25,0.383-0.461,0.616-0.572,0.738c-0.131,0.108-0.285,0.162-0.406,0.162
		c-0.078,0-0.163-0.032-0.206-0.041c-0.059-0.028-0.143-0.08-0.175-0.146c-0.057-0.07-0.114-0.174-0.159-0.312
		c-0.049-0.138-0.121-0.339-0.17-0.563c-0.065-0.239-0.147-0.551-0.222-0.894c-0.082-0.358-0.19-0.807-0.264-1.275l0.528-0.645
		c0.191-0.232,0.362-0.474,0.559-0.668c0.181-0.212,0.332-0.397,0.489-0.539c0.145-0.146,0.233-0.252,0.33-0.295
		c0.075-0.05,0.12-0.091,0.191-0.098c0.052-0.015,0.1-0.023,0.147-0.023c0.151,0,0.217,0.101,0.272,0.301h0.544l0.311-1.406
		c-0.155-0.062-0.365-0.094-0.598-0.094c-0.268,0-0.512,0-0.648,0.097c-0.163,0.063-0.357,0.165-0.508,0.331
		c-0.176,0.157-0.401,0.381-0.648,0.716c-0.257,0.32-0.666,0.806-1.13,1.52h-0.078c-0.046-0.321-0.118-0.642-0.159-0.929
		c-0.06-0.299-0.146-0.576-0.191-0.75c-0.066-0.201-0.156-0.362-0.209-0.478C73.387,5.087,73.3,4.985,73.21,4.917
		c-0.093-0.074-0.23-0.147-0.323-0.164c-0.121-0.037-0.284-0.055-0.422-0.055c-0.409,0-0.765,0.1-1.064,0.366
		c-0.3,0.242-0.634,0.587-0.939,1.1l0.505,0.334c0.171-0.258,0.281-0.458,0.411-0.57c0.103-0.122,0.177-0.23,0.286-0.256
		c0.088-0.048,0.167-0.073,0.297-0.073c0.098,0,0.177,0,0.244,0.059c0.065,0.039,0.096,0.086,0.183,0.208
		c0.057,0.099,0.127,0.277,0.217,0.633c0.088,0.322,0.153,0.656,0.256,1.044c0.084,0.373,0.163,0.759,0.241,1.166l-0.005-0.006
		C72.596,9.318,72.195,9.749,71.948,10.088z"/>
	<path d="M79.776,12.9c2.584,0,3.859-0.7,3.877-2.07c0-0.393-0.152-0.703-0.377-0.908c-0.25-0.213-0.642-0.32-1.1-0.32
		c-0.53,0-1.021,0.1-1.466,0.331c-0.447,0.222-0.85,0.511-1.145,0.923c-0.159,0.192-0.314,0.375-0.414,0.623
		c-0.117,0.221-0.234,0.428-0.294,0.681c-0.08,0.231-0.166,0.446-0.177,0.698c-0.037,0.232-0.064,0.446-0.056,0.672
		c0,0.307,0.025,0.563,0.122,0.826c0.081,0.244,0.199,0.426,0.356,0.623c0.157,0.17,0.323,0.276,0.578,0.389
		c0.229,0.088,0.467,0.133,0.784,0.133c0.502,0,0.947-0.133,1.408-0.319c0.436-0.213,0.845-0.541,1.311-0.952h0.002l-0.425-0.459
		c-0.177,0.181-0.363,0.324-0.509,0.467c-0.162,0.13-0.346,0.218-0.484,0.319c-0.161,0.083-0.35,0.132-0.491,0.185
		c-0.166,0.039-0.358,0.059-0.527,0.059c-0.354,0-0.637-0.1-0.784-0.286c-0.168-0.189-0.255-0.495-0.252-0.909
		c0-0.137-0.003-0.271,0.017-0.381C79.742,13.107,79.732,12.999,79.776,12.9z M79.889,12.299c0.099-0.318,0.203-0.619,0.369-0.867
		c0.147-0.259,0.294-0.503,0.489-0.662c0.18-0.182,0.364-0.339,0.573-0.422c0.202-0.098,0.396-0.147,0.614-0.147
		c0.222,0,0.378,0.034,0.509,0.194c0.118,0.127,0.171,0.295,0.177,0.533c0,0.198-0.073,0.355-0.156,0.545
		c-0.105,0.166-0.292,0.309-0.488,0.431c-0.221,0.12-0.512,0.187-0.85,0.286c-0.345,0.069-0.787,0.106-1.238,0.11L79.889,12.299z"/>
	<polygon points="94.288,2.7 94.288,7.2 90.057,7.2 90.057,8.2 94.288,8.2 94.288,12.7 95.391,12.7 95.391,8.2 99.622,8.2 
		99.622,7.2 95.391,7.2 95.391,2.7 	"/>
	<path d="M107.873,3.925c0.582-1.153,1.458-1.963,2.691-2.328l-0.211-0.598c-1.51,0.397-2.695,1.231-3.459,2.577
		c-0.796,1.32-1.194,2.895-1.194,4.777c0,1.87,0.366,3.452,1.189,4.777c0.794,1.315,1.93,2.171,3.464,2.569l0.187-0.599
		c-1.196-0.397-2.109-1.197-2.667-2.355C107.291,11.574,107,10.059,107,8.277V8.275C107,6.529,107.266,5.07,107.873,3.925z"/>
	<path d="M114.112,5.021c-0.189-0.216-0.459-0.323-0.772-0.323c-0.387,0-0.767,0.1-1.064,0.312
		c-0.321,0.208-0.745,0.537-1.195,1.054l0.444,0.434c0.31-0.341,0.537-0.607,0.733-0.705c0.178-0.13,0.326-0.195,0.509-0.195
		c0.144,0,0.223,0.034,0.317,0.14c0.068,0.091,0.074,0.212,0.102,0.444c0,0.112-0.027,0.251-0.031,0.424
		c-0.021,0.168-0.071,0.399-0.139,0.716l-1.127,4.877h1.344l0.737-3.339c0.108-0.483,0.219-0.903,0.406-1.195
		c0.163-0.312,0.372-0.669,0.656-0.979c0.275-0.339,0.498-0.602,0.742-0.748c0.219-0.158,0.395-0.238,0.609-0.238
		c0.119,0,0.192,0,0.294,0.068c0.078,0.045,0.119,0.122,0.203,0.241c0.057,0.116,0.097,0.28,0.131,0.491h0.8l0.373-1.716
		c-0.254-0.056-0.582-0.084-0.947-0.084c-0.483,0-0.961,0.133-1.427,0.48c-0.468,0.322-0.972,0.794-1.463,1.514l0.002-0.003
		l-0.1-0.023c0.098-0.275,0.116-0.564,0.147-0.802C114.396,5.52,114.298,5.229,114.112,5.021z"/>
	<polygon points="127.488,2.7 127.488,7.2 123.257,7.2 123.257,8.2 127.488,8.2 127.488,12.7 128.591,12.7 128.591,8.2 132.822,8.2 
		132.822,7.2 128.591,7.2 128.591,2.7 	"/>
	<path d="M138.573,10.993c0,0.381,0.076,0.684,0.302,0.938c0.202,0.245,0.444,0.367,0.808,0.367c0.394,0,0.733-0.1,1.067-0.289
		c0.319-0.192,0.702-0.562,1.231-1.077l-0.442-0.434c-0.321,0.351-0.6,0.584-0.745,0.714c-0.176,0.124-0.374,0.186-0.497,0.186
		c-0.145,0-0.277-0.065-0.319-0.139c-0.068-0.092-0.127-0.246-0.102-0.447c0-0.254,0.042-0.657,0.172-1.146l1.909-8.567h-0.458
		L139.543,1.2L139.449,1.6c0.275,0.016,0.458,0.016,0.57,0.078c0.106,0.035,0.166,0.076,0.245,0.174
		c0.057,0.079,0.069,0.195,0.086,0.352c0,0.139-0.017,0.271-0.039,0.452c-0.026,0.162-0.097,0.378-0.133,0.652l0.001-0.001
		l-1.389,6.188C138.645,10.148,138.549,10.617,138.573,10.993z"/>
	<path d="M145.627,12.748c-0.582,1.172-1.491,1.958-2.666,2.355l0.186,0.599c1.516-0.398,2.668-1.265,3.464-2.569
		c0.793-1.313,1.189-2.925,1.189-4.777c0-1.865-0.4-3.482-1.194-4.777c-0.795-1.32-1.963-2.18-3.459-2.577l-0.209,0.598
		c1.215,0.398,2.103,1.165,2.692,2.328c0.58,1.154,0.87,2.579,0.87,4.351v0.002C146.5,10.087,146.2,11.561,145.627,12.748z"/>
	<path d="M155.547,8.336c0.169-0.177,0.253-0.422,0.253-0.686c0-0.28-0.1-0.53-0.253-0.685C155.379,6.789,155.163,6.7,154.9,6.7
		c-0.263,0-0.496,0.067-0.648,0.266C154.084,7.143,154,7.354,154,7.65c0,0.28,0.067,0.496,0.252,0.686
		C154.42,8.512,154.636,8.6,154.9,8.6C155.163,8.6,155.363,8.5,155.547,8.336z"/>
	<path d="M160.895,11.819l0.148,0.381h5.62l0.473-2.2V9.999h-0.691c-0.197,0.416-0.379,0.716-0.494,0.916
		c-0.131,0.195-0.282,0.323-0.384,0.437c-0.124,0.096-0.279,0.145-0.434,0.196c-0.166,0.035-0.41,0.052-0.714,0.052h-1.755
		l-0.047-0.055c0.528-0.575,1.122-1.289,1.872-2.098l3.703-4.258l-0.148-0.39h-5.519l-0.458,2h0.691
		c0.176-0.328,0.324-0.595,0.477-0.758c0.143-0.177,0.264-0.324,0.4-0.399c0.124-0.09,0.246-0.171,0.372-0.188
		c0.125-0.037,0.29-0.055,0.591-0.055h1.817l0.047,0.055c-0.279,0.291-0.732,0.773-1.32,1.469L160.895,11.819z"/>
	<path d="M170.376,12.9c2.585,0,3.86-0.7,3.878-2.07c0-0.393-0.152-0.703-0.377-0.908c-0.25-0.213-0.642-0.32-1.1-0.32
		c-0.53,0-1.022,0.1-1.466,0.331c-0.447,0.222-0.85,0.511-1.145,0.923c-0.159,0.192-0.314,0.375-0.414,0.623
		c-0.117,0.221-0.234,0.428-0.294,0.681c-0.08,0.231-0.166,0.446-0.177,0.698c-0.037,0.232-0.065,0.446-0.056,0.672
		c0,0.307,0.025,0.563,0.122,0.826c0.081,0.244,0.199,0.426,0.356,0.623c0.157,0.17,0.323,0.276,0.578,0.389
		c0.228,0.088,0.467,0.133,0.784,0.133c0.502,0,0.947-0.133,1.408-0.319c0.436-0.213,0.845-0.541,1.311-0.952h0.002l-0.425-0.459
		c-0.177,0.181-0.363,0.324-0.509,0.467c-0.162,0.13-0.346,0.218-0.484,0.319c-0.161,0.083-0.35,0.132-0.491,0.185
		c-0.166,0.039-0.358,0.059-0.527,0.059c-0.354,0-0.637-0.1-0.784-0.286c-0.168-0.189-0.256-0.495-0.252-0.909
		c0-0.137-0.004-0.271,0.017-0.381C170.342,13.107,170.332,12.999,170.376,12.9z M170.489,12.299
		c0.099-0.318,0.203-0.619,0.369-0.867c0.147-0.259,0.294-0.503,0.489-0.662c0.18-0.182,0.364-0.339,0.573-0.422
		c0.202-0.098,0.396-0.147,0.614-0.147c0.222,0,0.378,0.034,0.509,0.194c0.118,0.127,0.171,0.295,0.177,0.533
		c0,0.198-0.073,0.355-0.156,0.545c-0.105,0.166-0.292,0.309-0.488,0.431c-0.221,0.12-0.512,0.187-0.85,0.286
		C171.381,12.259,170.939,12.296,170.489,12.299L170.489,12.299z"/>
	<rect x="39.846" y="19.158" width="136.08" height="1.035"/>
	<path d="M63.073,26.625c0.582-1.154,1.458-1.963,2.691-2.328l-0.211-0.598c-1.51,0.397-2.695,1.231-3.459,2.577
		c-0.796,1.319-1.194,2.895-1.194,4.776c0,1.871,0.366,3.453,1.189,4.778c0.794,1.315,1.93,2.171,3.464,2.569l0.187-0.599
		c-1.196-0.397-2.109-1.198-2.667-2.355c-0.582-1.173-0.873-2.688-0.873-4.47v-0.002C62.2,29.229,62.466,27.77,63.073,26.625z"/>
	<path d="M68.216,30.021l-1.127,4.877h1.344l0.737-3.34c0.108-0.482,0.219-0.902,0.406-1.194c0.163-0.313,0.372-0.669,0.656-0.979
		c0.275-0.339,0.498-0.602,0.742-0.748c0.219-0.159,0.396-0.239,0.609-0.239c0.119,0,0.192,0,0.294,0.069
		c0.078,0.045,0.119,0.122,0.203,0.241c0.057,0.116,0.097,0.28,0.131,0.491h0.8l0.373-1.716c-0.254-0.057-0.582-0.084-0.947-0.084
		c-0.483,0-0.961,0.133-1.427,0.48c-0.468,0.322-0.972,0.794-1.463,1.514l0.002-0.004l-0.1-0.022
		c0.098-0.275,0.116-0.565,0.147-0.802c0-0.348-0.098-0.638-0.284-0.846c-0.189-0.215-0.459-0.322-0.772-0.322
		c-0.387,0-0.767,0.1-1.064,0.312c-0.321,0.208-0.745,0.537-1.195,1.053l0.444,0.435c0.31-0.341,0.537-0.607,0.733-0.705
		c0.178-0.13,0.326-0.195,0.509-0.195c0.144,0,0.223,0.034,0.317,0.14c0.068,0.091,0.074,0.211,0.102,0.444
		c0,0.112-0.027,0.251-0.031,0.423C68.334,29.474,68.284,29.705,68.216,30.021z"/>
	<rect x="78.456" y="29.9" width="9.566" height="1"/>
	<path d="M93.773,33.693c0,0.381,0.076,0.684,0.302,0.938c0.202,0.245,0.444,0.367,0.808,0.367c0.394,0,0.733-0.101,1.067-0.289
		c0.319-0.192,0.702-0.563,1.23-1.077l-0.441-0.434c-0.321,0.351-0.6,0.584-0.745,0.714c-0.176,0.124-0.374,0.186-0.497,0.186
		c-0.145,0-0.277-0.065-0.319-0.139c-0.068-0.092-0.127-0.246-0.102-0.448c0-0.253,0.042-0.656,0.172-1.145l1.909-8.567h-0.458
		L94.743,23.9L94.649,24.3c0.275,0.015,0.458,0.015,0.57,0.078c0.106,0.035,0.166,0.076,0.245,0.173
		c0.057,0.08,0.069,0.196,0.086,0.353c0,0.139-0.017,0.271-0.039,0.452c-0.025,0.162-0.097,0.377-0.133,0.652l0.001-0.001
		l-1.389,6.188C93.845,32.849,93.749,33.317,93.773,33.693z"/>
	<path d="M100.727,35.448c-0.582,1.172-1.491,1.958-2.666,2.355l0.186,0.599c1.516-0.398,2.668-1.266,3.464-2.569
		c0.793-1.313,1.189-2.925,1.189-4.778c0-1.865-0.4-3.481-1.194-4.776c-0.795-1.32-1.963-2.18-3.459-2.577l-0.209,0.598
		c1.215,0.398,2.103,1.165,2.692,2.328c0.58,1.154,0.87,2.579,0.87,4.35v0.002C101.6,32.787,101.3,34.261,100.727,35.448z"/>
	<path d="M109.452,29.666c-0.168,0.176-0.252,0.387-0.252,0.684c0,0.281,0.067,0.497,0.252,0.687
		c0.168,0.176,0.384,0.264,0.648,0.264c0.263,0,0.463-0.1,0.647-0.264c0.169-0.177,0.253-0.422,0.253-0.687
		c0-0.279-0.1-0.529-0.253-0.684c-0.168-0.177-0.384-0.266-0.647-0.266C109.837,29.4,109.604,29.467,109.452,29.666z"/>
	<path fill="#FF0000" d="M119.473,26.625c0.582-1.154,1.458-1.963,2.691-2.328l-0.211-0.598c-1.51,0.397-2.695,1.231-3.459,2.577
		c-0.796,1.319-1.194,2.895-1.194,4.776c0,1.871,0.366,3.453,1.189,4.778c0.794,1.315,1.93,2.171,3.464,2.569l0.187-0.599
		c-1.196-0.397-2.109-1.198-2.667-2.355c-0.582-1.173-0.873-2.688-0.873-4.47v-0.002C118.6,29.229,118.866,27.77,119.473,26.625z"/>
	<rect x="123.756" y="29.9" fill="#FF0000" width="9.566" height="1"/>
	<path fill="#FF0000" d="M141.992,27.889l-0.148-0.389h-5.519l-0.458,2h0.691c0.176-0.328,0.324-0.595,0.477-0.758
		c0.143-0.178,0.264-0.324,0.4-0.4c0.124-0.089,0.246-0.17,0.372-0.187c0.125-0.037,0.29-0.056,0.591-0.056h1.817l0.047,0.056
		c-0.279,0.291-0.732,0.772-1.32,1.469l-4.247,4.896l0.148,0.381h5.62l0.473-2.2v-0.001h-0.691
		c-0.197,0.416-0.379,0.716-0.494,0.916c-0.131,0.195-0.282,0.322-0.384,0.436c-0.124,0.096-0.279,0.146-0.434,0.197
		c-0.166,0.035-0.41,0.052-0.714,0.052h-1.755l-0.047-0.055c0.528-0.575,1.122-1.289,1.872-2.099L141.992,27.889z"/>
	<path fill="#FF0000" d="M144.076,35.6c2.585,0,3.86-0.699,3.878-2.069c0-0.394-0.152-0.703-0.377-0.908
		c-0.25-0.213-0.642-0.32-1.1-0.32c-0.53,0-1.022,0.1-1.466,0.331c-0.447,0.221-0.85,0.51-1.145,0.922
		c-0.159,0.193-0.314,0.375-0.414,0.623c-0.117,0.221-0.234,0.428-0.294,0.682c-0.08,0.231-0.166,0.445-0.177,0.697
		c-0.037,0.233-0.065,0.447-0.056,0.672c0,0.308,0.025,0.564,0.122,0.827c0.081,0.244,0.199,0.425,0.356,0.622
		c0.157,0.17,0.323,0.277,0.578,0.39c0.228,0.088,0.467,0.133,0.784,0.133c0.502,0,0.947-0.133,1.408-0.319
		c0.436-0.213,0.845-0.541,1.311-0.953h0.002l-0.425-0.459c-0.177,0.182-0.363,0.325-0.509,0.467
		c-0.162,0.131-0.346,0.219-0.484,0.32c-0.161,0.083-0.35,0.131-0.491,0.184c-0.166,0.039-0.358,0.06-0.527,0.06
		c-0.354,0-0.637-0.101-0.784-0.286c-0.168-0.189-0.256-0.495-0.252-0.909c0-0.137-0.004-0.271,0.017-0.381
		C144.042,35.807,144.032,35.699,144.076,35.6z M144.189,34.999c0.099-0.319,0.203-0.619,0.369-0.867
		c0.147-0.259,0.294-0.503,0.489-0.662c0.18-0.182,0.364-0.339,0.573-0.422c0.202-0.098,0.396-0.147,0.614-0.147
		c0.222,0,0.378,0.033,0.509,0.193c0.118,0.128,0.171,0.296,0.177,0.534c0,0.198-0.073,0.354-0.156,0.545
		c-0.105,0.166-0.292,0.308-0.488,0.431c-0.221,0.12-0.512,0.187-0.85,0.285C145.081,34.959,144.639,34.996,144.189,34.999
		L144.189,34.999z"/>
	<path fill="#FF0000" d="M152.627,35.448c-0.582,1.172-1.491,1.958-2.666,2.355l0.186,0.599c1.516-0.398,2.668-1.266,3.464-2.569
		c0.793-1.313,1.189-2.925,1.189-4.778c0-1.865-0.4-3.481-1.194-4.776c-0.795-1.32-1.963-2.18-3.459-2.577l-0.209,0.598
		c1.215,0.398,2.103,1.165,2.692,2.328c0.58,1.154,0.87,2.579,0.87,4.35v0.002C153.5,32.787,153.2,34.261,152.627,35.448z"/>
	<path d="M212.09,25.845c-0.398,0.37-0.762,0.557-1.047,0.557c-0.229,0-0.343-0.167-0.342-0.5h-0.614l-0.333,1.5
		c0.077,0.029,0.159,0.029,0.33,0.071c0.143,0.02,0.248,0.028,0.377,0.028c0.314,0,0.596-0.067,0.893-0.169
		c0.352-0.149,0.699-0.426,1.095-0.739c0.544-0.502,1.194-1.333,2.042-2.436c0.854-1.179,1.591-2.364,2.275-3.552
		c0.672-1.215,1.184-2.384,1.598-3.42l-0.209-0.385h-2.043l-0.076,0.4c0.248,0.015,0.402,0.049,0.527,0.152
		c0.104,0.088,0.149,0.235,0.155,0.489c0,0.315-0.106,0.701-0.229,1.231c-0.152,0.504-0.415,1.079-0.754,1.781
		c-0.35,0.683-0.795,1.364-1.276,2.095c-0.084-0.621-0.203-1.306-0.3-2.023c-0.115-0.727-0.235-1.436-0.359-2.077
		c-0.072-0.392-0.139-0.709-0.197-0.902c-0.06-0.21-0.16-0.426-0.209-0.566c-0.082-0.169-0.179-0.329-0.277-0.394
		c-0.104-0.095-0.208-0.191-0.309-0.203c-0.152-0.056-0.354-0.084-0.545-0.084c-0.384,0-0.738,0.1-1.041,0.331
		c-0.311,0.221-0.652,0.576-1.002,1.134l0.506,0.334c0.213-0.331,0.371-0.563,0.535-0.698c0.145-0.135,0.291-0.202,0.467-0.202
		c0.107,0,0.166,0.034,0.271,0.101c0.119,0.106,0.22,0.34,0.341,0.74c0.089,0.322,0.242,1.143,0.544,2.503
		c0.26,1.26,0.432,2.312,0.614,3.227l-0.001,0.001C212.958,24.916,212.459,25.459,212.09,25.845z"/>
	<polygon points="222.292,12.743 222.292,12.303 220.832,12.303 219.744,17.104 220.406,17.301 	"/>
	<polygon points="222.292,12.302 222.292,12.303 222.293,12.303 	"/>
	<path d="M219.327,26.604c0,0.618,0.091,1.084,0.366,1.414c0.246,0.322,0.582,0.483,1.045,0.483c0.195,0,0.384-0.034,0.566-0.086
		c0.18-0.058,0.346-0.161,0.536-0.269c0.179-0.123,0.332-0.306,0.539-0.47c0.181-0.188,0.354-0.448,0.562-0.687l0.08,0.033
		c-0.054,0.155-0.094,0.314-0.08,0.489c0,0.307,0.054,0.535,0.227,0.724c0.15,0.176,0.361,0.264,0.634,0.264
		c0.15,0,0.284-0.033,0.435-0.062c0.14-0.041,0.262-0.12,0.427-0.202c0.146-0.095,0.292-0.238,0.45-0.356
		c0.154-0.144,0.318-0.337,0.517-0.506c-0.062-0.061-0.137-0.151-0.188-0.184c-0.064-0.062-0.145-0.158-0.188-0.19
		c-0.117,0.125-0.234,0.225-0.314,0.32c-0.092,0.089-0.205,0.148-0.254,0.219c-0.078,0.056-0.172,0.077-0.217,0.123
		c-0.064,0.026-0.154,0.039-0.197,0.039c-0.109,0-0.199-0.033-0.254-0.095c-0.059-0.063-0.098-0.199-0.088-0.309
		c0-0.104-0.01-0.236,0.025-0.353c0.018-0.132,0.033-0.313,0.105-0.527h0.004l1.312-5.716h-0.289l-1.688,0.1l-0.072,0.4
		c0.148,0.008,0.24,0.007,0.365,0.033c0.097,0.014,0.168,0.035,0.224,0.068c0.053,0.031,0.082,0.064,0.11,0.122
		c0.021,0.049,0.014,0.107,0.031,0.185c0,0.089-0.019,0.186-0.037,0.333c-0.024,0.132-0.064,0.251-0.095,0.434
		c-0.038,0.158-0.112,0.332-0.151,0.591c-0.19-0.146-0.414-0.269-0.596-0.292c-0.207-0.048-0.466-0.073-0.686-0.073
		c-0.282,0-0.579,0.033-0.82,0.145c-0.264,0.096-0.521,0.214-0.748,0.406c-0.232,0.174-0.474,0.356-0.645,0.628
		c-0.196,0.243-0.389,0.483-0.506,0.811c-0.143,0.297-0.267,0.601-0.33,0.955C219.365,25.885,219.318,26.236,219.327,26.604z
		 M220.52,25.758c0.043-0.258,0.104-0.512,0.191-0.758c0.085-0.247,0.182-0.48,0.314-0.695c0.125-0.217,0.25-0.419,0.425-0.572
		c0.159-0.166,0.31-0.311,0.524-0.392c0.19-0.094,0.366-0.142,0.621-0.142c0.301,0,0.504,0.033,0.658,0.188
		c0.137,0.127,0.186,0.33,0.206,0.642c0,0.167-0.021,0.324-0.052,0.552c-0.034,0.2-0.104,0.373-0.113,0.602l0.001-0.001
		c-0.084,0.391-0.215,0.729-0.375,1.054c-0.165,0.312-0.372,0.566-0.545,0.794c-0.198,0.216-0.423,0.373-0.614,0.498
		c-0.212,0.115-0.432,0.172-0.578,0.172c-0.256,0-0.451-0.101-0.558-0.292c-0.114-0.195-0.19-0.498-0.173-0.895
		C220.453,26.268,220.469,25.997,220.52,25.758z"/>
	<rect x="232.855" y="17.6" width="9.566" height="1"/>
	<rect x="232.855" y="20.8" width="9.566" height="1"/>
	<path d="M255.305,5.657c-0.14,0.27-0.375,0.584-0.642,0.959c-0.261,0.34-0.715,0.834-1.281,1.497
		c-0.687,0.766-1.247,1.428-1.591,1.997c-0.375,0.565-0.671,1.095-0.891,1.657v0.432h6.272l0.134-2.301h-0.701
		c-0.08,0.238-0.148,0.405-0.197,0.527c-0.053,0.114-0.155,0.205-0.215,0.277c-0.088,0.072-0.221,0.104-0.358,0.152
		c-0.149,0.029-0.36,0.045-0.591,0.045h-2.821c0.453-0.771,1.146-1.704,2.134-2.705c0.574-0.617,0.957-1.082,1.213-1.322
		c0.234-0.264,0.444-0.555,0.643-0.781c0.193-0.257,0.322-0.521,0.462-0.72c0.115-0.224,0.19-0.481,0.252-0.678
		c0.054-0.229,0.079-0.494,0.081-0.752c0-0.794-0.27-1.408-0.732-1.816c-0.49-0.418-1.215-0.627-2.166-0.627
		c-0.434,0-0.937,0.033-1.463,0.195c-0.541,0.13-1.123,0.331-1.746,0.63v1.475h0.932c0.335-1.066,0.957-1.6,1.949-1.6
		c0.388,0,0.694,0.066,0.965,0.255c0.255,0.169,0.439,0.385,0.568,0.698c0.125,0.295,0.187,0.609,0.187,1.02
		c0,0.242-0.033,0.451-0.093,0.723C255.546,5.133,255.443,5.368,255.305,5.657z"/>
	<path d="M261.918,5.023c-0.189-0.216-0.461-0.323-0.771-0.323c-0.398,0-0.78,0.1-1.072,0.312c-0.316,0.208-0.741,0.537-1.188,1.054
		l0.442,0.434c0.311-0.341,0.535-0.607,0.734-0.705c0.178-0.13,0.323-0.195,0.508-0.195c0.146,0,0.223,0.034,0.318,0.14
		c0.068,0.091,0.072,0.212,0.103,0.444c0,0.268-0.064,0.64-0.173,1.14l-0.002-0.003l-1.133,4.877h1.344l0.738-3.342
		c0.107-0.479,0.219-0.899,0.418-1.209c0.172-0.326,0.377-0.677,0.681-1.011c0.282-0.348,0.526-0.628,0.8-0.78
		c0.251-0.172,0.463-0.259,0.702-0.259c0.27,0,0.446,0.066,0.583,0.234c0.119,0.157,0.169,0.412,0.178,0.766
		c0,0.145-0.043,0.312-0.059,0.563c-0.037,0.23-0.129,0.576-0.244,1.068l-0.342,1.33c-0.17,0.647-0.265,1.127-0.256,1.471
		c0,0.369,0.092,0.658,0.303,0.91c0.201,0.239,0.459,0.358,0.808,0.358c0.425,0,0.779-0.133,1.134-0.328
		c0.331-0.218,0.707-0.575,1.164-1.037l-0.441-0.434c-0.321,0.351-0.586,0.584-0.745,0.714c-0.177,0.124-0.359,0.186-0.497,0.186
		c-0.145,0-0.262-0.065-0.319-0.137c-0.067-0.092-0.11-0.247-0.1-0.444c0-0.23,0.055-0.637,0.209-1.184l0.505-2.011
		c0.15-0.592,0.201-1.067,0.225-1.373c0-0.485-0.156-0.869-0.389-1.139c-0.258-0.274-0.652-0.411-1.109-0.411
		c-0.486,0-0.978,0.167-1.416,0.514c-0.459,0.343-0.943,0.838-1.449,1.581l-0.092-0.008c0.125-0.338,0.186-0.667,0.187-0.919
		C262.202,5.521,262.102,5.23,261.918,5.023z"/>
	<path d="M274.247,8.336c0.169-0.177,0.253-0.422,0.253-0.686c0-0.28-0.1-0.53-0.253-0.685C274.079,6.789,273.863,6.7,273.6,6.7
		c-0.263,0-0.496,0.067-0.647,0.266c-0.168,0.177-0.252,0.388-0.252,0.685c0,0.28,0.067,0.496,0.252,0.686
		C273.12,8.512,273.336,8.6,273.6,8.6S274.062,8.5,274.247,8.336z"/>
	<path d="M281.891,13.845c-0.398,0.37-0.763,0.557-1.048,0.557c-0.228,0-0.343-0.167-0.342-0.5h-0.614l-0.332,1.5
		c0.076,0.029,0.158,0.029,0.329,0.071c0.144,0.02,0.248,0.028,0.377,0.028c0.315,0,0.595-0.067,0.892-0.169
		c0.353-0.149,0.701-0.426,1.096-0.739c0.544-0.502,1.193-1.333,2.042-2.436c0.854-1.179,1.591-2.364,2.274-3.552
		c0.672-1.215,1.185-2.384,1.599-3.42l-0.209-0.385h-2.042l-0.077,0.4c0.248,0.015,0.403,0.049,0.526,0.152
		c0.104,0.088,0.15,0.235,0.156,0.489c0,0.315-0.106,0.701-0.229,1.231c-0.152,0.504-0.415,1.079-0.753,1.781
		c-0.35,0.683-0.795,1.364-1.277,2.095c-0.084-0.621-0.203-1.306-0.3-2.023c-0.115-0.727-0.235-1.436-0.358-2.077
		c-0.074-0.392-0.14-0.709-0.199-0.902c-0.059-0.21-0.159-0.426-0.209-0.566c-0.08-0.169-0.178-0.329-0.276-0.394
		c-0.103-0.095-0.208-0.191-0.31-0.203c-0.15-0.056-0.353-0.084-0.543-0.084c-0.385,0-0.738,0.1-1.041,0.331
		c-0.312,0.221-0.652,0.576-1.002,1.134l0.504,0.334c0.213-0.331,0.371-0.563,0.537-0.698c0.145-0.135,0.291-0.202,0.465-0.202
		c0.108,0,0.166,0.034,0.272,0.101c0.119,0.106,0.22,0.34,0.341,0.74c0.09,0.322,0.242,1.143,0.545,2.503
		c0.258,1.26,0.432,2.312,0.613,3.227l-0.001,0.001C282.758,12.916,282.259,13.459,281.891,13.845z"/>
	<path d="M290.275,12.9c2.586,0,3.86-0.7,3.879-2.07c0-0.393-0.152-0.703-0.377-0.908c-0.25-0.213-0.643-0.32-1.101-0.32
		c-0.53,0-1.022,0.1-1.466,0.331c-0.447,0.222-0.85,0.511-1.145,0.923c-0.159,0.192-0.314,0.375-0.414,0.623
		c-0.117,0.221-0.234,0.428-0.295,0.681c-0.08,0.231-0.166,0.446-0.176,0.698c-0.037,0.232-0.065,0.446-0.057,0.672
		c0,0.307,0.025,0.563,0.122,0.826c0.081,0.244,0.198,0.426,0.356,0.623c0.156,0.17,0.322,0.276,0.578,0.389
		c0.228,0.088,0.467,0.133,0.783,0.133c0.502,0,0.947-0.133,1.408-0.319c0.436-0.213,0.845-0.541,1.311-0.952h0.002l-0.425-0.459
		c-0.177,0.181-0.362,0.324-0.509,0.467c-0.162,0.13-0.346,0.218-0.484,0.319c-0.16,0.083-0.35,0.132-0.49,0.185
		c-0.166,0.039-0.358,0.059-0.527,0.059c-0.354,0-0.637-0.1-0.784-0.286c-0.168-0.189-0.256-0.495-0.252-0.909
		c0-0.137-0.004-0.271,0.017-0.381C290.242,13.107,290.232,12.999,290.275,12.9z M290.389,12.299c0.1-0.318,0.203-0.619,0.369-0.867
		c0.146-0.259,0.294-0.503,0.489-0.662c0.18-0.182,0.364-0.339,0.573-0.422c0.201-0.098,0.396-0.147,0.613-0.147
		c0.223,0,0.379,0.034,0.51,0.194c0.117,0.127,0.171,0.295,0.177,0.533c0,0.198-0.073,0.355-0.156,0.545
		c-0.104,0.166-0.292,0.309-0.487,0.431c-0.222,0.12-0.513,0.187-0.851,0.286C291.281,12.259,290.839,12.296,290.389,12.299
		L290.389,12.299z"/>
	<polygon points="304.788,2.7 304.788,7.2 300.557,7.2 300.557,8.2 304.788,8.2 304.788,12.7 305.891,12.7 305.891,8.2 310.122,8.2 
		310.122,7.2 305.891,7.2 305.891,2.7 	"/>
	<path d="M318.373,3.925c0.582-1.153,1.458-1.963,2.691-2.328l-0.212-0.598c-1.51,0.397-2.694,1.231-3.459,2.577
		c-0.796,1.32-1.193,2.895-1.193,4.777c0,1.87,0.366,3.452,1.188,4.777c0.794,1.315,1.931,2.171,3.464,2.569l0.188-0.599
		c-1.196-0.397-2.109-1.197-2.667-2.355c-0.582-1.172-0.873-2.688-0.873-4.469V8.275C317.5,6.529,317.766,5.07,318.373,3.925z"/>
	<path d="M324.536,2.901c-0.165,0.531-0.311,0.897-0.373,1.116c-0.082,0.211-0.17,0.373-0.256,0.524
		c-0.088,0.137-0.19,0.223-0.291,0.315c-0.106,0.073-0.245,0.121-0.397,0.174c-0.158,0.041-0.396,0.064-0.693,0.07l-0.117,0.5h1.305
		l-0.916,3.991c-0.089,0.379-0.154,0.715-0.133,1.084c0,1.082,0.511,1.623,1.623,1.623c0.455,0,0.86-0.133,1.308-0.372
		c0.416-0.248,0.818-0.656,1.3-1.152l-0.449-0.476c-0.354,0.402-0.668,0.668-0.913,0.853c-0.256,0.165-0.501,0.248-0.726,0.248
		c-0.533,0-0.803-0.333-0.8-0.953c0-0.153-0.003-0.369,0.053-0.612c0.037-0.254,0.116-0.699,0.259-1.25l0.69-2.983h2.359
		l0.172-0.801h-2.361l0.428-1.899H324.536z"/>
	<polygon points="336.688,2.7 336.688,7.2 332.457,7.2 332.457,8.2 336.688,8.2 336.688,12.7 337.791,12.7 337.791,8.2 342.022,8.2 
		342.022,7.2 337.791,7.2 337.791,2.7 	"/>
	<path d="M347.414,12.177l0.497,0.123l0.714-0.494l0.002,0.001c0.533,0.33,1.125,0.494,1.833,0.494c0.755,0,1.437-0.267,2.048-0.719
		c0.612-0.48,1.076-1.141,1.434-1.947c0.344-0.816,0.498-1.662,0.517-2.495c0-0.774-0.185-1.388-0.47-1.8
		c-0.313-0.426-0.775-0.639-1.316-0.639c-0.439,0-0.896,0.133-1.32,0.447c-0.439,0.3-0.924,0.783-1.412,1.453l-0.103-0.03
		l1.367-5.47h-0.45l-1.964,0.1l-0.094,0.4c0.341,0.011,0.576,0.043,0.709,0.146c0.132,0.087,0.196,0.238,0.197,0.456
		c0,0.237-0.067,0.602-0.178,1.142L347.414,12.177z M349.85,7.727c0.187-0.381,0.402-0.756,0.723-1.112
		c0.296-0.362,0.538-0.634,0.805-0.778c0.241-0.157,0.481-0.236,0.733-0.236c0.337,0,0.565,0.135,0.732,0.402
		c0.153,0.268,0.205,0.666,0.23,1.2c0,0.396-0.059,0.795-0.125,1.245c-0.082,0.433-0.198,0.817-0.349,1.22
		c-0.149,0.379-0.316,0.69-0.493,0.958c-0.179,0.259-0.382,0.451-0.566,0.628c-0.199,0.16-0.413,0.242-0.586,0.344
		c-0.192,0.069-0.41,0.104-0.606,0.104c-0.414,0-0.729-0.101-0.889-0.27c-0.178-0.18-0.298-0.491-0.267-0.878
		c0-0.339,0.035-0.689,0.116-1.048l-0.001-0.001l0.069-0.323C349.505,8.59,349.646,8.096,349.85,7.727z"/>
	<path d="M358.327,12.748c-0.582,1.172-1.491,1.958-2.666,2.355l0.186,0.599c1.517-0.398,2.668-1.265,3.464-2.569
		c0.793-1.313,1.189-2.925,1.189-4.777c0-1.865-0.4-3.482-1.194-4.777c-0.795-1.32-1.963-2.18-3.459-2.577l-0.209,0.598
		c1.215,0.398,2.104,1.165,2.692,2.328c0.58,1.154,0.87,2.579,0.87,4.351v0.002C359.2,10.087,358.9,11.561,358.327,12.748z"/>
	<path d="M368.347,8.336c0.169-0.177,0.253-0.422,0.253-0.686c0-0.28-0.1-0.53-0.253-0.685C368.179,6.789,367.963,6.7,367.7,6.7
		s-0.496,0.067-0.648,0.266c-0.168,0.177-0.252,0.388-0.252,0.685c0,0.28,0.067,0.496,0.252,0.686
		C367.22,8.512,367.436,8.6,367.7,8.6C367.963,8.6,368.163,8.5,368.347,8.336z"/>
	<path d="M373.695,11.819l0.147,0.381h5.62l0.473-2.2V9.999h-0.69c-0.197,0.416-0.379,0.716-0.494,0.916
		c-0.131,0.195-0.282,0.323-0.384,0.437c-0.124,0.096-0.279,0.145-0.435,0.196c-0.166,0.035-0.409,0.052-0.714,0.052h-1.755
		l-0.047-0.055c0.528-0.575,1.122-1.289,1.872-2.098l3.703-4.258l-0.148-0.39h-5.519l-0.458,2h0.69
		c0.177-0.328,0.324-0.595,0.478-0.758c0.143-0.177,0.264-0.324,0.399-0.399c0.124-0.09,0.246-0.171,0.372-0.188
		c0.125-0.037,0.29-0.055,0.592-0.055h1.816l0.047,0.055c-0.278,0.291-0.731,0.773-1.319,1.469L373.695,11.819z"/>
	<path d="M383.076,12.9c2.585,0,3.859-0.7,3.878-2.07c0-0.393-0.152-0.703-0.377-0.908c-0.25-0.213-0.643-0.32-1.101-0.32
		c-0.529,0-1.021,0.1-1.466,0.331c-0.446,0.222-0.85,0.511-1.145,0.923c-0.159,0.192-0.314,0.375-0.414,0.623
		c-0.117,0.221-0.234,0.428-0.294,0.681c-0.08,0.231-0.166,0.446-0.177,0.698c-0.037,0.232-0.065,0.446-0.057,0.672
		c0,0.307,0.025,0.563,0.122,0.826c0.081,0.244,0.199,0.426,0.356,0.623c0.156,0.17,0.322,0.276,0.578,0.389
		c0.228,0.088,0.467,0.133,0.783,0.133c0.502,0,0.947-0.133,1.408-0.319c0.437-0.213,0.845-0.541,1.312-0.952h0.002l-0.426-0.459
		c-0.177,0.181-0.362,0.324-0.509,0.467c-0.162,0.13-0.346,0.218-0.483,0.319c-0.161,0.083-0.351,0.132-0.491,0.185
		c-0.166,0.039-0.358,0.059-0.527,0.059c-0.354,0-0.637-0.1-0.784-0.286c-0.168-0.189-0.256-0.495-0.252-0.909
		c0-0.137-0.004-0.271,0.018-0.381C383.042,13.107,383.032,12.999,383.076,12.9z M383.189,12.299
		c0.099-0.318,0.202-0.619,0.368-0.867c0.147-0.259,0.294-0.503,0.489-0.662c0.18-0.182,0.364-0.339,0.573-0.422
		c0.202-0.098,0.396-0.147,0.614-0.147c0.222,0,0.378,0.034,0.509,0.194c0.118,0.127,0.171,0.295,0.177,0.533
		c0,0.198-0.073,0.355-0.156,0.545c-0.104,0.166-0.292,0.309-0.487,0.431c-0.222,0.12-0.513,0.187-0.851,0.286
		c-0.345,0.069-0.787,0.106-1.238,0.11L383.189,12.299z"/>
	<rect x="249.91" y="19.158" width="138.784" height="1.035"/>
	<path d="M273.373,26.625c0.582-1.154,1.458-1.963,2.691-2.328l-0.211-0.598c-1.511,0.397-2.695,1.231-3.459,2.577
		c-0.797,1.319-1.194,2.895-1.194,4.776c0,1.871,0.366,3.453,1.188,4.778c0.795,1.315,1.93,2.171,3.465,2.569l0.187-0.599
		c-1.196-0.397-2.108-1.198-2.667-2.355c-0.582-1.173-0.873-2.688-0.873-4.47v-0.002C272.5,29.229,272.766,27.77,273.373,26.625z"/>
	<path d="M279.436,25.602c-0.164,0.531-0.31,0.897-0.373,1.115c-0.082,0.212-0.17,0.374-0.256,0.525
		c-0.088,0.137-0.189,0.223-0.291,0.315c-0.105,0.073-0.244,0.121-0.396,0.173c-0.158,0.041-0.396,0.065-0.694,0.07l-0.116,0.5
		h1.305l-0.916,3.992c-0.09,0.379-0.154,0.715-0.133,1.084c0,1.082,0.511,1.623,1.623,1.623c0.455,0,0.859-0.133,1.308-0.372
		c0.416-0.248,0.817-0.657,1.3-1.153L281.346,33c-0.354,0.402-0.669,0.668-0.914,0.852c-0.256,0.166-0.5,0.248-0.725,0.248
		c-0.534,0-0.803-0.332-0.8-0.953c0-0.152-0.003-0.368,0.053-0.611c0.037-0.254,0.116-0.699,0.258-1.25l0.691-2.984h2.358l0.172-0.8
		h-2.36l0.427-1.899H279.436z"/>
	<rect x="287.456" y="29.9" width="9.565" height="1"/>
	<path d="M302.414,34.877L302.911,35l0.714-0.494l0.002,0.001c0.533,0.33,1.125,0.494,1.833,0.494c0.755,0,1.437-0.267,2.048-0.719
		c0.612-0.48,1.076-1.142,1.434-1.947c0.344-0.817,0.498-1.662,0.517-2.495c0-0.775-0.185-1.388-0.47-1.8
		c-0.313-0.426-0.775-0.639-1.316-0.639c-0.439,0-0.896,0.133-1.32,0.447c-0.439,0.3-0.924,0.783-1.412,1.453l-0.103-0.03
		l1.367-5.471h-0.45l-1.964,0.101l-0.095,0.399c0.342,0.012,0.576,0.044,0.709,0.147c0.133,0.087,0.197,0.237,0.199,0.456
		c0,0.236-0.068,0.602-0.179,1.142L302.414,34.877z M304.85,30.426c0.187-0.38,0.402-0.755,0.723-1.111
		c0.296-0.362,0.538-0.634,0.805-0.778c0.241-0.157,0.481-0.236,0.733-0.236c0.337,0,0.565,0.134,0.732,0.402
		c0.153,0.267,0.205,0.666,0.23,1.2c0,0.396-0.059,0.795-0.125,1.244c-0.082,0.434-0.198,0.818-0.349,1.221
		c-0.149,0.379-0.316,0.689-0.493,0.958c-0.179,0.259-0.382,0.451-0.566,0.628c-0.199,0.16-0.413,0.242-0.586,0.344
		c-0.192,0.069-0.41,0.104-0.606,0.104c-0.414,0-0.729-0.101-0.889-0.27c-0.178-0.18-0.298-0.491-0.268-0.878
		c0-0.339,0.037-0.69,0.117-1.048v-0.001l0.068-0.323C304.505,31.29,304.646,30.796,304.85,30.426z"/>
	<path d="M313.327,35.448c-0.582,1.172-1.491,1.958-2.666,2.355l0.186,0.599c1.517-0.398,2.668-1.266,3.464-2.569
		c0.793-1.313,1.189-2.925,1.189-4.778c0-1.865-0.4-3.481-1.194-4.776c-0.795-1.32-1.963-2.18-3.459-2.577l-0.209,0.598
		c1.215,0.398,2.104,1.165,2.692,2.328c0.58,1.154,0.87,2.579,0.87,4.35v0.002C314.2,32.787,313.9,34.261,313.327,35.448z"/>
	<path d="M323.347,31.036c0.169-0.177,0.253-0.422,0.253-0.687c0-0.279-0.1-0.529-0.253-0.684c-0.168-0.177-0.384-0.266-0.646-0.266
		s-0.496,0.066-0.648,0.266c-0.168,0.176-0.252,0.387-0.252,0.684c0,0.281,0.067,0.497,0.252,0.687
		c0.168,0.176,0.384,0.264,0.648,0.264C322.963,31.3,323.163,31.2,323.347,31.036z"/>
	<path fill="#FF0000" d="M332.073,26.625c0.582-1.154,1.458-1.963,2.69-2.328l-0.211-0.598c-1.51,0.397-2.694,1.231-3.459,2.577
		c-0.796,1.319-1.193,2.895-1.193,4.776c0,1.871,0.365,3.453,1.188,4.778c0.794,1.315,1.93,2.171,3.464,2.569l0.188-0.599
		c-1.196-0.397-2.109-1.198-2.667-2.355c-0.582-1.173-0.873-2.688-0.873-4.47v-0.002C331.2,29.229,331.466,27.77,332.073,26.625z"/>
	<rect x="336.256" y="29.9" fill="#FF0000" width="9.565" height="1"/>
	<path fill="#FF0000" d="M347.195,34.52l0.147,0.381h5.62l0.473-2.2v-0.001h-0.69c-0.197,0.416-0.379,0.716-0.494,0.916
		c-0.131,0.195-0.282,0.322-0.384,0.436c-0.124,0.096-0.279,0.146-0.435,0.197c-0.166,0.035-0.409,0.052-0.714,0.052h-1.755
		l-0.047-0.055c0.528-0.575,1.122-1.289,1.872-2.099l3.703-4.258l-0.148-0.389h-5.519l-0.458,2h0.69
		c0.177-0.328,0.324-0.595,0.478-0.758c0.143-0.178,0.264-0.324,0.399-0.4c0.124-0.089,0.246-0.17,0.372-0.187
		c0.125-0.037,0.29-0.056,0.592-0.056h1.816l0.047,0.056c-0.278,0.291-0.731,0.772-1.319,1.469L347.195,34.52z"/>
	<path fill="#FF0000" d="M356.576,35.6c2.585,0,3.859-0.699,3.878-2.069c0-0.394-0.152-0.703-0.377-0.908
		c-0.25-0.213-0.643-0.32-1.101-0.32c-0.529,0-1.021,0.1-1.466,0.331c-0.446,0.221-0.85,0.51-1.145,0.922
		c-0.159,0.193-0.314,0.375-0.414,0.623c-0.117,0.221-0.234,0.428-0.294,0.682c-0.08,0.231-0.166,0.445-0.177,0.697
		c-0.037,0.233-0.065,0.447-0.057,0.672c0,0.308,0.025,0.564,0.122,0.827c0.081,0.244,0.199,0.425,0.356,0.622
		c0.156,0.17,0.322,0.277,0.578,0.39c0.228,0.088,0.467,0.133,0.783,0.133c0.502,0,0.947-0.133,1.408-0.319
		c0.437-0.213,0.845-0.541,1.312-0.953h0.002l-0.426-0.459c-0.177,0.182-0.362,0.325-0.509,0.467
		c-0.162,0.131-0.346,0.219-0.483,0.32c-0.161,0.083-0.351,0.131-0.491,0.184c-0.166,0.039-0.358,0.06-0.527,0.06
		c-0.354,0-0.637-0.101-0.784-0.286c-0.168-0.189-0.256-0.495-0.252-0.909c0-0.137-0.004-0.271,0.018-0.381
		C356.542,35.807,356.532,35.699,356.576,35.6z M356.689,34.999c0.099-0.319,0.202-0.619,0.368-0.867
		c0.147-0.259,0.294-0.503,0.489-0.662c0.18-0.182,0.364-0.339,0.573-0.422c0.202-0.098,0.396-0.147,0.614-0.147
		c0.222,0,0.378,0.033,0.509,0.193c0.118,0.128,0.171,0.296,0.177,0.534c0,0.198-0.073,0.354-0.156,0.545
		c-0.104,0.166-0.292,0.308-0.487,0.431c-0.222,0.12-0.513,0.187-0.851,0.285c-0.345,0.07-0.787,0.107-1.238,0.111L356.689,34.999z"
		/>
	<path fill="#FF0000" d="M365.227,35.448c-0.582,1.172-1.49,1.958-2.666,2.355l0.187,0.599c1.516-0.398,2.668-1.266,3.464-2.569
		c0.793-1.313,1.189-2.925,1.189-4.778c0-1.865-0.4-3.481-1.194-4.776c-0.795-1.32-1.963-2.18-3.459-2.577l-0.209,0.598
		c1.215,0.398,2.103,1.165,2.692,2.328c0.579,1.154,0.869,2.579,0.869,4.35v0.002C366.1,32.787,365.8,34.261,365.227,35.448z"/>
</g>
</svg>
