<?xml version="1.0" encoding="utf-8"?>
<!-- Generator: Adobe Illustrator 15.1.0, SVG Export Plug-In . SVG Version: 6.00 Build 0)  -->
<!DOCTYPE svg PUBLIC "-//W3C//DTD SVG 1.1 Tiny//EN" "http://www.w3.org/Graphics/SVG/1.1/DTD/svg11-tiny.dtd">
<svg version="1.1" baseProfile="tiny" id="Layer_1" xmlns="http://www.w3.org/2000/svg" xmlns:xlink="http://www.w3.org/1999/xlink"
	 x="0px" y="0px" width="134px" height="71px" viewBox="0 0 134 71" overflow="inherit" xml:space="preserve">
<g>
	<path fill="none" d="M115.334,7.7c-0.218,0-0.412,0.05-0.613,0.147c-0.209,0.083-0.394,0.24-0.574,0.422
		c-0.194,0.159-0.342,0.403-0.488,0.662c-0.166,0.248-0.27,0.549-0.369,0.867L113.288,9.8c0.45-0.004,0.894-0.041,1.237-0.11
		c0.338-0.1,0.629-0.166,0.851-0.286c0.196-0.122,0.383-0.265,0.487-0.431c0.084-0.189,0.156-0.347,0.156-0.545
		c-0.006-0.238-0.059-0.406-0.177-0.533C115.712,7.734,115.557,7.7,115.334,7.7z"/>
	<path fill="none" d="M114.977,47.703c0.195-0.122,0.383-0.264,0.487-0.43c0.083-0.19,0.156-0.348,0.156-0.545
		c-0.007-0.238-0.06-0.406-0.177-0.534c-0.131-0.16-0.287-0.194-0.51-0.194c-0.218,0-0.412,0.05-0.613,0.148
		c-0.209,0.082-0.394,0.239-0.573,0.422c-0.195,0.158-0.343,0.402-0.489,0.662c-0.166,0.248-0.27,0.548-0.369,0.866V48.1
		c0.45-0.004,0.893-0.041,1.237-0.11C114.464,47.89,114.755,47.824,114.977,47.703z"/>
	<path fill="none" d="M117.076,66.803c0.195-0.122,0.383-0.264,0.488-0.43c0.082-0.19,0.156-0.347,0.156-0.545
		c-0.007-0.238-0.06-0.406-0.178-0.534c-0.131-0.16-0.287-0.194-0.509-0.194c-0.218,0-0.412,0.051-0.614,0.148
		c-0.209,0.083-0.393,0.24-0.572,0.422c-0.195,0.159-0.343,0.403-0.49,0.662c-0.166,0.248-0.27,0.548-0.369,0.867V67.2
		c0.451-0.004,0.893-0.041,1.238-0.111C116.564,66.99,116.855,66.924,117.076,66.803z"/>
	<path fill="none" d="M115.576,28.604c0.195-0.123,0.383-0.265,0.488-0.431c0.082-0.19,0.156-0.347,0.156-0.545
		c-0.007-0.238-0.06-0.406-0.178-0.534c-0.131-0.16-0.287-0.193-0.509-0.193c-0.218,0-0.412,0.05-0.614,0.147
		c-0.209,0.083-0.393,0.24-0.572,0.422c-0.195,0.159-0.343,0.403-0.49,0.662c-0.166,0.248-0.27,0.548-0.369,0.867V29
		c0.451-0.004,0.893-0.041,1.238-0.111C115.064,28.79,115.355,28.724,115.576,28.604z"/>
	<path fill="none" d="M70.572,33.9c0.602,0,1.132-0.064,1.517-0.192c0.357-0.132,0.702-0.329,0.948-0.598
		c0.232-0.274,0.436-0.591,0.57-0.962c0.132-0.387,0.201-0.776,0.201-1.22c-0.003-0.605-0.152-1.034-0.457-1.311
		c-0.323-0.284-0.812-0.417-1.522-0.417c-0.331,0-0.657,0.008-1.009,0.022l-1.057,4.678L70.572,33.9L70.572,33.9z"/>
	<polygon points="1.7,0.902 4.8,0.902 4.8,0.202 0.1,0.202 0.1,16.502 1.7,16.502 	"/>
	<polygon points="1.7,19.4 1.7,16.502 0.1,16.502 0.07,16.502 0.07,33.002 1.7,33.002 	"/>
	<polygon points="1.7,49.702 1.7,36 1.7,33.002 0.07,33.002 0.07,36 0.07,52.5 0.1,52.5 0.1,49.702 	"/>
	<polygon points="1.7,49.702 0.1,49.702 0.1,52.5 0.1,69 4.8,69 4.8,68.3 1.7,68.3 1.7,52.5 	"/>
	<path d="M17.248,7.588c-0.263,0.309-0.481,0.51-0.62,0.677c-0.15,0.144-0.294,0.221-0.345,0.273
		c-0.08,0.037-0.176,0.056-0.228,0.056c-0.151,0-0.271-0.1-0.272-0.3h-0.543L14.928,9.7c0.155,0.062,0.344,0.094,0.598,0.094
		c0.269,0,0.458-0.034,0.646-0.097c0.164-0.063,0.304-0.198,0.505-0.333c0.174-0.158,0.379-0.415,0.661-0.736
		c0.267-0.332,0.652-0.91,1.222-1.642h0.078c0.036,0.347,0.122,0.815,0.295,1.5c0.088,0.367,0.175,0.636,0.302,0.811
		c0.115,0.173,0.235,0.272,0.405,0.378c0.155,0.079,0.34,0.119,0.567,0.119c0.403,0,0.732-0.134,1.044-0.33
		c0.293-0.219,0.607-0.608,0.983-1.137L21.73,7.994c-0.249,0.383-0.461,0.616-0.572,0.738c-0.131,0.108-0.285,0.162-0.406,0.162
		c-0.078,0-0.163-0.032-0.206-0.041c-0.059-0.028-0.143-0.08-0.175-0.146c-0.056-0.07-0.114-0.174-0.159-0.312
		c-0.049-0.138-0.121-0.339-0.17-0.563c-0.065-0.239-0.147-0.551-0.222-0.894c-0.082-0.358-0.19-0.807-0.264-1.275l0.528-0.645
		c0.191-0.232,0.362-0.474,0.559-0.668c0.181-0.212,0.332-0.397,0.489-0.539c0.145-0.146,0.233-0.252,0.33-0.295
		c0.075-0.05,0.12-0.091,0.191-0.098c0.052-0.015,0.1-0.023,0.146-0.023c0.151,0,0.217,0.101,0.272,0.301h0.544l0.311-1.406
		c-0.155-0.062-0.365-0.094-0.598-0.094c-0.268,0-0.512,0-0.648,0.097c-0.163,0.063-0.357,0.165-0.508,0.331
		c-0.176,0.157-0.401,0.381-0.648,0.716c-0.257,0.32-0.666,0.806-1.13,1.52h-0.078c-0.046-0.321-0.119-0.642-0.16-0.929
		c-0.06-0.299-0.146-0.576-0.19-0.75c-0.066-0.201-0.156-0.362-0.209-0.478C18.687,2.587,18.6,2.485,18.51,2.417
		c-0.093-0.074-0.23-0.147-0.322-0.164c-0.121-0.037-0.284-0.055-0.422-0.055c-0.409,0-0.765,0.1-1.064,0.366
		c-0.3,0.242-0.634,0.587-0.939,1.1l0.505,0.334c0.171-0.258,0.281-0.458,0.411-0.57c0.104-0.122,0.177-0.23,0.286-0.256
		c0.088-0.048,0.167-0.073,0.297-0.073c0.098,0,0.177,0,0.244,0.059c0.065,0.039,0.096,0.086,0.183,0.208
		c0.057,0.099,0.127,0.277,0.217,0.633c0.088,0.322,0.153,0.656,0.256,1.044c0.084,0.373,0.163,0.759,0.241,1.166l-0.005-0.006
		C17.896,6.818,17.495,7.249,17.248,7.588z"/>
	<path d="M27.393,7.104c-0.329,0-0.66,0.032-0.942,0.142c-0.298,0.093-0.581,0.212-0.833,0.397
		c-0.256,0.172-0.495,0.358-0.695,0.616c-0.207,0.238-0.415,0.486-0.536,0.795c-0.149,0.291-0.278,0.574-0.342,0.935
		c-0.08,0.331-0.128,0.668-0.119,1.031c0,0.635,0.125,1.096,0.467,1.467C24.704,12.829,25.14,13,25.738,13
		c0.469,0,0.889-0.1,1.314-0.3c0.408-0.2,0.791-0.534,1.223-0.916c-0.072-0.075-0.164-0.169-0.208-0.224
		c-0.065-0.072-0.154-0.16-0.207-0.223c-0.184,0.182-0.371,0.302-0.506,0.456c-0.153,0.122-0.304,0.191-0.445,0.297
		c-0.143,0.075-0.313,0.112-0.441,0.161c-0.151,0.032-0.341,0.048-0.494,0.048c-0.317,0-0.575-0.133-0.714-0.313
		c-0.159-0.21-0.246-0.539-0.238-0.919c0-0.27,0.026-0.559,0.077-0.809c0.051-0.27,0.117-0.557,0.217-0.78
		c0.095-0.25,0.188-0.51,0.34-0.698c0.132-0.218,0.246-0.41,0.439-0.566c0.16-0.161,0.328-0.299,0.521-0.378
		C26.804,7.745,26.998,7.7,27.204,7.7c0.128,0.004,0.227,0.004,0.325,0.053c0.09,0.031,0.146,0.08,0.216,0.159
		c0.055,0.075,0.074,0.17,0.119,0.305c0.025,0.128,0.037,0.289,0.042,0.483l0.001,0.001h0.669l0.316-1.414
		c-0.253-0.062-0.516-0.124-0.733-0.139C27.923,7.118,27.637,7.104,27.393,7.104z"/>
	<path d="M16.79,30.445c-0.398,0.369-0.762,0.556-1.047,0.556c-0.229,0-0.343-0.167-0.342-0.5h-0.614l-0.333,1.5
		c0.077,0.03,0.159,0.03,0.33,0.072c0.143,0.019,0.248,0.028,0.377,0.028c0.315,0,0.595-0.067,0.892-0.17
		c0.352-0.148,0.7-0.426,1.095-0.738c0.544-0.502,1.194-1.333,2.042-2.437c0.854-1.179,1.591-2.364,2.275-3.552
		c0.672-1.214,1.184-2.383,1.598-3.42l-0.209-0.384h-2.042l-0.077,0.399c0.248,0.016,0.402,0.049,0.527,0.153
		c0.104,0.087,0.15,0.235,0.156,0.489c0,0.314-0.107,0.701-0.23,1.23c-0.152,0.504-0.415,1.079-0.753,1.781
		c-0.35,0.683-0.795,1.365-1.277,2.095c-0.084-0.621-0.203-1.305-0.3-2.022c-0.115-0.728-0.235-1.437-0.359-2.077
		c-0.073-0.393-0.139-0.709-0.198-0.903c-0.059-0.21-0.16-0.425-0.209-0.566c-0.082-0.168-0.178-0.328-0.277-0.394
		c-0.103-0.094-0.208-0.19-0.309-0.203c-0.151-0.056-0.353-0.084-0.544-0.084c-0.384,0-0.738,0.101-1.041,0.331
		c-0.311,0.221-0.652,0.577-1.002,1.134l0.505,0.334c0.213-0.331,0.371-0.563,0.536-0.697c0.145-0.136,0.291-0.202,0.466-0.202
		c0.108,0,0.166,0.033,0.272,0.1c0.119,0.107,0.22,0.34,0.341,0.741c0.089,0.322,0.242,1.142,0.544,2.502
		c0.259,1.26,0.432,2.313,0.614,3.228h0C17.658,29.516,17.159,30.059,16.79,30.445z"/>
	<path d="M27.593,26.303c-0.329,0-0.66,0.033-0.941,0.143c-0.298,0.093-0.582,0.212-0.833,0.397
		c-0.256,0.172-0.495,0.358-0.695,0.616c-0.207,0.238-0.415,0.486-0.536,0.795c-0.149,0.291-0.278,0.574-0.342,0.934
		c-0.08,0.332-0.128,0.668-0.119,1.031c0,0.635,0.125,1.096,0.467,1.467c0.311,0.344,0.747,0.515,1.345,0.515
		c0.469,0,0.889-0.101,1.314-0.3c0.408-0.2,0.791-0.534,1.223-0.916c-0.072-0.075-0.164-0.17-0.208-0.224
		c-0.065-0.073-0.154-0.161-0.206-0.223c-0.184,0.181-0.371,0.302-0.506,0.456c-0.153,0.122-0.304,0.191-0.445,0.297
		c-0.143,0.075-0.313,0.112-0.441,0.161c-0.151,0.032-0.341,0.048-0.494,0.048c-0.317,0-0.575-0.133-0.714-0.314
		c-0.159-0.209-0.246-0.539-0.238-0.918c0-0.27,0.026-0.559,0.077-0.809c0.051-0.27,0.117-0.557,0.217-0.781
		c0.095-0.25,0.189-0.509,0.341-0.697c0.132-0.218,0.246-0.41,0.439-0.566c0.16-0.161,0.328-0.299,0.521-0.378
		c0.187-0.091,0.381-0.136,0.586-0.136c0.128,0.004,0.227,0.004,0.325,0.053c0.09,0.031,0.146,0.08,0.216,0.159
		c0.055,0.075,0.074,0.17,0.119,0.305c0.025,0.128,0.037,0.289,0.042,0.483l0.001,0.001h0.669l0.316-1.414
		c-0.253-0.062-0.516-0.124-0.733-0.14C28.123,26.318,27.837,26.303,27.593,26.303z"/>
	<path d="M22.592,40.889L22.444,40.5h-5.52l-0.458,2h0.69c0.176-0.328,0.324-0.595,0.478-0.758c0.143-0.178,0.264-0.324,0.4-0.4
		c0.124-0.089,0.246-0.17,0.372-0.187c0.125-0.037,0.29-0.056,0.591-0.056h1.817l0.047,0.056c-0.279,0.291-0.732,0.772-1.32,1.469
		l-4.247,4.896l0.148,0.381h5.62l0.473-2.2v-0.001h-0.691c-0.197,0.416-0.379,0.716-0.494,0.916
		c-0.131,0.195-0.282,0.322-0.384,0.436c-0.125,0.096-0.279,0.146-0.435,0.197c-0.166,0.035-0.41,0.052-0.713,0.052h-1.755
		l-0.047-0.055c0.528-0.575,1.122-1.289,1.872-2.099L22.592,40.889z"/>
	<path d="M23.526,49.319c0,0.635,0.125,1.096,0.467,1.467c0.311,0.343,0.747,0.514,1.345,0.514c0.469,0,0.889-0.1,1.314-0.3
		c0.408-0.2,0.791-0.534,1.223-0.916c-0.072-0.075-0.164-0.169-0.208-0.223c-0.065-0.073-0.154-0.161-0.206-0.224
		c-0.184,0.182-0.371,0.302-0.506,0.456c-0.153,0.122-0.304,0.191-0.445,0.297c-0.143,0.075-0.313,0.112-0.441,0.161
		c-0.151,0.032-0.341,0.048-0.494,0.048c-0.317,0-0.575-0.133-0.714-0.313c-0.159-0.21-0.246-0.539-0.238-0.919
		c0-0.27,0.026-0.559,0.077-0.809c0.051-0.27,0.117-0.557,0.217-0.78c0.095-0.25,0.189-0.509,0.341-0.698
		c0.132-0.217,0.246-0.41,0.439-0.566c0.16-0.16,0.328-0.299,0.521-0.378C26.404,46.045,26.598,46,26.804,46
		c0.128,0.004,0.227,0.004,0.325,0.053c0.09,0.031,0.146,0.08,0.216,0.159c0.055,0.075,0.074,0.17,0.119,0.306
		c0.025,0.127,0.037,0.288,0.042,0.482l0.001,0.001h0.669l0.316-1.414c-0.253-0.062-0.516-0.124-0.733-0.139
		c-0.236-0.03-0.521-0.045-0.766-0.045c-0.329,0-0.66,0.032-0.942,0.142c-0.298,0.093-0.582,0.212-0.833,0.398
		c-0.256,0.172-0.495,0.357-0.695,0.615c-0.207,0.238-0.415,0.486-0.536,0.795c-0.149,0.291-0.278,0.574-0.342,0.935
		C23.565,48.619,23.517,48.956,23.526,49.319z"/>
	<path d="M13.427,60.1c0.25,0.021,0.407,0.055,0.536,0.17c0.108,0.093,0.154,0.201,0.233,0.414c0.047,0.185,0.081,0.424,0.117,0.724
		l0.589,5.792h1.041c0.709-1.078,1.295-2.045,1.786-2.872c0.482-0.837,0.839-1.613,1.141-2.281l0.086,0.008
		c0.01,0.222,0.026,0.503,0.058,0.941c0.029,0.405,0.025,0.707,0.081,0.983l0.319,3.221h0.923c0.45-0.607,0.839-1.174,1.173-1.639
		c0.331-0.486,0.627-0.94,0.897-1.351c0.267-0.414,0.498-0.817,0.694-1.139c0.197-0.345,0.363-0.701,0.559-1.037
		c0.176-0.347,0.29-0.659,0.427-0.892c0.109-0.248,0.247-0.628,0.436-1.057L24.312,59.7H22.31L22.232,60.1
		c0.248,0.017,0.404,0.051,0.527,0.155c0.104,0.087,0.151,0.236,0.156,0.491c0,0.531-0.238,1.216-0.633,2.066
		c-0.422,0.847-1.049,1.81-1.844,2.974v0.001l-0.567-6.086h-1.117l-0.086,0.378c-0.082,0.487-0.204,0.928-0.356,1.406
		c-0.156,0.448-0.426,0.954-0.719,1.598c-0.325,0.615-0.855,1.488-1.58,2.695L15.547,59.7h-2.034L13.427,60.1z"/>
	<path d="M26.917,66.878c0.095-0.25,0.189-0.509,0.341-0.698c0.132-0.217,0.246-0.41,0.439-0.565c0.16-0.161,0.328-0.3,0.521-0.378
		c0.187-0.092,0.381-0.137,0.586-0.137c0.128,0.004,0.227,0.004,0.325,0.054c0.09,0.03,0.146,0.079,0.216,0.159
		c0.055,0.074,0.074,0.17,0.119,0.305c0.025,0.128,0.037,0.289,0.042,0.482l0.001,0.002h0.669l0.316-1.414
		c-0.253-0.062-0.516-0.125-0.733-0.14c-0.236-0.03-0.521-0.045-0.766-0.045c-0.329,0-0.66,0.033-0.942,0.142
		c-0.298,0.094-0.582,0.213-0.833,0.398c-0.256,0.172-0.495,0.358-0.695,0.616c-0.207,0.237-0.415,0.485-0.536,0.795
		c-0.149,0.291-0.278,0.574-0.342,0.934c-0.08,0.331-0.128,0.668-0.119,1.031c0,0.635,0.125,1.096,0.467,1.467
		c0.311,0.343,0.747,0.515,1.345,0.515c0.469,0,0.889-0.101,1.314-0.301c0.408-0.199,0.791-0.533,1.223-0.916
		c-0.072-0.074-0.164-0.169-0.208-0.223c-0.065-0.073-0.154-0.161-0.206-0.223c-0.184,0.181-0.371,0.302-0.506,0.456
		c-0.153,0.122-0.304,0.19-0.445,0.297c-0.143,0.075-0.313,0.112-0.441,0.161c-0.151,0.031-0.341,0.048-0.494,0.048
		c-0.317,0-0.575-0.133-0.714-0.314c-0.159-0.21-0.246-0.539-0.238-0.919c0-0.269,0.026-0.558,0.077-0.808
		C26.751,67.389,26.817,67.102,26.917,66.878z"/>
	<polygon points="44.7,16.502 44.7,0.202 40.1,0.202 40.1,0.902 43.1,0.902 43.1,16.502 	"/>
	<polygon points="43.1,19.4 43.1,33.002 44.7,33.002 44.7,19.4 44.7,16.502 43.1,16.502 	"/>
	<polygon points="43.1,36 43.1,49.702 44.7,49.702 44.7,36 44.7,33.002 43.1,33.002 	"/>
	<polygon points="43.1,52.5 43.1,68.3 40.1,68.3 40.1,69 44.7,69 44.7,52.5 44.7,49.702 43.1,49.702 	"/>
	<rect x="50.956" y="32.5" width="9.566" height="1"/>
	<rect x="50.956" y="35.7" width="9.566" height="1"/>
	<path d="M67.759,36.773c-0.113,0.511-0.201,0.853-0.256,1.032c-0.056,0.179-0.125,0.31-0.186,0.453
		c-0.066,0.125-0.173,0.205-0.248,0.291c-0.098,0.069-0.254,0.119-0.442,0.15L66.541,39.1h3.191l0.086-0.399
		c-0.254-0.021-0.459-0.054-0.536-0.095c-0.104-0.041-0.198-0.109-0.233-0.199c-0.052-0.092-0.102-0.228-0.078-0.38
		c0-0.105-0.023-0.247,0.02-0.356c0.013-0.133,0.017-0.29,0.047-0.372c0.018-0.115,0.039-0.28,0.098-0.495l0.497-2.303
		c0.353,0.021,0.774,0.021,1.319,0.031c0.88,0,1.63-0.145,2.264-0.4c0.629-0.266,1.124-0.71,1.494-1.245
		c0.368-0.564,0.532-1.26,0.552-2.002c0-0.399-0.087-0.761-0.19-1.053c-0.126-0.303-0.35-0.58-0.573-0.75
		c-0.256-0.198-0.589-0.358-0.978-0.438C73.123,28.548,72.616,28.5,72,28.5l-0.003-0.001h-3.423l-0.086,0.399
		c0.27,0.016,0.439,0.05,0.583,0.171c0.118,0.098,0.161,0.241,0.178,0.526c0,0.299-0.084,0.7-0.17,1.223L67.759,36.773z
		 M70.82,29.224c0.352-0.015,0.678-0.022,1.009-0.022c0.71,0,1.199,0.133,1.522,0.417c0.305,0.276,0.454,0.705,0.457,1.311
		c0,0.443-0.069,0.833-0.201,1.22c-0.135,0.371-0.338,0.688-0.57,0.962c-0.246,0.269-0.591,0.466-0.948,0.598
		c-0.385,0.128-0.915,0.192-1.517,0.192v0.001h-0.809L70.82,29.224z"/>
	<path d="M82.447,35.236c0.169-0.178,0.253-0.422,0.253-0.687c0-0.28-0.101-0.53-0.253-0.684C82.279,33.689,82.062,33.6,81.8,33.6
		s-0.496,0.067-0.647,0.267c-0.168,0.176-0.252,0.387-0.252,0.684c0,0.281,0.066,0.497,0.252,0.687
		C81.32,35.412,81.536,35.5,81.8,35.5C82.062,35.5,82.263,35.4,82.447,35.236z"/>
	<polygon points="89.8,0.902 92.9,0.902 92.9,0.202 88.2,0.202 88.2,16.502 89.8,16.502 	"/>
	<polygon points="89.8,19.4 89.8,16.502 88.2,16.502 88.17,16.502 88.17,33.002 89.8,33.002 	"/>
	<polygon points="89.8,49.702 89.8,36 89.8,33.002 88.17,33.002 88.17,36 88.17,52.5 88.2,52.5 88.2,49.702 	"/>
	<polygon points="89.8,49.702 88.2,49.702 88.2,52.5 88.2,69 92.9,69 92.9,68.3 89.8,68.3 89.8,52.5 	"/>
	<path d="M105.348,7.588c-0.263,0.309-0.48,0.51-0.619,0.677c-0.15,0.144-0.295,0.221-0.346,0.273
		c-0.08,0.037-0.176,0.056-0.229,0.056c-0.15,0-0.271-0.1-0.271-0.3h-0.544L103.027,9.7c0.156,0.062,0.345,0.094,0.599,0.094
		c0.269,0,0.458-0.034,0.647-0.097c0.164-0.063,0.304-0.198,0.504-0.333c0.175-0.158,0.381-0.415,0.662-0.736
		c0.267-0.332,0.651-0.91,1.222-1.642h0.077c0.037,0.347,0.123,0.815,0.296,1.5c0.088,0.367,0.175,0.636,0.302,0.811
		c0.115,0.173,0.234,0.272,0.405,0.378c0.155,0.079,0.34,0.119,0.567,0.119c0.402,0,0.731-0.134,1.043-0.33
		c0.293-0.219,0.607-0.608,0.983-1.137l-0.505-0.333c-0.249,0.383-0.461,0.616-0.572,0.738c-0.131,0.108-0.285,0.162-0.406,0.162
		c-0.078,0-0.162-0.032-0.205-0.041c-0.06-0.028-0.144-0.08-0.176-0.146c-0.056-0.07-0.113-0.174-0.158-0.312
		c-0.049-0.138-0.121-0.339-0.17-0.563c-0.065-0.239-0.147-0.551-0.223-0.894c-0.082-0.358-0.189-0.807-0.264-1.275l0.527-0.645
		c0.191-0.232,0.362-0.474,0.56-0.668c0.181-0.212,0.332-0.397,0.489-0.539c0.145-0.146,0.232-0.252,0.33-0.295
		c0.074-0.05,0.119-0.091,0.19-0.098c0.052-0.015,0.101-0.023,0.147-0.023c0.15,0,0.217,0.101,0.271,0.301h0.544l0.312-1.406
		c-0.155-0.062-0.365-0.094-0.598-0.094c-0.269,0-0.513,0-0.648,0.097c-0.163,0.063-0.357,0.165-0.508,0.331
		c-0.176,0.157-0.401,0.381-0.648,0.716c-0.257,0.32-0.666,0.806-1.13,1.52h-0.078c-0.046-0.321-0.118-0.642-0.159-0.929
		c-0.06-0.299-0.146-0.576-0.191-0.75c-0.065-0.201-0.155-0.362-0.209-0.478c-0.07-0.117-0.157-0.219-0.248-0.287
		c-0.092-0.074-0.229-0.147-0.321-0.164c-0.121-0.037-0.284-0.055-0.422-0.055c-0.409,0-0.765,0.1-1.064,0.366
		c-0.3,0.242-0.634,0.587-0.938,1.1l0.505,0.334c0.171-0.258,0.28-0.458,0.411-0.57c0.103-0.122,0.177-0.23,0.285-0.256
		c0.088-0.048,0.168-0.073,0.297-0.073c0.099,0,0.178,0,0.244,0.059c0.065,0.039,0.097,0.086,0.184,0.208
		c0.057,0.099,0.127,0.277,0.217,0.633c0.088,0.322,0.153,0.656,0.256,1.044c0.084,0.373,0.163,0.759,0.241,1.166l-0.005-0.006
		C105.996,6.818,105.596,7.249,105.348,7.588z"/>
	<path d="M115.577,7.102c-0.53,0-1.022,0.1-1.466,0.331c-0.447,0.222-0.85,0.511-1.146,0.923c-0.159,0.192-0.313,0.375-0.414,0.623
		c-0.116,0.221-0.233,0.428-0.294,0.681c-0.08,0.231-0.166,0.446-0.177,0.698c-0.037,0.232-0.065,0.446-0.056,0.672
		c0,0.307,0.024,0.563,0.121,0.826c0.082,0.244,0.199,0.426,0.356,0.623c0.157,0.17,0.323,0.276,0.578,0.389
		c0.228,0.088,0.467,0.133,0.784,0.133c0.502,0,0.947-0.133,1.408-0.319c0.436-0.213,0.845-0.541,1.311-0.952h0.002l-0.425-0.459
		c-0.177,0.181-0.363,0.324-0.509,0.467c-0.162,0.13-0.346,0.218-0.484,0.319c-0.161,0.083-0.35,0.132-0.491,0.185
		c-0.165,0.039-0.358,0.059-0.526,0.059c-0.354,0-0.637-0.1-0.784-0.286c-0.168-0.189-0.257-0.495-0.253-0.909
		c0-0.137-0.004-0.271,0.018-0.381c0.012-0.115,0.001-0.224,0.045-0.322c2.586,0,3.86-0.7,3.879-2.07
		c0-0.393-0.152-0.703-0.378-0.908C116.427,7.209,116.035,7.102,115.577,7.102z M115.863,8.973
		c-0.104,0.166-0.291,0.309-0.487,0.431c-0.222,0.12-0.513,0.187-0.851,0.286c-0.344,0.069-0.787,0.106-1.237,0.11l0.001-0.001
		c0.1-0.318,0.203-0.619,0.369-0.867c0.146-0.259,0.294-0.503,0.488-0.662c0.181-0.182,0.365-0.339,0.574-0.422
		c0.201-0.098,0.396-0.147,0.613-0.147c0.223,0,0.378,0.034,0.509,0.194c0.118,0.127,0.171,0.295,0.177,0.533
		C116.02,8.626,115.947,8.783,115.863,8.973z"/>
	<path d="M103.943,31.001c-0.229,0-0.344-0.167-0.342-0.5h-0.615l-0.332,1.5c0.076,0.03,0.158,0.03,0.33,0.072
		c0.143,0.019,0.248,0.028,0.377,0.028c0.314,0,0.595-0.067,0.892-0.17c0.353-0.148,0.7-0.426,1.095-0.738
		c0.545-0.502,1.194-1.333,2.043-2.437c0.854-1.179,1.59-2.364,2.274-3.552c0.672-1.214,1.185-2.383,1.599-3.42l-0.209-0.384h-2.043
		l-0.076,0.399c0.248,0.016,0.402,0.049,0.526,0.153c0.104,0.087,0.149,0.235,0.156,0.489c0,0.314-0.106,0.701-0.229,1.23
		c-0.152,0.504-0.416,1.079-0.754,1.781c-0.35,0.683-0.795,1.365-1.277,2.095c-0.084-0.621-0.203-1.305-0.299-2.022
		c-0.115-0.728-0.235-1.437-0.359-2.077c-0.073-0.393-0.139-0.709-0.198-0.903c-0.06-0.21-0.16-0.425-0.209-0.566
		c-0.081-0.168-0.179-0.328-0.276-0.394c-0.104-0.094-0.209-0.19-0.31-0.203c-0.151-0.056-0.353-0.084-0.544-0.084
		c-0.385,0-0.738,0.101-1.041,0.331c-0.311,0.221-0.652,0.577-1.002,1.134l0.505,0.334c0.213-0.331,0.371-0.563,0.536-0.697
		c0.145-0.136,0.291-0.202,0.466-0.202c0.108,0,0.166,0.033,0.272,0.1c0.119,0.107,0.22,0.34,0.34,0.741
		c0.09,0.322,0.242,1.142,0.545,2.502c0.259,1.26,0.432,2.313,0.613,3.228c-0.539,0.746-1.037,1.289-1.406,1.676
		C104.592,30.814,104.229,31.001,103.943,31.001z"/>
	<path d="M113.376,29.6c2.585,0,3.86-0.699,3.878-2.069c0-0.394-0.152-0.703-0.377-0.908c-0.25-0.213-0.643-0.32-1.1-0.32
		c-0.53,0-1.022,0.1-1.467,0.331c-0.447,0.221-0.85,0.51-1.145,0.922c-0.159,0.193-0.314,0.375-0.414,0.623
		c-0.117,0.221-0.234,0.428-0.294,0.682c-0.08,0.231-0.166,0.445-0.177,0.697c-0.037,0.233-0.065,0.447-0.057,0.672
		c0,0.308,0.025,0.564,0.123,0.827c0.08,0.244,0.198,0.425,0.355,0.622c0.156,0.17,0.322,0.277,0.578,0.39
		c0.228,0.088,0.467,0.133,0.783,0.133c0.502,0,0.947-0.133,1.408-0.319c0.437-0.213,0.846-0.541,1.312-0.953h0.002l-0.425-0.459
		c-0.178,0.182-0.363,0.325-0.51,0.467c-0.162,0.131-0.346,0.219-0.483,0.32c-0.161,0.083-0.351,0.131-0.491,0.184
		c-0.166,0.039-0.357,0.06-0.527,0.06c-0.354,0-0.637-0.101-0.783-0.286c-0.168-0.189-0.256-0.495-0.252-0.909
		c0-0.137-0.004-0.271,0.017-0.381C113.342,29.807,113.332,29.699,113.376,29.6z M113.488,28.999c0.1-0.319,0.203-0.619,0.369-0.867
		c0.147-0.259,0.295-0.503,0.49-0.662c0.18-0.182,0.363-0.339,0.572-0.422c0.202-0.098,0.396-0.147,0.614-0.147
		c0.222,0,0.378,0.033,0.509,0.193c0.118,0.128,0.171,0.296,0.178,0.534c0,0.198-0.074,0.354-0.156,0.545
		c-0.105,0.166-0.293,0.308-0.488,0.431c-0.221,0.12-0.512,0.187-0.85,0.285C114.381,28.959,113.939,28.996,113.488,28.999
		L113.488,28.999z"/>
	<path d="M110.691,40.889l-0.147-0.389h-5.519l-0.459,2h0.691c0.176-0.328,0.324-0.595,0.477-0.758c0.144-0.178,0.265-0.324,0.4-0.4
		c0.124-0.089,0.246-0.17,0.372-0.187c0.125-0.037,0.29-0.056,0.591-0.056h1.817l0.047,0.056c-0.278,0.291-0.731,0.772-1.319,1.469
		l-4.248,4.896l0.148,0.381h5.62l0.474-2.2v-0.001h-0.691c-0.197,0.416-0.379,0.716-0.494,0.916
		c-0.131,0.195-0.282,0.322-0.385,0.436c-0.123,0.096-0.278,0.146-0.434,0.197c-0.166,0.035-0.41,0.052-0.714,0.052h-1.755
		l-0.047-0.055c0.527-0.575,1.121-1.289,1.871-2.099L110.691,40.889z"/>
	<path d="M111.682,48.657c-0.037,0.232-0.065,0.446-0.057,0.672c0,0.307,0.025,0.563,0.122,0.827
		c0.081,0.244,0.198,0.425,0.356,0.622c0.156,0.17,0.322,0.276,0.578,0.389c0.228,0.088,0.467,0.133,0.783,0.133
		c0.502,0,0.947-0.133,1.408-0.319c0.436-0.213,0.845-0.541,1.311-0.952h0.002l-0.424-0.459c-0.178,0.181-0.363,0.325-0.51,0.467
		c-0.162,0.13-0.346,0.218-0.484,0.319c-0.16,0.084-0.35,0.132-0.49,0.185c-0.166,0.039-0.358,0.059-0.527,0.059
		c-0.354,0-0.637-0.1-0.784-0.286c-0.168-0.189-0.256-0.494-0.252-0.908c0-0.137-0.004-0.272,0.017-0.381
		c0.012-0.116,0.002-0.225,0.045-0.323c2.586,0,3.861-0.7,3.879-2.07c0-0.393-0.152-0.703-0.377-0.908
		c-0.25-0.213-0.643-0.319-1.101-0.319c-0.53,0-1.022,0.099-1.466,0.33c-0.447,0.222-0.85,0.511-1.145,0.923
		c-0.159,0.192-0.314,0.375-0.414,0.623c-0.117,0.221-0.234,0.428-0.295,0.681C111.777,48.191,111.691,48.405,111.682,48.657z
		 M112.889,48.099c0.1-0.318,0.203-0.618,0.369-0.866c0.146-0.26,0.294-0.504,0.489-0.662c0.18-0.183,0.364-0.34,0.573-0.422
		c0.201-0.099,0.396-0.148,0.613-0.148c0.223,0,0.379,0.034,0.51,0.194c0.117,0.128,0.17,0.296,0.177,0.534
		c0,0.197-0.073,0.354-0.156,0.545c-0.104,0.166-0.292,0.308-0.487,0.43c-0.222,0.121-0.513,0.187-0.851,0.286
		C113.781,48.059,113.339,48.096,112.889,48.099L112.889,48.099z"/>
	<path d="M101.627,60.1c0.249,0.021,0.407,0.055,0.536,0.17c0.108,0.093,0.153,0.201,0.233,0.414
		c0.047,0.185,0.08,0.424,0.117,0.724l0.588,5.792h1.041c0.709-1.078,1.295-2.045,1.787-2.872c0.481-0.837,0.838-1.613,1.141-2.281
		l0.086,0.008c0.01,0.222,0.025,0.503,0.058,0.941c0.029,0.405,0.024,0.707,0.081,0.983l0.318,3.221h0.924
		c0.449-0.607,0.839-1.174,1.173-1.639c0.331-0.486,0.628-0.94,0.897-1.351c0.267-0.414,0.498-0.817,0.693-1.139
		c0.197-0.345,0.363-0.701,0.559-1.037c0.177-0.347,0.291-0.659,0.428-0.892c0.109-0.248,0.247-0.628,0.436-1.057l-0.211-0.386
		h-2.002l-0.078,0.399c0.248,0.017,0.404,0.051,0.527,0.155c0.104,0.087,0.15,0.236,0.156,0.491c0,0.531-0.238,1.216-0.633,2.066
		c-0.422,0.847-1.049,1.81-1.844,2.974v0.001l-0.568-6.086h-1.116l-0.086,0.378c-0.082,0.487-0.204,0.928-0.356,1.406
		c-0.156,0.448-0.426,0.954-0.719,1.598c-0.325,0.615-0.855,1.488-1.58,2.695l-0.466-6.078h-2.034L101.627,60.1z"/>
	<path d="M114.876,67.8c2.585,0,3.86-0.7,3.878-2.069c0-0.394-0.152-0.703-0.377-0.908c-0.25-0.213-0.643-0.32-1.1-0.32
		c-0.53,0-1.022,0.1-1.467,0.331c-0.447,0.221-0.85,0.51-1.145,0.922c-0.159,0.193-0.314,0.375-0.414,0.623
		c-0.117,0.221-0.234,0.428-0.294,0.681c-0.08,0.232-0.166,0.446-0.177,0.698c-0.037,0.233-0.065,0.447-0.057,0.672
		c0,0.308,0.025,0.564,0.123,0.827c0.08,0.244,0.198,0.425,0.355,0.622c0.156,0.17,0.322,0.277,0.578,0.39
		c0.228,0.088,0.467,0.133,0.783,0.133c0.502,0,0.947-0.133,1.408-0.319c0.437-0.213,0.846-0.541,1.312-0.953h0.002l-0.425-0.459
		c-0.178,0.181-0.363,0.325-0.51,0.467c-0.162,0.13-0.346,0.218-0.483,0.32c-0.161,0.083-0.351,0.131-0.491,0.184
		c-0.166,0.039-0.357,0.06-0.527,0.06c-0.354,0-0.637-0.101-0.783-0.286c-0.168-0.19-0.256-0.495-0.252-0.909
		c0-0.137-0.004-0.271,0.017-0.381C114.842,68.007,114.832,67.898,114.876,67.8z M114.988,67.199c0.1-0.319,0.203-0.619,0.369-0.867
		c0.147-0.259,0.295-0.503,0.49-0.662c0.18-0.182,0.363-0.339,0.572-0.422c0.202-0.098,0.396-0.148,0.614-0.148
		c0.222,0,0.378,0.034,0.509,0.194c0.118,0.128,0.171,0.296,0.178,0.534c0,0.198-0.074,0.354-0.156,0.545
		c-0.105,0.166-0.293,0.308-0.488,0.43c-0.221,0.121-0.512,0.188-0.85,0.286C115.881,67.159,115.439,67.196,114.988,67.199
		L114.988,67.199z"/>
	<polygon points="128.7,0.902 131.7,0.902 131.7,16.502 133.3,16.502 133.3,0.202 128.7,0.202 	"/>
	<polygon points="131.7,19.4 131.7,33.002 133.3,33.002 133.3,19.4 133.3,16.502 131.7,16.502 	"/>
	<polygon points="131.7,36 131.7,49.702 133.3,49.702 133.3,36 133.3,33.002 131.7,33.002 	"/>
	<polygon points="131.7,52.5 131.7,68.3 128.7,68.3 128.7,69 133.3,69 133.3,52.5 133.3,49.702 131.7,49.702 	"/>
</g>
</svg>
