<?xml version="1.0" encoding="utf-8"?>
<!-- Generator: Adobe Illustrator 15.1.0, SVG Export Plug-In . SVG Version: 6.00 Build 0)  -->
<!DOCTYPE svg PUBLIC "-//W3C//DTD SVG 1.1 Tiny//EN" "http://www.w3.org/Graphics/SVG/1.1/DTD/svg11-tiny.dtd">
<svg version="1.1" baseProfile="tiny" id="Layer_1" xmlns="http://www.w3.org/2000/svg" xmlns:xlink="http://www.w3.org/1999/xlink"
	 x="0px" y="0px" width="286px" height="151px" viewBox="0 0 286 151" overflow="inherit" xml:space="preserve">
<g>
	<path fill="none" d="M116.214,139.076c-0.283-0.341-0.615-0.475-1.011-0.475c-0.361,0-0.66,0.104-0.902,0.313
		c-0.242,0.205-0.437,0.511-0.586,0.905c-0.153,0.387-0.253,0.871-0.316,1.436c-0.062,0.546-0.094,1.202-0.094,1.911l0.001-0.001
		c-0.002,1.645,0.157,2.888,0.472,3.667c0.289,0.767,0.804,1.167,1.464,1.167c0.615,0,1.096-0.366,1.4-1.098
		c0.291-0.734,0.458-1.869,0.458-3.406c0-1.207-0.078-2.126-0.234-2.854C116.688,139.901,116.493,139.393,116.214,139.076z"/>
	<path fill="none" d="M116.214,104.076c-0.283-0.341-0.615-0.475-1.011-0.475c-0.361,0-0.66,0.104-0.902,0.313
		c-0.242,0.205-0.437,0.511-0.586,0.905c-0.153,0.387-0.253,0.871-0.316,1.436c-0.062,0.546-0.094,1.202-0.094,1.911l0.001-0.001
		c-0.002,1.645,0.157,2.888,0.472,3.667c0.289,0.767,0.804,1.167,1.464,1.167c0.615,0,1.096-0.366,1.4-1.098
		c0.291-0.734,0.458-1.869,0.458-3.406c0-1.207-0.078-2.126-0.234-2.854C116.688,104.901,116.493,104.393,116.214,104.076z"/>
	<path fill="none" d="M195.908,53.904L195.908,53.904c-0.08,0.358-0.116,0.71-0.116,1.049c-0.03,0.387,0.089,0.698,0.267,0.878
		c0.159,0.169,0.476,0.269,0.89,0.269c0.196,0,0.413-0.033,0.606-0.103c0.172-0.103,0.387-0.185,0.586-0.344
		c0.185-0.177,0.387-0.369,0.565-0.628c0.177-0.269,0.344-0.579,0.494-0.958c0.149-0.402,0.266-0.787,0.348-1.221
		c0.067-0.45,0.125-0.849,0.125-1.245c-0.024-0.533-0.077-0.933-0.229-1.199C199.275,50.134,199.047,50,198.71,50
		c-0.252,0-0.492,0.079-0.733,0.236c-0.267,0.145-0.509,0.416-0.805,0.777c-0.32,0.357-0.535,0.732-0.722,1.112
		c-0.204,0.37-0.345,0.864-0.474,1.455L195.908,53.904z"/>
	<path fill="none" d="M126.008,76.604l0.001,0.002c-0.081,0.357-0.117,0.709-0.117,1.048c-0.031,0.387,0.089,0.698,0.267,0.878
		c0.159,0.169,0.475,0.269,0.889,0.269c0.196,0,0.414-0.034,0.606-0.103c0.173-0.103,0.387-0.185,0.586-0.344
		c0.185-0.178,0.388-0.369,0.566-0.629c0.177-0.268,0.344-0.578,0.494-0.957c0.15-0.402,0.266-0.787,0.348-1.221
		c0.067-0.45,0.125-0.849,0.125-1.245c-0.025-0.534-0.077-0.933-0.23-1.2c-0.167-0.268-0.396-0.401-0.733-0.401
		c-0.252,0-0.492,0.079-0.733,0.235c-0.267,0.146-0.509,0.416-0.805,0.778c-0.32,0.357-0.536,0.732-0.722,1.112
		c-0.204,0.37-0.345,0.863-0.473,1.455L126.008,76.604z"/>
	<path fill="none" d="M195.908,76.604l0.001,0.002c-0.081,0.357-0.117,0.709-0.117,1.048c-0.03,0.387,0.089,0.698,0.267,0.878
		c0.159,0.169,0.476,0.269,0.89,0.269c0.196,0,0.413-0.034,0.606-0.103c0.172-0.103,0.387-0.185,0.586-0.344
		c0.185-0.178,0.387-0.369,0.565-0.629c0.177-0.268,0.344-0.578,0.494-0.957c0.149-0.402,0.266-0.787,0.348-1.221
		c0.067-0.45,0.125-0.849,0.125-1.245c-0.024-0.534-0.077-0.933-0.229-1.2c-0.168-0.268-0.396-0.401-0.733-0.401
		c-0.252,0-0.492,0.079-0.733,0.235c-0.267,0.146-0.509,0.416-0.805,0.778c-0.32,0.357-0.535,0.732-0.722,1.112
		c-0.204,0.37-0.345,0.863-0.474,1.455L195.908,76.604z"/>
	<path fill="none" d="M245.078,66.833C245.367,67.6,245.882,68,246.542,68c0.615,0,1.097-0.366,1.399-1.098
		c0.291-0.734,0.459-1.869,0.459-3.406c0-1.207-0.078-2.126-0.234-2.854c-0.178-0.741-0.373-1.25-0.652-1.566
		c-0.283-0.341-0.615-0.475-1.011-0.475c-0.36,0-0.66,0.104-0.901,0.313c-0.242,0.205-0.438,0.511-0.586,0.905
		c-0.154,0.387-0.254,0.871-0.316,1.436c-0.062,0.546-0.094,1.202-0.094,1.911C244.604,64.811,244.764,66.054,245.078,66.833z"/>
	<path fill="none" d="M4.572,76.8c0.602,0,1.132-0.063,1.517-0.192c0.357-0.131,0.702-0.328,0.948-0.598
		c0.233-0.273,0.436-0.591,0.57-0.961c0.132-0.387,0.202-0.777,0.202-1.22c-0.003-0.606-0.153-1.034-0.458-1.312
		c-0.323-0.283-0.812-0.416-1.522-0.416c-0.331,0-0.657,0.008-1.009,0.022l-1.056,4.677L4.572,76.8L4.572,76.8z"/>
	<path fill="none" d="M245.078,22.033c0.289,0.767,0.804,1.167,1.464,1.167c0.615,0,1.097-0.366,1.399-1.099
		c0.291-0.733,0.459-1.868,0.459-3.405c0-1.207-0.078-2.126-0.234-2.854c-0.178-0.742-0.373-1.25-0.652-1.566
		c-0.283-0.342-0.615-0.476-1.011-0.476c-0.36,0-0.66,0.105-0.901,0.314c-0.242,0.205-0.438,0.511-0.586,0.904
		c-0.154,0.388-0.254,0.871-0.316,1.437c-0.062,0.546-0.094,1.202-0.094,1.911C244.604,20.01,244.764,21.254,245.078,22.033z"/>
	<path fill="none" d="M116.214,14.276c-0.283-0.342-0.615-0.476-1.011-0.476c-0.361,0-0.66,0.105-0.902,0.314
		c-0.242,0.205-0.437,0.511-0.586,0.904c-0.153,0.388-0.253,0.871-0.316,1.437c-0.062,0.546-0.094,1.202-0.094,1.911l0.001-0.001
		c-0.002,1.644,0.157,2.888,0.472,3.667c0.289,0.767,0.804,1.167,1.464,1.167c0.615,0,1.096-0.366,1.4-1.099
		c0.291-0.733,0.458-1.868,0.458-3.405c0-1.207-0.078-2.126-0.234-2.854C116.688,15.101,116.493,14.593,116.214,14.276z"/>
	<path fill="none" d="M63.214,59.076c-0.283-0.341-0.615-0.475-1.011-0.475c-0.361,0-0.66,0.104-0.902,0.313
		c-0.242,0.205-0.437,0.511-0.586,0.905c-0.153,0.387-0.253,0.871-0.316,1.436c-0.062,0.546-0.094,1.202-0.094,1.911l0-0.001
		c-0.002,1.645,0.157,2.888,0.473,3.667C61.067,67.6,61.582,68,62.242,68c0.615,0,1.096-0.366,1.4-1.098
		c0.291-0.734,0.458-1.869,0.458-3.406c0-1.207-0.078-2.126-0.234-2.854C63.688,59.901,63.493,59.393,63.214,59.076z"/>
	<path fill="none" d="M63.214,139.076c-0.283-0.341-0.615-0.475-1.011-0.475c-0.361,0-0.66,0.104-0.902,0.313
		c-0.242,0.205-0.437,0.511-0.586,0.905c-0.153,0.387-0.253,0.871-0.316,1.436c-0.062,0.546-0.094,1.202-0.094,1.911l0-0.001
		c-0.002,1.645,0.157,2.888,0.473,3.667C61.067,147.6,61.582,148,62.242,148c0.615,0,1.096-0.366,1.4-1.098
		c0.291-0.734,0.458-1.869,0.458-3.406c0-1.207-0.078-2.126-0.234-2.854C63.688,139.901,63.493,139.393,63.214,139.076z"/>
	<path fill="none" d="M63.214,104.076c-0.283-0.341-0.615-0.475-1.011-0.475c-0.361,0-0.66,0.104-0.902,0.313
		c-0.242,0.205-0.437,0.511-0.586,0.905c-0.153,0.387-0.253,0.871-0.316,1.436c-0.062,0.546-0.094,1.202-0.094,1.911l0-0.001
		c-0.002,1.645,0.157,2.888,0.473,3.667C61.067,112.6,61.582,113,62.242,113c0.615,0,1.096-0.366,1.4-1.098
		c0.291-0.734,0.458-1.869,0.458-3.406c0-1.207-0.078-2.126-0.234-2.854C63.688,104.901,63.493,104.393,63.214,104.076z"/>
	<path fill="none" d="M247.514,139.076c-0.283-0.341-0.615-0.475-1.011-0.475c-0.36,0-0.66,0.104-0.901,0.313
		c-0.242,0.205-0.438,0.511-0.586,0.905c-0.154,0.387-0.254,0.871-0.316,1.436c-0.062,0.546-0.094,1.202-0.094,1.91
		c-0.002,1.645,0.158,2.888,0.473,3.667c0.289,0.767,0.804,1.167,1.464,1.167c0.615,0,1.097-0.366,1.399-1.098
		c0.291-0.734,0.459-1.869,0.459-3.406c0-1.207-0.078-2.126-0.234-2.854C247.988,139.901,247.793,139.393,247.514,139.076z"/>
	<path d="M1.759,79.673c-0.113,0.511-0.201,0.854-0.256,1.033c-0.056,0.178-0.125,0.309-0.186,0.453
		c-0.066,0.125-0.173,0.205-0.248,0.291C0.971,81.52,0.815,81.569,0.627,81.6L0.541,82h3.191l0.086-0.4
		c-0.253-0.021-0.459-0.054-0.536-0.094c-0.104-0.041-0.198-0.109-0.233-0.2c-0.052-0.092-0.102-0.227-0.078-0.38
		c0-0.104-0.024-0.247,0.019-0.355c0.013-0.133,0.017-0.29,0.047-0.372c0.018-0.115,0.039-0.281,0.098-0.495L3.632,77.4
		c0.352,0.021,0.774,0.021,1.319,0.03c0.88,0,1.63-0.144,2.264-0.399c0.629-0.267,1.124-0.71,1.494-1.245
		c0.368-0.565,0.532-1.26,0.552-2.002c0-0.4-0.087-0.761-0.191-1.054c-0.125-0.303-0.349-0.579-0.573-0.75
		c-0.256-0.197-0.589-0.357-0.978-0.438C7.123,71.448,6.616,71.4,6,71.4l-0.003-0.002H2.574l-0.086,0.4
		c0.27,0.016,0.44,0.049,0.583,0.17c0.119,0.099,0.161,0.242,0.178,0.527c0,0.299-0.084,0.7-0.17,1.222L1.759,79.673z M4.82,72.124
		c0.352-0.015,0.678-0.022,1.009-0.022c0.71,0,1.199,0.133,1.522,0.416c0.305,0.277,0.455,0.705,0.458,1.312
		c0,0.442-0.07,0.833-0.202,1.22c-0.134,0.37-0.337,0.688-0.57,0.961c-0.246,0.27-0.591,0.467-0.948,0.598
		C5.704,76.736,5.174,76.8,4.572,76.8v0.001H3.764L4.82,72.124z"/>
	<rect x="15.556" y="78.6" width="9.566" height="1"/>
	<rect x="15.556" y="75.4" width="9.566" height="1"/>
	<polygon points="32.9,5.302 36,5.302 36,4.602 31.3,4.602 31.3,20.302 32.9,20.302 	"/>
	<polygon points="32.9,23.8 32.9,20.302 31.3,20.302 31.271,20.302 31.271,36.102 32.9,36.102 	"/>
	<polygon points="32.9,39.8 32.9,36.102 31.271,36.102 31.271,39.8 31.271,51.901 32.9,51.901 	"/>
	<polygon points="32.9,55.6 32.9,51.901 31.271,51.901 31.271,55.6 31.271,67.701 32.9,67.701 	"/>
	<polygon points="32.9,71.4 32.9,67.701 31.271,67.701 31.271,71.4 31.271,83.502 32.9,83.502 	"/>
	<polygon points="32.9,87.2 32.9,83.502 31.271,83.502 31.271,87.2 31.271,99.302 32.9,99.302 	"/>
	<polygon points="32.9,103 32.9,99.302 31.271,99.302 31.271,103 31.271,115.102 32.9,115.102 	"/>
	<polygon points="32.9,131.102 32.9,118.8 32.9,115.102 31.271,115.102 31.271,118.8 31.271,134.6 31.3,134.6 31.3,131.102 	"/>
	<polygon points="32.9,131.102 31.3,131.102 31.3,134.6 31.3,150.4 36,150.4 36,149.7 32.9,149.7 32.9,134.6 	"/>
	<path d="M58.505,5.157c-0.14,0.27-0.376,0.584-0.642,0.959c-0.26,0.34-0.715,0.834-1.281,1.497
		c-0.687,0.766-1.247,1.428-1.591,1.997c-0.375,0.565-0.671,1.095-0.891,1.657v0.432h6.273l0.133-2.3h-0.7
		c-0.08,0.237-0.148,0.404-0.198,0.526c-0.052,0.114-0.155,0.205-0.214,0.277c-0.089,0.072-0.221,0.104-0.359,0.152
		c-0.15,0.029-0.361,0.045-0.591,0.045h-2.821c0.453-0.771,1.146-1.704,2.133-2.705c0.575-0.617,0.957-1.082,1.214-1.322
		c0.234-0.264,0.444-0.555,0.643-0.781c0.193-0.257,0.323-0.521,0.461-0.72c0.115-0.224,0.19-0.481,0.252-0.678
		c0.054-0.229,0.079-0.494,0.081-0.752c0-0.794-0.27-1.408-0.733-1.816c-0.489-0.418-1.213-0.627-2.166-0.627
		c-0.433,0-0.936,0.033-1.463,0.195c-0.541,0.13-1.123,0.331-1.745,0.63v1.475h0.931c0.335-1.065,0.958-1.6,1.95-1.6
		c0.387,0,0.694,0.066,0.964,0.255c0.255,0.169,0.44,0.385,0.569,0.698c0.124,0.295,0.186,0.609,0.186,1.02
		c0,0.242-0.033,0.451-0.092,0.722C58.746,4.633,58.644,4.868,58.505,5.157z"/>
	<path d="M65.218,4.523C65.029,4.308,64.757,4.2,64.446,4.2c-0.398,0-0.78,0.1-1.072,0.312c-0.316,0.208-0.741,0.537-1.188,1.054
		L62.628,6c0.311-0.341,0.535-0.607,0.734-0.705C63.54,5.165,63.686,5.1,63.87,5.1c0.146,0,0.223,0.034,0.319,0.14
		c0.068,0.091,0.072,0.212,0.102,0.444c0,0.268-0.064,0.64-0.172,1.14L64.117,6.82l-1.133,4.877h1.344l0.737-3.342
		c0.108-0.479,0.219-0.899,0.419-1.208c0.171-0.327,0.376-0.678,0.68-1.012c0.282-0.348,0.527-0.628,0.8-0.779
		c0.251-0.173,0.463-0.26,0.702-0.26c0.27,0,0.447,0.066,0.583,0.234c0.119,0.157,0.169,0.412,0.178,0.766
		c0,0.145-0.043,0.312-0.058,0.563c-0.038,0.23-0.129,0.576-0.245,1.068l-0.341,1.33c-0.17,0.647-0.265,1.126-0.256,1.471
		c0,0.369,0.091,0.659,0.302,0.911c0.202,0.238,0.459,0.357,0.808,0.357c0.425,0,0.779-0.133,1.134-0.328
		c0.331-0.218,0.707-0.575,1.164-1.037l-0.442-0.434c-0.321,0.351-0.585,0.584-0.745,0.714c-0.176,0.124-0.359,0.187-0.497,0.187
		c-0.145,0-0.262-0.066-0.319-0.138c-0.067-0.092-0.111-0.247-0.1-0.444c0-0.23,0.055-0.637,0.209-1.184l0.505-2.011
		c0.15-0.592,0.201-1.067,0.225-1.373c0-0.485-0.157-0.869-0.389-1.139C69.124,4.337,68.73,4.2,68.273,4.2
		c-0.487,0-0.978,0.167-1.417,0.514c-0.458,0.343-0.943,0.838-1.448,1.581l-0.092-0.008c0.124-0.338,0.185-0.667,0.186-0.919
		C65.502,5.021,65.402,4.731,65.218,4.523z"/>
	<rect x="46.182" y="18.708" width="32.112" height="1.035"/>
	<path d="M48.316,29.521l-1.127,4.877h1.344l0.737-3.34c0.108-0.482,0.219-0.902,0.406-1.194c0.163-0.313,0.372-0.669,0.656-0.979
		c0.275-0.339,0.498-0.602,0.742-0.748c0.219-0.159,0.396-0.238,0.609-0.238c0.119,0,0.192,0,0.294,0.068
		c0.078,0.045,0.119,0.122,0.203,0.241c0.057,0.116,0.097,0.28,0.131,0.491h0.8l0.373-1.716c-0.254-0.057-0.582-0.084-0.947-0.084
		c-0.483,0-0.961,0.133-1.427,0.48c-0.468,0.322-0.973,0.794-1.463,1.513l0.002-0.003l-0.1-0.022
		c0.098-0.275,0.116-0.565,0.147-0.802c0-0.348-0.098-0.638-0.284-0.846c-0.189-0.215-0.459-0.322-0.772-0.322
		c-0.387,0-0.767,0.1-1.063,0.312c-0.321,0.208-0.745,0.537-1.195,1.053l0.444,0.435c0.31-0.341,0.537-0.607,0.732-0.705
		c0.178-0.13,0.326-0.195,0.51-0.195c0.144,0,0.223,0.034,0.316,0.139c0.068,0.092,0.074,0.213,0.102,0.445
		c0,0.112-0.027,0.251-0.031,0.423C48.434,28.974,48.384,29.205,48.316,29.521z"/>
	<rect x="58.456" y="29.4" width="9.566" height="1"/>
	<path d="M73.873,33.193c0,0.381,0.076,0.684,0.302,0.938c0.202,0.245,0.444,0.367,0.808,0.367c0.394,0,0.733-0.1,1.067-0.289
		c0.319-0.193,0.702-0.562,1.231-1.077l-0.442-0.434c-0.321,0.351-0.6,0.584-0.745,0.714c-0.176,0.124-0.375,0.186-0.498,0.186
		c-0.145,0-0.277-0.065-0.318-0.139c-0.068-0.092-0.127-0.246-0.102-0.448c0-0.253,0.042-0.656,0.172-1.145l1.909-8.567h-0.458
		L74.843,23.4L74.749,23.8c0.275,0.016,0.458,0.016,0.57,0.078c0.105,0.035,0.166,0.076,0.245,0.173
		c0.057,0.08,0.069,0.196,0.086,0.353c0,0.139-0.017,0.271-0.039,0.452c-0.025,0.161-0.097,0.378-0.133,0.652l0.001-0.001
		l-1.389,6.188C73.945,32.349,73.849,32.817,73.873,33.193z"/>
	<path d="M115.243,13.1c-0.503,0-0.983,0.101-1.391,0.325c-0.425,0.217-0.809,0.542-1.092,1.002
		c-0.303,0.45-0.556,1.008-0.708,1.711c-0.168,0.69-0.252,1.479-0.252,2.459c0,1.784,0.267,3.084,0.819,3.989
		c0.546,0.876,1.373,1.314,2.498,1.314h0.001c1.139,0,2-0.5,2.598-1.403c0.594-0.937,0.889-2.335,0.891-4.141
		c0-1.764-0.302-3.081-0.831-3.95C117.222,13.536,116.363,13.1,115.243,13.1z M116.642,22.102c-0.304,0.732-0.785,1.099-1.4,1.099
		c-0.66,0-1.175-0.4-1.464-1.167c-0.315-0.779-0.474-2.023-0.472-3.667l-0.001,0.001c0-0.709,0.032-1.365,0.094-1.911
		c0.063-0.565,0.163-1.049,0.316-1.437c0.149-0.394,0.344-0.699,0.586-0.904c0.242-0.209,0.541-0.314,0.902-0.314
		c0.396,0,0.728,0.134,1.011,0.476c0.279,0.316,0.474,0.824,0.652,1.566c0.156,0.728,0.234,1.646,0.234,2.854
		C117.1,20.233,116.933,21.368,116.642,22.102z"/>
	<path d="M172.212,4.521c-0.188-0.216-0.459-0.323-0.772-0.323c-0.387,0-0.767,0.1-1.063,0.312
		c-0.321,0.208-0.745,0.537-1.194,1.054l0.443,0.434c0.311-0.341,0.537-0.607,0.732-0.705c0.179-0.13,0.326-0.195,0.51-0.195
		c0.145,0,0.223,0.034,0.316,0.14c0.068,0.091,0.074,0.212,0.103,0.444c0,0.112-0.027,0.251-0.031,0.424
		c-0.021,0.169-0.071,0.399-0.139,0.716l-1.128,4.877h1.345l0.737-3.339c0.107-0.483,0.219-0.903,0.406-1.195
		c0.162-0.313,0.371-0.669,0.655-0.979c0.275-0.339,0.498-0.602,0.742-0.747c0.219-0.159,0.396-0.239,0.608-0.239
		c0.119,0,0.192,0,0.295,0.068c0.078,0.046,0.119,0.122,0.203,0.241c0.057,0.116,0.097,0.28,0.131,0.491h0.8l0.373-1.716
		c-0.255-0.057-0.582-0.084-0.947-0.084c-0.483,0-0.961,0.133-1.427,0.48c-0.469,0.322-0.973,0.794-1.463,1.514l0.002-0.003
		l-0.1-0.023c0.098-0.275,0.115-0.565,0.146-0.802C172.496,5.019,172.398,4.729,172.212,4.521z"/>
	<polygon points="185.588,2.2 185.588,6.7 181.357,6.7 181.357,7.7 185.588,7.7 185.588,12.2 186.691,12.2 186.691,7.7 190.922,7.7 
		190.922,6.7 186.691,6.7 186.691,2.2 	"/>
	<path d="M196.673,10.493c0,0.381,0.076,0.684,0.302,0.938c0.202,0.245,0.444,0.367,0.809,0.367c0.394,0,0.732-0.1,1.066-0.289
		c0.319-0.192,0.702-0.562,1.231-1.077l-0.442-0.434c-0.32,0.351-0.6,0.584-0.744,0.714c-0.177,0.124-0.375,0.187-0.498,0.187
		c-0.145,0-0.276-0.066-0.318-0.14c-0.068-0.092-0.127-0.246-0.102-0.448c0-0.253,0.041-0.656,0.172-1.145l1.908-8.567H199.6
		L197.643,0.7L197.549,1.1c0.275,0.016,0.458,0.016,0.57,0.078c0.105,0.035,0.166,0.076,0.244,0.173
		c0.058,0.08,0.07,0.196,0.087,0.353c0,0.139-0.017,0.271-0.039,0.452c-0.026,0.162-0.097,0.378-0.134,0.652l0.002-0.001
		l-1.389,6.188C196.745,9.649,196.648,10.117,196.673,10.493z"/>
	<rect x="169.046" y="18.708" width="32.128" height="1.035"/>
	<path d="M171.116,29.521l-1.128,4.877h1.345l0.737-3.34c0.107-0.482,0.219-0.902,0.406-1.194c0.162-0.313,0.371-0.669,0.655-0.979
		c0.275-0.339,0.498-0.602,0.742-0.748c0.219-0.159,0.396-0.238,0.608-0.238c0.119,0,0.192,0,0.295,0.068
		c0.078,0.045,0.119,0.122,0.203,0.241c0.057,0.116,0.097,0.28,0.131,0.491h0.8l0.373-1.716c-0.255-0.057-0.582-0.084-0.947-0.084
		c-0.483,0-0.961,0.133-1.427,0.48c-0.469,0.322-0.973,0.794-1.463,1.513l0.002-0.003l-0.1-0.022
		c0.098-0.275,0.115-0.565,0.146-0.802c0-0.348-0.098-0.638-0.284-0.846c-0.188-0.215-0.459-0.322-0.772-0.322
		c-0.387,0-0.767,0.1-1.063,0.312c-0.321,0.208-0.745,0.537-1.194,1.053l0.443,0.435c0.311-0.341,0.537-0.607,0.732-0.705
		c0.179-0.13,0.326-0.195,0.51-0.195c0.145,0,0.223,0.034,0.316,0.139c0.068,0.092,0.074,0.213,0.103,0.445
		c0,0.112-0.027,0.251-0.031,0.423C171.234,28.974,171.184,29.205,171.116,29.521z"/>
	<rect x="181.355" y="29.4" width="9.566" height="1"/>
	<path d="M196.673,33.193c0,0.381,0.076,0.684,0.302,0.938c0.202,0.245,0.444,0.367,0.809,0.367c0.394,0,0.732-0.1,1.066-0.289
		c0.319-0.193,0.702-0.562,1.231-1.077l-0.442-0.434c-0.32,0.351-0.6,0.584-0.744,0.714c-0.177,0.124-0.375,0.186-0.498,0.186
		c-0.145,0-0.276-0.065-0.318-0.139c-0.068-0.092-0.127-0.246-0.102-0.448c0-0.253,0.041-0.656,0.172-1.145l1.908-8.567H199.6
		l-1.957,0.101l-0.094,0.399c0.275,0.016,0.458,0.016,0.57,0.078c0.105,0.035,0.166,0.076,0.244,0.173
		c0.058,0.08,0.07,0.196,0.087,0.353c0,0.139-0.017,0.271-0.039,0.452c-0.026,0.161-0.097,0.378-0.134,0.652l0.002-0.001
		l-1.389,6.188C196.745,32.349,196.648,32.817,196.673,33.193z"/>
	<path d="M246.417,23.9L246.417,23.9c1.14,0,2.001-0.5,2.599-1.403c0.594-0.937,0.889-2.335,0.892-4.141
		c0-1.764-0.302-3.081-0.831-3.95c-0.555-0.87-1.413-1.307-2.533-1.307c-0.503,0-0.982,0.101-1.391,0.325
		c-0.426,0.217-0.81,0.542-1.092,1.002c-0.304,0.45-0.557,1.008-0.709,1.711c-0.168,0.69-0.252,1.479-0.252,2.459
		c0,1.784,0.268,3.084,0.819,3.989C244.465,23.462,245.292,23.9,246.417,23.9z M245.016,15.02c0.148-0.394,0.344-0.699,0.586-0.904
		c0.241-0.209,0.541-0.314,0.901-0.314c0.396,0,0.728,0.134,1.011,0.476c0.279,0.316,0.475,0.824,0.652,1.566
		c0.156,0.728,0.234,1.646,0.234,2.854c0,1.537-0.168,2.672-0.459,3.405c-0.303,0.732-0.784,1.099-1.399,1.099
		c-0.66,0-1.175-0.4-1.464-1.167c-0.314-0.779-0.475-2.023-0.473-3.667c0-0.709,0.031-1.365,0.094-1.911
		C244.762,15.891,244.861,15.407,245.016,15.02z"/>
	<path d="M64.776,59.206c-0.555-0.87-1.414-1.306-2.533-1.306c-0.503,0-0.983,0.1-1.391,0.324c-0.425,0.218-0.809,0.543-1.092,1.002
		c-0.303,0.45-0.556,1.009-0.708,1.711c-0.168,0.69-0.252,1.479-0.252,2.459c0,1.784,0.268,3.084,0.819,3.989
		c0.546,0.876,1.373,1.314,2.498,1.314h0.001c1.139,0,2-0.5,2.598-1.403c0.594-0.936,0.889-2.335,0.891-4.141
		C65.607,61.393,65.305,60.075,64.776,59.206z M63.642,66.902C63.338,67.634,62.857,68,62.242,68c-0.66,0-1.175-0.4-1.464-1.167
		c-0.315-0.779-0.475-2.022-0.473-3.667l0,0.001c0-0.709,0.032-1.365,0.094-1.911c0.063-0.564,0.163-1.049,0.316-1.436
		c0.149-0.395,0.344-0.7,0.586-0.905c0.242-0.209,0.541-0.313,0.902-0.313c0.396,0,0.728,0.134,1.011,0.475
		c0.279,0.316,0.474,0.825,0.652,1.566c0.156,0.728,0.234,1.646,0.234,2.854C64.1,65.033,63.933,66.168,63.642,66.902z"/>
	<path d="M111.505,50.057c-0.14,0.271-0.376,0.584-0.642,0.959c-0.26,0.34-0.715,0.834-1.281,1.497
		c-0.687,0.767-1.247,1.429-1.591,1.997c-0.375,0.566-0.671,1.096-0.891,1.658v0.431h6.273l0.133-2.3h-0.7
		c-0.08,0.238-0.149,0.405-0.198,0.527c-0.052,0.113-0.155,0.205-0.214,0.277c-0.089,0.071-0.221,0.104-0.359,0.151
		c-0.15,0.03-0.361,0.045-0.591,0.045h-2.821c0.453-0.771,1.146-1.704,2.133-2.705c0.575-0.616,0.957-1.082,1.214-1.321
		c0.234-0.265,0.444-0.556,0.642-0.781c0.193-0.257,0.323-0.521,0.462-0.72c0.115-0.225,0.19-0.481,0.252-0.679
		c0.054-0.229,0.079-0.494,0.081-0.752c0-0.794-0.269-1.408-0.733-1.815c-0.489-0.418-1.214-0.627-2.166-0.627
		c-0.433,0-0.936,0.032-1.463,0.194c-0.541,0.13-1.123,0.331-1.745,0.63v1.476h0.931c0.335-1.066,0.958-1.601,1.95-1.601
		c0.387,0,0.694,0.067,0.964,0.255c0.255,0.17,0.44,0.386,0.569,0.698c0.124,0.295,0.186,0.61,0.186,1.021
		c0,0.242-0.033,0.451-0.092,0.722C111.746,49.533,111.644,49.768,111.505,50.057z"/>
	<path d="M122.446,52.023c0.15-0.593,0.201-1.067,0.225-1.373c0-0.485-0.157-0.869-0.389-1.14c-0.258-0.273-0.652-0.411-1.109-0.411
		c-0.487,0-0.978,0.167-1.417,0.515c-0.458,0.343-0.943,0.838-1.448,1.581l-0.092-0.008c0.124-0.339,0.185-0.668,0.186-0.92
		c0-0.347-0.1-0.637-0.284-0.845c-0.189-0.215-0.461-0.323-0.772-0.323c-0.398,0-0.78,0.101-1.072,0.313
		c-0.316,0.208-0.741,0.537-1.188,1.053l0.442,0.435c0.311-0.342,0.535-0.607,0.734-0.705c0.178-0.13,0.324-0.195,0.508-0.195
		c0.146,0,0.223,0.034,0.319,0.139c0.068,0.092,0.072,0.212,0.102,0.445c0,0.267-0.064,0.639-0.172,1.139l-0.002-0.003l-1.133,4.877
		h1.344l0.737-3.342c0.108-0.479,0.219-0.899,0.419-1.208c0.171-0.327,0.376-0.677,0.68-1.011c0.282-0.348,0.527-0.628,0.8-0.78
		c0.251-0.172,0.463-0.259,0.702-0.259c0.27,0,0.447,0.066,0.583,0.234c0.119,0.156,0.169,0.411,0.178,0.766
		c0,0.144-0.043,0.311-0.058,0.563c-0.038,0.23-0.129,0.575-0.245,1.068l-0.341,1.33c-0.171,0.646-0.265,1.126-0.256,1.47
		c0,0.369,0.091,0.659,0.302,0.911c0.202,0.239,0.459,0.358,0.808,0.358c0.425,0,0.779-0.134,1.134-0.328
		c0.331-0.218,0.707-0.575,1.164-1.037l-0.442-0.435c-0.321,0.352-0.585,0.584-0.745,0.715c-0.176,0.124-0.359,0.186-0.497,0.186
		c-0.145,0-0.262-0.066-0.319-0.137c-0.067-0.092-0.111-0.247-0.1-0.445c0-0.229,0.055-0.636,0.209-1.183L122.446,52.023z"/>
	<rect x="98.07" y="63.572" width="34.224" height="1.035"/>
	<path d="M100.918,75.686l0.691-2.984h2.359l0.172-0.8h-2.361l0.427-1.9h-1.07c-0.165,0.532-0.31,0.897-0.373,1.116
		c-0.082,0.212-0.17,0.374-0.256,0.525c-0.088,0.137-0.19,0.223-0.291,0.315c-0.106,0.073-0.245,0.121-0.396,0.173
		c-0.158,0.041-0.397,0.065-0.694,0.07l-0.117,0.5h1.305l-0.916,3.992c-0.089,0.379-0.154,0.715-0.133,1.084
		c0,1.082,0.511,1.623,1.623,1.623c0.455,0,0.86-0.133,1.308-0.372c0.416-0.248,0.818-0.657,1.3-1.153l-0.45-0.475
		c-0.353,0.401-0.668,0.668-0.913,0.852c-0.256,0.165-0.501,0.248-0.725,0.248c-0.534,0-0.803-0.333-0.8-0.953
		c0-0.152-0.003-0.369,0.053-0.611C100.697,76.681,100.776,76.236,100.918,75.686z"/>
	<rect x="109.056" y="74.3" width="9.565" height="1"/>
	<path d="M124.114,79.277l0.497,0.123l0.714-0.494l0.002,0.001c0.533,0.33,1.125,0.494,1.833,0.494c0.755,0,1.436-0.268,2.048-0.72
		c0.612-0.479,1.076-1.141,1.433-1.946c0.344-0.817,0.498-1.662,0.517-2.495c0-0.775-0.185-1.389-0.47-1.801
		c-0.313-0.426-0.775-0.639-1.316-0.639c-0.44,0-0.896,0.133-1.32,0.448c-0.44,0.299-0.924,0.783-1.413,1.453l-0.102-0.031
		l1.367-5.47h-0.45l-1.964,0.1l-0.094,0.4c0.341,0.011,0.576,0.044,0.709,0.146c0.132,0.088,0.197,0.238,0.198,0.456
		c0,0.237-0.068,0.603-0.178,1.143L124.114,79.277z M126.55,74.826c0.186-0.38,0.402-0.755,0.722-1.112
		c0.296-0.362,0.538-0.633,0.805-0.778c0.241-0.156,0.481-0.235,0.733-0.235c0.337,0,0.566,0.134,0.733,0.401
		c0.153,0.268,0.205,0.666,0.23,1.2c0,0.396-0.058,0.795-0.125,1.245c-0.082,0.434-0.198,0.818-0.348,1.221
		c-0.15,0.379-0.317,0.689-0.494,0.957c-0.178,0.26-0.381,0.451-0.566,0.629c-0.199,0.159-0.413,0.241-0.586,0.344
		c-0.192,0.068-0.41,0.103-0.606,0.103c-0.414,0-0.73-0.1-0.889-0.269c-0.178-0.18-0.298-0.491-0.267-0.878
		c0-0.339,0.036-0.69,0.117-1.048l-0.001-0.002l0.069-0.322C126.205,75.689,126.346,75.196,126.55,74.826z"/>
	<path d="M168.908,50.001h1.305l-0.916,3.992c-0.089,0.379-0.154,0.715-0.133,1.084c0,1.082,0.511,1.623,1.623,1.623
		c0.455,0,0.859-0.133,1.309-0.372c0.416-0.248,0.817-0.657,1.299-1.153l-0.449-0.475c-0.354,0.401-0.668,0.668-0.913,0.852
		c-0.257,0.165-0.501,0.248-0.726,0.248c-0.533,0-0.803-0.333-0.8-0.953c0-0.152-0.003-0.368,0.054-0.611
		c0.037-0.255,0.115-0.699,0.258-1.25l0.69-2.984h2.359l0.172-0.8h-2.36l0.426-1.9h-1.069c-0.165,0.532-0.31,0.898-0.373,1.116
		c-0.082,0.212-0.17,0.374-0.256,0.525c-0.089,0.137-0.19,0.223-0.291,0.315c-0.106,0.073-0.245,0.121-0.397,0.173
		c-0.158,0.041-0.396,0.065-0.693,0.07L168.908,50.001z"/>
	<polygon points="184.291,57.1 184.291,52.6 188.521,52.6 188.521,51.6 184.291,51.6 184.291,47.1 183.188,47.1 183.188,51.6 
		178.957,51.6 178.957,52.6 183.188,52.6 183.188,57.1 	"/>
	<path d="M194.014,56.577l0.498,0.123l0.713-0.494l0.002,0.001c0.533,0.33,1.125,0.494,1.834,0.494c0.754,0,1.436-0.268,2.047-0.719
		c0.613-0.48,1.076-1.142,1.434-1.947c0.344-0.817,0.498-1.662,0.518-2.495c0-0.775-0.186-1.388-0.471-1.8
		c-0.312-0.426-0.775-0.64-1.316-0.64c-0.439,0-0.896,0.134-1.319,0.448c-0.44,0.299-0.925,0.783-1.413,1.453l-0.102-0.031
		l1.367-5.47h-0.451l-1.963,0.1l-0.095,0.4c0.341,0.011,0.576,0.044,0.709,0.147c0.132,0.087,0.197,0.237,0.198,0.455
		c0,0.237-0.068,0.603-0.178,1.143L194.014,56.577z M196.45,52.126c0.187-0.38,0.401-0.755,0.722-1.112
		c0.296-0.361,0.538-0.633,0.805-0.777c0.241-0.157,0.481-0.236,0.733-0.236c0.337,0,0.565,0.134,0.733,0.402
		c0.152,0.267,0.205,0.666,0.229,1.199c0,0.396-0.058,0.795-0.125,1.245c-0.082,0.434-0.198,0.818-0.348,1.221
		c-0.15,0.379-0.317,0.689-0.494,0.958c-0.179,0.259-0.381,0.451-0.565,0.628c-0.199,0.159-0.414,0.241-0.586,0.344
		c-0.193,0.069-0.41,0.103-0.606,0.103c-0.414,0-0.73-0.1-0.89-0.269c-0.178-0.18-0.297-0.491-0.267-0.878
		c0-0.339,0.036-0.69,0.117-1.048l-0.001-0.001l0.068-0.323C196.105,52.99,196.246,52.496,196.45,52.126z"/>
	<rect x="168.006" y="63.572" width="34.225" height="1.035"/>
	<path d="M169.164,77.777c0,1.082,0.511,1.623,1.623,1.623c0.455,0,0.859-0.133,1.309-0.372c0.416-0.248,0.817-0.657,1.299-1.153
		l-0.449-0.475c-0.354,0.401-0.668,0.668-0.913,0.852c-0.257,0.165-0.501,0.248-0.726,0.248c-0.533,0-0.803-0.333-0.8-0.953
		c0-0.152-0.003-0.369,0.054-0.611c0.037-0.255,0.115-0.699,0.258-1.25l0.69-2.984h2.359l0.172-0.8h-2.36l0.426-1.9h-1.069
		c-0.165,0.532-0.31,0.897-0.373,1.116c-0.082,0.212-0.17,0.374-0.256,0.525c-0.089,0.137-0.19,0.223-0.291,0.315
		c-0.106,0.073-0.245,0.121-0.397,0.173c-0.158,0.041-0.396,0.065-0.693,0.07l-0.117,0.5h1.305l-0.916,3.992
		C169.208,77.072,169.143,77.408,169.164,77.777z"/>
	<rect x="178.956" y="74.3" width="9.565" height="1"/>
	<path d="M194.014,79.277l0.498,0.123l0.713-0.494l0.002,0.001c0.533,0.33,1.125,0.494,1.834,0.494c0.754,0,1.436-0.268,2.047-0.72
		c0.613-0.479,1.076-1.141,1.434-1.946c0.344-0.817,0.498-1.662,0.518-2.495c0-0.775-0.186-1.389-0.471-1.801
		c-0.312-0.426-0.775-0.639-1.316-0.639c-0.439,0-0.896,0.133-1.319,0.448c-0.44,0.299-0.925,0.783-1.413,1.453l-0.102-0.031
		l1.367-5.47h-0.451l-1.963,0.1l-0.095,0.4c0.341,0.011,0.576,0.044,0.709,0.146c0.132,0.088,0.197,0.238,0.198,0.456
		c0,0.237-0.068,0.603-0.178,1.143L194.014,79.277z M196.45,74.826c0.187-0.38,0.401-0.755,0.722-1.112
		c0.296-0.362,0.538-0.633,0.805-0.778c0.241-0.156,0.481-0.235,0.733-0.235c0.337,0,0.565,0.134,0.733,0.401
		c0.152,0.268,0.205,0.666,0.229,1.2c0,0.396-0.058,0.795-0.125,1.245c-0.082,0.434-0.198,0.818-0.348,1.221
		c-0.15,0.379-0.317,0.689-0.494,0.957c-0.179,0.26-0.381,0.451-0.565,0.629c-0.199,0.159-0.414,0.241-0.586,0.344
		c-0.193,0.068-0.41,0.103-0.606,0.103c-0.414,0-0.73-0.1-0.89-0.269c-0.178-0.18-0.297-0.491-0.267-0.878
		c0-0.339,0.036-0.69,0.117-1.048l-0.001-0.002l0.068-0.322C196.105,75.689,196.246,75.196,196.45,74.826z"/>
	<path d="M243.919,67.386c0.546,0.876,1.373,1.314,2.498,1.314h0.001c1.139,0,2-0.5,2.598-1.403
		c0.594-0.936,0.889-2.335,0.892-4.141c0-1.764-0.302-3.081-0.831-3.95c-0.555-0.87-1.413-1.306-2.533-1.306
		c-0.503,0-0.982,0.1-1.391,0.324c-0.426,0.218-0.81,0.543-1.092,1.002c-0.304,0.45-0.557,1.009-0.709,1.711
		c-0.168,0.69-0.252,1.479-0.252,2.459C243.1,65.181,243.367,66.48,243.919,67.386z M245.016,59.82
		c0.148-0.395,0.344-0.7,0.586-0.905c0.241-0.209,0.541-0.313,0.901-0.313c0.396,0,0.728,0.134,1.011,0.475
		c0.279,0.316,0.475,0.825,0.652,1.566c0.156,0.728,0.234,1.646,0.234,2.854c0,1.537-0.168,2.672-0.459,3.406
		c-0.303,0.731-0.784,1.098-1.399,1.098c-0.66,0-1.175-0.4-1.464-1.167c-0.314-0.779-0.475-2.022-0.473-3.667
		c0-0.709,0.031-1.365,0.094-1.911C244.762,60.691,244.861,60.207,245.016,59.82z"/>
	<path d="M64.776,104.206c-0.555-0.87-1.414-1.306-2.533-1.306c-0.503,0-0.983,0.1-1.391,0.324
		c-0.425,0.218-0.809,0.543-1.092,1.002c-0.303,0.45-0.556,1.009-0.708,1.711c-0.168,0.69-0.252,1.479-0.252,2.459
		c0,1.784,0.268,3.084,0.819,3.989c0.546,0.876,1.373,1.314,2.498,1.314h0.001c1.139,0,2-0.5,2.598-1.403
		c0.594-0.936,0.889-2.335,0.891-4.141C65.607,106.393,65.305,105.075,64.776,104.206z M63.642,111.902
		c-0.304,0.731-0.785,1.098-1.4,1.098c-0.66,0-1.175-0.4-1.464-1.167c-0.315-0.779-0.475-2.022-0.473-3.667l0,0.001
		c0-0.709,0.032-1.365,0.094-1.911c0.063-0.564,0.163-1.049,0.316-1.436c0.149-0.395,0.344-0.7,0.586-0.905
		c0.242-0.209,0.541-0.313,0.902-0.313c0.396,0,0.728,0.134,1.011,0.475c0.279,0.316,0.474,0.825,0.652,1.566
		c0.156,0.728,0.234,1.646,0.234,2.854C64.1,110.033,63.933,111.168,63.642,111.902z"/>
	<path d="M117.776,104.206c-0.554-0.87-1.413-1.306-2.533-1.306c-0.503,0-0.983,0.1-1.391,0.324
		c-0.425,0.218-0.809,0.543-1.092,1.002c-0.303,0.45-0.556,1.009-0.708,1.711c-0.168,0.69-0.252,1.479-0.252,2.459
		c0,1.784,0.267,3.084,0.819,3.989c0.546,0.876,1.373,1.314,2.498,1.314h0.001c1.139,0,2-0.5,2.598-1.403
		c0.594-0.936,0.889-2.335,0.891-4.141C118.607,106.393,118.305,105.075,117.776,104.206z M116.642,111.902
		c-0.304,0.731-0.785,1.098-1.4,1.098c-0.66,0-1.175-0.4-1.464-1.167c-0.315-0.779-0.474-2.022-0.472-3.667l-0.001,0.001
		c0-0.709,0.032-1.365,0.094-1.911c0.063-0.564,0.163-1.049,0.316-1.436c0.149-0.395,0.344-0.7,0.586-0.905
		c0.242-0.209,0.541-0.313,0.902-0.313c0.396,0,0.728,0.134,1.011,0.475c0.279,0.316,0.474,0.825,0.652,1.566
		c0.156,0.728,0.234,1.646,0.234,2.854C117.1,110.033,116.933,111.168,116.642,111.902z"/>
	<rect x="151.855" y="108.6" width="9.566" height="1"/>
	<path d="M165.939,103.409c-0.142,0.291-0.321,0.487-0.461,0.614c-0.164,0.117-0.391,0.177-0.598,0.177
		c-0.191,0-0.316-0.033-0.363-0.023l-0.134,0.685c0.125,0.025,0.265,0.039,0.513,0.039c0.744,0,1.347-0.301,1.855-0.819
		c0.491-0.545,0.841-1.405,1.096-2.484v-0.002l1.444-6.696h2.003l0.17-0.801h-1.994l0.193-0.842
		c0.124-0.542,0.236-0.995,0.402-1.291c0.146-0.318,0.291-0.575,0.525-0.723c0.203-0.163,0.44-0.244,0.748-0.244
		c0.229,0,0.381,0.034,0.518,0.188c0.117,0.125,0.197,0.329,0.283,0.613h0.684l0.302-1.279c-0.367-0.08-0.81-0.121-1.312-0.121
		c-0.885,0-1.623,0.234-2.186,0.709c-0.572,0.472-1.016,1.169-1.27,2.112c-0.094,0.312-0.18,0.507-0.229,0.646
		c-0.059,0.115-0.136,0.195-0.217,0.283c-0.086,0.073-0.223,0.123-0.357,0.164c-0.152,0.037-0.404,0.065-0.748,0.086l-0.117,0.5
		h1.312l-1.669,7.298C166.214,102.713,166.07,103.114,165.939,103.409z"/>
	<polygon points="177.957,97.5 182.188,97.5 182.188,102 183.291,102 183.291,97.5 187.521,97.5 187.521,96.5 183.291,96.5 
		183.291,92 182.188,92 182.188,96.5 177.957,96.5 	"/>
	<path d="M192.486,95.366l0.441,0.434c0.311-0.341,0.535-0.606,0.734-0.705c0.178-0.13,0.324-0.194,0.508-0.194
		c0.146,0,0.223,0.033,0.318,0.139c0.068,0.091,0.072,0.212,0.103,0.445c0,0.267-0.063,0.639-0.172,1.139l-0.002-0.003l-1.133,4.877
		h1.344l0.737-3.342c0.107-0.479,0.219-0.899,0.419-1.208c0.171-0.327,0.376-0.678,0.68-1.012c0.282-0.348,0.527-0.628,0.8-0.779
		c0.252-0.172,0.463-0.26,0.702-0.26c0.271,0,0.447,0.066,0.583,0.234c0.119,0.157,0.169,0.412,0.178,0.766
		c0,0.145-0.043,0.312-0.058,0.563c-0.038,0.231-0.129,0.576-0.245,1.069l-0.341,1.33c-0.171,0.646-0.265,1.126-0.256,1.47
		c0,0.369,0.091,0.659,0.302,0.911c0.202,0.238,0.459,0.357,0.809,0.357c0.424,0,0.778-0.133,1.133-0.328
		c0.332-0.218,0.707-0.574,1.164-1.037l-0.441-0.434c-0.32,0.352-0.585,0.584-0.745,0.714c-0.176,0.124-0.358,0.187-0.497,0.187
		c-0.145,0-0.262-0.066-0.318-0.137c-0.067-0.093-0.111-0.248-0.101-0.445c0-0.23,0.056-0.637,0.209-1.184l0.505-2.011
		c0.15-0.592,0.201-1.067,0.225-1.373c0-0.485-0.156-0.869-0.389-1.139c-0.258-0.274-0.652-0.411-1.108-0.411
		c-0.487,0-0.978,0.167-1.417,0.514c-0.458,0.344-0.943,0.838-1.448,1.581l-0.092-0.008c0.124-0.338,0.185-0.667,0.186-0.919
		c0-0.347-0.1-0.637-0.284-0.845c-0.188-0.216-0.461-0.323-0.771-0.323c-0.398,0-0.78,0.1-1.072,0.312
		C193.357,94.521,192.934,94.85,192.486,95.366z"/>
	<rect x="164.502" y="108.5" width="37.184" height="1.035"/>
	<path d="M164.896,127.6c0.744,0,1.347-0.3,1.855-0.818c0.491-0.545,0.841-1.405,1.096-2.484v-0.002l1.444-6.697h2.003l0.17-0.8
		h-1.994l0.193-0.842c0.124-0.542,0.236-0.995,0.402-1.291c0.146-0.319,0.291-0.575,0.525-0.723c0.203-0.163,0.44-0.244,0.748-0.244
		c0.229,0,0.381,0.034,0.518,0.188c0.117,0.125,0.197,0.329,0.283,0.613h0.684l0.302-1.28c-0.367-0.08-0.81-0.12-1.312-0.12
		c-0.885,0-1.623,0.234-2.186,0.708c-0.572,0.473-1.016,1.17-1.27,2.113c-0.094,0.312-0.18,0.506-0.229,0.645
		c-0.059,0.116-0.136,0.195-0.217,0.284c-0.086,0.073-0.223,0.123-0.357,0.164c-0.152,0.037-0.404,0.065-0.748,0.086l-0.117,0.5
		h1.312l-1.669,7.298c-0.12,0.517-0.264,0.918-0.395,1.213c-0.142,0.291-0.321,0.487-0.461,0.613
		c-0.164,0.118-0.391,0.178-0.598,0.178c-0.191,0-0.316-0.033-0.363-0.023l-0.134,0.684
		C164.509,127.587,164.648,127.6,164.896,127.6z"/>
	<rect x="177.956" y="119.2" width="9.565" height="1"/>
	<path d="M198.424,120.229l-0.341,1.33c-0.171,0.647-0.265,1.127-0.256,1.471c0,0.369,0.091,0.658,0.302,0.91
		c0.202,0.239,0.459,0.358,0.809,0.358c0.424,0,0.778-0.133,1.133-0.328c0.332-0.218,0.707-0.575,1.164-1.037l-0.441-0.434
		c-0.32,0.351-0.585,0.584-0.745,0.714c-0.176,0.124-0.358,0.186-0.497,0.186c-0.145,0-0.262-0.065-0.318-0.137
		c-0.067-0.092-0.111-0.247-0.101-0.444c0-0.23,0.056-0.637,0.209-1.184l0.505-2.011c0.15-0.592,0.201-1.067,0.225-1.373
		c0-0.485-0.156-0.869-0.389-1.139c-0.258-0.274-0.652-0.411-1.108-0.411c-0.487,0-0.978,0.167-1.417,0.514
		c-0.458,0.343-0.943,0.838-1.448,1.581l-0.092-0.008c0.124-0.338,0.185-0.667,0.186-0.919c0-0.347-0.1-0.638-0.284-0.845
		c-0.188-0.216-0.461-0.323-0.771-0.323c-0.398,0-0.78,0.1-1.072,0.312c-0.316,0.208-0.74,0.537-1.188,1.054l0.441,0.434
		c0.311-0.341,0.535-0.607,0.734-0.705c0.178-0.13,0.324-0.195,0.508-0.195c0.146,0,0.223,0.034,0.318,0.14
		c0.068,0.091,0.072,0.212,0.103,0.444c0,0.268-0.063,0.64-0.172,1.14l-0.002-0.003l-1.133,4.877h1.344l0.737-3.342
		c0.107-0.479,0.219-0.899,0.419-1.209c0.171-0.326,0.376-0.677,0.68-1.011c0.282-0.348,0.527-0.628,0.8-0.78
		c0.252-0.172,0.463-0.259,0.702-0.259c0.271,0,0.447,0.066,0.583,0.234c0.119,0.157,0.169,0.412,0.178,0.766
		c0,0.145-0.043,0.312-0.058,0.563C198.631,119.391,198.54,119.736,198.424,120.229z"/>
	<rect x="221.256" y="108.6" width="9.566" height="1"/>
	<path d="M244.404,94.957c-0.139,0.27-0.375,0.584-0.641,0.959c-0.261,0.34-0.716,0.834-1.281,1.497
		c-0.688,0.766-1.248,1.428-1.592,1.997c-0.375,0.566-0.67,1.095-0.891,1.658v0.431h6.273l0.133-2.3h-0.7
		c-0.08,0.238-0.149,0.404-0.198,0.527c-0.052,0.113-0.154,0.204-0.214,0.276c-0.089,0.072-0.221,0.104-0.358,0.152
		c-0.15,0.03-0.361,0.045-0.592,0.045h-2.82c0.453-0.771,1.146-1.704,2.133-2.705c0.574-0.617,0.957-1.082,1.214-1.322
		c0.233-0.264,0.444-0.555,0.642-0.78c0.193-0.258,0.323-0.521,0.463-0.721c0.114-0.224,0.189-0.48,0.252-0.678
		c0.053-0.229,0.078-0.494,0.08-0.752c0-0.794-0.269-1.408-0.732-1.816c-0.489-0.418-1.215-0.627-2.166-0.627
		c-0.434,0-0.936,0.033-1.463,0.195c-0.541,0.13-1.123,0.331-1.745,0.63v1.475h0.931c0.335-1.065,0.958-1.6,1.95-1.6
		c0.387,0,0.694,0.067,0.964,0.255c0.255,0.169,0.439,0.385,0.568,0.698c0.125,0.295,0.187,0.61,0.187,1.02
		c0,0.242-0.032,0.451-0.092,0.723C244.646,94.433,244.544,94.668,244.404,94.957z"/>
	<path d="M249.24,103.409c-0.143,0.291-0.322,0.487-0.461,0.614c-0.166,0.117-0.391,0.177-0.598,0.177
		c-0.191,0-0.318-0.033-0.365-0.023l-0.133,0.685c0.125,0.025,0.265,0.039,0.512,0.039c0.746,0,1.348-0.301,1.856-0.819
		c0.491-0.545,0.841-1.405,1.095-2.484l0.002-0.002l1.443-6.696h2.004l0.17-0.801h-1.996l0.194-0.842
		c0.124-0.542,0.236-0.995,0.403-1.291c0.146-0.318,0.291-0.575,0.525-0.723c0.203-0.163,0.439-0.244,0.748-0.244
		c0.228,0,0.381,0.034,0.517,0.188c0.116,0.125,0.198,0.329,0.282,0.613h0.685l0.302-1.279c-0.367-0.08-0.809-0.121-1.311-0.121
		c-0.887,0-1.623,0.234-2.186,0.709c-0.572,0.472-1.016,1.169-1.271,2.112c-0.093,0.312-0.179,0.507-0.228,0.646
		c-0.06,0.115-0.137,0.195-0.218,0.283c-0.086,0.073-0.223,0.123-0.358,0.164c-0.151,0.037-0.402,0.065-0.748,0.086l-0.116,0.5
		h1.312l-1.669,7.298C249.514,102.713,249.37,103.114,249.24,103.409z"/>
	<path d="M259.818,94.323c-0.189-0.216-0.461-0.323-0.772-0.323c-0.397,0-0.78,0.1-1.071,0.312
		c-0.316,0.209-0.742,0.537-1.188,1.054l0.442,0.434c0.311-0.341,0.535-0.606,0.733-0.705c0.179-0.13,0.324-0.194,0.509-0.194
		c0.146,0,0.223,0.033,0.318,0.139c0.068,0.091,0.072,0.212,0.102,0.445c0,0.267-0.063,0.639-0.172,1.139l-0.002-0.003l-1.133,4.877
		h1.344l0.737-3.342c0.108-0.479,0.219-0.899,0.419-1.208c0.171-0.327,0.376-0.678,0.68-1.012c0.282-0.348,0.527-0.628,0.801-0.779
		c0.25-0.172,0.463-0.26,0.701-0.26c0.271,0,0.447,0.066,0.584,0.234c0.118,0.157,0.168,0.412,0.178,0.766
		c0,0.145-0.043,0.312-0.059,0.563c-0.037,0.231-0.129,0.576-0.244,1.069l-0.342,1.33c-0.171,0.646-0.265,1.126-0.256,1.47
		c0,0.369,0.091,0.659,0.303,0.911c0.201,0.238,0.459,0.357,0.807,0.357c0.426,0,0.779-0.133,1.135-0.328
		c0.331-0.218,0.707-0.574,1.164-1.037l-0.442-0.434c-0.321,0.352-0.585,0.584-0.745,0.714c-0.176,0.124-0.358,0.187-0.496,0.187
		c-0.146,0-0.263-0.066-0.319-0.137c-0.067-0.093-0.111-0.248-0.101-0.445c0-0.23,0.055-0.637,0.209-1.184l0.506-2.011
		c0.149-0.592,0.201-1.067,0.225-1.373c0-0.485-0.157-0.869-0.389-1.139C263.725,94.137,263.33,94,262.873,94
		c-0.487,0-0.979,0.167-1.417,0.514c-0.458,0.344-0.942,0.838-1.448,1.581l-0.092-0.008c0.124-0.338,0.186-0.667,0.186-0.919
		C260.102,94.821,260.002,94.531,259.818,94.323z"/>
	<rect x="233.895" y="108.5" width="37.184" height="1.035"/>
	<path d="M234.296,127.6c0.745,0,1.347-0.3,1.856-0.818c0.49-0.545,0.841-1.405,1.095-2.484l0.001-0.002l1.443-6.697h2.004l0.17-0.8
		h-1.995l0.194-0.842c0.123-0.542,0.235-0.995,0.402-1.291c0.146-0.319,0.291-0.575,0.525-0.723
		c0.203-0.163,0.439-0.244,0.748-0.244c0.228,0,0.381,0.034,0.517,0.188c0.117,0.125,0.198,0.329,0.283,0.613h0.685l0.301-1.28
		c-0.366-0.08-0.809-0.12-1.311-0.12c-0.886,0-1.623,0.234-2.186,0.708c-0.572,0.473-1.016,1.17-1.271,2.113
		c-0.093,0.312-0.179,0.506-0.228,0.645c-0.059,0.116-0.137,0.195-0.217,0.284c-0.086,0.073-0.224,0.123-0.358,0.164
		c-0.151,0.037-0.403,0.065-0.748,0.086l-0.117,0.5h1.312l-1.668,7.298c-0.121,0.517-0.264,0.918-0.395,1.213
		c-0.142,0.291-0.322,0.487-0.461,0.613c-0.165,0.118-0.391,0.178-0.598,0.178c-0.191,0-0.317-0.033-0.364-0.023l-0.133,0.684
		C233.909,127.587,234.048,127.6,234.296,127.6z"/>
	<rect x="247.355" y="119.2" width="9.566" height="1"/>
	<path d="M267.725,120.229l-0.342,1.33c-0.171,0.647-0.265,1.127-0.256,1.471c0,0.369,0.091,0.658,0.303,0.91
		c0.201,0.239,0.459,0.358,0.807,0.358c0.426,0,0.779-0.133,1.135-0.328c0.331-0.218,0.707-0.575,1.164-1.037l-0.442-0.434
		c-0.321,0.351-0.585,0.584-0.745,0.714c-0.176,0.124-0.358,0.186-0.496,0.186c-0.146,0-0.263-0.065-0.319-0.137
		c-0.067-0.092-0.111-0.247-0.101-0.444c0-0.23,0.055-0.637,0.209-1.184l0.506-2.011c0.149-0.592,0.201-1.067,0.225-1.373
		c0-0.485-0.157-0.869-0.389-1.139c-0.258-0.274-0.652-0.411-1.109-0.411c-0.487,0-0.979,0.167-1.417,0.514
		c-0.458,0.343-0.942,0.838-1.448,1.581l-0.092-0.008c0.124-0.338,0.186-0.667,0.186-0.919c0-0.347-0.1-0.638-0.283-0.845
		c-0.189-0.216-0.461-0.323-0.772-0.323c-0.397,0-0.78,0.1-1.071,0.312c-0.316,0.208-0.742,0.537-1.188,1.054l0.442,0.434
		c0.311-0.341,0.535-0.607,0.733-0.705c0.179-0.13,0.324-0.195,0.509-0.195c0.146,0,0.223,0.034,0.318,0.14
		c0.068,0.091,0.072,0.212,0.102,0.444c0,0.268-0.063,0.64-0.172,1.14l-0.002-0.003l-1.133,4.877h1.344l0.737-3.342
		c0.108-0.479,0.219-0.899,0.419-1.209c0.171-0.326,0.376-0.677,0.68-1.011c0.282-0.348,0.527-0.628,0.801-0.78
		c0.25-0.172,0.463-0.259,0.701-0.259c0.271,0,0.447,0.066,0.584,0.234c0.118,0.157,0.168,0.412,0.178,0.766
		c0,0.145-0.043,0.312-0.059,0.563C267.932,119.391,267.84,119.736,267.725,120.229z"/>
	<path d="M62.243,137.9c-0.503,0-0.983,0.1-1.391,0.324c-0.425,0.218-0.809,0.543-1.092,1.002c-0.303,0.45-0.556,1.009-0.708,1.711
		c-0.168,0.69-0.252,1.479-0.252,2.459c0,1.784,0.268,3.084,0.819,3.989c0.546,0.876,1.373,1.314,2.498,1.314h0.001
		c1.139,0,2-0.5,2.598-1.403c0.594-0.936,0.889-2.335,0.891-4.141c0-1.764-0.302-3.081-0.831-3.95
		C64.222,138.336,63.363,137.9,62.243,137.9z M63.642,146.902c-0.304,0.731-0.785,1.098-1.4,1.098c-0.66,0-1.175-0.4-1.464-1.167
		c-0.315-0.779-0.475-2.022-0.473-3.667l0,0.001c0-0.709,0.032-1.365,0.094-1.911c0.063-0.564,0.163-1.049,0.316-1.436
		c0.149-0.395,0.344-0.7,0.586-0.905c0.242-0.209,0.541-0.313,0.902-0.313c0.396,0,0.728,0.134,1.011,0.475
		c0.279,0.316,0.474,0.825,0.652,1.566c0.156,0.728,0.234,1.646,0.234,2.854C64.1,145.033,63.933,146.168,63.642,146.902z"/>
	<path d="M115.243,137.9c-0.503,0-0.983,0.1-1.391,0.324c-0.425,0.218-0.809,0.543-1.092,1.002c-0.303,0.45-0.556,1.009-0.708,1.711
		c-0.168,0.69-0.252,1.479-0.252,2.459c0,1.784,0.267,3.084,0.819,3.989c0.546,0.876,1.373,1.314,2.498,1.314h0.001
		c1.139,0,2-0.5,2.598-1.403c0.594-0.936,0.889-2.335,0.891-4.141c0-1.764-0.302-3.081-0.831-3.95
		C117.222,138.336,116.363,137.9,115.243,137.9z M116.642,146.902c-0.304,0.731-0.785,1.098-1.4,1.098
		c-0.66,0-1.175-0.4-1.464-1.167c-0.315-0.779-0.474-2.022-0.472-3.667l-0.001,0.001c0-0.709,0.032-1.365,0.094-1.911
		c0.063-0.564,0.163-1.049,0.316-1.436c0.149-0.395,0.344-0.7,0.586-0.905c0.242-0.209,0.541-0.313,0.902-0.313
		c0.396,0,0.728,0.134,1.011,0.475c0.279,0.316,0.474,0.825,0.652,1.566c0.156,0.728,0.234,1.646,0.234,2.854
		C117.1,145.033,116.933,146.168,116.642,146.902z"/>
	<rect x="167.956" y="143.6" width="9.565" height="1"/>
	<path d="M182.609,147.361c-0.061,0.158-0.164,0.271-0.287,0.369c-0.131,0.089-0.34,0.145-0.572,0.197
		c-0.25,0.044-0.667,0.068-1.25,0.105v0.566h5.805v-0.566c-0.404-0.01-0.74-0.055-0.978-0.059c-0.247-0.027-0.456-0.086-0.616-0.123
		c-0.162-0.055-0.299-0.139-0.373-0.225c-0.086-0.096-0.165-0.238-0.181-0.372c-0.035-0.153-0.054-0.405-0.052-0.678v-0.001v-6.616
		c0-0.878-0.002-1.565,0.047-2.062h-0.428l-3.625,2.203l0.342,0.598c0.449-0.305,0.802-0.571,1.129-0.717
		c0.305-0.172,0.515-0.267,0.705-0.259c0.14,0,0.215,0.025,0.316,0.145c0.072,0.095,0.109,0.239,0.109,0.45v6.263
		C182.701,146.942,182.667,147.181,182.609,147.361z"/>
	<path d="M246.543,137.9c-0.503,0-0.982,0.1-1.391,0.324c-0.426,0.218-0.81,0.543-1.092,1.002c-0.304,0.45-0.557,1.009-0.709,1.711
		c-0.168,0.69-0.252,1.479-0.252,2.459c0,1.784,0.268,3.084,0.819,3.989c0.546,0.876,1.373,1.314,2.498,1.314h0.001
		c1.139,0,2-0.5,2.598-1.403c0.594-0.936,0.889-2.335,0.892-4.141c0-1.764-0.302-3.081-0.831-3.95
		C248.521,138.336,247.663,137.9,246.543,137.9z M247.941,146.902c-0.303,0.731-0.784,1.098-1.399,1.098
		c-0.66,0-1.175-0.4-1.464-1.167c-0.314-0.779-0.475-2.022-0.473-3.667c0-0.708,0.031-1.364,0.094-1.91
		c0.062-0.564,0.162-1.049,0.316-1.436c0.148-0.395,0.344-0.7,0.586-0.905c0.241-0.209,0.541-0.313,0.901-0.313
		c0.396,0,0.728,0.134,1.011,0.475c0.279,0.316,0.475,0.825,0.652,1.566c0.156,0.728,0.234,1.646,0.234,2.854
		C248.4,145.033,248.232,146.168,247.941,146.902z"/>
	<polygon points="281.3,5.302 284.3,5.302 284.3,20.302 285.9,20.302 285.9,4.602 281.3,4.602 	"/>
	<polygon points="284.3,23.8 284.3,36.102 285.9,36.102 285.9,23.8 285.9,20.302 284.3,20.302 	"/>
	<polygon points="284.3,39.8 284.3,51.901 285.9,51.901 285.9,39.8 285.9,36.102 284.3,36.102 	"/>
	<polygon points="284.3,55.6 284.3,67.701 285.9,67.701 285.9,55.6 285.9,51.901 284.3,51.901 	"/>
	<polygon points="284.3,71.4 284.3,83.502 285.9,83.502 285.9,71.4 285.9,67.701 284.3,67.701 	"/>
	<polygon points="284.3,87.2 284.3,99.302 285.9,99.302 285.9,87.2 285.9,83.502 284.3,83.502 	"/>
	<polygon points="284.3,103 284.3,115.102 285.9,115.102 285.9,103 285.9,99.302 284.3,99.302 	"/>
	<polygon points="284.3,118.8 284.3,131.102 285.9,131.102 285.9,118.8 285.9,115.102 284.3,115.102 	"/>
	<polygon points="284.3,134.6 284.3,149.7 281.3,149.7 281.3,150.4 285.9,150.4 285.9,134.6 285.9,131.102 284.3,131.102 	"/>
</g>
</svg>
