<?xml version="1.0" encoding="utf-8"?>
<!-- Generator: Adobe Illustrator 15.1.0, SVG Export Plug-In . SVG Version: 6.00 Build 0)  -->
<!DOCTYPE svg PUBLIC "-//W3C//DTD SVG 1.1 Tiny//EN" "http://www.w3.org/Graphics/SVG/1.1/DTD/svg11-tiny.dtd">
<svg version="1.1" baseProfile="tiny" id="Layer_1" xmlns="http://www.w3.org/2000/svg" xmlns:xlink="http://www.w3.org/1999/xlink"
	 x="0px" y="0px" width="151px" height="39px" viewBox="0 0 151 39" overflow="inherit" xml:space="preserve">
<g>
	<path fill="none" d="M11.795,22.299c-0.254,0-0.43,0.048-0.62,0.143c-0.215,0.08-0.366,0.225-0.525,0.391
		c-0.175,0.154-0.3,0.355-0.425,0.573c-0.132,0.215-0.229,0.448-0.314,0.694c-0.087,0.246-0.148,0.5-0.192,0.758
		c-0.05,0.239-0.066,0.511-0.066,0.756c-0.018,0.396,0.058,0.699,0.173,0.894c0.106,0.192,0.302,0.292,0.558,0.292
		c0.146,0,0.366-0.057,0.578-0.172c0.191-0.125,0.416-0.282,0.614-0.498c0.173-0.227,0.38-0.482,0.545-0.794
		c0.16-0.324,0.291-0.663,0.375-1.053l-0.001,0.001c0.01-0.229,0.079-0.402,0.113-0.603c0.032-0.228,0.052-0.385,0.052-0.552
		c-0.021-0.311-0.069-0.514-0.206-0.641C12.299,22.333,12.097,22.299,11.795,22.299z"/>
	<path fill="none" d="M73.876,34.604c0.196-0.123,0.383-0.265,0.488-0.431c0.083-0.19,0.156-0.347,0.156-0.545
		c-0.006-0.238-0.059-0.406-0.177-0.534c-0.131-0.16-0.287-0.193-0.509-0.193c-0.218,0-0.412,0.05-0.614,0.147
		c-0.209,0.083-0.393,0.24-0.573,0.422c-0.195,0.159-0.342,0.403-0.489,0.662c-0.166,0.248-0.27,0.548-0.369,0.867L71.788,35
		c0.451-0.004,0.893-0.041,1.238-0.111C73.364,34.79,73.655,34.724,73.876,34.604z"/>
	<path fill="none" d="M50.876,11.903c0.196-0.122,0.383-0.265,0.488-0.431c0.083-0.189,0.156-0.347,0.156-0.545
		c-0.006-0.238-0.059-0.406-0.177-0.533c-0.131-0.16-0.287-0.194-0.509-0.194c-0.218,0-0.412,0.05-0.614,0.147
		c-0.209,0.083-0.393,0.24-0.573,0.422c-0.195,0.159-0.342,0.403-0.489,0.662c-0.166,0.248-0.27,0.549-0.369,0.867L48.788,12.3
		c0.451-0.004,0.893-0.041,1.238-0.11C50.364,12.09,50.655,12.023,50.876,11.903z"/>
	<path d="M0.295,23.819L0.443,24.2h5.62L6.536,22v-0.001H5.845c-0.197,0.416-0.379,0.716-0.494,0.916
		c-0.131,0.195-0.282,0.323-0.384,0.437c-0.125,0.096-0.279,0.145-0.435,0.196C4.367,23.583,4.123,23.6,3.819,23.6H2.064
		l-0.047-0.055c0.528-0.575,1.122-1.289,1.872-2.098l3.703-4.258L7.444,16.8h-5.52l-0.458,2h0.69
		c0.176-0.328,0.324-0.595,0.478-0.758c0.143-0.177,0.264-0.324,0.4-0.399c0.124-0.09,0.246-0.171,0.372-0.188
		c0.125-0.037,0.29-0.055,0.591-0.055h1.817l0.047,0.055c-0.279,0.291-0.732,0.773-1.32,1.469L0.295,23.819z"/>
	<path d="M13.125,21.477c-0.038,0.157-0.113,0.331-0.152,0.591c-0.19-0.147-0.413-0.27-0.595-0.292
		c-0.207-0.049-0.466-0.073-0.686-0.073c-0.282,0-0.58,0.033-0.82,0.144c-0.264,0.097-0.521,0.215-0.748,0.406
		c-0.233,0.174-0.474,0.357-0.645,0.628c-0.196,0.244-0.388,0.484-0.506,0.812c-0.142,0.297-0.266,0.6-0.33,0.955
		c-0.078,0.339-0.125,0.689-0.116,1.058c0,0.618,0.091,1.084,0.367,1.413c0.246,0.322,0.582,0.484,1.044,0.484
		c0.196,0,0.384-0.034,0.566-0.087c0.181-0.057,0.347-0.161,0.537-0.269c0.178-0.123,0.332-0.305,0.539-0.469
		c0.181-0.189,0.355-0.448,0.561-0.688l0.08,0.034c-0.053,0.155-0.093,0.313-0.08,0.489c0,0.306,0.054,0.535,0.227,0.723
		c0.15,0.176,0.362,0.264,0.634,0.264c0.15,0,0.284-0.032,0.434-0.062c0.14-0.041,0.262-0.121,0.427-0.203
		c0.146-0.094,0.292-0.238,0.45-0.356c0.155-0.144,0.318-0.336,0.517-0.506c-0.061-0.06-0.137-0.15-0.188-0.183
		c-0.065-0.063-0.145-0.159-0.188-0.191c-0.117,0.125-0.234,0.226-0.314,0.32c-0.093,0.089-0.206,0.149-0.254,0.219
		c-0.078,0.057-0.172,0.077-0.216,0.123c-0.065,0.026-0.155,0.039-0.198,0.039c-0.109,0-0.199-0.032-0.253-0.095
		c-0.059-0.062-0.098-0.199-0.088-0.309c0-0.104-0.01-0.236,0.025-0.353c0.017-0.132,0.033-0.313,0.105-0.526h0.003l1.312-5.717
		h-0.289l-1.688,0.101l-0.072,0.399c0.147,0.008,0.24,0.007,0.366,0.033c0.096,0.014,0.167,0.036,0.223,0.069
		c0.053,0.03,0.082,0.063,0.111,0.122c0.02,0.049,0.013,0.106,0.031,0.184c0,0.089-0.019,0.186-0.038,0.333
		C13.195,21.174,13.155,21.293,13.125,21.477z M12.608,23.681c-0.034,0.2-0.103,0.373-0.113,0.603l0.001-0.001
		c-0.084,0.39-0.215,0.729-0.375,1.053c-0.165,0.312-0.372,0.567-0.545,0.794c-0.198,0.216-0.423,0.373-0.614,0.498
		c-0.212,0.115-0.432,0.172-0.578,0.172c-0.256,0-0.451-0.1-0.558-0.292c-0.115-0.194-0.19-0.498-0.173-0.894
		c0-0.245,0.016-0.517,0.066-0.756C9.763,24.6,9.824,24.346,9.911,24.1c0.085-0.246,0.182-0.479,0.314-0.694
		c0.125-0.218,0.25-0.419,0.425-0.573c0.159-0.166,0.31-0.311,0.525-0.391c0.19-0.095,0.366-0.143,0.62-0.143
		c0.302,0,0.504,0.034,0.659,0.189c0.137,0.127,0.186,0.33,0.206,0.641C12.66,23.296,12.64,23.453,12.608,23.681z"/>
	<rect x="21.956" y="17.6" width="9.566" height="1"/>
	<rect x="21.956" y="20.8" width="9.566" height="1"/>
	<path d="M39.295,11.819l0.148,0.381h5.62l0.473-2.2V9.999h-0.691c-0.197,0.416-0.379,0.716-0.494,0.916
		c-0.131,0.195-0.282,0.323-0.384,0.437c-0.125,0.096-0.279,0.145-0.435,0.196c-0.166,0.035-0.41,0.052-0.713,0.052h-1.755
		l-0.047-0.055c0.528-0.575,1.122-1.289,1.872-2.098l3.703-4.258L46.444,4.8h-5.52l-0.458,2h0.69
		c0.176-0.328,0.324-0.595,0.478-0.758c0.143-0.177,0.264-0.324,0.4-0.399c0.124-0.09,0.246-0.171,0.372-0.188
		c0.125-0.037,0.29-0.055,0.591-0.055h1.817l0.047,0.055c-0.279,0.291-0.732,0.773-1.32,1.469L39.295,11.819z"/>
	<path d="M48.676,12.9c2.584,0,3.86-0.7,3.877-2.07c0-0.393-0.152-0.703-0.377-0.908c-0.25-0.213-0.642-0.32-1.1-0.32
		c-0.53,0-1.022,0.1-1.466,0.331c-0.447,0.222-0.85,0.511-1.145,0.923c-0.159,0.192-0.314,0.375-0.414,0.623
		c-0.117,0.221-0.234,0.428-0.294,0.681c-0.08,0.231-0.166,0.446-0.177,0.698c-0.037,0.232-0.065,0.446-0.056,0.672
		c0,0.307,0.025,0.563,0.122,0.826c0.081,0.244,0.199,0.426,0.356,0.623c0.157,0.17,0.323,0.276,0.578,0.389
		c0.228,0.088,0.467,0.133,0.784,0.133c0.502,0,0.947-0.133,1.408-0.319c0.436-0.213,0.845-0.541,1.311-0.952h0.002l-0.425-0.459
		c-0.177,0.181-0.363,0.324-0.509,0.467c-0.162,0.13-0.346,0.218-0.484,0.319c-0.161,0.083-0.35,0.132-0.491,0.185
		c-0.166,0.039-0.357,0.059-0.527,0.059c-0.354,0-0.637-0.1-0.784-0.286c-0.168-0.189-0.256-0.495-0.252-0.909
		c0-0.137-0.004-0.271,0.017-0.381C48.642,13.107,48.632,12.999,48.676,12.9z M48.789,12.299c0.099-0.318,0.203-0.619,0.369-0.867
		c0.147-0.259,0.294-0.503,0.489-0.662c0.18-0.182,0.364-0.339,0.573-0.422c0.202-0.098,0.396-0.147,0.614-0.147
		c0.222,0,0.378,0.034,0.509,0.194c0.118,0.127,0.171,0.295,0.177,0.533c0,0.198-0.073,0.355-0.156,0.545
		c-0.105,0.166-0.292,0.309-0.488,0.431c-0.221,0.12-0.512,0.187-0.85,0.286C49.681,12.259,49.239,12.296,48.789,12.299
		L48.789,12.299z"/>
	<path d="M57.773,3.925c0.582-1.153,1.458-1.963,2.691-2.328l-0.211-0.598c-1.51,0.397-2.695,1.231-3.459,2.577
		C55.998,4.896,55.6,6.471,55.6,8.354c0,1.87,0.366,3.452,1.189,4.777c0.794,1.315,1.93,2.171,3.464,2.569l0.187-0.599
		c-1.196-0.397-2.109-1.197-2.667-2.355c-0.582-1.172-0.873-2.688-0.873-4.469V8.275C56.9,6.529,57.166,5.07,57.773,3.925z"/>
	<path d="M62.24,14.109c-0.142,0.291-0.322,0.487-0.461,0.613c-0.165,0.118-0.391,0.178-0.598,0.178
		c-0.191,0-0.316-0.033-0.363-0.023l-0.133,0.684c0.125,0.026,0.264,0.039,0.512,0.039c0.745,0,1.347-0.3,1.855-0.818
		c0.491-0.545,0.841-1.405,1.095-2.484l0.001-0.002l1.444-6.697h2.002l0.17-0.8H65.77l0.194-0.842
		c0.124-0.542,0.236-0.995,0.403-1.291c0.146-0.319,0.291-0.575,0.525-0.723c0.203-0.163,0.44-0.244,0.748-0.244
		c0.229,0,0.381,0.034,0.518,0.188c0.117,0.125,0.198,0.329,0.283,0.613h0.684l0.302-1.28c-0.367-0.08-0.809-0.12-1.312-0.12
		c-0.886,0-1.623,0.234-2.186,0.708c-0.572,0.473-1.015,1.17-1.27,2.113c-0.093,0.312-0.179,0.506-0.229,0.645
		c-0.059,0.116-0.136,0.195-0.217,0.284c-0.086,0.073-0.223,0.123-0.358,0.164c-0.152,0.037-0.403,0.065-0.748,0.086l-0.117,0.5
		h1.312l-1.669,7.298C62.514,13.413,62.37,13.814,62.24,14.109z"/>
	<polygon points="78.588,2.7 78.588,7.2 74.357,7.2 74.357,8.2 78.588,8.2 78.588,12.7 79.691,12.7 79.691,8.2 83.922,8.2 
		83.922,7.2 79.691,7.2 79.691,2.7 	"/>
	<path d="M91.818,5.023C91.629,4.808,91.357,4.7,91.046,4.7c-0.397,0-0.78,0.1-1.072,0.312c-0.315,0.208-0.741,0.537-1.188,1.054
		L89.229,6.5c0.311-0.341,0.534-0.607,0.733-0.705C90.14,5.665,90.286,5.6,90.47,5.6c0.146,0,0.224,0.034,0.319,0.14
		c0.068,0.091,0.072,0.212,0.102,0.444c0,0.268-0.063,0.64-0.172,1.14L90.717,7.32l-1.133,4.877h1.344l0.737-3.342
		c0.108-0.479,0.219-0.899,0.419-1.209c0.171-0.326,0.377-0.677,0.68-1.011c0.282-0.348,0.527-0.628,0.801-0.78
		c0.25-0.172,0.463-0.259,0.701-0.259c0.271,0,0.447,0.066,0.583,0.234c0.119,0.157,0.169,0.412,0.179,0.766
		c0,0.145-0.043,0.312-0.059,0.563c-0.038,0.23-0.129,0.576-0.245,1.068l-0.341,1.33c-0.171,0.647-0.265,1.127-0.256,1.471
		c0,0.369,0.091,0.658,0.302,0.91c0.202,0.239,0.459,0.358,0.809,0.358c0.425,0,0.778-0.133,1.134-0.328
		c0.331-0.218,0.707-0.575,1.164-1.037l-0.442-0.434c-0.321,0.351-0.585,0.584-0.745,0.714c-0.176,0.124-0.358,0.186-0.496,0.186
		c-0.146,0-0.263-0.065-0.319-0.137c-0.067-0.092-0.111-0.247-0.101-0.444c0-0.23,0.056-0.637,0.209-1.184l0.506-2.011
		c0.149-0.592,0.2-1.067,0.225-1.373c0-0.485-0.157-0.869-0.389-1.139C95.724,4.837,95.33,4.7,94.873,4.7
		c-0.487,0-0.979,0.167-1.417,0.514c-0.458,0.343-0.943,0.838-1.448,1.581l-0.092-0.008c0.124-0.338,0.186-0.667,0.186-0.919
		C92.102,5.521,92.002,5.23,91.818,5.023z"/>
	<path d="M100.727,12.748c-0.582,1.172-1.49,1.958-2.666,2.355l0.187,0.599c1.516-0.398,2.668-1.265,3.464-2.569
		c0.793-1.313,1.189-2.925,1.189-4.777c0-1.865-0.4-3.482-1.194-4.777c-0.795-1.32-1.963-2.18-3.459-2.577l-0.209,0.598
		c1.215,0.398,2.103,1.165,2.692,2.328c0.58,1.154,0.869,2.579,0.869,4.351v0.002C101.6,10.087,101.3,11.561,100.727,12.748z"/>
	<polygon points="113.288,2.7 113.288,7.2 109.057,7.2 109.057,8.2 113.288,8.2 113.288,12.7 114.391,12.7 114.391,8.2 118.622,8.2 
		118.622,7.2 114.391,7.2 114.391,2.7 	"/>
	<path d="M128.705,5.657c-0.141,0.27-0.376,0.584-0.643,0.959c-0.26,0.34-0.715,0.834-1.28,1.497
		c-0.687,0.766-1.247,1.428-1.591,1.997c-0.375,0.565-0.672,1.095-0.892,1.657v0.432h6.273l0.133-2.301h-0.7
		c-0.08,0.238-0.148,0.405-0.197,0.527c-0.053,0.114-0.156,0.205-0.215,0.277c-0.089,0.072-0.221,0.104-0.359,0.152
		c-0.149,0.029-0.36,0.045-0.59,0.045h-2.821c0.452-0.771,1.146-1.704,2.133-2.705c0.575-0.617,0.957-1.082,1.214-1.322
		c0.234-0.264,0.443-0.555,0.643-0.781c0.192-0.257,0.322-0.521,0.461-0.72c0.115-0.224,0.19-0.481,0.252-0.678
		c0.055-0.229,0.08-0.494,0.082-0.752c0-0.794-0.27-1.408-0.733-1.816c-0.489-0.418-1.214-0.627-2.166-0.627
		c-0.433,0-0.937,0.033-1.463,0.195c-0.541,0.13-1.123,0.331-1.745,0.63v1.475h0.932c0.334-1.066,0.957-1.6,1.949-1.6
		c0.387,0,0.694,0.066,0.965,0.255c0.254,0.169,0.439,0.385,0.568,0.698c0.124,0.295,0.186,0.609,0.186,1.02
		c0,0.242-0.033,0.451-0.092,0.723C128.945,5.133,128.844,5.368,128.705,5.657z"/>
	<path d="M133.641,14.109c-0.143,0.291-0.322,0.487-0.461,0.613c-0.166,0.118-0.392,0.178-0.599,0.178
		c-0.19,0-0.317-0.033-0.364-0.023l-0.133,0.684c0.125,0.026,0.264,0.039,0.512,0.039c0.745,0,1.348-0.3,1.856-0.818
		c0.491-0.545,0.841-1.405,1.095-2.484l0.001-0.002l1.444-6.697h2.003l0.17-0.8h-1.995l0.193-0.842
		c0.125-0.542,0.236-0.995,0.404-1.291c0.146-0.319,0.291-0.575,0.524-0.723c0.203-0.163,0.44-0.244,0.748-0.244
		c0.228,0,0.381,0.034,0.517,0.188c0.117,0.125,0.198,0.329,0.283,0.613h0.684l0.303-1.28c-0.367-0.08-0.809-0.12-1.311-0.12
		c-0.887,0-1.623,0.234-2.187,0.708c-0.572,0.473-1.015,1.17-1.271,2.113c-0.093,0.312-0.179,0.506-0.228,0.645
		c-0.06,0.116-0.136,0.195-0.218,0.284c-0.086,0.073-0.223,0.123-0.357,0.164c-0.152,0.037-0.402,0.065-0.748,0.086l-0.117,0.5
		h1.312l-1.669,7.298C133.914,13.413,133.77,13.814,133.641,14.109z"/>
	<path d="M144.118,5.023c-0.188-0.216-0.461-0.323-0.772-0.323c-0.397,0-0.779,0.1-1.072,0.312c-0.315,0.208-0.74,0.537-1.188,1.054
		l0.441,0.434c0.312-0.341,0.535-0.607,0.734-0.705c0.178-0.13,0.324-0.195,0.508-0.195c0.146,0,0.224,0.034,0.319,0.14
		c0.068,0.091,0.072,0.212,0.103,0.444c0,0.268-0.064,0.64-0.172,1.14l-0.002-0.003l-1.134,4.877h1.345l0.736-3.342
		c0.108-0.479,0.219-0.899,0.419-1.209c0.171-0.326,0.376-0.677,0.681-1.011c0.281-0.348,0.526-0.628,0.799-0.78
		c0.252-0.172,0.464-0.259,0.703-0.259c0.27,0,0.447,0.066,0.582,0.234c0.119,0.157,0.17,0.412,0.179,0.766
		c0,0.145-0.043,0.312-0.058,0.563c-0.039,0.23-0.129,0.576-0.246,1.068l-0.34,1.33c-0.172,0.647-0.266,1.127-0.257,1.471
		c0,0.369,0.091,0.658,0.302,0.91c0.203,0.239,0.459,0.358,0.809,0.358c0.425,0,0.779-0.133,1.134-0.328
		c0.331-0.218,0.707-0.575,1.164-1.037l-0.442-0.434c-0.32,0.351-0.584,0.584-0.744,0.714c-0.176,0.124-0.359,0.186-0.498,0.186
		c-0.145,0-0.262-0.065-0.318-0.137c-0.066-0.092-0.111-0.247-0.1-0.444c0-0.23,0.055-0.637,0.209-1.184l0.504-2.011
		c0.15-0.592,0.201-1.067,0.226-1.373c0-0.485-0.157-0.869-0.389-1.139c-0.259-0.274-0.652-0.411-1.109-0.411
		c-0.487,0-0.978,0.167-1.417,0.514c-0.458,0.343-0.943,0.838-1.447,1.581l-0.093-0.008c0.124-0.338,0.185-0.667,0.187-0.919
		C144.402,5.521,144.302,5.23,144.118,5.023z"/>
	<rect x="39.062" y="19.158" width="111.295" height="1.035"/>
	<path d="M62.295,34.52l0.148,0.381h5.62l0.473-2.2v-0.001h-0.691c-0.197,0.416-0.379,0.716-0.494,0.916
		c-0.131,0.195-0.282,0.322-0.384,0.436c-0.125,0.096-0.279,0.146-0.435,0.197c-0.166,0.035-0.41,0.052-0.713,0.052h-1.755
		l-0.047-0.055c0.528-0.575,1.122-1.289,1.872-2.099l3.703-4.258L69.444,27.5h-5.52l-0.458,2h0.69
		c0.176-0.328,0.324-0.595,0.478-0.758c0.143-0.178,0.264-0.324,0.4-0.4c0.124-0.089,0.246-0.17,0.372-0.187
		c0.125-0.037,0.29-0.056,0.591-0.056h1.817l0.047,0.056c-0.279,0.291-0.732,0.772-1.32,1.469L62.295,34.52z"/>
	<path d="M71.676,35.6c2.584,0,3.86-0.699,3.877-2.069c0-0.394-0.152-0.703-0.377-0.908c-0.25-0.213-0.642-0.32-1.1-0.32
		c-0.53,0-1.022,0.1-1.466,0.331c-0.447,0.221-0.85,0.51-1.145,0.922c-0.159,0.193-0.314,0.375-0.414,0.623
		c-0.117,0.221-0.234,0.428-0.294,0.682c-0.08,0.231-0.166,0.445-0.177,0.697c-0.037,0.233-0.065,0.447-0.056,0.672
		c0,0.308,0.025,0.564,0.122,0.827c0.081,0.244,0.199,0.425,0.356,0.622c0.157,0.17,0.323,0.277,0.578,0.39
		c0.228,0.088,0.467,0.133,0.784,0.133c0.502,0,0.947-0.133,1.408-0.319c0.436-0.213,0.845-0.541,1.311-0.953h0.002l-0.425-0.459
		c-0.177,0.182-0.363,0.325-0.509,0.467c-0.162,0.131-0.346,0.219-0.484,0.32c-0.161,0.083-0.35,0.131-0.491,0.184
		c-0.166,0.039-0.357,0.06-0.527,0.06c-0.354,0-0.637-0.101-0.784-0.286c-0.168-0.189-0.256-0.495-0.252-0.909
		c0-0.137-0.004-0.271,0.017-0.381C71.642,35.807,71.632,35.699,71.676,35.6z M71.789,34.999c0.099-0.319,0.203-0.619,0.369-0.867
		c0.147-0.259,0.294-0.503,0.489-0.662c0.18-0.182,0.364-0.339,0.573-0.422c0.202-0.098,0.396-0.147,0.614-0.147
		c0.222,0,0.378,0.033,0.509,0.193c0.118,0.128,0.171,0.296,0.177,0.534c0,0.198-0.073,0.354-0.156,0.545
		c-0.105,0.166-0.292,0.308-0.488,0.431c-0.221,0.12-0.512,0.187-0.85,0.285C72.681,34.959,72.239,34.996,71.789,34.999
		L71.789,34.999z"/>
	<path d="M80.773,26.625c0.582-1.154,1.457-1.963,2.69-2.328l-0.211-0.598c-1.51,0.397-2.695,1.231-3.459,2.577
		c-0.796,1.319-1.194,2.895-1.194,4.776c0,1.871,0.366,3.453,1.189,4.778c0.794,1.315,1.93,2.171,3.464,2.569l0.187-0.599
		c-1.195-0.397-2.108-1.198-2.666-2.355c-0.582-1.173-0.873-2.688-0.873-4.47v-0.002C79.9,29.229,80.166,27.77,80.773,26.625z"/>
	<path d="M85.24,36.809c-0.143,0.291-0.322,0.488-0.461,0.614c-0.165,0.118-0.392,0.177-0.599,0.177
		c-0.19,0-0.316-0.032-0.363-0.022l-0.134,0.684c0.125,0.026,0.265,0.039,0.513,0.039c0.745,0,1.347-0.3,1.855-0.819
		c0.491-0.545,0.841-1.404,1.095-2.483l0.002-0.002l1.443-6.697h2.003l0.17-0.8H88.77l0.194-0.842
		c0.124-0.542,0.236-0.995,0.403-1.291c0.146-0.319,0.291-0.575,0.525-0.723c0.202-0.164,0.439-0.244,0.747-0.244
		c0.229,0,0.382,0.033,0.518,0.188c0.116,0.125,0.198,0.329,0.282,0.613h0.685l0.302-1.28c-0.367-0.08-0.809-0.12-1.311-0.12
		c-0.887,0-1.623,0.234-2.187,0.708c-0.571,0.472-1.015,1.169-1.27,2.113c-0.093,0.312-0.179,0.506-0.229,0.645
		c-0.059,0.116-0.136,0.195-0.217,0.284c-0.086,0.073-0.223,0.123-0.358,0.164c-0.151,0.037-0.402,0.065-0.748,0.086l-0.116,0.5
		h1.312l-1.669,7.297C85.514,36.113,85.37,36.514,85.24,36.809z"/>
	<rect x="97.256" y="29.9" width="9.566" height="1"/>
	<path d="M114.818,27.723c-0.189-0.215-0.461-0.322-0.772-0.322c-0.397,0-0.78,0.1-1.071,0.312
		c-0.316,0.208-0.742,0.537-1.188,1.053l0.442,0.435c0.311-0.341,0.535-0.607,0.733-0.705c0.179-0.13,0.324-0.195,0.509-0.195
		c0.146,0,0.223,0.034,0.318,0.14c0.068,0.091,0.072,0.212,0.102,0.444c0,0.268-0.063,0.64-0.172,1.14l-0.002-0.004l-1.133,4.877
		h1.344l0.737-3.342c0.108-0.479,0.219-0.898,0.419-1.208c0.171-0.327,0.376-0.677,0.68-1.011c0.282-0.348,0.527-0.628,0.801-0.78
		c0.25-0.172,0.463-0.259,0.701-0.259c0.271,0,0.447,0.066,0.584,0.234c0.118,0.156,0.168,0.412,0.178,0.766
		c0,0.145-0.043,0.311-0.059,0.563c-0.037,0.23-0.129,0.575-0.244,1.068l-0.342,1.33c-0.171,0.647-0.265,1.126-0.256,1.47
		c0,0.369,0.091,0.659,0.303,0.911c0.201,0.239,0.459,0.358,0.807,0.358c0.426,0,0.779-0.133,1.135-0.328
		c0.331-0.218,0.707-0.575,1.164-1.037l-0.442-0.434c-0.321,0.351-0.585,0.584-0.745,0.714c-0.176,0.124-0.359,0.186-0.496,0.186
		c-0.146,0-0.263-0.065-0.319-0.137c-0.067-0.092-0.111-0.247-0.101-0.444c0-0.23,0.055-0.637,0.209-1.184l0.506-2.011
		c0.149-0.593,0.201-1.067,0.225-1.373c0-0.485-0.157-0.869-0.389-1.14c-0.258-0.273-0.652-0.41-1.109-0.41
		c-0.486,0-0.979,0.167-1.417,0.514c-0.458,0.343-0.942,0.838-1.448,1.581l-0.092-0.008c0.124-0.339,0.186-0.667,0.186-0.919
		C115.102,28.221,115.002,27.931,114.818,27.723z"/>
	<path d="M123.727,35.448c-0.582,1.172-1.49,1.958-2.666,2.355l0.187,0.599c1.517-0.398,2.668-1.266,3.464-2.569
		c0.793-1.313,1.189-2.925,1.189-4.778c0-1.865-0.4-3.481-1.194-4.776c-0.795-1.32-1.963-2.18-3.459-2.577l-0.209,0.598
		c1.215,0.398,2.103,1.165,2.692,2.328c0.58,1.154,0.869,2.579,0.869,4.35v0.002C124.6,32.787,124.3,34.261,123.727,35.448z"/>
</g>
</svg>
