<?xml version="1.0" encoding="utf-8"?>
<!-- Generator: Adobe Illustrator 15.1.0, SVG Export Plug-In . SVG Version: 6.00 Build 0)  -->
<!DOCTYPE svg PUBLIC "-//W3C//DTD SVG 1.1 Tiny//EN" "http://www.w3.org/Graphics/SVG/1.1/DTD/svg11-tiny.dtd">
<svg version="1.1" baseProfile="tiny" id="Layer_1" xmlns="http://www.w3.org/2000/svg" xmlns:xlink="http://www.w3.org/1999/xlink"
	 x="0px" y="0px" width="94px" height="38px" viewBox="0 0 94 38" overflow="inherit" xml:space="preserve">
<g>
	<path fill="none" d="M62.776,33.803c0.195-0.122,0.383-0.264,0.487-0.43c0.083-0.19,0.156-0.347,0.156-0.545
		c-0.006-0.238-0.059-0.406-0.177-0.534c-0.131-0.16-0.287-0.194-0.509-0.194c-0.219,0-0.412,0.051-0.614,0.148
		c-0.209,0.083-0.394,0.24-0.573,0.422c-0.195,0.159-0.342,0.403-0.489,0.662c-0.165,0.248-0.27,0.548-0.368,0.867L60.688,34.2
		c0.451-0.004,0.894-0.041,1.238-0.111C62.264,33.99,62.555,33.924,62.776,33.803z"/>
	<path fill="none" d="M62.776,11.104c0.195-0.123,0.383-0.265,0.487-0.431c0.083-0.19,0.156-0.347,0.156-0.545
		c-0.006-0.238-0.059-0.406-0.177-0.534C63.112,9.434,62.956,9.4,62.734,9.4c-0.219,0-0.412,0.05-0.614,0.147
		c-0.209,0.083-0.394,0.24-0.573,0.422c-0.195,0.159-0.342,0.403-0.489,0.662c-0.165,0.248-0.27,0.548-0.368,0.867L60.688,11.5
		c0.451-0.004,0.894-0.041,1.238-0.111C62.264,11.29,62.555,11.224,62.776,11.104z"/>
	<path fill="none" d="M11.795,21.398c-0.254,0-0.43,0.049-0.62,0.143c-0.215,0.081-0.366,0.225-0.525,0.391
		c-0.175,0.154-0.3,0.356-0.425,0.573c-0.132,0.215-0.229,0.448-0.314,0.695c-0.087,0.246-0.148,0.5-0.192,0.758
		c-0.05,0.239-0.066,0.51-0.066,0.755c-0.018,0.396,0.058,0.699,0.173,0.895c0.106,0.191,0.302,0.291,0.558,0.291
		c0.146,0,0.366-0.057,0.578-0.172c0.191-0.125,0.416-0.281,0.614-0.498c0.173-0.227,0.38-0.481,0.545-0.793
		c0.16-0.324,0.291-0.664,0.375-1.054l-0.001,0.001c0.01-0.229,0.079-0.402,0.113-0.602c0.032-0.229,0.052-0.385,0.052-0.553
		c-0.021-0.311-0.069-0.514-0.206-0.641C12.299,21.433,12.097,21.398,11.795,21.398z"/>
	<path d="M0.295,23.02L0.443,23.4h5.62l0.473-2.2v-0.001H5.845c-0.197,0.416-0.379,0.716-0.494,0.916
		c-0.131,0.195-0.282,0.322-0.384,0.436c-0.125,0.096-0.279,0.146-0.435,0.197C4.367,22.783,4.123,22.8,3.819,22.8H2.064
		l-0.047-0.055c0.528-0.575,1.122-1.289,1.872-2.099l3.703-4.258L7.444,16h-5.52l-0.458,2h0.69c0.176-0.328,0.324-0.595,0.478-0.758
		c0.143-0.178,0.264-0.324,0.4-0.4c0.124-0.089,0.246-0.17,0.372-0.187c0.125-0.037,0.29-0.056,0.591-0.056h1.817l0.047,0.056
		c-0.279,0.291-0.732,0.772-1.32,1.469L0.295,23.02z"/>
	<path d="M13.125,20.576c-0.038,0.158-0.113,0.332-0.152,0.591c-0.19-0.147-0.413-0.269-0.595-0.292
		c-0.207-0.048-0.466-0.073-0.686-0.073c-0.282,0-0.58,0.033-0.82,0.145c-0.264,0.096-0.521,0.214-0.748,0.405
		c-0.233,0.175-0.474,0.357-0.645,0.629c-0.196,0.243-0.388,0.483-0.506,0.811c-0.142,0.297-0.266,0.6-0.33,0.955
		c-0.078,0.339-0.125,0.689-0.116,1.058c0,0.618,0.091,1.084,0.367,1.413c0.246,0.323,0.582,0.484,1.044,0.484
		c0.196,0,0.384-0.034,0.566-0.086c0.181-0.058,0.347-0.161,0.537-0.27c0.178-0.123,0.332-0.305,0.539-0.469
		c0.181-0.189,0.355-0.448,0.561-0.688l0.08,0.034c-0.053,0.155-0.093,0.314-0.08,0.489c0,0.307,0.054,0.535,0.227,0.723
		c0.15,0.177,0.362,0.265,0.634,0.265c0.15,0,0.284-0.033,0.434-0.062c0.14-0.041,0.262-0.12,0.427-0.202
		c0.146-0.095,0.292-0.238,0.45-0.356c0.155-0.144,0.318-0.337,0.517-0.506c-0.061-0.061-0.137-0.151-0.188-0.184
		c-0.065-0.062-0.145-0.159-0.188-0.19c-0.117,0.125-0.234,0.225-0.314,0.32c-0.093,0.088-0.206,0.148-0.254,0.219
		c-0.078,0.056-0.172,0.076-0.216,0.123c-0.065,0.025-0.155,0.039-0.198,0.039c-0.109,0-0.199-0.033-0.253-0.096
		c-0.059-0.062-0.098-0.199-0.088-0.308c0-0.104-0.01-0.237,0.025-0.353c0.017-0.133,0.033-0.313,0.105-0.527h0.003l1.312-5.716
		h-0.289l-1.688,0.1l-0.072,0.4c0.147,0.008,0.24,0.007,0.366,0.032c0.096,0.015,0.167,0.036,0.223,0.069
		c0.053,0.031,0.082,0.064,0.111,0.122c0.02,0.049,0.013,0.107,0.031,0.184c0,0.09-0.019,0.187-0.038,0.334
		C13.195,20.273,13.155,20.393,13.125,20.576z M12.608,22.781c-0.034,0.199-0.103,0.373-0.113,0.602l0.001-0.001
		c-0.084,0.39-0.215,0.729-0.375,1.054c-0.165,0.312-0.372,0.566-0.545,0.793c-0.198,0.217-0.423,0.373-0.614,0.498
		c-0.212,0.115-0.432,0.172-0.578,0.172c-0.256,0-0.451-0.1-0.558-0.291c-0.115-0.195-0.19-0.498-0.173-0.895
		c0-0.245,0.016-0.516,0.066-0.755C9.763,23.7,9.824,23.446,9.911,23.2c0.085-0.247,0.182-0.48,0.314-0.695
		c0.125-0.217,0.25-0.419,0.425-0.573c0.159-0.166,0.31-0.31,0.525-0.391c0.19-0.094,0.366-0.143,0.62-0.143
		c0.302,0,0.504,0.034,0.659,0.189c0.137,0.127,0.186,0.33,0.206,0.641C12.66,22.396,12.64,22.553,12.608,22.781z"/>
	<rect x="21.956" y="16.8" width="9.566" height="1"/>
	<rect x="21.956" y="20" width="9.566" height="1"/>
	<rect x="40.256" y="6.3" width="9.566" height="1"/>
	<path d="M51.195,10.919l0.147,0.381h5.62l0.473-2.2V9.099h-0.69c-0.197,0.416-0.379,0.716-0.494,0.916
		c-0.131,0.195-0.282,0.323-0.384,0.437c-0.124,0.096-0.279,0.145-0.435,0.197c-0.165,0.034-0.409,0.052-0.714,0.052h-1.755
		l-0.047-0.056c0.528-0.574,1.122-1.289,1.872-2.098l3.703-4.258L58.344,3.9h-5.519l-0.458,2h0.69
		c0.177-0.328,0.324-0.596,0.478-0.758c0.143-0.178,0.264-0.324,0.4-0.4c0.123-0.089,0.245-0.17,0.371-0.188
		c0.125-0.037,0.29-0.055,0.592-0.055h1.816l0.047,0.055c-0.279,0.291-0.731,0.773-1.319,1.469L51.195,10.919z"/>
	<path d="M60.576,12.1c2.585,0,3.859-0.699,3.878-2.069c0-0.394-0.152-0.703-0.377-0.908c-0.25-0.213-0.642-0.32-1.101-0.32
		c-0.529,0-1.021,0.1-1.466,0.331c-0.446,0.221-0.85,0.51-1.145,0.922c-0.159,0.193-0.314,0.375-0.414,0.623
		c-0.116,0.221-0.234,0.428-0.294,0.682c-0.08,0.231-0.166,0.445-0.178,0.697c-0.036,0.233-0.064,0.447-0.056,0.672
		c0,0.308,0.025,0.564,0.122,0.827c0.081,0.244,0.199,0.425,0.356,0.622c0.157,0.17,0.323,0.277,0.577,0.39
		c0.229,0.088,0.468,0.133,0.784,0.133c0.503,0,0.947-0.133,1.408-0.319c0.437-0.213,0.845-0.541,1.312-0.953h0.002l-0.426-0.459
		c-0.177,0.182-0.362,0.325-0.509,0.467c-0.162,0.131-0.346,0.219-0.483,0.32c-0.161,0.083-0.351,0.131-0.491,0.184
		c-0.166,0.039-0.358,0.06-0.527,0.06c-0.354,0-0.637-0.101-0.784-0.286c-0.168-0.189-0.256-0.495-0.252-0.909
		c0-0.137-0.004-0.271,0.018-0.381C60.542,12.307,60.532,12.199,60.576,12.1z M60.689,11.499c0.099-0.319,0.203-0.619,0.368-0.867
		c0.147-0.259,0.294-0.503,0.489-0.662c0.18-0.182,0.364-0.339,0.573-0.422C62.322,9.45,62.516,9.4,62.734,9.4
		c0.222,0,0.378,0.033,0.509,0.193c0.118,0.128,0.171,0.296,0.177,0.534c0,0.198-0.073,0.354-0.156,0.545
		c-0.104,0.166-0.292,0.308-0.487,0.431c-0.222,0.12-0.513,0.187-0.851,0.285c-0.345,0.07-0.787,0.107-1.238,0.111L60.689,11.499z"
		/>
	<rect x="70.856" y="6.3" width="9.565" height="1"/>
	<path d="M90.505,2.66c0-0.878-0.001-1.565,0.047-2.062h-0.427L86.5,2.801l0.341,0.598c0.449-0.304,0.802-0.57,1.13-0.716
		c0.305-0.172,0.515-0.267,0.705-0.259c0.139,0,0.214,0.025,0.316,0.145c0.072,0.095,0.109,0.238,0.109,0.449v6.264
		c0,0.361-0.034,0.6-0.092,0.779c-0.061,0.159-0.164,0.272-0.288,0.37c-0.131,0.089-0.339,0.145-0.571,0.197
		c-0.25,0.044-0.668,0.068-1.25,0.104V11.3h5.805v-0.567c-0.405-0.01-0.74-0.055-0.979-0.058c-0.246-0.028-0.455-0.086-0.615-0.123
		c-0.162-0.055-0.299-0.139-0.373-0.225c-0.086-0.097-0.165-0.238-0.182-0.372c-0.035-0.153-0.054-0.405-0.052-0.678V9.276V2.66z"/>
	<rect x="39.062" y="18.318" width="54.896" height="1.035"/>
	<rect x="40.256" y="29.1" width="9.566" height="1"/>
	<path d="M51.195,33.719l0.147,0.381h5.62l0.473-2.199v-0.002h-0.69c-0.197,0.416-0.379,0.717-0.494,0.916
		c-0.131,0.195-0.282,0.323-0.384,0.437c-0.124,0.096-0.279,0.146-0.435,0.197c-0.165,0.034-0.409,0.052-0.714,0.052h-1.755
		l-0.047-0.055c0.528-0.575,1.122-1.289,1.872-2.099l3.703-4.258L58.344,26.7h-5.519l-0.458,2h0.69
		c0.177-0.328,0.324-0.595,0.478-0.758c0.143-0.178,0.264-0.324,0.4-0.4c0.123-0.089,0.245-0.17,0.371-0.187
		c0.125-0.037,0.29-0.056,0.592-0.056h1.816l0.047,0.056c-0.279,0.291-0.731,0.772-1.319,1.469L51.195,33.719z"/>
	<path d="M60.576,34.8c2.585,0,3.859-0.7,3.878-2.069c0-0.394-0.152-0.703-0.377-0.908c-0.25-0.213-0.642-0.32-1.101-0.32
		c-0.529,0-1.021,0.1-1.466,0.331c-0.446,0.221-0.85,0.51-1.145,0.922c-0.159,0.193-0.314,0.375-0.414,0.623
		c-0.116,0.221-0.234,0.428-0.294,0.681c-0.08,0.232-0.166,0.446-0.178,0.698c-0.036,0.233-0.064,0.447-0.056,0.672
		c0,0.308,0.025,0.564,0.122,0.827c0.081,0.244,0.199,0.425,0.356,0.622c0.157,0.17,0.323,0.277,0.577,0.39
		c0.229,0.088,0.468,0.133,0.784,0.133c0.503,0,0.947-0.133,1.408-0.319c0.437-0.213,0.845-0.541,1.312-0.953h0.002l-0.426-0.459
		c-0.177,0.181-0.362,0.325-0.509,0.467c-0.162,0.13-0.346,0.218-0.483,0.32c-0.161,0.083-0.351,0.131-0.491,0.184
		c-0.166,0.039-0.358,0.06-0.527,0.06c-0.354,0-0.637-0.101-0.784-0.286c-0.168-0.19-0.256-0.495-0.252-0.909
		c0-0.137-0.004-0.271,0.018-0.381C60.542,35.007,60.532,34.898,60.576,34.8z M60.689,34.199c0.099-0.319,0.203-0.619,0.368-0.867
		c0.147-0.259,0.294-0.503,0.489-0.662c0.18-0.182,0.364-0.339,0.573-0.422c0.202-0.098,0.396-0.148,0.614-0.148
		c0.222,0,0.378,0.034,0.509,0.194c0.118,0.128,0.171,0.296,0.177,0.534c0,0.198-0.073,0.354-0.156,0.545
		c-0.104,0.166-0.292,0.308-0.487,0.43c-0.222,0.121-0.513,0.188-0.851,0.286c-0.345,0.07-0.787,0.107-1.238,0.111L60.689,34.199z"
		/>
	<polygon points="75.088,24.6 75.088,29.1 70.857,29.1 70.857,30.1 75.088,30.1 75.088,34.6 76.191,34.6 76.191,30.1 80.422,30.1 
		80.422,29.1 76.191,29.1 76.191,24.6 	"/>
	<path d="M90.505,25.46c0-0.878-0.001-1.565,0.047-2.062h-0.427L86.5,25.602l0.341,0.598c0.449-0.305,0.802-0.571,1.13-0.717
		c0.305-0.172,0.515-0.267,0.705-0.259c0.139,0,0.214,0.025,0.316,0.145c0.072,0.095,0.109,0.239,0.109,0.45v6.263
		c0,0.361-0.034,0.6-0.092,0.78c-0.061,0.158-0.164,0.271-0.288,0.369c-0.131,0.089-0.339,0.145-0.571,0.197
		c-0.25,0.044-0.668,0.068-1.25,0.105V34.1h5.805v-0.566c-0.405-0.01-0.74-0.055-0.979-0.059c-0.246-0.027-0.455-0.086-0.615-0.123
		c-0.162-0.055-0.299-0.139-0.373-0.225c-0.086-0.096-0.165-0.238-0.182-0.372c-0.035-0.153-0.054-0.405-0.052-0.678v-0.001V25.46z"
		/>
</g>
</svg>
