<?xml version="1.0" encoding="utf-8"?>
<!-- Generator: Adobe Illustrator 15.1.0, SVG Export Plug-In . SVG Version: 6.00 Build 0)  -->
<!DOCTYPE svg PUBLIC "-//W3C//DTD SVG 1.1 Tiny//EN" "http://www.w3.org/Graphics/SVG/1.1/DTD/svg11-tiny.dtd">
<svg version="1.1" baseProfile="tiny" xmlns="http://www.w3.org/2000/svg" xmlns:xlink="http://www.w3.org/1999/xlink" x="0px"
	 y="0px" width="300px" height="300px" viewBox="0 0 300 300" overflow="inherit" xml:space="preserve">
<g id="Layer_2">
	<g>
		<line fill="none" stroke="#BFBFBF" stroke-miterlimit="10" x1="146.25" y1="15" x2="153.75" y2="15"/>
		<line fill="none" stroke="#BFBFBF" stroke-miterlimit="10" x1="146.25" y1="30" x2="153.75" y2="30"/>
		<line fill="none" stroke="#BFBFBF" stroke-miterlimit="10" x1="146.25" y1="45" x2="153.75" y2="45"/>
		<line fill="none" stroke="#BFBFBF" stroke-miterlimit="10" x1="146.25" y1="60" x2="153.75" y2="60"/>
		<line fill="none" stroke="#BFBFBF" stroke-miterlimit="10" x1="146.25" y1="90" x2="153.75" y2="90"/>
		<line fill="none" stroke="#BFBFBF" stroke-miterlimit="10" x1="146.25" y1="105" x2="153.75" y2="105"/>
		<line fill="none" stroke="#BFBFBF" stroke-miterlimit="10" x1="146.25" y1="120" x2="153.75" y2="120"/>
		<line fill="none" stroke="#BFBFBF" stroke-miterlimit="10" x1="146.25" y1="135" x2="153.75" y2="135"/>
		<line fill="none" stroke="#BFBFBF" stroke-miterlimit="10" x1="146.25" y1="165" x2="153.75" y2="165"/>
		<line fill="none" stroke="#BFBFBF" stroke-miterlimit="10" x1="146.25" y1="180" x2="153.75" y2="180"/>
		<line fill="none" stroke="#BFBFBF" stroke-miterlimit="10" x1="146.25" y1="195" x2="153.75" y2="195"/>
		<line fill="none" stroke="#BFBFBF" stroke-miterlimit="10" x1="146.25" y1="210" x2="153.75" y2="210"/>
		<line fill="none" stroke="#BFBFBF" stroke-miterlimit="10" x1="146.25" y1="240" x2="153.75" y2="240"/>
		<line fill="none" stroke="#BFBFBF" stroke-miterlimit="10" x1="146.25" y1="255" x2="153.75" y2="255"/>
		<line fill="none" stroke="#BFBFBF" stroke-miterlimit="10" x1="146.25" y1="270" x2="153.75" y2="270"/>
		<line fill="none" stroke="#BFBFBF" stroke-miterlimit="10" x1="146.25" y1="285" x2="153.75" y2="285"/>
	</g>
	<g>
		<line fill="none" stroke="#BFBFBF" stroke-miterlimit="10" x1="90" y1="146.25" x2="90" y2="153.75"/>
		<line fill="none" stroke="#BFBFBF" stroke-miterlimit="10" x1="105" y1="146.25" x2="105" y2="153.75"/>
		<line fill="none" stroke="#BFBFBF" stroke-miterlimit="10" x1="120" y1="146.25" x2="120" y2="153.75"/>
		<line fill="none" stroke="#BFBFBF" stroke-miterlimit="10" x1="135" y1="146.25" x2="135" y2="153.75"/>
		<line fill="none" stroke="#BFBFBF" stroke-miterlimit="10" x1="60" y1="146.25" x2="60" y2="153.75"/>
		<line fill="none" stroke="#BFBFBF" stroke-miterlimit="10" x1="45" y1="146.25" x2="45" y2="153.75"/>
		<line fill="none" stroke="#BFBFBF" stroke-miterlimit="10" x1="30" y1="146.25" x2="30" y2="153.75"/>
		<line fill="none" stroke="#BFBFBF" stroke-miterlimit="10" x1="15" y1="146.25" x2="15" y2="153.75"/>
		<line fill="none" stroke="#BFBFBF" stroke-miterlimit="10" x1="240" y1="146.25" x2="240" y2="153.75"/>
		<line fill="none" stroke="#BFBFBF" stroke-miterlimit="10" x1="255" y1="146.25" x2="255" y2="153.75"/>
		<line fill="none" stroke="#BFBFBF" stroke-miterlimit="10" x1="270" y1="146.25" x2="270" y2="153.75"/>
		<line fill="none" stroke="#BFBFBF" stroke-miterlimit="10" x1="285" y1="146.25" x2="285" y2="153.75"/>
		<line fill="none" stroke="#BFBFBF" stroke-miterlimit="10" x1="210" y1="146.25" x2="210" y2="153.75"/>
		<line fill="none" stroke="#BFBFBF" stroke-miterlimit="10" x1="195" y1="146.25" x2="195" y2="153.75"/>
		<line fill="none" stroke="#BFBFBF" stroke-miterlimit="10" x1="180" y1="146.25" x2="180" y2="153.75"/>
		<line fill="none" stroke="#BFBFBF" stroke-miterlimit="10" x1="165" y1="146.25" x2="165" y2="153.75"/>
	</g>
	<g>
		<line fill="none" stroke="#000000" stroke-miterlimit="10" x1="75" y1="142.5" x2="75" y2="157.5"/>
		<line fill="none" stroke="#000000" stroke-miterlimit="10" x1="225" y1="142.5" x2="225" y2="157.5"/>
	</g>
	<g>
		<line fill="none" stroke="#BFBFBF" stroke-miterlimit="10" x1="90" y1="296.25" x2="90" y2="303.75"/>
		<line fill="none" stroke="#BFBFBF" stroke-miterlimit="10" x1="105" y1="296.25" x2="105" y2="303.75"/>
		<line fill="none" stroke="#BFBFBF" stroke-miterlimit="10" x1="120" y1="296.25" x2="120" y2="303.75"/>
		<line fill="none" stroke="#BFBFBF" stroke-miterlimit="10" x1="135" y1="296.25" x2="135" y2="303.75"/>
		<line fill="none" stroke="#BFBFBF" stroke-miterlimit="10" x1="60" y1="296.25" x2="60" y2="303.75"/>
		<line fill="none" stroke="#BFBFBF" stroke-miterlimit="10" x1="45" y1="296.25" x2="45" y2="303.75"/>
		<line fill="none" stroke="#BFBFBF" stroke-miterlimit="10" x1="30" y1="296.25" x2="30" y2="303.75"/>
		<line fill="none" stroke="#BFBFBF" stroke-miterlimit="10" x1="15" y1="296.25" x2="15" y2="303.75"/>
		<line fill="none" stroke="#BFBFBF" stroke-miterlimit="10" x1="240" y1="296.25" x2="240" y2="303.75"/>
		<line fill="none" stroke="#BFBFBF" stroke-miterlimit="10" x1="255" y1="296.25" x2="255" y2="303.75"/>
		<line fill="none" stroke="#BFBFBF" stroke-miterlimit="10" x1="270" y1="296.25" x2="270" y2="303.75"/>
		<line fill="none" stroke="#BFBFBF" stroke-miterlimit="10" x1="285" y1="296.25" x2="285" y2="303.75"/>
		<line fill="none" stroke="#BFBFBF" stroke-miterlimit="10" x1="210" y1="296.25" x2="210" y2="303.75"/>
		<line fill="none" stroke="#BFBFBF" stroke-miterlimit="10" x1="195" y1="296.25" x2="195" y2="303.75"/>
		<line fill="none" stroke="#BFBFBF" stroke-miterlimit="10" x1="180" y1="296.25" x2="180" y2="303.75"/>
		<line fill="none" stroke="#BFBFBF" stroke-miterlimit="10" x1="165" y1="296.25" x2="165" y2="303.75"/>
	</g>
	<g>
		<line fill="none" stroke="#000000" stroke-miterlimit="10" x1="75" y1="292.5" x2="75" y2="307.5"/>
		<line fill="none" stroke="#000000" stroke-miterlimit="10" x1="225" y1="292.5" x2="225" y2="307.5"/>
	</g>
	<g>
		<line fill="none" stroke="#BFBFBF" stroke-miterlimit="10" x1="90" y1="-3.75" x2="90" y2="3.75"/>
		<line fill="none" stroke="#BFBFBF" stroke-miterlimit="10" x1="105" y1="-3.75" x2="105" y2="3.75"/>
		<line fill="none" stroke="#BFBFBF" stroke-miterlimit="10" x1="120" y1="-3.75" x2="120" y2="3.75"/>
		<line fill="none" stroke="#BFBFBF" stroke-miterlimit="10" x1="135" y1="-3.75" x2="135" y2="3.75"/>
		<line fill="none" stroke="#BFBFBF" stroke-miterlimit="10" x1="60" y1="-3.75" x2="60" y2="3.75"/>
		<line fill="none" stroke="#BFBFBF" stroke-miterlimit="10" x1="45" y1="-3.75" x2="45" y2="3.75"/>
		<line fill="none" stroke="#BFBFBF" stroke-miterlimit="10" x1="30" y1="-3.75" x2="30" y2="3.75"/>
		<line fill="none" stroke="#BFBFBF" stroke-miterlimit="10" x1="15" y1="-3.75" x2="15" y2="3.75"/>
		<line fill="none" stroke="#BFBFBF" stroke-miterlimit="10" x1="240" y1="-3.75" x2="240" y2="3.75"/>
		<line fill="none" stroke="#BFBFBF" stroke-miterlimit="10" x1="255" y1="-3.75" x2="255" y2="3.75"/>
		<line fill="none" stroke="#BFBFBF" stroke-miterlimit="10" x1="270" y1="-3.75" x2="270" y2="3.75"/>
		<line fill="none" stroke="#BFBFBF" stroke-miterlimit="10" x1="285" y1="-3.75" x2="285" y2="3.75"/>
		<line fill="none" stroke="#BFBFBF" stroke-miterlimit="10" x1="210" y1="-3.75" x2="210" y2="3.75"/>
		<line fill="none" stroke="#BFBFBF" stroke-miterlimit="10" x1="195" y1="-3.75" x2="195" y2="3.75"/>
		<line fill="none" stroke="#BFBFBF" stroke-miterlimit="10" x1="180" y1="-3.75" x2="180" y2="3.75"/>
		<line fill="none" stroke="#BFBFBF" stroke-miterlimit="10" x1="165" y1="-3.75" x2="165" y2="3.75"/>
	</g>
	<g>
		<line fill="none" stroke="#000000" stroke-miterlimit="10" x1="75" y1="-7.5" x2="75" y2="7.5"/>
		<line fill="none" stroke="#000000" stroke-miterlimit="10" x1="225" y1="-7.5" x2="225" y2="7.5"/>
	</g>
	<g>
		<line fill="none" stroke="#000000" stroke-miterlimit="10" x1="142.5" y1="75" x2="157.5" y2="75"/>
		<line fill="none" stroke="#000000" stroke-miterlimit="10" x1="142.5" y1="225" x2="157.5" y2="225"/>
	</g>
	<g>
		<line fill="none" stroke="#BFBFBF" stroke-miterlimit="10" x1="-3.75" y1="15" x2="3.75" y2="15"/>
		<line fill="none" stroke="#BFBFBF" stroke-miterlimit="10" x1="-3.75" y1="30" x2="3.75" y2="30"/>
		<line fill="none" stroke="#BFBFBF" stroke-miterlimit="10" x1="-3.75" y1="45" x2="3.75" y2="45"/>
		<line fill="none" stroke="#BFBFBF" stroke-miterlimit="10" x1="-3.75" y1="60" x2="3.75" y2="60"/>
		<line fill="none" stroke="#BFBFBF" stroke-miterlimit="10" x1="-3.75" y1="90" x2="3.75" y2="90"/>
		<line fill="none" stroke="#BFBFBF" stroke-miterlimit="10" x1="-3.75" y1="105" x2="3.75" y2="105"/>
		<line fill="none" stroke="#BFBFBF" stroke-miterlimit="10" x1="-3.75" y1="120" x2="3.75" y2="120"/>
		<line fill="none" stroke="#BFBFBF" stroke-miterlimit="10" x1="-3.75" y1="135" x2="3.75" y2="135"/>
		<line fill="none" stroke="#BFBFBF" stroke-miterlimit="10" x1="-3.75" y1="165" x2="3.75" y2="165"/>
		<line fill="none" stroke="#BFBFBF" stroke-miterlimit="10" x1="-3.75" y1="180" x2="3.75" y2="180"/>
		<line fill="none" stroke="#BFBFBF" stroke-miterlimit="10" x1="-3.75" y1="195" x2="3.75" y2="195"/>
		<line fill="none" stroke="#BFBFBF" stroke-miterlimit="10" x1="-3.75" y1="210" x2="3.75" y2="210"/>
		<line fill="none" stroke="#BFBFBF" stroke-miterlimit="10" x1="-3.75" y1="240" x2="3.75" y2="240"/>
		<line fill="none" stroke="#BFBFBF" stroke-miterlimit="10" x1="-3.75" y1="255" x2="3.75" y2="255"/>
		<line fill="none" stroke="#BFBFBF" stroke-miterlimit="10" x1="-3.75" y1="270" x2="3.75" y2="270"/>
		<line fill="none" stroke="#BFBFBF" stroke-miterlimit="10" x1="-3.75" y1="285" x2="3.75" y2="285"/>
	</g>
	<g>
		<line fill="none" stroke="#000000" stroke-miterlimit="10" x1="-7.5" y1="75" x2="7.5" y2="75"/>
		<line fill="none" stroke="#000000" stroke-miterlimit="10" x1="-7.5" y1="225" x2="7.5" y2="225"/>
	</g>
	<g>
		<line fill="none" stroke="#BFBFBF" stroke-miterlimit="10" x1="296.25" y1="15" x2="303.75" y2="15"/>
		<line fill="none" stroke="#BFBFBF" stroke-miterlimit="10" x1="296.25" y1="30" x2="303.75" y2="30"/>
		<line fill="none" stroke="#BFBFBF" stroke-miterlimit="10" x1="296.25" y1="45" x2="303.75" y2="45"/>
		<line fill="none" stroke="#BFBFBF" stroke-miterlimit="10" x1="296.25" y1="60" x2="303.75" y2="60"/>
		<line fill="none" stroke="#BFBFBF" stroke-miterlimit="10" x1="296.25" y1="90" x2="303.75" y2="90"/>
		<line fill="none" stroke="#BFBFBF" stroke-miterlimit="10" x1="296.25" y1="105" x2="303.75" y2="105"/>
		<line fill="none" stroke="#BFBFBF" stroke-miterlimit="10" x1="296.25" y1="120" x2="303.75" y2="120"/>
		<line fill="none" stroke="#BFBFBF" stroke-miterlimit="10" x1="296.25" y1="135" x2="303.75" y2="135"/>
		<line fill="none" stroke="#BFBFBF" stroke-miterlimit="10" x1="296.25" y1="165" x2="303.75" y2="165"/>
		<line fill="none" stroke="#BFBFBF" stroke-miterlimit="10" x1="296.25" y1="180" x2="303.75" y2="180"/>
		<line fill="none" stroke="#BFBFBF" stroke-miterlimit="10" x1="296.25" y1="195" x2="303.75" y2="195"/>
		<line fill="none" stroke="#BFBFBF" stroke-miterlimit="10" x1="296.25" y1="210" x2="303.75" y2="210"/>
		<line fill="none" stroke="#BFBFBF" stroke-miterlimit="10" x1="296.25" y1="240" x2="303.75" y2="240"/>
		<line fill="none" stroke="#BFBFBF" stroke-miterlimit="10" x1="296.25" y1="255" x2="303.75" y2="255"/>
		<line fill="none" stroke="#BFBFBF" stroke-miterlimit="10" x1="296.25" y1="270" x2="303.75" y2="270"/>
		<line fill="none" stroke="#BFBFBF" stroke-miterlimit="10" x1="296.25" y1="285" x2="303.75" y2="285"/>
	</g>
	<g>
		<line fill="none" stroke="#000000" stroke-miterlimit="10" x1="292.5" y1="75" x2="307.5" y2="75"/>
		<line fill="none" stroke="#000000" stroke-miterlimit="10" x1="292.5" y1="225" x2="307.5" y2="225"/>
	</g>
</g>
<g id="Layer_1">
	<line fill="none" stroke="#00FF00" stroke-miterlimit="10" x1="150" y1="0" x2="150" y2="300"/>
	<line fill="none" stroke="#FF0000" stroke-miterlimit="10" x1="0" y1="150.028" x2="300" y2="150"/>
	<rect x="0" fill="none" stroke="#000000" stroke-miterlimit="10" width="300" height="300"/>
</g>
</svg>
