<?xml version="1.0" encoding="utf-8"?>
<!-- Generator: Adobe Illustrator 15.1.0, SVG Export Plug-In . SVG Version: 6.00 Build 0)  -->
<!DOCTYPE svg PUBLIC "-//W3C//DTD SVG 1.1//EN" "http://www.w3.org/Graphics/SVG/1.1/DTD/svg11.dtd">
<svg version="1.1" id="Layer_1" xmlns="http://www.w3.org/2000/svg" xmlns:xlink="http://www.w3.org/1999/xlink" x="0px" y="0px"
	 width="781.5px" height="624px" viewBox="0 0 781.5 624" enable-background="new 0 0 781.5 624" xml:space="preserve">
<style type="text/css">
<![CDATA[
]]>
</style>
<g id="Background">
	<g>
		<polygon fill="#FFF799" stroke="#333333" stroke-miterlimit="10" points="176,432 192,368 192,384 240,384 240,368 256,432 
			240,496 240,480 192,480 192,496 		"/>
		<polygon fill="#FFF799" stroke="#333333" stroke-miterlimit="10" points="176,192 192,144 192,160 240,160 240,144 256,192 
			240,240 240,224 192,224 192,240 		"/>
		<polygon fill="#FFF799" stroke="#333333" stroke-miterlimit="10" points="96,368 128,352 112,352 112,256 80,256 80,352 64,352 		
			"/>
		<polygon fill="#FFF799" stroke="#333333" stroke-miterlimit="10" points="152,368 152,272 160,272 144,256 128,272 136,272 
			136,368 		"/>
	</g>
	<path fill="#E8F3E2" stroke="#000000" stroke-width="3" stroke-miterlimit="10" d="M255.999,292c0,6.627,6.651,12,14.855,12
		h485.289c8.205,0,14.856-5.373,14.856-12V28c0-6.627-6.652-12-14.856-12H270.854c-8.205,0-14.855,5.373-14.855,12V292L255.999,292z
		"/>
	<path fill="#E8F3E2" stroke="#000000" stroke-width="3" stroke-miterlimit="10" d="M256,596c0,6.627,6.651,12,14.855,12h485.29
		c8.205,0,14.855-5.373,14.855-12V332c0-6.627-6.652-12-14.855-12h-485.29C262.65,320,256,325.373,256,332V596z"/>
	<g>
		<rect x="48" y="128" fill="#A8D48C" stroke="#000000" stroke-width="2" stroke-miterlimit="10" width="128" height="128"/>
		<rect x="112" y="144" fill="#A8D48C" stroke="#FFFFFF" stroke-width="4" stroke-miterlimit="10" width="48" height="48"/>
		<rect x="64" y="144" fill="#A8D48C" stroke="#FFFFFF" stroke-width="4" stroke-miterlimit="10" width="48" height="48"/>
		<rect x="112" y="192" fill="#A8D48C" stroke="#FFFFFF" stroke-width="4" stroke-miterlimit="10" width="48" height="48"/>
		<rect x="64" y="192" fill="#A8D48C" stroke="#FFFFFF" stroke-width="4" stroke-miterlimit="10" width="48" height="48"/>
	</g>
	<g>
		<rect x="48" y="368" fill="#A8D48C" stroke="#000000" stroke-width="2" stroke-miterlimit="10" width="128" height="128"/>
		<rect x="64" y="384" fill="#A8D48C" stroke="#FFFFFF" stroke-width="4" stroke-miterlimit="10" width="16" height="16"/>
		<rect x="80" y="384" fill="#A8D48C" stroke="#FFFFFF" stroke-width="4" stroke-miterlimit="10" width="16" height="16"/>
		<rect x="96" y="384" fill="#A8D48C" stroke="#FFFFFF" stroke-width="4" stroke-miterlimit="10" width="16" height="16"/>
		<rect x="112" y="384" fill="#A8D48C" stroke="#FFFFFF" stroke-width="4" stroke-miterlimit="10" width="16" height="16"/>
		<rect x="128" y="384" fill="#A8D48C" stroke="#FFFFFF" stroke-width="4" stroke-miterlimit="10" width="16" height="16"/>
		<rect x="144" y="384" fill="#A8D48C" stroke="#FFFFFF" stroke-width="4" stroke-miterlimit="10" width="16" height="16"/>
		<rect x="64" y="400" fill="#A8D48C" stroke="#FFFFFF" stroke-width="4" stroke-miterlimit="10" width="16" height="16"/>
		<rect x="80" y="400" fill="#A8D48C" stroke="#FFFFFF" stroke-width="4" stroke-miterlimit="10" width="16" height="16"/>
		<rect x="96" y="400" fill="#A8D48C" stroke="#FFFFFF" stroke-width="4" stroke-miterlimit="10" width="16" height="16"/>
		<rect x="112" y="400" fill="#A8D48C" stroke="#FFFFFF" stroke-width="4" stroke-miterlimit="10" width="16" height="16"/>
		<rect x="128" y="400" fill="#A8D48C" stroke="#FFFFFF" stroke-width="4" stroke-miterlimit="10" width="16" height="16"/>
		<rect x="144" y="400" fill="#A8D48C" stroke="#FFFFFF" stroke-width="4" stroke-miterlimit="10" width="16" height="16"/>
		<rect x="64" y="416" fill="#A8D48C" stroke="#FFFFFF" stroke-width="4" stroke-miterlimit="10" width="16" height="16"/>
		<rect x="80" y="416" fill="#A8D48C" stroke="#FFFFFF" stroke-width="4" stroke-miterlimit="10" width="16" height="16"/>
		<rect x="96" y="416" fill="#A8D48C" stroke="#FFFFFF" stroke-width="4" stroke-miterlimit="10" width="16" height="16"/>
		<rect x="112" y="416" fill="#A8D48C" stroke="#FFFFFF" stroke-width="4" stroke-miterlimit="10" width="16" height="16"/>
		<rect x="128" y="416" fill="#A8D48C" stroke="#FFFFFF" stroke-width="4" stroke-miterlimit="10" width="16" height="16"/>
		<rect x="144" y="416" fill="#A8D48C" stroke="#FFFFFF" stroke-width="4" stroke-miterlimit="10" width="16" height="16"/>
		<rect x="64" y="432" fill="#A8D48C" stroke="#FFFFFF" stroke-width="4" stroke-miterlimit="10" width="16" height="16"/>
		<rect x="80" y="432" fill="#A8D48C" stroke="#FFFFFF" stroke-width="4" stroke-miterlimit="10" width="16" height="16"/>
		<rect x="96" y="432" fill="#A8D48C" stroke="#FFFFFF" stroke-width="4" stroke-miterlimit="10" width="16" height="16"/>
		<rect x="112" y="432" fill="#A8D48C" stroke="#FFFFFF" stroke-width="4" stroke-miterlimit="10" width="16" height="16"/>
		<rect x="128" y="432" fill="#A8D48C" stroke="#FFFFFF" stroke-width="4" stroke-miterlimit="10" width="16" height="16"/>
		<rect x="144" y="432" fill="#A8D48C" stroke="#FFFFFF" stroke-width="4" stroke-miterlimit="10" width="16" height="16"/>
		<rect x="64" y="448" fill="#A8D48C" stroke="#FFFFFF" stroke-width="4" stroke-miterlimit="10" width="16" height="16"/>
		<rect x="80" y="448" fill="#A8D48C" stroke="#FFFFFF" stroke-width="4" stroke-miterlimit="10" width="16" height="16"/>
		<rect x="96" y="448" fill="#A8D48C" stroke="#FFFFFF" stroke-width="4" stroke-miterlimit="10" width="16" height="16"/>
		<rect x="112" y="448" fill="#A8D48C" stroke="#FFFFFF" stroke-width="4" stroke-miterlimit="10" width="16" height="16"/>
		<rect x="128" y="448" fill="#A8D48C" stroke="#FFFFFF" stroke-width="4" stroke-miterlimit="10" width="16" height="16"/>
		<rect x="144" y="448" fill="#A8D48C" stroke="#FFFFFF" stroke-width="4" stroke-miterlimit="10" width="16" height="16"/>
		<rect x="64" y="464" fill="#A8D48C" stroke="#FFFFFF" stroke-width="4" stroke-miterlimit="10" width="16" height="16"/>
		<rect x="80" y="464" fill="#A8D48C" stroke="#FFFFFF" stroke-width="4" stroke-miterlimit="10" width="16" height="16"/>
		<rect x="96" y="464" fill="#A8D48C" stroke="#FFFFFF" stroke-width="4" stroke-miterlimit="10" width="16" height="16"/>
		<rect x="112" y="464" fill="#A8D48C" stroke="#FFFFFF" stroke-width="4" stroke-miterlimit="10" width="16" height="16"/>
		<rect x="128" y="464" fill="#A8D48C" stroke="#FFFFFF" stroke-width="4" stroke-miterlimit="10" width="16" height="16"/>
		<rect x="144" y="464" fill="#A8D48C" stroke="#FFFFFF" stroke-width="4" stroke-miterlimit="10" width="16" height="16"/>
	</g>
	<g>
		<path d="M92.687,89.932c-1.308-0.912-2.862-1.368-4.662-1.368c-1.536,0-2.851,0.288-3.942,0.864
			c-1.092,0.576-1.992,1.35-2.7,2.322s-1.23,2.083-1.566,3.33c-0.336,1.248-0.504,2.544-0.504,3.888
			c0,1.464,0.168,2.851,0.504,4.158c0.335,1.309,0.857,2.448,1.566,3.42c0.708,0.972,1.614,1.746,2.718,2.322
			c1.104,0.576,2.424,0.864,3.96,0.864c1.128,0,2.13-0.186,3.006-0.558c0.875-0.372,1.632-0.888,2.268-1.548
			c0.635-0.66,1.134-1.446,1.494-2.358c0.36-0.912,0.576-1.896,0.648-2.952h3.42c-0.336,3.24-1.452,5.76-3.348,7.56
			s-4.488,2.7-7.776,2.7c-1.993,0-3.732-0.342-5.22-1.026c-1.488-0.684-2.724-1.625-3.708-2.826c-0.984-1.2-1.722-2.616-2.214-4.248
			c-0.492-1.632-0.738-3.384-0.738-5.256c0-1.872,0.264-3.63,0.792-5.274s1.302-3.078,2.322-4.302s2.292-2.19,3.816-2.898
			c1.524-0.708,3.27-1.062,5.238-1.062c1.344,0,2.616,0.18,3.816,0.54s2.268,0.888,3.204,1.584c0.936,0.696,1.716,1.566,2.34,2.61
			s1.031,2.25,1.224,3.618h-3.42C94.84,92.212,93.995,90.844,92.687,89.932z"/>
		<path d="M114.412,86.296c2.592,0,4.554,0.666,5.886,1.998s1.998,3.198,1.998,5.598s-0.666,4.272-1.998,5.616
			c-1.332,1.345-3.294,2.004-5.886,1.98h-7.848V112h-3.42V86.296H114.412z M113.26,98.608c1.944,0.024,3.366-0.372,4.266-1.188
			c0.9-0.815,1.35-1.992,1.35-3.528c0-1.536-0.45-2.706-1.35-3.51c-0.9-0.804-2.322-1.206-4.266-1.206h-6.696v9.432H113.26
			L113.26,98.608z"/>
		<path d="M144.364,110.11c-1.752,1.645-4.248,2.466-7.488,2.466c-3.312,0-5.898-0.786-7.758-2.358
			c-1.86-1.571-2.79-4.073-2.79-7.506V86.296h3.42v16.416c0,2.304,0.612,4.05,1.836,5.238s2.988,1.782,5.292,1.782
			c2.184,0,3.846-0.594,4.986-1.782c1.139-1.188,1.71-2.934,1.71-5.238V86.296h3.42v16.416
			C146.992,106,146.116,108.466,144.364,110.11z"/>
	</g>
	<g>
		<path d="M91.967,536.693c-1.488,0.588-2.988,0.883-4.5,0.883c-1.92,0-3.636-0.354-5.148-1.062
			c-1.512-0.707-2.796-1.661-3.852-2.86c-1.057-1.2-1.86-2.58-2.412-4.142c-0.552-1.56-0.828-3.18-0.828-4.858
			c0-1.873,0.258-3.654,0.774-5.347s1.284-3.174,2.304-4.446c1.02-1.271,2.292-2.285,3.816-3.041
			c1.524-0.757,3.306-1.136,5.346-1.136c1.392,0,2.706,0.162,3.942,0.486c1.236,0.324,2.34,0.834,3.312,1.53
			c0.972,0.696,1.788,1.578,2.448,2.646c0.66,1.068,1.109,2.358,1.35,3.87h-3.42c-0.168-0.982-0.48-1.829-0.936-2.538
			c-0.456-0.707-1.02-1.289-1.692-1.746c-0.672-0.455-1.435-0.797-2.286-1.024c-0.852-0.229-1.758-0.343-2.718-0.343
			c-1.561,0-2.898,0.312-4.014,0.937c-1.116,0.625-2.028,1.446-2.736,2.466c-0.708,1.021-1.23,2.186-1.566,3.492
			c-0.336,1.309-0.504,2.646-0.504,4.015c0,1.345,0.192,2.634,0.576,3.869c0.384,1.236,0.948,2.328,1.692,3.276
			s1.662,1.704,2.754,2.269c1.092,0.563,2.358,0.847,3.798,0.847c1.344,0,2.532-0.218,3.564-0.648
			c1.032-0.432,1.902-1.025,2.61-1.782c0.708-0.756,1.242-1.644,1.602-2.663c0.36-1.021,0.516-2.119,0.468-3.295h-8.208v-2.88
			h11.268V537h-2.16l-0.9-3.204C94.703,535.141,93.455,536.105,91.967,536.693z"/>
		<path d="M115.079,511.296c2.592,0,4.554,0.666,5.886,1.998s1.998,3.198,1.998,5.599c0,2.399-0.666,4.271-1.998,5.615
			c-1.332,1.345-3.294,2.004-5.886,1.98h-7.848V537h-3.42v-25.704H115.079z M113.926,523.607c1.944,0.024,3.366-0.371,4.266-1.188
			c0.9-0.815,1.35-1.992,1.35-3.527s-0.45-2.706-1.35-3.511c-0.9-0.804-2.322-1.206-4.266-1.206h-6.696v9.433H113.926
			L113.926,523.607z"/>
		<path d="M145.03,535.109c-1.752,1.645-4.248,2.467-7.488,2.467c-3.312,0-5.898-0.786-7.758-2.358
			c-1.86-1.57-2.79-4.073-2.79-7.506v-16.416h3.42v16.416c0,2.304,0.612,4.05,1.836,5.238c1.224,1.188,2.988,1.782,5.292,1.782
			c2.184,0,3.846-0.595,4.986-1.782c1.139-1.188,1.71-2.936,1.71-5.238v-16.416h3.42v16.416
			C147.658,531,146.782,533.467,145.03,535.109z"/>
	</g>
</g>
<g id="Context">
	<g>
		<rect x="304" y="480" fill="#E6E7E8" stroke="#6D6E71" stroke-width="0.5" stroke-miterlimit="10" width="158" height="96"/>
		<rect x="304" y="384" fill="#E6E7E8" stroke="#6D6E71" stroke-width="0.5" stroke-miterlimit="10" width="158" height="96"/>
	</g>
	<g>
		<rect x="296" y="488" fill="#E6E7E8" stroke="#6D6E71" stroke-width="0.5" stroke-miterlimit="10" width="158" height="96"/>
		<rect x="296" y="392" fill="#E6E7E8" stroke="#6D6E71" stroke-width="0.5" stroke-miterlimit="10" width="158" height="96"/>
	</g>
	<rect x="495" y="384" fill="#E6E7E8" stroke="#6D6E71" stroke-width="0.5" stroke-miterlimit="10" width="136" height="192"/>
	<rect x="487" y="392" fill="#E6E7E8" stroke="#6D6E71" stroke-width="0.5" stroke-miterlimit="10" width="136" height="192"/>
	<rect x="667" y="384" fill="#E6E7E8" stroke="#6D6E71" stroke-width="0.5" stroke-miterlimit="10" width="88" height="192"/>
	<rect x="659" y="392" fill="#E6E7E8" stroke="#6D6E71" stroke-width="0.5" stroke-miterlimit="10" width="88" height="192"/>
	<g>
		<rect x="312" y="336" fill="#FFFFFF" stroke="#000000" stroke-miterlimit="10" width="24" height="24"/>
		<text transform="matrix(1 0 0 1 342.5 352.0771)" font-family="'Helvetica'" font-size="11">Current Program</text>
		<rect x="483" y="336" fill="#FFFFFF" stroke="#000000" stroke-miterlimit="10" width="24" height="24"/>
		<text transform="matrix(1 0 0 1 514 352.0771)"><tspan x="0" y="0" font-family="'Helvetica'" font-size="11">Current</tspan><tspan x="36.68" y="0" font-family="'Helvetica'" font-size="11"> </tspan><tspan x="39.134" y="0" font-family="'Helvetica'" font-size="11">Array Bu</tspan><tspan x="81.926" y="0" font-family="'Helvetica'" font-size="11">f</tspan><tspan x="84.788" y="0" font-family="'Helvetica'" font-size="11">fer</tspan></text>
		<rect x="641.393" y="336" fill="#FFFFFF" stroke="#000000" stroke-miterlimit="10" width="24" height="24"/>
		<text transform="matrix(1 0 0 1 673.8486 345.5771)"><tspan x="0" y="0" font-family="'Helvetica'" font-size="11">Current Element</tspan><tspan x="10.798" y="13.2" font-family="'Helvetica'" font-size="11">Array Bu</tspan><tspan x="53.589" y="13.2" font-family="'Helvetica'" font-size="11">f</tspan><tspan x="56.452" y="13.2" font-family="'Helvetica'" font-size="11">fer</tspan></text>
	</g>
</g>
<g id="JavaScript">
	<g>
		
			<rect x="304" y="54.667" fill="#E6E7E8" stroke="#6D6E71" stroke-width="0.5" stroke-miterlimit="10" width="128" height="207.166"/>
		
			<rect x="296" y="62.667" fill="#E6E7E8" stroke="#6D6E71" stroke-width="0.5" stroke-miterlimit="10" width="128" height="207.166"/>
		<rect x="288" y="70.667" fill="#FFFFFF" stroke="#000000" stroke-miterlimit="10" width="128" height="207.166"/>
		<g>
			<path d="M324.84,85.168c-0.098,0.327-0.261,0.619-0.49,0.875c-0.229,0.257-0.531,0.462-0.909,0.616
				c-0.378,0.154-0.848,0.231-1.407,0.231c-0.935,0-1.652-0.245-2.156-0.735c-0.504-0.49-0.756-1.211-0.756-2.163v-0.616h1.33v0.42
				c0,0.29,0.022,0.556,0.069,0.798c0.047,0.243,0.129,0.453,0.245,0.63c0.117,0.177,0.28,0.315,0.49,0.413
				c0.21,0.098,0.479,0.147,0.805,0.147c0.606,0,1.024-0.164,1.253-0.49c0.229-0.327,0.344-0.765,0.344-1.316V76.67h1.33v7.504
				C324.987,84.51,324.938,84.841,324.84,85.168z"/>
			<path d="M332.534,86.82c-0.309,0-0.553-0.086-0.735-0.259c-0.182-0.173-0.272-0.455-0.272-0.847
				c-0.327,0.392-0.707,0.674-1.142,0.847c-0.434,0.172-0.902,0.259-1.407,0.259c-0.326,0-0.635-0.035-0.924-0.105
				c-0.29-0.07-0.544-0.187-0.763-0.35c-0.219-0.164-0.392-0.374-0.518-0.63c-0.127-0.256-0.189-0.567-0.189-0.931
				c0-0.411,0.07-0.747,0.21-1.008c0.14-0.261,0.324-0.474,0.553-0.637c0.229-0.164,0.49-0.287,0.784-0.371s0.595-0.154,0.903-0.21
				c0.327-0.065,0.637-0.114,0.931-0.147c0.294-0.033,0.553-0.079,0.777-0.14c0.224-0.061,0.4-0.149,0.532-0.266
				c0.131-0.117,0.195-0.287,0.195-0.511c0-0.261-0.049-0.471-0.146-0.63c-0.099-0.158-0.225-0.28-0.378-0.364
				c-0.154-0.084-0.327-0.14-0.519-0.168c-0.19-0.028-0.38-0.042-0.566-0.042c-0.504,0-0.925,0.096-1.261,0.287
				s-0.518,0.553-0.546,1.085h-1.189c0.019-0.448,0.111-0.826,0.28-1.134c0.168-0.308,0.392-0.558,0.672-0.749
				c0.279-0.191,0.602-0.329,0.966-0.413c0.364-0.084,0.747-0.126,1.147-0.126c0.327,0,0.651,0.023,0.974,0.07
				c0.321,0.047,0.612,0.143,0.875,0.287c0.261,0.145,0.471,0.348,0.63,0.609c0.159,0.261,0.238,0.602,0.238,1.022v3.724
				c0,0.28,0.016,0.485,0.049,0.616c0.032,0.131,0.142,0.196,0.329,0.196c0.103,0,0.224-0.023,0.363-0.07v0.924
				C333.182,86.759,332.897,86.82,332.534,86.82z M330.868,83.173c-0.243,0.052-0.497,0.094-0.763,0.126
				c-0.267,0.033-0.534,0.07-0.806,0.112c-0.271,0.042-0.514,0.11-0.728,0.203c-0.215,0.093-0.391,0.226-0.525,0.399
				c-0.135,0.173-0.203,0.408-0.203,0.707c0,0.196,0.04,0.362,0.119,0.497c0.08,0.136,0.182,0.245,0.309,0.329
				c0.126,0.084,0.274,0.145,0.447,0.182c0.172,0.038,0.349,0.056,0.525,0.056c0.392,0,0.728-0.054,1.008-0.161
				s0.509-0.243,0.687-0.406c0.177-0.163,0.308-0.34,0.392-0.532s0.126-0.371,0.126-0.539v-1.218
				C331.306,83.041,331.11,83.123,330.868,83.173z"/>
			<path d="M336.481,86.667l-2.688-7.238h1.33l2.03,6.034h0.027l1.975-6.034h1.246l-2.646,7.238H336.481z"/>
			<path d="M347.051,86.82c-0.308,0-0.553-0.086-0.734-0.259c-0.183-0.173-0.273-0.455-0.273-0.847
				c-0.327,0.392-0.707,0.674-1.141,0.847c-0.435,0.172-0.903,0.259-1.407,0.259c-0.327,0-0.635-0.035-0.924-0.105
				c-0.29-0.07-0.544-0.187-0.764-0.35c-0.219-0.164-0.392-0.374-0.518-0.63c-0.126-0.256-0.189-0.567-0.189-0.931
				c0-0.411,0.07-0.747,0.21-1.008c0.141-0.261,0.324-0.474,0.554-0.637c0.229-0.164,0.489-0.287,0.784-0.371
				c0.294-0.084,0.595-0.154,0.902-0.21c0.327-0.065,0.637-0.114,0.932-0.147c0.294-0.033,0.553-0.079,0.776-0.14
				c0.225-0.061,0.401-0.149,0.532-0.266c0.131-0.117,0.196-0.287,0.196-0.511c0-0.261-0.049-0.471-0.147-0.63
				c-0.098-0.158-0.224-0.28-0.378-0.364s-0.327-0.14-0.518-0.168c-0.191-0.028-0.38-0.042-0.567-0.042
				c-0.504,0-0.924,0.096-1.26,0.287s-0.519,0.553-0.546,1.085h-1.19c0.02-0.448,0.112-0.826,0.28-1.134
				c0.168-0.308,0.392-0.558,0.672-0.749c0.28-0.191,0.602-0.329,0.966-0.413c0.364-0.084,0.747-0.126,1.148-0.126
				c0.327,0,0.65,0.023,0.973,0.07s0.613,0.143,0.875,0.287c0.261,0.145,0.471,0.348,0.63,0.609
				c0.159,0.261,0.238,0.602,0.238,1.022v3.724c0,0.28,0.016,0.485,0.049,0.616c0.032,0.131,0.143,0.196,0.329,0.196
				c0.104,0,0.224-0.023,0.364-0.07v0.924C347.7,86.759,347.415,86.82,347.051,86.82z M345.385,83.173
				c-0.243,0.052-0.497,0.094-0.763,0.126c-0.266,0.033-0.534,0.07-0.805,0.112c-0.271,0.042-0.515,0.11-0.729,0.203
				c-0.215,0.093-0.39,0.226-0.524,0.399c-0.136,0.173-0.203,0.408-0.203,0.707c0,0.196,0.04,0.362,0.119,0.497
				c0.079,0.136,0.182,0.245,0.308,0.329s0.275,0.145,0.448,0.182c0.172,0.038,0.348,0.056,0.524,0.056
				c0.393,0,0.729-0.054,1.008-0.161c0.28-0.107,0.51-0.243,0.687-0.406c0.177-0.163,0.308-0.34,0.392-0.532
				s0.126-0.371,0.126-0.539v-1.218C345.824,83.041,345.628,83.123,345.385,83.173z"/>
			<path d="M354.212,78.036c-0.443-0.322-1.011-0.483-1.701-0.483c-0.279,0-0.555,0.028-0.826,0.084
				c-0.271,0.056-0.511,0.149-0.721,0.28s-0.378,0.306-0.504,0.525c-0.126,0.22-0.188,0.493-0.188,0.819
				c0,0.308,0.091,0.558,0.272,0.749c0.182,0.191,0.424,0.348,0.729,0.469c0.303,0.122,0.646,0.222,1.028,0.301
				c0.382,0.08,0.772,0.166,1.169,0.259c0.396,0.093,0.786,0.203,1.169,0.329c0.384,0.126,0.727,0.296,1.029,0.511
				s0.546,0.485,0.729,0.812c0.182,0.327,0.272,0.737,0.272,1.232c0,0.532-0.119,0.987-0.356,1.365
				c-0.238,0.378-0.543,0.686-0.917,0.924c-0.373,0.238-0.791,0.411-1.254,0.518c-0.462,0.107-0.922,0.161-1.379,0.161
				c-0.56,0-1.09-0.07-1.589-0.21c-0.5-0.14-0.938-0.353-1.315-0.637s-0.678-0.648-0.896-1.092c-0.22-0.443-0.329-0.968-0.329-1.575
				h1.26c0,0.42,0.082,0.782,0.245,1.085c0.163,0.304,0.378,0.553,0.645,0.749c0.266,0.196,0.576,0.341,0.931,0.434
				s0.718,0.14,1.092,0.14c0.3,0,0.601-0.028,0.903-0.084c0.303-0.056,0.576-0.152,0.819-0.287c0.243-0.135,0.438-0.32,0.588-0.553
				c0.148-0.233,0.224-0.532,0.224-0.896c0-0.345-0.091-0.625-0.272-0.84c-0.183-0.215-0.426-0.39-0.729-0.525
				c-0.304-0.135-0.646-0.245-1.028-0.329c-0.384-0.084-0.772-0.17-1.17-0.259c-0.396-0.089-0.785-0.191-1.169-0.308
				c-0.383-0.117-0.726-0.271-1.028-0.462c-0.305-0.191-0.546-0.439-0.729-0.742c-0.182-0.303-0.272-0.684-0.272-1.141
				c0-0.504,0.103-0.94,0.308-1.309c0.206-0.368,0.479-0.672,0.819-0.91c0.34-0.238,0.728-0.416,1.162-0.532
				c0.434-0.117,0.879-0.175,1.337-0.175c0.513,0,0.988,0.061,1.428,0.182c0.438,0.121,0.824,0.312,1.155,0.574
				c0.331,0.261,0.592,0.59,0.784,0.987c0.19,0.397,0.296,0.871,0.314,1.421h-1.26C354.915,78.877,354.655,78.357,354.212,78.036z"
				/>
			<path d="M362.409,80.688c-0.299-0.252-0.7-0.378-1.204-0.378c-0.43,0-0.789,0.08-1.078,0.238c-0.29,0.159-0.521,0.369-0.693,0.63
				c-0.173,0.261-0.296,0.562-0.371,0.903c-0.074,0.341-0.111,0.693-0.111,1.057c0,0.336,0.04,0.663,0.119,0.98
				c0.08,0.317,0.203,0.6,0.371,0.847c0.168,0.248,0.387,0.446,0.657,0.595c0.271,0.149,0.593,0.224,0.967,0.224
				c0.588,0,1.048-0.154,1.379-0.462c0.332-0.308,0.533-0.742,0.608-1.302h1.218c-0.131,0.896-0.464,1.587-1.001,2.072
				c-0.536,0.486-1.267,0.728-2.19,0.728c-0.551,0-1.039-0.088-1.463-0.266c-0.425-0.177-0.78-0.429-1.064-0.756
				c-0.285-0.327-0.5-0.716-0.644-1.169c-0.146-0.453-0.217-0.95-0.217-1.491c0-0.542,0.069-1.048,0.21-1.519
				c0.14-0.471,0.353-0.882,0.637-1.232c0.285-0.35,0.642-0.625,1.071-0.826c0.429-0.201,0.929-0.301,1.497-0.301
				c0.411,0,0.797,0.049,1.155,0.147c0.359,0.098,0.676,0.25,0.952,0.455c0.275,0.206,0.502,0.465,0.679,0.777
				c0.178,0.312,0.289,0.684,0.336,1.113h-1.231C362.904,81.295,362.708,80.94,362.409,80.688z"/>
			<path d="M366.679,79.429v1.526h0.028c0.289-0.588,0.644-1.022,1.064-1.302c0.42-0.28,0.951-0.411,1.596-0.392v1.26
				c-0.477,0-0.882,0.065-1.218,0.196c-0.336,0.131-0.606,0.322-0.812,0.574c-0.205,0.252-0.354,0.558-0.448,0.917
				c-0.094,0.359-0.14,0.772-0.14,1.239v3.22h-1.19v-7.238H366.679z"/>
			<path d="M370.333,78.126V76.67h1.19v1.456H370.333z M371.522,79.429v7.238h-1.19v-7.238H371.522z"/>
			<path d="M374.603,79.429v0.98h0.028c0.196-0.401,0.504-0.693,0.924-0.875c0.42-0.182,0.883-0.273,1.387-0.273
				c0.56,0,1.048,0.104,1.463,0.308c0.415,0.206,0.76,0.483,1.036,0.833c0.275,0.35,0.482,0.754,0.623,1.211
				c0.14,0.458,0.21,0.943,0.21,1.456c0,0.514-0.068,0.999-0.203,1.456c-0.137,0.458-0.342,0.856-0.616,1.197
				c-0.275,0.341-0.621,0.609-1.036,0.805c-0.415,0.196-0.898,0.294-1.449,0.294c-0.178,0-0.376-0.019-0.595-0.056
				c-0.219-0.038-0.438-0.098-0.651-0.182c-0.215-0.084-0.418-0.198-0.608-0.343c-0.191-0.146-0.354-0.324-0.483-0.539h-0.028v3.724
				h-1.189v-9.996L374.603,79.429L374.603,79.429z M378.879,81.998c-0.088-0.322-0.224-0.609-0.406-0.861
				c-0.182-0.252-0.416-0.453-0.699-0.602c-0.284-0.149-0.618-0.224-1.002-0.224c-0.4,0-0.741,0.08-1.021,0.238
				c-0.28,0.159-0.509,0.367-0.686,0.623c-0.178,0.257-0.307,0.548-0.386,0.875c-0.08,0.327-0.119,0.658-0.119,0.994
				c0,0.355,0.042,0.698,0.126,1.029c0.084,0.332,0.218,0.623,0.399,0.875c0.182,0.252,0.418,0.455,0.707,0.609
				c0.29,0.154,0.639,0.231,1.05,0.231s0.753-0.08,1.029-0.238c0.275-0.158,0.497-0.369,0.665-0.63s0.289-0.56,0.364-0.896
				c0.074-0.336,0.111-0.681,0.111-1.036C379.013,82.648,378.968,82.319,378.879,81.998z"/>
			<path d="M384.767,79.429v1.05h-1.441v4.494c0,0.14,0.012,0.252,0.035,0.336c0.022,0.084,0.066,0.149,0.133,0.196
				c0.064,0.047,0.156,0.077,0.272,0.091c0.117,0.014,0.27,0.021,0.455,0.021h0.546v1.05h-0.909c-0.309,0-0.572-0.021-0.791-0.063
				c-0.22-0.042-0.397-0.119-0.532-0.231c-0.135-0.112-0.236-0.271-0.301-0.476c-0.065-0.205-0.099-0.476-0.099-0.812v-4.606h-1.231
				v-1.05h1.231v-2.17h1.19v2.17L384.767,79.429L384.767,79.429z"/>
		</g>
	</g>
	<rect x="300" y="109.169" fill="#FFFFFF" stroke="#000000" stroke-miterlimit="10" width="24" height="24"/>
	<rect x="300" y="142.16" fill="#FFFFFF" stroke="#000000" stroke-miterlimit="10" width="24" height="24"/>
	<rect x="300" y="175.15" fill="#FFFFFF" stroke="#000000" stroke-miterlimit="10" width="24" height="24"/>
	<rect x="300" y="208.141" fill="#FFFFFF" stroke="#000000" stroke-miterlimit="10" width="24" height="24"/>
	<rect x="300" y="241.132" fill="#FFFFFF" stroke="#000000" stroke-miterlimit="10" width="24" height="24"/>
	<text transform="matrix(1 0 0 1 332 124.3418)" fill="#707070" font-family="'Inconsolata'" font-size="10">program</text>
	<text transform="matrix(1 0 0 1 332 190.3232)" fill="#707070" font-family="'Inconsolata'" font-size="10">positions</text>
	<text transform="matrix(1 0 0 1 332 157.332)" fill="#707070" font-family="'Inconsolata'" font-size="10">triangles</text>
	<text transform="matrix(1 0 0 1 332.0005 256.3037)" fill="#707070" font-family="'Inconsolata'" font-size="10">positionBuffer</text>
	<text transform="matrix(1 0 0 1 332 223.313)" fill="#707070" font-family="'Inconsolata'" font-size="10">triangleBuffer</text>
</g>
<g id="GLSL">
	<g>
		<g>
			<rect x="286" y="496" fill="#FFFFFF" stroke="#000000" stroke-miterlimit="10" width="158" height="96"/>
			<rect x="286" y="400" fill="#FFFFFF" stroke="#000000" stroke-miterlimit="10" width="158" height="96"/>
		</g>
		<text transform="matrix(1 0 0 1 326.9727 415.5)"><tspan x="0" y="0" font-family="'Helvetica'" font-size="12">V</tspan><tspan x="7.348" y="0" font-family="'Helvetica'" font-size="12">ertex Shader</tspan></text>
		<text transform="matrix(1 0 0 1 318.3096 511)" font-family="'Helvetica'" font-size="12">Fragment Shader</text>
	</g>
	<text transform="matrix(1 0 0 1 291 435)"><tspan x="0" y="0" fill="#707070" font-family="'Inconsolata'" font-size="9">precision mediump float;</tspan><tspan x="0" y="10.8" fill="#707070" font-family="'Inconsolata'" font-size="9">attribute vec4 vertexPosition;</tspan><tspan x="0" y="21.6" fill="#707070" font-family="'Inconsolata'" font-size="9">void main() {</tspan><tspan x="0" y="32.4" fill="#707070" font-family="'Inconsolata'" font-size="9">    gl_Position = vertexPosition;</tspan><tspan x="0" y="43.2" fill="#707070" font-family="'Inconsolata'" font-size="9">}</tspan></text>
	<text transform="matrix(1 0 0 1 291 530.5)"><tspan x="0" y="0" fill="#707070" font-family="'Inconsolata'" font-size="9">void main() {</tspan><tspan x="0" y="10.8" fill="#707070" font-family="'Inconsolata'" font-size="9">    gl_FragColor =</tspan><tspan x="0" y="21.6" fill="#707070" font-family="'Inconsolata'" font-size="9">        vec4(1.0, 1.0, 0.0, 1.0);</tspan><tspan x="0" y="32.4" fill="#707070" font-family="'Inconsolata'" font-size="9">}</tspan></text>
</g>
<g id="Vertex" display="none">
	<g display="inline">
		<rect x="481" y="58.5" fill="#FFFFFF" stroke="#000000" stroke-miterlimit="10" width="136" height="130.75"/>
		<g>
			<rect x="506.893" y="97.132" fill="#E6E6E6" width="96" height="16"/>
			<rect x="506.893" y="129.132" fill="#E6E6E6" width="96" height="16"/>
			<rect x="506.893" y="161.132" fill="#E6E6E6" width="96" height="16"/>
			<line fill="none" stroke="#B3B3B3" stroke-miterlimit="10" x1="522.893" y1="81.132" x2="522.893" y2="177.132"/>
			<line fill="none" stroke="#B3B3B3" stroke-miterlimit="10" x1="514.893" y1="81.132" x2="514.893" y2="177.132"/>
			<line fill="none" stroke="#B3B3B3" stroke-miterlimit="10" x1="530.893" y1="81.132" x2="530.893" y2="177.132"/>
			<line fill="none" stroke="#000000" stroke-miterlimit="10" x1="538.893" y1="81.132" x2="538.893" y2="177.132"/>
			<line fill="none" stroke="#000000" stroke-miterlimit="10" x1="570.893" y1="81.132" x2="570.893" y2="177.132"/>
			<line fill="none" stroke="#B3B3B3" stroke-miterlimit="10" x1="554.893" y1="81.132" x2="554.893" y2="177.132"/>
			<line fill="none" stroke="#B3B3B3" stroke-miterlimit="10" x1="546.893" y1="81.132" x2="546.893" y2="177.132"/>
			<line fill="none" stroke="#B3B3B3" stroke-miterlimit="10" x1="562.893" y1="81.132" x2="562.893" y2="177.132"/>
			<line fill="none" stroke="#B3B3B3" stroke-miterlimit="10" x1="586.893" y1="81.132" x2="586.893" y2="177.132"/>
			<line fill="none" stroke="#B3B3B3" stroke-miterlimit="10" x1="578.893" y1="81.132" x2="578.893" y2="177.132"/>
			<line fill="none" stroke="#B3B3B3" stroke-miterlimit="10" x1="594.893" y1="81.132" x2="594.893" y2="177.132"/>
			<rect x="506.893" y="81.132" fill="none" stroke="#000000" stroke-miterlimit="10" width="96" height="96"/>
			<line fill="none" stroke="#000000" stroke-miterlimit="10" x1="506.893" y1="97.132" x2="602.893" y2="97.132"/>
			<line fill="none" stroke="#000000" stroke-miterlimit="10" x1="506.893" y1="113.132" x2="602.893" y2="113.132"/>
			<line fill="none" stroke="#000000" stroke-miterlimit="10" x1="506.893" y1="129.132" x2="602.893" y2="129.132"/>
			<line fill="none" stroke="#000000" stroke-miterlimit="10" x1="506.893" y1="145.132" x2="602.893" y2="145.132"/>
			<line fill="none" stroke="#000000" stroke-miterlimit="10" x1="506.893" y1="161.132" x2="602.893" y2="161.132"/>
			<g>
				<path d="M519.588,68.894h1.525l1.735,2.534l1.808-2.534h1.428l-2.492,3.332l2.801,3.906h-1.526l-2.017-2.996l-2.016,2.996h-1.44
					l2.715-3.808L519.588,68.894z"/>
			</g>
			<g>
				<path d="M554.717,77.98c-0.135,0.243-0.285,0.441-0.447,0.595c-0.164,0.154-0.344,0.266-0.539,0.336
					c-0.196,0.07-0.43,0.105-0.7,0.105c-0.14,0-0.279-0.009-0.42-0.028c-0.14-0.02-0.275-0.051-0.406-0.098v-1.092
					c0.113,0.037,0.227,0.075,0.344,0.112c0.117,0.038,0.236,0.056,0.357,0.056c0.241,0,0.438-0.056,0.588-0.168
					c0.147-0.112,0.278-0.275,0.393-0.49l0.49-1.218l-2.871-7.196h1.344l2.115,5.922h0.027l2.028-5.922h1.261l-3.148,8.19
					C554.99,77.438,554.852,77.737,554.717,77.98z"/>
			</g>
			<g>
				<path d="M588.207,69.944h-4.088v-1.05h5.629v0.812l-4.424,5.376h4.619v1.05h-6.104v-0.91L588.207,69.944z"/>
			</g>
			<g>
				<path d="M495.725,88.126c0.019-0.392,0.064-0.775,0.14-1.148c0.076-0.374,0.184-0.728,0.321-1.064
					c0.142-0.336,0.332-0.63,0.574-0.882c0.242-0.252,0.549-0.453,0.918-0.602c0.367-0.149,0.81-0.224,1.322-0.224
					s0.953,0.075,1.322,0.224s0.676,0.35,0.918,0.602c0.242,0.252,0.434,0.546,0.574,0.882c0.139,0.336,0.246,0.69,0.321,1.064
					c0.074,0.373,0.121,0.756,0.14,1.148c0.02,0.392,0.028,0.77,0.028,1.134c0,0.364-0.01,0.742-0.028,1.134
					s-0.064,0.774-0.14,1.148c-0.075,0.373-0.184,0.726-0.321,1.057c-0.142,0.332-0.332,0.623-0.574,0.875s-0.547,0.451-0.91,0.595
					s-0.807,0.217-1.33,0.217c-0.514,0-0.955-0.072-1.322-0.217c-0.369-0.145-0.676-0.343-0.918-0.595
					c-0.241-0.252-0.434-0.543-0.573-0.875c-0.14-0.331-0.246-0.684-0.322-1.057c-0.074-0.374-0.121-0.756-0.14-1.148
					c-0.02-0.392-0.028-0.77-0.028-1.134C495.695,88.896,495.705,88.518,495.725,88.126z M496.99,90.499
					c0.022,0.462,0.1,0.896,0.225,1.302c0.127,0.406,0.328,0.749,0.609,1.029c0.278,0.28,0.672,0.42,1.176,0.42
					s0.896-0.14,1.176-0.42c0.279-0.28,0.482-0.623,0.609-1.029c0.125-0.406,0.201-0.84,0.225-1.302
					c0.021-0.462,0.033-0.88,0.033-1.253c0-0.242-0.002-0.511-0.006-0.805c-0.006-0.294-0.027-0.588-0.07-0.882
					c-0.041-0.294-0.104-0.581-0.182-0.861c-0.08-0.28-0.195-0.525-0.35-0.735c-0.155-0.21-0.349-0.38-0.582-0.511
					c-0.232-0.13-0.519-0.196-0.854-0.196s-0.621,0.065-0.854,0.196c-0.234,0.131-0.429,0.301-0.582,0.511
					c-0.154,0.21-0.271,0.455-0.351,0.735c-0.08,0.28-0.141,0.567-0.182,0.861c-0.043,0.294-0.066,0.588-0.07,0.882
					s-0.008,0.562-0.008,0.805C496.955,89.619,496.967,90.037,496.99,90.499z"/>
			</g>
			<g>
				<path d="M498.902,110.132v-7.112h-2.576v-0.952c0.336,0,0.662-0.025,0.979-0.077c0.316-0.051,0.604-0.147,0.859-0.287
					c0.258-0.14,0.475-0.331,0.652-0.574c0.176-0.243,0.299-0.551,0.362-0.924h0.91v9.926H498.902z"/>
			</g>
			<g>
				<path d="M495.877,118.32c0.131-0.429,0.334-0.8,0.609-1.113c0.274-0.313,0.619-0.558,1.028-0.735
					c0.41-0.177,0.877-0.266,1.4-0.266c0.43,0,0.832,0.063,1.211,0.189s0.707,0.308,0.986,0.546c0.28,0.238,0.502,0.534,0.666,0.889
					c0.162,0.354,0.244,0.765,0.244,1.232c0,0.438-0.066,0.826-0.203,1.162c-0.136,0.336-0.314,0.637-0.539,0.903
					c-0.224,0.266-0.48,0.506-0.771,0.721c-0.289,0.215-0.588,0.42-0.896,0.616c-0.308,0.187-0.615,0.371-0.924,0.553
					c-0.308,0.182-0.591,0.376-0.847,0.581c-0.258,0.206-0.477,0.427-0.658,0.665c-0.182,0.238-0.301,0.511-0.356,0.819h5.096v1.05
					h-6.481c0.047-0.588,0.151-1.089,0.315-1.505c0.162-0.416,0.371-0.777,0.623-1.085s0.535-0.579,0.854-0.812
					c0.315-0.233,0.647-0.453,0.994-0.658c0.42-0.261,0.786-0.501,1.104-0.721c0.316-0.219,0.58-0.441,0.791-0.665
					c0.209-0.224,0.369-0.467,0.478-0.728c0.107-0.261,0.159-0.565,0.159-0.91c0-0.271-0.051-0.516-0.153-0.735
					s-0.24-0.408-0.412-0.567c-0.174-0.158-0.377-0.28-0.609-0.364c-0.231-0.084-0.479-0.126-0.742-0.126
					c-0.346,0-0.643,0.072-0.889,0.217c-0.248,0.145-0.451,0.334-0.609,0.567c-0.157,0.233-0.272,0.497-0.342,0.791
					c-0.07,0.294-0.102,0.59-0.092,0.889h-1.189C495.695,119.216,495.748,118.749,495.877,118.32z"/>
			</g>
			<g>
				<path d="M498.285,136.476c0.047,0,0.094,0,0.141,0h0.252c0.252,0,0.492-0.035,0.722-0.105c0.229-0.07,0.43-0.172,0.602-0.308
					c0.174-0.135,0.311-0.306,0.414-0.511c0.102-0.205,0.154-0.438,0.154-0.7c0-0.532-0.168-0.931-0.505-1.197
					c-0.336-0.266-0.756-0.399-1.26-0.399c-0.317,0-0.596,0.059-0.834,0.175c-0.237,0.117-0.434,0.273-0.588,0.469
					c-0.154,0.196-0.268,0.425-0.344,0.686c-0.074,0.261-0.111,0.537-0.111,0.826h-1.188c0.018-0.476,0.096-0.91,0.229-1.302
					s0.33-0.728,0.582-1.008s0.566-0.5,0.943-0.658c0.379-0.159,0.813-0.238,1.311-0.238c0.428,0,0.828,0.054,1.195,0.161
					c0.369,0.107,0.689,0.269,0.959,0.483c0.271,0.215,0.484,0.49,0.639,0.826c0.152,0.336,0.23,0.733,0.23,1.19
					c0,0.448-0.131,0.845-0.394,1.19c-0.262,0.346-0.588,0.607-0.979,0.784v0.028c0.606,0.131,1.059,0.416,1.352,0.854
					c0.295,0.439,0.441,0.957,0.441,1.554c0,0.495-0.092,0.931-0.273,1.309c-0.181,0.378-0.426,0.693-0.733,0.945
					c-0.309,0.252-0.67,0.441-1.086,0.567c-0.414,0.126-0.855,0.189-1.322,0.189c-0.504,0-0.961-0.07-1.373-0.21
					c-0.41-0.14-0.76-0.348-1.049-0.623c-0.289-0.275-0.513-0.613-0.666-1.015c-0.152-0.401-0.228-0.859-0.218-1.372h1.191
					c0.019,0.644,0.205,1.169,0.559,1.575c0.355,0.406,0.873,0.609,1.556,0.609c0.289,0,0.563-0.044,0.826-0.133
					c0.262-0.088,0.489-0.214,0.686-0.378c0.195-0.163,0.353-0.364,0.469-0.603c0.117-0.238,0.177-0.506,0.177-0.805
					c0-0.308-0.058-0.581-0.168-0.819c-0.113-0.238-0.263-0.438-0.449-0.602c-0.187-0.163-0.408-0.284-0.664-0.364
					c-0.258-0.079-0.535-0.119-0.834-0.119c-0.252,0-0.488,0.014-0.713,0.042v-1.008
					C498.207,136.471,498.248,136.476,498.285,136.476z"/>
			</g>
			<g>
				<path d="M502.318,154.758v1.05h-1.345v2.324h-1.12v-2.324H495.5v-1.148l4.521-6.454h0.952v6.552H502.318z M499.854,149.9h-0.026
					l-3.305,4.858h3.331V149.9z"/>
			</g>
			<g>
				<path d="M497.684,165.424l-0.53,2.856l0.026,0.028c0.215-0.242,0.492-0.422,0.834-0.539c0.34-0.117,0.679-0.175,1.015-0.175
					c0.438,0,0.854,0.07,1.245,0.21c0.394,0.14,0.732,0.353,1.023,0.637c0.289,0.285,0.518,0.639,0.686,1.064
					c0.168,0.425,0.253,0.922,0.253,1.491c0,0.42-0.072,0.829-0.218,1.225c-0.145,0.397-0.362,0.749-0.651,1.057
					s-0.65,0.553-1.084,0.735c-0.435,0.182-0.941,0.273-1.521,0.273c-0.43,0-0.832-0.063-1.211-0.189
					c-0.377-0.126-0.711-0.308-1-0.546c-0.291-0.238-0.52-0.534-0.688-0.889c-0.168-0.354-0.256-0.756-0.267-1.204h1.189
					c0.02,0.252,0.082,0.488,0.188,0.707c0.107,0.219,0.252,0.411,0.435,0.574c0.184,0.164,0.396,0.29,0.645,0.378
					c0.248,0.089,0.521,0.133,0.818,0.133c0.281,0,0.549-0.049,0.807-0.147c0.256-0.098,0.48-0.245,0.672-0.441
					c0.191-0.196,0.343-0.441,0.455-0.735c0.111-0.294,0.168-0.637,0.168-1.029c0-0.327-0.055-0.628-0.161-0.903
					c-0.107-0.275-0.259-0.513-0.455-0.714c-0.195-0.201-0.433-0.357-0.707-0.469c-0.275-0.112-0.58-0.168-0.916-0.168
					c-0.394,0-0.74,0.086-1.043,0.259c-0.306,0.173-0.572,0.399-0.806,0.679l-1.022-0.056l0.924-5.152h4.9v1.05H497.684z"/>
			</g>
		</g>
	</g>
</g>
<g id="Vertex_Buffer">
	<rect x="479" y="400" fill="#FFFFFF" stroke="#000000" stroke-miterlimit="10" width="136" height="130.75"/>
</g>
<g id="Vertex_Data">
	<g>
		<g>
			<g>
				<rect x="504.893" y="438.632" fill="#E6E6E6" width="96" height="16"/>
				<rect x="504.893" y="470.632" fill="#E6E6E6" width="96" height="16"/>
				<rect x="504.893" y="502.632" fill="#E6E6E6" width="96" height="16"/>
				<line fill="none" stroke="#B3B3B3" stroke-miterlimit="10" x1="520.893" y1="422.632" x2="520.893" y2="518.632"/>
				<line fill="none" stroke="#B3B3B3" stroke-miterlimit="10" x1="512.893" y1="422.632" x2="512.893" y2="518.632"/>
				<line fill="none" stroke="#B3B3B3" stroke-miterlimit="10" x1="528.893" y1="422.632" x2="528.893" y2="518.632"/>
				<line fill="none" stroke="#000000" stroke-miterlimit="10" x1="536.893" y1="422.632" x2="536.893" y2="518.632"/>
				<line fill="none" stroke="#000000" stroke-miterlimit="10" x1="568.893" y1="422.632" x2="568.893" y2="518.632"/>
				<line fill="none" stroke="#B3B3B3" stroke-miterlimit="10" x1="552.893" y1="422.632" x2="552.893" y2="518.632"/>
				<line fill="none" stroke="#B3B3B3" stroke-miterlimit="10" x1="544.893" y1="422.632" x2="544.893" y2="518.632"/>
				<line fill="none" stroke="#B3B3B3" stroke-miterlimit="10" x1="560.893" y1="422.632" x2="560.893" y2="518.632"/>
				<line fill="none" stroke="#B3B3B3" stroke-miterlimit="10" x1="584.893" y1="422.632" x2="584.893" y2="518.632"/>
				<line fill="none" stroke="#B3B3B3" stroke-miterlimit="10" x1="576.893" y1="422.632" x2="576.893" y2="518.632"/>
				<line fill="none" stroke="#B3B3B3" stroke-miterlimit="10" x1="592.893" y1="422.632" x2="592.893" y2="518.632"/>
				<rect x="504.893" y="422.632" fill="none" stroke="#000000" stroke-miterlimit="10" width="96" height="96"/>
				<line fill="none" stroke="#000000" stroke-miterlimit="10" x1="504.893" y1="438.632" x2="600.893" y2="438.632"/>
				<line fill="none" stroke="#000000" stroke-miterlimit="10" x1="504.893" y1="454.632" x2="600.893" y2="454.632"/>
				<line fill="none" stroke="#000000" stroke-miterlimit="10" x1="504.893" y1="470.632" x2="600.893" y2="470.632"/>
				<line fill="none" stroke="#000000" stroke-miterlimit="10" x1="504.893" y1="486.632" x2="600.893" y2="486.632"/>
				<line fill="none" stroke="#000000" stroke-miterlimit="10" x1="504.893" y1="502.632" x2="600.893" y2="502.632"/>
				<g>
					<path d="M517.588,410.395h1.525l1.735,2.533l1.808-2.533h1.428l-2.492,3.332l2.801,3.905h-1.526l-2.017-2.996l-2.016,2.996
						h-1.44l2.715-3.808L517.588,410.395z"/>
				</g>
				<g>
					<path d="M552.717,419.48c-0.135,0.241-0.285,0.439-0.447,0.594c-0.164,0.153-0.344,0.267-0.539,0.336
						c-0.196,0.07-0.43,0.104-0.7,0.104c-0.14,0-0.279-0.01-0.42-0.026c-0.14-0.021-0.275-0.053-0.406-0.1v-1.092
						c0.113,0.037,0.227,0.075,0.344,0.112s0.236,0.056,0.357,0.056c0.241,0,0.438-0.056,0.588-0.168
						c0.147-0.112,0.278-0.274,0.393-0.49l0.49-1.218l-2.871-7.195h1.344l2.115,5.923h0.027l2.028-5.923h1.261l-3.148,8.189
						C552.99,418.938,552.852,419.236,552.717,419.48z"/>
				</g>
				<g>
					<path d="M586.207,411.443h-4.088v-1.05h5.629v0.812l-4.424,5.376h4.619v1.05h-6.104v-0.91L586.207,411.443z"/>
				</g>
				<g>
					<path d="M493.725,429.626c0.019-0.392,0.064-0.774,0.14-1.147c0.076-0.373,0.184-0.729,0.321-1.063
						c0.142-0.336,0.332-0.631,0.574-0.883s0.549-0.452,0.918-0.603c0.367-0.147,0.81-0.224,1.322-0.224s0.953,0.075,1.322,0.224
						c0.369,0.149,0.676,0.351,0.918,0.603s0.434,0.547,0.574,0.883c0.139,0.336,0.246,0.69,0.321,1.063
						c0.074,0.373,0.121,0.757,0.14,1.147c0.02,0.392,0.028,0.771,0.028,1.134c0,0.364-0.01,0.742-0.028,1.135
						c-0.019,0.392-0.064,0.773-0.14,1.147c-0.075,0.373-0.184,0.726-0.321,1.057c-0.142,0.331-0.332,0.623-0.574,0.875
						c-0.242,0.253-0.547,0.45-0.91,0.596c-0.363,0.145-0.807,0.217-1.33,0.217c-0.514,0-0.955-0.072-1.322-0.217
						c-0.369-0.146-0.676-0.343-0.918-0.596c-0.241-0.252-0.434-0.544-0.573-0.875s-0.246-0.684-0.322-1.057
						c-0.074-0.374-0.121-0.757-0.14-1.147c-0.02-0.393-0.028-0.771-0.028-1.135C493.695,430.396,493.705,430.018,493.725,429.626z
						 M494.99,431.999c0.022,0.462,0.1,0.896,0.225,1.302c0.127,0.406,0.328,0.749,0.609,1.029c0.278,0.279,0.672,0.42,1.176,0.42
						s0.896-0.141,1.176-0.42c0.279-0.28,0.482-0.623,0.609-1.029c0.125-0.406,0.201-0.84,0.225-1.302
						c0.021-0.462,0.033-0.88,0.033-1.253c0-0.242-0.002-0.512-0.006-0.805c-0.006-0.295-0.027-0.589-0.07-0.884
						c-0.041-0.294-0.104-0.579-0.182-0.86c-0.08-0.279-0.195-0.524-0.35-0.734c-0.155-0.21-0.349-0.381-0.582-0.512
						c-0.232-0.13-0.519-0.195-0.854-0.195s-0.621,0.065-0.854,0.195c-0.234,0.131-0.429,0.302-0.582,0.512
						c-0.154,0.21-0.271,0.455-0.351,0.734c-0.08,0.281-0.141,0.566-0.182,0.86c-0.043,0.296-0.066,0.589-0.07,0.884
						c-0.004,0.293-0.008,0.562-0.008,0.805C494.955,431.119,494.967,431.537,494.99,431.999z"/>
				</g>
				<g>
					<path d="M496.902,451.632v-7.112h-2.576v-0.95c0.336,0,0.662-0.025,0.979-0.078c0.316-0.051,0.604-0.146,0.859-0.287
						c0.258-0.139,0.475-0.33,0.652-0.573c0.176-0.243,0.299-0.551,0.362-0.924h0.91v9.926L496.902,451.632L496.902,451.632z"/>
				</g>
				<g>
					<path d="M493.877,459.82c0.131-0.431,0.334-0.802,0.609-1.113c0.274-0.312,0.619-0.558,1.028-0.735
						c0.41-0.177,0.877-0.266,1.4-0.266c0.43,0,0.832,0.062,1.211,0.188c0.379,0.128,0.707,0.31,0.986,0.548
						c0.28,0.236,0.502,0.532,0.666,0.889c0.162,0.354,0.244,0.766,0.244,1.232c0,0.438-0.066,0.824-0.203,1.16
						c-0.136,0.337-0.314,0.639-0.539,0.903c-0.224,0.266-0.48,0.506-0.771,0.721c-0.29,0.216-0.588,0.42-0.896,0.616
						c-0.308,0.188-0.615,0.371-0.924,0.553c-0.308,0.184-0.591,0.376-0.847,0.581c-0.258,0.205-0.477,0.429-0.658,0.665
						c-0.182,0.238-0.301,0.512-0.356,0.819h5.096v1.05h-6.481c0.047-0.588,0.151-1.089,0.315-1.505
						c0.162-0.416,0.371-0.777,0.623-1.085s0.535-0.579,0.854-0.812c0.315-0.234,0.647-0.453,0.994-0.658
						c0.42-0.263,0.786-0.502,1.104-0.722c0.316-0.22,0.58-0.44,0.791-0.666c0.209-0.224,0.369-0.467,0.478-0.728
						c0.107-0.261,0.159-0.565,0.159-0.91c0-0.271-0.051-0.516-0.153-0.734c-0.103-0.22-0.24-0.408-0.412-0.566
						c-0.174-0.158-0.377-0.28-0.609-0.364c-0.231-0.084-0.479-0.126-0.742-0.126c-0.346,0-0.643,0.072-0.889,0.217
						c-0.248,0.146-0.451,0.334-0.609,0.567c-0.157,0.233-0.272,0.497-0.342,0.791c-0.07,0.294-0.102,0.591-0.092,0.889h-1.189
						C493.695,460.716,493.748,460.249,493.877,459.82z"/>
				</g>
				<g>
					<path d="M496.285,477.977c0.047,0,0.094,0,0.141,0h0.252c0.252,0,0.492-0.034,0.722-0.104c0.229-0.07,0.43-0.173,0.602-0.31
						c0.174-0.135,0.311-0.305,0.414-0.511c0.102-0.205,0.154-0.438,0.154-0.7c0-0.53-0.168-0.931-0.505-1.196
						c-0.336-0.267-0.756-0.398-1.26-0.398c-0.317,0-0.596,0.06-0.834,0.175c-0.237,0.117-0.434,0.272-0.588,0.471
						c-0.154,0.194-0.268,0.424-0.344,0.686c-0.074,0.262-0.111,0.537-0.111,0.826h-1.188c0.018-0.478,0.096-0.91,0.229-1.303
						c0.135-0.393,0.33-0.729,0.582-1.009c0.252-0.278,0.566-0.499,0.943-0.657c0.379-0.158,0.813-0.237,1.311-0.237
						c0.428,0,0.828,0.054,1.195,0.161c0.369,0.106,0.689,0.268,0.959,0.481c0.271,0.216,0.484,0.49,0.639,0.826
						c0.152,0.336,0.23,0.732,0.23,1.189c0,0.449-0.131,0.846-0.394,1.189c-0.262,0.347-0.588,0.606-0.979,0.784v0.027
						c0.606,0.131,1.059,0.416,1.352,0.854c0.295,0.438,0.441,0.957,0.441,1.555c0,0.494-0.092,0.932-0.273,1.31
						c-0.181,0.378-0.426,0.692-0.733,0.944c-0.309,0.252-0.67,0.44-1.086,0.566c-0.414,0.126-0.855,0.188-1.322,0.188
						c-0.504,0-0.961-0.069-1.373-0.209c-0.41-0.142-0.76-0.349-1.049-0.623c-0.289-0.275-0.513-0.613-0.666-1.017
						c-0.152-0.399-0.228-0.857-0.218-1.371h1.191c0.019,0.645,0.205,1.169,0.559,1.574c0.355,0.406,0.873,0.609,1.556,0.609
						c0.289,0,0.563-0.045,0.826-0.133c0.262-0.089,0.489-0.215,0.686-0.379c0.195-0.162,0.353-0.363,0.469-0.603
						c0.117-0.239,0.177-0.506,0.177-0.805c0-0.31-0.058-0.581-0.168-0.819c-0.113-0.236-0.263-0.438-0.449-0.603
						c-0.187-0.162-0.408-0.283-0.664-0.363c-0.258-0.079-0.535-0.119-0.834-0.119c-0.252,0-0.488,0.015-0.713,0.042v-1.008
						C496.207,477.971,496.248,477.977,496.285,477.977z"/>
				</g>
				<g>
					<path d="M500.318,496.258v1.05h-1.345v2.324h-1.12v-2.324H493.5v-1.146l4.521-6.454h0.952v6.552L500.318,496.258
						L500.318,496.258z M497.854,491.4h-0.026l-3.305,4.856h3.331V491.4z"/>
				</g>
				<g>
					<path d="M495.684,506.924l-0.53,2.855l0.026,0.027c0.215-0.241,0.492-0.422,0.834-0.537c0.34-0.117,0.679-0.177,1.015-0.177
						c0.438,0,0.854,0.07,1.245,0.21c0.394,0.141,0.732,0.354,1.023,0.639c0.289,0.283,0.518,0.639,0.686,1.062
						s0.253,0.922,0.253,1.491c0,0.42-0.072,0.828-0.218,1.225c-0.145,0.397-0.362,0.749-0.651,1.058s-0.65,0.554-1.084,0.734
						c-0.435,0.184-0.941,0.272-1.521,0.272c-0.43,0-0.832-0.062-1.211-0.188c-0.377-0.126-0.711-0.308-1-0.546
						c-0.291-0.237-0.52-0.534-0.688-0.889c-0.168-0.355-0.256-0.756-0.267-1.204h1.189c0.02,0.252,0.082,0.487,0.188,0.707
						c0.107,0.22,0.252,0.411,0.435,0.573c0.184,0.164,0.396,0.29,0.645,0.379c0.248,0.088,0.521,0.133,0.818,0.133
						c0.281,0,0.549-0.049,0.807-0.146c0.256-0.1,0.48-0.246,0.672-0.441c0.191-0.196,0.343-0.441,0.455-0.735
						c0.111-0.294,0.168-0.637,0.168-1.027c0-0.327-0.055-0.629-0.161-0.904c-0.107-0.274-0.259-0.513-0.455-0.713
						c-0.195-0.201-0.433-0.357-0.707-0.469c-0.275-0.113-0.58-0.168-0.916-0.168c-0.394,0-0.74,0.086-1.043,0.258
						c-0.306,0.174-0.572,0.398-0.806,0.68l-1.022-0.057l0.924-5.151h4.9v1.05L495.684,506.924L495.684,506.924z"/>
				</g>
			</g>
		</g>
	</g>
</g>
<g id="Element" display="none">
	<g display="inline">
		<g>
			<rect x="653" y="58.5" fill="#FFFFFF" stroke="#000000" stroke-miterlimit="10" width="88" height="86.632"/>
			<g>
				<rect x="678.893" y="97.132" fill="#E6E6E6" width="48" height="16"/>
				<line fill="none" stroke="#000000" stroke-miterlimit="10" x1="694.893" y1="81.132" x2="694.893" y2="129.132"/>
				<line fill="none" stroke="#B3B3B3" stroke-miterlimit="10" x1="686.893" y1="81.132" x2="686.893" y2="129.132"/>
				<line fill="none" stroke="#B3B3B3" stroke-miterlimit="10" x1="702.893" y1="81.132" x2="702.893" y2="129.132"/>
				<line fill="none" stroke="#000000" stroke-miterlimit="10" x1="710.893" y1="81.132" x2="710.893" y2="129.132"/>
				<line fill="none" stroke="#B3B3B3" stroke-miterlimit="10" x1="718.893" y1="81.132" x2="718.893" y2="129.132"/>
				<rect x="678.893" y="81.132" fill="none" stroke="#000000" stroke-miterlimit="10" width="48" height="48"/>
				<line fill="none" stroke="#000000" stroke-miterlimit="10" x1="678.893" y1="97.132" x2="726.893" y2="97.132"/>
				<line fill="none" stroke="#000000" stroke-miterlimit="10" x1="678.893" y1="113.132" x2="726.893" y2="113.132"/>
				<g>
					<path d="M667.725,88.126c0.019-0.392,0.064-0.774,0.14-1.147c0.076-0.373,0.184-0.729,0.321-1.063
						c0.142-0.336,0.332-0.631,0.574-0.883s0.549-0.452,0.918-0.603c0.367-0.147,0.81-0.224,1.322-0.224s0.953,0.075,1.322,0.224
						c0.369,0.149,0.676,0.351,0.918,0.603s0.434,0.547,0.574,0.883c0.139,0.336,0.246,0.69,0.321,1.063
						c0.074,0.373,0.121,0.757,0.14,1.147c0.02,0.392,0.028,0.771,0.028,1.134c0,0.364-0.01,0.742-0.028,1.135
						c-0.019,0.392-0.064,0.773-0.14,1.147c-0.075,0.373-0.184,0.726-0.321,1.057c-0.142,0.331-0.332,0.623-0.574,0.875
						c-0.242,0.253-0.547,0.45-0.91,0.596c-0.363,0.145-0.807,0.217-1.33,0.217c-0.514,0-0.955-0.072-1.322-0.217
						c-0.369-0.146-0.676-0.343-0.918-0.596c-0.241-0.252-0.434-0.544-0.573-0.875s-0.246-0.684-0.322-1.057
						c-0.074-0.374-0.121-0.757-0.14-1.147c-0.02-0.393-0.028-0.771-0.028-1.135C667.695,88.896,667.705,88.518,667.725,88.126z
						 M668.99,90.499c0.022,0.462,0.1,0.896,0.225,1.302c0.127,0.406,0.328,0.749,0.609,1.029c0.278,0.279,0.672,0.42,1.176,0.42
						s0.896-0.141,1.176-0.42c0.279-0.28,0.482-0.623,0.609-1.029c0.125-0.406,0.201-0.84,0.225-1.302
						c0.021-0.462,0.033-0.88,0.033-1.253c0-0.242-0.002-0.512-0.006-0.805c-0.006-0.295-0.027-0.589-0.07-0.884
						c-0.041-0.294-0.104-0.579-0.182-0.86c-0.08-0.279-0.195-0.524-0.35-0.734c-0.155-0.21-0.349-0.381-0.582-0.512
						c-0.232-0.13-0.519-0.195-0.854-0.195s-0.621,0.065-0.854,0.195c-0.234,0.131-0.429,0.302-0.582,0.512
						c-0.154,0.21-0.271,0.455-0.351,0.734c-0.08,0.281-0.141,0.566-0.182,0.86c-0.043,0.296-0.066,0.589-0.07,0.884
						c-0.004,0.293-0.008,0.562-0.008,0.805C668.955,89.619,668.967,90.037,668.99,90.499z"/>
				</g>
				<g>
					<path d="M670.902,110.132v-7.112h-2.576v-0.95c0.336,0,0.662-0.025,0.979-0.078c0.316-0.051,0.604-0.146,0.859-0.287
						c0.258-0.139,0.475-0.33,0.652-0.573c0.176-0.243,0.299-0.551,0.362-0.924h0.91v9.926L670.902,110.132L670.902,110.132z"/>
				</g>
				<g>
					<path d="M667.877,118.32c0.131-0.431,0.334-0.802,0.609-1.113c0.274-0.312,0.619-0.558,1.028-0.735
						c0.41-0.177,0.877-0.266,1.4-0.266c0.43,0,0.832,0.062,1.211,0.188c0.379,0.128,0.707,0.31,0.986,0.548
						c0.28,0.236,0.502,0.532,0.666,0.889c0.162,0.354,0.244,0.766,0.244,1.232c0,0.438-0.066,0.824-0.203,1.16
						c-0.136,0.337-0.314,0.639-0.539,0.903c-0.224,0.266-0.48,0.506-0.771,0.721c-0.29,0.216-0.588,0.42-0.896,0.616
						c-0.308,0.188-0.615,0.371-0.924,0.553c-0.308,0.184-0.591,0.376-0.847,0.581c-0.258,0.205-0.477,0.429-0.658,0.665
						c-0.182,0.238-0.301,0.512-0.356,0.819h5.096v1.05h-6.481c0.047-0.588,0.151-1.089,0.315-1.505
						c0.162-0.416,0.371-0.777,0.623-1.085s0.535-0.579,0.854-0.812c0.315-0.234,0.647-0.453,0.994-0.658
						c0.42-0.263,0.786-0.502,1.104-0.722c0.316-0.22,0.58-0.44,0.791-0.666c0.209-0.224,0.369-0.467,0.478-0.728
						c0.107-0.261,0.159-0.565,0.159-0.91c0-0.271-0.051-0.516-0.153-0.734c-0.103-0.22-0.24-0.408-0.412-0.566
						c-0.174-0.158-0.377-0.28-0.609-0.364c-0.231-0.084-0.479-0.126-0.742-0.126c-0.346,0-0.643,0.072-0.889,0.217
						c-0.248,0.146-0.451,0.334-0.609,0.567c-0.157,0.233-0.272,0.497-0.342,0.791c-0.07,0.294-0.102,0.591-0.092,0.889h-1.189
						C667.695,119.216,667.748,118.749,667.877,118.32z"/>
				</g>
				<text transform="matrix(1 0 0 1 682.6113 77)" font-family="'Helvetica'" font-size="11">i0</text>
				<text transform="matrix(1 0 0 1 698.7188 77)" font-family="'Helvetica'" font-size="11">i1</text>
				<text transform="matrix(1 0 0 1 714.6113 77)" font-family="'Helvetica'" font-size="11">i2</text>
				<g>
					<path d="M715.32,69.109h0.982v1.096h-0.982V69.109z M715.32,71.274h0.982V77h-0.982V71.274z"/>
					<path d="M717.81,75.271c0.238-0.49,0.702-0.937,1.394-1.337l1.031-0.597c0.462-0.269,0.786-0.498,0.973-0.688
						c0.293-0.298,0.439-0.639,0.439-1.022c0-0.448-0.134-0.804-0.402-1.067s-0.627-0.396-1.074-0.396
						c-0.662,0-1.121,0.252-1.375,0.755c-0.136,0.27-0.211,0.643-0.226,1.12h-0.983c0.012-0.67,0.135-1.216,0.371-1.639
						c0.419-0.744,1.158-1.117,2.219-1.117c0.881,0,1.524,0.238,1.931,0.715s0.609,1.006,0.609,1.59
						c0,0.616-0.217,1.143-0.649,1.579c-0.251,0.254-0.7,0.562-1.349,0.924l-0.735,0.408c-0.352,0.193-0.627,0.378-0.828,0.554
						c-0.357,0.311-0.583,0.656-0.676,1.036h4.199V77h-5.279C717.435,76.338,717.571,75.761,717.81,75.271z"/>
				</g>
			</g>
		</g>
	</g>
</g>
<g id="Element_Buffer">
	<rect x="651" y="400" fill="#FFFFFF" stroke="#000000" stroke-miterlimit="10" width="88" height="86.632"/>
</g>
<g id="Element_Data">
	<g>
		<g>
			<g>
				<rect x="676.893" y="438.632" fill="#E6E6E6" width="48" height="16"/>
				<line fill="none" stroke="#000000" stroke-miterlimit="10" x1="692.893" y1="422.632" x2="692.893" y2="470.632"/>
				<line fill="none" stroke="#B3B3B3" stroke-miterlimit="10" x1="684.893" y1="422.632" x2="684.893" y2="470.632"/>
				<line fill="none" stroke="#B3B3B3" stroke-miterlimit="10" x1="700.893" y1="422.632" x2="700.893" y2="470.632"/>
				<line fill="none" stroke="#000000" stroke-miterlimit="10" x1="708.893" y1="422.632" x2="708.893" y2="470.632"/>
				<line fill="none" stroke="#B3B3B3" stroke-miterlimit="10" x1="716.893" y1="422.632" x2="716.893" y2="470.632"/>
				<rect x="676.893" y="422.632" fill="none" stroke="#000000" stroke-miterlimit="10" width="48" height="48"/>
				<line fill="none" stroke="#000000" stroke-miterlimit="10" x1="676.893" y1="438.632" x2="724.893" y2="438.632"/>
				<line fill="none" stroke="#000000" stroke-miterlimit="10" x1="676.893" y1="454.632" x2="724.893" y2="454.632"/>
				<g>
					<path d="M665.725,429.626c0.019-0.392,0.064-0.774,0.14-1.147c0.076-0.373,0.184-0.729,0.321-1.063
						c0.142-0.336,0.332-0.631,0.574-0.883s0.549-0.452,0.918-0.603c0.367-0.147,0.81-0.224,1.322-0.224s0.953,0.075,1.322,0.224
						c0.369,0.149,0.676,0.351,0.918,0.603s0.434,0.547,0.574,0.883c0.139,0.336,0.246,0.69,0.321,1.063
						c0.074,0.373,0.121,0.757,0.14,1.147c0.02,0.392,0.028,0.771,0.028,1.134c0,0.364-0.01,0.742-0.028,1.135
						c-0.019,0.392-0.064,0.773-0.14,1.147c-0.075,0.373-0.184,0.726-0.321,1.057c-0.142,0.331-0.332,0.623-0.574,0.875
						c-0.242,0.253-0.547,0.45-0.91,0.596c-0.363,0.145-0.807,0.217-1.33,0.217c-0.514,0-0.955-0.072-1.322-0.217
						c-0.369-0.146-0.676-0.343-0.918-0.596c-0.241-0.252-0.434-0.544-0.573-0.875s-0.246-0.684-0.322-1.057
						c-0.074-0.374-0.121-0.757-0.14-1.147c-0.02-0.393-0.028-0.771-0.028-1.135C665.695,430.396,665.705,430.018,665.725,429.626z
						 M666.99,431.999c0.022,0.462,0.1,0.896,0.225,1.302c0.127,0.406,0.328,0.749,0.609,1.029c0.278,0.279,0.672,0.42,1.176,0.42
						s0.896-0.141,1.176-0.42c0.279-0.28,0.482-0.623,0.609-1.029c0.125-0.406,0.201-0.84,0.225-1.302
						c0.021-0.462,0.033-0.88,0.033-1.253c0-0.242-0.002-0.512-0.006-0.805c-0.006-0.295-0.027-0.589-0.07-0.884
						c-0.041-0.294-0.104-0.579-0.182-0.86c-0.08-0.279-0.195-0.524-0.35-0.734c-0.155-0.21-0.349-0.381-0.582-0.512
						c-0.232-0.13-0.519-0.195-0.854-0.195s-0.621,0.065-0.854,0.195c-0.234,0.131-0.429,0.302-0.582,0.512
						c-0.154,0.21-0.271,0.455-0.351,0.734c-0.08,0.281-0.141,0.566-0.182,0.86c-0.043,0.296-0.066,0.589-0.07,0.884
						c-0.004,0.293-0.008,0.562-0.008,0.805C666.955,431.119,666.967,431.537,666.99,431.999z"/>
				</g>
				<g>
					<path d="M668.902,451.632v-7.112h-2.576v-0.95c0.336,0,0.662-0.025,0.979-0.078c0.316-0.051,0.604-0.146,0.859-0.287
						c0.258-0.139,0.475-0.33,0.652-0.573c0.176-0.243,0.299-0.551,0.362-0.924h0.91v9.926L668.902,451.632L668.902,451.632z"/>
				</g>
				<g>
					<path d="M665.877,459.82c0.131-0.431,0.334-0.802,0.609-1.113c0.274-0.312,0.619-0.558,1.028-0.735
						c0.41-0.177,0.877-0.266,1.4-0.266c0.43,0,0.832,0.062,1.211,0.188c0.379,0.128,0.707,0.31,0.986,0.548
						c0.28,0.236,0.502,0.532,0.666,0.889c0.162,0.354,0.244,0.766,0.244,1.232c0,0.438-0.066,0.824-0.203,1.16
						c-0.136,0.337-0.314,0.639-0.539,0.903c-0.224,0.266-0.48,0.506-0.771,0.721c-0.29,0.216-0.588,0.42-0.896,0.616
						c-0.308,0.188-0.615,0.371-0.924,0.553c-0.308,0.184-0.591,0.376-0.847,0.581c-0.258,0.205-0.477,0.429-0.658,0.665
						c-0.182,0.238-0.301,0.512-0.356,0.819h5.096v1.05h-6.481c0.047-0.588,0.151-1.089,0.315-1.505
						c0.162-0.416,0.371-0.777,0.623-1.085s0.535-0.579,0.854-0.812c0.315-0.234,0.647-0.453,0.994-0.658
						c0.42-0.263,0.786-0.502,1.104-0.722c0.316-0.22,0.58-0.44,0.791-0.666c0.209-0.224,0.369-0.467,0.478-0.728
						c0.107-0.261,0.159-0.565,0.159-0.91c0-0.271-0.051-0.516-0.153-0.734c-0.103-0.22-0.24-0.408-0.412-0.566
						c-0.174-0.158-0.377-0.28-0.609-0.364c-0.231-0.084-0.479-0.126-0.742-0.126c-0.346,0-0.643,0.072-0.889,0.217
						c-0.248,0.146-0.451,0.334-0.609,0.567c-0.157,0.233-0.272,0.497-0.342,0.791c-0.07,0.294-0.102,0.591-0.092,0.889h-1.189
						C665.695,460.716,665.748,460.249,665.877,459.82z"/>
				</g>
				<g>
					<path d="M681.32,410.609h0.982v1.096h-0.982V410.609z M681.32,412.774h0.982v5.726h-0.982V412.774z"/>
					<path d="M688.189,412.039c0.344,0.633,0.516,1.502,0.516,2.604c0,1.046-0.156,1.91-0.467,2.595
						c-0.451,0.98-1.189,1.471-2.213,1.471c-0.924,0-1.611-0.4-2.062-1.203c-0.377-0.669-0.564-1.568-0.564-2.695
						c0-0.874,0.113-1.624,0.338-2.251c0.423-1.167,1.188-1.751,2.294-1.751C687.025,410.809,687.745,411.219,688.189,412.039z
						 M687.217,417.162c0.298-0.443,0.446-1.271,0.446-2.48c0-0.874-0.107-1.593-0.323-2.157c-0.215-0.563-0.633-0.846-1.253-0.846
						c-0.57,0-0.987,0.268-1.251,0.803s-0.396,1.324-0.396,2.366c0,0.784,0.084,1.414,0.253,1.891
						c0.258,0.727,0.699,1.09,1.323,1.09C686.519,417.828,686.919,417.606,687.217,417.162z"/>
				</g>
				<g>
					<path d="M697.428,410.609h0.982v1.096h-0.982V410.609z M697.428,412.774h0.982v5.726h-0.982V412.774z"/>
					<path d="M700.215,413.054v-0.741c0.698-0.068,1.186-0.182,1.461-0.341s0.481-0.536,0.617-1.131h0.764v7.659h-1.031v-5.446
						H700.215z"/>
				</g>
				<g>
					<path d="M713.32,410.609h0.982v1.096h-0.982V410.609z M713.32,412.774h0.982v5.726h-0.982V412.774z"/>
					<path d="M715.81,416.771c0.238-0.49,0.702-0.937,1.394-1.337l1.031-0.597c0.462-0.269,0.786-0.498,0.973-0.688
						c0.293-0.298,0.439-0.639,0.439-1.022c0-0.448-0.134-0.804-0.402-1.067s-0.627-0.396-1.074-0.396
						c-0.662,0-1.121,0.252-1.375,0.755c-0.136,0.27-0.211,0.643-0.226,1.12h-0.983c0.012-0.67,0.135-1.216,0.371-1.639
						c0.419-0.744,1.158-1.117,2.219-1.117c0.881,0,1.524,0.238,1.931,0.715s0.609,1.006,0.609,1.59
						c0,0.616-0.217,1.143-0.649,1.579c-0.251,0.254-0.7,0.562-1.349,0.924l-0.735,0.408c-0.352,0.193-0.627,0.378-0.828,0.554
						c-0.357,0.311-0.583,0.656-0.676,1.036h4.199v0.913h-5.279C715.435,417.838,715.571,417.261,715.81,416.771z"/>
				</g>
			</g>
		</g>
	</g>
</g>
<g id="Current_Element_Buffer">
	<g>
		<g>
			<g>
				<path fill="none" stroke="#000000" stroke-width="3" stroke-miterlimit="10" d="M653.525,348.333
					c0,0,41.127,13.678,24.46,45.011"/>
				<g>
					<circle cx="653.525" cy="348.333" r="5.64"/>
				</g>
				<g>
					<path d="M669.482,409.328c1.21-9.006,1.412-20.871-0.554-29.339l10.173,11.257l15.017,2.143
						C685.998,396.491,676.271,403.29,669.482,409.328z"/>
				</g>
			</g>
		</g>
	</g>
</g>
<g id="Current_Array_Buffer">
	<g>
		<g>
			<g>
				<path fill="none" stroke="#000000" stroke-width="3" stroke-miterlimit="10" d="M496.208,348.333
					c0,0,41.127,13.678,24.46,45.011"/>
				<g>
					<circle cx="496.208" cy="348.333" r="5.64"/>
				</g>
				<g>
					<path d="M512.165,409.328c1.21-9.006,1.412-20.871-0.554-29.339l10.173,11.257l15.017,2.143
						C528.681,396.491,518.954,403.29,512.165,409.328z"/>
				</g>
			</g>
		</g>
	</g>
</g>
<g id="Current_Program">
	<g>
		<g>
			<g>
				<path fill="none" stroke="#000000" stroke-width="3" stroke-miterlimit="10" d="M324,348.5c0,0,6.952,15.192-4.048,45.192"/>
				<g>
					<circle cx="324" cy="348.5" r="5.64"/>
				</g>
				<g>
					<path d="M313.719,410.691c-0.035-9.087-1.46-20.868-4.568-28.986l11.619,9.757l15.169,0.065
						C328.32,395.712,319.617,403.779,313.719,410.691z"/>
				</g>
			</g>
		</g>
	</g>
</g>
<g id="triangleBuffer" display="none">
	<g display="inline">
		<g>
			<g>
				<path fill="none" stroke="#000000" stroke-width="3" stroke-miterlimit="10" stroke-dasharray="4,4" d="M312,220.141
					c0,0,218.893,73.359,342.447,181.389"/>
				<g>
					<circle cx="312" cy="220.141" r="5.639"/>
				</g>
				<g>
					<path d="M668.077,413.448c-8.494-3.229-20.002-6.126-28.695-6.138l13.276-7.344l5.505-14.136
						C659.335,394.444,663.742,405.463,668.077,413.448z"/>
				</g>
			</g>
		</g>
	</g>
</g>
<g id="positionBuffer" display="none">
	<g display="inline">
		<g>
			<g>
				<path fill="none" stroke="#000000" stroke-width="3" stroke-miterlimit="10" stroke-dasharray="4,4" d="M312,253.132
					c0,0,108.667,4.879,181.334,146.212"/>
				<g>
					<circle cx="312" cy="253.132" r="5.639"/>
				</g>
				<g>
					<path d="M501.613,415.445c-6.707-6.131-16.338-13.065-24.414-16.28l15.049-1.935l10.326-11.112
						C500.489,394.558,500.526,406.425,501.613,415.445z"/>
				</g>
			</g>
		</g>
	</g>
</g>
<g id="triangles" display="none">
	<g display="inline">
		<g>
			<g>
				<path fill="none" stroke="#000000" stroke-width="3" stroke-miterlimit="10" d="M312,187.15c0,0,57.367-33.981,151.616-44.864"
					/>
				<g>
					<circle cx="312" cy="187.15" r="5.639"/>
				</g>
				<g>
					<path d="M481.603,140.209c-8.101,4.117-17.983,10.688-23.837,17.115l3.49-14.766l-6.763-13.579
						C461.657,133.904,472.776,138.049,481.603,140.209z"/>
				</g>
			</g>
		</g>
	</g>
</g>
<g id="positions_1_" display="none">
	<g display="inline">
		<g>
			<g>
				<path fill="none" stroke="#000000" stroke-width="3" stroke-miterlimit="10" d="M312,154.16c0,0,142-64.735,321.616-51.137"/>
				<g>
					<circle cx="312" cy="154.16" r="5.639"/>
				</g>
				<g>
					<path d="M651.67,104.39c-8.733,2.509-19.681,7.089-26.646,12.291l6.223-13.837l-4.069-14.614
						C633.28,94.421,643.413,100.598,651.67,104.39z"/>
				</g>
			</g>
		</g>
	</g>
</g>
<g id="program" display="none">
	<g display="inline">
		<g>
			<g>
				<path fill="none" stroke="#000000" stroke-width="3" stroke-miterlimit="10" stroke-dasharray="3.9499,3.9499" d="M312,121.169
					c-19.212,31.822-127.527,230.98-25.573,287.49"/>
				<g>
					<circle cx="312" cy="121.169" r="5.64"/>
				</g>
				<g>
					<path d="M302.263,417.437c-8.984-1.365-20.844-1.772-29.344,0.048l11.43-9.977l2.401-14.979
						C289.712,400.702,296.342,410.544,302.263,417.437z"/>
				</g>
			</g>
		</g>
	</g>
</g>
<g id="Vertex_Pointer_1_" display="none">
	<g display="inline">
		<g>
			
				<line fill="none" stroke="#ED1F24" stroke-width="2" stroke-miterlimit="10" x1="431.52" y1="442.156" x2="504.893" y2="429.607"/>
			<g>
				<circle fill="#FFFFFF" cx="431.52" cy="442.156" r="7.52"/>
				<path fill="#ED1F24" d="M432.149,450.652c4.686-0.348,8.214-4.441,7.866-9.126c-0.348-4.686-4.441-8.214-9.126-7.866
					c-4.686,0.348-8.214,4.441-7.866,9.126C423.371,447.472,427.465,451,432.149,450.652
					C436.835,450.305,427.465,451,432.149,450.652z M431.037,435.654c3.586-0.266,6.719,2.434,6.984,6.02
					c0.266,3.587-2.434,6.719-6.02,6.984s-6.719-2.434-6.984-6.02C424.752,439.052,427.451,435.921,431.037,435.654
					C434.623,435.389,427.451,435.921,431.037,435.654z"/>
			</g>
		</g>
		<g>
			
				<rect x="504.893" y="421.906" fill="#FFFFFF" stroke="#ED1F24" stroke-width="2" stroke-miterlimit="10" width="96" height="16"/>
			
				<line fill="none" stroke="#ED1F24" stroke-width="2" stroke-miterlimit="10" x1="536.893" y1="437.906" x2="536.893" y2="421.906"/>
			
				<line fill="none" stroke="#ED1F24" stroke-width="2" stroke-miterlimit="10" x1="568.893" y1="437.906" x2="568.893" y2="421.906"/>
		</g>
	</g>
</g>
<g id="Enable" display="none">
	<g display="inline">
		<g>
			
				<line fill="none" stroke="#ED1F24" stroke-width="2" stroke-miterlimit="10" x1="431.52" y1="442.156" x2="504.893" y2="429.607"/>
			<g>
				<circle fill="#ED1F24" cx="431.52" cy="442.156" r="7.52"/>
			</g>
		</g>
		<g>
			
				<rect x="504.893" y="421.906" fill="#FFFFFF" stroke="#ED1F24" stroke-width="2" stroke-miterlimit="10" width="96" height="16"/>
			
				<line fill="none" stroke="#ED1F24" stroke-width="2" stroke-miterlimit="10" x1="536.893" y1="437.906" x2="536.893" y2="421.906"/>
			
				<line fill="none" stroke="#ED1F24" stroke-width="2" stroke-miterlimit="10" x1="568.893" y1="437.906" x2="568.893" y2="421.906"/>
		</g>
	</g>
</g>
<g id="Draw_Elements">
	<rect x="676.893" y="422.632" fill="none" stroke="#FF0000" stroke-width="2" stroke-miterlimit="10" width="48" height="48"/>
	
		<line fill="none" stroke="#FF0000" stroke-width="2" stroke-miterlimit="10" x1="676.893" y1="438.632" x2="724.893" y2="438.632"/>
	<line fill="none" stroke="#FF0000" stroke-width="2" stroke-miterlimit="10" x1="676.893" y1="454.632" x2="722.75" y2="454.632"/>
	
		<line fill="none" stroke="#FF0000" stroke-width="2" stroke-miterlimit="10" x1="692.893" y1="422.632" x2="692.893" y2="470.632"/>
	<line fill="none" stroke="#FF0000" stroke-width="2" stroke-miterlimit="10" x1="708.893" y1="422.632" x2="707.75" y2="470.632"/>
</g>
</svg>
