<?xml version="1.0" encoding="utf-8"?>
<!-- Generator: Adobe Illustrator 15.1.0, SVG Export Plug-In . SVG Version: 6.00 Build 0)  -->
<!DOCTYPE svg PUBLIC "-//W3C//DTD SVG 1.1 Tiny//EN" "http://www.w3.org/Graphics/SVG/1.1/DTD/svg11-tiny.dtd">
<svg version="1.1" baseProfile="tiny" id="Layer_1" xmlns="http://www.w3.org/2000/svg" xmlns:xlink="http://www.w3.org/1999/xlink"
	 x="0px" y="0px" width="257.748px" height="255.485px" viewBox="0 0 257.748 255.485" overflow="inherit" xml:space="preserve">
<g>
	<circle cx="49.404" cy="46.713" r="3.5"/>
	<circle cx="113.404" cy="46.713" r="3.5"/>
	<circle cx="177.404" cy="46.713" r="3.5"/>
	<circle cx="241.404" cy="46.713" r="3.5"/>
	<circle cx="49.404" cy="110.713" r="3.5"/>
	<circle cx="113.404" cy="110.713" r="3.5"/>
	<circle cx="177.404" cy="110.713" r="3.5"/>
	<circle cx="241.404" cy="110.713" r="3.5"/>
	<circle cx="49.404" cy="174.713" r="3.5"/>
	<circle cx="113.404" cy="174.713" r="3.5"/>
	<circle cx="177.404" cy="174.713" r="3.5"/>
	<circle cx="241.404" cy="174.713" r="3.5"/>
	<circle cx="49.404" cy="238.713" r="3.5"/>
	<circle cx="113.404" cy="238.713" r="3.5"/>
	<circle cx="177.404" cy="238.713" r="3.5"/>
	<circle cx="241.404" cy="238.713" r="3.5"/>
</g>
<g display="none">
	<g display="inline">
		<path d="M52.932,52.565c0.016-0.336,0.056-0.664,0.12-0.984s0.156-0.624,0.276-0.912c0.12-0.288,0.284-0.54,0.492-0.756
			c0.208-0.216,0.47-0.388,0.786-0.516c0.316-0.128,0.694-0.192,1.134-0.192s0.818,0.064,1.134,0.192
			c0.316,0.128,0.578,0.3,0.786,0.516c0.208,0.216,0.372,0.468,0.492,0.756s0.212,0.592,0.276,0.912s0.104,0.648,0.12,0.984
			s0.024,0.66,0.024,0.972s-0.008,0.636-0.024,0.972s-0.056,0.664-0.12,0.984c-0.064,0.32-0.156,0.623-0.276,0.906
			c-0.12,0.284-0.284,0.534-0.492,0.75s-0.468,0.386-0.78,0.51c-0.312,0.124-0.692,0.186-1.14,0.186
			c-0.44,0-0.818-0.062-1.134-0.186c-0.316-0.124-0.578-0.294-0.786-0.51s-0.372-0.466-0.492-0.75
			c-0.12-0.284-0.212-0.586-0.276-0.906c-0.064-0.32-0.104-0.648-0.12-0.984s-0.024-0.66-0.024-0.972S52.916,52.901,52.932,52.565z
			 M54.018,54.599c0.02,0.396,0.084,0.768,0.192,1.116s0.282,0.642,0.522,0.882c0.24,0.24,0.576,0.36,1.008,0.36
			s0.768-0.12,1.008-0.36c0.24-0.24,0.414-0.534,0.522-0.882c0.108-0.348,0.172-0.72,0.192-1.116c0.02-0.396,0.03-0.754,0.03-1.074
			c0-0.208-0.002-0.438-0.006-0.69c-0.004-0.252-0.024-0.504-0.06-0.756c-0.036-0.252-0.088-0.498-0.156-0.738
			c-0.068-0.24-0.168-0.45-0.3-0.63c-0.132-0.18-0.298-0.326-0.498-0.438c-0.2-0.112-0.444-0.168-0.732-0.168
			s-0.532,0.056-0.732,0.168c-0.2,0.112-0.366,0.258-0.498,0.438s-0.232,0.39-0.3,0.63c-0.068,0.24-0.12,0.486-0.156,0.738
			c-0.036,0.252-0.056,0.504-0.06,0.756s-0.006,0.482-0.006,0.69C53.988,53.845,53.998,54.203,54.018,54.599z"/>
	</g>
	<g display="inline">
		<path d="M119.656,57.713v-6.096h-2.208v-0.816c0.288,0,0.568-0.022,0.84-0.066s0.518-0.126,0.738-0.246
			c0.22-0.12,0.406-0.284,0.558-0.492c0.152-0.208,0.256-0.472,0.312-0.792h0.78v8.508H119.656z"/>
	</g>
	<g display="inline">
		<path d="M181.064,51.017c0.112-0.368,0.286-0.686,0.522-0.954c0.236-0.268,0.53-0.478,0.882-0.63s0.752-0.228,1.2-0.228
			c0.368,0,0.714,0.054,1.038,0.162c0.324,0.108,0.606,0.264,0.846,0.468c0.24,0.204,0.43,0.458,0.57,0.762
			c0.14,0.304,0.21,0.656,0.21,1.056c0,0.376-0.058,0.708-0.174,0.996s-0.27,0.546-0.462,0.774s-0.412,0.434-0.66,0.618
			s-0.504,0.36-0.768,0.528c-0.264,0.16-0.528,0.318-0.792,0.474c-0.264,0.156-0.506,0.322-0.726,0.498
			c-0.22,0.176-0.408,0.366-0.564,0.57c-0.156,0.204-0.258,0.438-0.306,0.702h4.368v0.9h-5.556c0.04-0.504,0.13-0.934,0.27-1.29
			c0.14-0.356,0.318-0.666,0.534-0.93c0.216-0.264,0.46-0.496,0.732-0.696c0.271-0.2,0.556-0.388,0.852-0.564
			c0.36-0.224,0.676-0.43,0.948-0.618c0.272-0.188,0.498-0.378,0.678-0.57c0.18-0.192,0.316-0.4,0.408-0.624s0.138-0.484,0.138-0.78
			c0-0.232-0.044-0.442-0.132-0.63c-0.088-0.188-0.206-0.35-0.354-0.486c-0.148-0.136-0.322-0.24-0.522-0.312
			c-0.2-0.072-0.412-0.108-0.636-0.108c-0.296,0-0.55,0.062-0.762,0.186s-0.386,0.286-0.522,0.486
			c-0.136,0.2-0.234,0.426-0.294,0.678s-0.086,0.506-0.078,0.762h-1.02C180.908,51.785,180.952,51.385,181.064,51.017z"/>
	</g>
	<g display="inline">
		<path d="M247.128,52.865c0.039,0,0.079,0,0.119,0h0.217c0.215,0,0.422-0.03,0.617-0.09c0.196-0.06,0.368-0.148,0.516-0.264
			c0.148-0.116,0.267-0.262,0.354-0.438c0.088-0.176,0.132-0.376,0.132-0.6c0-0.456-0.144-0.798-0.432-1.026
			s-0.648-0.342-1.08-0.342c-0.271,0-0.51,0.05-0.714,0.15s-0.372,0.234-0.504,0.402s-0.23,0.364-0.294,0.588
			c-0.064,0.224-0.096,0.46-0.096,0.708h-1.021c0.017-0.408,0.082-0.78,0.198-1.116c0.115-0.336,0.281-0.624,0.498-0.864
			c0.216-0.24,0.486-0.428,0.81-0.564c0.324-0.136,0.698-0.204,1.122-0.204c0.367,0,0.71,0.046,1.025,0.138
			c0.316,0.092,0.59,0.23,0.822,0.414s0.414,0.42,0.547,0.708c0.131,0.288,0.197,0.628,0.197,1.02c0,0.384-0.111,0.724-0.336,1.02
			s-0.504,0.52-0.84,0.672v0.024c0.52,0.112,0.906,0.356,1.158,0.732s0.378,0.82,0.378,1.332c0,0.424-0.078,0.798-0.233,1.122
			c-0.156,0.324-0.367,0.594-0.631,0.81c-0.264,0.216-0.574,0.378-0.93,0.486c-0.356,0.108-0.734,0.162-1.135,0.162
			c-0.432,0-0.823-0.06-1.176-0.18c-0.352-0.12-0.652-0.298-0.899-0.534c-0.248-0.236-0.438-0.526-0.57-0.87
			c-0.132-0.344-0.194-0.736-0.187-1.176h1.021c0.017,0.552,0.176,1.002,0.479,1.35c0.305,0.348,0.748,0.522,1.332,0.522
			c0.248,0,0.484-0.038,0.709-0.114c0.224-0.076,0.42-0.184,0.588-0.324s0.302-0.312,0.402-0.516c0.1-0.204,0.149-0.434,0.149-0.69
			c0-0.264-0.048-0.498-0.144-0.702c-0.097-0.204-0.225-0.376-0.385-0.516c-0.16-0.14-0.35-0.244-0.57-0.312
			c-0.22-0.068-0.457-0.102-0.713-0.102c-0.217,0-0.42,0.012-0.612,0.036v-0.864C247.06,52.861,247.095,52.865,247.128,52.865z"/>
	</g>
	<g display="inline">
		<path fill="#ED1F24" d="M47.298,28.852c0.012-0.252,0.042-0.498,0.09-0.738c0.048-0.24,0.117-0.468,0.207-0.684
			c0.09-0.216,0.213-0.405,0.369-0.567c0.156-0.162,0.353-0.291,0.589-0.387c0.237-0.096,0.521-0.144,0.851-0.144
			s0.613,0.048,0.851,0.144c0.237,0.096,0.434,0.225,0.589,0.387c0.156,0.162,0.279,0.351,0.369,0.567
			c0.09,0.216,0.159,0.444,0.207,0.684c0.048,0.24,0.078,0.486,0.09,0.738s0.018,0.495,0.018,0.729c0,0.234-0.006,0.477-0.018,0.729
			s-0.042,0.498-0.09,0.738c-0.048,0.24-0.117,0.467-0.207,0.68s-0.213,0.4-0.369,0.562c-0.156,0.162-0.351,0.29-0.585,0.382
			s-0.519,0.14-0.855,0.14c-0.33,0-0.613-0.047-0.851-0.14c-0.237-0.093-0.434-0.221-0.589-0.382
			c-0.156-0.162-0.279-0.35-0.369-0.562c-0.09-0.213-0.159-0.439-0.207-0.68c-0.048-0.24-0.078-0.486-0.09-0.738
			c-0.012-0.252-0.018-0.495-0.018-0.729C47.28,29.347,47.286,29.104,47.298,28.852z M48.112,30.377
			c0.015,0.297,0.063,0.576,0.144,0.837c0.081,0.261,0.211,0.481,0.392,0.662c0.18,0.18,0.432,0.27,0.756,0.27
			c0.324,0,0.576-0.09,0.756-0.27c0.18-0.18,0.311-0.4,0.392-0.662c0.081-0.261,0.129-0.54,0.144-0.837s0.022-0.565,0.022-0.806
			c0-0.156-0.001-0.329-0.004-0.518s-0.018-0.378-0.045-0.567c-0.027-0.189-0.066-0.374-0.117-0.553
			c-0.051-0.18-0.126-0.338-0.225-0.473c-0.099-0.135-0.224-0.245-0.374-0.329s-0.333-0.126-0.549-0.126s-0.399,0.042-0.549,0.126
			c-0.15,0.084-0.274,0.193-0.374,0.329c-0.099,0.135-0.174,0.292-0.225,0.473c-0.051,0.18-0.09,0.364-0.117,0.553
			c-0.027,0.189-0.042,0.378-0.045,0.567s-0.004,0.362-0.004,0.518C48.09,29.812,48.097,30.081,48.112,30.377z"/>
	</g>
	<g display="inline">
		<path fill="#ED1F24" d="M113.341,32.713v-4.572h-1.656v-0.612c0.216,0,0.426-0.017,0.63-0.049
			c0.204-0.033,0.388-0.095,0.553-0.185s0.305-0.213,0.418-0.369c0.114-0.156,0.192-0.354,0.234-0.594h0.585v6.381H113.341z"/>
	</g>
	<g display="inline">
		<path fill="#ED1F24" d="M175.397,27.691c0.084-0.276,0.214-0.515,0.392-0.715c0.177-0.201,0.397-0.359,0.661-0.473
			s0.564-0.171,0.9-0.171c0.276,0,0.535,0.041,0.778,0.122c0.243,0.081,0.455,0.198,0.634,0.351c0.18,0.153,0.323,0.344,0.428,0.572
			s0.157,0.492,0.157,0.792c0,0.282-0.043,0.531-0.13,0.747c-0.087,0.216-0.203,0.409-0.346,0.581
			c-0.144,0.171-0.31,0.325-0.495,0.463c-0.186,0.138-0.378,0.27-0.576,0.396c-0.198,0.12-0.396,0.238-0.594,0.355
			c-0.198,0.117-0.38,0.242-0.545,0.374s-0.306,0.274-0.423,0.427c-0.117,0.153-0.193,0.329-0.229,0.527h3.276v0.675h-4.167
			c0.03-0.378,0.098-0.701,0.203-0.967c0.105-0.267,0.239-0.5,0.4-0.698c0.162-0.198,0.345-0.372,0.549-0.522
			c0.204-0.15,0.417-0.291,0.639-0.423c0.27-0.168,0.507-0.323,0.711-0.464c0.204-0.141,0.374-0.283,0.509-0.427
			c0.135-0.144,0.237-0.3,0.306-0.468c0.069-0.167,0.104-0.363,0.104-0.585c0-0.174-0.033-0.331-0.099-0.472
			c-0.066-0.141-0.155-0.263-0.266-0.365s-0.242-0.18-0.392-0.234s-0.309-0.081-0.477-0.081c-0.222,0-0.413,0.046-0.571,0.14
			c-0.159,0.093-0.29,0.214-0.392,0.364c-0.102,0.15-0.175,0.32-0.22,0.509c-0.045,0.189-0.065,0.379-0.059,0.571h-0.765
			C175.28,28.267,175.313,27.967,175.397,27.691z"/>
	</g>
	<g display="inline">
		<path fill="#ED1F24" d="M240.945,29.077c0.029,0,0.061,0,0.09,0h0.162c0.162,0,0.316-0.022,0.463-0.067
			c0.147-0.045,0.276-0.111,0.388-0.198c0.11-0.087,0.199-0.197,0.266-0.329c0.065-0.132,0.099-0.282,0.099-0.45
			c0-0.342-0.107-0.598-0.324-0.77c-0.215-0.171-0.485-0.256-0.81-0.256c-0.204,0-0.382,0.038-0.536,0.113
			c-0.152,0.075-0.278,0.175-0.377,0.301c-0.1,0.126-0.173,0.273-0.221,0.441c-0.049,0.168-0.072,0.345-0.072,0.531h-0.766
			c0.013-0.306,0.062-0.585,0.149-0.837c0.087-0.252,0.212-0.468,0.373-0.648c0.162-0.18,0.364-0.321,0.608-0.423
			c0.242-0.102,0.523-0.153,0.841-0.153c0.276,0,0.532,0.035,0.77,0.104s0.442,0.172,0.616,0.311
			c0.174,0.138,0.311,0.315,0.41,0.531c0.099,0.216,0.148,0.471,0.148,0.765c0,0.288-0.084,0.543-0.252,0.765
			c-0.168,0.222-0.379,0.39-0.631,0.504v0.018c0.391,0.084,0.68,0.267,0.869,0.549s0.283,0.615,0.283,0.999
			c0,0.318-0.059,0.599-0.176,0.841c-0.117,0.243-0.273,0.446-0.473,0.607c-0.197,0.162-0.43,0.284-0.697,0.365
			c-0.267,0.081-0.551,0.122-0.85,0.122c-0.324,0-0.619-0.045-0.883-0.135c-0.264-0.09-0.488-0.223-0.675-0.4
			c-0.187-0.177-0.329-0.395-0.427-0.652c-0.1-0.258-0.146-0.552-0.141-0.882h0.766c0.012,0.414,0.132,0.751,0.359,1.013
			c0.229,0.261,0.562,0.392,1,0.392c0.186,0,0.362-0.028,0.53-0.085s0.315-0.138,0.441-0.243s0.226-0.234,0.302-0.387
			c0.074-0.153,0.111-0.325,0.111-0.517c0-0.198-0.035-0.374-0.107-0.527c-0.072-0.153-0.168-0.282-0.288-0.387
			s-0.263-0.183-0.427-0.234c-0.166-0.051-0.344-0.077-0.536-0.077c-0.162,0-0.315,0.009-0.459,0.027v-0.648
			C240.894,29.074,240.921,29.077,240.945,29.077z"/>
	</g>
	<g display="inline">
		<path d="M58.584,118.821v0.9h-1.152v1.992h-0.96v-1.992H52.74v-0.984l3.876-5.532h0.816v5.616H58.584z M56.472,114.657h-0.024
			l-2.832,4.164h2.856V114.657z"/>
	</g>
	<g display="inline">
		<path d="M118.612,114.249l-0.456,2.448l0.024,0.024c0.184-0.208,0.422-0.362,0.714-0.462c0.292-0.1,0.582-0.15,0.87-0.15
			c0.376,0,0.732,0.06,1.068,0.18c0.336,0.12,0.628,0.302,0.876,0.546c0.248,0.244,0.444,0.548,0.588,0.912
			c0.144,0.364,0.216,0.79,0.216,1.278c0,0.36-0.062,0.71-0.186,1.05c-0.124,0.34-0.31,0.642-0.558,0.906s-0.558,0.474-0.93,0.63
			c-0.372,0.156-0.806,0.234-1.302,0.234c-0.368,0-0.714-0.054-1.038-0.162c-0.324-0.108-0.61-0.264-0.858-0.468
			s-0.444-0.458-0.588-0.762c-0.144-0.304-0.22-0.648-0.228-1.032h1.02c0.016,0.216,0.07,0.418,0.162,0.606
			c0.092,0.188,0.216,0.352,0.372,0.492c0.156,0.14,0.34,0.248,0.552,0.324c0.212,0.076,0.446,0.114,0.702,0.114
			c0.24,0,0.47-0.042,0.69-0.126c0.22-0.084,0.412-0.21,0.576-0.378c0.164-0.168,0.294-0.378,0.39-0.63
			c0.096-0.252,0.144-0.546,0.144-0.882c0-0.28-0.046-0.538-0.138-0.774c-0.092-0.236-0.222-0.44-0.39-0.612
			c-0.168-0.172-0.37-0.306-0.606-0.402c-0.236-0.096-0.498-0.144-0.786-0.144c-0.336,0-0.634,0.074-0.894,0.222
			s-0.49,0.342-0.69,0.582l-0.876-0.048l0.792-4.416h4.2v0.9H118.612z"/>
	</g>
	<g display="inline">
		<path d="M184.928,114.453c-0.248-0.232-0.576-0.348-0.984-0.348c-0.432,0-0.78,0.106-1.044,0.318
			c-0.264,0.212-0.47,0.48-0.618,0.804c-0.148,0.324-0.25,0.674-0.306,1.05c-0.056,0.376-0.088,0.728-0.096,1.056l0.024,0.024
			c0.24-0.392,0.538-0.676,0.894-0.852c0.356-0.176,0.766-0.264,1.23-0.264c0.408,0,0.774,0.07,1.098,0.21
			c0.324,0.14,0.596,0.334,0.816,0.582c0.22,0.248,0.39,0.54,0.51,0.876c0.12,0.336,0.18,0.7,0.18,1.092
			c0,0.312-0.048,0.636-0.144,0.972c-0.096,0.336-0.254,0.642-0.474,0.918c-0.22,0.276-0.512,0.504-0.876,0.684
			c-0.364,0.18-0.814,0.27-1.35,0.27c-0.632,0-1.14-0.128-1.524-0.384c-0.384-0.256-0.68-0.584-0.888-0.984
			c-0.208-0.4-0.346-0.84-0.414-1.32c-0.068-0.48-0.102-0.944-0.102-1.392c0-0.583,0.05-1.15,0.15-1.698s0.27-1.034,0.51-1.458
			c0.24-0.424,0.56-0.764,0.96-1.02c0.4-0.256,0.904-0.384,1.512-0.384c0.704,0,1.264,0.186,1.68,0.558
			c0.416,0.372,0.656,0.91,0.72,1.614h-1.02C185.324,114.993,185.176,114.685,184.928,114.453z M183.08,117.291
			c-0.216,0.1-0.4,0.236-0.552,0.408c-0.152,0.172-0.266,0.376-0.342,0.612c-0.076,0.236-0.114,0.486-0.114,0.75
			c0,0.264,0.04,0.512,0.12,0.744c0.08,0.232,0.194,0.432,0.342,0.6s0.332,0.302,0.552,0.402c0.22,0.1,0.47,0.15,0.75,0.15
			c0.28,0,0.526-0.05,0.738-0.15s0.39-0.238,0.534-0.414c0.144-0.176,0.254-0.378,0.33-0.606c0.076-0.228,0.114-0.466,0.114-0.714
			c0-0.264-0.034-0.514-0.102-0.75c-0.068-0.236-0.174-0.44-0.318-0.612s-0.324-0.31-0.54-0.414s-0.468-0.156-0.756-0.156
			S183.296,117.191,183.08,117.291z"/>
	</g>
	<g display="inline">
		<path d="M249.3,115.737c-0.377,0.584-0.711,1.208-1.002,1.872c-0.293,0.664-0.531,1.348-0.715,2.052
			c-0.184,0.704-0.296,1.388-0.336,2.052h-1.14c0.048-0.72,0.166-1.422,0.354-2.106c0.188-0.684,0.43-1.34,0.726-1.968
			c0.296-0.628,0.638-1.222,1.026-1.782c0.387-0.56,0.805-1.076,1.254-1.548h-4.465v-0.96h5.508v0.876
			C250.08,114.649,249.675,115.153,249.3,115.737z"/>
	</g>
	<g display="inline">
		<path d="M53.388,178.447c0.136-0.268,0.32-0.494,0.552-0.678c0.232-0.184,0.498-0.324,0.798-0.42
			c0.3-0.096,0.614-0.144,0.942-0.144c0.464,0,0.86,0.062,1.188,0.186s0.594,0.288,0.798,0.492c0.204,0.204,0.354,0.436,0.45,0.696
			c0.096,0.26,0.144,0.526,0.144,0.798c0,0.384-0.106,0.734-0.318,1.05c-0.212,0.316-0.498,0.554-0.858,0.714
			c0.512,0.16,0.892,0.422,1.14,0.786c0.248,0.364,0.372,0.81,0.372,1.338c0,0.417-0.074,0.784-0.222,1.104
			c-0.148,0.32-0.348,0.59-0.6,0.81c-0.252,0.22-0.55,0.386-0.894,0.498c-0.344,0.112-0.712,0.168-1.104,0.168
			c-0.408,0-0.788-0.052-1.14-0.156s-0.658-0.264-0.918-0.48c-0.26-0.216-0.464-0.486-0.612-0.81
			c-0.148-0.324-0.222-0.702-0.222-1.134c0-0.504,0.128-0.942,0.384-1.314c0.256-0.372,0.624-0.642,1.104-0.81
			c-0.36-0.144-0.648-0.378-0.864-0.702c-0.216-0.324-0.324-0.678-0.324-1.062C53.184,179.025,53.251,178.715,53.388,178.447z
			 M54.474,184.519c0.34,0.292,0.774,0.438,1.302,0.438c0.256,0,0.49-0.042,0.702-0.126c0.211-0.084,0.396-0.2,0.552-0.348
			c0.156-0.148,0.276-0.322,0.36-0.522c0.084-0.2,0.126-0.42,0.126-0.66c0-0.232-0.046-0.446-0.138-0.642
			c-0.092-0.196-0.218-0.366-0.378-0.51c-0.16-0.144-0.346-0.258-0.558-0.342c-0.212-0.084-0.438-0.126-0.678-0.126
			c-0.248,0-0.482,0.038-0.702,0.114c-0.22,0.076-0.412,0.186-0.576,0.33s-0.292,0.316-0.384,0.516
			c-0.092,0.2-0.138,0.424-0.138,0.672C53.964,183.825,54.134,184.227,54.474,184.519z M54.384,180.019
			c0.08,0.172,0.188,0.314,0.324,0.426c0.136,0.112,0.296,0.196,0.48,0.252c0.184,0.056,0.38,0.084,0.588,0.084
			c0.408,0,0.744-0.12,1.008-0.36c0.264-0.24,0.396-0.576,0.396-1.008c0-0.432-0.134-0.758-0.402-0.978
			c-0.268-0.22-0.61-0.33-1.026-0.33c-0.2,0-0.392,0.028-0.576,0.084s-0.342,0.14-0.474,0.252c-0.132,0.112-0.238,0.248-0.318,0.408
			c-0.08,0.16-0.12,0.348-0.12,0.564C54.264,179.645,54.304,179.847,54.384,180.019z"/>
	</g>
	<g display="inline">
		<path d="M118.516,184.621c0.296,0.224,0.648,0.336,1.056,0.336c0.624,0,1.092-0.27,1.404-0.81s0.484-1.366,0.516-2.478
			l-0.024-0.024c-0.192,0.36-0.464,0.646-0.816,0.858s-0.736,0.318-1.152,0.318c-0.432,0-0.816-0.07-1.152-0.21
			c-0.336-0.14-0.618-0.334-0.846-0.582c-0.228-0.248-0.4-0.548-0.516-0.9c-0.116-0.352-0.174-0.736-0.174-1.152
			c0-0.408,0.068-0.782,0.204-1.122c0.136-0.34,0.328-0.632,0.576-0.876s0.544-0.434,0.888-0.57c0.344-0.136,0.72-0.204,1.128-0.204
			c0.4,0,0.776,0.062,1.128,0.186s0.66,0.338,0.924,0.642c0.264,0.304,0.474,0.718,0.63,1.242c0.156,0.524,0.234,1.19,0.234,1.998
			c0,1.472-0.234,2.602-0.702,3.39c-0.468,0.788-1.218,1.182-2.25,1.182c-0.712,0-1.304-0.18-1.776-0.54
			c-0.472-0.36-0.74-0.908-0.804-1.644h1.02C118.052,184.077,118.22,184.397,118.516,184.621z M121.198,179.305
			c-0.076-0.232-0.188-0.438-0.336-0.618c-0.148-0.18-0.33-0.322-0.546-0.426c-0.216-0.104-0.468-0.156-0.756-0.156
			c-0.304,0-0.562,0.056-0.774,0.168c-0.212,0.112-0.384,0.262-0.516,0.45c-0.132,0.188-0.228,0.402-0.288,0.642
			c-0.06,0.24-0.09,0.492-0.09,0.756c0,0.232,0.042,0.456,0.126,0.672c0.084,0.216,0.2,0.408,0.348,0.576
			c0.148,0.168,0.324,0.302,0.528,0.402c0.204,0.1,0.43,0.15,0.678,0.15c0.264,0,0.504-0.05,0.72-0.15
			c0.216-0.1,0.4-0.236,0.552-0.408c0.152-0.172,0.268-0.372,0.348-0.6c0.08-0.228,0.12-0.466,0.12-0.714
			C121.312,179.785,121.274,179.537,121.198,179.305z"/>
	</g>
	<g display="inline">
		<path d="M183.656,185.713v-6.096h-2.208v-0.816c0.288,0,0.568-0.022,0.84-0.066s0.518-0.126,0.738-0.246
			c0.22-0.12,0.406-0.284,0.558-0.492c0.152-0.208,0.256-0.472,0.312-0.792h0.78v8.508H183.656z"/>
		<path d="M187.604,180.565c0.016-0.336,0.056-0.664,0.12-0.984s0.156-0.624,0.276-0.912c0.12-0.288,0.284-0.54,0.492-0.756
			c0.208-0.216,0.47-0.388,0.786-0.516c0.316-0.128,0.694-0.192,1.134-0.192s0.818,0.064,1.134,0.192
			c0.316,0.128,0.578,0.3,0.786,0.516c0.208,0.216,0.372,0.468,0.492,0.756s0.212,0.592,0.276,0.912s0.104,0.648,0.12,0.984
			s0.024,0.66,0.024,0.972s-0.008,0.636-0.024,0.972s-0.056,0.664-0.12,0.984c-0.064,0.32-0.156,0.623-0.276,0.906
			c-0.12,0.284-0.284,0.534-0.492,0.75s-0.468,0.386-0.78,0.51c-0.312,0.124-0.692,0.186-1.14,0.186
			c-0.44,0-0.818-0.062-1.134-0.186c-0.316-0.124-0.578-0.294-0.786-0.51s-0.372-0.466-0.492-0.75
			c-0.12-0.284-0.212-0.586-0.276-0.906c-0.064-0.32-0.104-0.648-0.12-0.984s-0.024-0.66-0.024-0.972
			S187.587,180.901,187.604,180.565z M188.689,182.599c0.02,0.396,0.084,0.768,0.192,1.116s0.282,0.642,0.522,0.882
			c0.24,0.24,0.576,0.36,1.008,0.36s0.768-0.12,1.008-0.36c0.24-0.24,0.414-0.534,0.522-0.882c0.108-0.348,0.172-0.72,0.192-1.116
			c0.02-0.396,0.03-0.754,0.03-1.074c0-0.208-0.002-0.438-0.006-0.69c-0.004-0.252-0.024-0.504-0.06-0.756
			c-0.036-0.252-0.088-0.498-0.156-0.738c-0.068-0.24-0.168-0.45-0.3-0.63c-0.132-0.18-0.298-0.326-0.498-0.438
			c-0.2-0.112-0.444-0.168-0.732-0.168s-0.532,0.056-0.732,0.168c-0.2,0.112-0.366,0.258-0.498,0.438s-0.232,0.39-0.3,0.63
			c-0.068,0.24-0.12,0.486-0.156,0.738c-0.036,0.252-0.056,0.504-0.06,0.756s-0.006,0.482-0.006,0.69
			C188.66,181.845,188.669,182.203,188.689,182.599z"/>
	</g>
	<g display="inline">
		<path d="M247.656,185.713v-6.096h-2.208v-0.816c0.288,0,0.567-0.022,0.84-0.066s0.519-0.126,0.738-0.246s0.405-0.284,0.558-0.492
			s0.256-0.472,0.312-0.792h0.779v8.508H247.656z"/>
		<path d="M254.328,185.713v-6.096h-2.208v-0.816c0.288,0,0.567-0.022,0.84-0.066s0.519-0.126,0.738-0.246s0.405-0.284,0.558-0.492
			s0.256-0.472,0.312-0.792h0.779v8.508H254.328z"/>
	</g>
	<g display="inline">
		<path d="M55.656,249.713v-6.096h-2.208v-0.816c0.288,0,0.568-0.022,0.84-0.066s0.518-0.126,0.738-0.246
			c0.22-0.12,0.406-0.284,0.558-0.492c0.152-0.208,0.256-0.472,0.312-0.792h0.78v8.508H55.656z"/>
		<path d="M59.736,243.017c0.112-0.368,0.286-0.686,0.522-0.954c0.236-0.268,0.53-0.478,0.882-0.63s0.752-0.228,1.2-0.228
			c0.368,0,0.714,0.054,1.038,0.162c0.324,0.108,0.606,0.264,0.846,0.468c0.24,0.204,0.43,0.458,0.57,0.762
			c0.14,0.304,0.21,0.656,0.21,1.056c0,0.376-0.058,0.708-0.174,0.996s-0.27,0.546-0.462,0.774s-0.412,0.434-0.66,0.618
			s-0.504,0.36-0.768,0.528c-0.264,0.16-0.528,0.318-0.792,0.474c-0.264,0.156-0.506,0.322-0.726,0.498
			c-0.22,0.176-0.408,0.366-0.564,0.57c-0.156,0.204-0.258,0.438-0.306,0.702h4.368v0.9h-5.556c0.04-0.504,0.13-0.934,0.27-1.29
			c0.14-0.356,0.318-0.666,0.534-0.93c0.216-0.264,0.46-0.496,0.732-0.696c0.271-0.2,0.556-0.388,0.852-0.564
			c0.36-0.224,0.676-0.43,0.948-0.618c0.272-0.188,0.498-0.378,0.678-0.57c0.18-0.192,0.316-0.4,0.408-0.624s0.138-0.484,0.138-0.78
			c0-0.232-0.044-0.442-0.132-0.63c-0.088-0.188-0.206-0.35-0.354-0.486c-0.148-0.136-0.322-0.24-0.522-0.312
			c-0.2-0.072-0.412-0.108-0.636-0.108c-0.296,0-0.55,0.062-0.762,0.186s-0.386,0.286-0.522,0.486
			c-0.136,0.2-0.234,0.426-0.294,0.678s-0.086,0.506-0.078,0.762h-1.02C59.58,243.785,59.624,243.385,59.736,243.017z"/>
	</g>
	<g display="inline">
		<path fill="#0000FF" d="M31.8,45.852c0.012-0.252,0.042-0.498,0.09-0.738c0.048-0.24,0.117-0.468,0.207-0.684
			c0.09-0.216,0.213-0.405,0.369-0.567c0.156-0.162,0.353-0.291,0.589-0.387c0.237-0.096,0.521-0.144,0.851-0.144
			s0.613,0.048,0.851,0.144c0.237,0.096,0.434,0.225,0.589,0.387c0.156,0.162,0.279,0.351,0.369,0.567
			c0.09,0.216,0.159,0.444,0.207,0.684c0.048,0.24,0.078,0.486,0.09,0.738s0.018,0.495,0.018,0.729c0,0.234-0.006,0.477-0.018,0.729
			s-0.042,0.498-0.09,0.738c-0.048,0.24-0.117,0.467-0.207,0.68s-0.213,0.4-0.369,0.562c-0.156,0.162-0.351,0.29-0.585,0.382
			s-0.519,0.14-0.855,0.14c-0.33,0-0.613-0.047-0.851-0.14c-0.237-0.093-0.434-0.221-0.589-0.382
			c-0.156-0.162-0.279-0.35-0.369-0.562c-0.09-0.213-0.159-0.439-0.207-0.68c-0.048-0.24-0.078-0.486-0.09-0.738
			c-0.012-0.252-0.018-0.495-0.018-0.729C31.782,46.347,31.788,46.104,31.8,45.852z M32.614,47.377
			c0.015,0.297,0.063,0.576,0.144,0.837c0.081,0.261,0.211,0.481,0.392,0.662c0.18,0.18,0.432,0.27,0.756,0.27
			c0.324,0,0.576-0.09,0.756-0.27c0.18-0.18,0.311-0.4,0.392-0.662c0.081-0.261,0.129-0.54,0.144-0.837s0.022-0.565,0.022-0.806
			c0-0.156-0.001-0.329-0.004-0.518s-0.018-0.378-0.045-0.567c-0.027-0.189-0.066-0.374-0.117-0.553
			c-0.051-0.18-0.126-0.338-0.225-0.473c-0.099-0.135-0.224-0.245-0.374-0.329s-0.333-0.126-0.549-0.126s-0.399,0.042-0.549,0.126
			c-0.15,0.084-0.274,0.193-0.374,0.329c-0.099,0.135-0.174,0.292-0.225,0.473c-0.051,0.18-0.09,0.364-0.117,0.553
			c-0.027,0.189-0.042,0.378-0.045,0.567s-0.004,0.362-0.004,0.518C32.592,46.812,32.599,47.081,32.614,47.377z"/>
	</g>
	<g display="inline">
		<path fill="#0000FF" d="M33.843,113.713v-4.572h-1.656v-0.612c0.216,0,0.426-0.017,0.63-0.049
			c0.204-0.033,0.388-0.095,0.553-0.185s0.305-0.213,0.418-0.369c0.114-0.156,0.192-0.354,0.234-0.594h0.585v6.381H33.843z"/>
	</g>
	<g display="inline">
		<path fill="#0000FF" d="M31.899,172.691c0.084-0.276,0.214-0.515,0.392-0.715c0.177-0.201,0.397-0.359,0.661-0.473
			s0.564-0.171,0.9-0.171c0.276,0,0.535,0.041,0.778,0.122c0.243,0.081,0.455,0.198,0.634,0.351c0.18,0.153,0.323,0.344,0.428,0.572
			s0.157,0.492,0.157,0.792c0,0.282-0.043,0.531-0.13,0.747c-0.087,0.216-0.203,0.409-0.346,0.581
			c-0.144,0.171-0.31,0.325-0.495,0.463c-0.186,0.138-0.378,0.27-0.576,0.396c-0.198,0.12-0.396,0.238-0.594,0.355
			c-0.198,0.117-0.38,0.242-0.545,0.374s-0.306,0.274-0.423,0.427c-0.117,0.153-0.193,0.329-0.229,0.527h3.276v0.675H31.62
			c0.03-0.378,0.098-0.701,0.203-0.967c0.105-0.267,0.239-0.5,0.4-0.698c0.162-0.198,0.345-0.372,0.549-0.522
			c0.204-0.15,0.417-0.291,0.639-0.423c0.27-0.168,0.507-0.323,0.711-0.464c0.204-0.141,0.374-0.283,0.509-0.427
			c0.135-0.144,0.237-0.3,0.306-0.468c0.069-0.167,0.104-0.363,0.104-0.585c0-0.174-0.033-0.331-0.099-0.472
			c-0.066-0.141-0.155-0.263-0.266-0.365s-0.242-0.18-0.392-0.234s-0.309-0.081-0.477-0.081c-0.222,0-0.413,0.046-0.571,0.14
			c-0.159,0.093-0.29,0.214-0.392,0.364c-0.102,0.15-0.175,0.32-0.22,0.509c-0.045,0.189-0.065,0.379-0.059,0.571H31.8
			C31.782,173.267,31.815,172.967,31.899,172.691z"/>
	</g>
	<g display="inline">
		<path fill="#0000FF" d="M33.447,238.077c0.03,0,0.06,0,0.09,0h0.162c0.162,0,0.316-0.022,0.463-0.067s0.276-0.111,0.387-0.198
			c0.111-0.087,0.199-0.197,0.266-0.329c0.066-0.132,0.099-0.282,0.099-0.45c0-0.342-0.108-0.598-0.324-0.77
			c-0.216-0.171-0.486-0.256-0.81-0.256c-0.204,0-0.382,0.038-0.536,0.113c-0.153,0.075-0.279,0.175-0.378,0.301
			s-0.172,0.273-0.22,0.441c-0.048,0.168-0.072,0.345-0.072,0.531h-0.765c0.012-0.306,0.062-0.585,0.149-0.837
			c0.087-0.252,0.211-0.468,0.373-0.648c0.162-0.18,0.365-0.321,0.608-0.423c0.243-0.102,0.523-0.153,0.841-0.153
			c0.276,0,0.532,0.035,0.77,0.104c0.237,0.069,0.442,0.172,0.617,0.311c0.174,0.138,0.31,0.315,0.409,0.531
			s0.148,0.471,0.148,0.765c0,0.288-0.084,0.543-0.252,0.765c-0.168,0.222-0.378,0.39-0.63,0.504v0.018
			c0.39,0.084,0.68,0.267,0.869,0.549s0.283,0.615,0.283,0.999c0,0.318-0.058,0.599-0.175,0.841
			c-0.117,0.243-0.274,0.446-0.473,0.607c-0.198,0.162-0.431,0.284-0.697,0.365c-0.267,0.081-0.551,0.122-0.851,0.122
			c-0.324,0-0.618-0.045-0.882-0.135c-0.264-0.09-0.489-0.223-0.675-0.4c-0.186-0.177-0.329-0.395-0.427-0.652
			c-0.099-0.258-0.146-0.552-0.14-0.882h0.765c0.012,0.414,0.132,0.751,0.36,1.013s0.561,0.392,0.999,0.392
			c0.186,0,0.363-0.028,0.531-0.085s0.315-0.138,0.441-0.243s0.226-0.234,0.301-0.387c0.075-0.153,0.112-0.325,0.112-0.517
			c0-0.198-0.036-0.374-0.108-0.527c-0.072-0.153-0.168-0.282-0.288-0.387s-0.262-0.183-0.427-0.234
			c-0.165-0.051-0.344-0.077-0.536-0.077c-0.162,0-0.315,0.009-0.459,0.027v-0.648C33.396,238.074,33.423,238.077,33.447,238.077z"
			/>
	</g>
	<g display="inline">
		<path d="M119.656,249.713v-6.096h-2.208v-0.816c0.288,0,0.568-0.022,0.84-0.066s0.518-0.126,0.738-0.246
			c0.22-0.12,0.406-0.284,0.558-0.492c0.152-0.208,0.256-0.472,0.312-0.792h0.78v8.508H119.656z"/>
		<path d="M125.8,244.865c0.04,0,0.08,0,0.12,0h0.216c0.216,0,0.422-0.03,0.618-0.09c0.196-0.06,0.368-0.148,0.516-0.264
			c0.148-0.116,0.266-0.262,0.354-0.438c0.088-0.176,0.132-0.376,0.132-0.6c0-0.456-0.144-0.798-0.432-1.026
			s-0.648-0.342-1.08-0.342c-0.272,0-0.51,0.05-0.714,0.15s-0.372,0.234-0.504,0.402c-0.132,0.168-0.23,0.364-0.294,0.588
			c-0.064,0.224-0.096,0.46-0.096,0.708h-1.02c0.016-0.408,0.082-0.78,0.198-1.116c0.116-0.336,0.282-0.624,0.498-0.864
			c0.216-0.24,0.486-0.428,0.81-0.564c0.324-0.136,0.698-0.204,1.122-0.204c0.368,0,0.71,0.046,1.026,0.138
			c0.316,0.092,0.59,0.23,0.822,0.414c0.232,0.184,0.414,0.42,0.546,0.708s0.198,0.628,0.198,1.02c0,0.384-0.112,0.724-0.336,1.02
			s-0.504,0.52-0.84,0.672v0.024c0.52,0.112,0.906,0.356,1.158,0.732s0.378,0.82,0.378,1.332c0,0.424-0.078,0.798-0.234,1.122
			c-0.156,0.324-0.366,0.594-0.63,0.81c-0.264,0.216-0.574,0.378-0.93,0.486c-0.356,0.108-0.734,0.162-1.134,0.162
			c-0.432,0-0.824-0.06-1.176-0.18c-0.352-0.12-0.652-0.298-0.9-0.534c-0.248-0.236-0.438-0.526-0.57-0.87
			c-0.132-0.344-0.194-0.736-0.186-1.176h1.02c0.016,0.552,0.176,1.002,0.48,1.35c0.304,0.348,0.748,0.522,1.332,0.522
			c0.248,0,0.484-0.038,0.708-0.114c0.224-0.076,0.42-0.184,0.588-0.324s0.302-0.312,0.402-0.516c0.1-0.204,0.15-0.434,0.15-0.69
			c0-0.264-0.048-0.498-0.144-0.702s-0.224-0.376-0.384-0.516c-0.16-0.14-0.35-0.244-0.57-0.312
			c-0.22-0.068-0.458-0.102-0.714-0.102c-0.216,0-0.42,0.012-0.612,0.036v-0.864C125.731,244.861,125.768,244.865,125.8,244.865z"/>
	</g>
	<g display="inline">
		<path d="M183.656,249.713v-6.096h-2.208v-0.816c0.288,0,0.568-0.022,0.84-0.066s0.518-0.126,0.738-0.246
			c0.22-0.12,0.406-0.284,0.558-0.492c0.152-0.208,0.256-0.472,0.312-0.792h0.78v8.508H183.656z"/>
		<path d="M193.256,246.821v0.9h-1.152v1.992h-0.96v-1.992h-3.732v-0.984l3.876-5.532h0.816v5.616H193.256z M191.144,242.657h-0.024
			l-2.832,4.164h2.856V242.657z"/>
	</g>
	<g display="inline">
		<path d="M247.656,249.713v-6.096h-2.208v-0.816c0.288,0,0.567-0.022,0.84-0.066s0.519-0.126,0.738-0.246s0.405-0.284,0.558-0.492
			s0.256-0.472,0.312-0.792h0.779v8.508H247.656z"/>
		<path d="M253.284,242.249l-0.456,2.448l0.023,0.024c0.185-0.208,0.422-0.362,0.715-0.462c0.291-0.1,0.582-0.15,0.869-0.15
			c0.377,0,0.732,0.06,1.068,0.18c0.336,0.12,0.629,0.302,0.877,0.546c0.247,0.244,0.443,0.548,0.588,0.912
			c0.144,0.364,0.215,0.79,0.215,1.278c0,0.36-0.062,0.71-0.186,1.05c-0.124,0.34-0.311,0.642-0.559,0.906s-0.557,0.474-0.93,0.63
			c-0.371,0.156-0.806,0.234-1.302,0.234c-0.368,0-0.714-0.054-1.038-0.162c-0.324-0.108-0.609-0.264-0.857-0.468
			s-0.444-0.458-0.588-0.762c-0.145-0.304-0.221-0.648-0.229-1.032h1.02c0.017,0.216,0.07,0.418,0.162,0.606
			s0.217,0.352,0.373,0.492c0.155,0.14,0.34,0.248,0.551,0.324c0.213,0.076,0.446,0.114,0.703,0.114
			c0.239,0,0.469-0.042,0.689-0.126c0.22-0.084,0.412-0.21,0.576-0.378c0.164-0.168,0.294-0.378,0.39-0.63
			c0.097-0.252,0.144-0.546,0.144-0.882c0-0.28-0.045-0.538-0.137-0.774c-0.093-0.236-0.223-0.44-0.391-0.612
			c-0.168-0.172-0.37-0.306-0.605-0.402c-0.236-0.096-0.498-0.144-0.787-0.144c-0.336,0-0.634,0.074-0.894,0.222
			s-0.49,0.342-0.69,0.582l-0.875-0.048l0.791-4.416h4.201v0.9H253.284z"/>
	</g>
</g>
<g>
	<line fill="none" stroke="#000000" stroke-miterlimit="10" x1="49.404" y1="46.713" x2="49.404" y2="238.713"/>
	<line fill="none" stroke="#000000" stroke-miterlimit="10" x1="113.404" y1="46.713" x2="113.404" y2="238.713"/>
	<line fill="none" stroke="#000000" stroke-miterlimit="10" x1="177.404" y1="46.713" x2="177.404" y2="238.713"/>
	<line fill="none" stroke="#000000" stroke-miterlimit="10" x1="241.404" y1="46.713" x2="241.404" y2="238.713"/>
	<line fill="none" stroke="#000000" stroke-miterlimit="10" x1="49.404" y1="46.713" x2="241.404" y2="46.713"/>
	<line fill="none" stroke="#000000" stroke-miterlimit="10" x1="49.404" y1="110.713" x2="241.404" y2="110.713"/>
	<line fill="none" stroke="#000000" stroke-miterlimit="10" x1="49.404" y1="174.713" x2="241.404" y2="174.713"/>
	<line fill="none" stroke="#000000" stroke-miterlimit="10" x1="49.404" y1="238.713" x2="241.404" y2="238.713"/>
	<line fill="none" stroke="#000000" stroke-miterlimit="10" x1="49.404" y1="110.713" x2="113.404" y2="46.713"/>
	<path fill="none" stroke="#000000" stroke-miterlimit="10" d="M177.404,46.713"/>
	<path fill="none" stroke="#000000" stroke-miterlimit="10" d="M113.404,110.713"/>
	<line fill="none" stroke="#000000" stroke-miterlimit="10" x1="49.404" y1="174.713" x2="177.404" y2="46.713"/>
	<line fill="none" stroke="#000000" stroke-miterlimit="10" x1="49.404" y1="238.713" x2="241.404" y2="46.713"/>
	<line fill="none" stroke="#000000" stroke-miterlimit="10" x1="113.404" y1="238.713" x2="241.404" y2="110.713"/>
	<line fill="none" stroke="#000000" stroke-miterlimit="10" x1="177.404" y1="238.713" x2="241.404" y2="174.713"/>
</g>
<g display="none">
	<g display="inline">
		<g>
			<path fill="#BFBFBF" d="M65.844,65.423c0.013-0.28,0.046-0.553,0.1-0.82c0.053-0.267,0.13-0.52,0.23-0.76
				c0.1-0.24,0.236-0.45,0.41-0.63c0.173-0.18,0.392-0.323,0.655-0.43c0.263-0.106,0.578-0.16,0.945-0.16s0.682,0.053,0.945,0.16
				c0.263,0.107,0.481,0.25,0.655,0.43s0.31,0.39,0.41,0.63c0.1,0.24,0.177,0.494,0.23,0.76s0.086,0.54,0.1,0.82
				c0.013,0.28,0.02,0.55,0.02,0.81c0,0.26-0.007,0.53-0.02,0.81c-0.014,0.28-0.047,0.553-0.1,0.82s-0.13,0.519-0.23,0.755
				c-0.1,0.237-0.237,0.445-0.41,0.625c-0.173,0.18-0.39,0.322-0.65,0.425c-0.26,0.103-0.577,0.155-0.95,0.155
				c-0.367,0-0.682-0.052-0.945-0.155c-0.263-0.104-0.481-0.245-0.655-0.425c-0.174-0.18-0.31-0.388-0.41-0.625
				c-0.1-0.236-0.177-0.488-0.23-0.755c-0.054-0.267-0.087-0.54-0.1-0.82c-0.013-0.28-0.02-0.55-0.02-0.81
				C65.824,65.973,65.831,65.703,65.844,65.423z M66.749,67.118c0.016,0.33,0.07,0.64,0.16,0.93c0.09,0.29,0.235,0.535,0.435,0.735
				c0.2,0.2,0.48,0.3,0.84,0.3c0.36,0,0.64-0.1,0.84-0.3c0.2-0.2,0.345-0.445,0.435-0.735c0.09-0.29,0.143-0.6,0.16-0.93
				c0.017-0.33,0.025-0.628,0.025-0.895c0-0.173-0.002-0.365-0.005-0.575s-0.02-0.42-0.05-0.63c-0.03-0.21-0.074-0.415-0.13-0.615
				c-0.057-0.2-0.14-0.375-0.25-0.525c-0.11-0.15-0.249-0.271-0.415-0.365c-0.167-0.093-0.37-0.14-0.61-0.14
				c-0.24,0-0.443,0.046-0.61,0.14c-0.167,0.094-0.305,0.215-0.415,0.365c-0.11,0.15-0.193,0.325-0.25,0.525
				c-0.057,0.2-0.1,0.405-0.13,0.615s-0.047,0.42-0.05,0.63c-0.003,0.21-0.005,0.402-0.005,0.575
				C66.724,66.49,66.732,66.788,66.749,67.118z"/>
		</g>
		<g>
			<path fill="#BFBFBF" d="M129.954,64.133c0.093-0.307,0.238-0.571,0.435-0.795c0.197-0.223,0.442-0.398,0.735-0.525
				c0.293-0.126,0.626-0.19,1-0.19c0.306,0,0.595,0.045,0.865,0.135s0.505,0.22,0.705,0.39s0.358,0.382,0.475,0.635
				c0.116,0.253,0.175,0.547,0.175,0.88c0,0.313-0.048,0.59-0.145,0.83c-0.097,0.24-0.225,0.455-0.385,0.645
				c-0.16,0.19-0.344,0.362-0.55,0.515s-0.42,0.3-0.64,0.44c-0.22,0.134-0.44,0.265-0.66,0.395c-0.22,0.13-0.422,0.269-0.605,0.415
				c-0.184,0.147-0.34,0.305-0.47,0.475c-0.13,0.17-0.215,0.365-0.255,0.585h3.64v0.75h-4.63c0.033-0.42,0.108-0.778,0.225-1.075
				c0.117-0.296,0.265-0.555,0.445-0.775c0.18-0.22,0.383-0.413,0.61-0.58c0.227-0.167,0.463-0.323,0.71-0.47
				c0.3-0.187,0.563-0.358,0.79-0.515s0.415-0.315,0.565-0.475c0.15-0.16,0.263-0.333,0.34-0.52c0.077-0.187,0.115-0.403,0.115-0.65
				c0-0.193-0.037-0.368-0.11-0.525c-0.074-0.157-0.172-0.292-0.295-0.405c-0.123-0.113-0.268-0.2-0.435-0.26
				c-0.167-0.06-0.344-0.09-0.53-0.09c-0.247,0-0.458,0.052-0.635,0.155c-0.177,0.104-0.322,0.238-0.435,0.405
				c-0.114,0.167-0.195,0.355-0.245,0.565s-0.072,0.421-0.065,0.635h-0.85C129.824,64.773,129.86,64.439,129.954,64.133z"/>
		</g>
		<g>
			<path fill="#BFBFBF" d="M198.554,67.303v0.75h-0.96v1.66h-0.8v-1.66h-3.11v-0.82l3.23-4.61h0.68v4.68H198.554z M196.794,63.833
				h-0.02l-2.36,3.47h2.38V63.833z"/>
		</g>
		<g>
			<path fill="#BFBFBF" d="M69.174,127.663c-0.207-0.193-0.48-0.29-0.82-0.29c-0.36,0-0.65,0.088-0.87,0.265
				c-0.22,0.177-0.392,0.4-0.515,0.67s-0.208,0.562-0.255,0.875c-0.047,0.313-0.074,0.606-0.08,0.88l0.02,0.02
				c0.2-0.327,0.448-0.563,0.745-0.71c0.296-0.146,0.638-0.22,1.025-0.22c0.34,0,0.645,0.059,0.915,0.175s0.497,0.278,0.68,0.485
				c0.183,0.207,0.325,0.45,0.425,0.73c0.1,0.28,0.15,0.583,0.15,0.91c0,0.26-0.04,0.53-0.12,0.81
				c-0.08,0.28-0.211,0.535-0.395,0.765c-0.183,0.23-0.427,0.42-0.73,0.57c-0.303,0.15-0.678,0.225-1.125,0.225
				c-0.526,0-0.95-0.106-1.27-0.32c-0.32-0.213-0.566-0.487-0.74-0.82c-0.173-0.333-0.289-0.7-0.345-1.1s-0.085-0.787-0.085-1.16
				c0-0.486,0.042-0.958,0.125-1.415c0.083-0.457,0.225-0.861,0.425-1.215c0.2-0.354,0.466-0.637,0.8-0.85s0.753-0.32,1.26-0.32
				c0.586,0,1.053,0.155,1.4,0.465c0.346,0.31,0.546,0.758,0.6,1.345h-0.85C69.504,128.113,69.38,127.856,69.174,127.663z
				 M67.634,130.028c-0.18,0.083-0.333,0.197-0.46,0.34c-0.127,0.144-0.222,0.313-0.285,0.51s-0.095,0.405-0.095,0.625
				c0,0.22,0.033,0.427,0.1,0.62c0.066,0.193,0.161,0.36,0.285,0.5c0.124,0.14,0.277,0.251,0.46,0.335
				c0.184,0.083,0.392,0.125,0.625,0.125s0.438-0.042,0.615-0.125c0.176-0.083,0.325-0.198,0.445-0.345
				c0.12-0.146,0.211-0.315,0.275-0.505s0.095-0.388,0.095-0.595c0-0.22-0.028-0.428-0.085-0.625
				c-0.057-0.196-0.145-0.366-0.265-0.51s-0.27-0.258-0.45-0.345c-0.18-0.086-0.39-0.13-0.63-0.13
				C68.024,129.903,67.814,129.945,67.634,130.028z"/>
		</g>
		<g>
			<path fill="#BFBFBF" d="M130.224,127.658c0.113-0.223,0.267-0.412,0.46-0.565s0.415-0.27,0.665-0.35
				c0.25-0.08,0.512-0.12,0.785-0.12c0.387,0,0.717,0.052,0.99,0.155c0.273,0.104,0.495,0.24,0.665,0.41
				c0.17,0.17,0.295,0.363,0.375,0.58c0.08,0.216,0.12,0.438,0.12,0.665c0,0.32-0.088,0.611-0.265,0.875
				c-0.177,0.263-0.415,0.461-0.715,0.595c0.427,0.133,0.743,0.352,0.95,0.655c0.207,0.303,0.31,0.675,0.31,1.115
				c0,0.347-0.062,0.653-0.185,0.92c-0.124,0.267-0.29,0.492-0.5,0.675c-0.21,0.183-0.458,0.322-0.745,0.415s-0.593,0.14-0.92,0.14
				c-0.34,0-0.657-0.043-0.95-0.13s-0.548-0.22-0.765-0.4c-0.217-0.18-0.387-0.405-0.51-0.675s-0.185-0.585-0.185-0.945
				c0-0.42,0.106-0.785,0.32-1.095c0.213-0.31,0.52-0.535,0.92-0.675c-0.3-0.12-0.54-0.315-0.72-0.585
				c-0.18-0.27-0.27-0.565-0.27-0.885C130.054,128.14,130.11,127.881,130.224,127.658z M131.129,132.718
				c0.283,0.244,0.645,0.365,1.085,0.365c0.213,0,0.408-0.035,0.585-0.105c0.177-0.07,0.33-0.167,0.46-0.29s0.23-0.269,0.3-0.435
				c0.07-0.167,0.105-0.35,0.105-0.55c0-0.193-0.038-0.372-0.115-0.535s-0.182-0.305-0.315-0.425
				c-0.133-0.12-0.289-0.215-0.465-0.285c-0.177-0.07-0.365-0.105-0.565-0.105c-0.207,0-0.401,0.032-0.585,0.095
				c-0.183,0.063-0.343,0.155-0.48,0.275c-0.137,0.12-0.243,0.264-0.32,0.43c-0.077,0.167-0.115,0.354-0.115,0.56
				C130.704,132.14,130.845,132.475,131.129,132.718z M131.054,128.968c0.067,0.144,0.157,0.262,0.27,0.355
				c0.113,0.094,0.247,0.164,0.4,0.21c0.153,0.047,0.317,0.07,0.49,0.07c0.34,0,0.62-0.1,0.84-0.3c0.22-0.2,0.33-0.48,0.33-0.84
				s-0.112-0.631-0.335-0.815c-0.224-0.183-0.508-0.275-0.855-0.275c-0.167,0-0.327,0.023-0.48,0.07
				c-0.153,0.047-0.285,0.117-0.395,0.21s-0.198,0.207-0.265,0.34c-0.066,0.134-0.1,0.29-0.1,0.47
				C130.954,128.656,130.987,128.825,131.054,128.968z"/>
		</g>
		<g>
			<path fill="#BFBFBF" d="M196.114,133.713v-5.08h-1.84v-0.68c0.24,0,0.473-0.019,0.7-0.055s0.432-0.105,0.615-0.205
				c0.183-0.1,0.338-0.236,0.465-0.41c0.126-0.173,0.213-0.393,0.26-0.66h0.65v7.09H196.114z"/>
			<path fill="#BFBFBF" d="M199.404,129.423c0.013-0.28,0.046-0.553,0.1-0.82c0.053-0.267,0.13-0.52,0.23-0.76
				c0.1-0.24,0.236-0.45,0.41-0.63c0.173-0.18,0.392-0.323,0.655-0.43c0.263-0.106,0.578-0.16,0.945-0.16s0.682,0.053,0.945,0.16
				c0.263,0.107,0.481,0.25,0.655,0.43s0.31,0.39,0.41,0.63c0.1,0.24,0.177,0.494,0.23,0.76s0.086,0.54,0.1,0.82
				c0.013,0.28,0.02,0.55,0.02,0.81c0,0.26-0.007,0.53-0.02,0.81c-0.014,0.28-0.047,0.553-0.1,0.82s-0.13,0.519-0.23,0.755
				c-0.1,0.237-0.237,0.445-0.41,0.625c-0.173,0.18-0.39,0.322-0.65,0.425c-0.26,0.103-0.577,0.155-0.95,0.155
				c-0.367,0-0.682-0.052-0.945-0.155c-0.263-0.104-0.481-0.245-0.655-0.425c-0.174-0.18-0.31-0.388-0.41-0.625
				c-0.1-0.236-0.177-0.488-0.23-0.755c-0.054-0.267-0.087-0.54-0.1-0.82c-0.013-0.28-0.02-0.55-0.02-0.81
				C199.384,129.973,199.391,129.703,199.404,129.423z M200.309,131.118c0.016,0.33,0.07,0.64,0.16,0.93
				c0.09,0.29,0.235,0.535,0.435,0.735c0.2,0.2,0.48,0.3,0.84,0.3c0.36,0,0.64-0.1,0.84-0.3c0.2-0.2,0.345-0.445,0.435-0.735
				c0.09-0.29,0.143-0.6,0.16-0.93c0.017-0.33,0.025-0.628,0.025-0.895c0-0.173-0.002-0.365-0.005-0.575s-0.02-0.42-0.05-0.63
				c-0.03-0.21-0.074-0.415-0.13-0.615c-0.057-0.2-0.14-0.375-0.25-0.525c-0.11-0.15-0.249-0.271-0.415-0.365
				c-0.167-0.093-0.37-0.14-0.61-0.14c-0.24,0-0.443,0.046-0.61,0.14c-0.167,0.094-0.305,0.215-0.415,0.365
				c-0.11,0.15-0.193,0.325-0.25,0.525c-0.057,0.2-0.1,0.405-0.13,0.615s-0.047,0.42-0.05,0.63c-0.003,0.21-0.005,0.402-0.005,0.575
				C200.284,130.49,200.292,130.788,200.309,131.118z"/>
		</g>
		<g>
			<path fill="#BFBFBF" d="M68.114,197.713v-5.08h-1.84v-0.68c0.24,0,0.473-0.019,0.7-0.055s0.432-0.105,0.615-0.205
				c0.183-0.1,0.338-0.236,0.465-0.41c0.126-0.173,0.213-0.393,0.26-0.66h0.65v7.09H68.114z"/>
			<path fill="#BFBFBF" d="M71.514,192.133c0.093-0.307,0.238-0.571,0.435-0.795c0.197-0.223,0.442-0.398,0.735-0.525
				c0.293-0.126,0.626-0.19,1-0.19c0.306,0,0.595,0.045,0.865,0.135s0.505,0.22,0.705,0.39s0.358,0.382,0.475,0.635
				c0.116,0.253,0.175,0.547,0.175,0.88c0,0.313-0.048,0.59-0.145,0.83c-0.097,0.24-0.225,0.455-0.385,0.645
				c-0.16,0.19-0.344,0.362-0.55,0.515s-0.42,0.3-0.64,0.44c-0.22,0.134-0.44,0.265-0.66,0.395c-0.22,0.13-0.422,0.269-0.605,0.415
				c-0.184,0.147-0.34,0.305-0.47,0.475c-0.13,0.17-0.215,0.365-0.255,0.585h3.64v0.75h-4.63c0.033-0.42,0.108-0.778,0.225-1.075
				c0.117-0.296,0.265-0.555,0.445-0.775c0.18-0.22,0.383-0.413,0.61-0.58c0.227-0.167,0.463-0.323,0.71-0.47
				c0.3-0.187,0.563-0.358,0.79-0.515s0.415-0.315,0.565-0.475c0.15-0.16,0.263-0.333,0.34-0.52c0.077-0.187,0.115-0.403,0.115-0.65
				c0-0.193-0.037-0.368-0.11-0.525c-0.074-0.157-0.172-0.292-0.295-0.405c-0.123-0.113-0.268-0.2-0.435-0.26
				c-0.167-0.06-0.344-0.09-0.53-0.09c-0.247,0-0.458,0.052-0.635,0.155c-0.177,0.104-0.322,0.238-0.435,0.405
				c-0.114,0.167-0.195,0.355-0.245,0.565s-0.072,0.421-0.065,0.635h-0.85C71.384,192.773,71.42,192.439,71.514,192.133z"/>
		</g>
		<g>
			<path fill="#BFBFBF" d="M132.114,197.713v-5.08h-1.84v-0.68c0.24,0,0.473-0.019,0.7-0.055s0.432-0.105,0.615-0.205
				c0.183-0.1,0.338-0.236,0.465-0.41c0.126-0.173,0.213-0.393,0.26-0.66h0.65v7.09H132.114z"/>
			<path fill="#BFBFBF" d="M140.114,195.303v0.75h-0.96v1.66h-0.8v-1.66h-3.11v-0.82l3.23-4.61h0.68v4.68H140.114z M138.354,191.833
				h-0.02l-2.36,3.47h2.38V191.833z"/>
		</g>
		<g>
			<path fill="#BFBFBF" d="M196.114,197.713v-5.08h-1.84v-0.68c0.24,0,0.473-0.019,0.7-0.055s0.432-0.105,0.615-0.205
				c0.183-0.1,0.338-0.236,0.465-0.41c0.126-0.173,0.213-0.393,0.26-0.66h0.65v7.09H196.114z"/>
			<path fill="#BFBFBF" d="M202.734,191.663c-0.207-0.193-0.48-0.29-0.82-0.29c-0.36,0-0.65,0.088-0.87,0.265
				c-0.22,0.177-0.392,0.4-0.515,0.67s-0.208,0.562-0.255,0.875c-0.047,0.313-0.074,0.606-0.08,0.88l0.02,0.02
				c0.2-0.327,0.448-0.563,0.745-0.71c0.296-0.146,0.638-0.22,1.025-0.22c0.34,0,0.645,0.059,0.915,0.175s0.497,0.278,0.68,0.485
				c0.183,0.207,0.325,0.45,0.425,0.73c0.1,0.28,0.15,0.583,0.15,0.91c0,0.26-0.04,0.53-0.12,0.81
				c-0.08,0.28-0.211,0.535-0.395,0.765c-0.183,0.23-0.427,0.42-0.73,0.57c-0.303,0.15-0.678,0.225-1.125,0.225
				c-0.526,0-0.95-0.106-1.27-0.32c-0.32-0.213-0.566-0.487-0.74-0.82c-0.173-0.333-0.289-0.7-0.345-1.1s-0.085-0.787-0.085-1.16
				c0-0.486,0.042-0.958,0.125-1.415c0.083-0.457,0.225-0.861,0.425-1.215c0.2-0.354,0.466-0.637,0.8-0.85s0.753-0.32,1.26-0.32
				c0.586,0,1.053,0.155,1.4,0.465c0.346,0.31,0.546,0.758,0.6,1.345h-0.85C203.064,192.113,202.94,191.856,202.734,191.663z
				 M201.194,194.028c-0.18,0.083-0.333,0.197-0.46,0.34c-0.127,0.144-0.222,0.313-0.285,0.51s-0.095,0.405-0.095,0.625
				c0,0.22,0.033,0.427,0.1,0.62c0.066,0.193,0.161,0.36,0.285,0.5c0.124,0.14,0.277,0.251,0.46,0.335
				c0.184,0.083,0.392,0.125,0.625,0.125s0.438-0.042,0.615-0.125c0.176-0.083,0.325-0.198,0.445-0.345
				c0.12-0.146,0.211-0.315,0.275-0.505s0.095-0.388,0.095-0.595c0-0.22-0.028-0.428-0.085-0.625
				c-0.057-0.196-0.145-0.366-0.265-0.51s-0.27-0.258-0.45-0.345c-0.18-0.086-0.39-0.13-0.63-0.13
				C201.584,193.903,201.374,193.945,201.194,194.028z"/>
		</g>
	</g>
	<g display="inline">
		<g>
			<path fill="#BFBFBF" d="M94.554,94.713v-5.08h-1.84v-0.68c0.24,0,0.473-0.019,0.7-0.055s0.432-0.105,0.615-0.205
				c0.183-0.1,0.338-0.236,0.465-0.41c0.126-0.173,0.213-0.393,0.26-0.66h0.65v7.09H94.554z"/>
		</g>
		<g>
			<path fill="#BFBFBF" d="M158.114,90.673c0.033,0,0.066,0,0.1,0h0.18c0.18,0,0.352-0.025,0.515-0.075
				c0.164-0.05,0.307-0.123,0.43-0.22c0.123-0.097,0.222-0.218,0.295-0.365c0.073-0.146,0.11-0.313,0.11-0.5
				c0-0.38-0.12-0.665-0.36-0.855c-0.24-0.19-0.54-0.285-0.9-0.285c-0.227,0-0.425,0.042-0.595,0.125s-0.31,0.195-0.42,0.335
				c-0.11,0.14-0.192,0.303-0.245,0.49c-0.053,0.187-0.08,0.384-0.08,0.59h-0.85c0.013-0.34,0.068-0.65,0.165-0.93
				c0.096-0.28,0.235-0.52,0.415-0.72c0.18-0.2,0.405-0.356,0.675-0.47s0.582-0.17,0.935-0.17c0.307,0,0.591,0.038,0.855,0.115
				c0.263,0.077,0.491,0.192,0.685,0.345c0.193,0.153,0.345,0.35,0.455,0.59c0.11,0.24,0.165,0.523,0.165,0.85
				c0,0.32-0.093,0.604-0.28,0.85s-0.42,0.433-0.7,0.56v0.02c0.434,0.093,0.755,0.296,0.965,0.61s0.315,0.683,0.315,1.11
				c0,0.354-0.065,0.665-0.195,0.935c-0.13,0.27-0.305,0.495-0.525,0.675c-0.22,0.18-0.479,0.315-0.775,0.405
				c-0.297,0.09-0.612,0.135-0.945,0.135c-0.36,0-0.687-0.05-0.98-0.15c-0.293-0.1-0.543-0.248-0.75-0.445
				c-0.207-0.197-0.365-0.438-0.475-0.725s-0.162-0.613-0.155-0.98h0.85c0.013,0.46,0.146,0.835,0.4,1.125s0.624,0.435,1.11,0.435
				c0.207,0,0.403-0.032,0.59-0.095c0.187-0.063,0.35-0.153,0.49-0.27c0.14-0.116,0.251-0.26,0.335-0.43
				c0.083-0.17,0.125-0.362,0.125-0.575c0-0.22-0.04-0.415-0.12-0.585s-0.187-0.313-0.32-0.43c-0.133-0.116-0.292-0.203-0.475-0.26
				c-0.184-0.057-0.382-0.085-0.595-0.085c-0.18,0-0.35,0.01-0.51,0.03v-0.72C158.057,90.669,158.087,90.673,158.114,90.673z"/>
		</g>
		<g>
			<path fill="#BFBFBF" d="M221.684,88.493l-0.38,2.04l0.02,0.02c0.153-0.173,0.352-0.301,0.595-0.385
				c0.243-0.083,0.485-0.125,0.725-0.125c0.313,0,0.61,0.05,0.89,0.15c0.28,0.1,0.523,0.252,0.73,0.455
				c0.207,0.204,0.37,0.457,0.49,0.76c0.12,0.304,0.18,0.659,0.18,1.065c0,0.3-0.052,0.592-0.155,0.875
				c-0.104,0.284-0.258,0.535-0.465,0.755c-0.207,0.22-0.465,0.395-0.775,0.525s-0.671,0.195-1.085,0.195
				c-0.307,0-0.595-0.045-0.865-0.135c-0.27-0.09-0.509-0.22-0.715-0.39s-0.37-0.381-0.49-0.635s-0.184-0.54-0.19-0.86h0.85
				c0.013,0.18,0.058,0.349,0.135,0.505s0.18,0.293,0.31,0.41c0.13,0.117,0.283,0.207,0.46,0.27
				c0.177,0.063,0.372,0.095,0.585,0.095c0.2,0,0.392-0.035,0.575-0.105c0.183-0.07,0.343-0.175,0.48-0.315
				c0.136-0.14,0.245-0.315,0.325-0.525c0.08-0.21,0.12-0.455,0.12-0.735c0-0.233-0.039-0.448-0.115-0.645
				c-0.077-0.196-0.185-0.367-0.325-0.51c-0.14-0.144-0.309-0.255-0.505-0.335c-0.197-0.08-0.415-0.12-0.655-0.12
				c-0.28,0-0.528,0.062-0.745,0.185c-0.217,0.124-0.409,0.285-0.575,0.485l-0.73-0.04l0.66-3.68h3.5v0.75H221.684z"/>
		</g>
		<g>
			<path fill="#BFBFBF" d="M95.924,153.733c-0.313,0.487-0.592,1.007-0.835,1.56c-0.244,0.553-0.442,1.124-0.595,1.71
				c-0.153,0.587-0.247,1.157-0.28,1.71h-0.95c0.04-0.6,0.138-1.185,0.295-1.755c0.157-0.57,0.358-1.117,0.605-1.64
				s0.532-1.018,0.855-1.485s0.672-0.896,1.045-1.29h-3.72v-0.8h4.59v0.73C96.574,152.826,96.237,153.246,95.924,153.733z"/>
		</g>
		<g>
			<path fill="#BFBFBF" d="M157.604,157.803c0.247,0.187,0.54,0.28,0.88,0.28c0.52,0,0.91-0.225,1.17-0.675
				c0.26-0.45,0.403-1.138,0.43-2.065l-0.02-0.02c-0.16,0.3-0.387,0.539-0.68,0.715s-0.613,0.265-0.96,0.265
				c-0.36,0-0.68-0.058-0.96-0.175c-0.28-0.117-0.515-0.278-0.705-0.485s-0.333-0.457-0.43-0.75s-0.145-0.613-0.145-0.96
				c0-0.34,0.057-0.652,0.17-0.935s0.273-0.527,0.48-0.73c0.207-0.204,0.453-0.362,0.74-0.475s0.6-0.17,0.94-0.17
				c0.333,0,0.646,0.052,0.94,0.155c0.293,0.104,0.55,0.282,0.77,0.535c0.22,0.253,0.395,0.598,0.525,1.035
				c0.13,0.437,0.195,0.992,0.195,1.665c0,1.227-0.195,2.168-0.585,2.825c-0.39,0.657-1.015,0.985-1.875,0.985
				c-0.594,0-1.087-0.15-1.48-0.45c-0.394-0.3-0.617-0.757-0.67-1.37h0.85C157.217,157.35,157.357,157.616,157.604,157.803z
				 M159.839,153.373c-0.063-0.193-0.157-0.365-0.28-0.515c-0.123-0.15-0.275-0.268-0.455-0.355c-0.18-0.086-0.39-0.13-0.63-0.13
				c-0.253,0-0.468,0.046-0.645,0.14c-0.177,0.094-0.32,0.219-0.43,0.375c-0.11,0.157-0.19,0.335-0.24,0.535
				c-0.05,0.2-0.075,0.41-0.075,0.63c0,0.193,0.035,0.38,0.105,0.56c0.07,0.18,0.167,0.34,0.29,0.48
				c0.124,0.14,0.27,0.252,0.44,0.335c0.17,0.083,0.358,0.125,0.565,0.125c0.22,0,0.42-0.042,0.6-0.125
				c0.18-0.083,0.333-0.196,0.46-0.34c0.126-0.143,0.223-0.31,0.29-0.5c0.066-0.19,0.1-0.388,0.1-0.595
				C159.934,153.773,159.902,153.566,159.839,153.373z"/>
		</g>
		<g>
			<path fill="#BFBFBF" d="M216.994,158.713v-5.08h-1.84v-0.68c0.24,0,0.473-0.019,0.7-0.055s0.432-0.105,0.615-0.205
				c0.183-0.1,0.338-0.236,0.465-0.41c0.126-0.173,0.213-0.393,0.26-0.66h0.65v7.09H216.994z"/>
			<path fill="#BFBFBF" d="M222.554,158.713v-5.08h-1.84v-0.68c0.24,0,0.473-0.019,0.7-0.055s0.432-0.105,0.615-0.205
				c0.183-0.1,0.338-0.236,0.465-0.41c0.126-0.173,0.213-0.393,0.26-0.66h0.65v7.09H222.554z"/>
		</g>
		<g>
			<path fill="#BFBFBF" d="M88.994,222.713v-5.08h-1.84v-0.68c0.24,0,0.473-0.019,0.7-0.055s0.432-0.105,0.615-0.205
				c0.183-0.1,0.338-0.236,0.465-0.41c0.126-0.173,0.213-0.393,0.26-0.66h0.65v7.09H88.994z"/>
			<path fill="#BFBFBF" d="M94.114,218.673c0.033,0,0.066,0,0.1,0h0.18c0.18,0,0.352-0.025,0.515-0.075
				c0.164-0.05,0.307-0.123,0.43-0.22c0.123-0.097,0.222-0.218,0.295-0.365c0.073-0.146,0.11-0.313,0.11-0.5
				c0-0.38-0.12-0.665-0.36-0.855c-0.24-0.19-0.54-0.285-0.9-0.285c-0.227,0-0.425,0.042-0.595,0.125s-0.31,0.195-0.42,0.335
				c-0.11,0.14-0.192,0.303-0.245,0.49c-0.053,0.187-0.08,0.384-0.08,0.59h-0.85c0.013-0.34,0.068-0.65,0.165-0.93
				c0.096-0.28,0.235-0.52,0.415-0.72c0.18-0.2,0.405-0.356,0.675-0.47s0.582-0.17,0.935-0.17c0.307,0,0.591,0.038,0.855,0.115
				c0.263,0.077,0.491,0.192,0.685,0.345c0.193,0.153,0.345,0.35,0.455,0.59c0.11,0.24,0.165,0.523,0.165,0.85
				c0,0.32-0.093,0.604-0.28,0.85s-0.42,0.433-0.7,0.56v0.02c0.434,0.093,0.755,0.296,0.965,0.61s0.315,0.683,0.315,1.11
				c0,0.354-0.065,0.665-0.195,0.935c-0.13,0.27-0.305,0.495-0.525,0.675c-0.22,0.18-0.479,0.315-0.775,0.405
				c-0.297,0.09-0.612,0.135-0.945,0.135c-0.36,0-0.687-0.05-0.98-0.15c-0.293-0.1-0.543-0.248-0.75-0.445
				c-0.207-0.197-0.365-0.438-0.475-0.725s-0.162-0.613-0.155-0.98h0.85c0.013,0.46,0.146,0.835,0.4,1.125s0.624,0.435,1.11,0.435
				c0.207,0,0.403-0.032,0.59-0.095c0.187-0.063,0.35-0.153,0.49-0.27c0.14-0.116,0.251-0.26,0.335-0.43
				c0.083-0.17,0.125-0.362,0.125-0.575c0-0.22-0.04-0.415-0.12-0.585s-0.187-0.313-0.32-0.43c-0.133-0.116-0.292-0.203-0.475-0.26
				c-0.184-0.057-0.382-0.085-0.595-0.085c-0.18,0-0.35,0.01-0.51,0.03v-0.72C94.057,218.669,94.087,218.673,94.114,218.673z"/>
		</g>
		<g>
			<path fill="#BFBFBF" d="M152.994,222.713v-5.08h-1.84v-0.68c0.24,0,0.473-0.019,0.7-0.055s0.432-0.105,0.615-0.205
				c0.183-0.1,0.338-0.236,0.465-0.41c0.126-0.173,0.213-0.393,0.26-0.66h0.65v7.09H152.994z"/>
			<path fill="#BFBFBF" d="M157.684,216.493l-0.38,2.04l0.02,0.02c0.153-0.173,0.352-0.301,0.595-0.385
				c0.243-0.083,0.485-0.125,0.725-0.125c0.313,0,0.61,0.05,0.89,0.15c0.28,0.1,0.523,0.252,0.73,0.455
				c0.207,0.204,0.37,0.457,0.49,0.76c0.12,0.304,0.18,0.659,0.18,1.065c0,0.3-0.052,0.592-0.155,0.875
				c-0.104,0.284-0.258,0.535-0.465,0.755c-0.207,0.22-0.465,0.395-0.775,0.525s-0.671,0.195-1.085,0.195
				c-0.307,0-0.595-0.045-0.865-0.135c-0.27-0.09-0.509-0.22-0.715-0.39s-0.37-0.381-0.49-0.635s-0.184-0.54-0.19-0.86h0.85
				c0.013,0.18,0.058,0.349,0.135,0.505s0.18,0.293,0.31,0.41c0.13,0.117,0.283,0.207,0.46,0.27
				c0.177,0.063,0.372,0.095,0.585,0.095c0.2,0,0.392-0.035,0.575-0.105c0.183-0.07,0.343-0.175,0.48-0.315
				c0.136-0.14,0.245-0.315,0.325-0.525c0.08-0.21,0.12-0.455,0.12-0.735c0-0.233-0.039-0.448-0.115-0.645
				c-0.077-0.196-0.185-0.367-0.325-0.51c-0.14-0.144-0.309-0.255-0.505-0.335c-0.197-0.08-0.415-0.12-0.655-0.12
				c-0.28,0-0.528,0.062-0.745,0.185c-0.217,0.124-0.409,0.285-0.575,0.485l-0.73-0.04l0.66-3.68h3.5v0.75H157.684z"/>
		</g>
		<g>
			<path fill="#BFBFBF" d="M216.994,222.713v-5.08h-1.84v-0.68c0.24,0,0.473-0.019,0.7-0.055s0.432-0.105,0.615-0.205
				c0.183-0.1,0.338-0.236,0.465-0.41c0.126-0.173,0.213-0.393,0.26-0.66h0.65v7.09H216.994z"/>
			<path fill="#BFBFBF" d="M223.924,217.733c-0.313,0.487-0.592,1.007-0.835,1.56c-0.244,0.553-0.442,1.124-0.595,1.71
				c-0.153,0.587-0.247,1.157-0.28,1.71h-0.95c0.04-0.6,0.138-1.185,0.295-1.755c0.157-0.57,0.358-1.117,0.605-1.64
				s0.532-1.018,0.855-1.485s0.672-0.896,1.045-1.29h-3.72v-0.8h4.59v0.73C224.574,216.826,224.237,217.246,223.924,217.733z"/>
		</g>
	</g>
</g>
<g>
	<g>
		<line fill="none" stroke="#000000" stroke-width="0.5" stroke-miterlimit="10" x1="49.404" y1="10.713" x2="49.404" y2="18.713"/>
		
			<line fill="none" stroke="#000000" stroke-width="0.5" stroke-miterlimit="10" x1="145.404" y1="10.713" x2="145.404" y2="18.713"/>
		
			<line fill="none" stroke="#000000" stroke-width="0.5" stroke-miterlimit="10" x1="241.404" y1="10.713" x2="241.404" y2="18.713"/>
		<line fill="none" stroke="#000000" stroke-width="0.5" stroke-miterlimit="10" x1="97.404" y1="16.713" x2="97.404" y2="12.713"/>
		
			<line fill="none" stroke="#000000" stroke-width="0.5" stroke-miterlimit="10" x1="193.404" y1="16.713" x2="193.404" y2="12.713"/>
		
			<line fill="none" stroke="#000000" stroke-width="0.5" stroke-miterlimit="10" x1="49.404" y1="14.713" x2="241.404" y2="14.713"/>
	</g>
	<g>
		<path d="M48.202,4.851v0.72h-2.601v-0.72H48.202z"/>
		<path d="M51.091,7.713V3.141h-1.656V2.529c0.216,0,0.426-0.017,0.63-0.049c0.204-0.033,0.388-0.095,0.553-0.185
			s0.305-0.213,0.418-0.369c0.114-0.156,0.192-0.354,0.234-0.594h0.585v6.381H51.091z"/>
	</g>
	<g>
		<path d="M143.298,3.852c0.012-0.252,0.042-0.498,0.09-0.738c0.048-0.24,0.117-0.468,0.207-0.684
			c0.09-0.216,0.213-0.405,0.369-0.567c0.156-0.162,0.353-0.291,0.589-0.387c0.237-0.096,0.521-0.144,0.851-0.144
			s0.613,0.048,0.851,0.144c0.237,0.096,0.434,0.225,0.589,0.387c0.156,0.162,0.279,0.351,0.369,0.567
			c0.09,0.216,0.159,0.444,0.207,0.684c0.048,0.24,0.078,0.486,0.09,0.738s0.018,0.495,0.018,0.729c0,0.234-0.006,0.477-0.018,0.729
			s-0.042,0.498-0.09,0.738c-0.048,0.24-0.117,0.467-0.207,0.68s-0.213,0.4-0.369,0.562c-0.156,0.162-0.351,0.29-0.585,0.382
			s-0.519,0.14-0.855,0.14c-0.33,0-0.613-0.047-0.851-0.14c-0.237-0.093-0.434-0.221-0.589-0.382
			c-0.156-0.162-0.279-0.35-0.369-0.562c-0.09-0.213-0.159-0.439-0.207-0.68c-0.048-0.24-0.078-0.486-0.09-0.738
			c-0.012-0.252-0.018-0.495-0.018-0.729C143.28,4.347,143.286,4.104,143.298,3.852z M144.112,5.377
			c0.015,0.297,0.063,0.576,0.144,0.837c0.081,0.261,0.211,0.481,0.392,0.662c0.18,0.18,0.432,0.27,0.756,0.27
			c0.324,0,0.576-0.09,0.756-0.27c0.18-0.18,0.311-0.4,0.392-0.662c0.081-0.261,0.129-0.54,0.144-0.837s0.022-0.565,0.022-0.806
			c0-0.156-0.001-0.329-0.004-0.518s-0.018-0.378-0.045-0.567c-0.027-0.189-0.066-0.374-0.117-0.553
			c-0.051-0.18-0.126-0.338-0.225-0.473c-0.099-0.135-0.224-0.245-0.374-0.329s-0.333-0.126-0.549-0.126s-0.399,0.042-0.549,0.126
			c-0.15,0.084-0.274,0.193-0.374,0.329c-0.099,0.135-0.174,0.292-0.225,0.473c-0.051,0.18-0.09,0.364-0.117,0.553
			c-0.027,0.189-0.042,0.378-0.045,0.567s-0.004,0.362-0.004,0.518C144.09,4.812,144.097,5.081,144.112,5.377z"/>
	</g>
	<g>
		<path d="M241.169,5.13v0.612h-1.962v1.971h-0.612V5.742h-1.961V5.13h1.961V3.159h0.612V5.13H241.169z"/>
		<path d="M244.041,7.713V3.141h-1.656V2.529c0.217,0,0.426-0.017,0.631-0.049c0.203-0.033,0.388-0.095,0.553-0.185
			s0.305-0.213,0.418-0.369c0.115-0.156,0.193-0.354,0.234-0.594h0.586v6.381H244.041z"/>
	</g>
</g>
<g>
	<g>
		<line fill="none" stroke="#000000" stroke-width="0.5" stroke-miterlimit="10" x1="13.404" y1="46.713" x2="21.404" y2="46.713"/>
		
			<line fill="none" stroke="#000000" stroke-width="0.5" stroke-miterlimit="10" x1="13.404" y1="142.713" x2="21.404" y2="142.713"/>
		
			<line fill="none" stroke="#000000" stroke-width="0.5" stroke-miterlimit="10" x1="13.404" y1="238.713" x2="21.404" y2="238.713"/>
		
			<line fill="none" stroke="#000000" stroke-width="0.5" stroke-miterlimit="10" x1="15.404" y1="190.713" x2="19.404" y2="190.713"/>
		<line fill="none" stroke="#000000" stroke-width="0.5" stroke-miterlimit="10" x1="15.404" y1="94.713" x2="19.404" y2="94.713"/>
		
			<line fill="none" stroke="#000000" stroke-width="0.5" stroke-miterlimit="10" x1="17.404" y1="46.713" x2="17.404" y2="238.713"/>
	</g>
	<g>
		<path d="M4.95,46.851v0.72H2.349v-0.72H4.95z"/>
		<path d="M7.839,49.713v-4.572H6.183v-0.612c0.216,0,0.426-0.017,0.63-0.049c0.204-0.033,0.388-0.095,0.553-0.185
			s0.305-0.213,0.418-0.369c0.114-0.156,0.192-0.354,0.234-0.594h0.585v6.381H7.839z"/>
	</g>
	<g>
		<path d="M5.796,141.852c0.012-0.252,0.042-0.498,0.09-0.738c0.048-0.24,0.117-0.468,0.207-0.684
			c0.09-0.216,0.213-0.405,0.369-0.567c0.156-0.162,0.353-0.291,0.589-0.387c0.237-0.096,0.521-0.144,0.851-0.144
			s0.613,0.048,0.851,0.144c0.237,0.096,0.434,0.225,0.589,0.387c0.156,0.162,0.279,0.351,0.369,0.567
			c0.09,0.216,0.159,0.444,0.207,0.684c0.048,0.24,0.078,0.486,0.09,0.738s0.018,0.495,0.018,0.729c0,0.234-0.006,0.477-0.018,0.729
			s-0.042,0.498-0.09,0.738c-0.048,0.24-0.117,0.467-0.207,0.68s-0.213,0.4-0.369,0.562c-0.156,0.162-0.351,0.29-0.585,0.382
			s-0.519,0.14-0.855,0.14c-0.33,0-0.613-0.047-0.851-0.14c-0.237-0.093-0.434-0.221-0.589-0.382
			c-0.156-0.162-0.279-0.35-0.369-0.562c-0.09-0.213-0.159-0.439-0.207-0.68c-0.048-0.24-0.078-0.486-0.09-0.738
			c-0.012-0.252-0.018-0.495-0.018-0.729C5.778,142.347,5.784,142.104,5.796,141.852z M6.61,143.377
			c0.015,0.297,0.063,0.576,0.144,0.837c0.081,0.261,0.211,0.481,0.392,0.662c0.18,0.18,0.432,0.27,0.756,0.27
			c0.324,0,0.576-0.09,0.756-0.27c0.18-0.18,0.311-0.4,0.392-0.662c0.081-0.261,0.129-0.54,0.144-0.837s0.022-0.565,0.022-0.806
			c0-0.156-0.001-0.329-0.004-0.518s-0.018-0.378-0.045-0.567c-0.027-0.189-0.066-0.374-0.117-0.553
			c-0.051-0.18-0.126-0.338-0.225-0.473c-0.099-0.135-0.224-0.245-0.374-0.329s-0.333-0.126-0.549-0.126s-0.399,0.042-0.549,0.126
			c-0.15,0.084-0.274,0.193-0.374,0.329c-0.099,0.135-0.174,0.292-0.225,0.473c-0.051,0.18-0.09,0.364-0.117,0.553
			c-0.027,0.189-0.042,0.378-0.045,0.567s-0.004,0.362-0.004,0.518C6.588,142.812,6.595,143.081,6.61,143.377z"/>
	</g>
	<g>
		<path d="M4.968,239.13v0.612H3.006v1.971H2.394v-1.971H0.432v-0.612h1.962v-1.971h0.612v1.971H4.968z"/>
		<path d="M7.839,241.713v-4.572H6.183v-0.612c0.216,0,0.426-0.017,0.63-0.049c0.204-0.033,0.388-0.095,0.553-0.185
			s0.305-0.213,0.418-0.369c0.114-0.156,0.192-0.354,0.234-0.594h0.585v6.381H7.839z"/>
	</g>
</g>
</svg>
