<?xml version="1.0" encoding="utf-8"?>
<!-- Generator: Adobe Illustrator 15.1.0, SVG Export Plug-In . SVG Version: 6.00 Build 0)  -->
<!DOCTYPE svg PUBLIC "-//W3C//DTD SVG 1.1 Tiny//EN" "http://www.w3.org/Graphics/SVG/1.1/DTD/svg11-tiny.dtd">
<svg version="1.1" baseProfile="tiny" xmlns="http://www.w3.org/2000/svg" xmlns:xlink="http://www.w3.org/1999/xlink" x="0px"
	 y="0px" width="156.084px" height="151.008px" viewBox="0 0 156.084 151.008" overflow="inherit" xml:space="preserve">
<g id="Layer_1">
	<polygon fill="#CCCCCC" stroke="#FFFFFF" stroke-linecap="round" stroke-linejoin="round" stroke-miterlimit="10" points="
		0.922,105.125 44.391,109.114 57.073,95.799 16.085,92.328 	"/>
	<polygon fill="#CCCCCC" stroke="#FFFFFF" stroke-linecap="round" stroke-linejoin="round" stroke-miterlimit="10" points="
		28.998,80.843 16.085,92.328 57.073,95.799 68.333,83.978 	"/>
	<polygon fill="#CCCCCC" stroke="#FFFFFF" stroke-linecap="round" stroke-linejoin="round" stroke-miterlimit="10" points="
		41.615,70.782 28.998,80.843 68.333,83.978 78.281,73.535 	"/>
	<polygon fill="#CCCCCC" stroke="#FFFFFF" stroke-linecap="round" stroke-linejoin="round" stroke-miterlimit="10" points="
		99.661,99.406 57.073,95.799 44.391,109.114 89.599,113.444 	"/>
	<polygon fill="#CCCCCC" stroke="#FFFFFF" stroke-linecap="round" stroke-linejoin="round" stroke-miterlimit="10" points="
		108.43,87.174 68.333,83.978 57.073,95.799 99.661,99.406 	"/>
	<polygon fill="#CCCCCC" stroke="#FFFFFF" stroke-linecap="round" stroke-linejoin="round" stroke-miterlimit="10" points="
		116.168,76.377 78.281,73.535 68.333,83.978 108.43,87.174 	"/>
	<polygon fill="#CCCCCC" stroke="#FFFFFF" stroke-linecap="round" stroke-linejoin="round" stroke-miterlimit="10" points="
		144.031,103.166 99.661,99.406 89.599,113.444 137.071,117.621 	"/>
	<polygon fill="#CCCCCC" stroke="#FFFFFF" stroke-linecap="round" stroke-linejoin="round" stroke-miterlimit="10" points="
		150.539,90.531 108.43,87.174 99.661,99.406 144.031,103.166 	"/>
	<polygon fill="#CCCCCC" stroke="#FFFFFF" stroke-linecap="round" stroke-linejoin="round" stroke-miterlimit="10" points="
		155.584,79.335 116.168,76.377 108.43,87.174 150.539,90.531 	"/>
	<g>
		
			<line fill="none" stroke="#000000" stroke-linecap="round" stroke-linejoin="round" x1="84.496" y1="90.531" x2="84.496" y2="45.665"/>
		<g>
			<circle cx="84.496" cy="90.531" r="1.88"/>
		</g>
		<g>
			<path d="M84.496,42.647c0.527,1.42,1.426,3.182,2.378,4.274l-2.378-0.86l-2.377,0.86C83.07,45.829,83.969,44.067,84.496,42.647z"
				/>
		</g>
	</g>
	<g>
		
			<line fill="none" stroke="#D9D9D9" stroke-linecap="round" stroke-linejoin="round" x1="84.438" y1="90.531" x2="75.752" y2="46.748"/>
		<g>
			<circle fill="#D9D9D9" cx="84.438" cy="90.531" r="1.88"/>
		</g>
		<g>
			<path fill="#D9D9D9" d="M75.165,43.788c0.793,1.291,2.018,2.843,3.165,3.729l-2.5-0.381l-2.165,1.306
				C74.386,47.187,74.925,45.283,75.165,43.788z"/>
		</g>
	</g>
	<g>
		
			<line fill="none" stroke="#000000" stroke-linecap="round" stroke-linejoin="round" x1="84.496" y1="90.531" x2="109.32" y2="53.047"/>
		<g>
			<circle cx="84.496" cy="90.531" r="1.88"/>
		</g>
		<g>
			<path d="M110.986,50.532c-0.345,1.475-0.568,3.439-0.377,4.876l-1.508-2.03l-2.457-0.596
				C108.042,52.397,109.764,51.425,110.986,50.532z"/>
		</g>
	</g>
	<g>
		
			<line fill="none" stroke="#000000" stroke-linecap="round" stroke-linejoin="round" x1="84.496" y1="90.531" x2="49.949" y2="66.242"/>
		<g>
			<circle cx="84.496" cy="90.531" r="1.88"/>
		</g>
		<g>
			<path d="M47.48,64.507c1.465,0.385,3.423,0.664,4.864,0.513l-2.071,1.45l-0.664,2.44C49.264,67.502,48.339,65.754,47.48,64.507z"
				/>
		</g>
	</g>
	<g>
		
			<line fill="none" stroke="#000000" stroke-linecap="round" stroke-miterlimit="10" x1="124.649" y1="36.803" x2="130.856" y2="13.634"/>
		
			<line fill="none" stroke="#000000" stroke-linecap="round" stroke-miterlimit="10" x1="124.649" y1="13.634" x2="130.856" y2="36.026"/>
		
			<line fill="none" stroke="#000000" stroke-linecap="round" stroke-miterlimit="10" x1="136.232" y1="33.7" x2="119.271" y2="16.737"/>
		
			<line fill="none" stroke="#000000" stroke-linecap="round" stroke-miterlimit="10" x1="116.168" y1="22.115" x2="139.337" y2="28.322"/>
		
			<line fill="none" stroke="#000000" stroke-linecap="round" stroke-miterlimit="10" x1="119.271" y1="33.7" x2="136.232" y2="16.737"/>
		
			<line fill="none" stroke="#000000" stroke-linecap="round" stroke-miterlimit="10" x1="139.337" y1="22.115" x2="116.168" y2="28.322"/>
		
			<circle fill="#FFFF00" stroke="#000000" stroke-linecap="round" stroke-linejoin="round" stroke-miterlimit="10" cx="127.752" cy="25.218" r="5.284"/>
	</g>
	
		<line fill="none" stroke="#000000" stroke-linecap="round" stroke-linejoin="round" stroke-miterlimit="10" x1="23.669" y1="47.766" x2="35.198" y2="49.026"/>
	
		<line fill="none" stroke="#000000" stroke-linecap="round" stroke-linejoin="round" stroke-miterlimit="10" x1="23.669" y1="47.766" x2="28.998" y2="58.033"/>
	<g>
		<path fill="#5F72FF" d="M28.938,53.671c0,0.861,0.349,1.64,0.911,2.206c0.409-0.312,0.795-0.649,1.152-1.018
			c-0.327-0.293-0.536-0.714-0.536-1.188c0-0.885,0.718-1.603,1.603-1.603c0.274,0,0.528,0.075,0.754,0.197
			c0.225-0.455,0.424-0.925,0.579-1.415c-0.406-0.192-0.854-0.309-1.333-0.309C30.34,50.541,28.938,51.942,28.938,53.671z"/>
		<path d="M30.465,53.671c0,0.474,0.209,0.895,0.536,1.188c0.736-0.76,1.349-1.635,1.821-2.594
			c-0.226-0.122-0.479-0.197-0.754-0.197C31.183,52.068,30.465,52.786,30.465,53.671z"/>
	</g>
	<path fill="none" stroke="#000000" stroke-linecap="round" stroke-linejoin="round" stroke-miterlimit="10" d="M33.878,48.88
		c-0.377,3.487-2.5,6.452-5.477,8.002"/>
	<text transform="matrix(1 0 0 1 89.5986 45.6646)" font-family="'TimesNewRomanPS-BoldMT'" font-size="14">n</text>
	<text transform="matrix(1 0 0 1 63.8486 49.0264)" fill="#D9D9D9" font-family="'TimesNewRomanPS-BoldMT'" font-size="14">h</text>
	<text transform="matrix(1 0 0 1 113.6685 55.2832)" font-family="'TimesNewRomanPS-BoldMT'" font-size="14">l</text>
	<text transform="matrix(1 0 0 1 53.6392 63.1323)" font-family="'TimesNewRomanPS-BoldMT'" font-size="14">v</text>
</g>
<g id="Layer_2" display="none">
	
		<polygon display="inline" fill="#CCCCCC" stroke="#FFFFFF" stroke-linecap="round" stroke-linejoin="round" stroke-miterlimit="10" points="
		24.47,150.508 62.368,128.847 65.122,110.666 29.553,131.328 	"/>
	
		<polygon display="inline" fill="#CCCCCC" stroke="#FFFFFF" stroke-linecap="round" stroke-linejoin="round" stroke-miterlimit="10" points="
		33.544,114.515 29.553,131.328 65.122,110.666 67.565,94.524 	"/>
	
		<polygon display="inline" fill="#CCCCCC" stroke="#FFFFFF" stroke-linecap="round" stroke-linejoin="round" stroke-miterlimit="10" points="
		38.11,99.037 33.544,114.515 67.565,94.524 69.726,80.264 	"/>
	
		<polygon display="inline" fill="#CCCCCC" stroke="#FFFFFF" stroke-linecap="round" stroke-linejoin="round" stroke-miterlimit="10" points="
		102.077,89.197 65.122,110.666 62.368,128.847 101.886,106.468 	"/>
	
		<polygon display="inline" fill="#CCCCCC" stroke="#FFFFFF" stroke-linecap="round" stroke-linejoin="round" stroke-miterlimit="10" points="
		102.246,74.147 67.565,94.524 65.122,110.666 102.077,89.197 	"/>
	
		<polygon display="inline" fill="#CCCCCC" stroke="#FFFFFF" stroke-linecap="round" stroke-linejoin="round" stroke-miterlimit="10" points="
		102.394,60.865 69.726,80.264 67.565,94.524 102.246,74.147 	"/>
	
		<polygon display="inline" fill="#CCCCCC" stroke="#FFFFFF" stroke-linecap="round" stroke-linejoin="round" stroke-miterlimit="10" points="
		140.583,66.83 102.077,89.197 101.886,106.468 143.171,82.664 	"/>
	
		<polygon display="inline" fill="#CCCCCC" stroke="#FFFFFF" stroke-linecap="round" stroke-linejoin="round" stroke-miterlimit="10" points="
		138.668,52.748 102.246,74.147 102.077,89.197 140.583,66.83 	"/>
	
		<polygon display="inline" fill="#CCCCCC" stroke="#FFFFFF" stroke-linecap="round" stroke-linejoin="round" stroke-miterlimit="10" points="
		136.38,40.683 102.394,60.865 102.246,74.147 138.668,52.748 	"/>
	<g display="inline">
		
			<line fill="none" stroke="#000000" stroke-linecap="round" stroke-linejoin="round" x1="84.564" y1="90.623" x2="58.833" y2="53.869"/>
		<g>
			<circle cx="84.564" cy="90.623" r="1.88"/>
		</g>
		<g>
			<path d="M57.103,51.396c1.246,0.861,2.993,1.789,4.399,2.137l-2.441,0.659l-1.454,2.068
				C57.759,54.82,57.485,52.862,57.103,51.396z"/>
		</g>
	</g>
	<g display="inline">
		
			<line fill="none" stroke="#D9D9D9" stroke-linecap="round" stroke-linejoin="round" x1="84.518" y1="90.656" x2="52.292" y2="59.771"/>
		<g>
			<circle fill="#D9D9D9" cx="84.518" cy="90.656" r="1.88"/>
		</g>
		<g>
			<path fill="#D9D9D9" d="M50.113,57.683c1.39,0.602,3.284,1.172,4.731,1.24l-2.266,1.122l-1.024,2.312
				C51.424,60.914,50.774,59.045,50.113,57.683z"/>
		</g>
	</g>
	<g display="inline">
		
			<line fill="none" stroke="#000000" stroke-linecap="round" stroke-linejoin="round" x1="84.564" y1="90.623" x2="83.404" y2="45.68"/>
		<g>
			<circle cx="84.564" cy="90.623" r="1.88"/>
		</g>
		<g>
			<path d="M83.327,42.663c0.563,1.406,1.507,3.144,2.487,4.211l-2.399-0.798l-2.354,0.921
				C81.984,45.88,82.837,44.096,83.327,42.663z"/>
		</g>
	</g>
	<g display="inline">
		
			<line fill="none" stroke="#000000" stroke-linecap="round" stroke-linejoin="round" x1="84.564" y1="90.623" x2="42.335" y2="90.539"/>
		<g>
			<circle cx="84.564" cy="90.623" r="1.88"/>
		</g>
		<g>
			<path d="M39.317,90.533c1.421-0.524,3.185-1.419,4.278-2.37l-0.865,2.376l0.855,2.379C42.496,91.964,40.736,91.062,39.317,90.533
				z"/>
		</g>
	</g>
	<g display="inline">
		
			<line fill="none" stroke="#000000" stroke-linecap="round" stroke-miterlimit="10" x1="86.646" y1="23.581" x2="78.444" y2="1.041"/>
		
			<line fill="none" stroke="#000000" stroke-linecap="round" stroke-miterlimit="10" x1="73.358" y1="4.601" x2="91.285" y2="19.385"/>
		
			<line fill="none" stroke="#000000" stroke-linecap="round" stroke-miterlimit="10" x1="94.354" y1="14.396" x2="70.733" y2="10.227"/>
		
			<line fill="none" stroke="#000000" stroke-linecap="round" stroke-miterlimit="10" x1="71.274" y1="16.412" x2="93.814" y2="8.21"/>
		<line fill="none" stroke="#000000" stroke-linecap="round" stroke-miterlimit="10" x1="80.46" y1="24.123" x2="84.628" y2="0.5"/>
		
			<line fill="none" stroke="#000000" stroke-linecap="round" stroke-miterlimit="10" x1="90.255" y1="3.125" x2="74.835" y2="21.498"/>
		
			<circle fill="#FFFF00" stroke="#000000" stroke-linecap="round" stroke-linejoin="round" stroke-miterlimit="10" cx="82.544" cy="12.311" r="5.283"/>
	</g>
	
		<line display="inline" fill="none" stroke="#000000" stroke-linecap="round" stroke-linejoin="round" stroke-miterlimit="10" x1="10.21" y1="90.474" x2="20.377" y2="84.895"/>
	
		<line display="inline" fill="none" stroke="#000000" stroke-linecap="round" stroke-linejoin="round" stroke-miterlimit="10" x1="10.21" y1="90.474" x2="20.462" y2="95.829"/>
	<g display="inline">
		<path fill="#5F72FF" d="M19.163,91.414c-0.508-0.725-0.331-1.725,0.395-2.232c0.225-0.157,0.476-0.241,0.73-0.271
			c-0.078-0.501-0.184-1-0.338-1.491c-0.442,0.075-0.876,0.237-1.269,0.512c-1.416,0.991-1.761,2.943-0.769,4.359
			c0.494,0.706,1.226,1.144,2.011,1.285c0.156-0.49,0.279-0.988,0.36-1.494C19.848,92.026,19.435,91.802,19.163,91.414z"/>
		<path d="M19.163,91.414c0.271,0.388,0.685,0.613,1.121,0.666c0.167-1.044,0.167-2.113,0.004-3.17
			c-0.255,0.03-0.506,0.114-0.73,0.271C18.832,89.689,18.655,90.688,19.163,91.414z"/>
	</g>
	<path display="inline" fill="none" stroke="#000000" stroke-linecap="round" stroke-linejoin="round" stroke-miterlimit="10" d="
		M19.212,85.532c1.691,3.073,1.652,6.719,0.102,9.696"/>
	<text transform="matrix(1 0 0 1 59.8481 50.5063)" display="inline" font-family="'TimesNewRomanPS-BoldMT'" font-size="14">n</text>
	
		<text transform="matrix(1 0 0 1 41.0977 62.8682)" display="inline" fill="#D9D9D9" font-family="'TimesNewRomanPS-BoldMT'" font-size="14">h</text>
	<text transform="matrix(1 0 0 1 89.918 45.125)" display="inline" font-family="'TimesNewRomanPS-BoldMT'" font-size="14">l</text>
	<text transform="matrix(1 0 0 1 39.5552 85.3071)" display="inline" font-family="'TimesNewRomanPS-BoldMT'" font-size="14">v</text>
</g>
</svg>
