<?xml version="1.0" encoding="utf-8"?>
<!-- Generator: Adobe Illustrator 15.1.0, SVG Export Plug-In . SVG Version: 6.00 Build 0)  -->
<!DOCTYPE svg PUBLIC "-//W3C//DTD SVG 1.1 Tiny//EN" "http://www.w3.org/Graphics/SVG/1.1/DTD/svg11-tiny.dtd">
<svg version="1.1" baseProfile="tiny" xmlns="http://www.w3.org/2000/svg" xmlns:xlink="http://www.w3.org/1999/xlink" x="0px"
	 y="0px" width="162px" height="108px" viewBox="0 0 162 108" overflow="inherit" xml:space="preserve">
<g id="_x35_" display="none">
	
		<polygon display="inline" fill="#FAD5E5" stroke="#000000" stroke-linecap="round" stroke-linejoin="round" stroke-miterlimit="10" points="
		40.083,87.25 80.749,42.499 13,59.124 	"/>
	
		<polygon display="inline" fill="#FFFCD5" stroke="#000000" stroke-linecap="round" stroke-linejoin="round" stroke-miterlimit="10" points="
		40.083,87.25 115,87.25 80.749,42.499 	"/>
	
		<polygon display="inline" fill="#C7EAFB" stroke="#000000" stroke-linecap="round" stroke-linejoin="round" stroke-miterlimit="10" points="
		115,87.25 147.25,46.749 80.749,42.499 	"/>
	<g display="inline">
		
			<line fill="none" stroke="#000000" stroke-linecap="round" stroke-linejoin="round" x1="48.811" y1="60.374" x2="37" y2="42.749"/>
		<g>
			<circle cx="48.811" cy="60.374" r="1.88"/>
		</g>
		<g>
			<path d="M35.32,40.242c1.228,0.886,2.956,1.85,4.354,2.227l-2.455,0.609l-1.496,2.038C35.907,43.679,35.673,41.715,35.32,40.242z
				"/>
		</g>
	</g>
	<g display="inline">
		<line fill="none" stroke="#000000" stroke-linecap="round" stroke-linejoin="round" x1="79" y1="69.333" x2="75.875" y2="52"/>
		<g>
			<circle cx="79" cy="69.333" r="1.88"/>
		</g>
		<g>
			<path d="M75.34,49.03c0.77,1.304,1.967,2.878,3.098,3.784l-2.493-0.425l-2.187,1.269C74.501,52.415,75.074,50.521,75.34,49.03z"
				/>
		</g>
	</g>
	<g display="inline">
		
			<line fill="none" stroke="#ED1F24" stroke-linecap="round" stroke-linejoin="round" x1="80.749" y1="42.499" x2="79" y2="18.749"/>
		<g>
			<circle fill="#ED1F24" cx="80.749" cy="42.499" r="1.88"/>
		</g>
		<g>
			<path fill="#ED1F24" d="M78.778,15.74c0.63,1.377,1.656,3.068,2.686,4.087l-2.435-0.683l-2.308,1.032
				C77.591,19.017,78.358,17.194,78.778,15.74z"/>
		</g>
	</g>
	<g display="inline">
		
			<line fill="none" stroke="#000000" stroke-linecap="round" stroke-linejoin="round" x1="115" y1="57.249" x2="125.75" y2="35.249"/>
		<g>
			<circle cx="115" cy="57.249" r="1.88"/>
		</g>
		<g>
			<path d="M127.075,32.537c-0.15,1.507-0.116,3.485,0.26,4.884l-1.759-1.816l-2.514-0.271
				C124.397,34.77,125.979,33.582,127.075,32.537z"/>
		</g>
	</g>
</g>
<g id="_x34_" display="none">
	
		<polygon display="inline" fill="#FFFCD5" stroke="#000000" stroke-linecap="round" stroke-linejoin="round" stroke-miterlimit="10" points="
		27.786,80.527 129.255,80.527 82.865,19.917 	"/>
	<g display="inline">
		
			<line fill="none" stroke="#ED1F24" stroke-linecap="round" stroke-linejoin="round" x1="80.636" y1="56.262" x2="76.404" y2="32.785"/>
		<g>
			<circle fill="#ED1F24" cx="80.636" cy="56.262" r="1.88"/>
		</g>
		<g>
			<path fill="#ED1F24" d="M75.869,29.815c0.77,1.304,1.967,2.878,3.098,3.784l-2.493-0.425l-2.187,1.268
				C75.03,33.2,75.603,31.306,75.869,29.815z"/>
		</g>
	</g>
</g>
<g id="_x33_">
	
		<polygon fill="#FFFFFF" stroke="#000000" stroke-width="0.5" stroke-linecap="round" stroke-linejoin="round" stroke-miterlimit="10" points="
		29.854,71.625 26.769,74.885 27.786,80.527 30.84,77.166 	"/>
	
		<polygon fill="#FFFCD5" stroke="#000000" stroke-width="0.5" stroke-linecap="round" stroke-linejoin="round" stroke-miterlimit="10" points="
		27.786,80.527 129.255,80.527 82.865,19.917 	"/>
	<g>
		
			<line fill="none" stroke="#ED1F24" stroke-linecap="round" stroke-linejoin="round" x1="27.786" y1="80.527" x2="23.553" y2="57.051"/>
		<g>
			<circle fill="#ED1F24" cx="27.786" cy="80.527" r="1.88"/>
		</g>
		<g>
			<path fill="#ED1F24" d="M23.018,54.081c0.77,1.304,1.967,2.878,3.098,3.784l-2.493-0.425l-2.187,1.269
				C22.18,57.465,22.752,55.572,23.018,54.081z"/>
		</g>
	</g>
	<g>
		
			<line fill="none" stroke="#000000" stroke-linecap="round" stroke-linejoin="round" x1="27.786" y1="80.527" x2="40.699" y2="66.318"/>
		<g>
			<circle cx="27.786" cy="80.527" r="1.88"/>
		</g>
		<g>
			<path d="M42.728,64.084c-0.565,1.405-1.084,3.313-1.114,4.762l-1.181-2.236l-2.338-0.962
				C39.534,65.481,41.384,64.782,42.728,64.084z"/>
		</g>
	</g>
	<g>
		
			<line fill="none" stroke="#000000" stroke-linecap="round" stroke-linejoin="round" x1="27.786" y1="80.527" x2="48.159" y2="80.359"/>
		<g>
			<circle cx="27.786" cy="80.527" r="1.88"/>
		</g>
		<g>
			<path d="M51.177,80.334c-1.416,0.539-3.17,1.452-4.254,2.413l0.84-2.385l-0.88-2.371C47.983,78.935,49.752,79.819,51.177,80.334z
				"/>
		</g>
	</g>
</g>
<g id="_x32_" display="none">
	
		<polygon display="inline" fill="#FFFCD5" stroke="#000000" stroke-width="0.5" stroke-linecap="round" stroke-linejoin="round" stroke-miterlimit="10" points="
		27.786,80.527 129.255,80.527 82.865,19.917 	"/>
	<path display="inline" fill="none" d="M27.786,80.527"/>
	<g display="inline">
		
			<line fill="none" stroke="#000000" stroke-linecap="round" stroke-linejoin="round" x1="27.786" y1="80.527" x2="82.865" y2="19.917"/>
		<g>
			<circle cx="27.786" cy="80.527" r="2.82"/>
		</g>
		<g>
			<path d="M85.909,16.567c-0.847,2.107-1.626,4.97-1.671,7.143l-1.772-3.354l-3.507-1.443
				C81.117,18.661,83.892,17.612,85.909,16.567z"/>
		</g>
	</g>
	<g display="inline">
		
			<line fill="none" stroke="#000000" stroke-linecap="round" stroke-linejoin="round" x1="27.786" y1="80.527" x2="129.255" y2="80.527"/>
		<g>
			<circle cx="27.786" cy="80.527" r="2.82"/>
		</g>
		<g>
			<path d="M133.781,80.527c-2.13,0.79-4.772,2.139-6.411,3.567l1.291-3.567l-1.291-3.566
				C129.009,78.39,131.651,79.738,133.781,80.527z"/>
		</g>
	</g>
	<text transform="matrix(1 0 0 1 73.0005 95.7646)" display="inline" font-family="'TimesNewRomanPS-BoldMT'" font-size="18">a</text>
	<text transform="matrix(1 0 0 1 44.2505 46.5146)" display="inline" font-family="'TimesNewRomanPS-BoldMT'" font-size="18">b</text>
	<text transform="matrix(1 0 0 1 16.5005 95.7646)" display="inline" font-family="'TimesNewRomanPS-BoldMT'" font-size="18">v</text>
	<text transform="matrix(1 0 0 1 23.7007 99.8276)" display="inline" font-family="'TimesNewRomanPSMT'" font-size="12">0</text>
	<text transform="matrix(1 0 0 1 126.7148 95.7646)" display="inline" font-family="'TimesNewRomanPS-BoldMT'" font-size="18">v</text>
	<text transform="matrix(1 0 0 1 133.915 99.8276)" display="inline" font-family="'TimesNewRomanPSMT'" font-size="12">1</text>
	<text transform="matrix(1 0 0 1 85.5757 16.1934)" display="inline" font-family="'TimesNewRomanPS-BoldMT'" font-size="18">v</text>
	<text transform="matrix(1 0 0 1 92.7759 20.2563)" display="inline" font-family="'TimesNewRomanPSMT'" font-size="12">2</text>
</g>
<g id="_x31_" display="none">
	
		<polygon display="inline" fill="#FFFCD5" stroke="#000000" stroke-width="0.5" stroke-linecap="round" stroke-linejoin="round" stroke-miterlimit="10" points="
		27.786,80.527 129.255,80.527 82.865,19.917 	"/>
	<path display="inline" fill="none" d="M27.786,80.527"/>
	<g display="inline">
		
			<line fill="none" stroke="#000000" stroke-width="0.5" stroke-linecap="round" stroke-linejoin="round" x1="27.786" y1="80.527" x2="82.865" y2="19.917"/>
		<g>
			<circle cx="27.786" cy="80.527" r="2.82"/>
		</g>
		<g>
			<circle cx="82.865" cy="19.917" r="2.82"/>
		</g>
	</g>
	<g display="inline">
		
			<line fill="none" stroke="#000000" stroke-width="0.5" stroke-linecap="round" stroke-linejoin="round" x1="27.786" y1="80.527" x2="129.255" y2="80.527"/>
		<g>
			<circle cx="27.786" cy="80.527" r="2.82"/>
		</g>
		<g>
			<circle cx="129.255" cy="80.527" r="2.82"/>
		</g>
	</g>
	<text transform="matrix(1 0 0 1 16.5005 95.7646)" display="inline" font-family="'TimesNewRomanPS-BoldMT'" font-size="18">v</text>
	<text transform="matrix(1 0 0 1 23.7007 99.8276)" display="inline" font-family="'TimesNewRomanPSMT'" font-size="12">0</text>
	<text transform="matrix(1 0 0 1 126.7148 95.7646)" display="inline" font-family="'TimesNewRomanPS-BoldMT'" font-size="18">v</text>
	<text transform="matrix(1 0 0 1 133.915 99.8276)" display="inline" font-family="'TimesNewRomanPSMT'" font-size="12">1</text>
	<text transform="matrix(1 0 0 1 85.5757 16.1934)" display="inline" font-family="'TimesNewRomanPS-BoldMT'" font-size="18">v</text>
	<text transform="matrix(1 0 0 1 92.7759 20.2563)" display="inline" font-family="'TimesNewRomanPSMT'" font-size="12">2</text>
</g>
</svg>
