<?xml version="1.0" encoding="utf-8"?>
<!-- Generator: Adobe Illustrator 15.1.0, SVG Export Plug-In . SVG Version: 6.00 Build 0)  -->
<!DOCTYPE svg PUBLIC "-//W3C//DTD SVG 1.1 Tiny//EN" "http://www.w3.org/Graphics/SVG/1.1/DTD/svg11-tiny.dtd">
<svg version="1.1" baseProfile="tiny" xmlns="http://www.w3.org/2000/svg" xmlns:xlink="http://www.w3.org/1999/xlink" x="0px"
	 y="0px" width="390px" height="300px" viewBox="0 0 390 300" overflow="inherit" xml:space="preserve">
<g id="Layer_1">
	<polygon fill="#F2F2F2" stroke="#BFBFBF" stroke-miterlimit="10" points="330,0 130,100 130,200 330,300 	"/>
	<g>
		<g>
			<rect x="240" y="215" fill="#FFFFEB" stroke="#000000" stroke-miterlimit="10" width="50" height="25"/>
			<rect x="240" y="190" fill="#CC0000" stroke="#000000" stroke-miterlimit="10" width="50" height="25"/>
		</g>
	</g>
	<polygon fill="none" stroke="#BFBFBF" stroke-miterlimit="10" points="30,150 130,200 130,100 	"/>
	<g>
		<g>
			<path fill="#0079FF" d="M24.675,166.139c1.405-2.141,2.538-4.474,3.352-6.951C26.247,157.657,25,154.121,25,150
				c0-4.121,1.247-7.658,3.027-9.188c-0.814-2.477-1.947-4.81-3.352-6.951C22.158,137.372,20.5,143.295,20.5,150
				C20.5,156.705,22.158,162.628,24.675,166.139z"/>
			<path d="M24.675,166.139c-2.518-3.511-4.175-9.435-4.175-16.14c0-6.705,1.658-12.628,4.175-16.139
				c-0.183-0.278-0.371-0.552-0.563-0.824C21.331,136.728,19.5,142.953,19.5,150c0,7.047,1.831,13.272,4.613,16.964
				C24.305,166.691,24.493,166.417,24.675,166.139z"/>
			<path d="M25,150c0,4.122,1.247,7.658,3.027,9.189c0.951-2.894,1.473-5.98,1.473-9.188s-0.521-6.295-1.473-9.189
				C26.247,142.342,25,145.878,25,150z"/>
			<path d="M30.5,150c0-8.409-3.42-16.034-8.943-21.557l-0.707,0.707c1.196,1.197,2.284,2.5,3.262,3.886
				c0.192,0.272,0.38,0.546,0.563,0.824c1.405,2.141,2.538,4.474,3.352,6.951c0.952,2.894,1.473,5.981,1.473,9.189
				s-0.521,6.294-1.473,9.188c-0.814,2.477-1.947,4.81-3.352,6.951c-0.183,0.278-0.371,0.552-0.562,0.824
				c-0.978,1.386-2.066,2.69-3.263,3.887l0.707,0.707C27.08,166.034,30.5,158.409,30.5,150z"/>
		</g>
		<line fill="none" stroke="#000000" stroke-miterlimit="10" x1="0" y1="150" x2="30" y2="120"/>
		<line fill="none" stroke="#000000" stroke-miterlimit="10" x1="0" y1="150" x2="30" y2="180"/>
	</g>
	<path d="M89.5,149.75c0,9.697-1.557,19.037-4.422,27.789l0.904,0.452c2.927-8.891,4.518-18.383,4.518-28.241
		c0-9.699-1.54-19.044-4.378-27.811l-0.904,0.452C87.994,131.019,89.5,140.211,89.5,149.75z"/>
	<g>
		<path d="M80.48,184.176h1.734l-2.508,5.73c0.117,2.148,0.488,3.223,1.113,3.223c0.219,0,0.426-0.115,0.621-0.346
			s0.312-0.518,0.352-0.861h0.48c-0.234,1.906-0.777,2.859-1.629,2.859c-0.297,0-0.57-0.156-0.82-0.469s-0.469-1.406-0.656-3.281
			c-1.438,2.5-3.055,3.75-4.852,3.75c-1.008,0-1.82-0.348-2.438-1.043s-0.926-1.625-0.926-2.789c0-1.133,0.285-2.232,0.855-3.299
			s1.281-1.959,2.133-2.678s1.793-1.078,2.824-1.078c0.734,0,1.311,0.227,1.729,0.68s0.705,1.156,0.861,2.109L80.48,184.176z
			 M78.91,187.574c-0.039-0.57-0.219-1.211-0.539-1.922s-0.793-1.066-1.418-1.066c-0.914,0-1.838,0.877-2.771,2.631
			s-1.4,3.299-1.4,4.635c0,0.734,0.154,1.316,0.463,1.746s0.732,0.645,1.271,0.645c0.562,0,1.07-0.291,1.523-0.873
			s1.082-1.779,1.887-3.592L78.91,187.574z"/>
	</g>
	<g>
		<g>
			<line fill="none" stroke="#000000" stroke-miterlimit="10" x1="130" y1="85" x2="30" y2="85"/>
			<line fill="none" stroke="#000000" stroke-miterlimit="10" x1="30" y1="80" x2="30" y2="90"/>
			<line fill="none" stroke="#000000" stroke-miterlimit="10" x1="130" y1="80" x2="130" y2="90"/>
		</g>
		<g>
			<path d="M15.297,79.395l-1.559,5.332c1.461-2.18,2.58-3.613,3.357-4.301s1.525-1.031,2.244-1.031
				c0.391,0,0.713,0.129,0.967,0.387s0.381,0.594,0.381,1.008c0,0.469-0.113,1.094-0.34,1.875l-1.43,4.934
				c-0.164,0.57-0.246,0.918-0.246,1.043c0,0.109,0.031,0.201,0.094,0.275s0.129,0.111,0.199,0.111c0.094,0,0.207-0.051,0.34-0.152
				c0.414-0.328,0.867-0.828,1.359-1.5l0.363,0.223c-0.727,1.039-1.414,1.781-2.062,2.227c-0.453,0.305-0.859,0.457-1.219,0.457
				c-0.289,0-0.52-0.088-0.691-0.264s-0.258-0.412-0.258-0.709c0-0.375,0.133-1.02,0.398-1.934l1.359-4.711
				c0.172-0.586,0.258-1.043,0.258-1.371c0-0.156-0.051-0.283-0.152-0.381s-0.227-0.146-0.375-0.146
				c-0.219,0-0.48,0.094-0.785,0.281c-0.578,0.352-1.18,0.932-1.805,1.74s-1.285,1.842-1.98,3.1
				c-0.367,0.664-0.672,1.391-0.914,2.18L12.215,90h-1.758l2.133-7.336c0.25-0.883,0.375-1.414,0.375-1.594
				c0-0.172-0.068-0.322-0.205-0.451s-0.307-0.193-0.51-0.193c-0.094,0-0.258,0.016-0.492,0.047l-0.445,0.07l-0.07-0.422
				L15.297,79.395z"/>
		</g>
	</g>
	<g>
		<g>
			<line fill="none" stroke="#000000" stroke-miterlimit="10" x1="330" y1="25" x2="30" y2="25"/>
			<line fill="none" stroke="#000000" stroke-miterlimit="10" x1="30" y1="20" x2="30" y2="30"/>
			<line fill="none" stroke="#000000" stroke-miterlimit="10" x1="330" y1="20" x2="330" y2="30"/>
		</g>
		<g>
			<path d="M17.113,19.676l-0.211,0.773h-1.711l-1.289,5.121c-0.57,2.258-1.145,4.004-1.723,5.238
				c-0.82,1.742-1.703,2.945-2.648,3.609c-0.719,0.508-1.438,0.762-2.156,0.762c-0.469,0-0.867-0.141-1.195-0.422
				c-0.242-0.195-0.363-0.449-0.363-0.762c0-0.25,0.1-0.467,0.299-0.65s0.443-0.275,0.732-0.275c0.211,0,0.389,0.066,0.533,0.199
				s0.217,0.285,0.217,0.457s-0.082,0.332-0.246,0.48c-0.125,0.109-0.188,0.191-0.188,0.246c0,0.07,0.027,0.125,0.082,0.164
				c0.07,0.055,0.18,0.082,0.328,0.082c0.336,0,0.689-0.105,1.061-0.316s0.701-0.525,0.99-0.943s0.562-1.021,0.82-1.811
				c0.109-0.328,0.402-1.41,0.879-3.246l2.039-7.934h-2.039l0.164-0.773c0.648,0,1.102-0.045,1.359-0.135s0.494-0.262,0.709-0.516
				s0.494-0.729,0.838-1.424c0.461-0.938,0.902-1.664,1.324-2.18c0.578-0.695,1.186-1.217,1.822-1.564s1.236-0.521,1.799-0.521
				c0.594,0,1.07,0.15,1.43,0.451s0.539,0.627,0.539,0.979c0,0.273-0.09,0.504-0.27,0.691s-0.41,0.281-0.691,0.281
				c-0.242,0-0.439-0.07-0.592-0.211s-0.229-0.309-0.229-0.504c0-0.125,0.051-0.279,0.152-0.463s0.152-0.307,0.152-0.369
				c0-0.109-0.035-0.191-0.105-0.246c-0.102-0.078-0.25-0.117-0.445-0.117c-0.492,0-0.934,0.156-1.324,0.469
				c-0.523,0.414-0.992,1.062-1.406,1.945c-0.211,0.461-0.598,1.605-1.16,3.434H17.113z"/>
		</g>
	</g>
</g>
<g id="Layer_2">
	<g>
		<line fill="none" stroke="#BFBFBF" stroke-miterlimit="10" x1="30" y1="150" x2="240" y2="190"/>
		<line fill="none" stroke="#BFBFBF" stroke-miterlimit="10" x1="240" y1="215" x2="30" y2="150"/>
		<line fill="none" stroke="#BFBFBF" stroke-miterlimit="10" x1="240" y1="240" x2="30" y2="150"/>
	</g>
	<g>
		
			<rect x="128.5" y="180.596" fill="#FFFFEB" stroke="#000000" stroke-width="0.5" stroke-miterlimit="10" width="3" height="11.904"/>
	</g>
	<g>
		
			<rect x="128.5" y="168.691" fill="#CC0000" stroke="#000000" stroke-width="0.5" stroke-miterlimit="10" width="3" height="11.905"/>
	</g>
</g>
<g id="Layer_3">
	<g>
		<g>
			<line fill="none" stroke="#000000" stroke-miterlimit="10" x1="350" y1="150" x2="350" y2="170"/>
			<line fill="none" stroke="#000000" stroke-miterlimit="10" x1="345" y1="150" x2="355" y2="150"/>
			<line fill="none" stroke="#000000" stroke-miterlimit="10" x1="345" y1="170" x2="355" y2="170"/>
		</g>
		<g>
			<path d="M346.832,129.395c0.266,0.453,0.449,0.877,0.551,1.271s0.203,1.17,0.305,2.326l0.516,5.766
				c0.469-0.562,1.148-1.453,2.039-2.672c0.43-0.594,0.961-1.402,1.594-2.426c0.383-0.625,0.617-1.062,0.703-1.312
				c0.047-0.125,0.07-0.254,0.07-0.387c0-0.086-0.027-0.156-0.082-0.211s-0.197-0.119-0.428-0.193s-0.422-0.211-0.574-0.41
				s-0.229-0.428-0.229-0.686c0-0.32,0.094-0.578,0.281-0.773s0.422-0.293,0.703-0.293c0.344,0,0.637,0.143,0.879,0.428
				s0.363,0.678,0.363,1.178c0,0.617-0.211,1.322-0.633,2.115s-1.234,2.01-2.438,3.65s-2.66,3.43-4.371,5.367
				c-1.18,1.336-2.055,2.178-2.625,2.525s-1.059,0.521-1.465,0.521c-0.242,0-0.455-0.092-0.639-0.275s-0.275-0.396-0.275-0.639
				c0-0.305,0.127-0.582,0.381-0.832s0.529-0.375,0.826-0.375c0.156,0,0.285,0.035,0.387,0.105c0.062,0.039,0.131,0.15,0.205,0.334
				s0.143,0.307,0.205,0.369c0.039,0.039,0.086,0.059,0.141,0.059c0.047,0,0.129-0.039,0.246-0.117c0.43-0.266,0.93-0.688,1.5-1.266
				c0.75-0.766,1.305-1.391,1.664-1.875l-0.656-7.43c-0.109-1.227-0.273-1.973-0.492-2.238s-0.586-0.398-1.102-0.398
				c-0.164,0-0.457,0.023-0.879,0.07l-0.105-0.434L346.832,129.395z"/>
		</g>
		<g>
			<path d="M357.952,142.084c-0.609,0.732-1.225,1.27-1.846,1.613c-0.621,0.342-1.277,0.514-1.969,0.514
				c-0.832,0-1.481-0.234-1.946-0.703c-0.467-0.469-0.699-1.099-0.699-1.89c0-0.896,0.25-1.778,0.752-2.646
				c0.5-0.867,1.174-1.571,2.021-2.113c0.846-0.542,1.677-0.813,2.491-0.813c0.639,0,1.116,0.134,1.433,0.399
				c0.316,0.268,0.475,0.594,0.475,0.98c0,0.363-0.111,0.674-0.334,0.932c-0.164,0.199-0.366,0.299-0.606,0.299
				c-0.182,0-0.333-0.059-0.452-0.176c-0.121-0.117-0.181-0.264-0.181-0.439c0-0.111,0.022-0.214,0.065-0.308
				c0.045-0.094,0.135-0.206,0.273-0.339c0.137-0.131,0.221-0.227,0.25-0.285s0.044-0.12,0.044-0.185
				c0-0.123-0.056-0.226-0.167-0.308c-0.17-0.117-0.41-0.176-0.721-0.176c-0.574,0-1.143,0.202-1.705,0.606
				s-1.043,0.979-1.441,1.723c-0.48,0.902-0.721,1.805-0.721,2.707c0,0.598,0.17,1.071,0.51,1.419
				c0.34,0.35,0.803,0.523,1.389,0.523c0.451,0,0.898-0.112,1.34-0.338c0.443-0.226,0.939-0.635,1.49-1.227L357.952,142.084z"/>
		</g>
	</g>
	<g>
		<g>
			<line fill="none" stroke="#000000" stroke-miterlimit="10" x1="380" y1="150" x2="380" y2="190"/>
			<line fill="none" stroke="#000000" stroke-miterlimit="10" x1="375" y1="150" x2="385" y2="150"/>
			<line fill="none" stroke="#000000" stroke-miterlimit="10" x1="375" y1="190" x2="385" y2="190"/>
		</g>
		<g>
			<path d="M376.832,129.395c0.266,0.453,0.449,0.877,0.551,1.271s0.203,1.17,0.305,2.326l0.516,5.766
				c0.469-0.562,1.148-1.453,2.039-2.672c0.43-0.594,0.961-1.402,1.594-2.426c0.383-0.625,0.617-1.062,0.703-1.312
				c0.047-0.125,0.07-0.254,0.07-0.387c0-0.086-0.027-0.156-0.082-0.211s-0.197-0.119-0.428-0.193s-0.422-0.211-0.574-0.41
				s-0.229-0.428-0.229-0.686c0-0.32,0.094-0.578,0.281-0.773s0.422-0.293,0.703-0.293c0.344,0,0.637,0.143,0.879,0.428
				s0.363,0.678,0.363,1.178c0,0.617-0.211,1.322-0.633,2.115s-1.234,2.01-2.438,3.65s-2.66,3.43-4.371,5.367
				c-1.18,1.336-2.055,2.178-2.625,2.525s-1.059,0.521-1.465,0.521c-0.242,0-0.455-0.092-0.639-0.275s-0.275-0.396-0.275-0.639
				c0-0.305,0.127-0.582,0.381-0.832s0.529-0.375,0.826-0.375c0.156,0,0.285,0.035,0.387,0.105c0.062,0.039,0.131,0.15,0.205,0.334
				s0.143,0.307,0.205,0.369c0.039,0.039,0.086,0.059,0.141,0.059c0.047,0,0.129-0.039,0.246-0.117c0.43-0.266,0.93-0.688,1.5-1.266
				c0.75-0.766,1.305-1.391,1.664-1.875l-0.656-7.43c-0.109-1.227-0.273-1.973-0.492-2.238s-0.586-0.398-1.102-0.398
				c-0.164,0-0.457,0.023-0.879,0.07l-0.105-0.434L376.832,129.395z"/>
		</g>
		<g>
			<path d="M383.145,140.687c-0.041,0.293-0.062,0.536-0.062,0.729c0,0.521,0.185,0.966,0.554,1.332s0.817,0.549,1.345,0.549
				c0.422,0,0.827-0.086,1.218-0.26c0.389-0.172,0.968-0.555,1.735-1.146l0.185,0.255c-1.389,1.377-2.713,2.065-3.973,2.065
				c-0.855,0-1.5-0.27-1.934-0.809s-0.65-1.134-0.65-1.784c0-0.873,0.27-1.767,0.809-2.681s1.216-1.624,2.03-2.131
				s1.652-0.761,2.514-0.761c0.621,0,1.081,0.126,1.38,0.378s0.448,0.551,0.448,0.896c0,0.486-0.193,0.952-0.58,1.397
				c-0.51,0.58-1.26,1.049-2.25,1.406C385.257,140.364,384.334,140.552,383.145,140.687z M383.206,140.256
				c0.867-0.1,1.573-0.27,2.118-0.51c0.721-0.322,1.262-0.707,1.621-1.156c0.361-0.447,0.541-0.874,0.541-1.278
				c0-0.246-0.078-0.445-0.232-0.598c-0.156-0.152-0.377-0.229-0.664-0.229c-0.598,0-1.232,0.318-1.902,0.954
				C384.016,138.075,383.522,139.014,383.206,140.256z"/>
		</g>
	</g>
	<g>
		<g>
			<line fill="none" stroke="#000000" stroke-miterlimit="10" x1="240" y1="55" x2="30" y2="55"/>
			<line fill="none" stroke="#000000" stroke-miterlimit="10" x1="30" y1="50" x2="30" y2="60"/>
			<line fill="none" stroke="#000000" stroke-miterlimit="10" x1="240" y1="50" x2="240" y2="60"/>
		</g>
		<g>
			<path d="M12.016,49.676h7.441v0.293l-8.109,8.438h3.434c0.812,0,1.328-0.031,1.547-0.094s0.42-0.195,0.604-0.398
				s0.389-0.57,0.615-1.102h0.434L16.961,60H9.332v-0.34l8.109-8.438h-3.375c-0.711,0-1.141,0.02-1.289,0.059
				c-0.219,0.047-0.436,0.17-0.65,0.369s-0.436,0.529-0.662,0.99H11.02L12.016,49.676z"/>
		</g>
		<g>
			<path d="M20.145,60.687c-0.041,0.293-0.062,0.536-0.062,0.729c0,0.521,0.185,0.966,0.554,1.332s0.817,0.549,1.345,0.549
				c0.422,0,0.828-0.086,1.217-0.26c0.39-0.172,0.968-0.555,1.736-1.146l0.185,0.255c-1.389,1.377-2.713,2.065-3.973,2.065
				c-0.855,0-1.5-0.27-1.934-0.809s-0.65-1.134-0.65-1.784c0-0.873,0.27-1.767,0.809-2.681s1.216-1.624,2.03-2.131
				s1.652-0.761,2.514-0.761c0.621,0,1.081,0.126,1.38,0.378s0.448,0.551,0.448,0.896c0,0.486-0.193,0.952-0.58,1.397
				c-0.51,0.58-1.26,1.049-2.25,1.406C22.257,60.364,21.334,60.552,20.145,60.687z M20.206,60.256c0.867-0.1,1.573-0.27,2.118-0.51
				c0.721-0.322,1.261-0.707,1.622-1.156c0.36-0.447,0.541-0.874,0.541-1.278c0-0.246-0.078-0.445-0.233-0.598
				s-0.376-0.229-0.664-0.229c-0.598,0-1.232,0.318-1.903,0.954S20.522,59.014,20.206,60.256z"/>
		</g>
	</g>
	<g>
		<rect x="120" y="150" fill="#FFFFFF" stroke="#000000" stroke-miterlimit="10" width="10" height="10"/>
		<rect x="230" y="150" fill="#FFFFFF" stroke="#000000" stroke-miterlimit="10" width="10" height="10"/>
		<line fill="none" stroke="#000000" stroke-width="2" stroke-miterlimit="10" x1="130" y1="169.048" x2="130" y2="150"/>
	</g>
	<circle cx="240" cy="190" r="3.125"/>
	<circle cx="130" cy="169.048" r="3.125"/>
	<polygon fill="none" stroke="#000000" stroke-width="2" stroke-miterlimit="10" points="240,190 30,150 240,150 	"/>
</g>
</svg>
