<?xml version="1.0" encoding="utf-8"?>
<!-- Generator: Adobe Illustrator 15.1.0, SVG Export Plug-In . SVG Version: 6.00 Build 0)  -->
<!DOCTYPE svg PUBLIC "-//W3C//DTD SVG 1.1 Tiny//EN" "http://www.w3.org/Graphics/SVG/1.1/DTD/svg11-tiny.dtd">
<svg version="1.1" baseProfile="tiny" id="Layer_1" xmlns="http://www.w3.org/2000/svg" xmlns:xlink="http://www.w3.org/1999/xlink"
	 x="0px" y="0px" width="300px" height="300px" viewBox="0 0 300 300" overflow="inherit" xml:space="preserve">
<g>
	<line fill="none" stroke="#808080" stroke-width="0.5" x1="-44" y1="53" x2="-64" y2="64"/>
	<line fill="none" stroke="#808080" stroke-width="0.5" x1="-44" y1="53" x2="-5" y2="53"/>
	<line fill="none" stroke="#808080" stroke-width="0.5" x1="-64" y1="64" x2="-21" y2="64"/>
	<line fill="none" stroke="#808080" stroke-width="0.5" x1="-64" y1="64" x2="-88" y2="79"/>
	<line fill="none" stroke="#808080" stroke-width="0.5" x1="-21" y1="64" x2="-5" y2="53"/>
	<line fill="none" stroke="#808080" stroke-width="0.5" x1="-21" y1="64" x2="22" y2="64"/>
	<line fill="none" stroke="#808080" stroke-width="0.5" x1="-21" y1="64" x2="-41" y2="79"/>
	<line fill="none" stroke="#808080" stroke-width="0.5" x1="-5" y1="53" x2="34" y2="53"/>
	<line fill="none" stroke="#808080" stroke-width="0.5" x1="22" y1="64" x2="34" y2="53"/>
	<line fill="none" stroke="#808080" stroke-width="0.5" x1="22" y1="64" x2="64" y2="64"/>
	<line fill="none" stroke="#808080" stroke-width="0.5" x1="22" y1="64" x2="7" y2="79"/>
	<line fill="none" stroke="#808080" stroke-width="0.5" x1="34" y1="53" x2="72" y2="53"/>
	<line fill="none" stroke="#808080" stroke-width="0.5" x1="64" y1="64" x2="72" y2="53"/>
	<line fill="none" stroke="#808080" stroke-width="0.5" x1="64" y1="64" x2="107" y2="64"/>
	<line fill="none" stroke="#808080" stroke-width="0.5" x1="64" y1="64" x2="55" y2="79"/>
	<line fill="none" stroke="#808080" stroke-width="0.5" x1="72" y1="53" x2="111" y2="53"/>
	<line fill="none" stroke="#808080" stroke-width="0.5" x1="107" y1="64" x2="111" y2="53"/>
	<line fill="none" stroke="#808080" stroke-width="0.5" x1="107" y1="64" x2="150" y2="64"/>
	<line fill="none" stroke="#808080" stroke-width="0.5" x1="107" y1="64" x2="102" y2="79"/>
	<line fill="none" stroke="#808080" stroke-width="0.5" x1="111" y1="53" x2="150" y2="53"/>
	<line fill="none" stroke="#808080" stroke-width="0.5" x1="150" y1="64" x2="193" y2="64"/>
	<line fill="none" stroke="#808080" stroke-width="0.5" x1="150" y1="53" x2="189" y2="53"/>
	<line fill="none" stroke="#808080" stroke-width="0.5" x1="193" y1="64" x2="189" y2="53"/>
	<line fill="none" stroke="#808080" stroke-width="0.5" x1="193" y1="64" x2="236" y2="64"/>
	<line fill="none" stroke="#808080" stroke-width="0.5" x1="193" y1="64" x2="198" y2="79"/>
	<line fill="none" stroke="#808080" stroke-width="0.5" x1="189" y1="53" x2="228" y2="53"/>
	<line fill="none" stroke="#808080" stroke-width="0.5" x1="236" y1="64" x2="228" y2="53"/>
	<line fill="none" stroke="#808080" stroke-width="0.5" x1="236" y1="64" x2="278" y2="64"/>
	<line fill="none" stroke="#808080" stroke-width="0.5" x1="236" y1="64" x2="245" y2="79"/>
	<line fill="none" stroke="#808080" stroke-width="0.5" x1="228" y1="53" x2="266" y2="53"/>
	<line fill="none" stroke="#808080" stroke-width="0.5" x1="278" y1="64" x2="266" y2="53"/>
	<line fill="none" stroke="#808080" stroke-width="0.5" x1="278" y1="64" x2="321" y2="64"/>
	<line fill="none" stroke="#808080" stroke-width="0.5" x1="278" y1="64" x2="293" y2="79"/>
	<line fill="none" stroke="#808080" stroke-width="0.5" x1="266" y1="53" x2="305" y2="53"/>
	<line fill="none" stroke="#808080" stroke-width="0.5" x1="321" y1="64" x2="305" y2="53"/>
	<line fill="none" stroke="#808080" stroke-width="0.5" x1="321" y1="64" x2="364" y2="64"/>
	<line fill="none" stroke="#808080" stroke-width="0.5" x1="321" y1="64" x2="341" y2="79"/>
	<line fill="none" stroke="#808080" stroke-width="0.5" x1="305" y1="53" x2="344" y2="53"/>
	<line fill="none" stroke="#808080" stroke-width="0.5" x1="364" y1="64" x2="344" y2="53"/>
	<line fill="none" stroke="#808080" stroke-width="0.5" x1="364" y1="64" x2="388" y2="79"/>
	<line fill="none" stroke="#808080" stroke-width="0.5" x1="-88" y1="79" x2="-41" y2="79"/>
	<line fill="none" stroke="#808080" stroke-width="0.5" x1="-88" y1="79" x2="-119" y2="96"/>
	<line fill="none" stroke="#808080" stroke-width="0.5" x1="-41" y1="79" x2="7" y2="79"/>
	<line fill="none" stroke="#808080" stroke-width="0.5" x1="-41" y1="79" x2="-65" y2="96"/>
	<line fill="none" stroke="#808080" stroke-width="0.5" x1="7" y1="79" x2="55" y2="79"/>
	<line fill="none" stroke="#808080" stroke-width="0.5" x1="7" y1="79" x2="-11" y2="96"/>
	<line fill="none" stroke="#808080" stroke-width="0.5" x1="55" y1="79" x2="102" y2="79"/>
	<line fill="none" stroke="#808080" stroke-width="0.5" x1="55" y1="79" x2="42" y2="96"/>
	<line fill="none" stroke="#808080" stroke-width="0.5" x1="102" y1="79" x2="150" y2="79"/>
	<line fill="none" stroke="#808080" stroke-width="0.5" x1="102" y1="79" x2="96" y2="96"/>
	<line fill="none" stroke="#808080" stroke-width="0.5" x1="150" y1="79" x2="198" y2="79"/>
	<line fill="none" stroke="#808080" stroke-width="0.5" x1="198" y1="79" x2="245" y2="79"/>
	<line fill="none" stroke="#808080" stroke-width="0.5" x1="198" y1="79" x2="204" y2="96"/>
	<line fill="none" stroke="#808080" stroke-width="0.5" x1="245" y1="79" x2="293" y2="79"/>
	<line fill="none" stroke="#808080" stroke-width="0.5" x1="245" y1="79" x2="258" y2="96"/>
	<line fill="none" stroke="#808080" stroke-width="0.5" x1="293" y1="79" x2="341" y2="79"/>
	<line fill="none" stroke="#808080" stroke-width="0.5" x1="293" y1="79" x2="311" y2="96"/>
	<line fill="none" stroke="#808080" stroke-width="0.5" x1="341" y1="79" x2="388" y2="79"/>
	<line fill="none" stroke="#808080" stroke-width="0.5" x1="341" y1="79" x2="365" y2="96"/>
	<line fill="none" stroke="#808080" stroke-width="0.5" x1="388" y1="79" x2="419" y2="96"/>
	<line fill="none" stroke="#808080" stroke-width="0.5" x1="-119" y1="96" x2="-65" y2="96"/>
	<line fill="none" stroke="#808080" stroke-width="0.5" x1="-119" y1="96" x2="-159" y2="119"/>
	<line fill="none" stroke="#808080" stroke-width="0.5" x1="-65" y1="96" x2="-11" y2="96"/>
	<line fill="none" stroke="#808080" stroke-width="0.5" x1="-65" y1="96" x2="-97" y2="119"/>
	<line fill="none" stroke="#808080" stroke-width="0.5" x1="-11" y1="96" x2="42" y2="96"/>
	<line fill="none" stroke="#808080" stroke-width="0.5" x1="-11" y1="96" x2="-35" y2="119"/>
	<line fill="none" stroke="#808080" stroke-width="0.5" x1="42" y1="96" x2="96" y2="96"/>
	<line fill="none" stroke="#808080" stroke-width="0.5" x1="42" y1="96" x2="27" y2="119"/>
	<line fill="none" stroke="#808080" stroke-width="0.5" x1="96" y1="96" x2="150" y2="96"/>
	<line fill="none" stroke="#808080" stroke-width="0.5" x1="96" y1="96" x2="88" y2="119"/>
	<line fill="none" stroke="#808080" stroke-width="0.5" x1="150" y1="96" x2="204" y2="96"/>
	<line fill="none" stroke="#808080" stroke-width="0.5" x1="204" y1="96" x2="258" y2="96"/>
	<line fill="none" stroke="#808080" stroke-width="0.5" x1="204" y1="96" x2="212" y2="119"/>
	<line fill="none" stroke="#808080" stroke-width="0.5" x1="258" y1="96" x2="311" y2="96"/>
	<line fill="none" stroke="#808080" stroke-width="0.5" x1="258" y1="96" x2="273" y2="119"/>
	<line fill="none" stroke="#808080" stroke-width="0.5" x1="311" y1="96" x2="365" y2="96"/>
	<line fill="none" stroke="#808080" stroke-width="0.5" x1="311" y1="96" x2="335" y2="119"/>
	<line fill="none" stroke="#808080" stroke-width="0.5" x1="365" y1="96" x2="419" y2="96"/>
	<line fill="none" stroke="#808080" stroke-width="0.5" x1="365" y1="96" x2="397" y2="119"/>
	<line fill="none" stroke="#808080" stroke-width="0.5" x1="419" y1="96" x2="459" y2="119"/>
	<line fill="none" stroke="#808080" stroke-width="0.5" x1="-159" y1="119" x2="-97" y2="119"/>
	<line fill="none" stroke="#808080" stroke-width="0.5" x1="-159" y1="119" x2="-212" y2="150"/>
	<line fill="none" stroke="#808080" stroke-width="0.5" x1="-97" y1="119" x2="-35" y2="119"/>
	<line fill="none" stroke="#808080" stroke-width="0.5" x1="-97" y1="119" x2="-140" y2="150"/>
	<line fill="none" stroke="#808080" stroke-width="0.5" x1="-35" y1="119" x2="27" y2="119"/>
	<line fill="none" stroke="#808080" stroke-width="0.5" x1="-35" y1="119" x2="-67" y2="150"/>
	<line fill="none" stroke="#808080" stroke-width="0.5" x1="27" y1="119" x2="88" y2="119"/>
	<line fill="none" stroke="#808080" stroke-width="0.5" x1="27" y1="119" x2="5" y2="150"/>
	<line fill="none" stroke="#808080" stroke-width="0.5" x1="88" y1="119" x2="150" y2="119"/>
	<line fill="none" stroke="#808080" stroke-width="0.5" x1="88" y1="119" x2="78" y2="150"/>
	<line fill="none" stroke="#808080" stroke-width="0.5" x1="150" y1="119" x2="212" y2="119"/>
	<line fill="none" stroke="#808080" stroke-width="0.5" x1="212" y1="119" x2="273" y2="119"/>
	<line fill="none" stroke="#808080" stroke-width="0.5" x1="212" y1="119" x2="222" y2="150"/>
	<line fill="none" stroke="#808080" stroke-width="0.5" x1="273" y1="119" x2="335" y2="119"/>
	<line fill="none" stroke="#808080" stroke-width="0.5" x1="273" y1="119" x2="295" y2="150"/>
	<line fill="none" stroke="#808080" stroke-width="0.5" x1="335" y1="119" x2="397" y2="119"/>
	<line fill="none" stroke="#808080" stroke-width="0.5" x1="335" y1="119" x2="367" y2="150"/>
	<line fill="none" stroke="#808080" stroke-width="0.5" x1="397" y1="119" x2="459" y2="119"/>
	<line fill="none" stroke="#808080" stroke-width="0.5" x1="397" y1="119" x2="440" y2="150"/>
	<line fill="none" stroke="#808080" stroke-width="0.5" x1="459" y1="119" x2="512" y2="150"/>
	<line fill="none" stroke="#808080" stroke-width="0.5" x1="-212" y1="150" x2="-288" y2="194"/>
	<line fill="none" stroke="#808080" stroke-width="0.5" x1="-140" y1="150" x2="-200" y2="194"/>
	<line fill="none" stroke="#808080" stroke-width="0.5" x1="-67" y1="150" x2="-113" y2="194"/>
	<line fill="none" stroke="#808080" stroke-width="0.5" x1="5" y1="150" x2="-25" y2="194"/>
	<line fill="none" stroke="#808080" stroke-width="0.5" x1="78" y1="150" x2="62" y2="194"/>
	<line fill="none" stroke="#808080" stroke-width="0.5" x1="222" y1="150" x2="238" y2="194"/>
	<line fill="none" stroke="#808080" stroke-width="0.5" x1="295" y1="150" x2="325" y2="194"/>
	<line fill="none" stroke="#808080" stroke-width="0.5" x1="367" y1="150" x2="413" y2="194"/>
	<line fill="none" stroke="#808080" stroke-width="0.5" x1="440" y1="150" x2="500" y2="194"/>
	<line fill="none" stroke="#808080" stroke-width="0.5" x1="512" y1="150" x2="588" y2="194"/>
	<line fill="none" stroke="#808080" stroke-width="0.5" x1="-288" y1="194" x2="-200" y2="194"/>
	<line fill="none" stroke="#808080" stroke-width="0.5" x1="-288" y1="194" x2="-404" y2="261"/>
	<line fill="none" stroke="#808080" stroke-width="0.5" x1="-200" y1="194" x2="-113" y2="194"/>
	<line fill="none" stroke="#808080" stroke-width="0.5" x1="-200" y1="194" x2="-293" y2="261"/>
	<line fill="none" stroke="#808080" stroke-width="0.5" x1="-113" y1="194" x2="-25" y2="194"/>
	<line fill="none" stroke="#808080" stroke-width="0.5" x1="-113" y1="194" x2="-182" y2="261"/>
	<line fill="none" stroke="#808080" stroke-width="0.5" x1="-25" y1="194" x2="62" y2="194"/>
	<line fill="none" stroke="#808080" stroke-width="0.5" x1="-25" y1="194" x2="-72" y2="261"/>
	<line fill="none" stroke="#808080" stroke-width="0.5" x1="62" y1="194" x2="150" y2="194"/>
	<line fill="none" stroke="#808080" stroke-width="0.5" x1="62" y1="194" x2="39" y2="261"/>
	<line fill="none" stroke="#808080" stroke-width="0.5" x1="150" y1="194" x2="238" y2="194"/>
	<line fill="none" stroke="#808080" stroke-width="0.5" x1="238" y1="194" x2="325" y2="194"/>
	<line fill="none" stroke="#808080" stroke-width="0.5" x1="238" y1="194" x2="261" y2="261"/>
	<line fill="none" stroke="#808080" stroke-width="0.5" x1="325" y1="194" x2="413" y2="194"/>
	<line fill="none" stroke="#808080" stroke-width="0.5" x1="325" y1="194" x2="372" y2="261"/>
	<line fill="none" stroke="#808080" stroke-width="0.5" x1="413" y1="194" x2="500" y2="194"/>
	<line fill="none" stroke="#808080" stroke-width="0.5" x1="413" y1="194" x2="482" y2="261"/>
	<line fill="none" stroke="#808080" stroke-width="0.5" x1="500" y1="194" x2="588" y2="194"/>
	<line fill="none" stroke="#808080" stroke-width="0.5" x1="500" y1="194" x2="593" y2="261"/>
	<line fill="none" stroke="#808080" stroke-width="0.5" x1="588" y1="194" x2="704" y2="261"/>
	<line fill="none" stroke="#808080" stroke-width="0.5" x1="-404" y1="261" x2="-293" y2="261"/>
	<line fill="none" stroke="#808080" stroke-width="0.5" x1="-404" y1="261" x2="-604" y2="376"/>
	<line fill="none" stroke="#808080" stroke-width="0.5" x1="-293" y1="261" x2="-182" y2="261"/>
	<line fill="none" stroke="#808080" stroke-width="0.5" x1="-293" y1="261" x2="-453" y2="376"/>
	<line fill="none" stroke="#808080" stroke-width="0.5" x1="-182" y1="261" x2="-72" y2="261"/>
	<line fill="none" stroke="#808080" stroke-width="0.5" x1="-182" y1="261" x2="-302" y2="376"/>
	<line fill="none" stroke="#808080" stroke-width="0.5" x1="-72" y1="261" x2="39" y2="261"/>
	<line fill="none" stroke="#808080" stroke-width="0.5" x1="-72" y1="261" x2="-152" y2="376"/>
	<line fill="none" stroke="#808080" stroke-width="0.5" x1="39" y1="261" x2="150" y2="261"/>
	<line fill="none" stroke="#808080" stroke-width="0.5" x1="39" y1="261" x2="-1" y2="376"/>
	<line fill="none" stroke="#808080" stroke-width="0.5" x1="150" y1="261" x2="261" y2="261"/>
	<line fill="none" stroke="#808080" stroke-width="0.5" x1="261" y1="261" x2="372" y2="261"/>
	<line fill="none" stroke="#808080" stroke-width="0.5" x1="261" y1="261" x2="301" y2="376"/>
	<line fill="none" stroke="#808080" stroke-width="0.5" x1="372" y1="261" x2="482" y2="261"/>
	<line fill="none" stroke="#808080" stroke-width="0.5" x1="372" y1="261" x2="452" y2="376"/>
	<line fill="none" stroke="#808080" stroke-width="0.5" x1="482" y1="261" x2="593" y2="261"/>
	<line fill="none" stroke="#808080" stroke-width="0.5" x1="482" y1="261" x2="602" y2="376"/>
	<line fill="none" stroke="#808080" stroke-width="0.5" x1="593" y1="261" x2="704" y2="261"/>
	<line fill="none" stroke="#808080" stroke-width="0.5" x1="593" y1="261" x2="753" y2="376"/>
	<line fill="none" stroke="#808080" stroke-width="0.5" x1="704" y1="261" x2="904" y2="376"/>
	<line fill="none" stroke="#808080" stroke-width="0.5" x1="-604" y1="376" x2="-453" y2="376"/>
	<line fill="none" stroke="#808080" stroke-width="0.5" x1="-453" y1="376" x2="-302" y2="376"/>
	<line fill="none" stroke="#808080" stroke-width="0.5" x1="-302" y1="376" x2="-152" y2="376"/>
	<line fill="none" stroke="#808080" stroke-width="0.5" x1="-152" y1="376" x2="-1" y2="376"/>
	<line fill="none" stroke="#808080" stroke-width="0.5" x1="-1" y1="376" x2="150" y2="376"/>
	<line fill="none" stroke="#808080" stroke-width="0.5" x1="150" y1="376" x2="301" y2="376"/>
	<line fill="none" stroke="#808080" stroke-width="0.5" x1="301" y1="376" x2="452" y2="376"/>
	<line fill="none" stroke="#808080" stroke-width="0.5" x1="452" y1="376" x2="602" y2="376"/>
	<line fill="none" stroke="#808080" stroke-width="0.5" x1="602" y1="376" x2="753" y2="376"/>
	<line fill="none" stroke="#808080" stroke-width="0.5" x1="753" y1="376" x2="904" y2="376"/>
</g>
<line fill="none" stroke="#FF0000" x1="-212" y1="150" x2="512" y2="150"/>
<line fill="none" stroke="#0000FF" x1="150" y1="53" x2="150" y2="376"/>
<rect fill="none" stroke="#000000" width="300" height="300"/>
</svg>
