<?xml version="1.0" encoding="utf-8"?>
<!-- Generator: Adobe Illustrator 15.1.0, SVG Export Plug-In . SVG Version: 6.00 Build 0)  -->
<!DOCTYPE svg PUBLIC "-//W3C//DTD SVG 1.1 Tiny//EN" "http://www.w3.org/Graphics/SVG/1.1/DTD/svg11-tiny.dtd">
<svg version="1.1" baseProfile="tiny" xmlns="http://www.w3.org/2000/svg" xmlns:xlink="http://www.w3.org/1999/xlink" x="0px"
	 y="0px" width="347.86px" height="424.111px" viewBox="63 -108.047 347.86 424.111" overflow="inherit" xml:space="preserve">
<g id="Layer_1">
	<g id="Faces">
		<path fill="#FFFFF5" stroke="#000000" d="M302,56l83,100l-161-14L302,56z"/>
		<path fill="#FFFFF5" stroke="#000000" d="M224,142l161,14l-160,70L224,142z"/>
		<path fill="#D3D3D3" stroke="#000000" d="M225,226l160-70l-3,91L225,226z"/>
		<path fill="#FFFFEB" stroke="#000000" d="M382,247l-84-60l-2,108L382,247z"/>
		<path fill="#FFFFEB" stroke="#000000" d="M385,156l-87,31l84,60L385,156z"/>
		<path fill="#FFFFEB" stroke="#000000" d="M298,187l-181-20l179,128L298,187z"/>
		<path fill="#FFFFEB" stroke="#000000" d="M121,265l175,30L117,167L121,265z"/>
		<path fill="#FFFFEB" stroke="#000000" d="M117,167l181,20L201,67L117,167z"/>
	</g>
	<g id="Vertices">
		<circle display="none" fill="#BFBFBF" cx="225" cy="226" r="7"/>
		<circle cx="382" cy="247" r="7"/>
		<circle cx="121" cy="265" r="7"/>
		<circle cx="385" cy="156" r="7"/>
		<circle display="none" fill="#BFBFBF" cx="224" cy="142" r="7"/>
		<circle cx="296" cy="295" r="7"/>
		<circle cx="117" cy="167" r="7"/>
		<circle cx="201" cy="67" r="7"/>
		<circle cx="302" cy="56" r="7"/>
		<circle cx="298" cy="187" r="7"/>
	</g>
	<g id="Vertex_Labels_Front_2_">
		<g>
			<g>
				<path fill="none" stroke="#FFFFFF" stroke-width="3" stroke-miterlimit="10" d="M244.913,222.068
					c-0.752,1.169-1.42,2.417-2.004,3.744c-0.584,1.328-1.061,2.696-1.428,4.104c-0.369,1.408-0.592,2.775-0.672,4.104h-2.28
					c0.096-1.439,0.331-2.844,0.708-4.212c0.375-1.368,0.859-2.68,1.451-3.937c0.592-1.256,1.276-2.443,2.053-3.563
					c0.775-1.12,1.611-2.151,2.508-3.097h-8.928v-1.92h11.016v1.752C246.473,219.893,245.665,220.901,244.913,222.068z"/>
			</g>
		</g>
		<g>
			<g>
				<path fill="none" stroke="#FFFFFF" stroke-width="3" stroke-miterlimit="10" d="M394.588,238.988
					c0.271-0.536,0.64-0.987,1.104-1.356c0.464-0.367,0.996-0.647,1.596-0.84c0.601-0.191,1.229-0.287,1.885-0.287
					c0.928,0,1.72,0.123,2.376,0.371c0.655,0.249,1.188,0.576,1.596,0.984c0.408,0.408,0.708,0.873,0.899,1.393
					c0.193,0.52,0.289,1.052,0.289,1.596c0,0.768-0.213,1.468-0.637,2.1c-0.424,0.633-0.996,1.108-1.716,1.428
					c1.024,0.32,1.784,0.845,2.28,1.572c0.496,0.729,0.744,1.62,0.744,2.676c0,0.832-0.148,1.568-0.444,2.209
					c-0.296,0.64-0.696,1.18-1.2,1.619c-0.504,0.44-1.1,0.772-1.787,0.996c-0.689,0.225-1.425,0.336-2.209,0.336
					c-0.815,0-1.576-0.104-2.279-0.312c-0.705-0.208-1.316-0.528-1.836-0.96c-0.521-0.432-0.929-0.973-1.225-1.62
					s-0.443-1.404-0.443-2.269c0-1.008,0.256-1.883,0.768-2.627s1.248-1.285,2.208-1.621c-0.72-0.287-1.296-0.756-1.728-1.403
					c-0.433-0.647-0.648-1.356-0.648-2.124C394.18,240.145,394.316,239.524,394.588,238.988z M396.76,251.132
					c0.68,0.585,1.548,0.877,2.604,0.877c0.512,0,0.98-0.084,1.404-0.252s0.792-0.4,1.104-0.696
					c0.312-0.296,0.553-0.644,0.721-1.044s0.252-0.84,0.252-1.32c0-0.464-0.092-0.892-0.275-1.283
					c-0.186-0.393-0.438-0.732-0.757-1.021c-0.32-0.288-0.692-0.517-1.116-0.685s-0.875-0.252-1.355-0.252
					c-0.496,0-0.965,0.076-1.404,0.229s-0.824,0.372-1.152,0.66c-0.328,0.287-0.584,0.632-0.768,1.031
					c-0.184,0.4-0.275,0.849-0.275,1.345C395.741,249.745,396.081,250.549,396.76,251.132z M396.581,242.132
					c0.159,0.345,0.375,0.629,0.647,0.853c0.272,0.225,0.592,0.393,0.96,0.504c0.368,0.112,0.76,0.169,1.176,0.169
					c0.816,0,1.488-0.24,2.016-0.721c0.529-0.48,0.793-1.152,0.793-2.016c0-0.864-0.269-1.516-0.805-1.957
					c-0.535-0.439-1.22-0.659-2.052-0.659c-0.399,0-0.784,0.056-1.151,0.168c-0.369,0.112-0.685,0.28-0.948,0.504
					c-0.265,0.224-0.477,0.496-0.636,0.815c-0.16,0.32-0.24,0.696-0.24,1.129C396.34,241.385,396.42,241.788,396.581,242.132z"/>
			</g>
		</g>
		<g>
			<g>
				<path fill="none" stroke="#FFFFFF" stroke-width="3" stroke-miterlimit="10" d="M132.941,259.628
					c0.224-0.736,0.572-1.371,1.044-1.908c0.472-0.535,1.06-0.955,1.764-1.26c0.704-0.304,1.504-0.456,2.4-0.456
					c0.736,0,1.428,0.108,2.076,0.324s1.212,0.528,1.692,0.937c0.48,0.407,0.86,0.916,1.14,1.523c0.28,0.608,0.42,1.312,0.42,2.111
					c0,0.753-0.116,1.416-0.348,1.992s-0.54,1.092-0.924,1.549c-0.384,0.455-0.824,0.867-1.32,1.235
					c-0.496,0.368-1.008,0.72-1.536,1.056c-0.528,0.32-1.056,0.637-1.584,0.949c-0.528,0.312-1.012,0.644-1.452,0.995
					c-0.44,0.353-0.816,0.732-1.128,1.14c-0.312,0.408-0.516,0.877-0.612,1.404h8.736v1.801h-11.112
					c0.08-1.008,0.26-1.868,0.54-2.58c0.279-0.713,0.636-1.332,1.068-1.86s0.92-0.991,1.464-1.392s1.112-0.776,1.704-1.129
					c0.72-0.447,1.352-0.859,1.896-1.235s0.996-0.757,1.356-1.14c0.36-0.385,0.632-0.801,0.816-1.248
					c0.184-0.448,0.276-0.969,0.276-1.561c0-0.464-0.088-0.884-0.264-1.26c-0.176-0.376-0.412-0.699-0.708-0.973
					c-0.296-0.271-0.645-0.479-1.044-0.623c-0.4-0.145-0.824-0.217-1.272-0.217c-0.592,0-1.101,0.125-1.524,0.372
					c-0.424,0.249-0.772,0.572-1.044,0.972c-0.272,0.4-0.468,0.853-0.588,1.356s-0.172,1.013-0.156,1.524h-2.04
					C132.629,261.164,132.717,260.364,132.941,259.628z"/>
			</g>
		</g>
		<g>
			<g>
				<path fill="none" stroke="#FFFFFF" stroke-width="3" stroke-miterlimit="10" d="M399.844,160.336
					c0.592,0.448,1.297,0.672,2.112,0.672c1.248,0,2.185-0.54,2.808-1.62c0.625-1.08,0.969-2.732,1.032-4.956l-0.048-0.048
					c-0.384,0.72-0.928,1.292-1.632,1.716s-1.472,0.636-2.304,0.636c-0.864,0-1.633-0.14-2.305-0.42
					c-0.672-0.28-1.236-0.668-1.691-1.164c-0.456-0.496-0.801-1.096-1.032-1.8c-0.232-0.704-0.349-1.472-0.349-2.304
					c0-0.816,0.137-1.563,0.408-2.244c0.272-0.68,0.656-1.264,1.152-1.752c0.496-0.488,1.088-0.868,1.775-1.14
					c0.688-0.272,1.44-0.408,2.257-0.408c0.8,0,1.552,0.124,2.256,0.372c0.704,0.249,1.319,0.676,1.849,1.284
					c0.527,0.608,0.947,1.436,1.26,2.484c0.312,1.048,0.468,2.38,0.468,3.996c0,2.944-0.468,5.204-1.404,6.78
					c-0.937,1.576-2.437,2.364-4.5,2.364c-1.425,0-2.608-0.36-3.552-1.08c-0.944-0.72-1.48-1.816-1.608-3.288h2.04
					C398.917,159.249,399.252,159.889,399.844,160.336z M405.208,149.705c-0.152-0.464-0.376-0.876-0.672-1.236
					c-0.296-0.36-0.66-0.644-1.092-0.852c-0.433-0.208-0.937-0.312-1.513-0.312c-0.607,0-1.123,0.112-1.547,0.336
					c-0.425,0.224-0.769,0.524-1.033,0.9c-0.264,0.376-0.455,0.804-0.576,1.284c-0.119,0.48-0.18,0.984-0.18,1.512
					c0,0.464,0.084,0.912,0.252,1.344c0.168,0.432,0.4,0.816,0.696,1.152s0.647,0.604,1.056,0.804s0.86,0.3,1.356,0.3
					c0.528,0,1.009-0.1,1.44-0.3s0.799-0.472,1.104-0.816c0.304-0.344,0.536-0.744,0.696-1.2c0.159-0.456,0.239-0.932,0.239-1.428
					C405.436,150.665,405.36,150.169,405.208,149.705z"/>
			</g>
		</g>
		<g>
			<g>
				<path fill="none" stroke="#FFFFFF" stroke-width="3" stroke-miterlimit="10" d="M243.668,135.5
					c-0.496-0.464-1.152-0.696-1.968-0.696c-0.864,0-1.56,0.212-2.088,0.636c-0.528,0.424-0.94,0.96-1.236,1.608
					s-0.5,1.348-0.612,2.1c-0.111,0.752-0.176,1.456-0.191,2.112l0.048,0.048c0.479-0.784,1.075-1.352,1.788-1.704
					c0.711-0.352,1.531-0.528,2.46-0.528c0.815,0,1.548,0.14,2.196,0.42c0.647,0.28,1.191,0.668,1.632,1.164s0.78,1.08,1.021,1.752
					c0.239,0.672,0.359,1.4,0.359,2.184c0,0.624-0.096,1.272-0.288,1.944s-0.509,1.284-0.948,1.836
					c-0.439,0.552-1.023,1.008-1.752,1.368c-0.729,0.36-1.628,0.54-2.699,0.54c-1.265,0-2.281-0.256-3.049-0.768
					c-0.768-0.512-1.359-1.168-1.775-1.968c-0.416-0.8-0.692-1.68-0.828-2.64c-0.137-0.96-0.204-1.888-0.204-2.784
					c0-1.168,0.1-2.3,0.3-3.396c0.2-1.096,0.54-2.068,1.02-2.916c0.48-0.848,1.12-1.528,1.92-2.04
					c0.801-0.512,1.809-0.768,3.024-0.768c1.408,0,2.528,0.372,3.36,1.116s1.312,1.82,1.439,3.228h-2.039
					C244.46,136.581,244.165,135.965,243.668,135.5z M239.973,141.176c-0.433,0.201-0.801,0.472-1.104,0.816
					s-0.532,0.752-0.685,1.224c-0.152,0.472-0.228,0.972-0.228,1.5c0,0.528,0.08,1.024,0.24,1.488
					c0.159,0.464,0.388,0.864,0.684,1.2c0.296,0.336,0.664,0.604,1.104,0.804c0.439,0.2,0.939,0.3,1.5,0.3
					c0.56,0,1.052-0.1,1.476-0.3c0.424-0.2,0.78-0.476,1.068-0.828c0.288-0.352,0.507-0.756,0.659-1.212s0.229-0.932,0.229-1.428
					c0-0.528-0.068-1.028-0.204-1.5c-0.136-0.472-0.348-0.88-0.636-1.224c-0.288-0.344-0.648-0.62-1.08-0.828
					c-0.432-0.208-0.936-0.312-1.512-0.312S240.405,140.977,239.973,141.176z"/>
			</g>
		</g>
		<g>
			<g>
				<path fill="none" stroke="#FFFFFF" stroke-width="3" stroke-miterlimit="10" d="M312.069,293.324c0.08,0,0.16,0,0.24,0h0.432
					c0.432,0,0.844-0.06,1.236-0.181c0.392-0.119,0.735-0.295,1.031-0.527c0.297-0.232,0.532-0.523,0.709-0.876
					c0.176-0.353,0.264-0.752,0.264-1.2c0-0.912-0.289-1.596-0.864-2.053c-0.576-0.455-1.296-0.684-2.16-0.684
					c-0.544,0-1.021,0.101-1.428,0.301c-0.408,0.199-0.744,0.467-1.009,0.804c-0.264,0.336-0.459,0.728-0.588,1.176
					c-0.128,0.448-0.191,0.921-0.191,1.416h-2.04c0.032-0.815,0.163-1.56,0.396-2.231s0.564-1.248,0.996-1.729
					s0.973-0.855,1.62-1.128c0.648-0.272,1.396-0.408,2.244-0.408c0.735,0,1.42,0.093,2.052,0.276
					c0.633,0.184,1.18,0.46,1.645,0.828c0.464,0.367,0.828,0.84,1.092,1.416s0.396,1.256,0.396,2.039
					c0,0.769-0.225,1.449-0.672,2.041c-0.449,0.592-1.009,1.039-1.681,1.344v0.048c1.04,0.224,1.812,0.712,2.315,1.464
					s0.757,1.641,0.757,2.664c0,0.848-0.156,1.596-0.468,2.244c-0.312,0.648-0.732,1.188-1.26,1.619
					c-0.529,0.433-1.148,0.757-1.861,0.973c-0.711,0.216-1.467,0.324-2.268,0.324c-0.863,0-1.648-0.12-2.352-0.36
					c-0.705-0.239-1.305-0.596-1.801-1.067c-0.496-0.473-0.875-1.053-1.14-1.74c-0.264-0.688-0.388-1.473-0.372-2.352h2.04
					c0.032,1.104,0.353,2.004,0.96,2.699c0.607,0.696,1.496,1.044,2.664,1.044c0.496,0,0.969-0.075,1.416-0.228
					s0.84-0.368,1.176-0.648c0.336-0.279,0.604-0.624,0.805-1.031c0.199-0.408,0.3-0.868,0.3-1.381c0-0.527-0.097-0.996-0.288-1.404
					c-0.191-0.407-0.448-0.752-0.768-1.031c-0.32-0.279-0.701-0.488-1.141-0.624s-0.916-0.204-1.428-0.204
					c-0.432,0-0.84,0.023-1.225,0.072V293.3C311.932,293.315,312.004,293.324,312.069,293.324z"/>
			</g>
		</g>
		<g>
			<g>
				<path fill="none" stroke="#FFFFFF" stroke-width="3" stroke-miterlimit="10" d="M134.125,175.021v-12.192h-4.416v-1.632
					c0.576,0,1.136-0.043,1.68-0.132c0.543-0.088,1.036-0.252,1.476-0.492c0.44-0.24,0.812-0.567,1.116-0.984
					c0.304-0.416,0.512-0.944,0.624-1.584h1.56v17.017H134.125z"/>
			</g>
		</g>
		<g>
			<g>
				<path fill="none" stroke="#FFFFFF" stroke-width="3" stroke-miterlimit="10" d="M212.676,64.725
					c0.032-0.672,0.112-1.328,0.24-1.968c0.128-0.64,0.312-1.248,0.553-1.824c0.239-0.576,0.566-1.08,0.983-1.512
					c0.416-0.432,0.94-0.776,1.571-1.032c0.633-0.256,1.389-0.384,2.269-0.384s1.636,0.128,2.269,0.384
					c0.631,0.256,1.155,0.6,1.572,1.032c0.415,0.432,0.743,0.936,0.983,1.512c0.239,0.576,0.424,1.184,0.552,1.824
					c0.128,0.64,0.208,1.296,0.24,1.968c0.031,0.672,0.048,1.32,0.048,1.944s-0.017,1.272-0.048,1.944
					c-0.032,0.672-0.112,1.329-0.24,1.968c-0.128,0.64-0.312,1.244-0.552,1.812c-0.24,0.568-0.568,1.068-0.983,1.5
					c-0.417,0.432-0.937,0.772-1.561,1.02c-0.624,0.248-1.385,0.372-2.28,0.372c-0.88,0-1.636-0.125-2.269-0.372
					c-0.631-0.248-1.155-0.588-1.571-1.02c-0.417-0.432-0.744-0.932-0.983-1.5c-0.24-0.568-0.425-1.172-0.553-1.812
					c-0.128-0.64-0.208-1.296-0.24-1.968c-0.031-0.672-0.048-1.32-0.048-1.944S212.645,65.396,212.676,64.725z M214.848,68.792
					c0.04,0.792,0.168,1.536,0.385,2.232c0.216,0.696,0.563,1.284,1.043,1.764c0.48,0.48,1.152,0.72,2.017,0.72
					s1.536-0.24,2.017-0.72c0.479-0.48,0.828-1.068,1.043-1.764c0.217-0.696,0.344-1.44,0.385-2.232
					c0.039-0.792,0.06-1.508,0.06-2.148c0-0.416-0.004-0.876-0.012-1.38c-0.009-0.504-0.048-1.008-0.12-1.512
					s-0.176-0.996-0.312-1.476c-0.136-0.48-0.336-0.9-0.6-1.26s-0.596-0.652-0.996-0.876s-0.888-0.336-1.464-0.336
					c-0.575,0-1.063,0.112-1.464,0.336s-0.732,0.516-0.996,0.876s-0.465,0.78-0.6,1.26c-0.137,0.48-0.24,0.972-0.312,1.476
					s-0.111,1.008-0.119,1.512c-0.009,0.504-0.013,0.964-0.013,1.38C214.789,67.285,214.809,68,214.848,68.792z"/>
			</g>
		</g>
		<g>
			<g>
				<path fill="none" stroke="#FFFFFF" stroke-width="3" stroke-miterlimit="10" d="M318.537,49.092l-0.912,4.896l0.048,0.048
					c0.368-0.416,0.844-0.724,1.428-0.924c0.584-0.2,1.164-0.3,1.74-0.3c0.752,0,1.465,0.12,2.137,0.36
					c0.672,0.24,1.256,0.604,1.752,1.092c0.495,0.488,0.888,1.096,1.176,1.824c0.287,0.729,0.432,1.581,0.432,2.556
					c0,0.72-0.124,1.42-0.371,2.1c-0.249,0.68-0.621,1.284-1.117,1.812c-0.496,0.528-1.115,0.948-1.859,1.26
					s-1.612,0.468-2.604,0.468c-0.736,0-1.429-0.108-2.076-0.324c-0.648-0.216-1.221-0.528-1.717-0.936
					c-0.496-0.408-0.888-0.916-1.176-1.524c-0.288-0.608-0.439-1.296-0.456-2.064H317c0.032,0.432,0.141,0.836,0.324,1.212
					c0.184,0.376,0.432,0.704,0.744,0.984c0.312,0.28,0.68,0.496,1.104,0.648c0.424,0.152,0.893,0.228,1.404,0.228
					c0.48,0,0.939-0.084,1.38-0.252s0.823-0.42,1.151-0.756s0.589-0.756,0.781-1.26c0.191-0.504,0.287-1.092,0.287-1.764
					c0-0.56-0.092-1.076-0.275-1.548c-0.185-0.472-0.444-0.88-0.78-1.224c-0.336-0.344-0.74-0.612-1.212-0.804
					c-0.473-0.192-0.996-0.288-1.572-0.288c-0.672,0-1.268,0.148-1.787,0.444c-0.521,0.296-0.98,0.684-1.381,1.164l-1.752-0.096
					L317,47.292h8.4v1.8H318.537z"/>
			</g>
		</g>
		<g>
			<g>
				<path fill="none" stroke="#FFFFFF" stroke-width="3" stroke-miterlimit="10" d="M320.981,187.769v1.801h-2.305v3.983h-1.92
					v-3.983h-7.464v-1.969l7.752-11.064h1.632v11.232H320.981z M316.756,179.44h-0.048l-5.664,8.328h5.712V179.44z"/>
			</g>
		</g>
	</g>
	<g id="Vertex_Labels_Front_3_">
		<g>
			<g>
				<path d="M244.913,222.068c-0.752,1.169-1.42,2.417-2.004,3.744c-0.584,1.328-1.061,2.696-1.428,4.104
					c-0.369,1.408-0.592,2.775-0.672,4.104h-2.28c0.096-1.439,0.331-2.844,0.708-4.212c0.375-1.368,0.859-2.68,1.451-3.937
					c0.592-1.256,1.276-2.443,2.053-3.563c0.775-1.12,1.611-2.151,2.508-3.097h-8.928v-1.92h11.016v1.752
					C246.473,219.893,245.665,220.901,244.913,222.068z"/>
			</g>
		</g>
		<g>
			<g>
				<path d="M394.588,238.988c0.271-0.536,0.64-0.987,1.104-1.356c0.464-0.367,0.996-0.647,1.596-0.84
					c0.601-0.191,1.229-0.287,1.885-0.287c0.928,0,1.72,0.123,2.376,0.371c0.655,0.249,1.188,0.576,1.596,0.984
					c0.408,0.408,0.708,0.873,0.899,1.393c0.193,0.52,0.289,1.052,0.289,1.596c0,0.768-0.213,1.468-0.637,2.1
					c-0.424,0.633-0.996,1.108-1.716,1.428c1.024,0.32,1.784,0.845,2.28,1.572c0.496,0.729,0.744,1.62,0.744,2.676
					c0,0.832-0.148,1.568-0.444,2.209c-0.296,0.64-0.696,1.18-1.2,1.619c-0.504,0.44-1.1,0.772-1.787,0.996
					c-0.689,0.225-1.425,0.336-2.209,0.336c-0.815,0-1.576-0.104-2.279-0.312c-0.705-0.208-1.316-0.528-1.836-0.96
					c-0.521-0.432-0.929-0.973-1.225-1.62s-0.443-1.404-0.443-2.269c0-1.008,0.256-1.883,0.768-2.627s1.248-1.285,2.208-1.621
					c-0.72-0.287-1.296-0.756-1.728-1.403c-0.433-0.647-0.648-1.356-0.648-2.124C394.18,240.145,394.316,239.524,394.588,238.988z
					 M396.76,251.132c0.68,0.585,1.548,0.877,2.604,0.877c0.512,0,0.98-0.084,1.404-0.252s0.792-0.4,1.104-0.696
					c0.312-0.296,0.553-0.644,0.721-1.044s0.252-0.84,0.252-1.32c0-0.464-0.092-0.892-0.275-1.283
					c-0.186-0.393-0.438-0.732-0.757-1.021c-0.32-0.288-0.692-0.517-1.116-0.685s-0.875-0.252-1.355-0.252
					c-0.496,0-0.965,0.076-1.404,0.229s-0.824,0.372-1.152,0.66c-0.328,0.287-0.584,0.632-0.768,1.031
					c-0.184,0.4-0.275,0.849-0.275,1.345C395.741,249.745,396.081,250.549,396.76,251.132z M396.581,242.132
					c0.159,0.345,0.375,0.629,0.647,0.853c0.272,0.225,0.592,0.393,0.96,0.504c0.368,0.112,0.76,0.169,1.176,0.169
					c0.816,0,1.488-0.24,2.016-0.721c0.529-0.48,0.793-1.152,0.793-2.016c0-0.864-0.269-1.516-0.805-1.957
					c-0.535-0.439-1.22-0.659-2.052-0.659c-0.399,0-0.784,0.056-1.151,0.168c-0.369,0.112-0.685,0.28-0.948,0.504
					c-0.265,0.224-0.477,0.496-0.636,0.815c-0.16,0.32-0.24,0.696-0.24,1.129C396.34,241.385,396.42,241.788,396.581,242.132z"/>
			</g>
		</g>
		<g>
			<g>
				<path d="M132.941,259.628c0.224-0.736,0.572-1.371,1.044-1.908c0.472-0.535,1.06-0.955,1.764-1.26
					c0.704-0.304,1.504-0.456,2.4-0.456c0.736,0,1.428,0.108,2.076,0.324s1.212,0.528,1.692,0.937c0.48,0.407,0.86,0.916,1.14,1.523
					c0.28,0.608,0.42,1.312,0.42,2.111c0,0.753-0.116,1.416-0.348,1.992s-0.54,1.092-0.924,1.549
					c-0.384,0.455-0.824,0.867-1.32,1.235c-0.496,0.368-1.008,0.72-1.536,1.056c-0.528,0.32-1.056,0.637-1.584,0.949
					c-0.528,0.312-1.012,0.644-1.452,0.995c-0.44,0.353-0.816,0.732-1.128,1.14c-0.312,0.408-0.516,0.877-0.612,1.404h8.736v1.801
					h-11.112c0.08-1.008,0.26-1.868,0.54-2.58c0.279-0.713,0.636-1.332,1.068-1.86s0.92-0.991,1.464-1.392s1.112-0.776,1.704-1.129
					c0.72-0.447,1.352-0.859,1.896-1.235s0.996-0.757,1.356-1.14c0.36-0.385,0.632-0.801,0.816-1.248
					c0.184-0.448,0.276-0.969,0.276-1.561c0-0.464-0.088-0.884-0.264-1.26c-0.176-0.376-0.412-0.699-0.708-0.973
					c-0.296-0.271-0.645-0.479-1.044-0.623c-0.4-0.145-0.824-0.217-1.272-0.217c-0.592,0-1.101,0.125-1.524,0.372
					c-0.424,0.249-0.772,0.572-1.044,0.972c-0.272,0.4-0.468,0.853-0.588,1.356s-0.172,1.013-0.156,1.524h-2.04
					C132.629,261.164,132.717,260.364,132.941,259.628z"/>
			</g>
		</g>
		<g>
			<g>
				<path d="M399.844,160.336c0.592,0.448,1.297,0.672,2.112,0.672c1.248,0,2.185-0.54,2.808-1.62
					c0.625-1.08,0.969-2.732,1.032-4.956l-0.048-0.048c-0.384,0.72-0.928,1.292-1.632,1.716s-1.472,0.636-2.304,0.636
					c-0.864,0-1.633-0.14-2.305-0.42c-0.672-0.28-1.236-0.668-1.691-1.164c-0.456-0.496-0.801-1.096-1.032-1.8
					c-0.232-0.704-0.349-1.472-0.349-2.304c0-0.816,0.137-1.563,0.408-2.244c0.272-0.68,0.656-1.264,1.152-1.752
					c0.496-0.488,1.088-0.868,1.775-1.14c0.688-0.272,1.44-0.408,2.257-0.408c0.8,0,1.552,0.124,2.256,0.372
					c0.704,0.249,1.319,0.676,1.849,1.284c0.527,0.608,0.947,1.436,1.26,2.484c0.312,1.048,0.468,2.38,0.468,3.996
					c0,2.944-0.468,5.204-1.404,6.78c-0.937,1.576-2.437,2.364-4.5,2.364c-1.425,0-2.608-0.36-3.552-1.08
					c-0.944-0.72-1.48-1.816-1.608-3.288h2.04C398.917,159.249,399.252,159.889,399.844,160.336z M405.208,149.705
					c-0.152-0.464-0.376-0.876-0.672-1.236c-0.296-0.36-0.66-0.644-1.092-0.852c-0.433-0.208-0.937-0.312-1.513-0.312
					c-0.607,0-1.123,0.112-1.547,0.336c-0.425,0.224-0.769,0.524-1.033,0.9c-0.264,0.376-0.455,0.804-0.576,1.284
					c-0.119,0.48-0.18,0.984-0.18,1.512c0,0.464,0.084,0.912,0.252,1.344c0.168,0.432,0.4,0.816,0.696,1.152
					s0.647,0.604,1.056,0.804s0.86,0.3,1.356,0.3c0.528,0,1.009-0.1,1.44-0.3s0.799-0.472,1.104-0.816
					c0.304-0.344,0.536-0.744,0.696-1.2c0.159-0.456,0.239-0.932,0.239-1.428C405.436,150.665,405.36,150.169,405.208,149.705z"/>
			</g>
		</g>
		<g>
			<g>
				<path d="M243.668,135.5c-0.496-0.464-1.152-0.696-1.968-0.696c-0.864,0-1.56,0.212-2.088,0.636
					c-0.528,0.424-0.94,0.96-1.236,1.608s-0.5,1.348-0.612,2.1c-0.111,0.752-0.176,1.456-0.191,2.112l0.048,0.048
					c0.479-0.784,1.075-1.352,1.788-1.704c0.711-0.352,1.531-0.528,2.46-0.528c0.815,0,1.548,0.14,2.196,0.42
					c0.647,0.28,1.191,0.668,1.632,1.164s0.78,1.08,1.021,1.752c0.239,0.672,0.359,1.4,0.359,2.184c0,0.624-0.096,1.272-0.288,1.944
					s-0.509,1.284-0.948,1.836c-0.439,0.552-1.023,1.008-1.752,1.368c-0.729,0.36-1.628,0.54-2.699,0.54
					c-1.265,0-2.281-0.256-3.049-0.768c-0.768-0.512-1.359-1.168-1.775-1.968c-0.416-0.8-0.692-1.68-0.828-2.64
					c-0.137-0.96-0.204-1.888-0.204-2.784c0-1.168,0.1-2.3,0.3-3.396c0.2-1.096,0.54-2.068,1.02-2.916
					c0.48-0.848,1.12-1.528,1.92-2.04c0.801-0.512,1.809-0.768,3.024-0.768c1.408,0,2.528,0.372,3.36,1.116s1.312,1.82,1.439,3.228
					h-2.039C244.46,136.581,244.165,135.965,243.668,135.5z M239.973,141.176c-0.433,0.201-0.801,0.472-1.104,0.816
					s-0.532,0.752-0.685,1.224c-0.152,0.472-0.228,0.972-0.228,1.5c0,0.528,0.08,1.024,0.24,1.488
					c0.159,0.464,0.388,0.864,0.684,1.2c0.296,0.336,0.664,0.604,1.104,0.804c0.439,0.2,0.939,0.3,1.5,0.3
					c0.56,0,1.052-0.1,1.476-0.3c0.424-0.2,0.78-0.476,1.068-0.828c0.288-0.352,0.507-0.756,0.659-1.212s0.229-0.932,0.229-1.428
					c0-0.528-0.068-1.028-0.204-1.5c-0.136-0.472-0.348-0.88-0.636-1.224c-0.288-0.344-0.648-0.62-1.08-0.828
					c-0.432-0.208-0.936-0.312-1.512-0.312S240.405,140.977,239.973,141.176z"/>
			</g>
		</g>
		<g>
			<g>
				<path d="M312.069,293.324c0.08,0,0.16,0,0.24,0h0.432c0.432,0,0.844-0.06,1.236-0.181c0.392-0.119,0.735-0.295,1.031-0.527
					c0.297-0.232,0.532-0.523,0.709-0.876c0.176-0.353,0.264-0.752,0.264-1.2c0-0.912-0.289-1.596-0.864-2.053
					c-0.576-0.455-1.296-0.684-2.16-0.684c-0.544,0-1.021,0.101-1.428,0.301c-0.408,0.199-0.744,0.467-1.009,0.804
					c-0.264,0.336-0.459,0.728-0.588,1.176c-0.128,0.448-0.191,0.921-0.191,1.416h-2.04c0.032-0.815,0.163-1.56,0.396-2.231
					s0.564-1.248,0.996-1.729s0.973-0.855,1.62-1.128c0.648-0.272,1.396-0.408,2.244-0.408c0.735,0,1.42,0.093,2.052,0.276
					c0.633,0.184,1.18,0.46,1.645,0.828c0.464,0.367,0.828,0.84,1.092,1.416s0.396,1.256,0.396,2.039
					c0,0.769-0.225,1.449-0.672,2.041c-0.449,0.592-1.009,1.039-1.681,1.344v0.048c1.04,0.224,1.812,0.712,2.315,1.464
					s0.757,1.641,0.757,2.664c0,0.848-0.156,1.596-0.468,2.244c-0.312,0.648-0.732,1.188-1.26,1.619
					c-0.529,0.433-1.148,0.757-1.861,0.973c-0.711,0.216-1.467,0.324-2.268,0.324c-0.863,0-1.648-0.12-2.352-0.36
					c-0.705-0.239-1.305-0.596-1.801-1.067c-0.496-0.473-0.875-1.053-1.14-1.74c-0.264-0.688-0.388-1.473-0.372-2.352h2.04
					c0.032,1.104,0.353,2.004,0.96,2.699c0.607,0.696,1.496,1.044,2.664,1.044c0.496,0,0.969-0.075,1.416-0.228
					s0.84-0.368,1.176-0.648c0.336-0.279,0.604-0.624,0.805-1.031c0.199-0.408,0.3-0.868,0.3-1.381c0-0.527-0.097-0.996-0.288-1.404
					c-0.191-0.407-0.448-0.752-0.768-1.031c-0.32-0.279-0.701-0.488-1.141-0.624s-0.916-0.204-1.428-0.204
					c-0.432,0-0.84,0.023-1.225,0.072V293.3C311.932,293.315,312.004,293.324,312.069,293.324z"/>
			</g>
		</g>
		<g>
			<g>
				<path d="M134.125,175.021v-12.192h-4.416v-1.632c0.576,0,1.136-0.043,1.68-0.132c0.543-0.088,1.036-0.252,1.476-0.492
					c0.44-0.24,0.812-0.567,1.116-0.984c0.304-0.416,0.512-0.944,0.624-1.584h1.56v17.017H134.125z"/>
			</g>
		</g>
		<g>
			<g>
				<path d="M212.676,64.725c0.032-0.672,0.112-1.328,0.24-1.968c0.128-0.64,0.312-1.248,0.553-1.824
					c0.239-0.576,0.566-1.08,0.983-1.512c0.416-0.432,0.94-0.776,1.571-1.032c0.633-0.256,1.389-0.384,2.269-0.384
					s1.636,0.128,2.269,0.384c0.631,0.256,1.155,0.6,1.572,1.032c0.415,0.432,0.743,0.936,0.983,1.512
					c0.239,0.576,0.424,1.184,0.552,1.824c0.128,0.64,0.208,1.296,0.24,1.968c0.031,0.672,0.048,1.32,0.048,1.944
					s-0.017,1.272-0.048,1.944c-0.032,0.672-0.112,1.329-0.24,1.968c-0.128,0.64-0.312,1.244-0.552,1.812
					c-0.24,0.568-0.568,1.068-0.983,1.5c-0.417,0.432-0.937,0.772-1.561,1.02c-0.624,0.248-1.385,0.372-2.28,0.372
					c-0.88,0-1.636-0.125-2.269-0.372c-0.631-0.248-1.155-0.588-1.571-1.02c-0.417-0.432-0.744-0.932-0.983-1.5
					c-0.24-0.568-0.425-1.172-0.553-1.812c-0.128-0.64-0.208-1.296-0.24-1.968c-0.031-0.672-0.048-1.32-0.048-1.944
					S212.645,65.396,212.676,64.725z M214.848,68.792c0.04,0.792,0.168,1.536,0.385,2.232c0.216,0.696,0.563,1.284,1.043,1.764
					c0.48,0.48,1.152,0.72,2.017,0.72s1.536-0.24,2.017-0.72c0.479-0.48,0.828-1.068,1.043-1.764
					c0.217-0.696,0.344-1.44,0.385-2.232c0.039-0.792,0.06-1.508,0.06-2.148c0-0.416-0.004-0.876-0.012-1.38
					c-0.009-0.504-0.048-1.008-0.12-1.512s-0.176-0.996-0.312-1.476c-0.136-0.48-0.336-0.9-0.6-1.26s-0.596-0.652-0.996-0.876
					s-0.888-0.336-1.464-0.336c-0.575,0-1.063,0.112-1.464,0.336s-0.732,0.516-0.996,0.876s-0.465,0.78-0.6,1.26
					c-0.137,0.48-0.24,0.972-0.312,1.476s-0.111,1.008-0.119,1.512c-0.009,0.504-0.013,0.964-0.013,1.38
					C214.789,67.285,214.809,68,214.848,68.792z"/>
			</g>
		</g>
		<g>
			<g>
				<path d="M318.537,49.092l-0.912,4.896l0.048,0.048c0.368-0.416,0.844-0.724,1.428-0.924c0.584-0.2,1.164-0.3,1.74-0.3
					c0.752,0,1.465,0.12,2.137,0.36c0.672,0.24,1.256,0.604,1.752,1.092c0.495,0.488,0.888,1.096,1.176,1.824
					c0.287,0.729,0.432,1.581,0.432,2.556c0,0.72-0.124,1.42-0.371,2.1c-0.249,0.68-0.621,1.284-1.117,1.812
					c-0.496,0.528-1.115,0.948-1.859,1.26s-1.612,0.468-2.604,0.468c-0.736,0-1.429-0.108-2.076-0.324
					c-0.648-0.216-1.221-0.528-1.717-0.936c-0.496-0.408-0.888-0.916-1.176-1.524c-0.288-0.608-0.439-1.296-0.456-2.064H317
					c0.032,0.432,0.141,0.836,0.324,1.212c0.184,0.376,0.432,0.704,0.744,0.984c0.312,0.28,0.68,0.496,1.104,0.648
					c0.424,0.152,0.893,0.228,1.404,0.228c0.48,0,0.939-0.084,1.38-0.252s0.823-0.42,1.151-0.756s0.589-0.756,0.781-1.26
					c0.191-0.504,0.287-1.092,0.287-1.764c0-0.56-0.092-1.076-0.275-1.548c-0.185-0.472-0.444-0.88-0.78-1.224
					c-0.336-0.344-0.74-0.612-1.212-0.804c-0.473-0.192-0.996-0.288-1.572-0.288c-0.672,0-1.268,0.148-1.787,0.444
					c-0.521,0.296-0.98,0.684-1.381,1.164l-1.752-0.096L317,47.292h8.4v1.8H318.537z"/>
			</g>
		</g>
		<g>
			<g>
				<path d="M320.981,187.769v1.801h-2.305v3.983h-1.92v-3.983h-7.464v-1.969l7.752-11.064h1.632v11.232H320.981z M316.756,179.44
					h-0.048l-5.664,8.328h5.712V179.44z"/>
			</g>
		</g>
	</g>
</g>
<g id="Layer_1_copy">
	<g id="Faces_1_">
		<path fill="#CC6666" stroke="#000000" d="M70,17L255-94L177-8L70,17z"/>
		<path fill="#CC6666" stroke="#000000" d="M154-83l101-11L70,17L154-83z"/>
		<path fill="#CC0000" stroke="#000000" d="M338,6L154-83l97,120L338,6z"/>
		<path fill="#CC0000" stroke="#000000" d="M255-94L154-83L338,6L255-94z"/>
	</g>
	<g id="Vertices_1_">
		<circle cx="338" cy="6" r="7"/>
		<circle cx="177" cy="-8" r="7"/>
		<circle cx="70" cy="17" r="7"/>
		<circle cx="154" cy="-83" r="7"/>
		<circle cx="255" cy="-94" r="7"/>
		<circle cx="251" cy="37" r="7"/>
	</g>
	<g id="Vertex_Labels_Front_1_">
		<g>
			<g>
				<path fill="none" stroke="#FFFFFF" stroke-width="3" stroke-miterlimit="10" d="M355.125,12.521V0.329h-4.416v-1.632
					c0.576,0,1.136-0.043,1.681-0.132c0.543-0.088,1.035-0.252,1.476-0.492c0.44-0.24,0.812-0.567,1.116-0.984
					c0.303-0.416,0.512-0.944,0.623-1.584h1.561v17.016H355.125z"/>
				<path fill="none" stroke="#FFFFFF" stroke-width="3" stroke-miterlimit="10" d="M366.381-2.408l-0.912,4.896l0.047,0.048
					c0.369-0.416,0.844-0.724,1.429-0.924c0.584-0.2,1.164-0.3,1.74-0.3c0.751,0,1.464,0.12,2.136,0.36
					c0.672,0.24,1.256,0.604,1.752,1.092c0.496,0.488,0.889,1.096,1.176,1.824c0.288,0.729,0.432,1.581,0.432,2.556
					c0,0.72-0.123,1.42-0.371,2.1s-0.621,1.284-1.116,1.812c-0.496,0.528-1.116,0.948-1.86,1.26s-1.611,0.468-2.604,0.468
					c-0.736,0-1.428-0.108-2.076-0.324s-1.221-0.528-1.716-0.936c-0.496-0.408-0.888-0.916-1.177-1.524
					c-0.287-0.608-0.439-1.296-0.455-2.064h2.039c0.033,0.432,0.141,0.836,0.324,1.212c0.184,0.376,0.433,0.704,0.744,0.984
					c0.312,0.28,0.68,0.496,1.104,0.648c0.424,0.152,0.893,0.228,1.404,0.228c0.48,0,0.939-0.084,1.381-0.252
					c0.439-0.168,0.823-0.42,1.151-0.756s0.589-0.756,0.78-1.26c0.191-0.504,0.288-1.092,0.288-1.764
					c0-0.56-0.093-1.076-0.276-1.548c-0.184-0.472-0.443-0.88-0.779-1.224c-0.336-0.344-0.74-0.612-1.213-0.804
					c-0.472-0.192-0.996-0.288-1.572-0.288c-0.672,0-1.268,0.148-1.787,0.444c-0.521,0.296-0.98,0.684-1.381,1.164l-1.752-0.096
					l1.584-8.832h8.4v1.8H366.381z"/>
			</g>
		</g>
		<g>
			<g>
				<path fill="none" stroke="#FFFFFF" stroke-width="3" stroke-miterlimit="10" d="M194.125,0.021v-12.192h-4.416v-1.632
					c0.576,0,1.136-0.043,1.681-0.132c0.543-0.088,1.035-0.252,1.476-0.492c0.44-0.24,0.812-0.567,1.116-0.984
					c0.303-0.416,0.512-0.944,0.623-1.584h1.561V0.021H194.125z"/>
				<path fill="none" stroke="#FFFFFF" stroke-width="3" stroke-miterlimit="10" d="M213.325-5.764v1.8h-2.304v3.984h-1.92v-3.984
					h-7.464v-1.968l7.752-11.064h1.632v11.232H213.325z M209.101-14.091h-0.048l-5.664,8.328h5.712V-14.091z"/>
			</g>
		</g>
		<g>
			<g>
				<path fill="none" stroke="#FFFFFF" stroke-width="3" stroke-miterlimit="10" d="M87.125,25.02V12.828h-4.416v-1.632
					c0.576,0,1.136-0.043,1.68-0.132c0.543-0.088,1.036-0.252,1.476-0.492c0.44-0.24,0.812-0.567,1.116-0.984
					c0.304-0.416,0.512-0.944,0.624-1.584h1.56V25.02H87.125z"/>
				<path fill="none" stroke="#FFFFFF" stroke-width="3" stroke-miterlimit="10" d="M100.469,25.02V12.828h-4.416v-1.632
					c0.576,0,1.136-0.043,1.68-0.132c0.543-0.088,1.036-0.252,1.476-0.492c0.44-0.24,0.812-0.567,1.116-0.984
					c0.304-0.416,0.512-0.944,0.624-1.584h1.56V25.02H100.469z"/>
			</g>
		</g>
		<g>
			<g>
				<path fill="none" stroke="#FFFFFF" stroke-width="3" stroke-miterlimit="10" d="M171.125-74.979v-12.192h-4.416v-1.632
					c0.576,0,1.136-0.043,1.68-0.132c0.543-0.088,1.036-0.252,1.476-0.492c0.44-0.24,0.812-0.567,1.116-0.984
					c0.304-0.416,0.512-0.944,0.624-1.584h1.56v17.016H171.125z"/>
				<path fill="none" stroke="#FFFFFF" stroke-width="3" stroke-miterlimit="10" d="M179.021-85.275
					c0.032-0.672,0.112-1.328,0.24-1.968c0.128-0.64,0.312-1.248,0.552-1.824c0.24-0.576,0.567-1.08,0.984-1.512
					c0.416-0.432,0.94-0.776,1.572-1.032s1.388-0.384,2.268-0.384s1.635,0.128,2.268,0.384c0.632,0.256,1.156,0.6,1.572,1.032
					s0.744,0.936,0.984,1.512c0.239,0.576,0.424,1.184,0.551,1.824c0.129,0.64,0.209,1.296,0.24,1.968
					c0.032,0.672,0.049,1.32,0.049,1.944s-0.017,1.272-0.049,1.944c-0.031,0.672-0.111,1.329-0.24,1.968
					c-0.127,0.64-0.312,1.244-0.551,1.812c-0.24,0.568-0.568,1.068-0.984,1.5s-0.936,0.772-1.561,1.02
					c-0.623,0.248-1.384,0.372-2.28,0.372c-0.88,0-1.636-0.125-2.268-0.372c-0.632-0.248-1.156-0.588-1.572-1.02
					c-0.417-0.432-0.744-0.932-0.984-1.5c-0.24-0.568-0.424-1.172-0.552-1.812c-0.128-0.64-0.208-1.296-0.24-1.968
					c-0.032-0.672-0.048-1.32-0.048-1.944S178.989-84.604,179.021-85.275z M181.193-81.208c0.04,0.792,0.168,1.536,0.384,2.232
					c0.216,0.696,0.564,1.284,1.044,1.764c0.48,0.48,1.152,0.72,2.016,0.72c0.864,0,1.536-0.24,2.016-0.72s0.828-1.068,1.044-1.764
					c0.216-0.696,0.344-1.44,0.384-2.232s0.061-1.508,0.061-2.148c0-0.416-0.004-0.876-0.012-1.38
					c-0.009-0.504-0.049-1.008-0.121-1.512c-0.071-0.504-0.176-0.996-0.312-1.476s-0.336-0.9-0.601-1.26
					c-0.264-0.36-0.596-0.652-0.995-0.876c-0.4-0.224-0.888-0.336-1.464-0.336c-0.576,0-1.064,0.112-1.464,0.336
					s-0.732,0.516-0.996,0.876c-0.264,0.36-0.464,0.78-0.6,1.26s-0.24,0.972-0.312,1.476c-0.072,0.504-0.112,1.008-0.12,1.512
					c-0.008,0.504-0.012,0.964-0.012,1.38C181.133-82.715,181.153-82,181.193-81.208z"/>
			</g>
		</g>
		<g>
			<g>
				<path fill="none" stroke="#FFFFFF" stroke-width="3" stroke-miterlimit="10" d="M273.625-85.979v-12.192h-4.416v-1.632
					c0.576,0,1.136-0.043,1.681-0.132c0.543-0.088,1.035-0.252,1.476-0.492c0.44-0.24,0.812-0.567,1.116-0.984
					c0.303-0.416,0.512-0.944,0.623-1.584h1.561v17.016H273.625z"/>
				<path fill="none" stroke="#FFFFFF" stroke-width="3" stroke-miterlimit="10" d="M285.913-95.675c0.08,0,0.16,0,0.24,0h0.432
					c0.432,0,0.844-0.06,1.236-0.18s0.736-0.296,1.032-0.528s0.532-0.524,0.708-0.876s0.264-0.752,0.264-1.2
					c0-0.912-0.288-1.596-0.863-2.052c-0.576-0.456-1.297-0.684-2.16-0.684c-0.545,0-1.021,0.1-1.428,0.3
					c-0.408,0.2-0.744,0.468-1.009,0.804c-0.264,0.336-0.46,0.728-0.588,1.176c-0.128,0.448-0.192,0.92-0.192,1.416h-2.039
					c0.031-0.816,0.163-1.56,0.396-2.232c0.231-0.672,0.563-1.248,0.996-1.728c0.432-0.48,0.972-0.856,1.62-1.128
					s1.396-0.408,2.244-0.408c0.735,0,1.42,0.092,2.052,0.276c0.632,0.185,1.18,0.46,1.644,0.828
					c0.465,0.368,0.828,0.84,1.092,1.416c0.265,0.576,0.396,1.256,0.396,2.04c0,0.768-0.225,1.448-0.672,2.04
					c-0.448,0.592-1.008,1.04-1.68,1.344v0.048c1.039,0.224,1.812,0.712,2.315,1.464c0.504,0.752,0.757,1.64,0.757,2.664
					c0,0.848-0.156,1.596-0.469,2.244s-0.732,1.188-1.26,1.62c-0.528,0.432-1.148,0.756-1.86,0.972s-1.468,0.324-2.269,0.324
					c-0.863,0-1.647-0.12-2.352-0.36c-0.704-0.24-1.305-0.596-1.8-1.068c-0.496-0.472-0.876-1.052-1.14-1.74
					s-0.389-1.472-0.372-2.352h2.04c0.031,1.104,0.352,2.004,0.96,2.7c0.607,0.696,1.495,1.044,2.663,1.044
					c0.496,0,0.969-0.076,1.416-0.228c0.448-0.152,0.841-0.368,1.177-0.648c0.336-0.28,0.604-0.624,0.804-1.032
					c0.2-0.408,0.301-0.868,0.301-1.38c0-0.528-0.097-0.996-0.289-1.404c-0.191-0.408-0.447-0.752-0.768-1.032
					s-0.7-0.488-1.141-0.624c-0.439-0.136-0.916-0.204-1.428-0.204c-0.432,0-0.84,0.024-1.224,0.072V-95.7
					C285.777-95.684,285.848-95.675,285.913-95.675z"/>
			</g>
		</g>
		<g>
			<g>
				<path fill="none" stroke="#FFFFFF" stroke-width="3" stroke-miterlimit="10" d="M268.125,43.553V31.361h-4.416v-1.632
					c0.576,0,1.136-0.043,1.681-0.132c0.543-0.088,1.035-0.252,1.476-0.492c0.44-0.24,0.812-0.567,1.116-0.984
					c0.303-0.416,0.512-0.944,0.623-1.584h1.561v17.016H268.125z"/>
				<path fill="none" stroke="#FFFFFF" stroke-width="3" stroke-miterlimit="10" d="M276.285,30.161
					c0.224-0.736,0.572-1.372,1.044-1.908c0.473-0.536,1.061-0.956,1.764-1.26c0.705-0.304,1.504-0.456,2.4-0.456
					c0.736,0,1.428,0.108,2.076,0.324c0.648,0.216,1.212,0.528,1.691,0.936c0.48,0.408,0.86,0.916,1.141,1.524
					c0.279,0.608,0.42,1.312,0.42,2.112c0,0.752-0.116,1.416-0.348,1.992c-0.232,0.576-0.541,1.092-0.924,1.548
					c-0.385,0.456-0.824,0.868-1.32,1.236c-0.496,0.369-1.008,0.72-1.536,1.056c-0.528,0.32-1.056,0.636-1.584,0.948
					s-1.013,0.644-1.452,0.996c-0.439,0.353-0.816,0.732-1.128,1.14c-0.312,0.408-0.517,0.876-0.612,1.404h8.736v1.8h-11.111
					c0.079-1.008,0.26-1.868,0.539-2.58c0.279-0.712,0.637-1.332,1.068-1.86s0.92-0.992,1.464-1.392
					c0.544-0.4,1.112-0.776,1.704-1.128c0.72-0.448,1.352-0.86,1.896-1.236c0.543-0.376,0.996-0.756,1.355-1.14
					c0.359-0.384,0.632-0.8,0.816-1.248c0.184-0.448,0.275-0.968,0.275-1.56c0-0.464-0.088-0.884-0.264-1.26s-0.412-0.7-0.708-0.972
					c-0.296-0.272-0.645-0.48-1.044-0.624c-0.4-0.144-0.824-0.216-1.271-0.216c-0.593,0-1.102,0.124-1.525,0.372
					c-0.424,0.249-0.771,0.572-1.043,0.972c-0.272,0.4-0.469,0.852-0.588,1.356c-0.121,0.504-0.172,1.012-0.156,1.524h-2.04
					C275.973,31.697,276.061,30.897,276.285,30.161z"/>
			</g>
		</g>
	</g>
	<g id="Vertex_Labels_Front_4_">
		<g>
			<g>
				<path d="M355.125,12.521V0.329h-4.416v-1.632c0.576,0,1.136-0.043,1.681-0.132c0.543-0.088,1.035-0.252,1.476-0.492
					c0.44-0.24,0.812-0.567,1.116-0.984c0.303-0.416,0.512-0.944,0.623-1.584h1.561v17.016H355.125z"/>
				<path d="M366.381-2.408l-0.912,4.896l0.047,0.048c0.369-0.416,0.844-0.724,1.429-0.924c0.584-0.2,1.164-0.3,1.74-0.3
					c0.751,0,1.464,0.12,2.136,0.36c0.672,0.24,1.256,0.604,1.752,1.092c0.496,0.488,0.889,1.096,1.176,1.824
					c0.288,0.729,0.432,1.581,0.432,2.556c0,0.72-0.123,1.42-0.371,2.1s-0.621,1.284-1.116,1.812
					c-0.496,0.528-1.116,0.948-1.86,1.26s-1.611,0.468-2.604,0.468c-0.736,0-1.428-0.108-2.076-0.324s-1.221-0.528-1.716-0.936
					c-0.496-0.408-0.888-0.916-1.177-1.524c-0.287-0.608-0.439-1.296-0.455-2.064h2.039c0.033,0.432,0.141,0.836,0.324,1.212
					c0.184,0.376,0.433,0.704,0.744,0.984c0.312,0.28,0.68,0.496,1.104,0.648c0.424,0.152,0.893,0.228,1.404,0.228
					c0.48,0,0.939-0.084,1.381-0.252c0.439-0.168,0.823-0.42,1.151-0.756s0.589-0.756,0.78-1.26
					c0.191-0.504,0.288-1.092,0.288-1.764c0-0.56-0.093-1.076-0.276-1.548c-0.184-0.472-0.443-0.88-0.779-1.224
					c-0.336-0.344-0.74-0.612-1.213-0.804c-0.472-0.192-0.996-0.288-1.572-0.288c-0.672,0-1.268,0.148-1.787,0.444
					c-0.521,0.296-0.98,0.684-1.381,1.164l-1.752-0.096l1.584-8.832h8.4v1.8H366.381z"/>
			</g>
		</g>
		<g>
			<g>
				<path d="M194.125,0.021v-12.192h-4.416v-1.632c0.576,0,1.136-0.043,1.681-0.132c0.543-0.088,1.035-0.252,1.476-0.492
					c0.44-0.24,0.812-0.567,1.116-0.984c0.303-0.416,0.512-0.944,0.623-1.584h1.561V0.021H194.125z"/>
				<path d="M213.325-5.764v1.8h-2.304v3.984h-1.92v-3.984h-7.464v-1.968l7.752-11.064h1.632v11.232H213.325z M209.101-14.091
					h-0.048l-5.664,8.328h5.712V-14.091z"/>
			</g>
		</g>
		<g>
			<g>
				<path d="M87.125,25.02V12.828h-4.416v-1.632c0.576,0,1.136-0.043,1.68-0.132c0.543-0.088,1.036-0.252,1.476-0.492
					c0.44-0.24,0.812-0.567,1.116-0.984c0.304-0.416,0.512-0.944,0.624-1.584h1.56V25.02H87.125z"/>
				<path d="M100.469,25.02V12.828h-4.416v-1.632c0.576,0,1.136-0.043,1.68-0.132c0.543-0.088,1.036-0.252,1.476-0.492
					c0.44-0.24,0.812-0.567,1.116-0.984c0.304-0.416,0.512-0.944,0.624-1.584h1.56V25.02H100.469z"/>
			</g>
		</g>
		<g>
			<g>
				<path d="M171.125-74.979v-12.192h-4.416v-1.632c0.576,0,1.136-0.043,1.68-0.132c0.543-0.088,1.036-0.252,1.476-0.492
					c0.44-0.24,0.812-0.567,1.116-0.984c0.304-0.416,0.512-0.944,0.624-1.584h1.56v17.016H171.125z"/>
				<path d="M179.021-85.275c0.032-0.672,0.112-1.328,0.24-1.968c0.128-0.64,0.312-1.248,0.552-1.824
					c0.24-0.576,0.567-1.08,0.984-1.512c0.416-0.432,0.94-0.776,1.572-1.032s1.388-0.384,2.268-0.384s1.635,0.128,2.268,0.384
					c0.632,0.256,1.156,0.6,1.572,1.032s0.744,0.936,0.984,1.512c0.239,0.576,0.424,1.184,0.551,1.824
					c0.129,0.64,0.209,1.296,0.24,1.968c0.032,0.672,0.049,1.32,0.049,1.944s-0.017,1.272-0.049,1.944
					c-0.031,0.672-0.111,1.329-0.24,1.968c-0.127,0.64-0.312,1.244-0.551,1.812c-0.24,0.568-0.568,1.068-0.984,1.5
					s-0.936,0.772-1.561,1.02c-0.623,0.248-1.384,0.372-2.28,0.372c-0.88,0-1.636-0.125-2.268-0.372
					c-0.632-0.248-1.156-0.588-1.572-1.02c-0.417-0.432-0.744-0.932-0.984-1.5c-0.24-0.568-0.424-1.172-0.552-1.812
					c-0.128-0.64-0.208-1.296-0.24-1.968c-0.032-0.672-0.048-1.32-0.048-1.944S178.989-84.604,179.021-85.275z M181.193-81.208
					c0.04,0.792,0.168,1.536,0.384,2.232c0.216,0.696,0.564,1.284,1.044,1.764c0.48,0.48,1.152,0.72,2.016,0.72
					c0.864,0,1.536-0.24,2.016-0.72s0.828-1.068,1.044-1.764c0.216-0.696,0.344-1.44,0.384-2.232s0.061-1.508,0.061-2.148
					c0-0.416-0.004-0.876-0.012-1.38c-0.009-0.504-0.049-1.008-0.121-1.512c-0.071-0.504-0.176-0.996-0.312-1.476
					s-0.336-0.9-0.601-1.26c-0.264-0.36-0.596-0.652-0.995-0.876c-0.4-0.224-0.888-0.336-1.464-0.336
					c-0.576,0-1.064,0.112-1.464,0.336s-0.732,0.516-0.996,0.876c-0.264,0.36-0.464,0.78-0.6,1.26s-0.24,0.972-0.312,1.476
					c-0.072,0.504-0.112,1.008-0.12,1.512c-0.008,0.504-0.012,0.964-0.012,1.38C181.133-82.715,181.153-82,181.193-81.208z"/>
			</g>
		</g>
		<g>
			<g>
				<path d="M273.625-85.979v-12.192h-4.416v-1.632c0.576,0,1.136-0.043,1.681-0.132c0.543-0.088,1.035-0.252,1.476-0.492
					c0.44-0.24,0.812-0.567,1.116-0.984c0.303-0.416,0.512-0.944,0.623-1.584h1.561v17.016H273.625z"/>
				<path d="M285.913-95.675c0.08,0,0.16,0,0.24,0h0.432c0.432,0,0.844-0.06,1.236-0.18s0.736-0.296,1.032-0.528
					s0.532-0.524,0.708-0.876s0.264-0.752,0.264-1.2c0-0.912-0.288-1.596-0.863-2.052c-0.576-0.456-1.297-0.684-2.16-0.684
					c-0.545,0-1.021,0.1-1.428,0.3c-0.408,0.2-0.744,0.468-1.009,0.804c-0.264,0.336-0.46,0.728-0.588,1.176
					c-0.128,0.448-0.192,0.92-0.192,1.416h-2.039c0.031-0.816,0.163-1.56,0.396-2.232c0.231-0.672,0.563-1.248,0.996-1.728
					c0.432-0.48,0.972-0.856,1.62-1.128s1.396-0.408,2.244-0.408c0.735,0,1.42,0.092,2.052,0.276c0.632,0.185,1.18,0.46,1.644,0.828
					c0.465,0.368,0.828,0.84,1.092,1.416c0.265,0.576,0.396,1.256,0.396,2.04c0,0.768-0.225,1.448-0.672,2.04
					c-0.448,0.592-1.008,1.04-1.68,1.344v0.048c1.039,0.224,1.812,0.712,2.315,1.464c0.504,0.752,0.757,1.64,0.757,2.664
					c0,0.848-0.156,1.596-0.469,2.244s-0.732,1.188-1.26,1.62c-0.528,0.432-1.148,0.756-1.86,0.972s-1.468,0.324-2.269,0.324
					c-0.863,0-1.647-0.12-2.352-0.36c-0.704-0.24-1.305-0.596-1.8-1.068c-0.496-0.472-0.876-1.052-1.14-1.74
					s-0.389-1.472-0.372-2.352h2.04c0.031,1.104,0.352,2.004,0.96,2.7c0.607,0.696,1.495,1.044,2.663,1.044
					c0.496,0,0.969-0.076,1.416-0.228c0.448-0.152,0.841-0.368,1.177-0.648c0.336-0.28,0.604-0.624,0.804-1.032
					c0.2-0.408,0.301-0.868,0.301-1.38c0-0.528-0.097-0.996-0.289-1.404c-0.191-0.408-0.447-0.752-0.768-1.032
					s-0.7-0.488-1.141-0.624c-0.439-0.136-0.916-0.204-1.428-0.204c-0.432,0-0.84,0.024-1.224,0.072V-95.7
					C285.777-95.684,285.848-95.675,285.913-95.675z"/>
			</g>
		</g>
		<g>
			<g>
				<path d="M268.125,43.553V31.361h-4.416v-1.632c0.576,0,1.136-0.043,1.681-0.132c0.543-0.088,1.035-0.252,1.476-0.492
					c0.44-0.24,0.812-0.567,1.116-0.984c0.303-0.416,0.512-0.944,0.623-1.584h1.561v17.016H268.125z"/>
				<path d="M276.285,30.161c0.224-0.736,0.572-1.372,1.044-1.908c0.473-0.536,1.061-0.956,1.764-1.26
					c0.705-0.304,1.504-0.456,2.4-0.456c0.736,0,1.428,0.108,2.076,0.324c0.648,0.216,1.212,0.528,1.691,0.936
					c0.48,0.408,0.86,0.916,1.141,1.524c0.279,0.608,0.42,1.312,0.42,2.112c0,0.752-0.116,1.416-0.348,1.992
					c-0.232,0.576-0.541,1.092-0.924,1.548c-0.385,0.456-0.824,0.868-1.32,1.236c-0.496,0.369-1.008,0.72-1.536,1.056
					c-0.528,0.32-1.056,0.636-1.584,0.948s-1.013,0.644-1.452,0.996c-0.439,0.353-0.816,0.732-1.128,1.14
					c-0.312,0.408-0.517,0.876-0.612,1.404h8.736v1.8h-11.111c0.079-1.008,0.26-1.868,0.539-2.58
					c0.279-0.712,0.637-1.332,1.068-1.86s0.92-0.992,1.464-1.392c0.544-0.4,1.112-0.776,1.704-1.128
					c0.72-0.448,1.352-0.86,1.896-1.236c0.543-0.376,0.996-0.756,1.355-1.14c0.359-0.384,0.632-0.8,0.816-1.248
					c0.184-0.448,0.275-0.968,0.275-1.56c0-0.464-0.088-0.884-0.264-1.26s-0.412-0.7-0.708-0.972
					c-0.296-0.272-0.645-0.48-1.044-0.624c-0.4-0.144-0.824-0.216-1.271-0.216c-0.593,0-1.102,0.124-1.525,0.372
					c-0.424,0.249-0.771,0.572-1.043,0.972c-0.272,0.4-0.469,0.852-0.588,1.356c-0.121,0.504-0.172,1.012-0.156,1.524h-2.04
					C275.973,31.697,276.061,30.897,276.285,30.161z"/>
			</g>
		</g>
	</g>
</g>
</svg>
