<?xml version="1.0" encoding="utf-8"?>
<!-- Generator: Adobe Illustrator 15.1.0, SVG Export Plug-In . SVG Version: 6.00 Build 0)  -->
<!DOCTYPE svg PUBLIC "-//W3C//DTD SVG 1.1 Tiny//EN" "http://www.w3.org/Graphics/SVG/1.1/DTD/svg11-tiny.dtd">
<svg version="1.1" baseProfile="tiny" id="Layer_1" xmlns="http://www.w3.org/2000/svg" xmlns:xlink="http://www.w3.org/1999/xlink"
	 x="0px" y="0px" width="317px" height="39px" viewBox="0 0 317 39" overflow="inherit" xml:space="preserve">
<g>
	<path fill="none" d="M187.895,22.398c-0.254,0-0.43,0.049-0.619,0.143c-0.215,0.081-0.366,0.225-0.525,0.391
		c-0.175,0.154-0.3,0.356-0.425,0.573c-0.132,0.215-0.229,0.448-0.313,0.695c-0.088,0.246-0.148,0.5-0.193,0.758
		c-0.049,0.239-0.065,0.51-0.065,0.755c-0.017,0.396,0.058,0.699,0.173,0.895c0.107,0.191,0.303,0.291,0.559,0.291
		c0.146,0,0.365-0.057,0.578-0.172c0.19-0.125,0.416-0.281,0.613-0.498c0.174-0.227,0.381-0.481,0.545-0.793
		c0.16-0.324,0.291-0.664,0.375-1.054v0.001c0.01-0.229,0.078-0.402,0.112-0.602c0.032-0.229,0.052-0.385,0.052-0.553
		c-0.02-0.311-0.068-0.514-0.205-0.641C188.398,22.433,188.197,22.398,187.895,22.398z"/>
	<path fill="none" d="M276.176,34.803c0.196-0.122,0.383-0.264,0.488-0.43c0.083-0.19,0.156-0.347,0.156-0.545
		c-0.006-0.238-0.06-0.406-0.178-0.534c-0.131-0.16-0.287-0.194-0.509-0.194c-0.218,0-0.411,0.051-0.614,0.148
		c-0.209,0.083-0.393,0.24-0.572,0.422c-0.195,0.159-0.342,0.403-0.489,0.662c-0.166,0.248-0.271,0.548-0.369,0.867l-0.001,0.001
		c0.451-0.004,0.893-0.041,1.238-0.111C275.664,34.99,275.955,34.924,276.176,34.803z"/>
	<path fill="none" d="M226.684,15.699c0.146,0,0.366-0.057,0.578-0.172c0.191-0.125,0.416-0.282,0.614-0.498
		c0.173-0.228,0.38-0.482,0.545-0.794c0.16-0.324,0.291-0.663,0.375-1.054l-0.001,0.001c0.01-0.229,0.079-0.401,0.113-0.602
		c0.031-0.228,0.052-0.385,0.052-0.552c-0.021-0.312-0.069-0.515-0.206-0.642c-0.154-0.155-0.357-0.188-0.658-0.188
		c-0.255,0-0.431,0.048-0.621,0.142c-0.215,0.081-0.365,0.226-0.524,0.392c-0.175,0.153-0.3,0.355-0.425,0.572
		c-0.133,0.215-0.229,0.448-0.314,0.695c-0.087,0.246-0.148,0.5-0.191,0.758c-0.051,0.239-0.066,0.51-0.066,0.755
		c-0.018,0.396,0.059,0.699,0.173,0.895C226.232,15.599,226.428,15.699,226.684,15.699z"/>
	<path fill="none" d="M100.676,34.803c0.196-0.122,0.383-0.264,0.488-0.43c0.083-0.19,0.156-0.347,0.156-0.545
		c-0.006-0.238-0.059-0.406-0.177-0.534c-0.131-0.16-0.287-0.194-0.509-0.194c-0.218,0-0.412,0.051-0.614,0.148
		c-0.209,0.083-0.393,0.24-0.573,0.422c-0.195,0.159-0.342,0.403-0.489,0.662c-0.166,0.248-0.27,0.548-0.369,0.867L98.588,35.2
		c0.451-0.004,0.893-0.041,1.238-0.111C100.164,34.99,100.455,34.924,100.676,34.803z"/>
	<path fill="none" d="M12.595,22.398c-0.254,0-0.43,0.049-0.62,0.143c-0.215,0.081-0.366,0.225-0.525,0.391
		c-0.175,0.154-0.3,0.356-0.425,0.573c-0.132,0.215-0.229,0.448-0.314,0.695c-0.087,0.246-0.148,0.5-0.192,0.758
		c-0.05,0.239-0.066,0.51-0.066,0.755c-0.017,0.396,0.058,0.699,0.173,0.895c0.107,0.191,0.302,0.291,0.558,0.291
		c0.146,0,0.366-0.057,0.578-0.172c0.191-0.125,0.416-0.281,0.614-0.498c0.173-0.227,0.38-0.481,0.545-0.793
		c0.16-0.324,0.291-0.664,0.375-1.054l-0.001,0.001c0.01-0.229,0.079-0.402,0.113-0.602c0.032-0.229,0.052-0.385,0.052-0.553
		c-0.02-0.311-0.069-0.514-0.206-0.641C13.099,22.433,12.897,22.398,12.595,22.398z"/>
	<path fill="none" d="M98.776,12.104c0.195-0.123,0.383-0.265,0.488-0.431c0.083-0.19,0.156-0.347,0.156-0.545
		c-0.006-0.238-0.059-0.406-0.177-0.534c-0.131-0.16-0.287-0.193-0.509-0.193c-0.218,0-0.412,0.05-0.614,0.147
		c-0.209,0.083-0.393,0.24-0.573,0.422c-0.195,0.159-0.342,0.403-0.489,0.662c-0.166,0.248-0.27,0.548-0.369,0.867L96.688,12.5
		c0.451-0.004,0.893-0.041,1.238-0.111C98.264,12.29,98.555,12.224,98.776,12.104z"/>
	<path fill="none" d="M50.884,15.699c0.146,0,0.366-0.057,0.578-0.172c0.191-0.125,0.416-0.282,0.614-0.498
		c0.173-0.228,0.38-0.482,0.545-0.794c0.16-0.324,0.291-0.663,0.375-1.054l-0.001,0.001c0.01-0.229,0.079-0.401,0.113-0.602
		c0.032-0.228,0.052-0.385,0.052-0.552c-0.021-0.312-0.069-0.515-0.206-0.642c-0.155-0.155-0.357-0.188-0.659-0.188
		c-0.254,0-0.43,0.048-0.62,0.142c-0.214,0.081-0.366,0.226-0.525,0.392c-0.175,0.153-0.3,0.355-0.425,0.572
		c-0.132,0.215-0.229,0.448-0.314,0.695c-0.087,0.246-0.148,0.5-0.192,0.758c-0.05,0.239-0.066,0.51-0.066,0.755
		c-0.018,0.396,0.058,0.699,0.173,0.895C50.433,15.599,50.628,15.699,50.884,15.699z"/>
	<path fill="none" d="M274.576,12.104c0.195-0.123,0.383-0.265,0.488-0.431c0.082-0.19,0.156-0.347,0.156-0.545
		c-0.007-0.238-0.06-0.406-0.178-0.534c-0.131-0.16-0.287-0.193-0.509-0.193c-0.218,0-0.412,0.05-0.614,0.147
		c-0.209,0.083-0.393,0.24-0.572,0.422c-0.195,0.159-0.343,0.403-0.49,0.662c-0.166,0.248-0.27,0.548-0.368,0.867l-0.001,0.001
		c0.451-0.004,0.893-0.041,1.238-0.111C274.064,12.29,274.355,12.224,274.576,12.104z"/>
	<path d="M2.648,22.288c-0.263,0.308-0.481,0.51-0.62,0.677c-0.15,0.143-0.294,0.221-0.346,0.273
		c-0.08,0.037-0.176,0.056-0.228,0.056c-0.151,0-0.271-0.1-0.272-0.3H0.639L0.328,24.4c0.155,0.062,0.344,0.094,0.598,0.094
		c0.269,0,0.458-0.034,0.647-0.098c0.164-0.062,0.304-0.197,0.505-0.332c0.174-0.158,0.38-0.416,0.661-0.736
		c0.267-0.332,0.652-0.91,1.222-1.643h0.078c0.036,0.348,0.122,0.816,0.295,1.5c0.088,0.367,0.175,0.637,0.302,0.812
		c0.115,0.173,0.235,0.272,0.405,0.378c0.155,0.079,0.34,0.119,0.567,0.119c0.403,0,0.732-0.134,1.044-0.33
		c0.293-0.219,0.607-0.609,0.983-1.137L7.13,22.694c-0.249,0.383-0.461,0.616-0.572,0.737c-0.131,0.109-0.285,0.163-0.406,0.163
		c-0.078,0-0.163-0.032-0.206-0.042c-0.059-0.027-0.143-0.08-0.175-0.145c-0.056-0.07-0.114-0.174-0.159-0.312
		c-0.049-0.138-0.121-0.339-0.17-0.563c-0.065-0.239-0.147-0.551-0.223-0.895c-0.082-0.357-0.189-0.806-0.264-1.274l0.528-0.646
		c0.191-0.231,0.362-0.473,0.559-0.667c0.181-0.212,0.332-0.397,0.489-0.539c0.145-0.146,0.232-0.252,0.33-0.295
		c0.075-0.05,0.12-0.091,0.191-0.098c0.052-0.015,0.1-0.023,0.147-0.023c0.151,0,0.217,0.101,0.271,0.3h0.544l0.311-1.405
		c-0.155-0.063-0.365-0.095-0.598-0.095c-0.268,0-0.512,0-0.648,0.098c-0.163,0.062-0.357,0.165-0.508,0.331
		c-0.176,0.157-0.401,0.381-0.648,0.716c-0.257,0.32-0.666,0.806-1.13,1.52H4.717c-0.046-0.321-0.119-0.642-0.16-0.929
		c-0.06-0.299-0.146-0.577-0.19-0.75c-0.066-0.202-0.156-0.362-0.209-0.478C4.087,17.287,4,17.186,3.91,17.117
		c-0.093-0.074-0.23-0.147-0.322-0.164c-0.121-0.037-0.284-0.055-0.422-0.055c-0.409,0-0.765,0.1-1.064,0.365
		c-0.3,0.243-0.634,0.588-0.939,1.101l0.505,0.334c0.171-0.259,0.281-0.458,0.411-0.57c0.103-0.122,0.177-0.231,0.286-0.256
		c0.088-0.048,0.167-0.073,0.297-0.073c0.098,0,0.177,0,0.244,0.059c0.065,0.039,0.096,0.086,0.183,0.207
		c0.057,0.1,0.127,0.278,0.217,0.634c0.088,0.321,0.153,0.655,0.256,1.044c0.084,0.373,0.163,0.759,0.241,1.166l-0.005-0.006
		C3.296,21.518,2.895,21.949,2.648,22.288z"/>
	<path d="M13.925,21.576c-0.038,0.158-0.113,0.332-0.152,0.591c-0.19-0.147-0.413-0.269-0.595-0.292
		c-0.207-0.048-0.466-0.073-0.686-0.073c-0.282,0-0.579,0.033-0.82,0.145c-0.264,0.096-0.521,0.214-0.748,0.405
		c-0.233,0.175-0.474,0.357-0.645,0.629c-0.196,0.243-0.388,0.483-0.506,0.811c-0.142,0.297-0.266,0.6-0.33,0.955
		c-0.078,0.339-0.125,0.689-0.116,1.058c0,0.618,0.091,1.084,0.367,1.413c0.246,0.323,0.582,0.484,1.043,0.484
		c0.196,0,0.384-0.034,0.566-0.086c0.182-0.058,0.348-0.161,0.537-0.27c0.178-0.123,0.332-0.305,0.539-0.469
		c0.181-0.189,0.355-0.448,0.561-0.688l0.08,0.034c-0.053,0.155-0.093,0.314-0.08,0.489c0,0.307,0.054,0.535,0.227,0.723
		c0.15,0.177,0.362,0.265,0.634,0.265c0.15,0,0.284-0.033,0.434-0.062c0.14-0.041,0.262-0.12,0.427-0.202
		c0.146-0.095,0.292-0.238,0.45-0.356c0.155-0.144,0.318-0.337,0.517-0.506c-0.061-0.061-0.137-0.151-0.188-0.184
		c-0.065-0.062-0.146-0.159-0.188-0.19c-0.117,0.125-0.234,0.225-0.314,0.32c-0.093,0.088-0.206,0.148-0.255,0.219
		c-0.078,0.056-0.172,0.076-0.216,0.123c-0.065,0.025-0.155,0.039-0.198,0.039c-0.109,0-0.199-0.033-0.253-0.096
		c-0.059-0.062-0.098-0.199-0.088-0.308c0-0.104-0.01-0.237,0.025-0.353c0.017-0.133,0.033-0.313,0.106-0.527h0.003l1.312-5.716
		h-0.289l-1.688,0.1l-0.073,0.4c0.147,0.008,0.24,0.007,0.366,0.032c0.096,0.015,0.167,0.036,0.223,0.069
		c0.053,0.031,0.082,0.064,0.111,0.122c0.02,0.049,0.013,0.107,0.031,0.184c0,0.09-0.019,0.187-0.038,0.334
		C13.995,21.273,13.955,21.393,13.925,21.576z M13.408,23.781c-0.034,0.199-0.103,0.373-0.113,0.602l0.001-0.001
		c-0.084,0.39-0.215,0.729-0.375,1.054c-0.165,0.312-0.372,0.566-0.545,0.793c-0.198,0.217-0.423,0.373-0.614,0.498
		c-0.212,0.115-0.432,0.172-0.578,0.172c-0.256,0-0.451-0.1-0.558-0.291c-0.115-0.195-0.19-0.498-0.173-0.895
		c0-0.245,0.016-0.516,0.066-0.755c0.044-0.258,0.105-0.512,0.192-0.758c0.085-0.247,0.182-0.48,0.314-0.695
		c0.125-0.217,0.25-0.419,0.425-0.573c0.159-0.166,0.31-0.31,0.525-0.391c0.19-0.094,0.366-0.143,0.62-0.143
		c0.302,0,0.504,0.034,0.659,0.189c0.137,0.127,0.186,0.33,0.206,0.641C13.46,23.396,13.44,23.553,13.408,23.781z"/>
	<rect x="22.756" y="17.8" width="9.566" height="1"/>
	<rect x="22.756" y="21" width="9.566" height="1"/>
	<path d="M42.348,10.188c-0.263,0.309-0.481,0.511-0.62,0.678c-0.15,0.143-0.294,0.22-0.345,0.272
		c-0.08,0.037-0.176,0.057-0.228,0.057c-0.151,0-0.271-0.101-0.272-0.3h-0.544L40.028,12.3c0.154,0.063,0.344,0.095,0.598,0.095
		c0.269,0,0.458-0.034,0.647-0.098c0.164-0.062,0.304-0.198,0.505-0.333c0.174-0.158,0.379-0.415,0.661-0.735
		c0.267-0.332,0.652-0.91,1.222-1.643h0.078c0.036,0.347,0.122,0.816,0.295,1.5c0.088,0.367,0.175,0.636,0.302,0.811
		c0.115,0.174,0.235,0.272,0.405,0.379c0.155,0.078,0.34,0.119,0.566,0.119c0.403,0,0.732-0.135,1.044-0.33
		c0.293-0.22,0.607-0.609,0.983-1.138l-0.505-0.333c-0.249,0.383-0.461,0.616-0.572,0.738c-0.131,0.109-0.285,0.163-0.406,0.163
		c-0.078,0-0.163-0.033-0.206-0.042c-0.059-0.028-0.143-0.08-0.175-0.146c-0.056-0.069-0.114-0.174-0.159-0.311
		c-0.049-0.138-0.121-0.339-0.17-0.564c-0.065-0.238-0.147-0.551-0.222-0.894c-0.082-0.358-0.19-0.807-0.264-1.275l0.528-0.645
		c0.191-0.232,0.362-0.473,0.559-0.667c0.181-0.212,0.332-0.398,0.489-0.539c0.145-0.147,0.233-0.252,0.33-0.295
		c0.075-0.05,0.12-0.091,0.191-0.099c0.052-0.015,0.1-0.022,0.147-0.022c0.151,0,0.217,0.1,0.272,0.3h0.544l0.311-1.406
		c-0.155-0.062-0.365-0.094-0.598-0.094c-0.268,0-0.512,0-0.648,0.098c-0.163,0.062-0.357,0.164-0.508,0.33
		c-0.176,0.157-0.401,0.381-0.648,0.717c-0.257,0.319-0.666,0.806-1.13,1.519h-0.078c-0.046-0.321-0.118-0.641-0.159-0.928
		c-0.06-0.3-0.146-0.577-0.19-0.75c-0.066-0.202-0.156-0.363-0.209-0.479C43.787,5.188,43.7,5.085,43.61,5.018
		c-0.093-0.074-0.23-0.147-0.322-0.164c-0.121-0.037-0.284-0.056-0.422-0.056c-0.409,0-0.765,0.101-1.064,0.366
		c-0.3,0.243-0.634,0.587-0.939,1.1l0.505,0.334c0.171-0.258,0.281-0.458,0.411-0.569c0.103-0.122,0.177-0.231,0.286-0.257
		c0.088-0.048,0.167-0.072,0.297-0.072c0.098,0,0.177,0,0.244,0.058c0.065,0.039,0.096,0.086,0.183,0.208
		c0.057,0.1,0.127,0.278,0.217,0.633c0.088,0.322,0.153,0.656,0.256,1.045c0.084,0.372,0.163,0.759,0.241,1.165l-0.005-0.006
		C42.996,9.418,42.595,9.849,42.348,10.188z"/>
	<polygon points="52.192,0.843 52.192,0.403 50.732,0.403 49.644,5.203 50.306,5.401 	"/>
	<polygon points="52.192,0.402 52.192,0.403 52.193,0.403 	"/>
	<path d="M49.143,13.546c-0.078,0.339-0.125,0.69-0.116,1.058c0,0.618,0.091,1.084,0.367,1.414c0.246,0.322,0.582,0.483,1.044,0.483
		c0.196,0,0.384-0.034,0.566-0.086c0.181-0.058,0.347-0.161,0.537-0.269c0.178-0.123,0.332-0.306,0.539-0.47
		c0.181-0.188,0.355-0.448,0.561-0.687l0.08,0.033c-0.053,0.155-0.093,0.314-0.08,0.489c0,0.307,0.054,0.535,0.227,0.724
		c0.15,0.176,0.362,0.264,0.634,0.264c0.15,0,0.284-0.033,0.434-0.062c0.14-0.041,0.262-0.12,0.427-0.202
		c0.146-0.095,0.292-0.238,0.45-0.356c0.155-0.144,0.318-0.337,0.517-0.506c-0.061-0.061-0.137-0.151-0.188-0.184
		c-0.065-0.062-0.145-0.158-0.188-0.19c-0.117,0.125-0.234,0.225-0.314,0.32c-0.093,0.089-0.206,0.148-0.254,0.219
		c-0.078,0.056-0.172,0.077-0.216,0.123c-0.065,0.026-0.155,0.039-0.198,0.039c-0.109,0-0.199-0.033-0.253-0.095
		c-0.059-0.063-0.098-0.199-0.088-0.309c0-0.104-0.01-0.236,0.025-0.353c0.017-0.132,0.033-0.313,0.105-0.527h0.003l1.312-5.716
		h-0.289l-1.688,0.1l-0.072,0.4c0.147,0.008,0.24,0.007,0.366,0.033c0.096,0.014,0.167,0.035,0.223,0.068
		c0.053,0.031,0.082,0.064,0.111,0.122c0.02,0.049,0.013,0.107,0.031,0.185c0,0.089-0.019,0.186-0.038,0.333
		c-0.024,0.132-0.064,0.251-0.094,0.434c-0.038,0.158-0.113,0.332-0.152,0.591c-0.19-0.146-0.413-0.269-0.595-0.292
		c-0.207-0.048-0.466-0.073-0.686-0.073c-0.282,0-0.58,0.033-0.82,0.145c-0.264,0.096-0.521,0.214-0.748,0.406
		c-0.233,0.174-0.474,0.356-0.645,0.628c-0.196,0.243-0.388,0.483-0.506,0.811C49.331,12.888,49.207,13.191,49.143,13.546z
		 M50.219,13.758c0.043-0.258,0.104-0.512,0.192-0.758c0.085-0.247,0.182-0.48,0.314-0.695c0.125-0.217,0.25-0.419,0.425-0.572
		c0.159-0.166,0.311-0.311,0.525-0.392c0.19-0.094,0.366-0.142,0.62-0.142c0.302,0,0.504,0.033,0.659,0.188
		c0.137,0.127,0.186,0.33,0.206,0.642c0,0.167-0.021,0.324-0.052,0.552c-0.034,0.2-0.103,0.373-0.113,0.602l0.001-0.001
		c-0.084,0.391-0.215,0.729-0.375,1.054c-0.165,0.312-0.372,0.566-0.545,0.794c-0.198,0.216-0.423,0.373-0.614,0.498
		c-0.212,0.115-0.432,0.172-0.578,0.172c-0.256,0-0.451-0.101-0.558-0.292c-0.115-0.195-0.19-0.498-0.173-0.895
		C50.153,14.268,50.169,13.997,50.219,13.758z"/>
	<path d="M63.347,8.436C63.516,8.259,63.6,8.014,63.6,7.75c0-0.28-0.1-0.53-0.253-0.684C63.179,6.889,62.963,6.8,62.7,6.8
		c-0.263,0-0.496,0.067-0.648,0.267C61.884,7.242,61.8,7.453,61.8,7.75c0,0.281,0.067,0.497,0.252,0.686
		C62.22,8.612,62.436,8.7,62.7,8.7C62.963,8.7,63.163,8.6,63.347,8.436z"/>
	<path d="M72.073,4.025c0.582-1.154,1.458-1.963,2.691-2.328l-0.211-0.599c-1.51,0.398-2.695,1.232-3.459,2.577
		C70.298,4.996,69.9,6.571,69.9,8.453c0,1.871,0.366,3.453,1.189,4.777c0.794,1.315,1.93,2.172,3.464,2.569l0.187-0.598
		c-1.196-0.398-2.109-1.198-2.667-2.356c-0.582-1.172-0.873-2.687-0.873-4.469V8.375C71.2,6.629,71.466,5.17,72.073,4.025z"/>
	<rect x="76.256" y="7.3" width="9.565" height="1"/>
	<path d="M87.195,11.919l0.148,0.381h5.62l0.473-2.2v-0.001h-0.691c-0.197,0.416-0.379,0.716-0.494,0.916
		c-0.131,0.195-0.282,0.323-0.384,0.437c-0.124,0.096-0.279,0.145-0.435,0.197c-0.166,0.034-0.41,0.052-0.713,0.052h-1.755
		l-0.047-0.056c0.528-0.574,1.122-1.289,1.872-2.098l3.703-4.258L94.344,4.9h-5.519l-0.458,2h0.69
		c0.176-0.328,0.324-0.596,0.478-0.758c0.143-0.178,0.264-0.324,0.4-0.4c0.124-0.089,0.246-0.17,0.372-0.188
		c0.125-0.037,0.29-0.055,0.591-0.055h1.817l0.047,0.055c-0.279,0.291-0.732,0.773-1.32,1.469L87.195,11.919z"/>
	<path d="M96.576,13.1c2.585,0,3.86-0.699,3.878-2.069c0-0.394-0.152-0.703-0.377-0.908c-0.25-0.213-0.642-0.32-1.1-0.32
		c-0.53,0-1.022,0.1-1.466,0.331c-0.447,0.221-0.85,0.51-1.145,0.922c-0.159,0.193-0.314,0.375-0.414,0.623
		c-0.117,0.221-0.234,0.428-0.294,0.682c-0.08,0.231-0.166,0.445-0.177,0.697c-0.037,0.233-0.065,0.447-0.056,0.672
		c0,0.308,0.025,0.564,0.122,0.827c0.081,0.244,0.199,0.425,0.356,0.622c0.157,0.17,0.323,0.277,0.578,0.39
		c0.228,0.088,0.467,0.133,0.784,0.133c0.502,0,0.947-0.133,1.408-0.319c0.436-0.213,0.845-0.541,1.311-0.953h0.002l-0.425-0.459
		c-0.177,0.182-0.363,0.325-0.509,0.467c-0.162,0.131-0.346,0.219-0.484,0.32c-0.161,0.083-0.35,0.131-0.491,0.184
		c-0.166,0.039-0.358,0.06-0.527,0.06c-0.354,0-0.637-0.101-0.784-0.286c-0.168-0.189-0.256-0.495-0.252-0.909
		c0-0.137-0.004-0.271,0.017-0.381C96.542,13.307,96.532,13.199,96.576,13.1z M96.689,12.499c0.099-0.319,0.203-0.619,0.369-0.867
		c0.147-0.259,0.294-0.503,0.489-0.662c0.18-0.182,0.364-0.339,0.573-0.422c0.202-0.098,0.396-0.147,0.614-0.147
		c0.222,0,0.378,0.033,0.509,0.193c0.118,0.128,0.171,0.296,0.177,0.534c0,0.198-0.073,0.354-0.156,0.545
		c-0.105,0.166-0.292,0.308-0.488,0.431c-0.221,0.12-0.512,0.187-0.85,0.285C97.581,12.459,97.139,12.496,96.689,12.499
		L96.689,12.499z"/>
	<polygon points="111.188,2.8 111.188,7.3 106.957,7.3 106.957,8.3 111.188,8.3 111.188,12.8 112.291,12.8 112.291,8.3 116.522,8.3 
		116.522,7.3 112.291,7.3 112.291,2.8 	"/>
	<path d="M124.42,5.12c-0.189-0.215-0.461-0.323-0.772-0.323c-0.393,0-0.775,0.1-1.083,0.328c-0.329,0.219-0.75,0.543-1.177,1.038
		l0.442,0.434c0.311-0.341,0.535-0.606,0.734-0.704c0.178-0.131,0.324-0.195,0.508-0.195c0.146,0,0.223,0.033,0.319,0.139
		c0.068,0.091,0.072,0.212,0.102,0.445c0,0.267-0.064,0.639-0.172,1.139l-1.133,4.877h1.344l0.737-3.342
		c0.108-0.475,0.219-0.893,0.403-1.205c0.16-0.329,0.37-0.68,0.667-1.03c0.285-0.358,0.54-0.633,0.805-0.78
		c0.25-0.162,0.47-0.243,0.67-0.243c0.28,0,0.476,0.066,0.617,0.235c0.132,0.157,0.189,0.411,0.198,0.791
		c0,0.165-0.043,0.356-0.058,0.592c-0.039,0.229-0.129,0.557-0.222,1.061l-0.892,3.922h1.342l0.708-3.373
		c0.103-0.479,0.234-0.887,0.414-1.216c0.174-0.332,0.367-0.669,0.672-1.011c0.275-0.342,0.511-0.609,0.784-0.756
		c0.248-0.163,0.456-0.244,0.698-0.244c0.27,0,0.445,0.065,0.583,0.233c0.119,0.157,0.166,0.412,0.178,0.767
		c0,0.144-0.045,0.311-0.058,0.562c-0.038,0.231-0.131,0.576-0.245,1.069l-0.341,1.33c-0.171,0.646-0.268,1.126-0.256,1.47
		c0,0.369,0.088,0.659,0.302,0.911c0.202,0.239,0.456,0.358,0.808,0.358c0.425,0,0.776-0.134,1.134-0.331
		c0.331-0.223,0.705-0.578,1.164-1.034l-0.442-0.435c-0.321,0.352-0.588,0.584-0.745,0.714c-0.176,0.125-0.362,0.187-0.497,0.187
		c-0.145,0-0.265-0.066-0.319-0.137c-0.067-0.093-0.114-0.247-0.1-0.445c0-0.229,0.053-0.636,0.209-1.183l0.505-2.012
		c0.15-0.592,0.198-1.066,0.225-1.373c0-0.489-0.16-0.873-0.389-1.142c-0.259-0.272-0.656-0.408-1.102-0.408
		c-0.476,0-0.939,0.134-1.378,0.461c-0.443,0.308-0.913,0.753-1.331,1.402c0.005-0.042-0.021-0.096,0.008-0.116V6.439
		c0-0.531-0.162-0.944-0.389-1.218c-0.259-0.28-0.658-0.422-1.133-0.422c-0.482,0-0.97,0.167-1.43,0.515
		c-0.471,0.343-0.949,0.838-1.42,1.572l0.002-0.003l-0.092-0.008c0.119-0.322,0.177-0.649,0.178-0.911
		C124.704,5.618,124.604,5.328,124.42,5.12z"/>
	<path d="M137.527,12.848c-0.582,1.172-1.491,1.958-2.666,2.356l0.186,0.598c1.516-0.397,2.668-1.265,3.464-2.569
		c0.793-1.313,1.189-2.925,1.189-4.777c0-1.865-0.4-3.482-1.194-4.777c-0.795-1.32-1.963-2.179-3.459-2.576l-0.209,0.598
		c1.215,0.397,2.103,1.165,2.692,2.328c0.58,1.153,0.87,2.578,0.87,4.35v0.002C138.4,10.188,138.1,11.661,137.527,12.848z"/>
	<rect x="39.846" y="19.301" width="101.328" height="1.035"/>
	<rect x="78.156" y="30" width="9.565" height="1"/>
	<path d="M96.392,27.989l-0.148-0.39h-5.519l-0.458,2h0.691c0.176-0.328,0.324-0.595,0.477-0.758c0.143-0.177,0.264-0.324,0.4-0.399
		c0.124-0.089,0.246-0.171,0.372-0.188c0.125-0.037,0.29-0.055,0.591-0.055h1.817l0.047,0.055c-0.279,0.291-0.732,0.773-1.32,1.469
		l-4.248,4.896L89.243,35h5.62l0.473-2.2v-0.001h-0.691c-0.197,0.416-0.379,0.716-0.494,0.916c-0.131,0.195-0.282,0.323-0.384,0.437
		c-0.124,0.096-0.279,0.145-0.434,0.196c-0.166,0.035-0.41,0.053-0.714,0.053h-1.755l-0.047-0.056
		c0.527-0.575,1.122-1.289,1.872-2.098L96.392,27.989z"/>
	<path d="M98.476,35.8c2.585,0,3.86-0.7,3.878-2.069c0-0.394-0.152-0.703-0.377-0.908c-0.25-0.213-0.642-0.32-1.1-0.32
		c-0.53,0-1.022,0.1-1.466,0.331c-0.447,0.221-0.85,0.51-1.145,0.922c-0.159,0.193-0.314,0.375-0.414,0.623
		c-0.117,0.221-0.234,0.428-0.294,0.681c-0.08,0.232-0.166,0.446-0.177,0.698c-0.037,0.233-0.065,0.447-0.056,0.672
		c0,0.308,0.025,0.564,0.122,0.827c0.082,0.244,0.199,0.425,0.356,0.622c0.157,0.17,0.323,0.277,0.578,0.39
		c0.228,0.088,0.467,0.133,0.784,0.133c0.502,0,0.947-0.133,1.408-0.319c0.436-0.213,0.845-0.541,1.311-0.953h0.002l-0.425-0.459
		c-0.177,0.181-0.363,0.325-0.509,0.467c-0.162,0.13-0.346,0.218-0.484,0.32c-0.161,0.083-0.35,0.131-0.491,0.184
		c-0.166,0.039-0.358,0.06-0.527,0.06c-0.354,0-0.637-0.101-0.784-0.286c-0.168-0.19-0.256-0.495-0.252-0.909
		c0-0.137-0.004-0.271,0.017-0.381C98.442,36.007,98.432,35.898,98.476,35.8z M98.589,35.199c0.099-0.319,0.203-0.619,0.369-0.867
		c0.147-0.259,0.294-0.503,0.489-0.662c0.18-0.182,0.364-0.339,0.573-0.422c0.202-0.098,0.396-0.148,0.614-0.148
		c0.222,0,0.378,0.034,0.509,0.194c0.118,0.128,0.171,0.296,0.177,0.534c0,0.198-0.073,0.354-0.156,0.545
		c-0.105,0.166-0.292,0.308-0.488,0.43c-0.221,0.121-0.512,0.188-0.85,0.286C99.481,35.159,99.039,35.196,98.589,35.199
		L98.589,35.199z"/>
	<path d="M177.391,26.045c-0.398,0.37-0.763,0.557-1.048,0.557c-0.228,0-0.343-0.168-0.342-0.5h-0.614l-0.332,1.5
		c0.076,0.029,0.158,0.029,0.329,0.071c0.144,0.02,0.248,0.028,0.378,0.028c0.314,0,0.594-0.067,0.891-0.169
		c0.353-0.149,0.701-0.427,1.096-0.739c0.544-0.502,1.193-1.333,2.042-2.436c0.854-1.18,1.591-2.364,2.274-3.553
		c0.672-1.214,1.185-2.383,1.599-3.42l-0.209-0.384h-2.042l-0.077,0.4c0.248,0.015,0.403,0.049,0.526,0.152
		c0.104,0.087,0.15,0.235,0.156,0.489c0,0.314-0.106,0.701-0.229,1.23c-0.151,0.505-0.415,1.08-0.753,1.781
		c-0.35,0.684-0.795,1.365-1.277,2.096c-0.084-0.621-0.203-1.306-0.3-2.023c-0.115-0.727-0.235-1.436-0.358-2.077
		c-0.074-0.392-0.14-0.709-0.199-0.903c-0.059-0.209-0.159-0.425-0.209-0.565c-0.08-0.169-0.178-0.329-0.276-0.394
		c-0.103-0.095-0.208-0.191-0.31-0.203c-0.15-0.057-0.353-0.084-0.543-0.084c-0.385,0-0.738,0.1-1.041,0.33
		c-0.312,0.222-0.652,0.577-1.002,1.135l0.504,0.334c0.213-0.331,0.371-0.564,0.537-0.698c0.145-0.135,0.291-0.202,0.465-0.202
		c0.108,0,0.166,0.034,0.272,0.1c0.119,0.107,0.22,0.341,0.341,0.741c0.09,0.322,0.242,1.143,0.545,2.503
		c0.258,1.26,0.432,2.312,0.613,3.227l-0.001,0.001C178.258,25.116,177.759,25.659,177.391,26.045z"/>
	<path d="M189.225,21.576c-0.037,0.158-0.113,0.332-0.151,0.591c-0.19-0.147-0.413-0.269-0.595-0.292
		c-0.207-0.048-0.467-0.073-0.687-0.073c-0.282,0-0.579,0.033-0.819,0.145c-0.265,0.096-0.521,0.214-0.748,0.405
		c-0.233,0.175-0.475,0.357-0.646,0.629c-0.196,0.243-0.388,0.483-0.506,0.811c-0.142,0.297-0.267,0.6-0.33,0.955
		c-0.078,0.339-0.125,0.689-0.116,1.058c0,0.618,0.091,1.084,0.367,1.413c0.246,0.323,0.582,0.484,1.044,0.484
		c0.196,0,0.384-0.034,0.565-0.086c0.182-0.058,0.348-0.161,0.537-0.27c0.178-0.123,0.332-0.305,0.539-0.469
		c0.182-0.189,0.355-0.448,0.562-0.688l0.079,0.034c-0.053,0.155-0.092,0.314-0.079,0.489c0,0.307,0.054,0.535,0.227,0.723
		c0.15,0.177,0.362,0.265,0.634,0.265c0.15,0,0.285-0.033,0.435-0.062c0.14-0.041,0.262-0.12,0.427-0.202
		c0.146-0.095,0.292-0.238,0.45-0.356c0.155-0.144,0.317-0.337,0.517-0.506c-0.061-0.061-0.137-0.151-0.188-0.184
		c-0.065-0.062-0.145-0.159-0.188-0.19c-0.117,0.125-0.234,0.225-0.314,0.32c-0.094,0.088-0.206,0.148-0.256,0.219
		c-0.077,0.056-0.172,0.076-0.215,0.123c-0.065,0.025-0.156,0.039-0.199,0.039c-0.108,0-0.198-0.033-0.252-0.096
		c-0.06-0.062-0.098-0.199-0.088-0.308c0-0.104-0.01-0.237,0.024-0.353c0.017-0.133,0.033-0.313,0.106-0.527h0.002l1.312-5.716
		h-0.289l-1.688,0.1l-0.073,0.4c0.147,0.008,0.24,0.007,0.366,0.032c0.096,0.015,0.167,0.036,0.223,0.069
		c0.053,0.031,0.082,0.064,0.111,0.122c0.02,0.049,0.013,0.107,0.031,0.184c0,0.09-0.02,0.187-0.039,0.334
		C189.295,21.273,189.255,21.393,189.225,21.576z M188.708,23.781c-0.034,0.199-0.103,0.373-0.112,0.602v-0.001
		c-0.084,0.39-0.215,0.729-0.375,1.054c-0.164,0.312-0.371,0.566-0.545,0.793c-0.197,0.217-0.423,0.373-0.613,0.498
		c-0.213,0.115-0.433,0.172-0.578,0.172c-0.256,0-0.451-0.1-0.559-0.291c-0.115-0.195-0.189-0.498-0.173-0.895
		c0-0.245,0.017-0.516,0.065-0.755c0.045-0.258,0.105-0.512,0.193-0.758c0.084-0.247,0.182-0.48,0.313-0.695
		c0.125-0.217,0.25-0.419,0.425-0.573c0.159-0.166,0.311-0.31,0.525-0.391c0.189-0.094,0.365-0.143,0.619-0.143
		c0.303,0,0.504,0.034,0.66,0.189c0.137,0.127,0.186,0.33,0.205,0.641C188.76,23.396,188.74,23.553,188.708,23.781z"/>
	<rect x="198.057" y="17.8" width="9.565" height="1"/>
	<rect x="198.057" y="21" width="9.565" height="1"/>
	<path d="M217.59,13.945c-0.398,0.369-0.762,0.556-1.047,0.556c-0.229,0-0.343-0.167-0.342-0.5h-0.614l-0.333,1.5
		c0.077,0.03,0.159,0.03,0.33,0.072c0.143,0.019,0.248,0.028,0.377,0.028c0.314,0,0.596-0.067,0.893-0.17
		c0.352-0.148,0.699-0.426,1.095-0.738c0.544-0.502,1.194-1.333,2.042-2.437c0.854-1.179,1.591-2.364,2.275-3.552
		c0.672-1.214,1.184-2.383,1.598-3.42l-0.209-0.384h-2.043l-0.076,0.399c0.248,0.016,0.402,0.049,0.527,0.153
		c0.104,0.087,0.149,0.235,0.155,0.489c0,0.314-0.106,0.701-0.229,1.23c-0.152,0.504-0.415,1.079-0.754,1.781
		c-0.35,0.683-0.795,1.365-1.276,2.095c-0.084-0.621-0.203-1.305-0.3-2.022c-0.115-0.728-0.235-1.437-0.359-2.077
		c-0.072-0.393-0.139-0.709-0.197-0.903c-0.06-0.21-0.16-0.425-0.209-0.566c-0.082-0.168-0.179-0.328-0.277-0.394
		c-0.104-0.094-0.208-0.19-0.309-0.203c-0.152-0.056-0.354-0.084-0.545-0.084c-0.384,0-0.738,0.101-1.041,0.331
		c-0.311,0.221-0.652,0.577-1.002,1.134l0.506,0.334c0.213-0.331,0.371-0.563,0.535-0.697c0.145-0.136,0.291-0.202,0.467-0.202
		c0.107,0,0.166,0.033,0.271,0.1c0.119,0.107,0.22,0.34,0.341,0.741c0.089,0.322,0.242,1.142,0.544,2.502
		c0.26,1.26,0.432,2.313,0.614,3.228h-0.001C218.458,13.016,217.959,13.559,217.59,13.945z"/>
	<polygon points="227.792,0.843 227.792,0.403 226.332,0.403 225.244,5.203 225.906,5.401 	"/>
	<polygon points="227.792,0.402 227.792,0.403 227.793,0.403 	"/>
	<path d="M224.827,14.604c0,0.618,0.091,1.084,0.366,1.414c0.246,0.322,0.582,0.483,1.045,0.483c0.195,0,0.384-0.034,0.566-0.086
		c0.18-0.058,0.346-0.161,0.536-0.269c0.179-0.123,0.332-0.306,0.539-0.47c0.181-0.188,0.354-0.448,0.562-0.687l0.08,0.033
		c-0.054,0.155-0.094,0.314-0.08,0.489c0,0.307,0.054,0.535,0.227,0.724c0.15,0.176,0.361,0.264,0.634,0.264
		c0.15,0,0.284-0.033,0.435-0.062c0.14-0.041,0.262-0.12,0.427-0.202c0.146-0.095,0.292-0.238,0.45-0.356
		c0.154-0.144,0.318-0.337,0.517-0.506c-0.062-0.061-0.137-0.151-0.188-0.184c-0.064-0.062-0.145-0.158-0.188-0.19
		c-0.117,0.125-0.234,0.225-0.314,0.32c-0.092,0.089-0.205,0.148-0.254,0.219c-0.078,0.056-0.172,0.077-0.217,0.123
		c-0.064,0.026-0.154,0.039-0.197,0.039c-0.109,0-0.199-0.033-0.254-0.095c-0.059-0.063-0.098-0.199-0.088-0.309
		c0-0.104-0.01-0.236,0.025-0.353c0.018-0.132,0.033-0.313,0.105-0.527h0.004l1.312-5.716h-0.289l-1.688,0.1l-0.072,0.4
		c0.148,0.008,0.24,0.007,0.365,0.033c0.097,0.014,0.168,0.035,0.224,0.068c0.053,0.031,0.082,0.064,0.11,0.122
		c0.021,0.049,0.014,0.107,0.031,0.185c0,0.089-0.019,0.186-0.037,0.333c-0.024,0.132-0.064,0.251-0.095,0.434
		c-0.038,0.158-0.112,0.332-0.151,0.591c-0.19-0.146-0.414-0.269-0.596-0.292c-0.207-0.048-0.466-0.073-0.686-0.073
		c-0.282,0-0.579,0.033-0.82,0.145c-0.264,0.096-0.521,0.214-0.748,0.406c-0.232,0.174-0.474,0.356-0.645,0.628
		c-0.196,0.243-0.389,0.483-0.506,0.811c-0.143,0.297-0.267,0.601-0.33,0.955C224.865,13.885,224.818,14.236,224.827,14.604z
		 M226.02,13.758c0.043-0.258,0.104-0.512,0.191-0.758c0.085-0.247,0.182-0.48,0.314-0.695c0.125-0.217,0.25-0.419,0.425-0.572
		c0.159-0.166,0.31-0.311,0.524-0.392c0.19-0.094,0.366-0.142,0.621-0.142c0.301,0,0.504,0.033,0.658,0.188
		c0.137,0.127,0.186,0.33,0.206,0.642c0,0.167-0.021,0.324-0.052,0.552c-0.034,0.2-0.104,0.373-0.113,0.602l0.001-0.001
		c-0.084,0.391-0.215,0.729-0.375,1.054c-0.165,0.312-0.372,0.566-0.545,0.794c-0.198,0.216-0.423,0.373-0.614,0.498
		c-0.212,0.115-0.432,0.172-0.578,0.172c-0.256,0-0.451-0.101-0.558-0.292c-0.114-0.195-0.19-0.498-0.173-0.895
		C225.953,14.268,225.969,13.997,226.02,13.758z"/>
	<path d="M239.047,8.436c0.169-0.177,0.253-0.422,0.253-0.686c0-0.28-0.1-0.53-0.253-0.684C238.879,6.889,238.663,6.8,238.4,6.8
		c-0.264,0-0.496,0.067-0.648,0.267c-0.168,0.176-0.252,0.387-0.252,0.684c0,0.281,0.066,0.497,0.252,0.686
		C237.92,8.612,238.137,8.7,238.4,8.7C238.663,8.7,238.863,8.6,239.047,8.436z"/>
	<path d="M247.873,4.025c0.582-1.154,1.458-1.963,2.691-2.328l-0.211-0.599c-1.511,0.398-2.695,1.232-3.459,2.577
		c-0.797,1.32-1.194,2.896-1.194,4.777c0,1.871,0.366,3.453,1.188,4.777c0.795,1.315,1.93,2.172,3.465,2.569l0.187-0.598
		c-1.196-0.398-2.108-1.198-2.667-2.356C247.291,11.674,247,10.159,247,8.377V8.375C247,6.629,247.266,5.17,247.873,4.025z"/>
	<rect x="252.057" y="7.3" width="9.564" height="1"/>
	<path d="M262.995,11.919l0.147,0.381h5.621l0.473-2.2v-0.001h-0.691c-0.197,0.416-0.379,0.716-0.494,0.916
		c-0.131,0.195-0.281,0.323-0.384,0.437c-0.124,0.096-0.278,0.145-0.435,0.197c-0.166,0.034-0.409,0.052-0.713,0.052h-1.756
		l-0.047-0.056c0.528-0.574,1.122-1.289,1.872-2.098l3.703-4.258L270.145,4.9h-5.52l-0.458,2h0.69
		c0.177-0.328,0.324-0.596,0.478-0.758c0.144-0.178,0.265-0.324,0.399-0.4c0.125-0.089,0.246-0.17,0.373-0.188
		c0.125-0.037,0.289-0.055,0.591-0.055h1.817l0.047,0.055c-0.279,0.291-0.732,0.773-1.32,1.469L262.995,11.919z"/>
	<path d="M272.376,13.1c2.585,0,3.86-0.699,3.878-2.069c0-0.394-0.152-0.703-0.377-0.908c-0.25-0.213-0.643-0.32-1.1-0.32
		c-0.53,0-1.022,0.1-1.467,0.331c-0.446,0.221-0.85,0.51-1.145,0.922c-0.159,0.193-0.314,0.375-0.414,0.623
		c-0.117,0.221-0.234,0.428-0.294,0.682c-0.08,0.231-0.166,0.445-0.177,0.697c-0.037,0.233-0.065,0.447-0.057,0.672
		c0,0.308,0.025,0.564,0.123,0.827c0.08,0.244,0.198,0.425,0.355,0.622c0.156,0.17,0.322,0.277,0.578,0.39
		c0.228,0.088,0.467,0.133,0.783,0.133c0.502,0,0.947-0.133,1.408-0.319c0.437-0.213,0.846-0.541,1.312-0.953h0.002l-0.425-0.459
		c-0.178,0.182-0.363,0.325-0.51,0.467c-0.162,0.131-0.346,0.219-0.483,0.32c-0.161,0.083-0.351,0.131-0.491,0.184
		c-0.166,0.039-0.357,0.06-0.527,0.06c-0.354,0-0.637-0.101-0.783-0.286c-0.168-0.189-0.256-0.495-0.252-0.909
		c0-0.137-0.004-0.271,0.017-0.381C272.342,13.307,272.332,13.199,272.376,13.1z M272.489,12.499
		c0.099-0.319,0.202-0.619,0.368-0.867c0.147-0.259,0.295-0.503,0.49-0.662c0.18-0.182,0.363-0.339,0.572-0.422
		c0.202-0.098,0.396-0.147,0.614-0.147c0.222,0,0.378,0.033,0.509,0.193c0.118,0.128,0.171,0.296,0.178,0.534
		c0,0.198-0.074,0.354-0.156,0.545c-0.105,0.166-0.293,0.308-0.488,0.431c-0.221,0.12-0.512,0.187-0.85,0.285
		C273.381,12.459,272.939,12.496,272.489,12.499L272.489,12.499z"/>
	<polygon points="286.889,2.8 286.889,7.3 282.657,7.3 282.657,8.3 286.889,8.3 286.889,12.8 287.991,12.8 287.991,8.3 292.223,8.3 
		292.223,7.3 287.991,7.3 287.991,2.8 	"/>
	<path d="M300.221,5.12c-0.189-0.215-0.462-0.323-0.772-0.323c-0.394,0-0.775,0.1-1.083,0.328c-0.329,0.219-0.75,0.543-1.178,1.038
		l0.442,0.434c0.312-0.341,0.535-0.606,0.734-0.704c0.178-0.131,0.323-0.195,0.508-0.195c0.146,0,0.224,0.033,0.319,0.139
		c0.067,0.091,0.072,0.212,0.102,0.445c0,0.267-0.064,0.639-0.172,1.139l-1.133,4.877h1.344l0.736-3.342
		c0.108-0.475,0.22-0.893,0.404-1.205c0.159-0.329,0.369-0.68,0.666-1.03c0.285-0.358,0.541-0.633,0.805-0.78
		c0.25-0.162,0.471-0.243,0.671-0.243c0.28,0,0.476,0.066,0.616,0.235c0.133,0.157,0.189,0.411,0.199,0.791
		c0,0.165-0.044,0.356-0.059,0.592c-0.039,0.229-0.129,0.557-0.223,1.061l-0.892,3.922h1.343l0.707-3.373
		c0.104-0.479,0.234-0.887,0.414-1.216c0.174-0.332,0.367-0.669,0.672-1.011c0.275-0.342,0.512-0.609,0.784-0.756
		c0.248-0.163,0.456-0.244,0.698-0.244c0.27,0,0.445,0.065,0.583,0.233c0.119,0.157,0.166,0.412,0.178,0.767
		c0,0.144-0.045,0.311-0.058,0.562c-0.038,0.231-0.131,0.576-0.245,1.069l-0.341,1.33c-0.171,0.646-0.269,1.126-0.256,1.47
		c0,0.369,0.088,0.659,0.302,0.911c0.202,0.239,0.456,0.358,0.808,0.358c0.426,0,0.776-0.134,1.135-0.331
		c0.33-0.223,0.704-0.578,1.163-1.034l-0.441-0.435c-0.321,0.352-0.588,0.584-0.745,0.714c-0.176,0.125-0.362,0.187-0.497,0.187
		c-0.145,0-0.265-0.066-0.319-0.137c-0.066-0.093-0.113-0.247-0.1-0.445c0-0.229,0.053-0.636,0.209-1.183l0.505-2.012
		c0.15-0.592,0.198-1.066,0.226-1.373c0-0.489-0.16-0.873-0.39-1.142c-0.259-0.272-0.656-0.408-1.102-0.408
		c-0.477,0-0.939,0.134-1.378,0.461c-0.443,0.308-0.913,0.753-1.332,1.402c0.006-0.042-0.021-0.096,0.009-0.116V6.439
		c0-0.531-0.162-0.944-0.39-1.218c-0.258-0.28-0.657-0.422-1.133-0.422c-0.481,0-0.97,0.167-1.43,0.515
		c-0.471,0.343-0.949,0.838-1.42,1.572l0.002-0.003l-0.092-0.008c0.119-0.322,0.177-0.649,0.178-0.911
		C300.504,5.618,300.404,5.328,300.221,5.12z"/>
	<path d="M313.327,12.848c-0.582,1.172-1.491,1.958-2.666,2.356l0.186,0.598c1.517-0.397,2.668-1.265,3.464-2.569
		c0.793-1.313,1.189-2.925,1.189-4.777c0-1.865-0.4-3.482-1.194-4.777c-0.795-1.32-1.963-2.179-3.459-2.576l-0.209,0.598
		c1.215,0.397,2.104,1.165,2.692,2.328c0.58,1.153,0.87,2.578,0.87,4.35v0.002C314.2,10.188,313.9,11.661,313.327,12.848z"/>
	<rect x="215.174" y="19.301" width="101.76" height="1.035"/>
	<rect x="253.656" y="30" width="9.565" height="1"/>
	<path d="M264.596,34.619L264.743,35h5.62l0.473-2.2v-0.001h-0.691c-0.196,0.416-0.379,0.716-0.494,0.916
		c-0.131,0.195-0.281,0.323-0.383,0.437c-0.125,0.096-0.279,0.145-0.435,0.196c-0.166,0.035-0.41,0.053-0.714,0.053h-1.755
		l-0.048-0.056c0.529-0.575,1.123-1.289,1.873-2.098l3.703-4.258l-0.148-0.39h-5.52l-0.457,2h0.69
		c0.176-0.328,0.324-0.595,0.478-0.758c0.143-0.177,0.264-0.324,0.399-0.399c0.124-0.089,0.246-0.171,0.372-0.188
		c0.125-0.037,0.29-0.055,0.591-0.055h1.817l0.047,0.055c-0.279,0.291-0.732,0.773-1.32,1.469L264.596,34.619z"/>
	<path d="M273.977,35.8c2.584,0,3.859-0.7,3.877-2.069c0-0.394-0.151-0.703-0.377-0.908c-0.25-0.213-0.642-0.32-1.1-0.32
		c-0.529,0-1.021,0.1-1.466,0.331c-0.447,0.221-0.851,0.51-1.146,0.922c-0.158,0.193-0.313,0.375-0.414,0.623
		c-0.117,0.221-0.233,0.428-0.293,0.681c-0.08,0.232-0.166,0.446-0.178,0.698c-0.037,0.233-0.064,0.447-0.056,0.672
		c0,0.308,0.024,0.564,0.122,0.827c0.08,0.244,0.199,0.425,0.355,0.622c0.157,0.17,0.323,0.277,0.578,0.39
		c0.229,0.088,0.467,0.133,0.784,0.133c0.502,0,0.946-0.133,1.408-0.319c0.436-0.213,0.845-0.541,1.311-0.953h0.002l-0.425-0.459
		c-0.177,0.181-0.363,0.325-0.509,0.467c-0.162,0.13-0.347,0.218-0.484,0.32c-0.161,0.083-0.35,0.131-0.491,0.184
		c-0.166,0.039-0.357,0.06-0.526,0.06c-0.354,0-0.638-0.101-0.784-0.286c-0.168-0.19-0.256-0.495-0.252-0.909
		c0-0.137-0.004-0.271,0.018-0.381C273.941,36.007,273.932,35.898,273.977,35.8z M274.089,35.199
		c0.099-0.319,0.203-0.619,0.369-0.867c0.147-0.259,0.294-0.503,0.489-0.662c0.18-0.182,0.363-0.339,0.572-0.422
		c0.203-0.098,0.396-0.148,0.614-0.148c0.222,0,0.378,0.034,0.509,0.194c0.118,0.128,0.172,0.296,0.178,0.534
		c0,0.198-0.073,0.354-0.156,0.545c-0.105,0.166-0.292,0.308-0.488,0.43c-0.221,0.121-0.512,0.188-0.85,0.286
		C274.98,35.159,274.539,35.196,274.089,35.199L274.089,35.199z"/>
</g>
</svg>
