<?xml version="1.0" encoding="utf-8"?>
<!-- Generator: Adobe Illustrator 15.1.0, SVG Export Plug-In . SVG Version: 6.00 Build 0)  -->
<!DOCTYPE svg PUBLIC "-//W3C//DTD SVG 1.1 Tiny//EN" "http://www.w3.org/Graphics/SVG/1.1/DTD/svg11-tiny.dtd">
<svg version="1.1" baseProfile="tiny" id="Layer_1" xmlns="http://www.w3.org/2000/svg" xmlns:xlink="http://www.w3.org/1999/xlink"
	 x="0px" y="0px" width="259px" height="141px" viewBox="0 0 259 141" overflow="inherit" xml:space="preserve">
<g>
	<path fill="none" d="M4.572,72.2c0.602,0,1.132-0.064,1.517-0.192c0.357-0.132,0.702-0.329,0.948-0.598
		c0.233-0.274,0.436-0.591,0.57-0.961c0.132-0.387,0.202-0.777,0.202-1.221c-0.003-0.605-0.153-1.033-0.458-1.311
		c-0.323-0.284-0.812-0.417-1.522-0.417c-0.331,0-0.657,0.008-1.009,0.022l-1.056,4.678L4.572,72.2L4.572,72.2z"/>
	<path fill="none" d="M17.662,79.099c0.397,0,0.761-0.149,1.031-0.452c0.238-0.317,0.405-0.717,0.405-1.244
		c-0.033-0.51-0.127-0.92-0.38-1.233c-0.259-0.337-0.607-0.47-1.066-0.47c-0.436,0-0.773,0.167-1.066,0.502
		c-0.321,0.333-0.589,0.807-0.887,1.422c0.239,0.486,0.549,0.864,0.833,1.109C16.804,78.966,17.191,79.099,17.662,79.099z"/>
	<path fill="none" d="M191.508,54.104l0.001,0.002c-0.081,0.357-0.116,0.709-0.116,1.048c-0.031,0.387,0.088,0.698,0.267,0.878
		c0.159,0.169,0.475,0.269,0.889,0.269c0.196,0,0.414-0.034,0.606-0.103c0.173-0.103,0.387-0.185,0.586-0.344
		c0.185-0.178,0.388-0.369,0.566-0.629c0.176-0.268,0.344-0.578,0.493-0.957c0.15-0.402,0.267-0.787,0.349-1.221
		c0.066-0.45,0.125-0.849,0.125-1.245c-0.025-0.534-0.078-0.933-0.23-1.2c-0.167-0.268-0.396-0.401-0.732-0.401
		c-0.252,0-0.492,0.079-0.733,0.235c-0.267,0.146-0.509,0.416-0.806,0.778c-0.319,0.357-0.535,0.732-0.722,1.112
		c-0.204,0.37-0.345,0.863-0.473,1.455L191.508,54.104z"/>
	<path fill="none" d="M15.001,77.043L15,77.045c-0.251-0.505-0.527-0.871-0.827-1.141c-0.325-0.271-0.646-0.405-1.037-0.405
		c-0.437,0-0.771,0.173-1.037,0.517c-0.297,0.338-0.397,0.789-0.397,1.334c0,0.433,0.119,0.82,0.356,1.111
		c0.219,0.271,0.582,0.438,1.034,0.438c0.399,0,0.818-0.2,1.166-0.603C14.586,77.862,14.853,77.477,15.001,77.043z"/>
	<path fill="none" d="M191.659,78.831c0.159,0.169,0.475,0.269,0.889,0.269c0.196,0,0.414-0.033,0.606-0.103
		c0.173-0.103,0.387-0.185,0.586-0.344c0.185-0.177,0.388-0.369,0.566-0.628c0.176-0.269,0.344-0.579,0.493-0.958
		c0.15-0.402,0.267-0.787,0.349-1.221c0.066-0.45,0.125-0.849,0.125-1.245c-0.025-0.533-0.078-0.933-0.23-1.199
		c-0.167-0.269-0.396-0.402-0.732-0.402c-0.252,0-0.492,0.079-0.733,0.236c-0.267,0.145-0.509,0.416-0.806,0.777
		c-0.319,0.357-0.535,0.732-0.722,1.112c-0.204,0.37-0.345,0.864-0.473,1.455l-0.069,0.323l0.001,0.001
		c-0.081,0.357-0.116,0.709-0.116,1.048C191.361,78.34,191.48,78.651,191.659,78.831z"/>
	<path fill="none" d="M74.814,59.376c-0.283-0.341-0.615-0.475-1.011-0.475c-0.361,0-0.66,0.104-0.902,0.313
		c-0.242,0.205-0.438,0.512-0.586,0.905c-0.153,0.387-0.253,0.871-0.316,1.436c-0.062,0.546-0.094,1.202-0.094,1.911l0-0.001
		c-0.002,1.645,0.157,2.888,0.472,3.667c0.289,0.768,0.804,1.167,1.464,1.167c0.615,0,1.096-0.366,1.4-1.098
		c0.291-0.734,0.458-1.869,0.458-3.406c0-1.207-0.078-2.126-0.234-2.853C75.288,60.201,75.093,59.693,74.814,59.376z"/>
	<path fill="none" d="M229.277,67.133c0.289,0.768,0.805,1.167,1.465,1.167c0.615,0,1.096-0.366,1.4-1.098
		c0.291-0.734,0.457-1.869,0.457-3.406c0-1.207-0.078-2.126-0.233-2.853c-0.179-0.742-0.373-1.25-0.652-1.567
		c-0.282-0.341-0.614-0.475-1.011-0.475c-0.361,0-0.66,0.104-0.902,0.313c-0.242,0.205-0.438,0.512-0.586,0.905
		c-0.152,0.387-0.253,0.871-0.316,1.436c-0.062,0.546-0.094,1.202-0.094,1.911l0.002-0.001
		C228.805,65.11,228.963,66.354,229.277,67.133z"/>
	<path fill="none" d="M74.814,129.477c-0.283-0.342-0.615-0.476-1.011-0.476c-0.361,0-0.66,0.104-0.902,0.313
		c-0.242,0.205-0.438,0.512-0.586,0.905c-0.153,0.388-0.253,0.871-0.316,1.437c-0.062,0.546-0.094,1.201-0.094,1.911l0-0.001
		c-0.002,1.644,0.157,2.888,0.472,3.666c0.289,0.768,0.804,1.168,1.464,1.168c0.615,0,1.096-0.366,1.4-1.099
		c0.291-0.733,0.458-1.869,0.458-3.405c0-1.207-0.078-2.127-0.234-2.854C75.288,130.301,75.093,129.793,74.814,129.477z"/>
	<path fill="none" d="M127.714,14.476c-0.283-0.341-0.615-0.475-1.011-0.475c-0.361,0-0.66,0.105-0.902,0.314
		c-0.242,0.204-0.437,0.511-0.586,0.904c-0.153,0.388-0.253,0.871-0.316,1.437c-0.062,0.546-0.094,1.202-0.094,1.911l0.001-0.001
		c-0.002,1.644,0.157,2.888,0.472,3.667c0.289,0.767,0.804,1.167,1.464,1.167c0.615,0,1.096-0.366,1.4-1.099
		c0.291-0.733,0.458-1.869,0.458-3.405c0-1.207-0.078-2.127-0.234-2.854C128.188,15.301,127.993,14.793,127.714,14.476z"/>
	<path fill="none" d="M127.714,94.477c-0.283-0.342-0.615-0.476-1.011-0.476c-0.361,0-0.66,0.104-0.902,0.313
		c-0.242,0.205-0.437,0.512-0.586,0.905c-0.153,0.388-0.253,0.871-0.316,1.437c-0.062,0.546-0.094,1.201-0.094,1.911l0.001-0.001
		c-0.002,1.644,0.157,2.888,0.472,3.666c0.289,0.768,0.804,1.168,1.464,1.168c0.615,0,1.096-0.366,1.4-1.099
		c0.291-0.733,0.458-1.869,0.458-3.405c0-1.207-0.078-2.127-0.234-2.854C128.188,95.301,127.993,94.793,127.714,94.477z"/>
	<path fill="none" d="M127.714,129.477c-0.283-0.342-0.615-0.476-1.011-0.476c-0.361,0-0.66,0.104-0.902,0.313
		c-0.242,0.205-0.437,0.512-0.586,0.905c-0.153,0.388-0.253,0.871-0.316,1.437c-0.062,0.546-0.094,1.201-0.094,1.911l0.001-0.001
		c-0.002,1.644,0.157,2.888,0.472,3.666c0.289,0.768,0.804,1.168,1.464,1.168c0.615,0,1.096-0.366,1.4-1.099
		c0.291-0.733,0.458-1.869,0.458-3.405c0-1.207-0.078-2.127-0.234-2.854C128.188,130.301,127.993,129.793,127.714,129.477z"/>
	<path fill="none" d="M137.508,76.904L137.508,76.904c-0.08,0.358-0.115,0.71-0.115,1.049c-0.031,0.387,0.088,0.698,0.267,0.878
		c0.159,0.169,0.475,0.269,0.889,0.269c0.196,0,0.414-0.033,0.606-0.103c0.173-0.103,0.387-0.185,0.586-0.344
		c0.185-0.177,0.388-0.369,0.566-0.628c0.176-0.269,0.344-0.579,0.493-0.958c0.15-0.402,0.267-0.787,0.349-1.221
		c0.066-0.45,0.125-0.849,0.125-1.245c-0.025-0.533-0.078-0.933-0.23-1.199c-0.167-0.269-0.396-0.402-0.732-0.402
		c-0.252,0-0.492,0.079-0.733,0.236c-0.267,0.145-0.509,0.416-0.806,0.777c-0.319,0.357-0.535,0.732-0.722,1.112
		c-0.204,0.37-0.345,0.864-0.473,1.455L137.508,76.904z"/>
	<path fill="none" d="M74.814,94.477c-0.283-0.342-0.615-0.476-1.011-0.476c-0.361,0-0.66,0.104-0.902,0.313
		c-0.242,0.205-0.438,0.512-0.586,0.905c-0.153,0.388-0.253,0.871-0.316,1.437c-0.062,0.546-0.094,1.201-0.094,1.911l0-0.001
		c-0.002,1.644,0.157,2.888,0.472,3.666c0.289,0.768,0.804,1.168,1.464,1.168c0.615,0,1.096-0.366,1.4-1.099
		c0.291-0.733,0.458-1.869,0.458-3.405c0-1.207-0.078-2.127-0.234-2.854C75.288,95.301,75.093,94.793,74.814,94.477z"/>
	<path fill="none" d="M229.277,137.232c0.289,0.768,0.805,1.168,1.465,1.168c0.615,0,1.096-0.366,1.4-1.099
		c0.291-0.733,0.457-1.869,0.457-3.405c0-1.207-0.078-2.127-0.233-2.854c-0.179-0.742-0.373-1.25-0.652-1.566
		c-0.282-0.342-0.614-0.476-1.011-0.476c-0.361,0-0.66,0.104-0.902,0.313c-0.242,0.205-0.438,0.512-0.586,0.905
		c-0.152,0.388-0.253,0.871-0.316,1.437c-0.062,0.546-0.094,1.201-0.094,1.911l0.002-0.001
		C228.805,135.21,228.963,136.454,229.277,137.232z"/>
	<path fill="none" d="M229.277,22.233c0.289,0.767,0.805,1.167,1.465,1.167c0.615,0,1.096-0.366,1.4-1.099
		c0.291-0.733,0.457-1.869,0.457-3.405c0-1.207-0.078-2.127-0.233-2.854c-0.179-0.742-0.373-1.25-0.652-1.567
		c-0.282-0.341-0.614-0.475-1.011-0.475c-0.361,0-0.66,0.105-0.902,0.314c-0.242,0.204-0.438,0.511-0.586,0.904
		c-0.152,0.388-0.253,0.871-0.316,1.437c-0.062,0.546-0.094,1.202-0.094,1.911l0.002-0.001
		C228.805,20.21,228.963,21.454,229.277,22.233z"/>
	<path d="M1.759,75.073c-0.113,0.511-0.201,0.853-0.256,1.032c-0.056,0.179-0.125,0.31-0.186,0.453
		c-0.066,0.125-0.173,0.205-0.248,0.291C0.971,76.919,0.815,76.969,0.627,77l-0.086,0.4h3.191L3.818,77
		c-0.253-0.021-0.459-0.054-0.536-0.094c-0.104-0.041-0.198-0.11-0.233-0.2c-0.052-0.092-0.102-0.228-0.078-0.38
		c0-0.105-0.024-0.247,0.019-0.356c0.013-0.133,0.017-0.29,0.047-0.372c0.018-0.115,0.039-0.28,0.098-0.494L3.632,72.8
		c0.352,0.021,0.774,0.021,1.319,0.031c0.88,0,1.63-0.144,2.264-0.4c0.629-0.266,1.124-0.71,1.494-1.245
		c0.368-0.564,0.532-1.26,0.552-2.002c0-0.399-0.087-0.761-0.191-1.053c-0.125-0.303-0.349-0.58-0.573-0.75
		c-0.256-0.198-0.589-0.357-0.978-0.438C7.123,66.848,6.616,66.8,6,66.8l-0.003-0.001H2.574l-0.086,0.4
		c0.27,0.015,0.44,0.049,0.583,0.17c0.119,0.098,0.161,0.242,0.178,0.527c0,0.299-0.084,0.699-0.17,1.222L1.759,75.073z
		 M4.82,67.523c0.352-0.015,0.678-0.022,1.009-0.022c0.71,0,1.199,0.133,1.522,0.417c0.305,0.277,0.455,0.705,0.458,1.311
		c0,0.443-0.07,0.834-0.202,1.221c-0.134,0.37-0.337,0.687-0.57,0.961c-0.246,0.269-0.591,0.466-0.948,0.598
		C5.704,72.136,5.174,72.2,4.572,72.2v0.001H3.764L4.82,67.523z"/>
	<path d="M14.562,79.229c0.379-0.316,0.659-0.692,0.841-1.054c0.254,0.438,0.554,0.781,0.918,1.093
		c0.359,0.288,0.785,0.434,1.352,0.434c0.625,0,1.133-0.234,1.531-0.691c0.396-0.46,0.561-1.029,0.594-1.675
		c0-0.747-0.233-1.358-0.619-1.777c-0.412-0.437-0.973-0.655-1.603-0.655c-0.534,0-1.026,0.132-1.389,0.47
		c-0.392,0.313-0.687,0.656-0.875,1.11c-0.261-0.483-0.565-0.877-0.905-1.152c-0.343-0.285-0.779-0.428-1.244-0.428
		c-0.704,0-1.259,0.232-1.611,0.717C11.184,76.097,11,76.658,11,77.391c0,0.644,0.166,1.181,0.553,1.639
		c0.37,0.447,0.885,0.672,1.611,0.672C13.717,79.701,14.163,79.535,14.562,79.229z M16.585,76.201
		c0.293-0.335,0.631-0.502,1.066-0.502c0.459,0,0.808,0.133,1.066,0.47c0.253,0.313,0.347,0.724,0.38,1.233
		c0,0.527-0.167,0.927-0.405,1.244c-0.27,0.303-0.634,0.452-1.031,0.452c-0.471,0-0.858-0.133-1.131-0.366
		c-0.284-0.245-0.594-0.623-0.833-1.109C15.996,77.008,16.264,76.534,16.585,76.201z M12.057,78.461
		c-0.237-0.291-0.356-0.679-0.356-1.111c0-0.545,0.1-0.996,0.397-1.334c0.266-0.344,0.6-0.517,1.037-0.517
		c0.391,0,0.712,0.134,1.037,0.405c0.3,0.27,0.576,0.636,0.827,1.141l0.001-0.002c-0.148,0.434-0.415,0.819-0.744,1.253
		c-0.348,0.402-0.767,0.603-1.166,0.603C12.639,78.898,12.276,78.732,12.057,78.461z"/>
	<rect x="27.056" y="74" width="9.566" height="1"/>
	<rect x="27.056" y="70.8" width="9.566" height="1"/>
	<polygon points="44.5,5.602 47.6,5.602 47.6,4.902 42.9,4.902 42.9,21.401 44.5,21.401 	"/>
	<polygon points="44.5,24.1 44.5,21.401 42.9,21.401 42.87,21.401 42.87,38.002 44.5,38.002 	"/>
	<polygon points="44.5,40.9 44.5,38.002 42.87,38.002 42.87,40.9 42.87,54.701 44.5,54.701 	"/>
	<polygon points="44.5,57.5 44.5,54.701 42.87,54.701 42.87,57.5 42.87,71.401 44.5,71.401 	"/>
	<polygon points="44.5,74.2 44.5,71.401 42.87,71.401 42.87,74.2 42.87,88.002 44.5,88.002 	"/>
	<polygon points="44.5,90.9 44.5,88.002 42.87,88.002 42.87,90.9 42.87,104.701 44.5,104.701 	"/>
	<polygon points="44.5,121.502 44.5,107.5 44.5,104.701 42.87,104.701 42.87,107.5 42.87,124.2 42.9,124.2 42.9,121.502 	"/>
	<polygon points="44.5,121.502 42.9,121.502 42.9,124.2 42.9,140.8 47.6,140.8 47.6,140.1 44.5,140.1 44.5,124.2 	"/>
	<path d="M70.105,5.457c-0.14,0.27-0.376,0.584-0.642,0.959c-0.26,0.34-0.715,0.834-1.281,1.497
		c-0.687,0.766-1.247,1.428-1.591,1.997c-0.375,0.565-0.671,1.095-0.891,1.658v0.431h6.273l0.133-2.3h-0.7
		c-0.08,0.237-0.149,0.404-0.198,0.526c-0.052,0.114-0.155,0.205-0.214,0.277c-0.089,0.072-0.221,0.104-0.359,0.152
		c-0.15,0.029-0.361,0.045-0.591,0.045h-2.821c0.453-0.771,1.146-1.704,2.133-2.705c0.575-0.617,0.957-1.082,1.214-1.322
		c0.234-0.264,0.444-0.555,0.642-0.781c0.193-0.257,0.323-0.521,0.462-0.72c0.115-0.224,0.19-0.48,0.252-0.678
		C71.98,4.265,72.005,4,72.007,3.742c0-0.794-0.269-1.408-0.733-1.816c-0.489-0.418-1.214-0.627-2.166-0.627
		c-0.433,0-0.936,0.033-1.463,0.195c-0.541,0.13-1.123,0.331-1.745,0.63v1.475h0.931c0.335-1.065,0.958-1.6,1.95-1.6
		c0.387,0,0.694,0.067,0.964,0.255c0.255,0.169,0.44,0.385,0.569,0.698c0.124,0.295,0.186,0.609,0.186,1.02
		c0,0.242-0.033,0.451-0.092,0.723C70.346,4.933,70.244,5.168,70.105,5.457z"/>
	<path d="M76.718,4.823C76.529,4.608,76.257,4.5,75.946,4.5c-0.398,0-0.78,0.1-1.072,0.313c-0.316,0.208-0.741,0.536-1.188,1.053
		L74.128,6.3c0.311-0.341,0.535-0.606,0.734-0.705C75.04,5.465,75.186,5.4,75.37,5.4c0.146,0,0.223,0.033,0.319,0.139
		c0.068,0.091,0.072,0.212,0.102,0.445c0,0.267-0.064,0.639-0.172,1.139L75.617,7.12l-1.133,4.877h1.344l0.737-3.342
		c0.108-0.479,0.219-0.899,0.419-1.208c0.171-0.327,0.376-0.678,0.68-1.012c0.282-0.348,0.527-0.628,0.8-0.779
		c0.251-0.172,0.463-0.259,0.702-0.259c0.27,0,0.447,0.065,0.583,0.233c0.119,0.157,0.169,0.412,0.178,0.767
		c0,0.144-0.043,0.311-0.058,0.562c-0.038,0.231-0.129,0.576-0.245,1.069l-0.341,1.33c-0.17,0.646-0.265,1.126-0.256,1.47
		c0,0.369,0.091,0.659,0.302,0.911c0.202,0.238,0.459,0.357,0.808,0.357c0.425,0,0.779-0.133,1.134-0.328
		c0.331-0.218,0.707-0.574,1.164-1.036l-0.442-0.435c-0.321,0.352-0.585,0.584-0.745,0.714c-0.176,0.124-0.359,0.187-0.497,0.187
		c-0.145,0-0.262-0.066-0.319-0.138c-0.067-0.092-0.111-0.246-0.1-0.444c0-0.23,0.055-0.636,0.209-1.184l0.505-2.011
		c0.15-0.592,0.201-1.066,0.225-1.373c0-0.484-0.157-0.869-0.389-1.139C80.624,4.637,80.23,4.5,79.773,4.5
		c-0.487,0-0.978,0.167-1.417,0.514c-0.458,0.344-0.943,0.838-1.448,1.581l-0.092-0.008c0.124-0.338,0.185-0.667,0.186-0.919
		C77.002,5.321,76.902,5.031,76.718,4.823z"/>
	<rect x="57.734" y="18.958" width="32.112" height="1.035"/>
	<path d="M59.816,29.821l-1.127,4.877h1.344l0.737-3.339c0.108-0.483,0.219-0.903,0.406-1.195c0.163-0.313,0.372-0.669,0.656-0.979
		c0.275-0.339,0.498-0.602,0.742-0.747c0.219-0.159,0.396-0.239,0.609-0.239c0.119,0,0.192,0,0.294,0.068
		c0.078,0.046,0.119,0.122,0.203,0.241c0.057,0.116,0.097,0.28,0.131,0.491h0.8l0.373-1.716c-0.254-0.057-0.582-0.084-0.947-0.084
		c-0.483,0-0.961,0.133-1.427,0.48c-0.468,0.322-0.973,0.794-1.463,1.514l0.002-0.003l-0.1-0.023
		c0.098-0.275,0.116-0.565,0.147-0.802c0-0.348-0.098-0.638-0.284-0.845c-0.189-0.216-0.459-0.323-0.772-0.323
		c-0.387,0-0.767,0.1-1.063,0.312c-0.321,0.208-0.745,0.537-1.195,1.054l0.444,0.434c0.31-0.341,0.537-0.607,0.732-0.705
		c0.178-0.13,0.326-0.195,0.51-0.195c0.144,0,0.223,0.034,0.316,0.14c0.068,0.091,0.074,0.212,0.102,0.444
		c0,0.112-0.027,0.251-0.031,0.424C59.934,29.274,59.884,29.505,59.816,29.821z"/>
	<rect x="70.056" y="29.7" width="9.566" height="1"/>
	<path d="M85.373,33.493c0,0.381,0.076,0.684,0.302,0.938c0.202,0.245,0.444,0.367,0.808,0.367c0.394,0,0.733-0.1,1.067-0.289
		c0.319-0.192,0.702-0.562,1.231-1.077l-0.442-0.434c-0.321,0.351-0.6,0.584-0.745,0.714c-0.176,0.124-0.375,0.187-0.498,0.187
		c-0.145,0-0.277-0.066-0.318-0.14c-0.068-0.092-0.127-0.246-0.102-0.448c0-0.253,0.042-0.656,0.172-1.145l1.909-8.567h-0.458
		L86.343,23.7L86.249,24.1c0.275,0.016,0.458,0.016,0.57,0.078c0.105,0.035,0.166,0.076,0.245,0.173
		c0.057,0.08,0.069,0.196,0.086,0.353c0,0.139-0.017,0.271-0.039,0.452c-0.025,0.162-0.097,0.378-0.133,0.652l0.001-0.001
		l-1.389,6.188C85.445,32.649,85.349,33.117,85.373,33.493z"/>
	<path d="M126.743,13.3c-0.503,0-0.983,0.101-1.391,0.325c-0.425,0.217-0.809,0.542-1.092,1.002
		c-0.303,0.45-0.556,1.008-0.708,1.711c-0.168,0.69-0.252,1.479-0.252,2.459c0,1.784,0.267,3.084,0.819,3.989
		c0.546,0.876,1.373,1.313,2.498,1.313h0.001c1.139,0,2-0.5,2.598-1.402c0.594-0.937,0.889-2.335,0.891-4.142
		c0-1.763-0.302-3.081-0.831-3.949C128.722,13.736,127.863,13.3,126.743,13.3z M128.142,22.302c-0.304,0.732-0.785,1.099-1.4,1.099
		c-0.66,0-1.175-0.4-1.464-1.167c-0.315-0.779-0.474-2.023-0.472-3.667l-0.001,0.001c0-0.709,0.032-1.365,0.094-1.911
		c0.063-0.565,0.163-1.049,0.316-1.437c0.149-0.394,0.344-0.7,0.586-0.904c0.242-0.209,0.541-0.314,0.902-0.314
		c0.396,0,0.728,0.134,1.011,0.475c0.279,0.317,0.474,0.825,0.652,1.567c0.156,0.727,0.234,1.646,0.234,2.854
		C128.6,20.433,128.433,21.568,128.142,22.302z"/>
	<path d="M167.912,4.821c-0.189-0.215-0.459-0.323-0.771-0.323c-0.388,0-0.768,0.1-1.064,0.312
		c-0.321,0.208-0.745,0.537-1.195,1.054l0.444,0.434c0.31-0.341,0.536-0.606,0.733-0.705c0.178-0.13,0.325-0.194,0.508-0.194
		c0.145,0,0.224,0.033,0.317,0.139c0.068,0.091,0.074,0.212,0.103,0.445c0,0.111-0.027,0.251-0.031,0.423
		c-0.021,0.169-0.071,0.399-0.139,0.716l-1.127,4.877h1.344l0.736-3.339c0.108-0.483,0.219-0.903,0.406-1.195
		c0.163-0.312,0.372-0.669,0.656-0.978c0.275-0.339,0.498-0.603,0.742-0.748c0.219-0.159,0.395-0.239,0.609-0.239
		c0.118,0,0.191,0,0.293,0.069c0.078,0.045,0.119,0.122,0.203,0.24c0.057,0.116,0.098,0.28,0.131,0.491h0.801l0.373-1.716
		c-0.254-0.056-0.582-0.084-0.947-0.084c-0.482,0-0.961,0.133-1.428,0.481c-0.467,0.321-0.971,0.794-1.463,1.513l0.002-0.003
		l-0.1-0.023c0.098-0.274,0.116-0.564,0.146-0.802C168.195,5.319,168.098,5.029,167.912,4.821z"/>
	<polygon points="181.188,2.5 181.188,7 176.957,7 176.957,8 181.188,8 181.188,12.5 182.291,12.5 182.291,8 186.521,8 186.521,7 
		182.291,7 182.291,2.5 	"/>
	<path d="M192.273,10.793c0,0.381,0.076,0.684,0.302,0.939c0.202,0.244,0.444,0.366,0.808,0.366c0.395,0,0.733-0.1,1.067-0.289
		c0.319-0.192,0.702-0.562,1.231-1.076l-0.443-0.435c-0.32,0.352-0.6,0.584-0.744,0.714c-0.176,0.124-0.374,0.187-0.497,0.187
		c-0.146,0-0.276-0.066-0.319-0.14c-0.068-0.092-0.127-0.245-0.102-0.447c0-0.253,0.042-0.657,0.172-1.146l1.909-8.566h-0.458
		L193.243,1l-0.095,0.4c0.275,0.015,0.459,0.015,0.57,0.077c0.106,0.035,0.166,0.076,0.245,0.174
		c0.058,0.08,0.069,0.195,0.086,0.352c0,0.139-0.017,0.272-0.038,0.452c-0.027,0.162-0.098,0.378-0.134,0.653l0.001-0.001
		l-1.389,6.188C192.346,9.949,192.249,10.417,192.273,10.793z"/>
	<rect x="164.662" y="18.958" width="32.111" height="1.035"/>
	<path d="M166.816,29.821l-1.127,4.877h1.344l0.736-3.339c0.108-0.483,0.219-0.903,0.406-1.195c0.163-0.313,0.372-0.669,0.656-0.979
		c0.275-0.339,0.498-0.602,0.742-0.747c0.219-0.159,0.395-0.239,0.609-0.239c0.118,0,0.191,0,0.293,0.068
		c0.078,0.046,0.119,0.122,0.203,0.241c0.057,0.116,0.098,0.28,0.131,0.491h0.801l0.373-1.716c-0.254-0.057-0.582-0.084-0.947-0.084
		c-0.482,0-0.961,0.133-1.428,0.48c-0.467,0.322-0.971,0.794-1.463,1.514l0.002-0.003l-0.1-0.023
		c0.098-0.275,0.116-0.565,0.146-0.802c0-0.348-0.098-0.638-0.283-0.845c-0.189-0.216-0.459-0.323-0.771-0.323
		c-0.388,0-0.768,0.1-1.064,0.312c-0.321,0.208-0.745,0.537-1.195,1.054l0.444,0.434c0.31-0.341,0.536-0.607,0.733-0.705
		c0.178-0.13,0.325-0.195,0.508-0.195c0.145,0,0.224,0.034,0.317,0.14c0.068,0.091,0.074,0.212,0.103,0.444
		c0,0.112-0.027,0.251-0.031,0.424C166.934,29.274,166.884,29.505,166.816,29.821z"/>
	<rect x="176.956" y="29.7" width="9.565" height="1"/>
	<path d="M192.273,33.493c0,0.381,0.076,0.684,0.302,0.938c0.202,0.245,0.444,0.367,0.808,0.367c0.395,0,0.733-0.1,1.067-0.289
		c0.319-0.192,0.702-0.562,1.231-1.077l-0.443-0.434c-0.32,0.351-0.6,0.584-0.744,0.714c-0.176,0.124-0.374,0.187-0.497,0.187
		c-0.146,0-0.276-0.066-0.319-0.14c-0.068-0.092-0.127-0.246-0.102-0.448c0-0.253,0.042-0.656,0.172-1.145l1.909-8.567h-0.458
		l-1.956,0.101l-0.095,0.399c0.275,0.016,0.459,0.016,0.57,0.078c0.106,0.035,0.166,0.076,0.245,0.173
		c0.058,0.08,0.069,0.196,0.086,0.353c0,0.139-0.017,0.271-0.038,0.452c-0.027,0.162-0.098,0.378-0.134,0.652l0.001-0.001
		l-1.389,6.188C192.346,32.649,192.249,33.117,192.273,33.493z"/>
	<path d="M230.617,24.1L230.617,24.1c1.14,0,2.001-0.5,2.599-1.402c0.595-0.937,0.89-2.335,0.892-4.142
		c0-1.763-0.303-3.081-0.832-3.949c-0.553-0.87-1.412-1.307-2.532-1.307c-0.503,0-0.983,0.101-1.392,0.325
		c-0.425,0.217-0.809,0.542-1.092,1.002c-0.303,0.45-0.556,1.008-0.708,1.711c-0.168,0.69-0.252,1.479-0.252,2.459
		c0,1.784,0.267,3.084,0.819,3.989C228.665,23.662,229.492,24.1,230.617,24.1z M228.898,16.656c0.063-0.565,0.164-1.049,0.316-1.437
		c0.148-0.394,0.344-0.7,0.586-0.904c0.242-0.209,0.541-0.314,0.902-0.314c0.396,0,0.729,0.134,1.011,0.475
		c0.279,0.317,0.474,0.825,0.652,1.567c0.155,0.727,0.233,1.646,0.233,2.854c0,1.536-0.166,2.672-0.457,3.405
		c-0.305,0.732-0.785,1.099-1.4,1.099c-0.66,0-1.176-0.4-1.465-1.167c-0.314-0.779-0.473-2.023-0.471-3.667l-0.002,0.001
		C228.805,17.858,228.837,17.202,228.898,16.656z"/>
	<path d="M76.376,59.506c-0.554-0.87-1.413-1.306-2.533-1.306c-0.503,0-0.982,0.1-1.391,0.325c-0.425,0.217-0.809,0.542-1.092,1.002
		c-0.303,0.449-0.557,1.008-0.708,1.711c-0.168,0.689-0.252,1.478-0.252,2.459c0,1.783,0.267,3.084,0.819,3.988
		C71.765,68.562,72.592,69,73.717,69h0c1.139,0,2-0.5,2.598-1.403c0.594-0.936,0.889-2.335,0.891-4.141
		C77.207,61.693,76.905,60.375,76.376,59.506z M75.242,67.202c-0.304,0.731-0.785,1.098-1.4,1.098c-0.66,0-1.175-0.399-1.464-1.167
		c-0.315-0.779-0.474-2.022-0.472-3.667l0,0.001c0-0.709,0.032-1.365,0.094-1.911c0.063-0.564,0.163-1.049,0.316-1.436
		c0.149-0.394,0.344-0.7,0.586-0.905c0.242-0.209,0.541-0.313,0.902-0.313c0.396,0,0.728,0.134,1.011,0.475
		c0.279,0.317,0.474,0.825,0.652,1.567c0.156,0.727,0.234,1.646,0.234,2.853C75.7,65.333,75.533,66.468,75.242,67.202z"/>
	<path d="M123.005,50.257c-0.14,0.271-0.376,0.584-0.642,0.959c-0.26,0.34-0.715,0.834-1.281,1.497
		c-0.687,0.766-1.247,1.428-1.591,1.997c-0.375,0.566-0.671,1.095-0.891,1.658v0.431h6.273l0.133-2.3h-0.7
		c-0.08,0.238-0.149,0.405-0.198,0.527c-0.052,0.113-0.155,0.204-0.214,0.276c-0.089,0.072-0.221,0.104-0.359,0.152
		c-0.15,0.03-0.361,0.045-0.591,0.045h-2.821c0.453-0.771,1.146-1.704,2.133-2.705c0.575-0.617,0.957-1.082,1.214-1.322
		c0.234-0.264,0.444-0.555,0.642-0.78c0.193-0.257,0.323-0.521,0.462-0.721c0.115-0.224,0.19-0.48,0.252-0.678
		c0.054-0.229,0.079-0.494,0.081-0.752c0-0.794-0.269-1.408-0.733-1.815c-0.489-0.419-1.214-0.628-2.166-0.628
		c-0.433,0-0.936,0.033-1.463,0.195c-0.541,0.13-1.123,0.331-1.745,0.63v1.475h0.931c0.335-1.065,0.958-1.6,1.95-1.6
		c0.387,0,0.694,0.067,0.964,0.255c0.255,0.169,0.44,0.386,0.569,0.698c0.124,0.295,0.186,0.61,0.186,1.02
		c0,0.242-0.033,0.451-0.092,0.723C123.246,49.732,123.144,49.968,123.005,50.257z"/>
	<path d="M133.945,52.223c0.15-0.592,0.201-1.066,0.226-1.373c0-0.484-0.157-0.869-0.389-1.139
		c-0.259-0.273-0.652-0.411-1.109-0.411c-0.487,0-0.978,0.167-1.417,0.515c-0.458,0.343-0.943,0.838-1.448,1.58l-0.092-0.008
		c0.124-0.338,0.185-0.667,0.186-0.919c0-0.347-0.1-0.637-0.284-0.845c-0.189-0.215-0.461-0.323-0.772-0.323
		c-0.398,0-0.78,0.101-1.072,0.313c-0.316,0.208-0.741,0.537-1.188,1.053l0.442,0.434c0.311-0.341,0.535-0.606,0.734-0.705
		c0.178-0.13,0.324-0.194,0.508-0.194c0.146,0,0.223,0.034,0.319,0.139c0.068,0.091,0.072,0.212,0.102,0.445
		c0,0.267-0.064,0.639-0.172,1.139l-0.002-0.003l-1.133,4.877h1.344l0.737-3.342c0.108-0.479,0.219-0.899,0.419-1.208
		c0.171-0.327,0.376-0.677,0.68-1.011c0.282-0.349,0.527-0.629,0.799-0.78c0.252-0.172,0.464-0.259,0.703-0.259
		c0.27,0,0.447,0.065,0.582,0.233c0.119,0.157,0.17,0.412,0.179,0.767c0,0.144-0.043,0.311-0.058,0.562
		c-0.039,0.231-0.129,0.576-0.246,1.069l-0.34,1.33c-0.172,0.646-0.266,1.126-0.257,1.47c0,0.369,0.091,0.659,0.302,0.911
		c0.203,0.239,0.459,0.358,0.809,0.358c0.425,0,0.779-0.134,1.134-0.328c0.331-0.219,0.707-0.575,1.164-1.037l-0.442-0.435
		c-0.32,0.352-0.584,0.584-0.744,0.714c-0.176,0.125-0.359,0.187-0.498,0.187c-0.145,0-0.262-0.066-0.318-0.137
		c-0.066-0.093-0.111-0.247-0.1-0.445c0-0.229,0.055-0.636,0.209-1.183L133.945,52.223z"/>
	<rect x="109.622" y="63.822" width="34.224" height="1.035"/>
	<path d="M112.418,75.985l0.691-2.984h2.359l0.172-0.8h-2.361l0.427-1.9h-1.07c-0.165,0.532-0.31,0.898-0.373,1.116
		c-0.082,0.212-0.17,0.374-0.256,0.525c-0.088,0.137-0.19,0.223-0.291,0.315c-0.106,0.073-0.245,0.121-0.397,0.173
		c-0.158,0.041-0.397,0.065-0.694,0.07l-0.117,0.5h1.305l-0.916,3.992c-0.089,0.379-0.154,0.715-0.133,1.084
		c0,1.082,0.511,1.623,1.623,1.623c0.455,0,0.86-0.133,1.308-0.372c0.416-0.248,0.818-0.657,1.3-1.153l-0.45-0.475
		c-0.353,0.401-0.668,0.668-0.913,0.852c-0.256,0.165-0.501,0.248-0.725,0.248c-0.534,0-0.803-0.333-0.8-0.953
		c0-0.152-0.003-0.368,0.053-0.611C112.197,76.98,112.276,76.536,112.418,75.985z"/>
	<rect x="120.556" y="74.6" width="9.565" height="1"/>
	<path d="M135.613,79.577l0.498,0.123l0.714-0.494l0.002,0.001c0.532,0.33,1.125,0.494,1.833,0.494c0.755,0,1.436-0.268,2.048-0.719
		c0.612-0.48,1.076-1.142,1.433-1.947c0.344-0.817,0.498-1.662,0.518-2.495c0-0.775-0.186-1.388-0.471-1.8
		c-0.312-0.426-0.774-0.639-1.315-0.639c-0.44,0-0.896,0.133-1.32,0.447c-0.44,0.299-0.924,0.783-1.413,1.453l-0.102-0.031
		l1.367-5.47h-0.45l-1.964,0.101l-0.094,0.399c0.34,0.011,0.576,0.044,0.709,0.147c0.131,0.087,0.196,0.237,0.197,0.455
		c0,0.237-0.068,0.603-0.178,1.143L135.613,79.577z M138.05,75.126c0.187-0.38,0.402-0.755,0.722-1.112
		c0.297-0.361,0.539-0.633,0.806-0.777c0.241-0.157,0.481-0.236,0.733-0.236c0.336,0,0.565,0.134,0.732,0.402
		c0.152,0.267,0.205,0.666,0.23,1.199c0,0.396-0.059,0.795-0.125,1.245c-0.082,0.434-0.198,0.818-0.349,1.221
		c-0.149,0.379-0.317,0.689-0.493,0.958c-0.179,0.259-0.382,0.451-0.566,0.628c-0.199,0.159-0.413,0.241-0.586,0.344
		c-0.192,0.069-0.41,0.103-0.606,0.103c-0.414,0-0.729-0.1-0.889-0.269c-0.179-0.18-0.298-0.491-0.267-0.878
		c0-0.339,0.035-0.69,0.116-1.048l-0.001-0.001l0.069-0.323C137.705,75.99,137.846,75.496,138.05,75.126z"/>
	<path d="M164.508,50.201h1.305l-0.916,3.992c-0.088,0.379-0.153,0.715-0.133,1.084c0,1.082,0.512,1.623,1.623,1.623
		c0.455,0,0.86-0.133,1.309-0.372c0.416-0.248,0.818-0.657,1.3-1.153l-0.45-0.475c-0.354,0.401-0.668,0.668-0.913,0.852
		c-0.256,0.165-0.501,0.248-0.725,0.248c-0.534,0-0.804-0.333-0.8-0.953c0-0.152-0.004-0.369,0.053-0.611
		c0.037-0.255,0.115-0.699,0.258-1.25l0.691-2.984h2.358l0.173-0.8h-2.361l0.427-1.9h-1.069c-0.166,0.532-0.311,0.897-0.373,1.116
		c-0.082,0.212-0.171,0.374-0.257,0.525c-0.088,0.137-0.19,0.223-0.291,0.315c-0.106,0.073-0.245,0.121-0.397,0.173
		c-0.157,0.041-0.396,0.065-0.693,0.07L164.508,50.201z"/>
	<polygon points="179.891,57.3 179.891,52.8 184.122,52.8 184.122,51.8 179.891,51.8 179.891,47.3 178.788,47.3 178.788,51.8 
		174.557,51.8 174.557,52.8 178.788,52.8 178.788,57.3 	"/>
	<path d="M189.613,56.777l0.498,0.123l0.714-0.494l0.002,0.001c0.532,0.33,1.125,0.494,1.833,0.494c0.755,0,1.436-0.268,2.048-0.72
		c0.612-0.479,1.076-1.141,1.433-1.946c0.344-0.817,0.498-1.662,0.518-2.495c0-0.775-0.186-1.389-0.471-1.801
		c-0.312-0.426-0.774-0.639-1.315-0.639c-0.44,0-0.896,0.133-1.32,0.448c-0.44,0.299-0.924,0.783-1.413,1.453l-0.102-0.031
		l1.367-5.47h-0.45l-1.964,0.1l-0.094,0.4c0.34,0.011,0.576,0.044,0.709,0.146c0.131,0.088,0.196,0.238,0.197,0.456
		c0,0.237-0.068,0.603-0.178,1.143L189.613,56.777z M192.05,52.326c0.187-0.38,0.402-0.755,0.722-1.112
		c0.297-0.362,0.539-0.633,0.806-0.778c0.241-0.156,0.481-0.235,0.733-0.235c0.336,0,0.565,0.134,0.732,0.401
		c0.152,0.268,0.205,0.666,0.23,1.2c0,0.396-0.059,0.795-0.125,1.245c-0.082,0.434-0.198,0.818-0.349,1.221
		c-0.149,0.379-0.317,0.689-0.493,0.957c-0.179,0.26-0.382,0.451-0.566,0.629c-0.199,0.159-0.413,0.241-0.586,0.344
		c-0.192,0.068-0.41,0.103-0.606,0.103c-0.414,0-0.729-0.1-0.889-0.269c-0.179-0.18-0.298-0.491-0.267-0.878
		c0-0.339,0.035-0.69,0.116-1.048l-0.001-0.002l0.069-0.322C191.705,53.189,191.846,52.696,192.05,52.326z"/>
	<rect x="163.605" y="63.822" width="34.225" height="1.035"/>
	<path d="M166.418,75.985l0.691-2.984h2.358l0.173-0.8h-2.361l0.427-1.9h-1.069c-0.166,0.532-0.311,0.898-0.373,1.116
		c-0.082,0.212-0.171,0.374-0.257,0.525c-0.088,0.137-0.19,0.223-0.291,0.315c-0.106,0.073-0.245,0.121-0.397,0.173
		c-0.157,0.041-0.396,0.065-0.693,0.07l-0.117,0.5h1.305l-0.916,3.992c-0.088,0.379-0.153,0.715-0.133,1.084
		c0,1.082,0.512,1.623,1.623,1.623c0.455,0,0.86-0.133,1.309-0.372c0.416-0.248,0.818-0.657,1.3-1.153l-0.45-0.475
		c-0.354,0.401-0.668,0.668-0.913,0.852c-0.256,0.165-0.501,0.248-0.725,0.248c-0.534,0-0.804-0.333-0.8-0.953
		c0-0.152-0.004-0.368,0.053-0.611C166.197,76.98,166.275,76.536,166.418,75.985z"/>
	<rect x="174.557" y="74.6" width="9.564" height="1"/>
	<path d="M190.825,79.206l0.002,0.001c0.532,0.33,1.125,0.494,1.833,0.494c0.755,0,1.436-0.268,2.048-0.719
		c0.612-0.48,1.076-1.142,1.433-1.947c0.344-0.817,0.498-1.662,0.518-2.495c0-0.775-0.186-1.388-0.471-1.8
		c-0.312-0.426-0.774-0.639-1.315-0.639c-0.44,0-0.896,0.133-1.32,0.447c-0.44,0.299-0.924,0.783-1.413,1.453l-0.102-0.031
		l1.367-5.47h-0.45l-1.964,0.101l-0.094,0.399c0.34,0.011,0.576,0.044,0.709,0.147c0.131,0.087,0.196,0.237,0.197,0.455
		c0,0.237-0.068,0.603-0.178,1.143l-2.012,8.831l0.498,0.123L190.825,79.206z M191.508,76.904l0.069-0.323
		c0.128-0.591,0.269-1.085,0.473-1.455c0.187-0.38,0.402-0.755,0.722-1.112c0.297-0.361,0.539-0.633,0.806-0.777
		c0.241-0.157,0.481-0.236,0.733-0.236c0.336,0,0.565,0.134,0.732,0.402c0.152,0.267,0.205,0.666,0.23,1.199
		c0,0.396-0.059,0.795-0.125,1.245c-0.082,0.434-0.198,0.818-0.349,1.221c-0.149,0.379-0.317,0.689-0.493,0.958
		c-0.179,0.259-0.382,0.451-0.566,0.628c-0.199,0.159-0.413,0.241-0.586,0.344c-0.192,0.069-0.41,0.103-0.606,0.103
		c-0.414,0-0.729-0.1-0.889-0.269c-0.179-0.18-0.298-0.491-0.267-0.878C191.393,77.614,191.428,77.263,191.508,76.904
		L191.508,76.904z"/>
	<path d="M228.119,67.686c0.546,0.877,1.373,1.314,2.498,1.314h0.001c1.139,0,2-0.5,2.598-1.403c0.595-0.936,0.89-2.335,0.892-4.141
		c0-1.763-0.303-3.081-0.832-3.95c-0.553-0.87-1.412-1.306-2.532-1.306c-0.503,0-0.983,0.1-1.392,0.325
		c-0.425,0.217-0.809,0.542-1.092,1.002c-0.303,0.449-0.556,1.008-0.708,1.711c-0.168,0.689-0.252,1.478-0.252,2.459
		C227.3,65.48,227.566,66.781,228.119,67.686z M228.898,61.556c0.063-0.564,0.164-1.049,0.316-1.436
		c0.148-0.394,0.344-0.7,0.586-0.905c0.242-0.209,0.541-0.313,0.902-0.313c0.396,0,0.729,0.134,1.011,0.475
		c0.279,0.317,0.474,0.825,0.652,1.567c0.155,0.727,0.233,1.646,0.233,2.853c0,1.537-0.166,2.672-0.457,3.406
		c-0.305,0.731-0.785,1.098-1.4,1.098c-0.66,0-1.176-0.399-1.465-1.167c-0.314-0.779-0.473-2.022-0.471-3.667l-0.002,0.001
		C228.805,62.758,228.837,62.102,228.898,61.556z"/>
	<path d="M76.376,94.605c-0.554-0.869-1.413-1.306-2.533-1.306c-0.503,0-0.982,0.101-1.391,0.325
		c-0.425,0.217-0.809,0.542-1.092,1.002c-0.303,0.45-0.557,1.008-0.708,1.711c-0.168,0.69-0.252,1.479-0.252,2.459
		c0,1.784,0.267,3.084,0.819,3.989c0.545,0.876,1.373,1.313,2.498,1.313h0c1.139,0,2-0.5,2.598-1.402
		c0.594-0.937,0.889-2.335,0.891-4.142C77.207,96.793,76.905,95.475,76.376,94.605z M75.242,102.302
		c-0.304,0.732-0.785,1.099-1.4,1.099c-0.66,0-1.175-0.4-1.464-1.168c-0.315-0.778-0.474-2.022-0.472-3.666l0,0.001
		c0-0.71,0.032-1.365,0.094-1.911c0.063-0.565,0.163-1.049,0.316-1.437c0.149-0.394,0.344-0.7,0.586-0.905
		c0.242-0.209,0.541-0.313,0.902-0.313c0.396,0,0.728,0.134,1.011,0.476c0.279,0.316,0.474,0.824,0.652,1.566
		c0.156,0.727,0.234,1.646,0.234,2.854C75.7,100.433,75.533,101.568,75.242,102.302z"/>
	<path d="M129.276,94.605c-0.554-0.869-1.413-1.306-2.533-1.306c-0.503,0-0.983,0.101-1.391,0.325
		c-0.425,0.217-0.809,0.542-1.092,1.002c-0.303,0.45-0.556,1.008-0.708,1.711c-0.168,0.69-0.252,1.479-0.252,2.459
		c0,1.784,0.267,3.084,0.819,3.989c0.546,0.876,1.373,1.313,2.498,1.313h0.001c1.139,0,2-0.5,2.598-1.402
		c0.594-0.937,0.889-2.335,0.891-4.142C130.107,96.793,129.805,95.475,129.276,94.605z M128.142,102.302
		c-0.304,0.732-0.785,1.099-1.4,1.099c-0.66,0-1.175-0.4-1.464-1.168c-0.315-0.778-0.474-2.022-0.472-3.666l-0.001,0.001
		c0-0.71,0.032-1.365,0.094-1.911c0.063-0.565,0.163-1.049,0.316-1.437c0.149-0.394,0.344-0.7,0.586-0.905
		c0.242-0.209,0.541-0.313,0.902-0.313c0.396,0,0.728,0.134,1.011,0.476c0.279,0.316,0.474,0.824,0.652,1.566
		c0.156,0.727,0.234,1.646,0.234,2.854C128.6,100.433,128.433,101.568,128.142,102.302z"/>
	<rect x="171.557" y="99" width="9.564" height="1"/>
	<path d="M189.904,103.433c-0.404-0.01-0.739-0.055-0.978-0.058c-0.247-0.028-0.456-0.086-0.616-0.123
		c-0.162-0.055-0.299-0.139-0.373-0.225c-0.086-0.097-0.164-0.238-0.181-0.372c-0.034-0.153-0.054-0.405-0.052-0.679V95.36
		c0-0.878-0.001-1.565,0.047-2.062h-0.427l-3.625,2.202l0.341,0.598c0.449-0.304,0.802-0.57,1.13-0.716
		c0.304-0.172,0.515-0.267,0.705-0.259c0.14,0,0.214,0.024,0.315,0.144c0.072,0.096,0.109,0.239,0.109,0.45v6.263
		c0,0.361-0.033,0.601-0.091,0.78c-0.062,0.159-0.164,0.272-0.288,0.37c-0.131,0.088-0.339,0.145-0.572,0.197
		c-0.25,0.044-0.666,0.068-1.25,0.104V104h5.805V103.433z"/>
	<rect x="216.855" y="99" width="9.566" height="1"/>
	<path d="M233.471,98.673c0.233-0.264,0.443-0.555,0.641-0.78c0.193-0.258,0.324-0.521,0.463-0.721
		c0.115-0.224,0.189-0.48,0.252-0.678c0.054-0.229,0.078-0.494,0.081-0.752c0-0.794-0.269-1.408-0.733-1.816
		c-0.488-0.418-1.214-0.627-2.166-0.627c-0.433,0-0.936,0.033-1.463,0.195c-0.541,0.13-1.123,0.331-1.745,0.63v1.475h0.931
		c0.336-1.065,0.959-1.6,1.951-1.6c0.387,0,0.693,0.067,0.963,0.255c0.256,0.169,0.44,0.385,0.569,0.698
		c0.124,0.295,0.187,0.61,0.187,1.02c0,0.242-0.033,0.451-0.092,0.723c-0.062,0.238-0.164,0.474-0.304,0.763
		c-0.14,0.27-0.376,0.584-0.642,0.959c-0.26,0.34-0.715,0.834-1.281,1.497c-0.688,0.766-1.247,1.428-1.591,1.997
		c-0.375,0.566-0.671,1.095-0.892,1.658v0.431h6.273l0.133-2.3h-0.699c-0.08,0.238-0.149,0.404-0.199,0.527
		c-0.051,0.113-0.154,0.204-0.213,0.276c-0.09,0.072-0.222,0.104-0.359,0.152c-0.15,0.03-0.361,0.045-0.592,0.045h-2.82
		c0.453-0.771,1.146-1.704,2.133-2.705C232.831,99.378,233.213,98.913,233.471,98.673z"/>
	<path d="M239.618,96.823c-0.188-0.216-0.461-0.323-0.772-0.323c-0.397,0-0.779,0.1-1.072,0.312
		c-0.315,0.209-0.74,0.537-1.188,1.054l0.441,0.434c0.312-0.341,0.535-0.606,0.734-0.705c0.178-0.13,0.324-0.194,0.508-0.194
		c0.146,0,0.224,0.033,0.319,0.139c0.068,0.091,0.072,0.212,0.103,0.445c0,0.267-0.064,0.639-0.172,1.139l-0.002-0.003l-1.134,4.877
		h1.345l0.736-3.342c0.108-0.479,0.219-0.899,0.419-1.208c0.171-0.327,0.376-0.678,0.681-1.012c0.281-0.348,0.526-0.628,0.799-0.779
		c0.252-0.172,0.464-0.26,0.703-0.26c0.27,0,0.447,0.066,0.582,0.234c0.119,0.157,0.17,0.412,0.179,0.766
		c0,0.145-0.043,0.312-0.058,0.563c-0.039,0.231-0.129,0.576-0.246,1.069l-0.34,1.33c-0.172,0.646-0.266,1.126-0.257,1.47
		c0,0.369,0.091,0.659,0.302,0.911c0.203,0.238,0.459,0.357,0.809,0.357c0.425,0,0.779-0.133,1.134-0.328
		c0.331-0.218,0.707-0.574,1.164-1.037l-0.442-0.434c-0.32,0.352-0.584,0.584-0.744,0.714c-0.176,0.124-0.359,0.187-0.498,0.187
		c-0.145,0-0.262-0.066-0.318-0.137c-0.066-0.093-0.111-0.248-0.1-0.445c0-0.23,0.055-0.637,0.209-1.184l0.504-2.011
		c0.15-0.592,0.201-1.067,0.226-1.373c0-0.485-0.157-0.869-0.389-1.139c-0.259-0.274-0.652-0.411-1.109-0.411
		c-0.487,0-0.978,0.167-1.417,0.514c-0.458,0.344-0.943,0.838-1.447,1.581l-0.093-0.008c0.124-0.338,0.185-0.667,0.187-0.919
		C239.902,97.321,239.802,97.031,239.618,96.823z"/>
	<path d="M73.843,128.3c-0.503,0-0.982,0.101-1.391,0.325c-0.425,0.217-0.809,0.542-1.092,1.002
		c-0.303,0.45-0.557,1.008-0.708,1.711c-0.168,0.69-0.252,1.479-0.252,2.459c0,1.784,0.267,3.084,0.819,3.989
		c0.545,0.876,1.373,1.313,2.498,1.313h0c1.139,0,2-0.5,2.598-1.402c0.594-0.937,0.889-2.335,0.891-4.142
		c0-1.763-0.302-3.081-0.831-3.95C75.822,128.736,74.963,128.3,73.843,128.3z M75.242,137.302c-0.304,0.732-0.785,1.099-1.4,1.099
		c-0.66,0-1.175-0.4-1.464-1.168c-0.315-0.778-0.474-2.022-0.472-3.666l0,0.001c0-0.71,0.032-1.365,0.094-1.911
		c0.063-0.565,0.163-1.049,0.316-1.437c0.149-0.394,0.344-0.7,0.586-0.905c0.242-0.209,0.541-0.313,0.902-0.313
		c0.396,0,0.728,0.134,1.011,0.476c0.279,0.316,0.474,0.824,0.652,1.566c0.156,0.727,0.234,1.646,0.234,2.854
		C75.7,135.433,75.533,136.568,75.242,137.302z"/>
	<path d="M126.743,128.3c-0.503,0-0.983,0.101-1.391,0.325c-0.425,0.217-0.809,0.542-1.092,1.002
		c-0.303,0.45-0.556,1.008-0.708,1.711c-0.168,0.69-0.252,1.479-0.252,2.459c0,1.784,0.267,3.084,0.819,3.989
		c0.546,0.876,1.373,1.313,2.498,1.313h0.001c1.139,0,2-0.5,2.598-1.402c0.594-0.937,0.889-2.335,0.891-4.142
		c0-1.763-0.302-3.081-0.831-3.95C128.722,128.736,127.863,128.3,126.743,128.3z M128.142,137.302
		c-0.304,0.732-0.785,1.099-1.4,1.099c-0.66,0-1.175-0.4-1.464-1.168c-0.315-0.778-0.474-2.022-0.472-3.666l-0.001,0.001
		c0-0.71,0.032-1.365,0.094-1.911c0.063-0.565,0.163-1.049,0.316-1.437c0.149-0.394,0.344-0.7,0.586-0.905
		c0.242-0.209,0.541-0.313,0.902-0.313c0.396,0,0.728,0.134,1.011,0.476c0.279,0.316,0.474,0.824,0.652,1.566
		c0.156,0.727,0.234,1.646,0.234,2.854C128.6,135.433,128.433,136.568,128.142,137.302z"/>
	<rect x="171.557" y="134" width="9.564" height="1"/>
	<path d="M186.21,137.761c-0.062,0.159-0.164,0.272-0.288,0.37c-0.131,0.088-0.339,0.145-0.572,0.197
		c-0.25,0.044-0.666,0.068-1.25,0.104V139h5.805v-0.567c-0.404-0.01-0.739-0.055-0.978-0.058c-0.247-0.028-0.456-0.086-0.616-0.123
		c-0.162-0.055-0.299-0.139-0.373-0.225c-0.086-0.097-0.164-0.238-0.181-0.372c-0.034-0.153-0.054-0.405-0.052-0.679v-6.616
		c0-0.878-0.001-1.565,0.047-2.062h-0.427l-3.625,2.202l0.341,0.598c0.449-0.304,0.802-0.57,1.13-0.716
		c0.304-0.172,0.515-0.267,0.705-0.259c0.14,0,0.214,0.024,0.315,0.144c0.072,0.096,0.109,0.239,0.109,0.45v6.263
		C186.301,137.342,186.268,137.581,186.21,137.761z"/>
	<path d="M228.119,137.786c0.546,0.876,1.373,1.313,2.498,1.313h0.001c1.139,0,2-0.5,2.598-1.402
		c0.595-0.937,0.89-2.335,0.892-4.142c0-1.763-0.303-3.081-0.832-3.95c-0.553-0.869-1.412-1.306-2.532-1.306
		c-0.503,0-0.983,0.101-1.392,0.325c-0.425,0.217-0.809,0.542-1.092,1.002c-0.303,0.45-0.556,1.008-0.708,1.711
		c-0.168,0.69-0.252,1.479-0.252,2.459C227.3,135.581,227.566,136.881,228.119,137.786z M228.898,131.656
		c0.063-0.565,0.164-1.049,0.316-1.437c0.148-0.394,0.344-0.7,0.586-0.905c0.242-0.209,0.541-0.313,0.902-0.313
		c0.396,0,0.729,0.134,1.011,0.476c0.279,0.316,0.474,0.824,0.652,1.566c0.155,0.727,0.233,1.646,0.233,2.854
		c0,1.536-0.166,2.672-0.457,3.405c-0.305,0.732-0.785,1.099-1.4,1.099c-0.66,0-1.176-0.4-1.465-1.168
		c-0.314-0.778-0.473-2.022-0.471-3.666l-0.002,0.001C228.805,132.857,228.837,132.202,228.898,131.656z"/>
	<polygon points="254.1,5.602 257.1,5.602 257.1,21.401 258.7,21.401 258.7,4.902 254.1,4.902 	"/>
	<polygon points="257.1,24.1 257.1,38.002 258.7,38.002 258.7,24.1 258.7,21.401 257.1,21.401 	"/>
	<polygon points="257.1,40.9 257.1,54.701 258.7,54.701 258.7,40.9 258.7,38.002 257.1,38.002 	"/>
	<polygon points="257.1,57.5 257.1,71.401 258.7,71.401 258.7,57.5 258.7,54.701 257.1,54.701 	"/>
	<polygon points="257.1,74.2 257.1,88.002 258.7,88.002 258.7,74.2 258.7,71.401 257.1,71.401 	"/>
	<polygon points="257.1,90.9 257.1,104.701 258.7,104.701 258.7,90.9 258.7,88.002 257.1,88.002 	"/>
	<polygon points="257.1,107.5 257.1,121.502 258.7,121.502 258.7,107.5 258.7,104.701 257.1,104.701 	"/>
	<polygon points="257.1,124.2 257.1,140.1 254.1,140.1 254.1,140.8 258.7,140.8 258.7,124.2 258.7,121.502 257.1,121.502 	"/>
</g>
</svg>
