<?xml version="1.0" encoding="utf-8"?>
<!-- Generator: Adobe Illustrator 15.1.0, SVG Export Plug-In . SVG Version: 6.00 Build 0)  -->
<!DOCTYPE svg PUBLIC "-//W3C//DTD SVG 1.1 Tiny//EN" "http://www.w3.org/Graphics/SVG/1.1/DTD/svg11-tiny.dtd">
<svg version="1.1" baseProfile="tiny" id="Layer_1" xmlns="http://www.w3.org/2000/svg" xmlns:xlink="http://www.w3.org/1999/xlink"
	 x="0px" y="0px" width="92px" height="38px" viewBox="0 0 92 38" overflow="inherit" xml:space="preserve">
<g>
	<path fill="none" d="M11.795,21.398c-0.254,0-0.43,0.049-0.62,0.143c-0.215,0.081-0.366,0.225-0.525,0.391
		c-0.175,0.154-0.3,0.356-0.425,0.573c-0.132,0.215-0.229,0.448-0.314,0.695c-0.087,0.246-0.148,0.5-0.192,0.758
		c-0.05,0.239-0.066,0.51-0.066,0.755c-0.018,0.396,0.058,0.699,0.173,0.895c0.106,0.191,0.302,0.291,0.558,0.291
		c0.146,0,0.366-0.057,0.578-0.172c0.191-0.125,0.416-0.281,0.614-0.498c0.173-0.227,0.38-0.481,0.545-0.793
		c0.16-0.324,0.291-0.664,0.375-1.054l-0.001,0.001c0.01-0.229,0.079-0.402,0.113-0.602c0.032-0.229,0.052-0.385,0.052-0.553
		c-0.021-0.311-0.069-0.514-0.206-0.641C12.299,21.433,12.097,21.398,11.795,21.398z"/>
	<path fill="none" d="M69.477,33.803c0.195-0.122,0.383-0.264,0.487-0.43c0.083-0.19,0.156-0.347,0.156-0.545
		c-0.006-0.238-0.06-0.406-0.177-0.534c-0.131-0.16-0.287-0.194-0.51-0.194c-0.218,0-0.412,0.051-0.613,0.148
		c-0.209,0.083-0.394,0.24-0.573,0.422c-0.195,0.159-0.342,0.403-0.489,0.662c-0.166,0.248-0.27,0.548-0.369,0.867L67.388,34.2
		c0.451-0.004,0.894-0.041,1.238-0.111C68.964,33.99,69.255,33.924,69.477,33.803z"/>
	<path fill="none" d="M50.876,11.104c0.196-0.123,0.383-0.265,0.488-0.431c0.083-0.19,0.155-0.347,0.155-0.545
		c-0.006-0.238-0.059-0.406-0.177-0.534C51.212,9.434,51.056,9.4,50.834,9.4c-0.218,0-0.412,0.05-0.614,0.147
		c-0.209,0.083-0.393,0.24-0.573,0.422c-0.194,0.159-0.342,0.403-0.488,0.662c-0.166,0.248-0.271,0.548-0.369,0.867L48.788,11.5
		c0.451-0.004,0.893-0.041,1.238-0.111C50.364,11.29,50.655,11.224,50.876,11.104z"/>
	<path d="M0.295,23.02L0.443,23.4h5.62l0.473-2.2v-0.001H5.845c-0.197,0.416-0.379,0.716-0.494,0.916
		c-0.131,0.195-0.282,0.322-0.384,0.436c-0.125,0.096-0.279,0.146-0.435,0.197C4.367,22.783,4.123,22.8,3.819,22.8H2.064
		l-0.047-0.055c0.528-0.575,1.122-1.289,1.872-2.099l3.703-4.258L7.444,16h-5.52l-0.458,2h0.69c0.176-0.328,0.324-0.595,0.478-0.758
		c0.143-0.178,0.264-0.324,0.4-0.4c0.124-0.089,0.246-0.17,0.372-0.187c0.125-0.037,0.29-0.056,0.591-0.056h1.817l0.047,0.056
		c-0.279,0.291-0.732,0.772-1.32,1.469L0.295,23.02z"/>
	<path d="M13.125,20.576c-0.038,0.158-0.113,0.332-0.152,0.591c-0.19-0.147-0.413-0.269-0.595-0.292
		c-0.207-0.048-0.466-0.073-0.686-0.073c-0.282,0-0.58,0.033-0.82,0.145c-0.264,0.096-0.521,0.214-0.748,0.405
		c-0.233,0.175-0.474,0.357-0.645,0.629c-0.196,0.243-0.388,0.483-0.506,0.811c-0.142,0.297-0.266,0.6-0.33,0.955
		c-0.078,0.339-0.125,0.689-0.116,1.058c0,0.618,0.091,1.084,0.367,1.413c0.246,0.323,0.582,0.484,1.044,0.484
		c0.196,0,0.384-0.034,0.566-0.086c0.181-0.058,0.347-0.161,0.537-0.27c0.178-0.123,0.332-0.305,0.539-0.469
		c0.181-0.189,0.355-0.448,0.561-0.688l0.08,0.034c-0.053,0.155-0.093,0.314-0.08,0.489c0,0.307,0.054,0.535,0.227,0.723
		c0.15,0.177,0.362,0.265,0.634,0.265c0.15,0,0.284-0.033,0.434-0.062c0.14-0.041,0.262-0.12,0.427-0.202
		c0.146-0.095,0.292-0.238,0.45-0.356c0.155-0.144,0.318-0.337,0.517-0.506c-0.061-0.061-0.137-0.151-0.188-0.184
		c-0.065-0.062-0.145-0.159-0.188-0.19c-0.117,0.125-0.234,0.225-0.314,0.32c-0.093,0.088-0.206,0.148-0.254,0.219
		c-0.078,0.056-0.172,0.076-0.216,0.123c-0.065,0.025-0.155,0.039-0.198,0.039c-0.109,0-0.199-0.033-0.253-0.096
		c-0.059-0.062-0.098-0.199-0.088-0.308c0-0.104-0.01-0.237,0.025-0.353c0.017-0.133,0.033-0.313,0.105-0.527h0.003l1.312-5.716
		h-0.289l-1.688,0.1l-0.072,0.4c0.147,0.008,0.24,0.007,0.366,0.032c0.096,0.015,0.167,0.036,0.223,0.069
		c0.053,0.031,0.082,0.064,0.111,0.122c0.02,0.049,0.013,0.107,0.031,0.184c0,0.09-0.019,0.187-0.038,0.334
		C13.195,20.273,13.155,20.393,13.125,20.576z M12.608,22.781c-0.034,0.199-0.103,0.373-0.113,0.602l0.001-0.001
		c-0.084,0.39-0.215,0.729-0.375,1.054c-0.165,0.312-0.372,0.566-0.545,0.793c-0.198,0.217-0.423,0.373-0.614,0.498
		c-0.212,0.115-0.432,0.172-0.578,0.172c-0.256,0-0.451-0.1-0.558-0.291c-0.115-0.195-0.19-0.498-0.173-0.895
		c0-0.245,0.016-0.516,0.066-0.755C9.763,23.7,9.824,23.446,9.911,23.2c0.085-0.247,0.182-0.48,0.314-0.695
		c0.125-0.217,0.25-0.419,0.425-0.573c0.159-0.166,0.31-0.31,0.525-0.391c0.19-0.094,0.366-0.143,0.62-0.143
		c0.302,0,0.504,0.034,0.659,0.189c0.137,0.127,0.186,0.33,0.206,0.641C12.66,22.396,12.64,22.553,12.608,22.781z"/>
	<rect x="21.956" y="16.8" width="9.566" height="1"/>
	<rect x="21.956" y="20" width="9.566" height="1"/>
	<path d="M39.295,10.919l0.148,0.381h5.62l0.473-2.2V9.099h-0.691c-0.197,0.416-0.379,0.716-0.494,0.916
		c-0.131,0.195-0.282,0.323-0.384,0.437c-0.125,0.096-0.279,0.145-0.435,0.197c-0.166,0.034-0.41,0.052-0.713,0.052h-1.755
		l-0.047-0.056c0.528-0.574,1.122-1.289,1.872-2.098l3.703-4.258L46.444,3.9h-5.52l-0.458,2h0.69
		c0.176-0.328,0.324-0.596,0.478-0.758c0.143-0.178,0.264-0.324,0.4-0.4c0.124-0.089,0.246-0.17,0.372-0.188
		c0.125-0.037,0.29-0.055,0.591-0.055h1.817l0.047,0.055c-0.279,0.291-0.732,0.773-1.32,1.469L39.295,10.919z"/>
	<path d="M48.676,12.1c2.585,0,3.86-0.699,3.878-2.069c0-0.394-0.151-0.703-0.377-0.908c-0.25-0.213-0.642-0.32-1.1-0.32
		c-0.53,0-1.022,0.1-1.466,0.331c-0.447,0.221-0.851,0.51-1.146,0.922c-0.159,0.193-0.313,0.375-0.414,0.623
		c-0.116,0.221-0.233,0.428-0.294,0.682c-0.08,0.231-0.166,0.445-0.177,0.697c-0.037,0.233-0.065,0.447-0.056,0.672
		c0,0.308,0.024,0.564,0.121,0.827c0.082,0.244,0.199,0.425,0.356,0.622c0.157,0.17,0.323,0.277,0.578,0.39
		c0.228,0.088,0.467,0.133,0.784,0.133c0.502,0,0.947-0.133,1.408-0.319c0.436-0.213,0.845-0.541,1.311-0.953h0.002l-0.425-0.459
		c-0.177,0.182-0.363,0.325-0.509,0.467c-0.162,0.131-0.347,0.219-0.484,0.32c-0.161,0.083-0.35,0.131-0.491,0.184
		c-0.166,0.039-0.357,0.06-0.526,0.06c-0.354,0-0.638-0.101-0.784-0.286c-0.168-0.189-0.256-0.495-0.252-0.909
		c0-0.137-0.004-0.271,0.017-0.381C48.643,12.307,48.632,12.199,48.676,12.1z M48.789,11.499c0.099-0.319,0.203-0.619,0.369-0.867
		c0.146-0.259,0.294-0.503,0.488-0.662c0.181-0.182,0.364-0.339,0.573-0.422C50.422,9.45,50.616,9.4,50.834,9.4
		c0.222,0,0.378,0.033,0.509,0.193c0.118,0.128,0.171,0.296,0.177,0.534c0,0.198-0.072,0.354-0.155,0.545
		c-0.105,0.166-0.292,0.308-0.488,0.431c-0.221,0.12-0.512,0.187-0.85,0.285C49.681,11.459,49.239,11.496,48.789,11.499
		L48.789,11.499z"/>
	<polygon points="63.188,1.8 63.188,6.3 58.957,6.3 58.957,7.3 63.188,7.3 63.188,11.8 64.291,11.8 64.291,7.3 68.521,7.3 
		68.521,6.3 64.291,6.3 64.291,1.8 	"/>
	<path d="M78.605,4.757c-0.141,0.271-0.377,0.584-0.643,0.959c-0.26,0.34-0.715,0.834-1.281,1.497
		c-0.687,0.766-1.246,1.428-1.591,1.997c-0.375,0.566-0.671,1.095-0.891,1.658v0.431h6.272l0.133-2.3h-0.699
		c-0.08,0.238-0.149,0.405-0.198,0.527c-0.052,0.113-0.155,0.204-0.214,0.276c-0.089,0.072-0.221,0.104-0.359,0.152
		C78.985,9.985,78.773,10,78.544,10h-2.821c0.453-0.771,1.146-1.704,2.133-2.705c0.575-0.617,0.957-1.082,1.215-1.322
		c0.233-0.264,0.443-0.555,0.642-0.78c0.193-0.257,0.323-0.521,0.462-0.721c0.115-0.224,0.19-0.48,0.252-0.678
		c0.055-0.229,0.079-0.494,0.081-0.752c0-0.794-0.269-1.408-0.733-1.815c-0.488-0.419-1.213-0.628-2.166-0.628
		c-0.433,0-0.936,0.033-1.463,0.195c-0.541,0.13-1.123,0.331-1.744,0.63v1.475h0.931c0.335-1.065,0.958-1.6,1.95-1.6
		c0.387,0,0.693,0.067,0.964,0.255c0.255,0.169,0.44,0.386,0.569,0.698C78.938,2.547,79,2.862,79,3.271
		c0,0.242-0.033,0.451-0.092,0.723C78.846,4.232,78.744,4.468,78.605,4.757z"/>
	<path d="M85.218,4.123C85.029,3.908,84.757,3.8,84.446,3.8c-0.398,0-0.78,0.101-1.072,0.313c-0.316,0.208-0.741,0.537-1.188,1.053
		L82.628,5.6c0.312-0.341,0.535-0.606,0.734-0.705C83.54,4.765,83.686,4.7,83.87,4.7c0.146,0,0.223,0.034,0.319,0.139
		c0.067,0.091,0.071,0.212,0.102,0.445c0,0.267-0.064,0.639-0.172,1.139L84.117,6.42l-1.133,4.877h1.344l0.736-3.342
		c0.108-0.479,0.22-0.899,0.42-1.208c0.171-0.327,0.376-0.677,0.68-1.011c0.282-0.349,0.527-0.629,0.8-0.78
		c0.251-0.172,0.463-0.259,0.702-0.259c0.27,0,0.447,0.065,0.583,0.233c0.119,0.157,0.169,0.412,0.178,0.767
		c0,0.144-0.043,0.311-0.058,0.562c-0.038,0.231-0.129,0.576-0.245,1.069l-0.341,1.33c-0.171,0.646-0.266,1.126-0.256,1.47
		c0,0.369,0.091,0.659,0.302,0.911c0.202,0.239,0.459,0.358,0.808,0.358c0.426,0,0.779-0.134,1.135-0.328
		c0.33-0.219,0.707-0.575,1.164-1.037l-0.442-0.435c-0.321,0.352-0.585,0.584-0.745,0.714c-0.176,0.125-0.359,0.187-0.497,0.187
		c-0.146,0-0.262-0.066-0.319-0.137c-0.066-0.093-0.11-0.247-0.1-0.445c0-0.229,0.055-0.636,0.209-1.183l0.505-2.012
		c0.15-0.592,0.201-1.066,0.226-1.373c0-0.484-0.157-0.869-0.39-1.139C89.124,3.938,88.73,3.8,88.273,3.8
		c-0.487,0-0.979,0.167-1.418,0.515c-0.457,0.343-0.942,0.838-1.447,1.58l-0.092-0.008c0.123-0.338,0.185-0.667,0.186-0.919
		C85.502,4.621,85.402,4.331,85.218,4.123z"/>
	<rect x="39.062" y="18.318" width="52.4" height="1.035"/>
	<path d="M57.895,33.719l0.148,0.381h5.62l0.473-2.199v-0.002h-0.69c-0.197,0.416-0.379,0.717-0.494,0.916
		c-0.131,0.195-0.282,0.323-0.384,0.437c-0.124,0.096-0.279,0.146-0.435,0.197c-0.166,0.034-0.41,0.052-0.714,0.052h-1.755
		l-0.047-0.055c0.527-0.575,1.122-1.289,1.872-2.099l3.703-4.258L65.044,26.7h-5.519l-0.458,2h0.69
		c0.176-0.328,0.324-0.595,0.478-0.758c0.143-0.178,0.264-0.324,0.399-0.4c0.124-0.089,0.246-0.17,0.372-0.187
		c0.125-0.037,0.29-0.056,0.591-0.056h1.817l0.047,0.056c-0.279,0.291-0.731,0.772-1.319,1.469L57.895,33.719z"/>
	<path d="M67.276,34.8c2.585,0,3.859-0.7,3.878-2.069c0-0.394-0.152-0.703-0.377-0.908c-0.25-0.213-0.643-0.32-1.101-0.32
		c-0.53,0-1.021,0.1-1.466,0.331c-0.447,0.221-0.85,0.51-1.145,0.922c-0.159,0.193-0.314,0.375-0.414,0.623
		c-0.117,0.221-0.234,0.428-0.295,0.681c-0.079,0.232-0.165,0.446-0.177,0.698c-0.036,0.233-0.064,0.447-0.056,0.672
		c0,0.308,0.025,0.564,0.122,0.827c0.081,0.244,0.199,0.425,0.356,0.622c0.156,0.17,0.322,0.277,0.577,0.39
		c0.229,0.088,0.468,0.133,0.784,0.133c0.502,0,0.947-0.133,1.408-0.319c0.436-0.213,0.845-0.541,1.311-0.953h0.002l-0.425-0.459
		c-0.177,0.181-0.362,0.325-0.509,0.467c-0.162,0.13-0.346,0.218-0.484,0.32c-0.16,0.083-0.35,0.131-0.49,0.184
		c-0.166,0.039-0.358,0.06-0.527,0.06c-0.354,0-0.637-0.101-0.784-0.286c-0.168-0.19-0.255-0.495-0.252-0.909
		c0-0.137-0.003-0.271,0.017-0.381C67.242,35.007,67.232,34.898,67.276,34.8z M67.389,34.199c0.1-0.319,0.203-0.619,0.369-0.867
		c0.147-0.259,0.294-0.503,0.489-0.662c0.18-0.182,0.364-0.339,0.573-0.422c0.201-0.098,0.396-0.148,0.613-0.148
		c0.223,0,0.379,0.034,0.51,0.194c0.117,0.128,0.171,0.296,0.177,0.534c0,0.198-0.073,0.354-0.156,0.545
		c-0.104,0.166-0.292,0.308-0.487,0.43c-0.222,0.121-0.513,0.188-0.851,0.286C68.281,34.159,67.839,34.196,67.389,34.199
		L67.389,34.199z"/>
</g>
</svg>
