<?xml version="1.0" encoding="utf-8"?>
<!-- Generator: Adobe Illustrator 15.1.0, SVG Export Plug-In . SVG Version: 6.00 Build 0)  -->
<!DOCTYPE svg PUBLIC "-//W3C//DTD SVG 1.1 Tiny//EN" "http://www.w3.org/Graphics/SVG/1.1/DTD/svg11-tiny.dtd">
<svg version="1.1" baseProfile="tiny" id="Layer_1" xmlns="http://www.w3.org/2000/svg" xmlns:xlink="http://www.w3.org/1999/xlink"
	 x="0px" y="0px" width="600px" height="120px" viewBox="0 0 600 120" overflow="inherit" xml:space="preserve">
<g>
	<g>
		<g>
		</g>
		<g>
		</g>
	</g>
	<g>
	</g>
</g>
<g>
	<polygon fill="none" points="450.139,97.9 497.224,97.9 497.224,97.771 496.563,96.324 494.003,91.123 491.461,86.45 
		488.902,82.17 486.367,78.293 484.008,74.971 481.669,71.923 476.977,66.435 471.946,61.329 466.918,56.88 461.789,52.893 
		457.153,49.705 450.139,49.705 	"/>
	<polygon fill="none" points="449.939,49.505 449.939,46.352 449.939,45.349 447.181,43.815 444,42.215 444,49.505 	"/>
	<rect x="499.644" y="49.705" fill="none" width="47.086" height="48.195"/>
	<rect x="444" y="49.705" fill="none" width="5.939" height="48.195"/>
	<polygon fill="none" points="450.139,49.505 456.862,49.505 456.662,49.367 451.904,46.44 450.139,45.459 450.139,46.352 	"/>
	<polygon fill="none" points="460.741,49.705 464.271,52.243 465.573,53.239 469.47,56.414 470.749,57.526 474.601,61.107 
		475.88,62.382 479.645,66.406 480.837,67.776 484.429,72.207 485.622,73.789 489.311,79.098 490.604,81.118 494.491,87.779 
		495.783,90.213 497.224,93.22 497.224,49.705 	"/>
	<path fill="none" d="M548.487,108.718c-0.069-0.304-0.158-0.564-0.269-0.783c-0.107-0.218-0.237-0.397-0.39-0.537
		c-0.152-0.142-0.324-0.244-0.517-0.31c-0.194-0.065-0.412-0.098-0.655-0.098c-0.433,0-0.781,0.103-1.048,0.31
		c-0.268,0.205-0.478,0.487-0.633,0.849c-0.154,0.358-0.26,0.78-0.314,1.264c-0.055,0.484-0.083,1.004-0.083,1.56
		c0,0.744,0.038,1.377,0.115,1.901c0.077,0.521,0.197,0.947,0.364,1.277c0.167,0.327,0.381,0.567,0.641,0.718
		c0.26,0.147,0.575,0.222,0.944,0.222c0.288,0,0.541-0.046,0.759-0.137c0.218-0.094,0.404-0.227,0.562-0.398
		c0.158-0.173,0.288-0.381,0.39-0.622c0.104-0.241,0.187-0.51,0.248-0.803s0.093-0.611,0.093-0.953c0-0.341,0-0.698,0-1.068
		c0-0.497-0.018-0.944-0.053-1.342C548.607,109.371,548.555,109.021,548.487,108.718z"/>
	<path fill="none" d="M444,0v1.11h102.829v0.1h0.1v45.142v3.253V98h-0.1v0.1h-47.268l0.192,0.401l-1.823,0.821l-0.558-1.223H444
		v13.261h5.394v0.96H444V120h156V0H444z M458.657,115.692c-0.014,0.068-0.032,0.126-0.056,0.173
		c-0.021,0.047-0.053,0.081-0.092,0.103S458.429,116,458.382,116h-5.505c-0.072,0-0.135-0.008-0.189-0.025
		c-0.054-0.018-0.1-0.047-0.139-0.085c-0.038-0.04-0.065-0.097-0.085-0.17c-0.018-0.075-0.026-0.167-0.026-0.274
		c0-0.101,0.003-0.188,0.01-0.261c0.007-0.072,0.021-0.138,0.043-0.194c0.022-0.058,0.051-0.113,0.085-0.17
		c0.034-0.058,0.084-0.119,0.146-0.188l1.955-2.08c0.452-0.478,0.813-0.904,1.085-1.282c0.273-0.378,0.484-0.722,0.632-1.029
		c0.149-0.311,0.246-0.592,0.294-0.846c0.047-0.253,0.069-0.49,0.069-0.712s-0.037-0.432-0.11-0.631
		c-0.072-0.198-0.178-0.372-0.314-0.521c-0.137-0.15-0.309-0.27-0.518-0.358c-0.208-0.088-0.447-0.132-0.718-0.132
		c-0.316,0-0.601,0.042-0.852,0.128c-0.252,0.083-0.473,0.174-0.663,0.272c-0.19,0.098-0.348,0.189-0.475,0.274
		c-0.127,0.083-0.223,0.125-0.285,0.125c-0.035,0-0.067-0.009-0.099-0.028c-0.027-0.019-0.051-0.051-0.069-0.094
		c-0.019-0.046-0.032-0.104-0.042-0.178c-0.011-0.075-0.016-0.164-0.016-0.268c0-0.074,0.002-0.14,0.007-0.192
		c0.006-0.053,0.015-0.1,0.026-0.14c0.013-0.04,0.029-0.077,0.05-0.11c0.021-0.035,0.063-0.078,0.125-0.13s0.168-0.122,0.32-0.21
		c0.151-0.09,0.341-0.179,0.57-0.264c0.228-0.086,0.479-0.158,0.755-0.217c0.273-0.06,0.563-0.09,0.867-0.09
		c0.482,0,0.904,0.067,1.265,0.203c0.362,0.134,0.662,0.32,0.9,0.557c0.239,0.237,0.419,0.512,0.536,0.822
		c0.119,0.312,0.179,0.646,0.179,0.998c0,0.318-0.028,0.635-0.082,0.95c-0.056,0.314-0.172,0.656-0.352,1.021
		c-0.178,0.366-0.434,0.772-0.769,1.221c-0.336,0.448-0.791,0.97-1.368,1.564l-1.598,1.673h4.331c0.043,0,0.085,0.012,0.125,0.033
		c0.041,0.021,0.075,0.054,0.104,0.099c0.03,0.045,0.051,0.1,0.064,0.165c0.015,0.067,0.022,0.146,0.022,0.233
		C458.677,115.547,458.67,115.624,458.657,115.692z M497.789,112.32h-8.027v-0.96h8.027V112.32z M507.049,115.722
		c-0.015,0.067-0.035,0.121-0.062,0.163c-0.025,0.04-0.056,0.069-0.091,0.087c-0.032,0.02-0.066,0.028-0.103,0.028h-5.204
		c-0.036,0-0.068-0.009-0.101-0.028c-0.031-0.018-0.062-0.047-0.09-0.087c-0.026-0.042-0.049-0.096-0.065-0.163
		c-0.015-0.067-0.021-0.15-0.021-0.25c0-0.093,0.007-0.173,0.021-0.238c0.017-0.067,0.036-0.122,0.058-0.166
		c0.023-0.044,0.053-0.079,0.085-0.103c0.033-0.022,0.071-0.035,0.113-0.035h2.077v-7.618l-1.925,1.156
		c-0.093,0.051-0.169,0.083-0.229,0.094c-0.058,0.012-0.104-0.001-0.14-0.033c-0.033-0.034-0.056-0.089-0.07-0.166
		c-0.011-0.078-0.017-0.178-0.017-0.297c0-0.091,0.003-0.166,0.01-0.228s0.018-0.114,0.03-0.155
		c0.015-0.042,0.036-0.077,0.062-0.107c0.029-0.032,0.065-0.062,0.108-0.092l2.292-1.479c0.021-0.015,0.048-0.028,0.078-0.037
		c0.029-0.011,0.067-0.02,0.115-0.029c0.047-0.013,0.101-0.019,0.161-0.019c0.062,0,0.14,0,0.23,0c0.125,0,0.229,0.005,0.31,0.015
		c0.084,0.009,0.148,0.022,0.193,0.04c0.047,0.019,0.078,0.041,0.092,0.068c0.017,0.026,0.023,0.055,0.023,0.087v8.8h1.802
		c0.042,0,0.08,0.013,0.115,0.035c0.037,0.023,0.066,0.059,0.09,0.103c0.024,0.044,0.041,0.099,0.053,0.166
		c0.014,0.065,0.021,0.146,0.021,0.238C507.072,115.571,507.064,115.654,507.049,115.722z M549.842,113.108
		c-0.117,0.629-0.312,1.172-0.588,1.627c-0.275,0.453-0.634,0.804-1.077,1.052c-0.443,0.249-0.989,0.373-1.64,0.373
		c-0.617,0-1.136-0.112-1.559-0.335c-0.42-0.224-0.759-0.551-1.017-0.982c-0.257-0.434-0.44-0.967-0.548-1.6
		c-0.107-0.634-0.16-1.361-0.16-2.182c0-0.758,0.061-1.452,0.18-2.085c0.122-0.633,0.318-1.176,0.591-1.63
		c0.271-0.455,0.629-0.806,1.072-1.054c0.443-0.249,0.988-0.373,1.636-0.373c0.619,0,1.14,0.112,1.56,0.335
		c0.421,0.223,0.76,0.552,1.017,0.985c0.259,0.432,0.441,0.964,0.549,1.598c0.107,0.633,0.161,1.36,0.161,2.179
		C550.019,111.781,549.96,112.477,549.842,113.108z"/>
	<polygon fill="none" points="546.729,49.505 546.729,46.352 546.729,1.31 499.644,1.31 499.644,49.505 	"/>
	<polygon fill="none" points="450.521,43.352 452.924,44.72 459.049,48.543 460.352,49.425 460.463,49.505 497.224,49.505 
		497.224,1.31 450.139,1.31 450.139,43.155 	"/>
	<polygon fill="none" points="449.939,43.052 449.939,1.31 444,1.31 444,39.99 	"/>
	<rect x="401.743" y="49.705" fill="#FFFFFF" width="42.257" height="48.195"/>
	<polygon fill="#FFFFFF" points="260.543,7.633 280.212,8.974 290.506,9.757 300.117,10.547 304.754,10.959 304.754,1.31 
		256.558,1.31 256.558,7.396 	"/>
	<rect x="353.349" y="49.705" fill="#FFFFFF" width="48.195" height="48.195"/>
	<polygon fill="#FFFFFF" points="408.305,26.992 418.646,30.01 430.7,34.203 433.068,35.129 440.39,38.253 442.96,39.454 444,39.99 
		444,1.31 401.743,1.31 401.743,25.333 	"/>
	<polygon fill="#FFFFFF" points="171.353,3.316 200.474,4.481 207.963,4.826 207.963,1.31 159.768,1.31 159.768,2.93 	"/>
	<polygon fill="#FFFFFF" points="309.541,11.385 319.764,12.372 329.306,13.376 339.647,14.57 349.803,15.863 353.149,16.333 
		353.149,1.31 304.953,1.31 304.953,10.977 	"/>
	<polygon fill="#FFFFFF" points="359.277,17.195 369.554,18.801 379.148,20.478 388.559,22.318 398.771,24.581 401.544,25.282 
		401.544,1.31 353.349,1.31 353.349,16.361 	"/>
	<polygon fill="#FFFFFF" points="220.921,5.424 240.615,6.451 256.358,7.385 256.358,1.31 208.163,1.31 208.163,4.835 	"/>
	<polygon fill="#FFFFFF" points="208.163,49.505 256.358,49.505 256.358,46.352 256.358,9.388 240.504,8.448 220.824,7.421 
		208.163,6.837 208.163,46.352 	"/>
	<polygon fill="#FFFFFF" points="256.558,49.505 304.754,49.505 304.754,46.352 304.754,12.967 299.947,12.54 290.348,11.75 
		280.066,10.968 260.416,9.629 256.558,9.4 256.558,46.352 	"/>
	<polygon fill="#FFFFFF" points="159.768,49.505 207.963,49.505 207.963,46.352 207.963,6.828 200.387,6.479 171.279,5.315 
		159.768,4.921 159.768,46.352 	"/>
	<polygon fill="#FFFFFF" points="353.349,49.505 401.544,49.505 401.544,46.352 401.544,27.344 398.309,26.526 388.149,24.276 
		378.784,22.444 369.228,20.774 358.983,19.173 353.349,18.381 353.349,46.352 	"/>
	<polygon fill="#FFFFFF" points="401.743,49.505 444,49.505 444,42.215 442.088,41.253 437.019,38.941 432.319,36.983 
		427.641,35.188 418.043,31.917 407.779,28.921 401.743,27.395 401.743,46.352 	"/>
	<polygon fill="#FFFFFF" points="111.373,49.505 159.568,49.505 159.568,46.352 159.568,4.914 141.953,4.311 111.373,3.446 
		111.373,46.352 	"/>
	<rect x="304.953" y="49.705" fill="#FFFFFF" width="48.196" height="48.195"/>
	<polygon fill="#FFFFFF" points="304.953,49.505 353.149,49.505 353.149,46.352 353.149,18.353 349.537,17.845 339.407,16.555 
		329.087,15.364 319.563,14.362 309.356,13.376 304.953,12.985 304.953,46.352 	"/>
	<rect x="159.768" y="49.705" fill="#FFFFFF" width="48.195" height="48.195"/>
	<rect x="208.163" y="49.705" fill="#FFFFFF" width="48.195" height="48.195"/>
	<rect x="256.558" y="49.705" fill="#FFFFFF" width="48.196" height="48.195"/>
	<rect x="111.373" y="49.705" fill="#FFFFFF" width="48.195" height="48.195"/>
	<rect x="64.088" y="49.705" fill="#FFFFFF" width="47.085" height="48.195"/>
	<polygon fill="#FFFFFF" points="111.173,49.505 111.173,46.352 111.173,3.44 92.266,2.905 64.088,2.242 64.088,49.505 	"/>
	<path fill="#FFFFFF" d="M441.367,112.32v-0.96H444V98.1H62.878V98h-0.1h-1.11V1.21h0.21l0.02-1.02l30.418,0.716l7.378,0.204H444V0
		H0v120h444v-7.68H441.367z M58.178,112.32h-8.027v-0.96h8.027V112.32z M67.439,115.722c-0.015,0.067-0.036,0.121-0.063,0.163
		c-0.025,0.04-0.055,0.069-0.09,0.087c-0.033,0.02-0.067,0.028-0.102,0.028h-5.206c-0.034,0-0.068-0.009-0.099-0.028
		c-0.032-0.018-0.062-0.047-0.091-0.087c-0.026-0.042-0.048-0.096-0.064-0.163c-0.015-0.067-0.023-0.15-0.023-0.25
		c0-0.093,0.008-0.173,0.023-0.238c0.016-0.067,0.035-0.122,0.057-0.166c0.023-0.044,0.052-0.079,0.085-0.103
		c0.033-0.022,0.071-0.035,0.112-0.035h2.078v-7.618l-1.925,1.156c-0.093,0.051-0.169,0.083-0.227,0.094
		c-0.059,0.012-0.105-0.001-0.141-0.033c-0.033-0.034-0.056-0.089-0.069-0.166c-0.012-0.078-0.018-0.178-0.018-0.297
		c0-0.091,0.003-0.166,0.01-0.228s0.017-0.114,0.03-0.155c0.015-0.042,0.036-0.077,0.063-0.107c0.028-0.032,0.064-0.062,0.107-0.092
		l2.292-1.479c0.022-0.015,0.048-0.028,0.078-0.037c0.03-0.011,0.068-0.02,0.115-0.029c0.047-0.013,0.101-0.019,0.163-0.019
		c0.061,0,0.138,0,0.229,0c0.125,0,0.229,0.005,0.31,0.015c0.084,0.009,0.148,0.022,0.193,0.04c0.047,0.019,0.078,0.041,0.092,0.068
		c0.016,0.026,0.023,0.055,0.023,0.087v8.8h1.803c0.041,0,0.079,0.013,0.115,0.035c0.036,0.023,0.066,0.059,0.089,0.103
		c0.024,0.044,0.041,0.099,0.053,0.166c0.013,0.065,0.02,0.146,0.02,0.238C67.461,115.571,67.454,115.654,67.439,115.722z
		 M75.601,113.108c-0.117,0.629-0.313,1.172-0.588,1.627c-0.275,0.453-0.634,0.804-1.078,1.052
		c-0.443,0.249-0.989,0.373-1.639,0.373c-0.617,0-1.136-0.112-1.558-0.335c-0.42-0.224-0.759-0.551-1.017-0.982
		c-0.257-0.434-0.44-0.967-0.548-1.6c-0.107-0.634-0.16-1.361-0.16-2.182c0-0.758,0.06-1.452,0.18-2.085
		c0.122-0.633,0.318-1.176,0.59-1.63c0.272-0.455,0.629-0.806,1.073-1.054c0.443-0.249,0.988-0.373,1.634-0.373
		c0.621,0,1.14,0.112,1.56,0.335c0.422,0.223,0.761,0.552,1.018,0.985c0.258,0.432,0.441,0.964,0.547,1.598
		c0.109,0.633,0.163,1.36,0.163,2.179C75.778,111.781,75.719,112.477,75.601,113.108z M110.629,112.32h-8.028v-0.96h8.028V112.32z
		 M119.994,111.955c-0.05,0.439-0.137,0.864-0.261,1.271c-0.121,0.407-0.285,0.789-0.492,1.146
		c-0.207,0.354-0.467,0.666-0.782,0.935c-0.314,0.267-0.686,0.476-1.118,0.627c-0.43,0.15-0.931,0.226-1.502,0.226
		c-0.22,0-0.434-0.014-0.64-0.042c-0.207-0.029-0.394-0.064-0.56-0.106c-0.165-0.04-0.305-0.083-0.418-0.13
		c-0.112-0.046-0.193-0.092-0.245-0.137c-0.05-0.047-0.087-0.11-0.11-0.19c-0.023-0.08-0.035-0.186-0.035-0.317
		c0-0.113,0.004-0.203,0.013-0.27c0.008-0.066,0.019-0.119,0.032-0.156c0.015-0.035,0.036-0.06,0.063-0.071
		c0.026-0.014,0.059-0.021,0.097-0.021c0.053,0,0.129,0.02,0.228,0.059c0.098,0.038,0.225,0.08,0.382,0.127
		c0.157,0.045,0.34,0.088,0.55,0.127c0.212,0.039,0.449,0.058,0.713,0.058c0.498,0,0.925-0.097,1.282-0.29
		c0.357-0.194,0.648-0.455,0.875-0.78c0.227-0.324,0.397-0.7,0.51-1.128c0.113-0.428,0.17-0.88,0.17-1.356
		c-0.268,0.163-0.592,0.308-0.972,0.435s-0.817,0.19-1.31,0.19c-0.555,0-1.022-0.075-1.4-0.226c-0.377-0.151-0.68-0.356-0.908-0.617
		c-0.228-0.262-0.393-0.571-0.495-0.93c-0.1-0.358-0.15-0.75-0.15-1.175c0-0.439,0.064-0.859,0.193-1.256
		c0.128-0.396,0.328-0.745,0.599-1.047c0.274-0.302,0.62-0.542,1.041-0.72c0.421-0.181,0.925-0.271,1.509-0.271
		c0.416,0,0.783,0.052,1.103,0.158c0.322,0.104,0.601,0.256,0.837,0.454c0.237,0.196,0.437,0.436,0.601,0.716
		c0.165,0.278,0.297,0.594,0.397,0.947c0.1,0.353,0.172,0.736,0.215,1.149c0.043,0.412,0.065,0.847,0.065,1.304
		C120.071,111.079,120.045,111.515,119.994,111.955z M159.024,112.32h-8.028v-0.96h8.028V112.32z M168.394,114.61
		c-0.154,0.335-0.375,0.617-0.665,0.85c-0.29,0.23-0.65,0.404-1.078,0.523c-0.427,0.117-0.914,0.177-1.462,0.177
		c-0.514,0-0.974-0.053-1.38-0.16c-0.405-0.108-0.75-0.267-1.033-0.477c-0.282-0.213-0.497-0.472-0.647-0.778
		c-0.149-0.309-0.223-0.66-0.223-1.055c0-0.313,0.051-0.601,0.153-0.86c0.101-0.262,0.247-0.502,0.437-0.722
		c0.19-0.223,0.424-0.43,0.703-0.621c0.28-0.191,0.593-0.374,0.94-0.547c-0.302-0.157-0.571-0.323-0.808-0.5
		c-0.237-0.178-0.437-0.368-0.602-0.575c-0.165-0.208-0.29-0.432-0.375-0.667c-0.085-0.237-0.128-0.494-0.128-0.771
		c0-0.348,0.062-0.675,0.187-0.979c0.125-0.307,0.314-0.571,0.566-0.795c0.251-0.228,0.572-0.405,0.962-0.535
		c0.39-0.132,0.844-0.198,1.363-0.198c0.498,0,0.929,0.062,1.292,0.182c0.365,0.12,0.666,0.285,0.903,0.493
		c0.236,0.207,0.41,0.451,0.522,0.733c0.113,0.281,0.17,0.584,0.17,0.907c0,0.263-0.042,0.516-0.127,0.758
		c-0.085,0.24-0.211,0.468-0.378,0.684c-0.165,0.215-0.368,0.416-0.61,0.604c-0.24,0.187-0.511,0.361-0.812,0.524
		c0.356,0.178,0.685,0.36,0.985,0.551c0.301,0.188,0.553,0.392,0.755,0.609c0.203,0.218,0.357,0.449,0.462,0.692
		c0.107,0.244,0.16,0.511,0.16,0.803C168.626,113.892,168.549,114.275,168.394,114.61z M207.418,112.32h-8.027v-0.96h8.027V112.32z
		 M216.849,106.718c-0.007,0.071-0.017,0.142-0.03,0.209c-0.014,0.067-0.032,0.131-0.055,0.193c-0.022,0.062-0.048,0.128-0.078,0.2
		l-3.532,8.375c-0.025,0.062-0.057,0.113-0.095,0.151c-0.039,0.039-0.087,0.07-0.146,0.094c-0.056,0.022-0.13,0.038-0.222,0.047
		c-0.092,0.009-0.202,0.013-0.332,0.013c-0.172,0-0.306-0.007-0.403-0.023c-0.097-0.016-0.167-0.041-0.21-0.073
		c-0.043-0.035-0.062-0.077-0.057-0.125c0.005-0.052,0.023-0.109,0.055-0.177l3.715-8.562h-4.71c-0.095,0-0.167-0.049-0.215-0.148
		c-0.049-0.099-0.073-0.237-0.073-0.415c0-0.093,0.007-0.175,0.02-0.243c0.013-0.071,0.033-0.13,0.057-0.176
		c0.026-0.047,0.056-0.081,0.091-0.103c0.034-0.023,0.075-0.035,0.122-0.035h5.718c0.069,0,0.131,0.007,0.185,0.022
		c0.053,0.015,0.093,0.045,0.12,0.09c0.028,0.044,0.05,0.1,0.065,0.171c0.015,0.069,0.022,0.159,0.022,0.269
		C216.861,106.562,216.857,106.644,216.849,106.718z M255.813,112.32h-8.027v-0.96h8.027V112.32z M265.216,114.023
		c-0.133,0.412-0.339,0.777-0.617,1.095c-0.279,0.314-0.632,0.566-1.061,0.757c-0.426,0.19-0.93,0.285-1.512,0.285
		c-0.417,0-0.784-0.052-1.103-0.155c-0.318-0.102-0.595-0.248-0.832-0.438c-0.237-0.19-0.434-0.424-0.593-0.699
		c-0.156-0.279-0.282-0.595-0.377-0.948c-0.095-0.353-0.163-0.74-0.205-1.16c-0.04-0.42-0.06-0.872-0.06-1.354
		c0-0.425,0.023-0.855,0.07-1.29c0.047-0.438,0.129-0.858,0.247-1.264c0.119-0.403,0.28-0.784,0.483-1.142
		c0.205-0.357,0.46-0.667,0.765-0.93c0.307-0.266,0.674-0.475,1.102-0.627c0.429-0.155,0.926-0.233,1.493-0.233
		c0.192,0,0.385,0.011,0.58,0.033c0.197,0.019,0.378,0.048,0.542,0.084c0.165,0.036,0.305,0.074,0.418,0.116
		c0.113,0.041,0.188,0.074,0.225,0.102c0.037,0.025,0.062,0.053,0.08,0.085c0.018,0.03,0.032,0.063,0.043,0.099
		c0.011,0.032,0.019,0.071,0.024,0.116c0.005,0.045,0.008,0.102,0.008,0.167c0,0.084,0,0.156,0,0.219
		c0,0.06-0.009,0.108-0.027,0.147c-0.019,0.036-0.042,0.065-0.071,0.084c-0.026,0.02-0.064,0.028-0.112,0.028
		c-0.057,0-0.134-0.011-0.233-0.032c-0.098-0.021-0.217-0.046-0.357-0.073c-0.14-0.026-0.31-0.051-0.51-0.072
		s-0.433-0.032-0.698-0.032c-0.481,0-0.896,0.095-1.245,0.285c-0.348,0.189-0.633,0.444-0.855,0.765
		c-0.22,0.318-0.383,0.688-0.49,1.11c-0.105,0.422-0.157,0.861-0.157,1.319c0.13-0.078,0.278-0.156,0.445-0.234
		c0.168-0.078,0.351-0.149,0.547-0.212c0.199-0.064,0.409-0.115,0.63-0.153c0.222-0.04,0.459-0.061,0.71-0.061
		c0.54,0,0.995,0.074,1.365,0.223c0.372,0.146,0.672,0.353,0.901,0.618c0.228,0.263,0.391,0.572,0.489,0.93
		c0.099,0.354,0.148,0.742,0.148,1.16C265.416,113.182,265.349,113.609,265.216,114.023z M304.209,112.32h-8.028v-0.96h8.028V112.32
		z M313.224,114.227c-0.179,0.417-0.431,0.77-0.758,1.056c-0.327,0.287-0.716,0.505-1.168,0.656
		c-0.451,0.147-0.953,0.222-1.505,0.222c-0.306,0-0.597-0.023-0.872-0.067c-0.274-0.045-0.52-0.1-0.735-0.166
		c-0.215-0.065-0.392-0.131-0.529-0.193c-0.138-0.064-0.225-0.114-0.263-0.151c-0.038-0.036-0.064-0.07-0.079-0.102
		c-0.017-0.032-0.03-0.07-0.043-0.115c-0.014-0.045-0.021-0.103-0.021-0.17c0-0.07,0-0.152,0-0.247c0-0.089,0.003-0.169,0.01-0.241
		c0.008-0.071,0.022-0.129,0.04-0.175c0.021-0.045,0.043-0.078,0.068-0.1s0.056-0.032,0.09-0.032c0.048,0,0.124,0.035,0.227,0.106
		c0.105,0.072,0.25,0.15,0.436,0.233c0.185,0.083,0.413,0.163,0.685,0.236c0.273,0.075,0.599,0.113,0.974,0.113
		c0.348,0,0.668-0.042,0.96-0.125c0.291-0.083,0.542-0.213,0.752-0.387c0.21-0.177,0.375-0.399,0.495-0.666
		c0.12-0.266,0.18-0.591,0.18-0.974c0-0.32-0.052-0.604-0.155-0.849c-0.102-0.247-0.259-0.452-0.473-0.615
		c-0.213-0.163-0.484-0.284-0.812-0.364c-0.326-0.08-0.717-0.12-1.172-0.12c-0.32,0-0.592,0.021-0.814,0.062
		c-0.225,0.042-0.431,0.063-0.618,0.063c-0.14,0-0.24-0.033-0.3-0.099c-0.061-0.065-0.09-0.192-0.09-0.379v-4.013
		c0-0.168,0.038-0.293,0.117-0.373c0.078-0.081,0.191-0.122,0.341-0.122h4.361c0.042,0,0.081,0.011,0.117,0.032
		c0.037,0.021,0.068,0.055,0.093,0.098c0.027,0.042,0.046,0.097,0.059,0.162c0.013,0.067,0.02,0.146,0.02,0.235
		c0,0.172-0.022,0.306-0.067,0.4c-0.044,0.096-0.104,0.143-0.183,0.143h-3.738v2.768c0.186-0.032,0.372-0.048,0.561-0.048
		c0.188,0,0.406,0,0.653,0c0.569,0,1.066,0.069,1.491,0.207c0.428,0.137,0.783,0.33,1.068,0.58c0.286,0.249,0.502,0.551,0.647,0.908
		c0.146,0.354,0.22,0.749,0.22,1.182C313.491,113.332,313.402,113.809,313.224,114.227z M352.605,112.32h-8.028v-0.96h8.028V112.32z
		 M362.287,113.457c-0.052,0.095-0.124,0.143-0.217,0.143h-1.144v2.155c0,0.042-0.011,0.077-0.032,0.105
		c-0.021,0.027-0.06,0.053-0.112,0.074c-0.052,0.022-0.12,0.038-0.205,0.051c-0.083,0.01-0.192,0.015-0.325,0.015
		c-0.127,0-0.232-0.005-0.317-0.015c-0.084-0.013-0.149-0.028-0.199-0.051c-0.051-0.021-0.085-0.047-0.105-0.074
		c-0.019-0.028-0.028-0.063-0.028-0.105V113.6h-4.09c-0.062,0-0.111-0.007-0.151-0.021c-0.04-0.018-0.076-0.045-0.108-0.083
		c-0.032-0.04-0.054-0.097-0.067-0.172c-0.012-0.077-0.018-0.177-0.018-0.3c0-0.097,0-0.181,0-0.257
		c0-0.075,0.008-0.146,0.025-0.209c0.017-0.063,0.038-0.125,0.062-0.183c0.026-0.058,0.06-0.12,0.097-0.185l3.568-6.094
		c0.025-0.041,0.062-0.079,0.112-0.111c0.05-0.035,0.114-0.063,0.192-0.082c0.078-0.022,0.176-0.033,0.29-0.033
		c0.115,0,0.251,0,0.41,0c0.171,0,0.321,0.007,0.45,0.02c0.128,0.013,0.231,0.028,0.31,0.049c0.078,0.018,0.139,0.043,0.181,0.074
		c0.041,0.03,0.062,0.069,0.062,0.117v6.4h1.144c0.088,0,0.16,0.044,0.215,0.132c0.055,0.087,0.082,0.221,0.082,0.403
		C362.367,113.23,362.34,113.361,362.287,113.457z M400.999,112.32h-8.027v-0.96h8.027V112.32z M410.042,114.375
		c-0.158,0.372-0.387,0.69-0.685,0.955s-0.663,0.47-1.101,0.615c-0.435,0.143-0.927,0.215-1.475,0.215
		c-0.333,0-0.646-0.028-0.936-0.083c-0.288-0.054-0.546-0.12-0.772-0.197s-0.415-0.156-0.565-0.238
		c-0.147-0.081-0.241-0.14-0.28-0.177c-0.035-0.037-0.064-0.073-0.087-0.109c-0.02-0.037-0.038-0.081-0.053-0.134
		s-0.026-0.118-0.035-0.193c-0.008-0.077-0.012-0.17-0.012-0.28c0-0.19,0.021-0.322,0.062-0.396
		c0.043-0.073,0.102-0.111,0.179-0.111c0.053,0,0.139,0.045,0.257,0.135c0.12,0.09,0.288,0.187,0.503,0.29
		c0.215,0.103,0.467,0.2,0.755,0.29s0.608,0.135,0.96,0.135c0.343,0,0.645-0.045,0.902-0.135c0.26-0.09,0.478-0.217,0.653-0.38
		c0.177-0.163,0.309-0.357,0.396-0.58c0.089-0.226,0.133-0.469,0.133-0.732c0-0.289-0.058-0.549-0.175-0.779
		c-0.117-0.232-0.287-0.433-0.51-0.602c-0.224-0.169-0.498-0.299-0.825-0.387c-0.327-0.09-0.686-0.135-1.078-0.135h-0.939
		c-0.04,0-0.079-0.01-0.117-0.028c-0.038-0.018-0.072-0.048-0.101-0.089c-0.027-0.044-0.052-0.1-0.069-0.165
		c-0.018-0.069-0.025-0.158-0.025-0.269c0-0.1,0.007-0.183,0.022-0.248c0.015-0.065,0.036-0.118,0.064-0.156
		c0.029-0.04,0.061-0.069,0.095-0.088c0.037-0.019,0.078-0.027,0.123-0.027h0.865c0.335,0,0.638-0.042,0.91-0.128
		c0.273-0.084,0.504-0.207,0.692-0.367s0.334-0.351,0.435-0.573c0.102-0.223,0.153-0.472,0.153-0.747
		c0-0.199-0.033-0.391-0.101-0.571c-0.066-0.185-0.167-0.343-0.3-0.477s-0.304-0.241-0.513-0.318
		c-0.206-0.079-0.445-0.118-0.717-0.118c-0.299,0-0.572,0.046-0.82,0.137s-0.47,0.188-0.665,0.291
		c-0.195,0.101-0.349,0.197-0.463,0.287c-0.111,0.09-0.19,0.135-0.235,0.135c-0.031,0-0.06-0.007-0.085-0.02
		c-0.024-0.014-0.045-0.038-0.06-0.075c-0.016-0.038-0.025-0.092-0.032-0.16s-0.01-0.158-0.01-0.27c0-0.077,0.002-0.145,0.007-0.203
		s0.015-0.109,0.028-0.152c0.015-0.043,0.031-0.083,0.052-0.117c0.021-0.035,0.056-0.077,0.103-0.125
		c0.047-0.049,0.143-0.119,0.285-0.211c0.146-0.091,0.322-0.181,0.532-0.27c0.212-0.09,0.455-0.164,0.729-0.225
		c0.277-0.062,0.575-0.093,0.894-0.093c0.445,0,0.837,0.058,1.175,0.175c0.338,0.115,0.621,0.278,0.847,0.49
		c0.228,0.21,0.396,0.462,0.505,0.755c0.112,0.293,0.169,0.618,0.169,0.976c0,0.305-0.038,0.59-0.115,0.854
		c-0.077,0.263-0.189,0.497-0.338,0.7s-0.33,0.377-0.547,0.52c-0.218,0.144-0.485,0.243-0.806,0.301v0.017
		c0.37,0.037,0.699,0.125,0.987,0.263c0.29,0.138,0.54,0.311,0.748,0.521s0.371,0.454,0.486,0.731
		c0.119,0.279,0.179,0.577,0.179,0.896C410.282,113.582,410.202,114.002,410.042,114.375z"/>
	<path fill="#FFFFFF" d="M263.701,111.422c-0.14-0.173-0.327-0.306-0.56-0.398c-0.233-0.097-0.523-0.144-0.868-0.144
		c-0.191,0-0.384,0.019-0.577,0.053c-0.192,0.033-0.377,0.08-0.555,0.141c-0.178,0.059-0.35,0.13-0.515,0.212
		c-0.163,0.08-0.312,0.167-0.445,0.26c0,0.673,0.043,1.237,0.127,1.692c0.087,0.454,0.212,0.816,0.375,1.091
		c0.164,0.272,0.367,0.469,0.61,0.587c0.244,0.117,0.53,0.175,0.858,0.175c0.332,0,0.619-0.062,0.862-0.187
		c0.245-0.125,0.448-0.294,0.608-0.505c0.162-0.213,0.28-0.449,0.355-0.71c0.077-0.265,0.115-0.535,0.115-0.813
		c0-0.303-0.03-0.578-0.09-0.825C263.943,111.803,263.843,111.594,263.701,111.422z"/>
	<polygon fill="#FFFFFF" points="111.173,1.31 106.949,1.31 111.173,1.427 	"/>
	<path fill="#FFFFFF" d="M165.291,110.317c0.507-0.264,0.896-0.555,1.168-0.875c0.271-0.319,0.407-0.674,0.407-1.061
		c0-0.213-0.037-0.405-0.11-0.577c-0.073-0.173-0.18-0.32-0.32-0.442c-0.14-0.121-0.314-0.214-0.523-0.277
		c-0.208-0.062-0.445-0.095-0.712-0.095c-0.542,0-0.952,0.125-1.232,0.375c-0.279,0.248-0.418,0.588-0.418,1.017
		c0,0.199,0.033,0.383,0.1,0.553c0.068,0.171,0.174,0.332,0.318,0.485c0.143,0.152,0.324,0.3,0.542,0.445
		C164.729,110.01,164.989,110.161,165.291,110.317z"/>
	<path fill="#FFFFFF" d="M166.754,112.405c-0.184-0.165-0.412-0.325-0.685-0.48c-0.274-0.155-0.59-0.315-0.95-0.482
		c-0.317,0.156-0.595,0.314-0.835,0.473c-0.239,0.157-0.435,0.319-0.588,0.488c-0.153,0.166-0.269,0.342-0.347,0.526
		c-0.079,0.186-0.118,0.391-0.118,0.615c0,0.493,0.172,0.874,0.515,1.144c0.345,0.268,0.86,0.401,1.545,0.401
		c0.662,0,1.162-0.135,1.5-0.405c0.34-0.271,0.51-0.642,0.51-1.109c0-0.233-0.045-0.445-0.135-0.635
		C167.076,112.748,166.939,112.57,166.754,112.405z"/>
	<path fill="#FFFFFF" d="M74.245,108.718c-0.068-0.304-0.157-0.564-0.267-0.783c-0.108-0.218-0.238-0.397-0.39-0.537
		c-0.152-0.142-0.324-0.244-0.517-0.31c-0.194-0.065-0.412-0.098-0.655-0.098c-0.432,0-0.781,0.103-1.048,0.31
		c-0.267,0.205-0.477,0.487-0.632,0.849c-0.155,0.358-0.261,0.78-0.315,1.264c-0.056,0.484-0.083,1.004-0.083,1.56
		c0,0.744,0.038,1.377,0.115,1.901c0.077,0.521,0.198,0.947,0.365,1.277c0.167,0.327,0.38,0.567,0.64,0.718
		c0.26,0.147,0.575,0.222,0.945,0.222c0.288,0,0.541-0.046,0.758-0.137c0.218-0.094,0.405-0.227,0.562-0.398
		c0.158-0.173,0.288-0.381,0.39-0.622c0.103-0.241,0.186-0.51,0.248-0.803c0.061-0.293,0.092-0.611,0.092-0.953
		c0-0.341,0-0.698,0-1.068c0-0.497-0.018-0.944-0.053-1.342C74.365,109.371,74.314,109.021,74.245,108.718z"/>
	<polygon fill="#FFFFFF" points="131.861,1.998 159.568,2.923 159.568,1.31 111.373,1.31 111.373,1.432 	"/>
	<polygon fill="#FFFFFF" points="356.362,112.53 359.602,112.53 359.602,107.04 359.587,107.04 	"/>
	<path fill="#FFFFFF" d="M118.224,107.765c-0.171-0.272-0.38-0.471-0.628-0.593c-0.248-0.121-0.536-0.182-0.863-0.182
		c-0.336,0-0.625,0.06-0.864,0.18c-0.239,0.118-0.435,0.278-0.588,0.478c-0.152,0.198-0.264,0.425-0.337,0.678
		c-0.072,0.252-0.108,0.511-0.108,0.776c0,0.3,0.033,0.572,0.098,0.82c0.065,0.247,0.169,0.457,0.315,0.63
		c0.145,0.172,0.334,0.306,0.567,0.398s0.521,0.14,0.862,0.14c0.391,0,0.766-0.057,1.128-0.17c0.363-0.115,0.677-0.266,0.94-0.452
		c0-0.646-0.044-1.19-0.133-1.633C118.525,108.393,118.395,108.037,118.224,107.765z"/>
	<polygon fill="#808080" points="61.858,2.19 61.878,1.21 61.668,1.21 61.668,98 62.778,98 62.778,2.211 	"/>
	<polygon fill="#808080" points="64.088,2.242 62.978,2.216 62.978,49.505 64.088,49.505 	"/>
	<rect x="62.978" y="49.705" fill="#808080" width="1.11" height="48.195"/>
	<rect x="111.173" y="49.705" fill="#D9D9D9" width="0.2" height="48.195"/>
	<polygon fill="#D9D9D9" points="111.373,46.352 111.373,3.446 111.173,3.44 111.173,46.352 	"/>
	<polygon fill="#D9D9D9" points="111.373,1.432 111.373,1.31 111.173,1.31 111.173,1.427 	"/>
	<polygon fill="#D9D9D9" points="159.768,46.352 159.768,4.921 159.568,4.914 159.568,46.352 	"/>
	<rect x="159.568" y="49.705" fill="#D9D9D9" width="0.2" height="48.195"/>
	<polygon fill="#D9D9D9" points="159.768,2.93 159.768,1.31 159.568,1.31 159.568,2.923 	"/>
	<polygon fill="#D9D9D9" points="208.163,4.835 208.163,1.31 207.963,1.31 207.963,4.826 	"/>
	<rect x="207.963" y="49.705" fill="#D9D9D9" width="0.2" height="48.195"/>
	<polygon fill="#D9D9D9" points="208.163,46.352 208.163,6.837 207.963,6.828 207.963,46.352 	"/>
	<rect x="256.358" y="49.705" fill="#D9D9D9" width="0.2" height="48.195"/>
	<polygon fill="#D9D9D9" points="256.558,46.352 256.558,9.4 256.358,9.388 256.358,46.352 	"/>
	<polygon fill="#D9D9D9" points="256.558,7.396 256.558,1.31 256.358,1.31 256.358,7.385 	"/>
	<polygon fill="#D9D9D9" points="304.953,10.977 304.953,1.31 304.754,1.31 304.754,10.959 	"/>
	<rect x="304.754" y="49.705" fill="#D9D9D9" width="0.199" height="48.195"/>
	<polygon fill="#D9D9D9" points="304.953,46.352 304.953,12.985 304.754,12.967 304.754,46.352 	"/>
	<polygon fill="#D9D9D9" points="353.349,16.361 353.349,1.31 353.149,1.31 353.149,16.333 	"/>
	<rect x="353.149" y="49.705" fill="#D9D9D9" width="0.199" height="48.195"/>
	<polygon fill="#D9D9D9" points="353.349,46.352 353.349,18.381 353.149,18.353 353.149,46.352 	"/>
	<polygon fill="#D9D9D9" points="401.743,46.352 401.743,27.395 401.544,27.344 401.544,46.352 	"/>
	<rect x="401.544" y="49.705" fill="#D9D9D9" width="0.199" height="48.195"/>
	<polygon fill="#D9D9D9" points="401.743,25.333 401.743,1.31 401.544,1.31 401.544,25.282 	"/>
	<polygon fill="#D9D9D9" points="450.139,46.352 450.139,45.459 449.939,45.349 449.939,46.352 	"/>
	<rect x="449.939" y="49.705" fill="#D9D9D9" width="0.199" height="48.195"/>
	<polygon fill="#D9D9D9" points="450.139,43.155 450.139,1.31 449.939,1.31 449.939,43.052 	"/>
	<polygon fill="#808080" points="497.224,49.705 497.224,93.22 499.466,97.9 499.644,97.9 499.644,49.705 	"/>
	<polygon fill="#808080" points="498.334,49.505 498.334,46.352 498.533,46.352 498.533,49.505 499.644,49.505 499.644,1.31 
		497.224,1.31 497.224,49.505 	"/>
	<polygon fill="#808080" points="497.282,97.9 497.224,97.771 497.224,97.9 	"/>
	<polygon fill="#D9D9D9" points="546.729,97.9 499.644,97.9 499.466,97.9 499.562,98.1 546.829,98.1 546.829,98 546.729,98 	"/>
	<polygon fill="#D9D9D9" points="497.282,97.9 497.224,97.9 450.139,97.9 449.939,97.9 444,97.9 401.743,97.9 401.544,97.9 
		353.349,97.9 353.149,97.9 304.953,97.9 304.754,97.9 256.558,97.9 256.358,97.9 208.163,97.9 207.963,97.9 159.768,97.9 
		159.568,97.9 111.373,97.9 111.173,97.9 64.088,97.9 62.978,97.9 62.978,98 62.878,98 62.878,98.1 444,98.1 497.373,98.1 	"/>
	<polygon fill="#D9D9D9" points="106.949,1.31 111.173,1.31 111.373,1.31 159.568,1.31 159.768,1.31 207.963,1.31 208.163,1.31 
		256.358,1.31 256.558,1.31 304.754,1.31 304.953,1.31 353.149,1.31 353.349,1.31 401.544,1.31 401.743,1.31 444,1.31 449.939,1.31 
		450.139,1.31 497.224,1.31 499.644,1.31 546.729,1.31 546.729,1.21 546.829,1.21 546.829,1.11 444,1.11 99.694,1.11 	"/>
	<polygon fill="#FF0000" points="62.778,2.211 62.778,1.21 62.978,1.21 62.978,2.216 64.088,2.242 92.266,2.905 111.173,3.44 
		111.373,3.446 141.953,4.311 159.568,4.914 159.768,4.921 171.279,5.315 200.387,6.479 207.963,6.828 208.163,6.837 220.824,7.421 
		240.504,8.448 256.358,9.388 256.558,9.4 260.416,9.629 280.066,10.968 290.348,11.75 299.947,12.54 304.754,12.967 
		304.953,12.985 309.356,13.376 319.563,14.362 329.087,15.364 339.407,16.555 349.537,17.845 353.149,18.353 353.349,18.381 
		358.983,19.173 369.228,20.774 378.784,22.444 388.149,24.276 398.309,26.526 401.544,27.344 401.743,27.395 407.779,28.921 
		418.043,31.917 427.641,35.188 432.319,36.983 437.019,38.941 442.088,41.253 444,42.215 447.181,43.815 449.939,45.349 
		450.139,45.459 451.904,46.44 456.662,49.367 456.862,49.505 460.463,49.505 460.352,49.425 459.049,48.543 452.924,44.72 
		450.521,43.352 450.139,43.155 449.939,43.052 444,39.99 442.96,39.454 440.39,38.253 433.068,35.129 430.7,34.203 418.646,30.01 
		408.305,26.992 401.743,25.333 401.544,25.282 398.771,24.581 388.559,22.318 379.148,20.478 369.554,18.801 359.277,17.195 
		353.349,16.361 353.149,16.333 349.803,15.863 339.647,14.57 329.306,13.376 319.764,12.372 309.541,11.385 304.953,10.977 
		304.754,10.959 300.117,10.547 290.506,9.757 280.212,8.974 260.543,7.633 256.558,7.396 256.358,7.385 240.615,6.451 
		220.921,5.424 208.163,4.835 207.963,4.826 200.474,4.481 171.353,3.316 159.768,2.93 159.568,2.923 131.861,1.998 111.373,1.432 
		111.173,1.427 106.949,1.31 99.694,1.11 92.316,0.906 61.898,0.19 61.878,1.21 61.858,2.19 	"/>
	<polygon fill="#FF0000" points="499.466,97.9 497.224,93.22 495.783,90.213 494.491,87.779 490.604,81.118 489.311,79.098 
		485.622,73.789 484.429,72.207 480.837,67.776 479.645,66.406 475.88,62.382 474.601,61.107 470.749,57.526 469.47,56.414 
		465.573,53.239 464.271,52.243 460.741,49.705 457.153,49.705 461.789,52.893 466.918,56.88 471.946,61.329 476.977,66.435 
		481.669,71.923 484.008,74.971 486.367,78.293 488.902,82.17 491.461,86.45 494.003,91.123 496.563,96.324 497.224,97.771 
		497.282,97.9 497.373,98.1 497.931,99.322 499.754,98.501 499.562,98.1 	"/>
	<polygon points="62.978,97.9 62.978,49.705 62.878,49.705 62.878,49.505 62.978,49.505 62.978,2.216 62.978,1.21 62.778,1.21 
		62.778,2.211 62.778,98 62.878,98 62.978,98 	"/>
	<rect x="50.151" y="111.36" width="8.027" height="0.96"/>
	<path d="M67.388,115.067c-0.023-0.044-0.053-0.079-0.089-0.103c-0.036-0.022-0.074-0.035-0.115-0.035h-1.803v-8.8
		c0-0.032-0.007-0.061-0.023-0.087c-0.014-0.027-0.045-0.05-0.092-0.068c-0.045-0.018-0.109-0.031-0.193-0.04
		c-0.081-0.01-0.185-0.015-0.31-0.015c-0.091,0-0.168,0-0.229,0c-0.062,0-0.116,0.006-0.163,0.019
		c-0.047,0.01-0.085,0.019-0.115,0.029c-0.03,0.009-0.056,0.022-0.078,0.037l-2.292,1.479c-0.043,0.029-0.079,0.06-0.107,0.092
		c-0.027,0.03-0.048,0.065-0.063,0.107c-0.013,0.041-0.023,0.094-0.03,0.155s-0.01,0.137-0.01,0.228
		c0,0.119,0.006,0.219,0.018,0.297c0.013,0.077,0.036,0.132,0.069,0.166c0.036,0.032,0.082,0.045,0.141,0.033
		c0.058-0.011,0.134-0.043,0.227-0.094l1.925-1.156v7.618h-2.078c-0.041,0-0.079,0.013-0.112,0.035
		c-0.033,0.023-0.062,0.059-0.085,0.103c-0.022,0.044-0.041,0.099-0.057,0.166c-0.015,0.065-0.023,0.146-0.023,0.238
		c0,0.1,0.008,0.183,0.023,0.25c0.016,0.067,0.038,0.121,0.064,0.163c0.029,0.04,0.059,0.069,0.091,0.087
		c0.031,0.02,0.065,0.028,0.099,0.028h5.206c0.035,0,0.069-0.009,0.102-0.028c0.035-0.018,0.065-0.047,0.09-0.087
		c0.027-0.042,0.048-0.096,0.063-0.163s0.022-0.15,0.022-0.25c0-0.093-0.007-0.173-0.02-0.238
		C67.429,115.166,67.412,115.111,67.388,115.067z"/>
	<path d="M75.068,107.24c-0.257-0.434-0.596-0.763-1.018-0.985c-0.42-0.223-0.939-0.335-1.56-0.335
		c-0.646,0-1.191,0.124-1.634,0.373c-0.444,0.248-0.801,0.599-1.073,1.054c-0.272,0.454-0.468,0.997-0.59,1.63
		c-0.12,0.633-0.18,1.327-0.18,2.085c0,0.82,0.053,1.548,0.16,2.182c0.108,0.633,0.291,1.166,0.548,1.6
		c0.258,0.432,0.597,0.759,1.017,0.982c0.422,0.223,0.941,0.335,1.558,0.335c0.65,0,1.196-0.124,1.639-0.373
		c0.444-0.248,0.803-0.599,1.078-1.052c0.275-0.455,0.471-0.998,0.588-1.627c0.118-0.632,0.177-1.327,0.177-2.092
		c0-0.818-0.054-1.546-0.163-2.179C75.509,108.204,75.326,107.672,75.068,107.24z M74.453,112.177c0,0.342-0.031,0.66-0.092,0.953
		c-0.062,0.293-0.145,0.562-0.248,0.803c-0.102,0.241-0.232,0.449-0.39,0.622c-0.157,0.172-0.344,0.305-0.562,0.398
		c-0.217,0.091-0.47,0.137-0.758,0.137c-0.37,0-0.685-0.074-0.945-0.222c-0.26-0.15-0.473-0.391-0.64-0.718
		c-0.167-0.33-0.288-0.757-0.365-1.277c-0.077-0.524-0.115-1.157-0.115-1.901c0-0.556,0.027-1.075,0.083-1.56
		c0.054-0.483,0.16-0.905,0.315-1.264c0.155-0.361,0.365-0.644,0.632-0.849c0.267-0.207,0.616-0.31,1.048-0.31
		c0.243,0,0.461,0.032,0.655,0.098c0.193,0.065,0.365,0.168,0.517,0.31c0.152,0.14,0.282,0.319,0.39,0.537
		c0.11,0.219,0.199,0.479,0.267,0.783c0.069,0.304,0.12,0.653,0.155,1.049c0.035,0.397,0.053,0.845,0.053,1.342
		C74.453,111.479,74.453,111.836,74.453,112.177z"/>
	<rect x="111.173" y="46.352" width="0.2" height="3.153"/>
	<rect x="102.601" y="111.36" width="8.028" height="0.96"/>
	<path d="M119.791,108.195c-0.1-0.354-0.232-0.669-0.397-0.947c-0.164-0.28-0.364-0.52-0.601-0.716
		c-0.236-0.198-0.515-0.35-0.837-0.454c-0.32-0.106-0.687-0.158-1.103-0.158c-0.584,0-1.088,0.09-1.509,0.271
		c-0.421,0.178-0.767,0.418-1.041,0.72c-0.271,0.302-0.471,0.65-0.599,1.047c-0.129,0.396-0.193,0.816-0.193,1.256
		c0,0.425,0.05,0.816,0.15,1.175c0.102,0.358,0.267,0.668,0.495,0.93c0.228,0.261,0.531,0.466,0.908,0.617
		c0.378,0.15,0.845,0.226,1.4,0.226c0.493,0,0.93-0.063,1.31-0.19s0.704-0.271,0.972-0.435c0,0.477-0.057,0.929-0.17,1.356
		c-0.113,0.428-0.283,0.804-0.51,1.128c-0.227,0.325-0.518,0.586-0.875,0.78c-0.357,0.193-0.784,0.29-1.282,0.29
		c-0.264,0-0.501-0.019-0.713-0.058c-0.21-0.039-0.393-0.082-0.55-0.127c-0.157-0.047-0.284-0.089-0.382-0.127
		c-0.099-0.039-0.175-0.059-0.228-0.059c-0.038,0-0.071,0.007-0.097,0.021c-0.027,0.012-0.048,0.036-0.063,0.071
		c-0.013,0.037-0.024,0.09-0.032,0.156c-0.009,0.066-0.013,0.156-0.013,0.27c0,0.132,0.012,0.237,0.035,0.317
		c0.023,0.08,0.06,0.144,0.11,0.19c0.052,0.045,0.133,0.091,0.245,0.137c0.113,0.047,0.253,0.09,0.418,0.13
		c0.166,0.042,0.353,0.077,0.56,0.106c0.206,0.028,0.42,0.042,0.64,0.042c0.571,0,1.072-0.075,1.502-0.226
		c0.432-0.151,0.804-0.36,1.118-0.627c0.315-0.269,0.575-0.581,0.782-0.935c0.207-0.357,0.371-0.739,0.492-1.146
		c0.124-0.407,0.211-0.832,0.261-1.271c0.051-0.44,0.077-0.876,0.077-1.307c0-0.457-0.022-0.892-0.065-1.304
		C119.963,108.932,119.891,108.548,119.791,108.195z M117.806,110.92c-0.362,0.113-0.737,0.17-1.128,0.17
		c-0.341,0-0.629-0.047-0.862-0.14s-0.422-0.227-0.567-0.398c-0.146-0.173-0.25-0.383-0.315-0.63
		c-0.065-0.248-0.098-0.521-0.098-0.82c0-0.266,0.036-0.524,0.108-0.776c0.073-0.253,0.185-0.479,0.337-0.678
		c0.153-0.199,0.349-0.359,0.588-0.478c0.239-0.12,0.528-0.18,0.864-0.18c0.327,0,0.615,0.061,0.863,0.182
		c0.248,0.122,0.457,0.32,0.628,0.593s0.301,0.628,0.389,1.07c0.089,0.442,0.133,0.986,0.133,1.633
		C118.483,110.654,118.169,110.805,117.806,110.92z"/>
	<rect x="159.568" y="46.352" width="0.2" height="3.153"/>
	<rect x="150.996" y="111.36" width="8.028" height="0.96"/>
	<path d="M168.004,111.965c-0.202-0.218-0.454-0.422-0.755-0.609c-0.3-0.19-0.629-0.373-0.985-0.551
		c0.301-0.163,0.572-0.338,0.812-0.524c0.242-0.188,0.445-0.389,0.61-0.604c0.167-0.216,0.293-0.443,0.378-0.684
		c0.085-0.242,0.127-0.495,0.127-0.758c0-0.323-0.057-0.626-0.17-0.907c-0.112-0.282-0.286-0.526-0.522-0.733
		c-0.237-0.208-0.538-0.373-0.903-0.493c-0.363-0.12-0.794-0.182-1.292-0.182c-0.519,0-0.973,0.066-1.363,0.198
		c-0.39,0.13-0.711,0.308-0.962,0.535c-0.252,0.224-0.441,0.488-0.566,0.795c-0.125,0.304-0.187,0.631-0.187,0.979
		c0,0.277,0.043,0.534,0.128,0.771c0.085,0.235,0.21,0.459,0.375,0.667c0.165,0.207,0.365,0.397,0.602,0.575
		c0.237,0.177,0.506,0.343,0.808,0.5c-0.347,0.173-0.66,0.355-0.94,0.547c-0.279,0.191-0.513,0.398-0.703,0.621
		c-0.19,0.22-0.336,0.46-0.437,0.722c-0.102,0.26-0.153,0.547-0.153,0.86c0,0.395,0.074,0.746,0.223,1.055
		c0.15,0.307,0.365,0.565,0.647,0.778c0.283,0.21,0.628,0.368,1.033,0.477c0.406,0.107,0.866,0.16,1.38,0.16
		c0.548,0,1.035-0.06,1.462-0.177c0.428-0.119,0.788-0.293,1.078-0.523c0.29-0.232,0.511-0.515,0.665-0.85
		c0.155-0.335,0.232-0.719,0.232-1.15c0-0.292-0.053-0.559-0.16-0.803C168.361,112.414,168.207,112.183,168.004,111.965z
		 M163.969,109.42c-0.144-0.153-0.25-0.314-0.318-0.485c-0.067-0.17-0.1-0.354-0.1-0.553c0-0.429,0.139-0.769,0.418-1.017
		c0.28-0.25,0.69-0.375,1.232-0.375c0.267,0,0.504,0.032,0.712,0.095c0.209,0.063,0.383,0.156,0.523,0.277
		c0.14,0.122,0.247,0.27,0.32,0.442c0.073,0.172,0.11,0.364,0.11,0.577c0,0.387-0.136,0.741-0.407,1.061
		c-0.272,0.32-0.661,0.611-1.168,0.875c-0.302-0.156-0.562-0.308-0.78-0.452C164.293,109.72,164.112,109.572,163.969,109.42z
		 M166.791,114.685c-0.338,0.271-0.838,0.405-1.5,0.405c-0.685,0-1.2-0.134-1.545-0.401c-0.343-0.27-0.515-0.65-0.515-1.144
		c0-0.225,0.039-0.43,0.118-0.615c0.078-0.185,0.194-0.36,0.347-0.526c0.153-0.169,0.349-0.331,0.588-0.488
		c0.24-0.158,0.518-0.316,0.835-0.473c0.36,0.167,0.676,0.327,0.95,0.482c0.273,0.155,0.501,0.315,0.685,0.48
		c0.185,0.165,0.322,0.343,0.412,0.535c0.09,0.189,0.135,0.401,0.135,0.635C167.301,114.043,167.131,114.413,166.791,114.685z"/>
	<rect x="207.963" y="46.352" width="0.2" height="3.153"/>
	<rect x="199.391" y="111.36" width="8.027" height="0.96"/>
	<path d="M216.774,106.032c-0.027-0.045-0.067-0.075-0.12-0.09c-0.054-0.016-0.116-0.022-0.185-0.022h-5.718
		c-0.047,0-0.088,0.012-0.122,0.035c-0.035,0.021-0.065,0.056-0.091,0.103c-0.024,0.046-0.044,0.104-0.057,0.176
		c-0.013,0.068-0.02,0.15-0.02,0.243c0,0.178,0.024,0.316,0.073,0.415c0.048,0.1,0.12,0.148,0.215,0.148h4.71l-3.715,8.562
		c-0.032,0.067-0.05,0.125-0.055,0.177c-0.005,0.048,0.014,0.09,0.057,0.125c0.043,0.032,0.113,0.058,0.21,0.073
		c0.097,0.017,0.231,0.023,0.403,0.023c0.13,0,0.24-0.004,0.332-0.013c0.092-0.009,0.166-0.024,0.222-0.047
		c0.059-0.023,0.107-0.055,0.146-0.094c0.038-0.038,0.07-0.089,0.095-0.151l3.532-8.375c0.03-0.072,0.056-0.139,0.078-0.2
		c0.023-0.062,0.041-0.126,0.055-0.193c0.013-0.067,0.023-0.138,0.03-0.209c0.008-0.074,0.012-0.156,0.012-0.246
		c0-0.109-0.007-0.199-0.022-0.269C216.824,106.132,216.802,106.076,216.774,106.032z"/>
	<rect x="256.358" y="46.352" width="0.2" height="3.153"/>
	<rect x="247.786" y="111.36" width="8.027" height="0.96"/>
	<path d="M264.779,110.65c-0.229-0.266-0.529-0.472-0.901-0.618c-0.37-0.148-0.825-0.223-1.365-0.223
		c-0.251,0-0.488,0.021-0.71,0.061c-0.221,0.038-0.431,0.089-0.63,0.153c-0.196,0.062-0.379,0.134-0.547,0.212
		c-0.167,0.078-0.315,0.156-0.445,0.234c0-0.458,0.052-0.897,0.157-1.319c0.107-0.423,0.27-0.792,0.49-1.11
		c0.222-0.32,0.507-0.575,0.855-0.765c0.349-0.19,0.764-0.285,1.245-0.285c0.265,0,0.498,0.011,0.698,0.032s0.37,0.046,0.51,0.072
		c0.14,0.027,0.259,0.052,0.357,0.073c0.099,0.021,0.176,0.032,0.233,0.032c0.048,0,0.086-0.009,0.112-0.028
		c0.029-0.019,0.052-0.048,0.071-0.084c0.018-0.039,0.027-0.088,0.027-0.147c0-0.062,0-0.135,0-0.219
		c0-0.065-0.003-0.122-0.008-0.167c-0.005-0.045-0.013-0.084-0.024-0.116c-0.011-0.035-0.025-0.068-0.043-0.099
		c-0.017-0.032-0.043-0.06-0.08-0.085c-0.037-0.027-0.112-0.061-0.225-0.102c-0.113-0.042-0.253-0.08-0.418-0.116
		c-0.164-0.036-0.345-0.065-0.542-0.084c-0.195-0.022-0.388-0.033-0.58-0.033c-0.567,0-1.064,0.078-1.493,0.233
		c-0.428,0.152-0.795,0.361-1.102,0.627c-0.305,0.263-0.56,0.572-0.765,0.93c-0.203,0.357-0.364,0.738-0.483,1.142
		c-0.118,0.405-0.2,0.826-0.247,1.264c-0.047,0.435-0.07,0.865-0.07,1.29c0,0.482,0.02,0.935,0.06,1.354
		c0.042,0.42,0.11,0.808,0.205,1.16c0.095,0.354,0.221,0.669,0.377,0.948c0.159,0.275,0.356,0.509,0.593,0.699
		c0.237,0.189,0.514,0.336,0.832,0.438c0.319,0.104,0.686,0.155,1.103,0.155c0.582,0,1.086-0.095,1.512-0.285
		c0.429-0.19,0.782-0.442,1.061-0.757c0.278-0.317,0.484-0.683,0.617-1.095c0.133-0.414,0.2-0.842,0.2-1.283
		c0-0.418-0.049-0.806-0.148-1.16C265.17,111.223,265.007,110.913,264.779,110.65z M263.976,113.688
		c-0.075,0.261-0.193,0.497-0.355,0.71c-0.16,0.211-0.363,0.38-0.608,0.505c-0.243,0.125-0.53,0.187-0.862,0.187
		c-0.328,0-0.614-0.058-0.858-0.175c-0.243-0.118-0.446-0.314-0.61-0.587c-0.163-0.274-0.288-0.637-0.375-1.091
		c-0.084-0.455-0.127-1.02-0.127-1.692c0.133-0.093,0.282-0.18,0.445-0.26c0.165-0.082,0.337-0.153,0.515-0.212
		c0.178-0.061,0.363-0.107,0.555-0.141c0.193-0.034,0.386-0.053,0.577-0.053c0.345,0,0.635,0.047,0.868,0.144
		c0.233,0.093,0.42,0.226,0.56,0.398c0.142,0.172,0.242,0.381,0.3,0.628c0.06,0.247,0.09,0.522,0.09,0.825
		C264.091,113.153,264.053,113.424,263.976,113.688z"/>
	<rect x="304.754" y="46.352" width="0.199" height="3.153"/>
	<rect x="296.181" y="111.36" width="8.028" height="0.96"/>
	<path d="M312.624,110.707c-0.285-0.25-0.641-0.443-1.068-0.58c-0.425-0.138-0.922-0.207-1.491-0.207c-0.247,0-0.466,0-0.653,0
		c-0.188,0-0.375,0.016-0.561,0.048V107.2h3.738c0.078,0,0.139-0.047,0.183-0.143c0.045-0.095,0.067-0.229,0.067-0.4
		c0-0.09-0.007-0.168-0.02-0.235c-0.013-0.065-0.031-0.12-0.059-0.162c-0.024-0.043-0.056-0.076-0.093-0.098
		c-0.036-0.021-0.075-0.032-0.117-0.032h-4.361c-0.149,0-0.263,0.041-0.341,0.122c-0.079,0.08-0.117,0.205-0.117,0.373v4.013
		c0,0.187,0.029,0.313,0.09,0.379c0.06,0.065,0.16,0.099,0.3,0.099c0.188,0,0.394-0.021,0.618-0.063
		c0.223-0.041,0.494-0.062,0.814-0.062c0.455,0,0.846,0.04,1.172,0.12c0.328,0.08,0.6,0.201,0.812,0.364
		c0.214,0.163,0.371,0.368,0.473,0.615c0.104,0.245,0.155,0.528,0.155,0.849c0,0.383-0.06,0.708-0.18,0.974
		c-0.12,0.267-0.285,0.489-0.495,0.666c-0.21,0.174-0.461,0.304-0.752,0.387c-0.292,0.083-0.612,0.125-0.96,0.125
		c-0.375,0-0.7-0.038-0.974-0.113c-0.271-0.073-0.5-0.153-0.685-0.236c-0.186-0.083-0.33-0.161-0.436-0.233
		c-0.103-0.071-0.179-0.106-0.227-0.106c-0.034,0-0.064,0.011-0.09,0.032s-0.048,0.055-0.068,0.1
		c-0.018,0.046-0.032,0.104-0.04,0.175c-0.007,0.072-0.01,0.152-0.01,0.241c0,0.095,0,0.177,0,0.247c0,0.067,0.007,0.125,0.021,0.17
		c0.013,0.045,0.026,0.083,0.043,0.115c0.015,0.031,0.041,0.065,0.079,0.102c0.038,0.037,0.125,0.087,0.263,0.151
		c0.138,0.062,0.314,0.128,0.529,0.193c0.216,0.066,0.461,0.121,0.735,0.166c0.275,0.044,0.566,0.067,0.872,0.067
		c0.552,0,1.054-0.074,1.505-0.222c0.452-0.151,0.841-0.369,1.168-0.656c0.327-0.286,0.579-0.639,0.758-1.056
		c0.179-0.418,0.268-0.895,0.268-1.43c0-0.433-0.073-0.827-0.22-1.182C313.126,111.258,312.91,110.956,312.624,110.707z"/>
	<rect x="353.149" y="46.352" width="0.199" height="3.153"/>
	<rect x="344.577" y="111.36" width="8.028" height="0.96"/>
	<path d="M362.07,112.53h-1.144v-6.4c0-0.048-0.021-0.087-0.062-0.117c-0.042-0.031-0.103-0.057-0.181-0.074
		c-0.078-0.021-0.182-0.036-0.31-0.049c-0.129-0.013-0.279-0.02-0.45-0.02c-0.159,0-0.295,0-0.41,0c-0.114,0-0.212,0.011-0.29,0.033
		c-0.078,0.019-0.143,0.047-0.192,0.082c-0.05,0.032-0.087,0.07-0.112,0.111l-3.568,6.094c-0.037,0.064-0.07,0.127-0.097,0.185
		c-0.024,0.058-0.046,0.119-0.062,0.183c-0.018,0.063-0.025,0.134-0.025,0.209c0,0.076,0,0.16,0,0.257
		c0,0.123,0.006,0.223,0.018,0.3c0.014,0.075,0.035,0.132,0.067,0.172c0.032,0.038,0.068,0.065,0.108,0.083
		c0.04,0.015,0.09,0.021,0.151,0.021h4.09v2.155c0,0.042,0.01,0.077,0.028,0.105c0.021,0.027,0.055,0.053,0.105,0.074
		c0.05,0.022,0.115,0.038,0.199,0.051c0.085,0.01,0.19,0.015,0.317,0.015c0.133,0,0.242-0.005,0.325-0.015
		c0.085-0.013,0.153-0.028,0.205-0.051c0.053-0.021,0.091-0.047,0.112-0.074c0.021-0.028,0.032-0.063,0.032-0.105V113.6h1.144
		c0.093,0,0.165-0.048,0.217-0.143c0.053-0.096,0.08-0.227,0.08-0.392c0-0.183-0.027-0.316-0.082-0.403
		C362.23,112.574,362.158,112.53,362.07,112.53z M359.602,112.53h-3.239l3.225-5.49h0.015V112.53z"/>
	<rect x="401.544" y="46.352" width="0.199" height="3.153"/>
	<rect x="392.972" y="111.36" width="8.027" height="0.96"/>
	<path d="M409.617,111.49c-0.208-0.21-0.458-0.383-0.748-0.521c-0.288-0.138-0.617-0.226-0.987-0.263v-0.017
		c0.32-0.058,0.588-0.157,0.806-0.301c0.217-0.143,0.398-0.316,0.547-0.52s0.261-0.438,0.338-0.7
		c0.077-0.265,0.115-0.55,0.115-0.854c0-0.357-0.057-0.683-0.169-0.976c-0.109-0.293-0.277-0.545-0.505-0.755
		c-0.226-0.212-0.509-0.375-0.847-0.49c-0.338-0.117-0.729-0.175-1.175-0.175c-0.318,0-0.616,0.031-0.894,0.093
		c-0.274,0.061-0.518,0.135-0.729,0.225c-0.21,0.089-0.387,0.179-0.532,0.27c-0.143,0.092-0.238,0.162-0.285,0.211
		c-0.047,0.048-0.081,0.09-0.103,0.125c-0.021,0.034-0.037,0.074-0.052,0.117c-0.014,0.043-0.023,0.094-0.028,0.152
		s-0.007,0.126-0.007,0.203c0,0.111,0.003,0.201,0.01,0.27s0.017,0.122,0.032,0.16c0.015,0.037,0.035,0.062,0.06,0.075
		c0.025,0.013,0.054,0.02,0.085,0.02c0.045,0,0.124-0.045,0.235-0.135c0.114-0.09,0.268-0.187,0.463-0.287
		c0.195-0.104,0.417-0.2,0.665-0.291s0.521-0.137,0.82-0.137c0.271,0,0.511,0.039,0.717,0.118c0.209,0.077,0.38,0.185,0.513,0.318
		s0.233,0.292,0.3,0.477c0.067,0.181,0.101,0.372,0.101,0.571c0,0.275-0.052,0.524-0.153,0.747
		c-0.101,0.223-0.246,0.413-0.435,0.573s-0.419,0.283-0.692,0.367c-0.272,0.086-0.575,0.128-0.91,0.128h-0.865
		c-0.045,0-0.086,0.009-0.123,0.027c-0.034,0.019-0.065,0.048-0.095,0.088c-0.028,0.038-0.05,0.091-0.064,0.156
		c-0.016,0.065-0.022,0.148-0.022,0.248c0,0.11,0.008,0.199,0.025,0.269c0.018,0.065,0.042,0.121,0.069,0.165
		c0.028,0.041,0.062,0.071,0.101,0.089c0.038,0.019,0.077,0.028,0.117,0.028h0.939c0.393,0,0.751,0.045,1.078,0.135
		c0.327,0.088,0.602,0.218,0.825,0.387c0.223,0.169,0.393,0.369,0.51,0.602c0.117,0.23,0.175,0.49,0.175,0.779
		c0,0.264-0.044,0.507-0.133,0.732c-0.088,0.223-0.22,0.417-0.396,0.58c-0.176,0.163-0.394,0.29-0.653,0.38
		c-0.258,0.09-0.56,0.135-0.902,0.135c-0.352,0-0.672-0.045-0.96-0.135s-0.54-0.188-0.755-0.29c-0.215-0.104-0.383-0.2-0.503-0.29
		c-0.118-0.09-0.204-0.135-0.257-0.135c-0.077,0-0.136,0.038-0.179,0.111c-0.041,0.074-0.062,0.206-0.062,0.396
		c0,0.11,0.004,0.203,0.012,0.28c0.009,0.075,0.021,0.141,0.035,0.193s0.033,0.097,0.053,0.134c0.022,0.036,0.052,0.072,0.087,0.109
		c0.039,0.037,0.133,0.096,0.28,0.177c0.15,0.082,0.339,0.161,0.565,0.238s0.484,0.144,0.772,0.197
		c0.29,0.055,0.603,0.083,0.936,0.083c0.548,0,1.04-0.072,1.475-0.215c0.438-0.146,0.803-0.351,1.101-0.615s0.526-0.583,0.685-0.955
		c0.16-0.373,0.24-0.793,0.24-1.257c0-0.319-0.06-0.617-0.179-0.896C409.988,111.944,409.825,111.7,409.617,111.49z"/>
	<rect x="449.939" y="46.352" width="0.199" height="3.153"/>
	<polygon points="441.367,112.32 444,112.32 449.394,112.32 449.394,111.36 444,111.36 441.367,111.36 	"/>
	<path d="M458.59,115.062c-0.029-0.045-0.063-0.077-0.104-0.099c-0.04-0.021-0.082-0.033-0.125-0.033h-4.331l1.598-1.673
		c0.577-0.595,1.032-1.116,1.368-1.564c0.335-0.448,0.591-0.854,0.769-1.221c0.18-0.365,0.296-0.707,0.352-1.021
		c0.054-0.315,0.082-0.632,0.082-0.95c0-0.353-0.06-0.686-0.179-0.998c-0.117-0.311-0.297-0.585-0.536-0.822
		c-0.238-0.236-0.538-0.423-0.9-0.557c-0.36-0.136-0.782-0.203-1.265-0.203c-0.304,0-0.594,0.03-0.867,0.09
		c-0.276,0.059-0.527,0.131-0.755,0.217c-0.229,0.085-0.419,0.174-0.57,0.264c-0.152,0.088-0.259,0.158-0.32,0.21
		s-0.104,0.095-0.125,0.13c-0.021,0.033-0.037,0.07-0.05,0.11c-0.012,0.04-0.021,0.087-0.026,0.14
		c-0.005,0.053-0.007,0.118-0.007,0.192c0,0.104,0.005,0.192,0.016,0.268c0.01,0.073,0.023,0.132,0.042,0.178
		c0.019,0.043,0.042,0.075,0.069,0.094c0.031,0.02,0.063,0.028,0.099,0.028c0.062,0,0.158-0.042,0.285-0.125
		c0.127-0.085,0.284-0.177,0.475-0.274c0.19-0.099,0.411-0.189,0.663-0.272c0.251-0.086,0.535-0.128,0.852-0.128
		c0.271,0,0.51,0.044,0.718,0.132c0.209,0.089,0.381,0.208,0.518,0.358c0.137,0.149,0.242,0.323,0.314,0.521
		c0.073,0.199,0.11,0.409,0.11,0.631s-0.022,0.459-0.069,0.712c-0.048,0.254-0.145,0.535-0.294,0.846
		c-0.147,0.308-0.358,0.651-0.632,1.029c-0.271,0.378-0.633,0.805-1.085,1.282l-1.955,2.08c-0.062,0.069-0.112,0.131-0.146,0.188
		c-0.034,0.057-0.062,0.112-0.085,0.17c-0.022,0.057-0.036,0.122-0.043,0.194c-0.007,0.073-0.01,0.16-0.01,0.261
		c0,0.107,0.009,0.199,0.026,0.274c0.02,0.073,0.047,0.13,0.085,0.17c0.039,0.038,0.085,0.067,0.139,0.085
		c0.055,0.018,0.117,0.025,0.189,0.025h5.505c0.047,0,0.089-0.011,0.128-0.032s0.07-0.056,0.092-0.103
		c0.023-0.047,0.042-0.104,0.056-0.173c0.013-0.068,0.02-0.146,0.02-0.232c0-0.088-0.008-0.166-0.022-0.233
		C458.641,115.161,458.62,115.106,458.59,115.062z"/>
	<rect x="498.334" y="46.352" width="0.199" height="3.153"/>
	<rect x="489.762" y="111.36" width="8.027" height="0.96"/>
	<path d="M506.999,115.067c-0.023-0.044-0.053-0.079-0.09-0.103c-0.035-0.022-0.073-0.035-0.115-0.035h-1.802v-8.8
		c0-0.032-0.007-0.061-0.023-0.087c-0.014-0.027-0.045-0.05-0.092-0.068c-0.045-0.018-0.109-0.031-0.193-0.04
		c-0.08-0.01-0.185-0.015-0.31-0.015c-0.091,0-0.168,0-0.23,0c-0.061,0-0.114,0.006-0.161,0.019
		c-0.048,0.01-0.086,0.019-0.115,0.029c-0.03,0.009-0.057,0.022-0.078,0.037l-2.292,1.479c-0.043,0.029-0.079,0.06-0.108,0.092
		c-0.025,0.03-0.047,0.065-0.062,0.107c-0.013,0.041-0.023,0.094-0.03,0.155s-0.01,0.137-0.01,0.228
		c0,0.119,0.006,0.219,0.017,0.297c0.015,0.077,0.037,0.132,0.07,0.166c0.035,0.032,0.082,0.045,0.14,0.033
		c0.06-0.011,0.136-0.043,0.229-0.094l1.925-1.156v7.618h-2.077c-0.042,0-0.08,0.013-0.113,0.035
		c-0.032,0.023-0.062,0.059-0.085,0.103c-0.021,0.044-0.041,0.099-0.058,0.166c-0.015,0.065-0.021,0.146-0.021,0.238
		c0,0.1,0.007,0.183,0.021,0.25c0.017,0.067,0.039,0.121,0.065,0.163c0.028,0.04,0.059,0.069,0.09,0.087
		c0.032,0.02,0.064,0.028,0.101,0.028h5.204c0.036,0,0.07-0.009,0.103-0.028c0.035-0.018,0.065-0.047,0.091-0.087
		c0.026-0.042,0.047-0.096,0.062-0.163c0.016-0.067,0.023-0.15,0.023-0.25c0-0.093-0.007-0.173-0.021-0.238
		C507.04,115.166,507.023,115.111,506.999,115.067z"/>
	<path d="M549.309,107.24c-0.257-0.434-0.596-0.763-1.017-0.985c-0.42-0.223-0.94-0.335-1.56-0.335
		c-0.647,0-1.192,0.124-1.636,0.373c-0.443,0.248-0.801,0.599-1.072,1.054c-0.272,0.454-0.469,0.997-0.591,1.63
		c-0.119,0.633-0.18,1.327-0.18,2.085c0,0.82,0.053,1.548,0.16,2.182c0.107,0.633,0.291,1.166,0.548,1.6
		c0.258,0.432,0.597,0.759,1.017,0.982c0.423,0.223,0.941,0.335,1.559,0.335c0.65,0,1.196-0.124,1.64-0.373
		c0.443-0.248,0.802-0.599,1.077-1.052c0.275-0.455,0.471-0.998,0.588-1.627c0.118-0.632,0.177-1.327,0.177-2.092
		c0-0.818-0.054-1.546-0.161-2.179C549.75,108.204,549.567,107.672,549.309,107.24z M548.694,112.177
		c0,0.342-0.031,0.66-0.093,0.953s-0.145,0.562-0.248,0.803c-0.102,0.241-0.231,0.449-0.39,0.622
		c-0.157,0.172-0.344,0.305-0.562,0.398c-0.218,0.091-0.471,0.137-0.759,0.137c-0.369,0-0.685-0.074-0.944-0.222
		c-0.26-0.15-0.474-0.391-0.641-0.718c-0.167-0.33-0.287-0.757-0.364-1.277c-0.077-0.524-0.115-1.157-0.115-1.901
		c0-0.556,0.028-1.075,0.083-1.56c0.055-0.483,0.16-0.905,0.314-1.264c0.155-0.361,0.365-0.644,0.633-0.849
		c0.267-0.207,0.615-0.31,1.048-0.31c0.243,0,0.461,0.032,0.655,0.098c0.192,0.065,0.364,0.168,0.517,0.31
		c0.152,0.14,0.282,0.319,0.39,0.537c0.11,0.219,0.199,0.479,0.269,0.783c0.067,0.304,0.12,0.653,0.154,1.049
		c0.035,0.397,0.053,0.845,0.053,1.342C548.694,111.479,548.694,111.836,548.694,112.177z"/>
	<polygon points="498.533,49.505 498.334,49.505 497.224,49.505 460.463,49.505 456.862,49.505 450.139,49.505 449.939,49.505 
		444,49.505 401.743,49.505 401.544,49.505 353.349,49.505 353.149,49.505 304.953,49.505 304.754,49.505 256.558,49.505 
		256.358,49.505 208.163,49.505 207.963,49.505 159.768,49.505 159.568,49.505 111.373,49.505 111.173,49.505 64.088,49.505 
		62.978,49.505 62.878,49.505 62.878,49.705 62.978,49.705 64.088,49.705 111.173,49.705 111.373,49.705 159.568,49.705 
		159.768,49.705 207.963,49.705 208.163,49.705 256.358,49.705 256.558,49.705 304.754,49.705 304.953,49.705 353.149,49.705 
		353.349,49.705 401.544,49.705 401.743,49.705 444,49.705 449.939,49.705 450.139,49.705 457.153,49.705 460.741,49.705 
		497.224,49.705 499.644,49.705 546.729,49.705 546.729,49.605 546.729,49.505 499.644,49.505 	"/>
	<polygon points="546.729,1.31 546.729,46.352 546.729,49.505 546.729,49.605 546.729,49.705 546.729,97.9 546.729,98 546.829,98 
		546.929,98 546.929,49.605 546.929,46.352 546.929,1.21 546.829,1.21 546.729,1.21 	"/>
</g>
</svg>
