<?xml version="1.0" encoding="utf-8"?>
<!-- Generator: Adobe Illustrator 15.1.0, SVG Export Plug-In . SVG Version: 6.00 Build 0)  -->
<!DOCTYPE svg PUBLIC "-//W3C//DTD SVG 1.1 Tiny//EN" "http://www.w3.org/Graphics/SVG/1.1/DTD/svg11-tiny.dtd">
<svg version="1.1" baseProfile="tiny" id="Layer_1" xmlns="http://www.w3.org/2000/svg" xmlns:xlink="http://www.w3.org/1999/xlink"
	 x="0px" y="0px" width="600px" height="120px" viewBox="0 0 600 120" overflow="inherit" xml:space="preserve">
<g>
	<g>
		<g>
		</g>
		<g>
		</g>
	</g>
	<g>
	</g>
</g>
<g>
	<polygon fill="none" points="500.321,49.441 500.441,49.505 546.729,49.505 546.729,46.352 546.729,1.31 499.644,1.31 
		499.644,49.118 	"/>
	<polygon fill="none" points="457.428,34.173 467.81,36.933 480.413,40.948 482.792,41.806 490.145,44.702 492.728,45.816 
		497.224,47.962 497.224,1.31 450.139,1.31 450.139,32.498 	"/>
	<polygon fill="none" points="536.097,93.19 526.577,89.104 516.379,85.111 506.98,81.741 499.644,79.316 499.644,97.9 
		545.629,97.9 545.485,97.625 541.406,95.639 	"/>
	<polygon fill="none" points="444,48.426 444,49.505 448.553,49.505 447.591,49.258 	"/>
	<polygon fill="none" points="502.733,50.716 508.765,54.209 509.947,54.952 514.693,58.145 518.358,60.878 519.643,61.896 
		523.512,65.181 524.798,66.353 528.582,70.053 529.78,71.312 533.392,75.396 534.591,76.857 538.34,81.813 539.678,83.739 
		543.034,88.997 545.714,93.691 546.729,95.656 546.729,49.705 500.82,49.705 	"/>
	<polygon fill="none" points="507.171,69.589 516.589,74.67 527.413,81.524 529.2,82.781 531.585,84.518 537.687,89.321 
		539.018,90.442 543.011,93.986 544.156,95.089 543.297,93.447 540.661,88.945 538.017,84.853 535.396,81.164 533.027,78.104 
		530.681,75.298 525.971,70.253 520.919,65.565 515.873,61.492 511.209,58.167 506.548,55.199 501.771,52.468 499.644,51.373 
		499.644,66.056 	"/>
	<polygon fill="none" points="486.818,45.496 482.095,43.681 477.393,42.019 467.255,38.854 456.947,36.114 450.139,34.549 
		450.139,46.352 450.139,49.395 450.566,49.505 495.911,49.505 491.909,47.64 	"/>
	<polygon fill="none" points="447.851,31.972 449.939,32.452 449.939,1.31 444,1.31 444,31.197 	"/>
	<polygon fill="none" points="447.708,58.473 449.939,59.02 449.939,49.86 449.334,49.705 444,49.705 444,57.636 	"/>
	<polygon fill="none" points="467.621,54.179 477.79,57.44 487.277,60.863 497.224,64.939 497.224,50.126 497.031,50.027 
		496.341,49.705 451.348,49.705 457.267,51.223 	"/>
	<polygon fill="none" points="457.264,60.812 467.617,63.574 477.784,66.544 487.269,69.58 497.224,73.092 497.224,65.48 
		487.098,61.33 477.629,57.914 467.477,54.657 457.136,51.705 450.139,49.912 450.139,59.068 	"/>
	<polygon fill="none" points="449.939,34.503 447.43,33.927 444,33.237 444,47.912 447.71,48.772 449.939,49.344 449.939,46.352 	
		"/>
	<polygon fill="none" points="507.155,76.958 516.569,81.031 526.785,85.978 537.653,91.956 538.984,92.747 544.887,96.482 
		544.862,96.436 543.998,95.594 541.347,93.147 538.691,90.822 536.042,88.616 531.284,84.917 526.535,81.527 516.337,75.102 
		506.945,70.035 499.644,66.607 499.644,74.024 	"/>
	<polygon fill="none" points="447.705,64.967 449.939,65.472 449.939,59.534 447.594,58.959 444,58.148 444,64.184 	"/>
	<polygon fill="none" points="487.119,75.443 477.646,72.775 467.489,70.121 457.146,67.612 450.139,66.029 450.139,97.9 
		497.224,97.9 497.224,78.521 	"/>
	<polygon fill="none" points="457.259,67.125 467.611,69.636 477.777,72.293 487.26,74.964 497.224,77.999 497.224,73.621 
		487.109,70.054 477.638,67.022 467.482,64.056 457.14,61.297 450.139,59.583 450.139,65.517 	"/>
	<polygon fill="none" points="507.143,81.269 516.554,84.644 526.767,88.642 537.631,93.334 542.95,95.821 543.209,95.948 
		541.382,94.795 536.074,91.614 526.556,86.422 516.36,81.485 506.965,77.42 499.644,74.561 499.644,78.79 	"/>
	<polygon fill="none" points="447.599,65.455 444,64.694 444,97.9 449.939,97.9 449.939,65.984 	"/>
	<path fill="none" d="M548.487,108.718c-0.069-0.304-0.158-0.564-0.269-0.783c-0.107-0.218-0.237-0.397-0.39-0.537
		c-0.152-0.142-0.324-0.244-0.517-0.31c-0.194-0.065-0.412-0.098-0.655-0.098c-0.433,0-0.781,0.103-1.048,0.31
		c-0.268,0.205-0.478,0.487-0.633,0.849c-0.154,0.358-0.26,0.78-0.314,1.264c-0.055,0.484-0.083,1.004-0.083,1.56
		c0,0.744,0.038,1.377,0.115,1.901c0.077,0.521,0.197,0.947,0.364,1.277c0.167,0.327,0.381,0.567,0.641,0.718
		c0.26,0.147,0.575,0.222,0.944,0.222c0.288,0,0.541-0.046,0.759-0.137c0.218-0.094,0.404-0.227,0.562-0.398
		c0.158-0.173,0.288-0.381,0.39-0.622c0.104-0.241,0.187-0.51,0.248-0.803s0.093-0.611,0.093-0.953c0-0.341,0-0.698,0-1.068
		c0-0.497-0.018-0.944-0.053-1.342C548.607,109.371,548.555,109.021,548.487,108.718z"/>
	<path fill="none" d="M444,0v1.11h102.829v0.1h0.1v45.142v3.253v46.437l1.242,2.403l-1.787,0.896l-0.65-1.242H444v13.261h5.394v0.96
		H444V120h156V0H444z M458.657,115.692c-0.014,0.068-0.032,0.126-0.056,0.173c-0.021,0.047-0.053,0.081-0.092,0.103
		S458.429,116,458.382,116h-5.505c-0.072,0-0.135-0.008-0.189-0.025c-0.054-0.018-0.1-0.047-0.139-0.085
		c-0.038-0.04-0.065-0.097-0.085-0.17c-0.018-0.075-0.026-0.167-0.026-0.274c0-0.101,0.003-0.188,0.01-0.261
		c0.007-0.072,0.021-0.138,0.043-0.194c0.022-0.058,0.051-0.113,0.085-0.17c0.034-0.058,0.084-0.119,0.146-0.188l1.955-2.08
		c0.452-0.478,0.813-0.904,1.085-1.282c0.273-0.378,0.484-0.722,0.632-1.029c0.149-0.311,0.246-0.592,0.294-0.846
		c0.047-0.253,0.069-0.49,0.069-0.712s-0.037-0.432-0.11-0.631c-0.072-0.198-0.178-0.372-0.314-0.521
		c-0.137-0.15-0.309-0.27-0.518-0.358c-0.208-0.088-0.447-0.132-0.718-0.132c-0.316,0-0.601,0.042-0.852,0.128
		c-0.252,0.083-0.473,0.174-0.663,0.272c-0.19,0.098-0.348,0.189-0.475,0.274c-0.127,0.083-0.223,0.125-0.285,0.125
		c-0.035,0-0.067-0.009-0.099-0.028c-0.027-0.019-0.051-0.051-0.069-0.094c-0.019-0.046-0.032-0.104-0.042-0.178
		c-0.011-0.075-0.016-0.164-0.016-0.268c0-0.074,0.002-0.14,0.007-0.192c0.006-0.053,0.015-0.1,0.026-0.14
		c0.013-0.04,0.029-0.077,0.05-0.11c0.021-0.035,0.063-0.078,0.125-0.13s0.168-0.122,0.32-0.21c0.151-0.09,0.341-0.179,0.57-0.264
		c0.228-0.086,0.479-0.158,0.755-0.217c0.273-0.06,0.563-0.09,0.867-0.09c0.482,0,0.904,0.067,1.265,0.203
		c0.362,0.134,0.662,0.32,0.9,0.557c0.239,0.237,0.419,0.512,0.536,0.822c0.119,0.312,0.179,0.646,0.179,0.998
		c0,0.318-0.028,0.635-0.082,0.95c-0.056,0.314-0.172,0.656-0.352,1.021c-0.178,0.366-0.434,0.772-0.769,1.221
		c-0.336,0.448-0.791,0.97-1.368,1.564l-1.598,1.673h4.331c0.043,0,0.085,0.012,0.125,0.033c0.041,0.021,0.075,0.054,0.104,0.099
		c0.03,0.045,0.051,0.1,0.064,0.165c0.015,0.067,0.022,0.146,0.022,0.233C458.677,115.547,458.67,115.624,458.657,115.692z
		 M497.789,112.32h-8.027v-0.96h8.027V112.32z M507.049,115.722c-0.015,0.067-0.035,0.121-0.062,0.163
		c-0.025,0.04-0.056,0.069-0.091,0.087c-0.032,0.02-0.066,0.028-0.103,0.028h-5.204c-0.036,0-0.068-0.009-0.101-0.028
		c-0.031-0.018-0.062-0.047-0.09-0.087c-0.026-0.042-0.049-0.096-0.065-0.163c-0.015-0.067-0.021-0.15-0.021-0.25
		c0-0.093,0.007-0.173,0.021-0.238c0.017-0.067,0.036-0.122,0.058-0.166c0.023-0.044,0.053-0.079,0.085-0.103
		c0.033-0.022,0.071-0.035,0.113-0.035h2.077v-7.618l-1.925,1.156c-0.093,0.051-0.169,0.083-0.229,0.094
		c-0.058,0.012-0.104-0.001-0.14-0.033c-0.033-0.034-0.056-0.089-0.07-0.166c-0.011-0.078-0.017-0.178-0.017-0.297
		c0-0.091,0.003-0.166,0.01-0.228s0.018-0.114,0.03-0.155c0.015-0.042,0.036-0.077,0.062-0.107c0.029-0.032,0.065-0.062,0.108-0.092
		l2.292-1.479c0.021-0.015,0.048-0.028,0.078-0.037c0.029-0.011,0.067-0.02,0.115-0.029c0.047-0.013,0.101-0.019,0.161-0.019
		c0.062,0,0.14,0,0.23,0c0.125,0,0.229,0.005,0.31,0.015c0.084,0.009,0.148,0.022,0.193,0.04c0.047,0.019,0.078,0.041,0.092,0.068
		c0.017,0.026,0.023,0.055,0.023,0.087v8.8h1.802c0.042,0,0.08,0.013,0.115,0.035c0.037,0.023,0.066,0.059,0.09,0.103
		c0.024,0.044,0.041,0.099,0.053,0.166c0.014,0.065,0.021,0.146,0.021,0.238C507.072,115.571,507.064,115.654,507.049,115.722z
		 M549.842,113.108c-0.117,0.629-0.312,1.172-0.588,1.627c-0.275,0.453-0.634,0.804-1.077,1.052
		c-0.443,0.249-0.989,0.373-1.64,0.373c-0.617,0-1.136-0.112-1.559-0.335c-0.42-0.224-0.759-0.551-1.017-0.982
		c-0.257-0.434-0.44-0.967-0.548-1.6c-0.107-0.634-0.16-1.361-0.16-2.182c0-0.758,0.061-1.452,0.18-2.085
		c0.122-0.633,0.318-1.176,0.591-1.63c0.271-0.455,0.629-0.806,1.072-1.054c0.443-0.249,0.988-0.373,1.636-0.373
		c0.619,0,1.14,0.112,1.56,0.335c0.421,0.223,0.76,0.552,1.017,0.985c0.259,0.432,0.441,0.964,0.549,1.598
		c0.107,0.633,0.161,1.36,0.161,2.179C550.019,111.781,549.96,112.477,549.842,113.108z"/>
	<polygon fill="#FFFFFF" points="64.088,11.035 64.088,17.128 101.727,18.248 111.173,18.567 111.173,11.948 	"/>
	<rect x="208.163" y="49.705" fill="#FFFFFF" width="48.195" height="48.195"/>
	<polygon fill="#FFFFFF" points="141.962,12.544 111.373,11.952 111.373,18.574 131.841,19.265 159.568,20.318 159.568,12.994 	"/>
	<polygon fill="#FFFFFF" points="200.42,22.598 180.706,21.698 161.719,20.901 159.768,20.827 159.768,27.371 171.33,27.949 
		190.93,29.003 207.963,29.997 207.963,22.975 	"/>
	<polygon fill="#FFFFFF" points="190.887,13.794 159.768,13 159.768,20.326 161.739,20.401 180.728,21.199 200.444,22.099 
		207.963,22.475 207.963,14.337 	"/>
	<polygon fill="#FFFFFF" points="401.544,40.176 398.514,39.685 388.329,38.159 378.942,36.857 369.367,35.621 359.107,34.389 
		353.349,33.744 353.349,42.459 359.168,43.177 369.432,44.52 379.011,45.854 388.402,47.241 398.593,48.848 401.544,49.346 
		401.544,46.352 	"/>
	<polygon fill="#FFFFFF" points="349.649,33.33 339.507,32.267 329.177,31.255 319.646,30.378 309.431,29.494 304.953,29.128 
		304.953,37.27 309.476,37.693 319.692,38.701 329.227,39.693 339.561,40.829 349.706,42.01 353.149,42.435 353.149,33.722 	"/>
	<polygon fill="#FFFFFF" points="300.015,28.725 290.411,27.984 280.124,27.233 270.636,26.578 260.465,25.912 256.558,25.674 
		256.558,33.234 260.5,33.524 270.672,34.311 280.162,35.079 290.451,35.954 300.058,36.811 304.754,37.251 304.754,29.112 	"/>
	<polygon fill="#FFFFFF" points="240.546,24.703 220.861,23.621 208.163,22.985 208.163,30.008 210.762,30.16 230.334,31.397 
		250.14,32.762 256.358,33.22 256.358,25.662 	"/>
	<rect x="111.373" y="49.705" fill="#FFFFFF" width="48.195" height="48.195"/>
	<polygon fill="#FFFFFF" points="437.364,46.887 427.936,44.9 418.317,43.045 408.016,41.226 401.743,40.208 401.743,46.352 
		401.743,49.379 402.487,49.505 444,49.505 444,48.426 	"/>
	<path fill="#FFFFFF" d="M263.701,111.422c-0.14-0.173-0.327-0.306-0.56-0.398c-0.233-0.097-0.523-0.144-0.868-0.144
		c-0.191,0-0.384,0.019-0.577,0.053c-0.192,0.033-0.377,0.08-0.555,0.141c-0.178,0.059-0.35,0.13-0.515,0.212
		c-0.163,0.08-0.312,0.167-0.445,0.26c0,0.673,0.043,1.237,0.127,1.692c0.087,0.454,0.212,0.816,0.375,1.091
		c0.164,0.272,0.367,0.469,0.61,0.587c0.244,0.117,0.53,0.175,0.858,0.175c0.332,0,0.619-0.062,0.862-0.187
		c0.245-0.125,0.448-0.294,0.608-0.505c0.162-0.213,0.28-0.449,0.355-0.71c0.077-0.265,0.115-0.535,0.115-0.813
		c0-0.303-0.03-0.578-0.09-0.825C263.943,111.803,263.843,111.594,263.701,111.422z"/>
	<polygon fill="#FFFFFF" points="437.369,63.293 427.938,61.427 418.319,59.636 408.017,57.832 401.743,56.798 401.743,97.9 
		444,97.9 444,64.694 	"/>
	<polygon fill="#FFFFFF" points="356.362,112.53 359.602,112.53 359.602,107.04 359.587,107.04 	"/>
	<polygon fill="#FFFFFF" points="437.224,31.874 427.812,30.204 418.209,28.683 407.92,27.227 401.743,26.441 401.743,39.702 
		408.1,40.733 418.409,42.554 428.034,44.41 437.473,46.398 444,47.912 444,33.237 	"/>
	<polygon fill="#FFFFFF" points="398.428,26.019 388.252,24.848 378.872,23.866 369.304,22.948 359.05,22.047 353.349,21.586 
		353.349,33.241 359.165,33.893 369.43,35.125 379.009,36.362 388.4,37.665 398.591,39.191 401.544,39.67 401.544,26.416 	"/>
	<polygon fill="#FFFFFF" points="418.41,52.316 428.035,54.188 437.472,56.161 444,57.636 444,49.705 403.675,49.705 
		408.102,50.452 	"/>
	<rect x="256.558" y="49.705" fill="#FFFFFF" width="48.196" height="48.195"/>
	<path fill="#FFFFFF" d="M441.367,112.32v-0.96H444V98.1H62.878V98h-0.1h-1.11V1.21h1.11h0.1v-0.1H444V0H0v120h444v-7.68H441.367z
		 M58.178,112.32h-8.027v-0.96h8.027V112.32z M67.439,115.722c-0.015,0.067-0.036,0.121-0.063,0.163
		c-0.025,0.04-0.055,0.069-0.09,0.087c-0.033,0.02-0.067,0.028-0.102,0.028h-5.206c-0.034,0-0.068-0.009-0.099-0.028
		c-0.032-0.018-0.062-0.047-0.091-0.087c-0.026-0.042-0.048-0.096-0.064-0.163c-0.015-0.067-0.023-0.15-0.023-0.25
		c0-0.093,0.008-0.173,0.023-0.238c0.016-0.067,0.035-0.122,0.057-0.166c0.023-0.044,0.052-0.079,0.085-0.103
		c0.033-0.022,0.071-0.035,0.112-0.035h2.078v-7.618l-1.925,1.156c-0.093,0.051-0.169,0.083-0.227,0.094
		c-0.059,0.012-0.105-0.001-0.141-0.033c-0.033-0.034-0.056-0.089-0.069-0.166c-0.012-0.078-0.018-0.178-0.018-0.297
		c0-0.091,0.003-0.166,0.01-0.228s0.017-0.114,0.03-0.155c0.015-0.042,0.036-0.077,0.063-0.107c0.028-0.032,0.064-0.062,0.107-0.092
		l2.292-1.479c0.022-0.015,0.048-0.028,0.078-0.037c0.03-0.011,0.068-0.02,0.115-0.029c0.047-0.013,0.101-0.019,0.163-0.019
		c0.061,0,0.138,0,0.229,0c0.125,0,0.229,0.005,0.31,0.015c0.084,0.009,0.148,0.022,0.193,0.04c0.047,0.019,0.078,0.041,0.092,0.068
		c0.016,0.026,0.023,0.055,0.023,0.087v8.8h1.803c0.041,0,0.079,0.013,0.115,0.035c0.036,0.023,0.066,0.059,0.089,0.103
		c0.024,0.044,0.041,0.099,0.053,0.166c0.013,0.065,0.02,0.146,0.02,0.238C67.461,115.571,67.454,115.654,67.439,115.722z
		 M75.601,113.108c-0.117,0.629-0.313,1.172-0.588,1.627c-0.275,0.453-0.634,0.804-1.078,1.052
		c-0.443,0.249-0.989,0.373-1.639,0.373c-0.617,0-1.136-0.112-1.558-0.335c-0.42-0.224-0.759-0.551-1.017-0.982
		c-0.257-0.434-0.44-0.967-0.548-1.6c-0.107-0.634-0.16-1.361-0.16-2.182c0-0.758,0.06-1.452,0.18-2.085
		c0.122-0.633,0.318-1.176,0.59-1.63c0.272-0.455,0.629-0.806,1.073-1.054c0.443-0.249,0.988-0.373,1.634-0.373
		c0.621,0,1.14,0.112,1.56,0.335c0.422,0.223,0.761,0.552,1.018,0.985c0.258,0.432,0.441,0.964,0.547,1.598
		c0.109,0.633,0.163,1.36,0.163,2.179C75.778,111.781,75.719,112.477,75.601,113.108z M110.629,112.32h-8.028v-0.96h8.028V112.32z
		 M119.994,111.955c-0.05,0.439-0.137,0.864-0.261,1.271c-0.121,0.407-0.285,0.789-0.492,1.146
		c-0.207,0.354-0.467,0.666-0.782,0.935c-0.314,0.267-0.686,0.476-1.118,0.627c-0.43,0.15-0.931,0.226-1.502,0.226
		c-0.22,0-0.434-0.014-0.64-0.042c-0.207-0.029-0.394-0.064-0.56-0.106c-0.165-0.04-0.305-0.083-0.418-0.13
		c-0.112-0.046-0.193-0.092-0.245-0.137c-0.05-0.047-0.087-0.11-0.11-0.19c-0.023-0.08-0.035-0.186-0.035-0.317
		c0-0.113,0.004-0.203,0.013-0.27c0.008-0.066,0.019-0.119,0.032-0.156c0.015-0.035,0.036-0.06,0.063-0.071
		c0.026-0.014,0.059-0.021,0.097-0.021c0.053,0,0.129,0.02,0.228,0.059c0.098,0.038,0.225,0.08,0.382,0.127
		c0.157,0.045,0.34,0.088,0.55,0.127c0.212,0.039,0.449,0.058,0.713,0.058c0.498,0,0.925-0.097,1.282-0.29
		c0.357-0.194,0.648-0.455,0.875-0.78c0.227-0.324,0.397-0.7,0.51-1.128c0.113-0.428,0.17-0.88,0.17-1.356
		c-0.268,0.163-0.592,0.308-0.972,0.435s-0.817,0.19-1.31,0.19c-0.555,0-1.022-0.075-1.4-0.226c-0.377-0.151-0.68-0.356-0.908-0.617
		c-0.228-0.262-0.393-0.571-0.495-0.93c-0.1-0.358-0.15-0.75-0.15-1.175c0-0.439,0.064-0.859,0.193-1.256
		c0.128-0.396,0.328-0.745,0.599-1.047c0.274-0.302,0.62-0.542,1.041-0.72c0.421-0.181,0.925-0.271,1.509-0.271
		c0.416,0,0.783,0.052,1.103,0.158c0.322,0.104,0.601,0.256,0.837,0.454c0.237,0.196,0.437,0.436,0.601,0.716
		c0.165,0.278,0.297,0.594,0.397,0.947c0.1,0.353,0.172,0.736,0.215,1.149c0.043,0.412,0.065,0.847,0.065,1.304
		C120.071,111.079,120.045,111.515,119.994,111.955z M159.024,112.32h-8.028v-0.96h8.028V112.32z M168.394,114.61
		c-0.154,0.335-0.375,0.617-0.665,0.85c-0.29,0.23-0.65,0.404-1.078,0.523c-0.427,0.117-0.914,0.177-1.462,0.177
		c-0.514,0-0.974-0.053-1.38-0.16c-0.405-0.108-0.75-0.267-1.033-0.477c-0.282-0.213-0.497-0.472-0.647-0.778
		c-0.149-0.309-0.223-0.66-0.223-1.055c0-0.313,0.051-0.601,0.153-0.86c0.101-0.262,0.247-0.502,0.437-0.722
		c0.19-0.223,0.424-0.43,0.703-0.621c0.28-0.191,0.593-0.374,0.94-0.547c-0.302-0.157-0.571-0.323-0.808-0.5
		c-0.237-0.178-0.437-0.368-0.602-0.575c-0.165-0.208-0.29-0.432-0.375-0.667c-0.085-0.237-0.128-0.494-0.128-0.771
		c0-0.348,0.062-0.675,0.187-0.979c0.125-0.307,0.314-0.571,0.566-0.795c0.251-0.228,0.572-0.405,0.962-0.535
		c0.39-0.132,0.844-0.198,1.363-0.198c0.498,0,0.929,0.062,1.292,0.182c0.365,0.12,0.666,0.285,0.903,0.493
		c0.236,0.207,0.41,0.451,0.522,0.733c0.113,0.281,0.17,0.584,0.17,0.907c0,0.263-0.042,0.516-0.127,0.758
		c-0.085,0.24-0.211,0.468-0.378,0.684c-0.165,0.215-0.368,0.416-0.61,0.604c-0.24,0.187-0.511,0.361-0.812,0.524
		c0.356,0.178,0.685,0.36,0.985,0.551c0.301,0.188,0.553,0.392,0.755,0.609c0.203,0.218,0.357,0.449,0.462,0.692
		c0.107,0.244,0.16,0.511,0.16,0.803C168.626,113.892,168.549,114.275,168.394,114.61z M207.418,112.32h-8.027v-0.96h8.027V112.32z
		 M216.849,106.718c-0.007,0.071-0.017,0.142-0.03,0.209c-0.014,0.067-0.032,0.131-0.055,0.193c-0.022,0.062-0.048,0.128-0.078,0.2
		l-3.532,8.375c-0.025,0.062-0.057,0.113-0.095,0.151c-0.039,0.039-0.087,0.07-0.146,0.094c-0.056,0.022-0.13,0.038-0.222,0.047
		c-0.092,0.009-0.202,0.013-0.332,0.013c-0.172,0-0.306-0.007-0.403-0.023c-0.097-0.016-0.167-0.041-0.21-0.073
		c-0.043-0.035-0.062-0.077-0.057-0.125c0.005-0.052,0.023-0.109,0.055-0.177l3.715-8.562h-4.71c-0.095,0-0.167-0.049-0.215-0.148
		c-0.049-0.099-0.073-0.237-0.073-0.415c0-0.093,0.007-0.175,0.02-0.243c0.013-0.071,0.033-0.13,0.057-0.176
		c0.026-0.047,0.056-0.081,0.091-0.103c0.034-0.023,0.075-0.035,0.122-0.035h5.718c0.069,0,0.131,0.007,0.185,0.022
		c0.053,0.015,0.093,0.045,0.12,0.09c0.028,0.044,0.05,0.1,0.065,0.171c0.015,0.069,0.022,0.159,0.022,0.269
		C216.861,106.562,216.857,106.644,216.849,106.718z M255.813,112.32h-8.027v-0.96h8.027V112.32z M265.216,114.023
		c-0.133,0.412-0.339,0.777-0.617,1.095c-0.279,0.314-0.632,0.566-1.061,0.757c-0.426,0.19-0.93,0.285-1.512,0.285
		c-0.417,0-0.784-0.052-1.103-0.155c-0.318-0.102-0.595-0.248-0.832-0.438c-0.237-0.19-0.434-0.424-0.593-0.699
		c-0.156-0.279-0.282-0.595-0.377-0.948c-0.095-0.353-0.163-0.74-0.205-1.16c-0.04-0.42-0.06-0.872-0.06-1.354
		c0-0.425,0.023-0.855,0.07-1.29c0.047-0.438,0.129-0.858,0.247-1.264c0.119-0.403,0.28-0.784,0.483-1.142
		c0.205-0.357,0.46-0.667,0.765-0.93c0.307-0.266,0.674-0.475,1.102-0.627c0.429-0.155,0.926-0.233,1.493-0.233
		c0.192,0,0.385,0.011,0.58,0.033c0.197,0.019,0.378,0.048,0.542,0.084c0.165,0.036,0.305,0.074,0.418,0.116
		c0.113,0.041,0.188,0.074,0.225,0.102c0.037,0.025,0.062,0.053,0.08,0.085c0.018,0.03,0.032,0.063,0.043,0.099
		c0.011,0.032,0.019,0.071,0.024,0.116c0.005,0.045,0.008,0.102,0.008,0.167c0,0.084,0,0.156,0,0.219
		c0,0.06-0.009,0.108-0.027,0.147c-0.019,0.036-0.042,0.065-0.071,0.084c-0.026,0.02-0.064,0.028-0.112,0.028
		c-0.057,0-0.134-0.011-0.233-0.032c-0.098-0.021-0.217-0.046-0.357-0.073c-0.14-0.026-0.31-0.051-0.51-0.072
		s-0.433-0.032-0.698-0.032c-0.481,0-0.896,0.095-1.245,0.285c-0.348,0.189-0.633,0.444-0.855,0.765
		c-0.22,0.318-0.383,0.688-0.49,1.11c-0.105,0.422-0.157,0.861-0.157,1.319c0.13-0.078,0.278-0.156,0.445-0.234
		c0.168-0.078,0.351-0.149,0.547-0.212c0.199-0.064,0.409-0.115,0.63-0.153c0.222-0.04,0.459-0.061,0.71-0.061
		c0.54,0,0.995,0.074,1.365,0.223c0.372,0.146,0.672,0.353,0.901,0.618c0.228,0.263,0.391,0.572,0.489,0.93
		c0.099,0.354,0.148,0.742,0.148,1.16C265.416,113.182,265.349,113.609,265.216,114.023z M304.209,112.32h-8.028v-0.96h8.028V112.32
		z M313.224,114.227c-0.179,0.417-0.431,0.77-0.758,1.056c-0.327,0.287-0.716,0.505-1.168,0.656
		c-0.451,0.147-0.953,0.222-1.505,0.222c-0.306,0-0.597-0.023-0.872-0.067c-0.274-0.045-0.52-0.1-0.735-0.166
		c-0.215-0.065-0.392-0.131-0.529-0.193c-0.138-0.064-0.225-0.114-0.263-0.151c-0.038-0.036-0.064-0.07-0.079-0.102
		c-0.017-0.032-0.03-0.07-0.043-0.115c-0.014-0.045-0.021-0.103-0.021-0.17c0-0.07,0-0.152,0-0.247c0-0.089,0.003-0.169,0.01-0.241
		c0.008-0.071,0.022-0.129,0.04-0.175c0.021-0.045,0.043-0.078,0.068-0.1s0.056-0.032,0.09-0.032c0.048,0,0.124,0.035,0.227,0.106
		c0.105,0.072,0.25,0.15,0.436,0.233c0.185,0.083,0.413,0.163,0.685,0.236c0.273,0.075,0.599,0.113,0.974,0.113
		c0.348,0,0.668-0.042,0.96-0.125c0.291-0.083,0.542-0.213,0.752-0.387c0.21-0.177,0.375-0.399,0.495-0.666
		c0.12-0.266,0.18-0.591,0.18-0.974c0-0.32-0.052-0.604-0.155-0.849c-0.102-0.247-0.259-0.452-0.473-0.615
		c-0.213-0.163-0.484-0.284-0.812-0.364c-0.326-0.08-0.717-0.12-1.172-0.12c-0.32,0-0.592,0.021-0.814,0.062
		c-0.225,0.042-0.431,0.063-0.618,0.063c-0.14,0-0.24-0.033-0.3-0.099c-0.061-0.065-0.09-0.192-0.09-0.379v-4.013
		c0-0.168,0.038-0.293,0.117-0.373c0.078-0.081,0.191-0.122,0.341-0.122h4.361c0.042,0,0.081,0.011,0.117,0.032
		c0.037,0.021,0.068,0.055,0.093,0.098c0.027,0.042,0.046,0.097,0.059,0.162c0.013,0.067,0.02,0.146,0.02,0.235
		c0,0.172-0.022,0.306-0.067,0.4c-0.044,0.096-0.104,0.143-0.183,0.143h-3.738v2.768c0.186-0.032,0.372-0.048,0.561-0.048
		c0.188,0,0.406,0,0.653,0c0.569,0,1.066,0.069,1.491,0.207c0.428,0.137,0.783,0.33,1.068,0.58c0.286,0.249,0.502,0.551,0.647,0.908
		c0.146,0.354,0.22,0.749,0.22,1.182C313.491,113.332,313.402,113.809,313.224,114.227z M352.605,112.32h-8.028v-0.96h8.028V112.32z
		 M362.287,113.457c-0.052,0.095-0.124,0.143-0.217,0.143h-1.144v2.155c0,0.042-0.011,0.077-0.032,0.105
		c-0.021,0.027-0.06,0.053-0.112,0.074c-0.052,0.022-0.12,0.038-0.205,0.051c-0.083,0.01-0.192,0.015-0.325,0.015
		c-0.127,0-0.232-0.005-0.317-0.015c-0.084-0.013-0.149-0.028-0.199-0.051c-0.051-0.021-0.085-0.047-0.105-0.074
		c-0.019-0.028-0.028-0.063-0.028-0.105V113.6h-4.09c-0.062,0-0.111-0.007-0.151-0.021c-0.04-0.018-0.076-0.045-0.108-0.083
		c-0.032-0.04-0.054-0.097-0.067-0.172c-0.012-0.077-0.018-0.177-0.018-0.3c0-0.097,0-0.181,0-0.257
		c0-0.075,0.008-0.146,0.025-0.209c0.017-0.063,0.038-0.125,0.062-0.183c0.026-0.058,0.06-0.12,0.097-0.185l3.568-6.094
		c0.025-0.041,0.062-0.079,0.112-0.111c0.05-0.035,0.114-0.063,0.192-0.082c0.078-0.022,0.176-0.033,0.29-0.033
		c0.115,0,0.251,0,0.41,0c0.171,0,0.321,0.007,0.45,0.02c0.128,0.013,0.231,0.028,0.31,0.049c0.078,0.018,0.139,0.043,0.181,0.074
		c0.041,0.03,0.062,0.069,0.062,0.117v6.4h1.144c0.088,0,0.16,0.044,0.215,0.132c0.055,0.087,0.082,0.221,0.082,0.403
		C362.367,113.23,362.34,113.361,362.287,113.457z M400.999,112.32h-8.027v-0.96h8.027V112.32z M410.042,114.375
		c-0.158,0.372-0.387,0.69-0.685,0.955s-0.663,0.47-1.101,0.615c-0.435,0.143-0.927,0.215-1.475,0.215
		c-0.333,0-0.646-0.028-0.936-0.083c-0.288-0.054-0.546-0.12-0.772-0.197s-0.415-0.156-0.565-0.238
		c-0.147-0.081-0.241-0.14-0.28-0.177c-0.035-0.037-0.064-0.073-0.087-0.109c-0.02-0.037-0.038-0.081-0.053-0.134
		s-0.026-0.118-0.035-0.193c-0.008-0.077-0.012-0.17-0.012-0.28c0-0.19,0.021-0.322,0.062-0.396
		c0.043-0.073,0.102-0.111,0.179-0.111c0.053,0,0.139,0.045,0.257,0.135c0.12,0.09,0.288,0.187,0.503,0.29
		c0.215,0.103,0.467,0.2,0.755,0.29s0.608,0.135,0.96,0.135c0.343,0,0.645-0.045,0.902-0.135c0.26-0.09,0.478-0.217,0.653-0.38
		c0.177-0.163,0.309-0.357,0.396-0.58c0.089-0.226,0.133-0.469,0.133-0.732c0-0.289-0.058-0.549-0.175-0.779
		c-0.117-0.232-0.287-0.433-0.51-0.602c-0.224-0.169-0.498-0.299-0.825-0.387c-0.327-0.09-0.686-0.135-1.078-0.135h-0.939
		c-0.04,0-0.079-0.01-0.117-0.028c-0.038-0.018-0.072-0.048-0.101-0.089c-0.027-0.044-0.052-0.1-0.069-0.165
		c-0.018-0.069-0.025-0.158-0.025-0.269c0-0.1,0.007-0.183,0.022-0.248c0.015-0.065,0.036-0.118,0.064-0.156
		c0.029-0.04,0.061-0.069,0.095-0.088c0.037-0.019,0.078-0.027,0.123-0.027h0.865c0.335,0,0.638-0.042,0.91-0.128
		c0.273-0.084,0.504-0.207,0.692-0.367s0.334-0.351,0.435-0.573c0.102-0.223,0.153-0.472,0.153-0.747
		c0-0.199-0.033-0.391-0.101-0.571c-0.066-0.185-0.167-0.343-0.3-0.477s-0.304-0.241-0.513-0.318
		c-0.206-0.079-0.445-0.118-0.717-0.118c-0.299,0-0.572,0.046-0.82,0.137s-0.47,0.188-0.665,0.291
		c-0.195,0.101-0.349,0.197-0.463,0.287c-0.111,0.09-0.19,0.135-0.235,0.135c-0.031,0-0.06-0.007-0.085-0.02
		c-0.024-0.014-0.045-0.038-0.06-0.075c-0.016-0.038-0.025-0.092-0.032-0.16s-0.01-0.158-0.01-0.27c0-0.077,0.002-0.145,0.007-0.203
		s0.015-0.109,0.028-0.152c0.015-0.043,0.031-0.083,0.052-0.117c0.021-0.035,0.056-0.077,0.103-0.125
		c0.047-0.049,0.143-0.119,0.285-0.211c0.146-0.091,0.322-0.181,0.532-0.27c0.212-0.09,0.455-0.164,0.729-0.225
		c0.277-0.062,0.575-0.093,0.894-0.093c0.445,0,0.837,0.058,1.175,0.175c0.338,0.115,0.621,0.278,0.847,0.49
		c0.228,0.21,0.396,0.462,0.505,0.755c0.112,0.293,0.169,0.618,0.169,0.976c0,0.305-0.038,0.59-0.115,0.854
		c-0.077,0.263-0.189,0.497-0.338,0.7s-0.33,0.377-0.547,0.52c-0.218,0.144-0.485,0.243-0.806,0.301v0.017
		c0.37,0.037,0.699,0.125,0.987,0.263c0.29,0.138,0.54,0.311,0.748,0.521s0.371,0.454,0.486,0.731
		c0.119,0.279,0.179,0.577,0.179,0.896C410.282,113.582,410.202,114.002,410.042,114.375z"/>
	<rect x="64.088" y="49.705" fill="#FFFFFF" width="47.085" height="48.195"/>
	<polygon fill="#FFFFFF" points="398.513,56.266 388.328,54.679 378.94,53.297 369.365,51.959 359.104,50.601 353.349,49.877 
		353.349,97.9 401.544,97.9 401.544,56.765 	"/>
	<polygon fill="#FFFFFF" points="230.282,15.046 208.163,14.343 208.163,22.485 220.887,23.122 240.575,24.204 250.137,24.769 
		256.358,25.155 256.358,16.046 	"/>
	<polygon fill="#FFFFFF" points="299.979,18.077 280.093,17.075 260.439,16.202 256.558,16.053 256.558,25.168 260.498,25.413 
		270.669,26.079 280.159,26.734 290.448,27.485 300.055,28.227 304.754,28.611 304.754,18.352 	"/>
	<polygon fill="#FFFFFF" points="369.433,51.464 379.011,52.802 388.402,54.185 398.592,55.772 401.544,56.259 401.544,49.853 
		400.666,49.705 355.988,49.705 359.169,50.105 	"/>
	<polygon fill="#FFFFFF" points="349.597,21.283 339.459,20.527 319.604,19.207 304.953,18.363 304.953,28.627 309.473,28.996 
		319.689,29.88 329.224,30.757 339.558,31.769 349.703,32.833 353.149,33.219 353.149,21.57 	"/>
	<polygon fill="#FFFFFF" points="408.101,57.339 418.408,59.144 428.033,60.936 437.47,62.804 444,64.184 444,58.148 
		437.366,56.649 427.937,54.679 418.317,52.808 408.015,50.944 401.743,49.887 401.743,56.292 	"/>
	<polygon fill="#FFFFFF" points="351.982,49.705 304.953,49.705 304.953,97.9 353.149,97.9 353.149,49.852 	"/>
	<polygon fill="#FFFFFF" points="210.778,12.394 240.597,13.417 256.358,14.059 256.358,1.31 208.163,1.31 208.163,12.318 	"/>
	<polygon fill="#FFFFFF" points="141.974,27.008 111.934,25.685 111.373,25.663 111.373,30.76 121.501,31.233 151.471,32.773 
		159.568,33.227 159.568,27.856 	"/>
	<polygon fill="#FFFFFF" points="82.666,24.522 64.088,23.841 64.088,28.666 92.303,29.87 111.173,30.751 111.173,25.655 	"/>
	<polygon fill="#FFFFFF" points="121.509,10.098 159.568,10.986 159.568,1.31 111.373,1.31 111.373,9.91 	"/>
	<polygon fill="#FFFFFF" points="111.173,9.906 111.173,1.31 64.088,1.31 64.088,9.033 	"/>
	<polygon fill="#FFFFFF" points="240.543,32.586 220.858,31.286 208.163,30.516 208.163,36.168 210.763,36.335 230.335,37.692 
		250.141,39.177 256.358,39.672 256.358,33.728 	"/>
	<polygon fill="#FFFFFF" points="256.358,40.18 240.542,38.944 220.856,37.523 208.163,36.676 208.163,46.352 208.163,49.505 
		256.358,49.505 256.358,46.352 	"/>
	<polygon fill="#FFFFFF" points="200.417,30.045 180.703,28.943 161.716,27.959 159.768,27.866 159.768,33.237 171.331,33.884 
		190.931,35.059 207.963,36.155 207.963,30.503 	"/>
	<polygon fill="#FFFFFF" points="339.504,48.197 329.173,47.023 319.641,45.991 309.427,44.936 304.953,44.494 304.953,46.352 
		304.953,49.505 350.391,49.505 349.646,49.411 	"/>
	<path fill="#FFFFFF" d="M118.224,107.765c-0.171-0.272-0.38-0.471-0.628-0.593c-0.248-0.121-0.536-0.182-0.863-0.182
		c-0.336,0-0.625,0.06-0.864,0.18c-0.239,0.118-0.435,0.278-0.588,0.478c-0.152,0.198-0.264,0.425-0.337,0.678
		c-0.072,0.252-0.108,0.511-0.108,0.776c0,0.3,0.033,0.572,0.098,0.82c0.065,0.247,0.169,0.457,0.315,0.63
		c0.145,0.172,0.334,0.306,0.567,0.398s0.521,0.14,0.862,0.14c0.391,0,0.766-0.057,1.128-0.17c0.363-0.115,0.677-0.266,0.94-0.452
		c0-0.646-0.044-1.19-0.133-1.633C118.525,108.393,118.395,108.037,118.224,107.765z"/>
	<path fill="#FFFFFF" d="M166.754,112.405c-0.184-0.165-0.412-0.325-0.685-0.48c-0.274-0.155-0.59-0.315-0.95-0.482
		c-0.317,0.156-0.595,0.314-0.835,0.473c-0.239,0.157-0.435,0.319-0.588,0.488c-0.153,0.166-0.269,0.342-0.347,0.526
		c-0.079,0.186-0.118,0.391-0.118,0.615c0,0.493,0.172,0.874,0.515,1.144c0.345,0.268,0.86,0.401,1.545,0.401
		c0.662,0,1.162-0.135,1.5-0.405c0.34-0.271,0.51-0.642,0.51-1.109c0-0.233-0.045-0.445-0.135-0.635
		C167.076,112.748,166.939,112.57,166.754,112.405z"/>
	<rect x="159.768" y="49.705" fill="#FFFFFF" width="48.195" height="48.195"/>
	<polygon fill="#FFFFFF" points="207.963,36.663 200.416,36.159 180.702,34.937 161.715,33.837 159.768,33.732 159.768,46.352 
		159.768,49.505 207.963,49.505 207.963,46.352 	"/>
	<polygon fill="#FFFFFF" points="159.568,33.721 141.973,32.77 111.933,31.272 111.373,31.247 111.373,46.352 111.373,49.505 
		159.568,49.505 159.568,46.352 	"/>
	<path fill="#FFFFFF" d="M74.245,108.718c-0.068-0.304-0.157-0.564-0.267-0.783c-0.108-0.218-0.238-0.397-0.39-0.537
		c-0.152-0.142-0.324-0.244-0.517-0.31c-0.194-0.065-0.412-0.098-0.655-0.098c-0.432,0-0.781,0.103-1.048,0.31
		c-0.267,0.205-0.477,0.487-0.632,0.849c-0.155,0.358-0.261,0.78-0.315,1.264c-0.056,0.484-0.083,1.004-0.083,1.56
		c0,0.744,0.038,1.377,0.115,1.901c0.077,0.521,0.198,0.947,0.365,1.277c0.167,0.327,0.38,0.567,0.64,0.718
		c0.26,0.147,0.575,0.222,0.945,0.222c0.288,0,0.541-0.046,0.758-0.137c0.218-0.094,0.405-0.227,0.562-0.398
		c0.158-0.173,0.288-0.381,0.39-0.622c0.103-0.241,0.186-0.51,0.248-0.803c0.061-0.293,0.092-0.611,0.092-0.953
		c0-0.341,0-0.698,0-1.068c0-0.497-0.018-0.944-0.053-1.342C74.365,109.371,74.314,109.021,74.245,108.718z"/>
	<polygon fill="#FFFFFF" points="111.173,31.238 82.665,29.946 64.088,29.165 64.088,49.505 111.173,49.505 111.173,46.352 	"/>
	<polygon fill="#FFFFFF" points="304.754,44.474 300.011,44.006 290.407,43.098 280.12,42.167 270.631,41.345 260.461,40.5 
		256.558,40.195 256.558,46.352 256.558,49.505 304.754,49.505 304.754,46.352 	"/>
	<polygon fill="#FFFFFF" points="388.327,47.736 378.94,46.348 369.365,45.016 359.105,43.673 353.349,42.963 353.349,46.352 
		353.349,49.373 354.396,49.505 399.479,49.505 398.512,49.342 	"/>
	<polygon fill="#FFFFFF" points="300.012,37.309 290.408,36.452 280.121,35.577 270.633,34.809 260.463,34.023 256.558,33.742 
		256.558,39.688 260.502,40.002 270.673,40.847 280.164,41.669 290.453,42.6 300.059,43.508 304.754,43.972 304.754,37.753 	"/>
	<polygon fill="#FFFFFF" points="131.823,19.765 111.373,19.074 111.373,25.176 131.843,26.045 151.47,26.957 159.568,27.361 
		159.568,20.819 	"/>
	<polygon fill="#FFFFFF" points="309.508,16.603 329.265,17.82 339.602,18.532 349.751,19.289 353.149,19.563 353.149,1.31 
		304.953,1.31 304.953,16.357 	"/>
	<polygon fill="#FFFFFF" points="101.71,18.748 64.088,17.628 64.088,23.34 72.387,23.638 101.729,24.766 111.173,25.167 
		111.173,19.067 	"/>
	<polygon fill="#FFFFFF" points="408.186,25.245 418.505,26.705 428.144,28.231 437.596,29.909 444,31.197 444,1.31 401.743,1.31 
		401.743,24.425 	"/>
	<polygon fill="#FFFFFF" points="359.219,20.054 369.487,20.956 379.072,21.875 388.471,22.859 398.668,24.033 401.544,24.399 
		401.544,1.31 353.349,1.31 353.349,19.58 	"/>
	<path fill="#FFFFFF" d="M165.291,110.317c0.507-0.264,0.896-0.555,1.168-0.875c0.271-0.319,0.407-0.674,0.407-1.061
		c0-0.213-0.037-0.405-0.11-0.577c-0.073-0.173-0.18-0.32-0.32-0.442c-0.14-0.121-0.314-0.214-0.523-0.277
		c-0.208-0.062-0.445-0.095-0.712-0.095c-0.542,0-0.952,0.125-1.232,0.375c-0.279,0.248-0.418,0.588-0.418,1.017
		c0,0.199,0.033,0.383,0.1,0.553c0.068,0.171,0.174,0.332,0.318,0.485c0.143,0.152,0.324,0.3,0.542,0.445
		C164.729,110.01,164.989,110.161,165.291,110.317z"/>
	<polygon fill="#FFFFFF" points="171.342,11.26 207.963,12.312 207.963,1.31 159.768,1.31 159.768,10.99 	"/>
	<polygon fill="#FFFFFF" points="353.149,42.938 349.646,42.507 339.504,41.326 329.174,40.19 319.643,39.199 309.428,38.19 
		304.953,37.771 304.953,43.991 309.477,44.438 319.693,45.494 329.229,46.526 339.562,47.701 349.706,48.915 353.149,49.348 
		353.149,46.352 	"/>
	<polygon fill="#FFFFFF" points="270.696,14.643 290.479,15.579 304.754,16.347 304.754,1.31 256.558,1.31 256.558,14.067 	"/>
	<polygon fill="#808080" points="64.088,11.035 62.978,11.014 62.978,17.095 64.088,17.128 	"/>
	<polygon fill="#808080" points="64.088,29.165 62.978,29.118 62.978,49.505 64.088,49.505 	"/>
	<polygon fill="#808080" points="64.088,23.841 62.978,23.801 62.978,28.618 64.088,28.666 	"/>
	<polygon fill="#808080" points="64.088,9.033 64.088,1.31 62.978,1.31 62.978,9.013 	"/>
	<polygon fill="#808080" points="62.618,29.103 62.639,28.604 62.778,28.609 62.778,23.793 62.62,23.788 62.636,23.288 
		62.778,23.293 62.778,17.589 62.621,17.584 62.635,17.084 62.778,17.089 62.778,11.01 61.862,10.992 61.895,8.993 62.778,9.009 
		62.778,1.21 61.668,1.21 61.668,98 62.778,98 62.778,29.11 	"/>
	<polygon fill="#808080" points="64.088,17.628 62.978,17.595 62.978,23.3 64.088,23.34 	"/>
	<rect x="62.978" y="49.705" fill="#808080" width="1.11" height="48.195"/>
	<polygon fill="#D9D9D9" points="111.373,46.352 111.373,31.247 111.173,31.238 111.173,46.352 	"/>
	<polygon fill="#D9D9D9" points="111.173,11.948 111.173,18.567 111.373,18.574 111.373,11.952 	"/>
	<polygon fill="#D9D9D9" points="111.173,25.655 111.173,30.751 111.373,30.76 111.373,25.663 	"/>
	<rect x="111.173" y="49.705" fill="#D9D9D9" width="0.2" height="48.195"/>
	<polygon fill="#D9D9D9" points="111.173,19.067 111.173,25.167 111.373,25.176 111.373,19.074 	"/>
	<rect x="111.173" y="1.31" fill="#D9D9D9" width="0.2" height="8.6"/>
	<rect x="159.568" y="49.705" fill="#D9D9D9" width="0.2" height="48.195"/>
	<polygon fill="#D9D9D9" points="159.768,46.352 159.768,33.732 159.568,33.721 159.568,46.352 	"/>
	<rect x="159.568" y="1.31" fill="#D9D9D9" width="0.2" height="9.68"/>
	<polygon fill="#D9D9D9" points="159.568,20.819 159.568,27.361 159.768,27.371 159.768,20.827 	"/>
	<polygon fill="#D9D9D9" points="159.568,12.994 159.568,20.318 159.768,20.326 159.768,13 	"/>
	<polygon fill="#D9D9D9" points="159.568,27.856 159.568,33.227 159.768,33.237 159.768,27.866 	"/>
	<polygon fill="#D9D9D9" points="208.163,12.318 208.163,1.31 207.963,1.31 207.963,12.312 	"/>
	<polygon fill="#D9D9D9" points="208.163,46.352 208.163,36.676 207.963,36.663 207.963,46.352 	"/>
	<polygon fill="#D9D9D9" points="207.963,30.503 207.963,36.155 208.163,36.168 208.163,30.516 	"/>
	<rect x="207.963" y="49.705" fill="#D9D9D9" width="0.2" height="48.195"/>
	<polygon fill="#D9D9D9" points="207.963,14.337 207.963,22.475 208.163,22.485 208.163,14.343 	"/>
	<polygon fill="#D9D9D9" points="207.963,22.975 207.963,29.997 208.163,30.008 208.163,22.985 	"/>
	<polygon fill="#D9D9D9" points="256.358,33.728 256.358,39.672 256.558,39.688 256.558,33.742 	"/>
	<polygon fill="#D9D9D9" points="256.358,16.046 256.358,25.155 256.558,25.168 256.558,16.053 	"/>
	<polygon fill="#D9D9D9" points="256.558,14.067 256.558,1.31 256.358,1.31 256.358,14.059 	"/>
	<polygon fill="#D9D9D9" points="256.558,46.352 256.558,40.195 256.358,40.18 256.358,46.352 	"/>
	<rect x="256.358" y="49.705" fill="#D9D9D9" width="0.2" height="48.195"/>
	<polygon fill="#D9D9D9" points="256.358,25.662 256.358,33.22 256.558,33.234 256.558,25.674 	"/>
	<polygon fill="#D9D9D9" points="304.754,29.112 304.754,37.251 304.953,37.27 304.953,29.128 	"/>
	<polygon fill="#D9D9D9" points="304.754,18.352 304.754,28.611 304.953,28.627 304.953,18.363 	"/>
	<polygon fill="#D9D9D9" points="304.953,16.357 304.953,1.31 304.754,1.31 304.754,16.347 	"/>
	<polygon fill="#D9D9D9" points="304.754,37.753 304.754,43.972 304.953,43.991 304.953,37.771 	"/>
	<rect x="304.754" y="49.705" fill="#D9D9D9" width="0.199" height="48.195"/>
	<polygon fill="#D9D9D9" points="304.953,46.352 304.953,44.494 304.754,44.474 304.754,46.352 	"/>
	<polygon fill="#D9D9D9" points="353.149,21.57 353.149,33.219 353.349,33.241 353.349,21.586 	"/>
	<polygon fill="#D9D9D9" points="353.149,49.852 353.149,97.9 353.349,97.9 353.349,49.877 	"/>
	<polygon fill="#D9D9D9" points="353.349,46.352 353.349,42.963 353.149,42.938 353.149,46.352 	"/>
	<polygon fill="#D9D9D9" points="353.349,19.58 353.349,1.31 353.149,1.31 353.149,19.563 	"/>
	<polygon fill="#D9D9D9" points="353.149,33.722 353.149,42.435 353.349,42.459 353.349,33.744 	"/>
	<polygon fill="#D9D9D9" points="401.544,56.765 401.544,97.9 401.743,97.9 401.743,56.798 	"/>
	<polygon fill="#D9D9D9" points="401.743,46.352 401.743,40.208 401.544,40.176 401.544,46.352 	"/>
	<polygon fill="#D9D9D9" points="401.743,24.425 401.743,1.31 401.544,1.31 401.544,24.399 	"/>
	<polygon fill="#D9D9D9" points="401.544,26.416 401.544,39.67 401.743,39.702 401.743,26.441 	"/>
	<polygon fill="#D9D9D9" points="401.743,56.292 401.743,49.887 401.544,49.853 401.544,56.259 	"/>
	<polygon fill="#D9D9D9" points="449.939,65.984 449.939,97.9 450.139,97.9 450.139,66.029 	"/>
	<polygon fill="#D9D9D9" points="450.139,46.352 450.139,34.549 449.939,34.503 449.939,46.352 	"/>
	<polygon fill="#D9D9D9" points="450.139,65.517 450.139,59.583 449.939,59.534 449.939,65.472 	"/>
	<polygon fill="#D9D9D9" points="450.139,59.068 450.139,49.912 449.939,49.86 449.939,59.02 	"/>
	<polygon fill="#D9D9D9" points="450.139,32.498 450.139,1.31 449.939,1.31 449.939,32.452 	"/>
	<polygon fill="#808080" points="497.563,65.079 499.644,66.056 499.644,51.373 497.224,50.126 497.224,64.939 	"/>
	<polygon fill="#808080" points="497.552,73.208 499.644,74.024 499.644,66.607 497.362,65.537 497.224,65.48 497.224,73.092 	"/>
	<polygon fill="#808080" points="498.334,48.493 498.334,46.352 498.533,46.352 498.533,48.588 499.644,49.118 499.644,1.31 
		497.224,1.31 497.224,47.962 	"/>
	<polygon fill="#808080" points="497.391,78.572 497.224,78.521 497.224,97.9 499.644,97.9 499.644,79.316 	"/>
	<polygon fill="#808080" points="497.542,78.096 499.644,78.79 499.644,74.561 497.378,73.676 497.224,73.621 497.224,77.999 	"/>
	<polygon fill="#D9D9D9" points="499.644,97.9 497.224,97.9 450.139,97.9 449.939,97.9 444,97.9 401.743,97.9 401.544,97.9 
		353.349,97.9 353.149,97.9 304.953,97.9 304.754,97.9 256.558,97.9 256.358,97.9 208.163,97.9 207.963,97.9 159.768,97.9 
		159.568,97.9 111.373,97.9 111.173,97.9 64.088,97.9 62.978,97.9 62.978,98 62.878,98 62.878,98.1 444,98.1 545.733,98.1 
		545.629,97.9 	"/>
	<polygon fill="#D9D9D9" points="62.878,1.21 62.978,1.21 62.978,1.31 64.088,1.31 111.173,1.31 111.373,1.31 159.568,1.31 
		159.768,1.31 207.963,1.31 208.163,1.31 256.358,1.31 256.558,1.31 304.754,1.31 304.953,1.31 353.149,1.31 353.349,1.31 
		401.544,1.31 401.743,1.31 444,1.31 449.939,1.31 450.139,1.31 497.224,1.31 499.644,1.31 546.729,1.31 546.729,1.21 546.829,1.21 
		546.829,1.11 444,1.11 62.878,1.11 	"/>
	<polygon fill="#0000FF" points="543.034,88.997 539.678,83.739 538.34,81.813 534.591,76.857 533.392,75.396 529.78,71.312 
		528.582,70.053 524.798,66.353 523.512,65.181 519.643,61.896 518.358,60.878 514.693,58.145 509.947,54.952 508.765,54.209 
		502.733,50.716 500.82,49.705 496.341,49.705 497.031,50.027 497.224,50.126 499.644,51.373 501.771,52.468 506.548,55.199 
		511.209,58.167 515.873,61.492 520.919,65.565 525.971,70.253 530.681,75.298 533.027,78.104 535.396,81.164 538.017,84.853 
		540.661,88.945 543.297,93.447 544.156,95.089 546.729,97.564 546.729,95.656 545.714,93.691 	"/>
	<polygon fill="#0000FF" points="546.964,97.789 547.164,97.888 547.15,97.915 547.176,97.932 547.15,97.969 547.183,98 
		547.034,98.148 546.941,98.335 546.914,98.321 546.897,98.347 546.86,98.322 546.829,98.354 546.679,98.207 545.485,97.625 
		545.629,97.9 545.733,98.1 546.384,99.342 548.171,98.445 546.929,96.042 546.929,97.756 	"/>
	<polygon fill="#0000FF" points="544.953,96.525 544.862,96.436 544.887,96.482 	"/>
	<polygon fill="#0000FF" points="111.173,11.948 111.373,11.952 141.962,12.544 159.568,12.994 159.768,13 190.887,13.794 
		207.963,14.337 208.163,14.343 230.282,15.046 256.358,16.046 256.558,16.053 260.439,16.202 280.093,17.075 299.979,18.077 
		304.754,18.352 304.953,18.363 319.604,19.207 339.459,20.527 349.597,21.283 353.149,21.57 353.349,21.586 359.05,22.047 
		369.304,22.948 378.872,23.866 388.252,24.848 398.428,26.019 401.544,26.416 401.743,26.441 407.92,27.227 418.209,28.683 
		427.812,30.204 437.224,31.874 444,33.237 447.43,33.927 449.939,34.503 450.139,34.549 456.947,36.114 467.255,38.854 
		477.393,42.019 482.095,43.681 486.818,45.496 491.909,47.64 495.911,49.505 498.334,49.505 498.334,48.493 497.224,47.962 
		492.728,45.816 490.145,44.702 482.792,41.806 480.413,40.948 467.81,36.933 457.428,34.173 450.139,32.498 449.939,32.452 
		447.851,31.972 444,31.197 437.596,29.909 428.144,28.231 418.505,26.705 408.186,25.245 401.743,24.425 401.544,24.399 
		398.668,24.033 388.471,22.859 379.072,21.875 369.487,20.956 359.219,20.054 353.349,19.58 353.149,19.563 349.751,19.289 
		339.602,18.532 329.265,17.82 309.508,16.603 304.953,16.357 304.754,16.347 290.479,15.579 270.696,14.643 256.558,14.067 
		256.358,14.059 240.597,13.417 210.778,12.394 208.163,12.318 207.963,12.312 171.342,11.26 159.768,10.99 159.568,10.986 
		121.509,10.098 111.373,9.91 111.173,9.906 64.088,9.033 62.978,9.013 62.978,11.014 64.088,11.035 	"/>
	<polygon fill="#0000FF" points="61.862,10.992 62.778,11.01 62.778,9.009 61.895,8.993 	"/>
	<polygon fill="#0000FF" points="500.441,49.505 500.321,49.441 499.644,49.118 498.533,48.588 498.533,49.505 	"/>
	<polygon fill="#3333FF" points="450.139,49.505 450.566,49.505 450.139,49.395 	"/>
	<polygon fill="#3333FF" points="543.011,93.986 539.018,90.442 537.687,89.321 531.585,84.518 529.2,82.781 527.413,81.524 
		516.589,74.67 507.171,69.589 499.644,66.056 497.563,65.079 497.224,64.939 487.277,60.863 477.79,57.44 467.621,54.179 
		457.267,51.223 451.348,49.705 449.334,49.705 449.939,49.86 450.139,49.912 457.136,51.705 467.477,54.657 477.629,57.914 
		487.098,61.33 497.224,65.48 497.362,65.537 499.644,66.607 506.945,70.035 516.337,75.102 526.535,81.527 531.284,84.917 
		536.042,88.616 538.691,90.822 541.347,93.147 543.998,95.594 544.862,96.436 544.953,96.525 546.729,97.649 546.729,97.564 
		544.156,95.089 	"/>
	<polygon fill="#3333FF" points="101.71,18.748 111.173,19.067 111.373,19.074 131.823,19.765 159.568,20.819 159.768,20.827 
		161.719,20.901 180.706,21.698 200.42,22.598 207.963,22.975 208.163,22.985 220.861,23.621 240.546,24.703 256.358,25.662 
		256.558,25.674 260.465,25.912 270.636,26.578 280.124,27.233 290.411,27.984 300.015,28.725 304.754,29.112 304.953,29.128 
		309.431,29.494 319.646,30.378 329.177,31.255 339.507,32.267 349.649,33.33 353.149,33.722 353.349,33.744 359.107,34.389 
		369.367,35.621 378.942,36.857 388.329,38.159 398.514,39.685 401.544,40.176 401.743,40.208 408.016,41.226 418.317,43.045 
		427.936,44.9 437.364,46.887 444,48.426 447.591,49.258 448.553,49.505 449.939,49.505 449.939,49.344 447.71,48.772 444,47.912 
		437.473,46.398 428.034,44.41 418.409,42.554 408.1,40.733 401.743,39.702 401.544,39.67 398.591,39.191 388.4,37.665 
		379.009,36.362 369.43,35.125 359.165,33.893 353.349,33.241 353.149,33.219 349.703,32.833 339.558,31.769 329.224,30.757 
		319.689,29.88 309.473,28.996 304.953,28.627 304.754,28.611 300.055,28.227 290.448,27.485 280.159,26.734 270.669,26.079 
		260.498,25.413 256.558,25.168 256.358,25.155 250.137,24.769 240.575,24.204 220.887,23.122 208.163,22.485 207.963,22.475 
		200.444,22.099 180.728,21.199 161.739,20.401 159.768,20.326 159.568,20.318 131.841,19.265 111.373,18.574 111.173,18.567 
		101.727,18.248 64.088,17.128 62.978,17.095 62.978,17.595 64.088,17.628 	"/>
	<polygon fill="#3333FF" points="62.621,17.584 62.778,17.589 62.778,17.089 62.635,17.084 	"/>
	<polygon fill="#3333FF" points="547.034,98.148 547.183,98 547.15,97.969 547.045,98.126 	"/>
	<polygon fill="#3333FF" points="546.679,98.207 546.829,98.354 546.86,98.322 546.701,98.218 	"/>
	<polygon fill="#3333FF" points="546.929,97.756 546.929,97.772 546.964,97.789 	"/>
	<polygon fill="#6666FF" points="82.666,24.522 111.173,25.655 111.373,25.663 111.934,25.685 141.974,27.008 159.568,27.856 
		159.768,27.866 161.716,27.959 180.703,28.943 200.417,30.045 207.963,30.503 208.163,30.516 220.858,31.286 240.543,32.586 
		256.358,33.728 256.558,33.742 260.463,34.023 270.633,34.809 280.121,35.577 290.408,36.452 300.012,37.309 304.754,37.753 
		304.953,37.771 309.428,38.19 319.643,39.199 329.174,40.19 339.504,41.326 349.646,42.507 353.149,42.938 353.349,42.963 
		359.105,43.673 369.365,45.016 378.94,46.348 388.327,47.736 398.512,49.342 399.479,49.505 401.544,49.505 401.544,49.346 
		398.593,48.848 388.402,47.241 379.011,45.854 369.432,44.52 359.168,43.177 353.349,42.459 353.149,42.435 349.706,42.01 
		339.561,40.829 329.227,39.693 319.692,38.701 309.476,37.693 304.953,37.27 304.754,37.251 300.058,36.811 290.451,35.954 
		280.162,35.079 270.672,34.311 260.5,33.524 256.558,33.234 256.358,33.22 250.14,32.762 230.334,31.397 210.762,30.16 
		208.163,30.008 207.963,29.997 190.93,29.003 171.33,27.949 159.768,27.371 159.568,27.361 151.47,26.957 131.843,26.045 
		111.373,25.176 111.173,25.167 101.729,24.766 72.387,23.638 64.088,23.34 62.978,23.3 62.978,23.801 64.088,23.841 	"/>
	<polygon fill="#6666FF" points="401.743,49.505 402.487,49.505 401.743,49.379 	"/>
	<polygon fill="#6666FF" points="62.62,23.788 62.778,23.793 62.778,23.293 62.636,23.288 	"/>
	<polygon fill="#6666FF" points="544.887,96.482 538.984,92.747 537.653,91.956 526.785,85.978 516.569,81.031 507.155,76.958 
		499.644,74.024 497.552,73.208 497.224,73.092 487.269,69.58 477.784,66.544 467.617,63.574 457.264,60.812 450.139,59.068 
		449.939,59.02 447.708,58.473 444,57.636 437.472,56.161 428.035,54.188 418.41,52.316 408.102,50.452 403.675,49.705 
		400.666,49.705 401.544,49.853 401.743,49.887 408.015,50.944 418.317,52.808 427.937,54.679 437.366,56.649 444,58.148 
		447.594,58.959 449.939,59.534 450.139,59.583 457.14,61.297 467.482,64.056 477.638,67.022 487.109,70.054 497.224,73.621 
		497.378,73.676 499.644,74.561 506.965,77.42 516.36,81.485 526.556,86.422 536.074,91.614 541.382,94.795 543.209,95.948 
		546.729,97.675 546.729,97.649 544.953,96.525 	"/>
	<polygon fill="#6666FF" points="546.701,98.218 546.86,98.322 546.897,98.347 546.914,98.321 	"/>
	<polygon fill="#6666FF" points="547.045,98.126 547.15,97.969 547.176,97.932 547.15,97.915 	"/>
	<polygon fill="#9999FF" points="82.665,29.946 111.173,31.238 111.373,31.247 111.933,31.272 141.973,32.77 159.568,33.721 
		159.768,33.732 161.715,33.837 180.702,34.937 200.416,36.159 207.963,36.663 208.163,36.676 220.856,37.523 240.542,38.944 
		256.358,40.18 256.558,40.195 260.461,40.5 270.631,41.345 280.12,42.167 290.407,43.098 300.011,44.006 304.754,44.474 
		304.953,44.494 309.427,44.936 319.641,45.991 329.173,47.023 339.504,48.197 349.646,49.411 350.391,49.505 353.149,49.505 
		353.149,49.348 349.706,48.915 339.562,47.701 329.229,46.526 319.693,45.494 309.477,44.438 304.953,43.991 304.754,43.972 
		300.059,43.508 290.453,42.6 280.164,41.669 270.673,40.847 260.502,40.002 256.558,39.688 256.358,39.672 250.141,39.177 
		230.335,37.692 210.763,36.335 208.163,36.168 207.963,36.155 190.931,35.059 171.331,33.884 159.768,33.237 159.568,33.227 
		151.471,32.773 121.501,31.233 111.373,30.76 111.173,30.751 92.303,29.87 64.088,28.666 62.978,28.618 62.978,29.118 
		64.088,29.165 	"/>
	<polygon fill="#9999FF" points="353.349,49.505 354.396,49.505 353.349,49.373 	"/>
	<polygon fill="#9999FF" points="62.618,29.103 62.778,29.11 62.778,28.609 62.639,28.604 	"/>
	<polygon fill="#9999FF" points="543.209,95.948 542.95,95.821 537.631,93.334 526.767,88.642 516.554,84.644 507.143,81.269 
		499.644,78.79 497.542,78.096 497.224,77.999 487.26,74.964 477.777,72.293 467.611,69.636 457.259,67.125 450.139,65.517 
		449.939,65.472 447.705,64.967 444,64.184 437.47,62.804 428.033,60.936 418.408,59.144 408.101,57.339 401.743,56.292 
		401.544,56.259 398.592,55.772 388.402,54.185 379.011,52.802 369.433,51.464 359.169,50.105 355.988,49.705 351.982,49.705 
		353.149,49.852 353.349,49.877 359.104,50.601 369.365,51.959 378.94,53.297 388.328,54.679 398.513,56.266 401.544,56.765 
		401.743,56.798 408.017,57.832 418.319,59.636 427.938,61.427 437.369,63.293 444,64.694 447.599,65.455 449.939,65.984 
		450.139,66.029 457.146,67.612 467.489,70.121 477.646,72.775 487.119,75.443 497.224,78.521 497.391,78.572 499.644,79.316 
		506.98,81.741 516.379,85.111 526.577,89.104 536.097,93.19 541.406,95.639 545.485,97.625 546.679,98.207 546.701,98.218 
		546.914,98.321 546.941,98.335 547.034,98.148 547.045,98.126 547.15,97.915 547.164,97.888 546.964,97.789 546.929,97.772 
		546.929,98 546.729,98 546.729,97.675 	"/>
	<polygon points="62.978,97.9 62.978,49.705 62.878,49.705 62.878,49.505 62.978,49.505 62.978,29.118 62.978,28.618 62.978,23.801 
		62.978,23.3 62.978,17.595 62.978,17.095 62.978,11.014 62.978,9.013 62.978,1.31 62.978,1.21 62.878,1.21 62.778,1.21 
		62.778,9.009 62.778,11.01 62.778,17.089 62.778,17.589 62.778,23.293 62.778,23.793 62.778,28.609 62.778,29.11 62.778,98 
		62.878,98 62.978,98 	"/>
	<rect x="50.151" y="111.36" width="8.027" height="0.96"/>
	<path d="M67.388,115.067c-0.023-0.044-0.053-0.079-0.089-0.103c-0.036-0.022-0.074-0.035-0.115-0.035h-1.803v-8.8
		c0-0.032-0.007-0.061-0.023-0.087c-0.014-0.027-0.045-0.05-0.092-0.068c-0.045-0.018-0.109-0.031-0.193-0.04
		c-0.081-0.01-0.185-0.015-0.31-0.015c-0.091,0-0.168,0-0.229,0c-0.062,0-0.116,0.006-0.163,0.019
		c-0.047,0.01-0.085,0.019-0.115,0.029c-0.03,0.009-0.056,0.022-0.078,0.037l-2.292,1.479c-0.043,0.029-0.079,0.06-0.107,0.092
		c-0.027,0.03-0.048,0.065-0.063,0.107c-0.013,0.041-0.023,0.094-0.03,0.155s-0.01,0.137-0.01,0.228
		c0,0.119,0.006,0.219,0.018,0.297c0.013,0.077,0.036,0.132,0.069,0.166c0.036,0.032,0.082,0.045,0.141,0.033
		c0.058-0.011,0.134-0.043,0.227-0.094l1.925-1.156v7.618h-2.078c-0.041,0-0.079,0.013-0.112,0.035
		c-0.033,0.023-0.062,0.059-0.085,0.103c-0.022,0.044-0.041,0.099-0.057,0.166c-0.015,0.065-0.023,0.146-0.023,0.238
		c0,0.1,0.008,0.183,0.023,0.25c0.016,0.067,0.038,0.121,0.064,0.163c0.029,0.04,0.059,0.069,0.091,0.087
		c0.031,0.02,0.065,0.028,0.099,0.028h5.206c0.035,0,0.069-0.009,0.102-0.028c0.035-0.018,0.065-0.047,0.09-0.087
		c0.027-0.042,0.048-0.096,0.063-0.163s0.022-0.15,0.022-0.25c0-0.093-0.007-0.173-0.02-0.238
		C67.429,115.166,67.412,115.111,67.388,115.067z"/>
	<path d="M75.068,107.24c-0.257-0.434-0.596-0.763-1.018-0.985c-0.42-0.223-0.939-0.335-1.56-0.335
		c-0.646,0-1.191,0.124-1.634,0.373c-0.444,0.248-0.801,0.599-1.073,1.054c-0.272,0.454-0.468,0.997-0.59,1.63
		c-0.12,0.633-0.18,1.327-0.18,2.085c0,0.82,0.053,1.548,0.16,2.182c0.108,0.633,0.291,1.166,0.548,1.6
		c0.258,0.432,0.597,0.759,1.017,0.982c0.422,0.223,0.941,0.335,1.558,0.335c0.65,0,1.196-0.124,1.639-0.373
		c0.444-0.248,0.803-0.599,1.078-1.052c0.275-0.455,0.471-0.998,0.588-1.627c0.118-0.632,0.177-1.327,0.177-2.092
		c0-0.818-0.054-1.546-0.163-2.179C75.509,108.204,75.326,107.672,75.068,107.24z M74.453,112.177c0,0.342-0.031,0.66-0.092,0.953
		c-0.062,0.293-0.145,0.562-0.248,0.803c-0.102,0.241-0.232,0.449-0.39,0.622c-0.157,0.172-0.344,0.305-0.562,0.398
		c-0.217,0.091-0.47,0.137-0.758,0.137c-0.37,0-0.685-0.074-0.945-0.222c-0.26-0.15-0.473-0.391-0.64-0.718
		c-0.167-0.33-0.288-0.757-0.365-1.277c-0.077-0.524-0.115-1.157-0.115-1.901c0-0.556,0.027-1.075,0.083-1.56
		c0.054-0.483,0.16-0.905,0.315-1.264c0.155-0.361,0.365-0.644,0.632-0.849c0.267-0.207,0.616-0.31,1.048-0.31
		c0.243,0,0.461,0.032,0.655,0.098c0.193,0.065,0.365,0.168,0.517,0.31c0.152,0.14,0.282,0.319,0.39,0.537
		c0.11,0.219,0.199,0.479,0.267,0.783c0.069,0.304,0.12,0.653,0.155,1.049c0.035,0.397,0.053,0.845,0.053,1.342
		C74.453,111.479,74.453,111.836,74.453,112.177z"/>
	<rect x="111.173" y="46.352" width="0.2" height="3.153"/>
	<rect x="102.601" y="111.36" width="8.028" height="0.96"/>
	<path d="M119.791,108.195c-0.1-0.354-0.232-0.669-0.397-0.947c-0.164-0.28-0.364-0.52-0.601-0.716
		c-0.236-0.198-0.515-0.35-0.837-0.454c-0.32-0.106-0.687-0.158-1.103-0.158c-0.584,0-1.088,0.09-1.509,0.271
		c-0.421,0.178-0.767,0.418-1.041,0.72c-0.271,0.302-0.471,0.65-0.599,1.047c-0.129,0.396-0.193,0.816-0.193,1.256
		c0,0.425,0.05,0.816,0.15,1.175c0.102,0.358,0.267,0.668,0.495,0.93c0.228,0.261,0.531,0.466,0.908,0.617
		c0.378,0.15,0.845,0.226,1.4,0.226c0.493,0,0.93-0.063,1.31-0.19s0.704-0.271,0.972-0.435c0,0.477-0.057,0.929-0.17,1.356
		c-0.113,0.428-0.283,0.804-0.51,1.128c-0.227,0.325-0.518,0.586-0.875,0.78c-0.357,0.193-0.784,0.29-1.282,0.29
		c-0.264,0-0.501-0.019-0.713-0.058c-0.21-0.039-0.393-0.082-0.55-0.127c-0.157-0.047-0.284-0.089-0.382-0.127
		c-0.099-0.039-0.175-0.059-0.228-0.059c-0.038,0-0.071,0.007-0.097,0.021c-0.027,0.012-0.048,0.036-0.063,0.071
		c-0.013,0.037-0.024,0.09-0.032,0.156c-0.009,0.066-0.013,0.156-0.013,0.27c0,0.132,0.012,0.237,0.035,0.317
		c0.023,0.08,0.06,0.144,0.11,0.19c0.052,0.045,0.133,0.091,0.245,0.137c0.113,0.047,0.253,0.09,0.418,0.13
		c0.166,0.042,0.353,0.077,0.56,0.106c0.206,0.028,0.42,0.042,0.64,0.042c0.571,0,1.072-0.075,1.502-0.226
		c0.432-0.151,0.804-0.36,1.118-0.627c0.315-0.269,0.575-0.581,0.782-0.935c0.207-0.357,0.371-0.739,0.492-1.146
		c0.124-0.407,0.211-0.832,0.261-1.271c0.051-0.44,0.077-0.876,0.077-1.307c0-0.457-0.022-0.892-0.065-1.304
		C119.963,108.932,119.891,108.548,119.791,108.195z M117.806,110.92c-0.362,0.113-0.737,0.17-1.128,0.17
		c-0.341,0-0.629-0.047-0.862-0.14s-0.422-0.227-0.567-0.398c-0.146-0.173-0.25-0.383-0.315-0.63
		c-0.065-0.248-0.098-0.521-0.098-0.82c0-0.266,0.036-0.524,0.108-0.776c0.073-0.253,0.185-0.479,0.337-0.678
		c0.153-0.199,0.349-0.359,0.588-0.478c0.239-0.12,0.528-0.18,0.864-0.18c0.327,0,0.615,0.061,0.863,0.182
		c0.248,0.122,0.457,0.32,0.628,0.593s0.301,0.628,0.389,1.07c0.089,0.442,0.133,0.986,0.133,1.633
		C118.483,110.654,118.169,110.805,117.806,110.92z"/>
	<rect x="159.568" y="46.352" width="0.2" height="3.153"/>
	<rect x="150.996" y="111.36" width="8.028" height="0.96"/>
	<path d="M168.004,111.965c-0.202-0.218-0.454-0.422-0.755-0.609c-0.3-0.19-0.629-0.373-0.985-0.551
		c0.301-0.163,0.572-0.338,0.812-0.524c0.242-0.188,0.445-0.389,0.61-0.604c0.167-0.216,0.293-0.443,0.378-0.684
		c0.085-0.242,0.127-0.495,0.127-0.758c0-0.323-0.057-0.626-0.17-0.907c-0.112-0.282-0.286-0.526-0.522-0.733
		c-0.237-0.208-0.538-0.373-0.903-0.493c-0.363-0.12-0.794-0.182-1.292-0.182c-0.519,0-0.973,0.066-1.363,0.198
		c-0.39,0.13-0.711,0.308-0.962,0.535c-0.252,0.224-0.441,0.488-0.566,0.795c-0.125,0.304-0.187,0.631-0.187,0.979
		c0,0.277,0.043,0.534,0.128,0.771c0.085,0.235,0.21,0.459,0.375,0.667c0.165,0.207,0.365,0.397,0.602,0.575
		c0.237,0.177,0.506,0.343,0.808,0.5c-0.347,0.173-0.66,0.355-0.94,0.547c-0.279,0.191-0.513,0.398-0.703,0.621
		c-0.19,0.22-0.336,0.46-0.437,0.722c-0.102,0.26-0.153,0.547-0.153,0.86c0,0.395,0.074,0.746,0.223,1.055
		c0.15,0.307,0.365,0.565,0.647,0.778c0.283,0.21,0.628,0.368,1.033,0.477c0.406,0.107,0.866,0.16,1.38,0.16
		c0.548,0,1.035-0.06,1.462-0.177c0.428-0.119,0.788-0.293,1.078-0.523c0.29-0.232,0.511-0.515,0.665-0.85
		c0.155-0.335,0.232-0.719,0.232-1.15c0-0.292-0.053-0.559-0.16-0.803C168.361,112.414,168.207,112.183,168.004,111.965z
		 M163.969,109.42c-0.144-0.153-0.25-0.314-0.318-0.485c-0.067-0.17-0.1-0.354-0.1-0.553c0-0.429,0.139-0.769,0.418-1.017
		c0.28-0.25,0.69-0.375,1.232-0.375c0.267,0,0.504,0.032,0.712,0.095c0.209,0.063,0.383,0.156,0.523,0.277
		c0.14,0.122,0.247,0.27,0.32,0.442c0.073,0.172,0.11,0.364,0.11,0.577c0,0.387-0.136,0.741-0.407,1.061
		c-0.272,0.32-0.661,0.611-1.168,0.875c-0.302-0.156-0.562-0.308-0.78-0.452C164.293,109.72,164.112,109.572,163.969,109.42z
		 M166.791,114.685c-0.338,0.271-0.838,0.405-1.5,0.405c-0.685,0-1.2-0.134-1.545-0.401c-0.343-0.27-0.515-0.65-0.515-1.144
		c0-0.225,0.039-0.43,0.118-0.615c0.078-0.185,0.194-0.36,0.347-0.526c0.153-0.169,0.349-0.331,0.588-0.488
		c0.24-0.158,0.518-0.316,0.835-0.473c0.36,0.167,0.676,0.327,0.95,0.482c0.273,0.155,0.501,0.315,0.685,0.48
		c0.185,0.165,0.322,0.343,0.412,0.535c0.09,0.189,0.135,0.401,0.135,0.635C167.301,114.043,167.131,114.413,166.791,114.685z"/>
	<rect x="207.963" y="46.352" width="0.2" height="3.153"/>
	<rect x="199.391" y="111.36" width="8.027" height="0.96"/>
	<path d="M216.774,106.032c-0.027-0.045-0.067-0.075-0.12-0.09c-0.054-0.016-0.116-0.022-0.185-0.022h-5.718
		c-0.047,0-0.088,0.012-0.122,0.035c-0.035,0.021-0.065,0.056-0.091,0.103c-0.024,0.046-0.044,0.104-0.057,0.176
		c-0.013,0.068-0.02,0.15-0.02,0.243c0,0.178,0.024,0.316,0.073,0.415c0.048,0.1,0.12,0.148,0.215,0.148h4.71l-3.715,8.562
		c-0.032,0.067-0.05,0.125-0.055,0.177c-0.005,0.048,0.014,0.09,0.057,0.125c0.043,0.032,0.113,0.058,0.21,0.073
		c0.097,0.017,0.231,0.023,0.403,0.023c0.13,0,0.24-0.004,0.332-0.013c0.092-0.009,0.166-0.024,0.222-0.047
		c0.059-0.023,0.107-0.055,0.146-0.094c0.038-0.038,0.07-0.089,0.095-0.151l3.532-8.375c0.03-0.072,0.056-0.139,0.078-0.2
		c0.023-0.062,0.041-0.126,0.055-0.193c0.013-0.067,0.023-0.138,0.03-0.209c0.008-0.074,0.012-0.156,0.012-0.246
		c0-0.109-0.007-0.199-0.022-0.269C216.824,106.132,216.802,106.076,216.774,106.032z"/>
	<rect x="256.358" y="46.352" width="0.2" height="3.153"/>
	<rect x="247.786" y="111.36" width="8.027" height="0.96"/>
	<path d="M264.779,110.65c-0.229-0.266-0.529-0.472-0.901-0.618c-0.37-0.148-0.825-0.223-1.365-0.223
		c-0.251,0-0.488,0.021-0.71,0.061c-0.221,0.038-0.431,0.089-0.63,0.153c-0.196,0.062-0.379,0.134-0.547,0.212
		c-0.167,0.078-0.315,0.156-0.445,0.234c0-0.458,0.052-0.897,0.157-1.319c0.107-0.423,0.27-0.792,0.49-1.11
		c0.222-0.32,0.507-0.575,0.855-0.765c0.349-0.19,0.764-0.285,1.245-0.285c0.265,0,0.498,0.011,0.698,0.032s0.37,0.046,0.51,0.072
		c0.14,0.027,0.259,0.052,0.357,0.073c0.099,0.021,0.176,0.032,0.233,0.032c0.048,0,0.086-0.009,0.112-0.028
		c0.029-0.019,0.052-0.048,0.071-0.084c0.018-0.039,0.027-0.088,0.027-0.147c0-0.062,0-0.135,0-0.219
		c0-0.065-0.003-0.122-0.008-0.167c-0.005-0.045-0.013-0.084-0.024-0.116c-0.011-0.035-0.025-0.068-0.043-0.099
		c-0.017-0.032-0.043-0.06-0.08-0.085c-0.037-0.027-0.112-0.061-0.225-0.102c-0.113-0.042-0.253-0.08-0.418-0.116
		c-0.164-0.036-0.345-0.065-0.542-0.084c-0.195-0.022-0.388-0.033-0.58-0.033c-0.567,0-1.064,0.078-1.493,0.233
		c-0.428,0.152-0.795,0.361-1.102,0.627c-0.305,0.263-0.56,0.572-0.765,0.93c-0.203,0.357-0.364,0.738-0.483,1.142
		c-0.118,0.405-0.2,0.826-0.247,1.264c-0.047,0.435-0.07,0.865-0.07,1.29c0,0.482,0.02,0.935,0.06,1.354
		c0.042,0.42,0.11,0.808,0.205,1.16c0.095,0.354,0.221,0.669,0.377,0.948c0.159,0.275,0.356,0.509,0.593,0.699
		c0.237,0.189,0.514,0.336,0.832,0.438c0.319,0.104,0.686,0.155,1.103,0.155c0.582,0,1.086-0.095,1.512-0.285
		c0.429-0.19,0.782-0.442,1.061-0.757c0.278-0.317,0.484-0.683,0.617-1.095c0.133-0.414,0.2-0.842,0.2-1.283
		c0-0.418-0.049-0.806-0.148-1.16C265.17,111.223,265.007,110.913,264.779,110.65z M263.976,113.688
		c-0.075,0.261-0.193,0.497-0.355,0.71c-0.16,0.211-0.363,0.38-0.608,0.505c-0.243,0.125-0.53,0.187-0.862,0.187
		c-0.328,0-0.614-0.058-0.858-0.175c-0.243-0.118-0.446-0.314-0.61-0.587c-0.163-0.274-0.288-0.637-0.375-1.091
		c-0.084-0.455-0.127-1.02-0.127-1.692c0.133-0.093,0.282-0.18,0.445-0.26c0.165-0.082,0.337-0.153,0.515-0.212
		c0.178-0.061,0.363-0.107,0.555-0.141c0.193-0.034,0.386-0.053,0.577-0.053c0.345,0,0.635,0.047,0.868,0.144
		c0.233,0.093,0.42,0.226,0.56,0.398c0.142,0.172,0.242,0.381,0.3,0.628c0.06,0.247,0.09,0.522,0.09,0.825
		C264.091,113.153,264.053,113.424,263.976,113.688z"/>
	<rect x="304.754" y="46.352" width="0.199" height="3.153"/>
	<rect x="296.181" y="111.36" width="8.028" height="0.96"/>
	<path d="M312.624,110.707c-0.285-0.25-0.641-0.443-1.068-0.58c-0.425-0.138-0.922-0.207-1.491-0.207c-0.247,0-0.466,0-0.653,0
		c-0.188,0-0.375,0.016-0.561,0.048V107.2h3.738c0.078,0,0.139-0.047,0.183-0.143c0.045-0.095,0.067-0.229,0.067-0.4
		c0-0.09-0.007-0.168-0.02-0.235c-0.013-0.065-0.031-0.12-0.059-0.162c-0.024-0.043-0.056-0.076-0.093-0.098
		c-0.036-0.021-0.075-0.032-0.117-0.032h-4.361c-0.149,0-0.263,0.041-0.341,0.122c-0.079,0.08-0.117,0.205-0.117,0.373v4.013
		c0,0.187,0.029,0.313,0.09,0.379c0.06,0.065,0.16,0.099,0.3,0.099c0.188,0,0.394-0.021,0.618-0.063
		c0.223-0.041,0.494-0.062,0.814-0.062c0.455,0,0.846,0.04,1.172,0.12c0.328,0.08,0.6,0.201,0.812,0.364
		c0.214,0.163,0.371,0.368,0.473,0.615c0.104,0.245,0.155,0.528,0.155,0.849c0,0.383-0.06,0.708-0.18,0.974
		c-0.12,0.267-0.285,0.489-0.495,0.666c-0.21,0.174-0.461,0.304-0.752,0.387c-0.292,0.083-0.612,0.125-0.96,0.125
		c-0.375,0-0.7-0.038-0.974-0.113c-0.271-0.073-0.5-0.153-0.685-0.236c-0.186-0.083-0.33-0.161-0.436-0.233
		c-0.103-0.071-0.179-0.106-0.227-0.106c-0.034,0-0.064,0.011-0.09,0.032s-0.048,0.055-0.068,0.1
		c-0.018,0.046-0.032,0.104-0.04,0.175c-0.007,0.072-0.01,0.152-0.01,0.241c0,0.095,0,0.177,0,0.247c0,0.067,0.007,0.125,0.021,0.17
		c0.013,0.045,0.026,0.083,0.043,0.115c0.015,0.031,0.041,0.065,0.079,0.102c0.038,0.037,0.125,0.087,0.263,0.151
		c0.138,0.062,0.314,0.128,0.529,0.193c0.216,0.066,0.461,0.121,0.735,0.166c0.275,0.044,0.566,0.067,0.872,0.067
		c0.552,0,1.054-0.074,1.505-0.222c0.452-0.151,0.841-0.369,1.168-0.656c0.327-0.286,0.579-0.639,0.758-1.056
		c0.179-0.418,0.268-0.895,0.268-1.43c0-0.433-0.073-0.827-0.22-1.182C313.126,111.258,312.91,110.956,312.624,110.707z"/>
	<polygon points="353.349,46.352 353.149,46.352 353.149,49.348 353.149,49.505 353.349,49.505 353.349,49.373 	"/>
	<rect x="344.577" y="111.36" width="8.028" height="0.96"/>
	<path d="M362.07,112.53h-1.144v-6.4c0-0.048-0.021-0.087-0.062-0.117c-0.042-0.031-0.103-0.057-0.181-0.074
		c-0.078-0.021-0.182-0.036-0.31-0.049c-0.129-0.013-0.279-0.02-0.45-0.02c-0.159,0-0.295,0-0.41,0c-0.114,0-0.212,0.011-0.29,0.033
		c-0.078,0.019-0.143,0.047-0.192,0.082c-0.05,0.032-0.087,0.07-0.112,0.111l-3.568,6.094c-0.037,0.064-0.07,0.127-0.097,0.185
		c-0.024,0.058-0.046,0.119-0.062,0.183c-0.018,0.063-0.025,0.134-0.025,0.209c0,0.076,0,0.16,0,0.257
		c0,0.123,0.006,0.223,0.018,0.3c0.014,0.075,0.035,0.132,0.067,0.172c0.032,0.038,0.068,0.065,0.108,0.083
		c0.04,0.015,0.09,0.021,0.151,0.021h4.09v2.155c0,0.042,0.01,0.077,0.028,0.105c0.021,0.027,0.055,0.053,0.105,0.074
		c0.05,0.022,0.115,0.038,0.199,0.051c0.085,0.01,0.19,0.015,0.317,0.015c0.133,0,0.242-0.005,0.325-0.015
		c0.085-0.013,0.153-0.028,0.205-0.051c0.053-0.021,0.091-0.047,0.112-0.074c0.021-0.028,0.032-0.063,0.032-0.105V113.6h1.144
		c0.093,0,0.165-0.048,0.217-0.143c0.053-0.096,0.08-0.227,0.08-0.392c0-0.183-0.027-0.316-0.082-0.403
		C362.23,112.574,362.158,112.53,362.07,112.53z M359.602,112.53h-3.239l3.225-5.49h0.015V112.53z"/>
	<polygon points="401.743,46.352 401.544,46.352 401.544,49.346 401.544,49.505 401.743,49.505 401.743,49.379 	"/>
	<rect x="392.972" y="111.36" width="8.027" height="0.96"/>
	<path d="M409.617,111.49c-0.208-0.21-0.458-0.383-0.748-0.521c-0.288-0.138-0.617-0.226-0.987-0.263v-0.017
		c0.32-0.058,0.588-0.157,0.806-0.301c0.217-0.143,0.398-0.316,0.547-0.52s0.261-0.438,0.338-0.7
		c0.077-0.265,0.115-0.55,0.115-0.854c0-0.357-0.057-0.683-0.169-0.976c-0.109-0.293-0.277-0.545-0.505-0.755
		c-0.226-0.212-0.509-0.375-0.847-0.49c-0.338-0.117-0.729-0.175-1.175-0.175c-0.318,0-0.616,0.031-0.894,0.093
		c-0.274,0.061-0.518,0.135-0.729,0.225c-0.21,0.089-0.387,0.179-0.532,0.27c-0.143,0.092-0.238,0.162-0.285,0.211
		c-0.047,0.048-0.081,0.09-0.103,0.125c-0.021,0.034-0.037,0.074-0.052,0.117c-0.014,0.043-0.023,0.094-0.028,0.152
		s-0.007,0.126-0.007,0.203c0,0.111,0.003,0.201,0.01,0.27s0.017,0.122,0.032,0.16c0.015,0.037,0.035,0.062,0.06,0.075
		c0.025,0.013,0.054,0.02,0.085,0.02c0.045,0,0.124-0.045,0.235-0.135c0.114-0.09,0.268-0.187,0.463-0.287
		c0.195-0.104,0.417-0.2,0.665-0.291s0.521-0.137,0.82-0.137c0.271,0,0.511,0.039,0.717,0.118c0.209,0.077,0.38,0.185,0.513,0.318
		s0.233,0.292,0.3,0.477c0.067,0.181,0.101,0.372,0.101,0.571c0,0.275-0.052,0.524-0.153,0.747
		c-0.101,0.223-0.246,0.413-0.435,0.573s-0.419,0.283-0.692,0.367c-0.272,0.086-0.575,0.128-0.91,0.128h-0.865
		c-0.045,0-0.086,0.009-0.123,0.027c-0.034,0.019-0.065,0.048-0.095,0.088c-0.028,0.038-0.05,0.091-0.064,0.156
		c-0.016,0.065-0.022,0.148-0.022,0.248c0,0.11,0.008,0.199,0.025,0.269c0.018,0.065,0.042,0.121,0.069,0.165
		c0.028,0.041,0.062,0.071,0.101,0.089c0.038,0.019,0.077,0.028,0.117,0.028h0.939c0.393,0,0.751,0.045,1.078,0.135
		c0.327,0.088,0.602,0.218,0.825,0.387c0.223,0.169,0.393,0.369,0.51,0.602c0.117,0.23,0.175,0.49,0.175,0.779
		c0,0.264-0.044,0.507-0.133,0.732c-0.088,0.223-0.22,0.417-0.396,0.58c-0.176,0.163-0.394,0.29-0.653,0.38
		c-0.258,0.09-0.56,0.135-0.902,0.135c-0.352,0-0.672-0.045-0.96-0.135s-0.54-0.188-0.755-0.29c-0.215-0.104-0.383-0.2-0.503-0.29
		c-0.118-0.09-0.204-0.135-0.257-0.135c-0.077,0-0.136,0.038-0.179,0.111c-0.041,0.074-0.062,0.206-0.062,0.396
		c0,0.11,0.004,0.203,0.012,0.28c0.009,0.075,0.021,0.141,0.035,0.193s0.033,0.097,0.053,0.134c0.022,0.036,0.052,0.072,0.087,0.109
		c0.039,0.037,0.133,0.096,0.28,0.177c0.15,0.082,0.339,0.161,0.565,0.238s0.484,0.144,0.772,0.197
		c0.29,0.055,0.603,0.083,0.936,0.083c0.548,0,1.04-0.072,1.475-0.215c0.438-0.146,0.803-0.351,1.101-0.615s0.526-0.583,0.685-0.955
		c0.16-0.373,0.24-0.793,0.24-1.257c0-0.319-0.06-0.617-0.179-0.896C409.988,111.944,409.825,111.7,409.617,111.49z"/>
	<polygon points="450.139,46.352 449.939,46.352 449.939,49.344 449.939,49.505 450.139,49.505 450.139,49.395 	"/>
	<polygon points="441.367,112.32 444,112.32 449.394,112.32 449.394,111.36 444,111.36 441.367,111.36 	"/>
	<path d="M458.59,115.062c-0.029-0.045-0.063-0.077-0.104-0.099c-0.04-0.021-0.082-0.033-0.125-0.033h-4.331l1.598-1.673
		c0.577-0.595,1.032-1.116,1.368-1.564c0.335-0.448,0.591-0.854,0.769-1.221c0.18-0.365,0.296-0.707,0.352-1.021
		c0.054-0.315,0.082-0.632,0.082-0.95c0-0.353-0.06-0.686-0.179-0.998c-0.117-0.311-0.297-0.585-0.536-0.822
		c-0.238-0.236-0.538-0.423-0.9-0.557c-0.36-0.136-0.782-0.203-1.265-0.203c-0.304,0-0.594,0.03-0.867,0.09
		c-0.276,0.059-0.527,0.131-0.755,0.217c-0.229,0.085-0.419,0.174-0.57,0.264c-0.152,0.088-0.259,0.158-0.32,0.21
		s-0.104,0.095-0.125,0.13c-0.021,0.033-0.037,0.07-0.05,0.11c-0.012,0.04-0.021,0.087-0.026,0.14
		c-0.005,0.053-0.007,0.118-0.007,0.192c0,0.104,0.005,0.192,0.016,0.268c0.01,0.073,0.023,0.132,0.042,0.178
		c0.019,0.043,0.042,0.075,0.069,0.094c0.031,0.02,0.063,0.028,0.099,0.028c0.062,0,0.158-0.042,0.285-0.125
		c0.127-0.085,0.284-0.177,0.475-0.274c0.19-0.099,0.411-0.189,0.663-0.272c0.251-0.086,0.535-0.128,0.852-0.128
		c0.271,0,0.51,0.044,0.718,0.132c0.209,0.089,0.381,0.208,0.518,0.358c0.137,0.149,0.242,0.323,0.314,0.521
		c0.073,0.199,0.11,0.409,0.11,0.631s-0.022,0.459-0.069,0.712c-0.048,0.254-0.145,0.535-0.294,0.846
		c-0.147,0.308-0.358,0.651-0.632,1.029c-0.271,0.378-0.633,0.805-1.085,1.282l-1.955,2.08c-0.062,0.069-0.112,0.131-0.146,0.188
		c-0.034,0.057-0.062,0.112-0.085,0.17c-0.022,0.057-0.036,0.122-0.043,0.194c-0.007,0.073-0.01,0.16-0.01,0.261
		c0,0.107,0.009,0.199,0.026,0.274c0.02,0.073,0.047,0.13,0.085,0.17c0.039,0.038,0.085,0.067,0.139,0.085
		c0.055,0.018,0.117,0.025,0.189,0.025h5.505c0.047,0,0.089-0.011,0.128-0.032s0.07-0.056,0.092-0.103
		c0.023-0.047,0.042-0.104,0.056-0.173c0.013-0.068,0.02-0.146,0.02-0.232c0-0.088-0.008-0.166-0.022-0.233
		C458.641,115.161,458.62,115.106,458.59,115.062z"/>
	<polygon points="498.533,49.505 498.533,48.588 498.533,46.352 498.334,46.352 498.334,48.493 498.334,49.505 	"/>
	<rect x="489.762" y="111.36" width="8.027" height="0.96"/>
	<path d="M506.999,115.067c-0.023-0.044-0.053-0.079-0.09-0.103c-0.035-0.022-0.073-0.035-0.115-0.035h-1.802v-8.8
		c0-0.032-0.007-0.061-0.023-0.087c-0.014-0.027-0.045-0.05-0.092-0.068c-0.045-0.018-0.109-0.031-0.193-0.04
		c-0.08-0.01-0.185-0.015-0.31-0.015c-0.091,0-0.168,0-0.23,0c-0.061,0-0.114,0.006-0.161,0.019
		c-0.048,0.01-0.086,0.019-0.115,0.029c-0.03,0.009-0.057,0.022-0.078,0.037l-2.292,1.479c-0.043,0.029-0.079,0.06-0.108,0.092
		c-0.025,0.03-0.047,0.065-0.062,0.107c-0.013,0.041-0.023,0.094-0.03,0.155s-0.01,0.137-0.01,0.228
		c0,0.119,0.006,0.219,0.017,0.297c0.015,0.077,0.037,0.132,0.07,0.166c0.035,0.032,0.082,0.045,0.14,0.033
		c0.06-0.011,0.136-0.043,0.229-0.094l1.925-1.156v7.618h-2.077c-0.042,0-0.08,0.013-0.113,0.035
		c-0.032,0.023-0.062,0.059-0.085,0.103c-0.021,0.044-0.041,0.099-0.058,0.166c-0.015,0.065-0.021,0.146-0.021,0.238
		c0,0.1,0.007,0.183,0.021,0.25c0.017,0.067,0.039,0.121,0.065,0.163c0.028,0.04,0.059,0.069,0.09,0.087
		c0.032,0.02,0.064,0.028,0.101,0.028h5.204c0.036,0,0.07-0.009,0.103-0.028c0.035-0.018,0.065-0.047,0.091-0.087
		c0.026-0.042,0.047-0.096,0.062-0.163c0.016-0.067,0.023-0.15,0.023-0.25c0-0.093-0.007-0.173-0.021-0.238
		C507.04,115.166,507.023,115.111,506.999,115.067z"/>
	<path d="M549.309,107.24c-0.257-0.434-0.596-0.763-1.017-0.985c-0.42-0.223-0.94-0.335-1.56-0.335
		c-0.647,0-1.192,0.124-1.636,0.373c-0.443,0.248-0.801,0.599-1.072,1.054c-0.272,0.454-0.469,0.997-0.591,1.63
		c-0.119,0.633-0.18,1.327-0.18,2.085c0,0.82,0.053,1.548,0.16,2.182c0.107,0.633,0.291,1.166,0.548,1.6
		c0.258,0.432,0.597,0.759,1.017,0.982c0.423,0.223,0.941,0.335,1.559,0.335c0.65,0,1.196-0.124,1.64-0.373
		c0.443-0.248,0.802-0.599,1.077-1.052c0.275-0.455,0.471-0.998,0.588-1.627c0.118-0.632,0.177-1.327,0.177-2.092
		c0-0.818-0.054-1.546-0.161-2.179C549.75,108.204,549.567,107.672,549.309,107.24z M548.694,112.177
		c0,0.342-0.031,0.66-0.093,0.953s-0.145,0.562-0.248,0.803c-0.102,0.241-0.231,0.449-0.39,0.622
		c-0.157,0.172-0.344,0.305-0.562,0.398c-0.218,0.091-0.471,0.137-0.759,0.137c-0.369,0-0.685-0.074-0.944-0.222
		c-0.26-0.15-0.474-0.391-0.641-0.718c-0.167-0.33-0.287-0.757-0.364-1.277c-0.077-0.524-0.115-1.157-0.115-1.901
		c0-0.556,0.028-1.075,0.083-1.56c0.055-0.483,0.16-0.905,0.314-1.264c0.155-0.361,0.365-0.644,0.633-0.849
		c0.267-0.207,0.615-0.31,1.048-0.31c0.243,0,0.461,0.032,0.655,0.098c0.192,0.065,0.364,0.168,0.517,0.31
		c0.152,0.14,0.282,0.319,0.39,0.537c0.11,0.219,0.199,0.479,0.269,0.783c0.067,0.304,0.12,0.653,0.154,1.049
		c0.035,0.397,0.053,0.845,0.053,1.342C548.694,111.479,548.694,111.836,548.694,112.177z"/>
	<polygon points="498.533,49.505 498.334,49.505 495.911,49.505 450.566,49.505 450.139,49.505 449.939,49.505 448.553,49.505 
		444,49.505 402.487,49.505 401.743,49.505 401.544,49.505 399.479,49.505 354.396,49.505 353.349,49.505 353.149,49.505 
		350.391,49.505 304.953,49.505 304.754,49.505 256.558,49.505 256.358,49.505 208.163,49.505 207.963,49.505 159.768,49.505 
		159.568,49.505 111.373,49.505 111.173,49.505 64.088,49.505 62.978,49.505 62.878,49.505 62.878,49.705 62.978,49.705 
		64.088,49.705 111.173,49.705 111.373,49.705 159.568,49.705 159.768,49.705 207.963,49.705 208.163,49.705 256.358,49.705 
		256.558,49.705 304.754,49.705 304.953,49.705 351.982,49.705 355.988,49.705 400.666,49.705 403.675,49.705 444,49.705 
		449.334,49.705 451.348,49.705 496.341,49.705 500.82,49.705 546.729,49.705 546.729,49.605 546.729,49.505 500.441,49.505 	"/>
	<polygon points="546.729,1.31 546.729,46.352 546.729,49.505 546.729,49.605 546.729,49.705 546.729,95.656 546.729,97.564 
		546.729,97.649 546.729,97.675 546.729,98 546.929,98 546.929,97.772 546.929,97.756 546.929,96.042 546.929,49.605 
		546.929,46.352 546.929,1.21 546.829,1.21 546.729,1.21 	"/>
</g>
</svg>
