<?xml version="1.0" encoding="utf-8"?>
<!-- Generator: Adobe Illustrator 15.1.0, SVG Export Plug-In . SVG Version: 6.00 Build 0)  -->
<!DOCTYPE svg PUBLIC "-//W3C//DTD SVG 1.1 Tiny//EN" "http://www.w3.org/Graphics/SVG/1.1/DTD/svg11-tiny.dtd">
<svg version="1.1" baseProfile="tiny" id="Layer_1" xmlns="http://www.w3.org/2000/svg" xmlns:xlink="http://www.w3.org/1999/xlink"
	 x="0px" y="0px" width="315px" height="108px" viewBox="0 0 315 108" overflow="inherit" xml:space="preserve">
<line fill="none" stroke="#BFBFBF" stroke-miterlimit="10" x1="234" y1="27" x2="306" y2="27"/>
<line fill="none" stroke="#BFBFBF" stroke-miterlimit="10" x1="234" y1="45" x2="306" y2="45"/>
<line fill="none" stroke="#BFBFBF" stroke-miterlimit="10" x1="234" y1="63" x2="306" y2="63"/>
<line fill="none" stroke="#BFBFBF" stroke-miterlimit="10" x1="252" y1="9" x2="252" y2="81"/>
<line fill="none" stroke="#BFBFBF" stroke-miterlimit="10" x1="270" y1="9" x2="270" y2="81"/>
<line fill="none" stroke="#BFBFBF" stroke-miterlimit="10" x1="288" y1="9" x2="288" y2="81"/>
<line fill="none" stroke="#FF0000" stroke-miterlimit="10" x1="266.2" y1="9" x2="266.2" y2="81"/>
<line fill="none" stroke="#BFBFBF" stroke-miterlimit="10" x1="135" y1="85.5" x2="135" y2="81"/>
<line fill="none" stroke="#BFBFBF" stroke-miterlimit="10" x1="153" y1="85.5" x2="153" y2="81"/>
<line fill="none" stroke="#BFBFBF" stroke-miterlimit="10" x1="171" y1="85.5" x2="171" y2="81"/>
<line fill="none" stroke="#BFBFBF" stroke-miterlimit="10" x1="189" y1="85.5" x2="189" y2="81"/>
<line fill="none" stroke="#BFBFBF" stroke-miterlimit="10" x1="121.5" y1="18" x2="126" y2="18"/>
<line fill="none" stroke="#BFBFBF" stroke-miterlimit="10" x1="121.5" y1="36" x2="126" y2="36"/>
<line fill="none" stroke="#BFBFBF" stroke-miterlimit="10" x1="121.5" y1="54" x2="126" y2="54"/>
<line fill="none" stroke="#BFBFBF" stroke-miterlimit="10" x1="121.5" y1="72" x2="126" y2="72"/>
<line fill="none" stroke="#BFBFBF" stroke-miterlimit="10" x1="13.5" y1="81" x2="18" y2="81"/>
<line fill="none" stroke="#BFBFBF" stroke-miterlimit="10" x1="18" y1="85.5" x2="18" y2="81"/>
<line fill="none" stroke="#BFBFBF" stroke-miterlimit="10" x1="90" y1="85.5" x2="90" y2="81"/>
<line fill="none" stroke="#BFBFBF" stroke-miterlimit="10" x1="13.5" y1="9" x2="18" y2="9"/>
<line fill="none" stroke="#BFBFBF" stroke-miterlimit="10" x1="261" y1="85.5" x2="261" y2="81"/>
<line fill="none" stroke="#BFBFBF" stroke-miterlimit="10" x1="279" y1="85.5" x2="279" y2="81"/>
<line fill="none" stroke="#BFBFBF" stroke-miterlimit="10" x1="229.5" y1="36" x2="234" y2="36"/>
<line fill="none" stroke="#BFBFBF" stroke-miterlimit="10" x1="229.5" y1="54" x2="234" y2="54"/>
<rect x="18" y="9" fill="#FEBB00" width="18" height="18"/>
<rect x="36" y="9" fill="#FEBB00" width="18" height="18"/>
<rect x="54" y="9" fill="#FEBB00" width="18" height="18"/>
<rect x="72" y="9" fill="#FFD400" width="18" height="18"/>
<rect x="18" y="27" fill="#FEBB00" width="18" height="18"/>
<rect x="36" y="27" fill="#FFD400" width="18" height="18"/>
<rect x="54" y="27" fill="#2C2678" width="18" height="18"/>
<rect x="72" y="27" fill="#2C2678" width="18" height="18"/>
<rect x="18" y="45" fill="#FFD400" width="18" height="18"/>
<rect x="36" y="45" fill="#2C2678" width="18" height="18"/>
<rect x="54" y="45" fill="#9C99BF" width="18" height="18"/>
<rect x="72" y="45" fill="#FFFFFF" width="18" height="18"/>
<rect x="18" y="63" fill="#2C2678" width="18" height="18"/>
<rect x="36" y="63" fill="#9C99BF" width="18" height="18"/>
<rect x="54" y="63" fill="#FFFFFF" width="18" height="18"/>
<rect x="72" y="63" fill="#FFFFFF" width="18" height="18"/>
<rect x="18" y="9" fill="none" stroke="#231F20" stroke-miterlimit="10" width="72" height="72"/>
<g>
	<rect x="126" y="9" fill="none" stroke="#231F20" stroke-miterlimit="10" width="72" height="72"/>
	<line fill="none" stroke="#231F20" stroke-miterlimit="10" x1="126" y1="27" x2="198" y2="27"/>
	<line fill="none" stroke="#231F20" stroke-miterlimit="10" x1="126" y1="45" x2="198" y2="45"/>
	<line fill="none" stroke="#231F20" stroke-miterlimit="10" x1="126" y1="63" x2="198" y2="63"/>
	<line fill="none" stroke="#231F20" stroke-miterlimit="10" x1="144" y1="9" x2="144" y2="81"/>
	<line fill="none" stroke="#231F20" stroke-miterlimit="10" x1="162" y1="9" x2="162" y2="81"/>
	<line fill="none" stroke="#231F20" stroke-miterlimit="10" x1="180" y1="9" x2="180" y2="81"/>
</g>
<g>
	<circle fill="#808080" cx="153" cy="18" r="1.8"/>
	<circle fill="#808080" cx="135" cy="18" r="1.8"/>
	<circle fill="#808080" cx="171" cy="18" r="1.8"/>
	<circle fill="#808080" cx="189" cy="18" r="1.8"/>
	<circle fill="#808080" cx="153" cy="36" r="1.8"/>
	<circle fill="#808080" cx="135" cy="36" r="1.8"/>
	<circle fill="#808080" cx="171" cy="36" r="1.8"/>
	<circle fill="#808080" cx="189" cy="36" r="1.8"/>
	<circle fill="#808080" cx="153" cy="54" r="1.8"/>
	<circle fill="#808080" cx="135" cy="54" r="1.8"/>
	<circle fill="#808080" cx="171" cy="54" r="1.8"/>
	<circle fill="#808080" cx="189" cy="54" r="1.8"/>
	<circle fill="#808080" cx="153" cy="72" r="1.8"/>
	<circle fill="#808080" cx="135" cy="72" r="1.8"/>
	<circle fill="#808080" cx="171" cy="72" r="1.8"/>
	<circle fill="#808080" cx="189" cy="72" r="1.8"/>
</g>
<circle fill="#808080" cx="261" cy="36" r="1.8"/>
<circle fill="#808080" cx="261" cy="54" r="1.8"/>
<circle fill="#808080" cx="279" cy="54" r="1.8"/>
<line fill="none" stroke="#808080" stroke-miterlimit="10" x1="261" y1="54" x2="279" y2="54"/>
<text transform="matrix(0 1 -1 0 16 87)" fill="#808080" font-family="'Inconsolata'" font-size="6">0.0</text>
<text transform="matrix(0 1 -1 0 133 87)" fill="#808080" font-family="'Inconsolata'" font-size="6">0.125</text>
<text transform="matrix(0 1 -1 0 151 87)" fill="#808080" font-family="'Inconsolata'" font-size="6">0.375</text>
<text transform="matrix(0 1 -1 0 169 87)" fill="#808080" font-family="'Inconsolata'" font-size="6">0.625</text>
<text transform="matrix(0 1 -1 0 259 87)" fill="#808080" font-family="'Inconsolata'" font-size="6">0.375</text>
<text transform="matrix(0 1 -1 0 264.4004 87)" fill="#808080" font-family="'Inconsolata'" font-size="6">u</text>
<text transform="matrix(0 1 -1 0 277 87)" fill="#808080" font-family="'Inconsolata'" font-size="6">0.625</text>
<text transform="matrix(0 1 -1 0 187 87)" fill="#808080" font-family="'Inconsolata'" font-size="6">0.875</text>
<text transform="matrix(0 1 -1 0 88 87)" fill="#808080" font-family="'Inconsolata'" font-size="6">1.0</text>
<text transform="matrix(1 0 0 1 3 83)" fill="#808080" font-family="'Inconsolata'" font-size="6">0.0</text>
<text transform="matrix(1 0 0 1 105 74)" fill="#808080" font-family="'Inconsolata'" font-size="6">0.125</text>
<text transform="matrix(1 0 0 1 105 56)" fill="#808080" font-family="'Inconsolata'" font-size="6">0.375</text>
<text transform="matrix(1 0 0 1 105 38)" fill="#808080" font-family="'Inconsolata'" font-size="6">0.625</text>
<text transform="matrix(1 0 0 1 213 56)" fill="#808080" font-family="'Inconsolata'" font-size="6">0.375</text>
<text transform="matrix(1 0 0 1 213 38)" fill="#808080" font-family="'Inconsolata'" font-size="6">0.625</text>
<text transform="matrix(1 0 0 1 225 44.2002)" fill="#808080" font-family="'Inconsolata'" font-size="6">v</text>
<text transform="matrix(1 0 0 1 105 20)" fill="#808080" font-family="'Inconsolata'" font-size="6">0.875</text>
<text transform="matrix(1 0 0 1 3 11)" fill="#808080" font-family="'Inconsolata'" font-size="6">1.0</text>
<line fill="none" stroke="#00FF00" stroke-miterlimit="10" x1="234" y1="42.4" x2="306" y2="42.4"/>
<circle cx="266.2" cy="42.4" r="1.8"/>
<circle fill="#808080" cx="279" cy="36" r="1.8"/>
<line fill="none" stroke="#808080" stroke-miterlimit="10" x1="279" y1="54" x2="279" y2="36"/>
<line fill="none" stroke="#808080" stroke-miterlimit="10" x1="261" y1="36" x2="261" y2="54"/>
<line fill="none" stroke="#808080" stroke-miterlimit="10" x1="279" y1="36" x2="261" y2="36"/>
<rect x="234" y="9" fill="none" stroke="#231F20" stroke-miterlimit="10" width="72" height="72"/>
<line fill="none" stroke="#231F20" stroke-miterlimit="10" x1="266.2" y1="81" x2="266.2" y2="85.5"/>
<line fill="none" stroke="#231F20" stroke-miterlimit="10" x1="234" y1="42.4" x2="229.5" y2="42.4"/>
</svg>
