<?xml version="1.0" encoding="utf-8"?>
<!-- Generator: Adobe Illustrator 15.1.0, SVG Export Plug-In . SVG Version: 6.00 Build 0)  -->
<!DOCTYPE svg PUBLIC "-//W3C//DTD SVG 1.1 Tiny//EN" "http://www.w3.org/Graphics/SVG/1.1/DTD/svg11-tiny.dtd">
<svg version="1.1" baseProfile="tiny" id="Layer_1" xmlns="http://www.w3.org/2000/svg" xmlns:xlink="http://www.w3.org/1999/xlink"
	 x="0px" y="0px" width="512px" height="512px" viewBox="0 0 512 512" overflow="inherit" xml:space="preserve">
<g>
	<path fill="#FFFFEB" stroke="#000000" stroke-miterlimit="10" d="M121,265l175,30L117,167L121,265z"/>
	<path fill="#FFFFEB" stroke="#000000" stroke-miterlimit="10" d="M117,167l181,20L201,67L117,167z"/>
	<path fill="#FFFFEB" stroke="#000000" stroke-miterlimit="10" d="M382,247l-84-60l-2,108L382,247z"/>
	<path fill="#FFFFEB" stroke="#000000" stroke-miterlimit="10" d="M385,156l-87,31l84,60L385,156z"/>
	<path fill="#CC0000" stroke="#000000" d="M385,156L302,56l-4,131L385,156z"/>
	<path fill="#FFFFEB" stroke="#000000" stroke-miterlimit="10" d="M298,187l-181-20l179,128L298,187z"/>
	<path fill="#CC0000" stroke="#000000" d="M298,187l4-131L201,67L298,187z"/>
</g>
<g display="none">
	<line display="inline" fill="none" stroke="#BFBFBF" x1="225" y1="226" x2="382" y2="247"/>
	<line display="inline" fill="none" stroke="#BFBFBF" x1="225" y1="226" x2="121" y2="265"/>
	<line display="inline" fill="none" stroke="#BFBFBF" x1="225" y1="226" x2="224" y2="142"/>
	<line display="inline" fill="none" stroke="#000000" stroke-width="2" x1="382" y1="247" x2="385" y2="156"/>
	<line display="inline" fill="none" stroke="#000000" stroke-width="2" x1="382" y1="247" x2="296" y2="295"/>
	<line display="inline" fill="none" stroke="#000000" stroke-width="2" x1="121" y1="265" x2="296" y2="295"/>
	<line display="inline" fill="none" stroke="#000000" stroke-width="2" x1="121" y1="265" x2="117" y2="167"/>
	<line display="inline" fill="none" stroke="#000000" stroke-width="2" x1="385" y1="156" x2="302" y2="56"/>
	<line display="inline" fill="none" stroke="#000000" stroke-width="2" x1="385" y1="156" x2="298" y2="187"/>
	<line display="inline" fill="none" stroke="#BFBFBF" x1="224" y1="142" x2="117" y2="167"/>
	<line display="inline" fill="none" stroke="#BFBFBF" x1="224" y1="142" x2="302" y2="56"/>
	<line display="inline" fill="none" stroke="#000000" stroke-width="2" x1="296" y1="295" x2="298" y2="187"/>
	<line display="inline" fill="none" stroke="#000000" stroke-width="2" x1="117" y1="167" x2="201" y2="67"/>
	<line display="inline" fill="none" stroke="#000000" stroke-width="2" x1="201" y1="67" x2="302" y2="56"/>
	<line display="inline" fill="none" stroke="#000000" stroke-width="2" x1="201" y1="67" x2="298" y2="187"/>
</g>
<g display="none">
	<line display="inline" fill="none" stroke="#BFBFBF" x1="225" y1="226" x2="382" y2="247"/>
	<line display="inline" fill="none" stroke="#BFBFBF" x1="225" y1="226" x2="121" y2="265"/>
	<line display="inline" fill="none" stroke="#BFBFBF" x1="225" y1="226" x2="385" y2="156"/>
	<line display="inline" fill="none" stroke="#BFBFBF" x1="225" y1="226" x2="224" y2="142"/>
	<line display="inline" fill="none" stroke="#BFBFBF" x1="382" y1="247" x2="121" y2="265"/>
	<line display="inline" fill="none" stroke="#000000" stroke-width="2" x1="382" y1="247" x2="385" y2="156"/>
	<line display="inline" fill="none" stroke="#000000" stroke-width="2" x1="382" y1="247" x2="296" y2="295"/>
	<line display="inline" fill="none" stroke="#000000" stroke-width="2" x1="382" y1="247" x2="298" y2="187"/>
	<line display="inline" fill="none" stroke="#BFBFBF" x1="121" y1="265" x2="224" y2="142"/>
	<line display="inline" fill="none" stroke="#000000" stroke-width="2" x1="121" y1="265" x2="296" y2="295"/>
	<line display="inline" fill="none" stroke="#000000" stroke-width="2" x1="121" y1="265" x2="117" y2="167"/>
	<line display="inline" fill="none" stroke="#BFBFBF" x1="385" y1="156" x2="224" y2="142"/>
	<line display="inline" fill="none" stroke="#000000" stroke-width="2" x1="385" y1="156" x2="302" y2="56"/>
	<line display="inline" fill="none" stroke="#000000" stroke-width="2" x1="385" y1="156" x2="298" y2="187"/>
	<line display="inline" fill="none" stroke="#BFBFBF" x1="224" y1="142" x2="117" y2="167"/>
	<line display="inline" fill="none" stroke="#BFBFBF" x1="224" y1="142" x2="201" y2="67"/>
	<line display="inline" fill="none" stroke="#BFBFBF" x1="224" y1="142" x2="302" y2="56"/>
	<line display="inline" fill="none" stroke="#000000" stroke-width="2" x1="296" y1="295" x2="117" y2="167"/>
	<line display="inline" fill="none" stroke="#000000" stroke-width="2" x1="296" y1="295" x2="298" y2="187"/>
	<line display="inline" fill="none" stroke="#000000" stroke-width="2" x1="117" y1="167" x2="201" y2="67"/>
	<line display="inline" fill="none" stroke="#000000" stroke-width="2" x1="117" y1="167" x2="298" y2="187"/>
	<line display="inline" fill="none" stroke="#000000" stroke-width="2" x1="201" y1="67" x2="302" y2="56"/>
	<line display="inline" fill="none" stroke="#000000" stroke-width="2" x1="201" y1="67" x2="298" y2="187"/>
	<line display="inline" fill="none" stroke="#000000" stroke-width="2" x1="302" y1="56" x2="298" y2="187"/>
</g>
<g display="none">
	<g display="inline">
		<line fill="none" stroke="#BFBFBF" stroke-width="3" x1="225" y1="226" x2="225" y2="267"/>
		<g>
			<path fill="#BFBFBF" d="M225,276.053c-1.581-4.26-4.277-9.545-7.134-12.821l7.134,2.581l7.132-2.581
				C229.276,266.508,226.579,271.793,225,276.053z"/>
		</g>
	</g>
	<g display="inline">
		<line fill="none" stroke="#000000" stroke-width="3" x1="382" y1="247" x2="380" y2="291"/>
		<g>
			<path d="M379.589,300.043c-1.386-4.327-3.84-9.729-6.544-13.131l7.009,2.901l7.242-2.254
				C384.294,290.702,381.359,295.859,379.589,300.043z"/>
		</g>
	</g>
	<g display="inline">
		<line fill="none" stroke="#000000" stroke-width="3" x1="121" y1="265" x2="122" y2="312"/>
		<g>
			<path d="M122.192,321.051c-1.67-4.226-4.479-9.452-7.405-12.666l7.187,2.428l7.076-2.731
				C126.265,311.417,123.681,316.758,122.192,321.051z"/>
		</g>
	</g>
	<g display="inline">
		<line fill="none" stroke="#000000" stroke-width="3" x1="121" y1="265" x2="122" y2="312"/>
		<g>
			<path d="M122.192,321.051c-1.67-4.226-4.479-9.452-7.405-12.666l7.187,2.428l7.076-2.731
				C126.265,311.417,123.681,316.758,122.192,321.051z"/>
		</g>
	</g>
	<g display="inline">
		<line fill="none" stroke="#000000" stroke-width="3" x1="382" y1="247" x2="380" y2="291"/>
		<g>
			<path d="M379.589,300.043c-1.386-4.327-3.84-9.729-6.544-13.131l7.009,2.901l7.242-2.254
				C384.294,290.702,381.359,295.859,379.589,300.043z"/>
		</g>
	</g>
	<g display="inline">
		<line fill="none" stroke="#000000" stroke-width="3" x1="296" y1="295" x2="296" y2="347"/>
		<g>
			<path d="M296,356.053c-1.58-4.26-4.277-9.545-7.134-12.821l7.134,2.581l7.133-2.581C300.275,346.508,297.579,351.793,296,356.053
				z"/>
		</g>
	</g>
	<g display="inline">
		<line fill="none" stroke="#000000" stroke-width="3" x1="385" y1="156" x2="418" y2="124"/>
		<g>
			<path d="M424.499,117.698c-1.958,4.1-3.875,9.715-4.238,14.047l-3.113-6.917l-6.817-3.324
				C414.67,121.273,420.342,119.53,424.499,117.698z"/>
		</g>
	</g>
	<g display="inline">
		<line fill="none" stroke="#000000" stroke-width="3" x1="302" y1="56" x2="333" y2="23"/>
		<g>
			<path d="M339.198,16.402c-1.765,4.187-3.418,9.885-3.579,14.229l-3.433-6.765l-6.965-3.002
				C329.547,20.431,335.131,18.425,339.198,16.402z"/>
		</g>
	</g>
	<g display="inline">
		<line fill="none" stroke="#000000" stroke-width="3" x1="298" y1="187" x2="335" y2="150"/>
		<g>
			<path d="M341.401,143.599c-1.895,4.13-3.725,9.774-4.021,14.11l-3.22-6.869l-6.868-3.219
				C331.629,147.325,337.272,145.494,341.401,143.599z"/>
		</g>
	</g>
	<g display="inline">
		<line fill="none" stroke="#000000" stroke-width="3" x1="298" y1="187" x2="335" y2="150"/>
		<g>
			<path d="M341.401,143.599c-1.895,4.13-3.725,9.774-4.021,14.11l-3.22-6.869l-6.868-3.219
				C331.629,147.325,337.272,145.494,341.401,143.599z"/>
		</g>
	</g>
	<g display="inline">
		<line fill="none" stroke="#000000" stroke-width="3" x1="302" y1="56" x2="333" y2="23"/>
		<g>
			<path d="M339.198,16.402c-1.765,4.187-3.418,9.885-3.579,14.229l-3.433-6.765l-6.965-3.002
				C329.547,20.431,335.131,18.425,339.198,16.402z"/>
		</g>
	</g>
	<g display="inline">
		<line fill="none" stroke="#000000" stroke-width="3" x1="201" y1="67" x2="234" y2="28"/>
		<g>
			<path d="M239.848,21.089c-1.545,4.273-2.9,10.049-2.836,14.396l-3.779-6.578l-7.111-2.637
				C230.418,25.614,235.891,23.321,239.848,21.089z"/>
		</g>
	</g>
	<g display="inline">
		<line fill="none" stroke="#000000" stroke-width="3" x1="224" y1="142" x2="198" y2="110"/>
		<g>
			<path d="M192.292,102.974c3.913,2.309,9.338,4.71,13.622,5.452l-7.164,2.496l-3.908,6.5
				C194.992,113.078,193.752,107.276,192.292,102.974z"/>
		</g>
	</g>
	<g display="inline">
		<line fill="none" stroke="#000000" stroke-width="3" x1="201" y1="67" x2="168" y2="27"/>
		<g>
			<path d="M162.239,20.017c3.93,2.28,9.374,4.641,13.662,5.35l-7.145,2.549l-3.859,6.529
				C165.015,30.101,163.732,24.308,162.239,20.017z"/>
		</g>
	</g>
	<g display="inline">
		<line fill="none" stroke="#000000" stroke-width="3" x1="302" y1="56" x2="274" y2="22"/>
		<g>
			<path d="M268.245,15.012c3.928,2.284,9.369,4.649,13.657,5.362l-7.147,2.543l-3.865,6.526
				C271.012,25.098,269.734,19.304,268.245,15.012z"/>
		</g>
	</g>
	<g display="inline">
		<line fill="none" stroke="#000000" stroke-width="3" x1="117" y1="167" x2="87" y2="129"/>
		<g>
			<path d="M81.391,121.895c3.88,2.364,9.271,4.841,13.543,5.643l-7.198,2.396l-4,6.444
				C83.949,132.036,82.791,126.217,81.391,121.895z"/>
		</g>
	</g>
	<g display="inline">
		<line fill="none" stroke="#000000" stroke-width="3" x1="201" y1="67" x2="168" y2="27"/>
		<g>
			<path d="M162.239,20.017c3.93,2.28,9.374,4.641,13.662,5.35l-7.145,2.549l-3.859,6.529
				C165.015,30.101,163.732,24.308,162.239,20.017z"/>
		</g>
	</g>
	<g display="inline">
		<line fill="none" stroke="#BFBFBF" stroke-width="3" x1="224" y1="142" x2="198" y2="110"/>
		<g>
			<path fill="#BFBFBF" d="M192.292,102.974c3.913,2.309,9.338,4.71,13.622,5.452l-7.164,2.496l-3.908,6.5
				C194.992,113.078,193.752,107.276,192.292,102.974z"/>
		</g>
	</g>
	<g display="inline">
		<line fill="none" stroke="#000000" stroke-width="3" x1="382" y1="247" x2="426" y2="253"/>
		<g>
			<path d="M434.97,254.223c-4.435,0.991-10.035,2.949-13.667,5.336l3.521-6.72l-1.594-7.416
				C426.09,248.697,430.963,252.083,434.97,254.223z"/>
		</g>
	</g>
	<g display="inline">
		<line fill="none" stroke="#000000" stroke-width="3" x1="298" y1="187" x2="349" y2="192"/>
		<g>
			<path d="M358.01,192.883c-4.394,1.157-9.917,3.326-13.456,5.849l3.264-6.848l-1.872-7.35
				C348.928,187.696,353.924,190.896,358.01,192.883z"/>
		</g>
	</g>
	<g display="inline">
		<line fill="none" stroke="#000000" stroke-width="3" x1="296" y1="295" x2="346" y2="303"/>
		<g>
			<path d="M354.939,304.431c-4.456,0.888-10.102,2.715-13.787,5.019l3.675-6.637l-1.421-7.45
				C346.189,298.7,350.982,302.198,354.939,304.431z"/>
		</g>
	</g>
	<g display="inline">
		<line fill="none" stroke="#000000" stroke-width="3" x1="385" y1="156" x2="430" y2="159"/>
		<g>
			<path d="M439.032,159.602c-4.355,1.294-9.808,3.633-13.267,6.265l3.049-6.946l-2.1-7.288
				C429.793,154.701,434.888,157.743,439.032,159.602z"/>
		</g>
	</g>
	<g display="inline">
		<line fill="none" stroke="#000000" stroke-width="3" x1="298" y1="187" x2="349" y2="192"/>
		<g>
			<path d="M358.01,192.883c-4.394,1.157-9.917,3.326-13.456,5.849l3.264-6.848l-1.872-7.35
				C348.928,187.696,353.924,190.896,358.01,192.883z"/>
		</g>
	</g>
	<g display="inline">
		<line fill="none" stroke="#000000" stroke-width="3" x1="382" y1="247" x2="426" y2="253"/>
		<g>
			<path d="M434.97,254.223c-4.435,0.991-10.035,2.949-13.667,5.336l3.521-6.72l-1.594-7.416
				C426.09,248.697,430.963,252.083,434.97,254.223z"/>
		</g>
	</g>
	<g display="inline">
		<line fill="none" stroke="#000000" stroke-width="3" x1="225" y1="226" x2="247" y2="218"/>
		<g>
			<path d="M255.508,214.906c-3.463,2.941-7.509,7.282-9.611,11.086l-0.013-7.586l-4.863-5.821
				C245.076,214.15,250.965,214.878,255.508,214.906z"/>
		</g>
	</g>
	<g display="inline">
		<line fill="none" stroke="#000000" stroke-width="3" x1="385" y1="156" x2="403" y2="149"/>
		<g>
			<path d="M411.438,145.719c-3.397,3.017-7.346,7.446-9.364,11.296l-0.181-7.584l-4.99-5.712
				C400.991,145.193,406.895,145.791,411.438,145.719z"/>
		</g>
	</g>
	<g display="inline">
		<line fill="none" stroke="#000000" stroke-width="3" x1="382" y1="247" x2="399" y2="238"/>
		<g>
			<path d="M407.001,233.764c-3.025,3.39-6.435,8.247-7.993,12.304l-1.058-7.512l-5.618-5.096
				C396.564,234.451,402.497,234.362,407.001,233.764z"/>
		</g>
	</g>
	<g display="inline">
		<line fill="none" stroke="#000000" stroke-width="3" x1="121" y1="265" x2="89" y2="277"/>
		<g>
			<path d="M80.523,280.179c3.434-2.976,7.436-7.356,9.5-11.182l0.089,7.586l4.92,5.772
				C90.962,280.831,85.067,280.161,80.523,280.179z"/>
		</g>
	</g>
	<g display="inline">
		<line fill="none" stroke="#000000" stroke-width="3" x1="296" y1="295" x2="269" y2="310"/>
		<g>
			<path d="M261.087,314.396c2.956-3.45,6.266-8.375,7.743-12.463l1.208,7.489l5.72,4.981
				C271.507,313.499,265.577,313.708,261.087,314.396z"/>
		</g>
	</g>
	<g display="inline">
		<line fill="none" stroke="#000000" stroke-width="3" x1="117" y1="167" x2="84" y2="175"/>
		<g>
			<path d="M75.202,177.133c3.768-2.54,8.269-6.406,10.779-9.954l-0.827,7.541l4.188,6.324
				C85.486,179.04,79.714,177.664,75.202,177.133z"/>
		</g>
	</g>
	<g display="inline">
		<line fill="none" stroke="#000000" stroke-width="3" x1="224" y1="142" x2="246" y2="137"/>
		<g>
			<path d="M254.828,134.994c-3.804,2.485-8.36,6.287-10.921,9.798l0.936-7.528l-4.097-6.383
				C244.572,132.939,250.324,134.398,254.828,134.994z"/>
		</g>
	</g>
	<g display="inline">
		<line fill="none" stroke="#000000" stroke-width="3" x1="385" y1="156" x2="403" y2="149"/>
		<g>
			<path d="M411.438,145.719c-3.397,3.017-7.346,7.446-9.364,11.296l-0.181-7.584l-4.99-5.712
				C400.991,145.193,406.895,145.791,411.438,145.719z"/>
		</g>
	</g>
	<g display="inline">
		<line fill="none" stroke="#BFBFBF" stroke-width="3" x1="225" y1="226" x2="247" y2="218"/>
		<g>
			<path fill="#BFBFBF" d="M255.508,214.906c-3.463,2.941-7.509,7.282-9.611,11.086l-0.013-7.586l-4.863-5.821
				C245.076,214.15,250.965,214.878,255.508,214.906z"/>
		</g>
	</g>
	<g display="inline">
		<line fill="none" stroke="#000000" stroke-width="3" x1="117" y1="167" x2="84" y2="175"/>
		<g>
			<path d="M75.202,177.133c3.768-2.54,8.269-6.406,10.779-9.954l-0.827,7.541l4.188,6.324
				C85.486,179.04,79.714,177.664,75.202,177.133z"/>
		</g>
	</g>
	<g display="inline">
		<line fill="none" stroke="#000000" stroke-width="3" x1="298" y1="187" x2="270" y2="196"/>
		<g>
			<path d="M261.382,198.77c3.571-2.808,7.778-6.993,10.022-10.715l-0.273,7.582l4.64,6
				C271.777,199.92,265.92,198.97,261.382,198.77z"/>
		</g>
	</g>
	<g display="inline">
		<line fill="none" stroke="#000000" stroke-width="3" x1="201" y1="67" x2="169" y2="71"/>
		<g>
			<path d="M160.017,72.123c4.031-2.097,8.941-5.428,11.837-8.669l-1.676,7.398l3.445,6.757
				C170.019,75.182,164.44,73.162,160.017,72.123z"/>
		</g>
	</g>
	<g display="inline">
		<line fill="none" stroke="#000000" stroke-width="3" x1="298" y1="187" x2="270" y2="196"/>
		<g>
			<path d="M261.382,198.77c3.571-2.808,7.778-6.993,10.022-10.715l-0.273,7.582l4.64,6
				C271.777,199.92,265.92,198.97,261.382,198.77z"/>
		</g>
	</g>
	<g display="inline">
		<line fill="none" stroke="#000000" stroke-width="3" x1="117" y1="167" x2="84" y2="175"/>
		<g>
			<path d="M75.202,177.133c3.768-2.54,8.269-6.406,10.779-9.954l-0.827,7.541l4.188,6.324
				C85.486,179.04,79.714,177.664,75.202,177.133z"/>
		</g>
	</g>
	<g display="inline">
		<line fill="none" stroke="#000000" stroke-width="3" x1="296" y1="295" x2="269" y2="310"/>
		<g>
			<path d="M261.087,314.396c2.956-3.45,6.266-8.375,7.743-12.463l1.208,7.489l5.72,4.981
				C271.507,313.499,265.577,313.708,261.087,314.396z"/>
		</g>
	</g>
	<g display="inline">
		<line fill="none" stroke="#000000" stroke-width="3" x1="302" y1="56" x2="323" y2="54"/>
		<g>
			<path d="M332.012,53.142c-4.091,1.978-9.096,5.163-12.087,8.317l1.893-7.346l-3.245-6.856
				C322.104,49.79,327.622,51.974,332.012,53.142z"/>
		</g>
	</g>
	<g display="inline">
		<line fill="none" stroke="#000000" stroke-width="3" x1="385" y1="156" x2="403" y2="149"/>
		<g>
			<path d="M411.438,145.719c-3.397,3.017-7.346,7.446-9.364,11.296l-0.181-7.584l-4.99-5.712
				C400.991,145.193,406.895,145.791,411.438,145.719z"/>
		</g>
	</g>
	<g display="inline">
		<line fill="none" stroke="#BFBFBF" stroke-width="3" x1="224" y1="142" x2="246" y2="137"/>
		<g>
			<path fill="#BFBFBF" d="M254.828,134.994c-3.804,2.485-8.36,6.287-10.921,9.798l0.936-7.528l-4.097-6.383
				C244.572,132.939,250.324,134.398,254.828,134.994z"/>
		</g>
	</g>
	<g display="inline">
		<line fill="none" stroke="#000000" stroke-width="3" x1="121" y1="265" x2="82" y2="259"/>
		<g>
			<path d="M73.053,257.623c4.45-0.914,10.084-2.776,13.756-5.101l-3.635,6.659l1.466,7.441
				C81.836,263.301,77.022,259.832,73.053,257.623z"/>
		</g>
	</g>
	<g display="inline">
		<line fill="none" stroke="#000000" stroke-width="3" x1="224" y1="142" x2="188" y2="139"/>
		<g>
			<path d="M178.979,138.248c4.376-1.221,9.867-3.47,13.369-6.044l-3.164,6.895l1.979,7.322
				C188.135,143.302,183.092,140.176,178.979,138.248z"/>
		</g>
	</g>
	<g display="inline">
		<line fill="none" stroke="#BFBFBF" stroke-width="3" x1="225" y1="226" x2="190" y2="221"/>
		<g>
			<path fill="#BFBFBF" d="M181.038,219.72c4.44-0.962,10.054-2.884,13.701-5.249l-3.563,6.697l1.545,7.426
				C189.882,225.303,185.032,221.885,181.038,219.72z"/>
		</g>
	</g>
	<g display="inline">
		<line fill="none" stroke="#000000" stroke-width="3" x1="117" y1="167" x2="77" y2="163"/>
		<g>
			<path d="M67.992,162.099c4.396-1.149,9.923-3.306,13.467-5.823l-3.277,6.842l1.858,7.354
				C77.064,167.304,72.074,164.094,67.992,162.099z"/>
		</g>
	</g>
	<g display="inline">
		<line fill="none" stroke="#BFBFBF" stroke-width="3" x1="224" y1="142" x2="188" y2="139"/>
		<g>
			<path fill="#BFBFBF" d="M178.979,138.248c4.376-1.221,9.867-3.47,13.369-6.044l-3.164,6.895l1.979,7.322
				C188.135,143.302,183.092,140.176,178.979,138.248z"/>
		</g>
	</g>
	<g display="inline">
		<line fill="none" stroke="#000000" stroke-width="3" x1="121" y1="265" x2="82" y2="259"/>
		<g>
			<path d="M73.053,257.623c4.45-0.914,10.084-2.776,13.756-5.101l-3.635,6.659l1.466,7.441
				C81.836,263.301,77.022,259.832,73.053,257.623z"/>
		</g>
	</g>
</g>
<g>
	<g>
		<line fill="none" stroke="#FF0000" stroke-width="3" x1="256" y1="256" x2="298" y2="262"/>
		<g>
			<path fill="#FF0000" d="M306.962,263.28c-4.44,0.962-10.054,2.885-13.701,5.249l3.563-6.697l-1.546-7.426
				C298.117,257.697,302.968,261.114,306.962,263.28z"/>
		</g>
	</g>
	<g>
		<line fill="none" stroke="#008000" stroke-width="3" x1="256" y1="256" x2="256" y2="209"/>
		<g>
			<path fill="#008000" d="M256,199.947c1.58,4.26,4.277,9.545,7.134,12.821L256,210.188l-7.132,2.581
				C251.724,209.492,254.421,204.207,256,199.947z"/>
		</g>
	</g>
	<g>
		<line fill="none" stroke="#0000FF" stroke-width="3" x1="256" y1="256" x2="231" y2="267"/>
		<g>
			<path fill="#0000FF" d="M222.714,270.646c3.263-3.162,7.014-7.759,8.862-11.692l0.511,7.568l5.234,5.489
				C233.172,270.716,227.249,270.376,222.714,270.646z"/>
		</g>
	</g>
</g>
<g display="none">
	<circle display="inline" fill="#BFBFBF" cx="225" cy="226" r="7"/>
	<circle display="inline" cx="382" cy="247" r="7"/>
	<circle display="inline" cx="121" cy="265" r="7"/>
	<circle display="inline" cx="385" cy="156" r="7"/>
	<circle display="inline" fill="#BFBFBF" cx="224" cy="142" r="7"/>
	<circle display="inline" cx="296" cy="295" r="7"/>
	<circle display="inline" cx="117" cy="167" r="7"/>
	<circle display="inline" cx="201" cy="67" r="7"/>
	<circle display="inline" cx="302" cy="56" r="7"/>
	<circle display="inline" cx="298" cy="187" r="7"/>
</g>
</svg>
