<?xml version="1.0" encoding="utf-8"?>
<!-- Generator: Adobe Illustrator 15.1.0, SVG Export Plug-In . SVG Version: 6.00 Build 0)  -->
<!DOCTYPE svg PUBLIC "-//W3C//DTD SVG 1.1 Tiny//EN" "http://www.w3.org/Graphics/SVG/1.1/DTD/svg11-tiny.dtd">
<svg version="1.1" baseProfile="tiny" id="Layer_1" xmlns="http://www.w3.org/2000/svg" xmlns:xlink="http://www.w3.org/1999/xlink"
	 x="0px" y="0px" width="371.04px" height="341.041px" viewBox="67.992 15.012 371.04 341.041" overflow="inherit"
	 xml:space="preserve">
<g display="none">
	<path display="inline" fill="#FFFFEB" stroke="#000000" stroke-miterlimit="10" d="M121,265l175,30L117,167L121,265z"/>
	<path display="inline" fill="#FFFFEB" stroke="#000000" stroke-miterlimit="10" d="M117,167l181,20L201,67L117,167z"/>
	<path display="inline" fill="#FFFFEB" stroke="#000000" stroke-miterlimit="10" d="M382,247l-84-60l-2,108L382,247z"/>
	<path display="inline" fill="#FFFFEB" stroke="#000000" stroke-miterlimit="10" d="M385,156l-87,31l84,60L385,156z"/>
	<path display="inline" fill="#CC0000" stroke="#000000" d="M385,156L302,56l-4,131L385,156z"/>
	<path display="inline" fill="#FFFFEB" stroke="#000000" stroke-miterlimit="10" d="M298,187l-181-20l179,128L298,187z"/>
	<path display="inline" fill="#CC0000" stroke="#000000" d="M298,187l4-131L201,67L298,187z"/>
</g>
<g>
	<line fill="none" stroke="#BFBFBF" x1="225" y1="226" x2="382" y2="247"/>
	<line fill="none" stroke="#BFBFBF" x1="225" y1="226" x2="121" y2="265"/>
	<line fill="none" stroke="#BFBFBF" x1="225" y1="226" x2="224" y2="142"/>
	<line fill="none" stroke="#000000" stroke-width="2" x1="382" y1="247" x2="385" y2="156"/>
	<line fill="none" stroke="#000000" stroke-width="2" x1="382" y1="247" x2="296" y2="295"/>
	<line fill="none" stroke="#000000" stroke-width="2" x1="121" y1="265" x2="296" y2="295"/>
	<line fill="none" stroke="#000000" stroke-width="2" x1="121" y1="265" x2="117" y2="167"/>
	<line fill="none" stroke="#000000" stroke-width="2" x1="385" y1="156" x2="302" y2="56"/>
	<line fill="none" stroke="#000000" stroke-width="2" x1="385" y1="156" x2="298" y2="187"/>
	<line fill="none" stroke="#BFBFBF" x1="224" y1="142" x2="117" y2="167"/>
	<line fill="none" stroke="#BFBFBF" x1="224" y1="142" x2="302" y2="56"/>
	<line fill="none" stroke="#000000" stroke-width="2" x1="296" y1="295" x2="298" y2="187"/>
	<line fill="none" stroke="#000000" stroke-width="2" x1="117" y1="167" x2="201" y2="67"/>
	<line fill="none" stroke="#000000" stroke-width="2" x1="201" y1="67" x2="302" y2="56"/>
	<line fill="none" stroke="#000000" stroke-width="2" x1="201" y1="67" x2="298" y2="187"/>
</g>
<g display="none">
	<line display="inline" fill="none" stroke="#BFBFBF" x1="225" y1="226" x2="382" y2="247"/>
	<line display="inline" fill="none" stroke="#BFBFBF" x1="225" y1="226" x2="121" y2="265"/>
	<line display="inline" fill="none" stroke="#BFBFBF" x1="225" y1="226" x2="385" y2="156"/>
	<line display="inline" fill="none" stroke="#BFBFBF" x1="225" y1="226" x2="224" y2="142"/>
	<line display="inline" fill="none" stroke="#BFBFBF" x1="382" y1="247" x2="121" y2="265"/>
	<line display="inline" fill="none" stroke="#000000" stroke-width="2" x1="382" y1="247" x2="385" y2="156"/>
	<line display="inline" fill="none" stroke="#000000" stroke-width="2" x1="382" y1="247" x2="296" y2="295"/>
	<line display="inline" fill="none" stroke="#000000" stroke-width="2" x1="382" y1="247" x2="298" y2="187"/>
	<line display="inline" fill="none" stroke="#BFBFBF" x1="121" y1="265" x2="224" y2="142"/>
	<line display="inline" fill="none" stroke="#000000" stroke-width="2" x1="121" y1="265" x2="296" y2="295"/>
	<line display="inline" fill="none" stroke="#000000" stroke-width="2" x1="121" y1="265" x2="117" y2="167"/>
	<line display="inline" fill="none" stroke="#BFBFBF" x1="385" y1="156" x2="224" y2="142"/>
	<line display="inline" fill="none" stroke="#000000" stroke-width="2" x1="385" y1="156" x2="302" y2="56"/>
	<line display="inline" fill="none" stroke="#000000" stroke-width="2" x1="385" y1="156" x2="298" y2="187"/>
	<line display="inline" fill="none" stroke="#BFBFBF" x1="224" y1="142" x2="117" y2="167"/>
	<line display="inline" fill="none" stroke="#BFBFBF" x1="224" y1="142" x2="201" y2="67"/>
	<line display="inline" fill="none" stroke="#BFBFBF" x1="224" y1="142" x2="302" y2="56"/>
	<line display="inline" fill="none" stroke="#000000" stroke-width="2" x1="296" y1="295" x2="117" y2="167"/>
	<line display="inline" fill="none" stroke="#000000" stroke-width="2" x1="296" y1="295" x2="298" y2="187"/>
	<line display="inline" fill="none" stroke="#000000" stroke-width="2" x1="117" y1="167" x2="201" y2="67"/>
	<line display="inline" fill="none" stroke="#000000" stroke-width="2" x1="117" y1="167" x2="298" y2="187"/>
	<line display="inline" fill="none" stroke="#000000" stroke-width="2" x1="201" y1="67" x2="302" y2="56"/>
	<line display="inline" fill="none" stroke="#000000" stroke-width="2" x1="201" y1="67" x2="298" y2="187"/>
	<line display="inline" fill="none" stroke="#000000" stroke-width="2" x1="302" y1="56" x2="298" y2="187"/>
</g>
<g display="none">
	<g display="inline">
		<line fill="none" stroke="#BFBFBF" stroke-width="3" x1="225" y1="226" x2="225" y2="267"/>
		<g>
			<path fill="#BFBFBF" d="M225,276.053c-1.581-4.26-4.277-9.545-7.134-12.82l7.134,2.58l7.132-2.58
				C229.276,266.508,226.579,271.793,225,276.053z"/>
		</g>
	</g>
	<g display="inline">
		<line fill="none" stroke="#000000" stroke-width="3" x1="382" y1="247" x2="380" y2="291"/>
		<g>
			<path d="M379.589,300.043c-1.386-4.327-3.84-9.729-6.544-13.131l7.01,2.9l7.241-2.254
				C384.294,290.702,381.359,295.859,379.589,300.043z"/>
		</g>
	</g>
	<g display="inline">
		<line fill="none" stroke="#000000" stroke-width="3" x1="121" y1="265" x2="122" y2="312"/>
		<g>
			<path d="M122.192,321.051c-1.67-4.226-4.479-9.452-7.405-12.666l7.187,2.429l7.076-2.731
				C126.265,311.417,123.681,316.758,122.192,321.051z"/>
		</g>
	</g>
	<g display="inline">
		<line fill="none" stroke="#000000" stroke-width="3" x1="121" y1="265" x2="122" y2="312"/>
		<g>
			<path d="M122.192,321.051c-1.67-4.226-4.479-9.452-7.405-12.666l7.187,2.429l7.076-2.731
				C126.265,311.417,123.681,316.758,122.192,321.051z"/>
		</g>
	</g>
	<g display="inline">
		<line fill="none" stroke="#000000" stroke-width="3" x1="382" y1="247" x2="380" y2="291"/>
		<g>
			<path d="M379.589,300.043c-1.386-4.327-3.84-9.729-6.544-13.131l7.01,2.9l7.241-2.254
				C384.294,290.702,381.359,295.859,379.589,300.043z"/>
		</g>
	</g>
	<g display="inline">
		<line fill="none" stroke="#000000" stroke-width="3" x1="296" y1="295" x2="296" y2="347"/>
		<g>
			<path d="M296,356.053c-1.58-4.26-4.277-9.545-7.134-12.82l7.134,2.58l7.133-2.58C300.275,346.508,297.579,351.793,296,356.053z"
				/>
		</g>
	</g>
	<g display="inline">
		<line fill="none" stroke="#000000" stroke-width="3" x1="385" y1="156" x2="418" y2="124"/>
		<g>
			<path d="M424.499,117.698c-1.958,4.1-3.875,9.715-4.238,14.047l-3.112-6.917l-6.817-3.324
				C414.67,121.273,420.342,119.53,424.499,117.698z"/>
		</g>
	</g>
	<g display="inline">
		<line fill="none" stroke="#000000" stroke-width="3" x1="302" y1="56" x2="333" y2="23"/>
		<g>
			<path d="M339.198,16.402c-1.765,4.187-3.419,9.885-3.579,14.229l-3.434-6.765l-6.965-3.002
				C329.547,20.431,335.131,18.425,339.198,16.402z"/>
		</g>
	</g>
	<g display="inline">
		<line fill="none" stroke="#000000" stroke-width="3" x1="298" y1="187" x2="335" y2="150"/>
		<g>
			<path d="M341.4,143.599c-1.895,4.13-3.725,9.774-4.021,14.11l-3.22-6.869l-6.868-3.219
				C331.629,147.325,337.271,145.494,341.4,143.599z"/>
		</g>
	</g>
	<g display="inline">
		<line fill="none" stroke="#000000" stroke-width="3" x1="298" y1="187" x2="335" y2="150"/>
		<g>
			<path d="M341.4,143.599c-1.895,4.13-3.725,9.774-4.021,14.11l-3.22-6.869l-6.868-3.219
				C331.629,147.325,337.271,145.494,341.4,143.599z"/>
		</g>
	</g>
	<g display="inline">
		<line fill="none" stroke="#000000" stroke-width="3" x1="302" y1="56" x2="333" y2="23"/>
		<g>
			<path d="M339.198,16.402c-1.765,4.187-3.419,9.885-3.579,14.229l-3.434-6.765l-6.965-3.002
				C329.547,20.431,335.131,18.425,339.198,16.402z"/>
		</g>
	</g>
	<g display="inline">
		<line fill="none" stroke="#000000" stroke-width="3" x1="201" y1="67" x2="234" y2="28"/>
		<g>
			<path d="M239.848,21.089c-1.545,4.273-2.9,10.049-2.836,14.396l-3.779-6.578l-7.111-2.637
				C230.418,25.614,235.891,23.321,239.848,21.089z"/>
		</g>
	</g>
	<g display="inline">
		<line fill="none" stroke="#000000" stroke-width="3" x1="224" y1="142" x2="198" y2="110"/>
		<g>
			<path d="M192.292,102.974c3.913,2.309,9.338,4.71,13.622,5.452l-7.164,2.496l-3.908,6.5
				C194.992,113.078,193.752,107.276,192.292,102.974z"/>
		</g>
	</g>
	<g display="inline">
		<line fill="none" stroke="#000000" stroke-width="3" x1="201" y1="67" x2="168" y2="27"/>
		<g>
			<path d="M162.239,20.017c3.93,2.28,9.374,4.641,13.662,5.35l-7.145,2.549l-3.859,6.529
				C165.015,30.101,163.732,24.308,162.239,20.017z"/>
		</g>
	</g>
	<g display="inline">
		<line fill="none" stroke="#000000" stroke-width="3" x1="302" y1="56" x2="274" y2="22"/>
		<g>
			<path d="M268.245,15.012c3.928,2.284,9.368,4.649,13.657,5.362l-7.147,2.543l-3.864,6.526
				C271.012,25.098,269.734,19.304,268.245,15.012z"/>
		</g>
	</g>
	<g display="inline">
		<line fill="none" stroke="#000000" stroke-width="3" x1="117" y1="167" x2="87" y2="129"/>
		<g>
			<path d="M81.391,121.895c3.88,2.364,9.271,4.841,13.543,5.643l-7.198,2.396l-4,6.444
				C83.949,132.036,82.791,126.217,81.391,121.895z"/>
		</g>
	</g>
	<g display="inline">
		<line fill="none" stroke="#000000" stroke-width="3" x1="201" y1="67" x2="168" y2="27"/>
		<g>
			<path d="M162.239,20.017c3.93,2.28,9.374,4.641,13.662,5.35l-7.145,2.549l-3.859,6.529
				C165.015,30.101,163.732,24.308,162.239,20.017z"/>
		</g>
	</g>
	<g display="inline">
		<line fill="none" stroke="#BFBFBF" stroke-width="3" x1="224" y1="142" x2="198" y2="110"/>
		<g>
			<path fill="#BFBFBF" d="M192.292,102.974c3.913,2.309,9.338,4.71,13.622,5.452l-7.164,2.496l-3.908,6.5
				C194.992,113.078,193.752,107.276,192.292,102.974z"/>
		</g>
	</g>
	<g display="inline">
		<line fill="none" stroke="#000000" stroke-width="3" x1="382" y1="247" x2="426" y2="253"/>
		<g>
			<path d="M434.97,254.223c-4.435,0.991-10.035,2.949-13.667,5.335l3.521-6.72l-1.594-7.416
				C426.09,248.697,430.963,252.083,434.97,254.223z"/>
		</g>
	</g>
	<g display="inline">
		<line fill="none" stroke="#000000" stroke-width="3" x1="298" y1="187" x2="349" y2="192"/>
		<g>
			<path d="M358.01,192.883c-4.394,1.157-9.917,3.326-13.455,5.849l3.264-6.848l-1.873-7.35
				C348.928,187.696,353.924,190.896,358.01,192.883z"/>
		</g>
	</g>
	<g display="inline">
		<line fill="none" stroke="#000000" stroke-width="3" x1="296" y1="295" x2="346" y2="303"/>
		<g>
			<path d="M354.939,304.432c-4.457,0.887-10.103,2.715-13.787,5.019l3.675-6.638l-1.421-7.449
				C346.189,298.7,350.982,302.198,354.939,304.432z"/>
		</g>
	</g>
	<g display="inline">
		<line fill="none" stroke="#000000" stroke-width="3" x1="385" y1="156" x2="430" y2="159"/>
		<g>
			<path d="M439.032,159.602c-4.355,1.294-9.809,3.633-13.268,6.265l3.05-6.946l-2.101-7.288
				C429.793,154.701,434.888,157.743,439.032,159.602z"/>
		</g>
	</g>
	<g display="inline">
		<line fill="none" stroke="#000000" stroke-width="3" x1="298" y1="187" x2="349" y2="192"/>
		<g>
			<path d="M358.01,192.883c-4.394,1.157-9.917,3.326-13.455,5.849l3.264-6.848l-1.873-7.35
				C348.928,187.696,353.924,190.896,358.01,192.883z"/>
		</g>
	</g>
	<g display="inline">
		<line fill="none" stroke="#000000" stroke-width="3" x1="382" y1="247" x2="426" y2="253"/>
		<g>
			<path d="M434.97,254.223c-4.435,0.991-10.035,2.949-13.667,5.335l3.521-6.72l-1.594-7.416
				C426.09,248.697,430.963,252.083,434.97,254.223z"/>
		</g>
	</g>
	<g display="inline">
		<line fill="none" stroke="#000000" stroke-width="3" x1="225" y1="226" x2="247" y2="218"/>
		<g>
			<path d="M255.508,214.906c-3.463,2.941-7.509,7.282-9.611,11.086l-0.013-7.586l-4.863-5.821
				C245.076,214.15,250.965,214.878,255.508,214.906z"/>
		</g>
	</g>
	<g display="inline">
		<line fill="none" stroke="#000000" stroke-width="3" x1="385" y1="156" x2="403" y2="149"/>
		<g>
			<path d="M411.438,145.719c-3.396,3.017-7.346,7.446-9.363,11.296l-0.182-7.584l-4.989-5.712
				C400.991,145.193,406.895,145.791,411.438,145.719z"/>
		</g>
	</g>
	<g display="inline">
		<line fill="none" stroke="#000000" stroke-width="3" x1="382" y1="247" x2="399" y2="238"/>
		<g>
			<path d="M407.001,233.764c-3.025,3.39-6.435,8.247-7.993,12.304l-1.058-7.512l-5.618-5.096
				C396.564,234.451,402.497,234.362,407.001,233.764z"/>
		</g>
	</g>
	<g display="inline">
		<line fill="none" stroke="#000000" stroke-width="3" x1="121" y1="265" x2="89" y2="277"/>
		<g>
			<path d="M80.523,280.18c3.434-2.977,7.436-7.356,9.5-11.183l0.089,7.586l4.92,5.772C90.962,280.831,85.067,280.161,80.523,280.18
				z"/>
		</g>
	</g>
	<g display="inline">
		<line fill="none" stroke="#000000" stroke-width="3" x1="296" y1="295" x2="269" y2="310"/>
		<g>
			<path d="M261.087,314.396c2.956-3.45,6.267-8.375,7.743-12.463l1.208,7.488l5.72,4.981
				C271.507,313.499,265.577,313.708,261.087,314.396z"/>
		</g>
	</g>
	<g display="inline">
		<line fill="none" stroke="#000000" stroke-width="3" x1="117" y1="167" x2="84" y2="175"/>
		<g>
			<path d="M75.202,177.133c3.768-2.54,8.269-6.406,10.779-9.954l-0.827,7.541l4.188,6.324
				C85.486,179.04,79.714,177.664,75.202,177.133z"/>
		</g>
	</g>
	<g display="inline">
		<line fill="none" stroke="#000000" stroke-width="3" x1="224" y1="142" x2="246" y2="137"/>
		<g>
			<path d="M254.828,134.994c-3.804,2.485-8.36,6.287-10.921,9.798l0.936-7.528l-4.097-6.383
				C244.572,132.939,250.324,134.398,254.828,134.994z"/>
		</g>
	</g>
	<g display="inline">
		<line fill="none" stroke="#000000" stroke-width="3" x1="385" y1="156" x2="403" y2="149"/>
		<g>
			<path d="M411.438,145.719c-3.396,3.017-7.346,7.446-9.363,11.296l-0.182-7.584l-4.989-5.712
				C400.991,145.193,406.895,145.791,411.438,145.719z"/>
		</g>
	</g>
	<g display="inline">
		<line fill="none" stroke="#BFBFBF" stroke-width="3" x1="225" y1="226" x2="247" y2="218"/>
		<g>
			<path fill="#BFBFBF" d="M255.508,214.906c-3.463,2.941-7.509,7.282-9.611,11.086l-0.013-7.586l-4.863-5.821
				C245.076,214.15,250.965,214.878,255.508,214.906z"/>
		</g>
	</g>
	<g display="inline">
		<line fill="none" stroke="#000000" stroke-width="3" x1="117" y1="167" x2="84" y2="175"/>
		<g>
			<path d="M75.202,177.133c3.768-2.54,8.269-6.406,10.779-9.954l-0.827,7.541l4.188,6.324
				C85.486,179.04,79.714,177.664,75.202,177.133z"/>
		</g>
	</g>
	<g display="inline">
		<line fill="none" stroke="#000000" stroke-width="3" x1="298" y1="187" x2="270" y2="196"/>
		<g>
			<path d="M261.382,198.77c3.571-2.808,7.778-6.993,10.022-10.715l-0.273,7.582l4.641,6
				C271.777,199.92,265.92,198.97,261.382,198.77z"/>
		</g>
	</g>
	<g display="inline">
		<line fill="none" stroke="#000000" stroke-width="3" x1="201" y1="67" x2="169" y2="71"/>
		<g>
			<path d="M160.017,72.123c4.031-2.097,8.941-5.428,11.837-8.669l-1.676,7.398l3.445,6.757
				C170.019,75.182,164.44,73.162,160.017,72.123z"/>
		</g>
	</g>
	<g display="inline">
		<line fill="none" stroke="#000000" stroke-width="3" x1="298" y1="187" x2="270" y2="196"/>
		<g>
			<path d="M261.382,198.77c3.571-2.808,7.778-6.993,10.022-10.715l-0.273,7.582l4.641,6
				C271.777,199.92,265.92,198.97,261.382,198.77z"/>
		</g>
	</g>
	<g display="inline">
		<line fill="none" stroke="#000000" stroke-width="3" x1="117" y1="167" x2="84" y2="175"/>
		<g>
			<path d="M75.202,177.133c3.768-2.54,8.269-6.406,10.779-9.954l-0.827,7.541l4.188,6.324
				C85.486,179.04,79.714,177.664,75.202,177.133z"/>
		</g>
	</g>
	<g display="inline">
		<line fill="none" stroke="#000000" stroke-width="3" x1="296" y1="295" x2="269" y2="310"/>
		<g>
			<path d="M261.087,314.396c2.956-3.45,6.267-8.375,7.743-12.463l1.208,7.488l5.72,4.981
				C271.507,313.499,265.577,313.708,261.087,314.396z"/>
		</g>
	</g>
	<g display="inline">
		<line fill="none" stroke="#000000" stroke-width="3" x1="302" y1="56" x2="323" y2="54"/>
		<g>
			<path d="M332.012,53.142c-4.091,1.978-9.096,5.163-12.087,8.317l1.894-7.346l-3.245-6.856
				C322.104,49.79,327.622,51.974,332.012,53.142z"/>
		</g>
	</g>
	<g display="inline">
		<line fill="none" stroke="#000000" stroke-width="3" x1="385" y1="156" x2="403" y2="149"/>
		<g>
			<path d="M411.438,145.719c-3.396,3.017-7.346,7.446-9.363,11.296l-0.182-7.584l-4.989-5.712
				C400.991,145.193,406.895,145.791,411.438,145.719z"/>
		</g>
	</g>
	<g display="inline">
		<line fill="none" stroke="#BFBFBF" stroke-width="3" x1="224" y1="142" x2="246" y2="137"/>
		<g>
			<path fill="#BFBFBF" d="M254.828,134.994c-3.804,2.485-8.36,6.287-10.921,9.798l0.936-7.528l-4.097-6.383
				C244.572,132.939,250.324,134.398,254.828,134.994z"/>
		</g>
	</g>
	<g display="inline">
		<line fill="none" stroke="#000000" stroke-width="3" x1="121" y1="265" x2="82" y2="259"/>
		<g>
			<path d="M73.053,257.623c4.45-0.914,10.084-2.776,13.756-5.101l-3.635,6.66l1.466,7.44
				C81.836,263.301,77.022,259.832,73.053,257.623z"/>
		</g>
	</g>
	<g display="inline">
		<line fill="none" stroke="#000000" stroke-width="3" x1="224" y1="142" x2="188" y2="139"/>
		<g>
			<path d="M178.979,138.248c4.376-1.221,9.867-3.47,13.369-6.044l-3.164,6.895l1.979,7.322
				C188.135,143.302,183.092,140.176,178.979,138.248z"/>
		</g>
	</g>
	<g display="inline">
		<line fill="none" stroke="#BFBFBF" stroke-width="3" x1="225" y1="226" x2="190" y2="221"/>
		<g>
			<path fill="#BFBFBF" d="M181.038,219.72c4.44-0.962,10.054-2.884,13.701-5.249l-3.563,6.697l1.545,7.426
				C189.882,225.303,185.032,221.885,181.038,219.72z"/>
		</g>
	</g>
	<g display="inline">
		<line fill="none" stroke="#000000" stroke-width="3" x1="117" y1="167" x2="77" y2="163"/>
		<g>
			<path d="M67.992,162.099c4.396-1.149,9.923-3.306,13.467-5.823l-3.277,6.842l1.858,7.354
				C77.064,167.304,72.074,164.094,67.992,162.099z"/>
		</g>
	</g>
	<g display="inline">
		<line fill="none" stroke="#BFBFBF" stroke-width="3" x1="224" y1="142" x2="188" y2="139"/>
		<g>
			<path fill="#BFBFBF" d="M178.979,138.248c4.376-1.221,9.867-3.47,13.369-6.044l-3.164,6.895l1.979,7.322
				C188.135,143.302,183.092,140.176,178.979,138.248z"/>
		</g>
	</g>
	<g display="inline">
		<line fill="none" stroke="#000000" stroke-width="3" x1="121" y1="265" x2="82" y2="259"/>
		<g>
			<path d="M73.053,257.623c4.45-0.914,10.084-2.776,13.756-5.101l-3.635,6.66l1.466,7.44
				C81.836,263.301,77.022,259.832,73.053,257.623z"/>
		</g>
	</g>
</g>
<g display="none">
	<g display="inline">
		<line fill="none" stroke="#FF0000" stroke-width="3" x1="256" y1="256" x2="298" y2="262"/>
		<g>
			<path fill="#FF0000" d="M306.962,263.279c-4.44,0.963-10.054,2.886-13.7,5.25l3.562-6.697l-1.547-7.426
				C298.117,257.697,302.968,261.114,306.962,263.279z"/>
		</g>
	</g>
	<g display="inline">
		<line fill="none" stroke="#008000" stroke-width="3" x1="256" y1="256" x2="256" y2="209"/>
		<g>
			<path fill="#008000" d="M256,199.947c1.58,4.26,4.277,9.545,7.134,12.821l-7.134-2.58l-7.132,2.581
				C251.724,209.492,254.421,204.207,256,199.947z"/>
		</g>
	</g>
	<g display="inline">
		<line fill="none" stroke="#0000FF" stroke-width="3" x1="256" y1="256" x2="231" y2="267"/>
		<g>
			<path fill="#0000FF" d="M222.714,270.646c3.263-3.162,7.014-7.76,8.862-11.692l0.511,7.567l5.234,5.49
				C233.172,270.716,227.249,270.376,222.714,270.646z"/>
		</g>
	</g>
</g>
<g>
	<circle fill="#BFBFBF" cx="225" cy="226" r="7"/>
	<circle cx="382" cy="247" r="7"/>
	<circle cx="121" cy="265" r="7"/>
	<circle cx="385" cy="156" r="7"/>
	<circle fill="#BFBFBF" cx="224" cy="142" r="7"/>
	<circle cx="296" cy="295" r="7"/>
	<circle cx="117" cy="167" r="7"/>
	<circle cx="201" cy="67" r="7"/>
	<circle cx="302" cy="56" r="7"/>
	<circle cx="298" cy="187" r="7"/>
</g>
<g>
	<g>
		<path fill="none" stroke="#FFFFFF" stroke-width="4" stroke-miterlimit="10" d="M244.292,222.048
			c-0.752,1.168-1.42,2.417-2.004,3.744c-0.584,1.328-1.06,2.696-1.428,4.104c-0.368,1.408-0.592,2.776-0.672,4.104h-2.28
			c0.096-1.44,0.332-2.844,0.708-4.212c0.375-1.368,0.86-2.68,1.452-3.936c0.592-1.256,1.276-2.444,2.052-3.564
			c0.776-1.12,1.612-2.152,2.508-3.096H235.7v-1.92h11.016v1.752C245.852,219.872,245.044,220.88,244.292,222.048z"/>
	</g>
	<g>
		<path fill="none" stroke="#FFFFFF" stroke-width="4" stroke-miterlimit="10" d="M393.967,238.968
			c0.272-0.536,0.641-0.987,1.104-1.356c0.464-0.368,0.996-0.648,1.597-0.84c0.6-0.192,1.227-0.288,1.883-0.288
			c0.929,0,1.721,0.124,2.377,0.372c0.656,0.249,1.188,0.576,1.596,0.984c0.408,0.408,0.708,0.873,0.9,1.392
			c0.191,0.52,0.287,1.052,0.287,1.596c0,0.768-0.212,1.468-0.635,2.1c-0.425,0.632-0.996,1.108-1.717,1.428
			c1.023,0.32,1.784,0.844,2.28,1.572c0.495,0.728,0.743,1.62,0.743,2.676c0,0.832-0.147,1.568-0.443,2.208
			c-0.297,0.64-0.695,1.18-1.199,1.62c-0.505,0.44-1.102,0.772-1.789,0.996c-0.688,0.224-1.424,0.336-2.207,0.336
			c-0.816,0-1.576-0.104-2.281-0.312c-0.703-0.208-1.315-0.528-1.836-0.96c-0.52-0.432-0.928-0.972-1.224-1.62
			s-0.444-1.404-0.444-2.268c0-1.008,0.256-1.884,0.769-2.628c0.512-0.744,1.248-1.284,2.208-1.62
			c-0.721-0.288-1.296-0.756-1.729-1.404c-0.432-0.648-0.647-1.356-0.647-2.124C393.56,240.124,393.695,239.504,393.967,238.968z
			 M396.14,251.112c0.68,0.584,1.548,0.876,2.604,0.876c0.512,0,0.979-0.084,1.403-0.252c0.424-0.168,0.792-0.399,1.104-0.696
			c0.312-0.296,0.552-0.644,0.72-1.044s0.252-0.84,0.252-1.32c0-0.464-0.093-0.892-0.276-1.284s-0.436-0.732-0.756-1.02
			s-0.692-0.516-1.115-0.684c-0.425-0.168-0.877-0.252-1.356-0.252c-0.497,0-0.964,0.076-1.404,0.228
			c-0.44,0.152-0.824,0.372-1.151,0.66c-0.328,0.288-0.585,0.632-0.769,1.032c-0.185,0.4-0.276,0.848-0.276,1.344
			C395.119,249.724,395.459,250.528,396.14,251.112z M395.959,242.112c0.16,0.344,0.377,0.628,0.648,0.852
			c0.271,0.225,0.592,0.393,0.96,0.504c0.368,0.112,0.76,0.168,1.177,0.168c0.815,0,1.487-0.24,2.016-0.72
			c0.527-0.48,0.791-1.152,0.791-2.016c0-0.864-0.268-1.516-0.803-1.956c-0.537-0.44-1.221-0.66-2.053-0.66
			c-0.4,0-0.783,0.056-1.152,0.168c-0.367,0.112-0.684,0.28-0.947,0.504s-0.477,0.496-0.637,0.816
			c-0.16,0.32-0.239,0.696-0.239,1.128C395.72,241.364,395.799,241.768,395.959,242.112z"/>
	</g>
	<g>
		<path fill="none" stroke="#FFFFFF" stroke-width="4" stroke-miterlimit="10" d="M132.32,259.607
			c0.224-0.736,0.572-1.371,1.044-1.908c0.472-0.535,1.06-0.955,1.764-1.26c0.704-0.304,1.504-0.456,2.4-0.456
			c0.736,0,1.428,0.108,2.076,0.324c0.648,0.216,1.212,0.528,1.692,0.937c0.48,0.407,0.86,0.916,1.14,1.523
			c0.28,0.608,0.42,1.312,0.42,2.111c0,0.753-0.116,1.416-0.348,1.992s-0.54,1.092-0.924,1.549c-0.384,0.455-0.824,0.867-1.32,1.235
			c-0.496,0.368-1.008,0.72-1.536,1.056c-0.528,0.32-1.056,0.637-1.584,0.949c-0.528,0.312-1.012,0.644-1.452,0.995
			c-0.44,0.353-0.816,0.732-1.128,1.14c-0.312,0.408-0.516,0.877-0.612,1.404h8.736V273h-11.112c0.08-1.008,0.26-1.868,0.54-2.58
			c0.279-0.713,0.636-1.332,1.068-1.86s0.92-0.991,1.464-1.392s1.112-0.776,1.704-1.129c0.72-0.447,1.352-0.859,1.896-1.235
			s0.996-0.757,1.356-1.14c0.36-0.385,0.632-0.801,0.816-1.248c0.184-0.448,0.276-0.969,0.276-1.561c0-0.464-0.088-0.884-0.264-1.26
			c-0.176-0.376-0.412-0.699-0.708-0.973c-0.296-0.271-0.645-0.479-1.044-0.623c-0.4-0.145-0.824-0.217-1.272-0.217
			c-0.592,0-1.101,0.125-1.524,0.372c-0.424,0.249-0.772,0.572-1.044,0.972c-0.272,0.4-0.468,0.853-0.588,1.356
			s-0.172,1.013-0.156,1.524h-2.04C132.008,261.144,132.096,260.344,132.32,259.607z"/>
	</g>
	<g>
		<path fill="none" stroke="#FFFFFF" stroke-width="4" stroke-miterlimit="10" d="M399.225,160.316
			c0.592,0.448,1.295,0.672,2.111,0.672c1.248,0,2.184-0.54,2.809-1.62c0.623-1.08,0.967-2.732,1.031-4.956l-0.048-0.048
			c-0.384,0.72-0.929,1.292-1.632,1.716c-0.704,0.424-1.473,0.636-2.305,0.636c-0.863,0-1.631-0.14-2.303-0.42
			c-0.673-0.28-1.236-0.668-1.693-1.164c-0.455-0.496-0.8-1.096-1.031-1.8c-0.232-0.704-0.348-1.472-0.348-2.304
			c0-0.816,0.135-1.563,0.408-2.244c0.271-0.68,0.655-1.264,1.151-1.752c0.495-0.488,1.088-0.868,1.776-1.14
			c0.688-0.272,1.439-0.408,2.256-0.408c0.8,0,1.552,0.124,2.256,0.372c0.703,0.249,1.32,0.676,1.848,1.284
			c0.528,0.608,0.948,1.436,1.26,2.484c0.312,1.048,0.469,2.38,0.469,3.996c0,2.944-0.469,5.204-1.404,6.78
			c-0.936,1.576-2.436,2.364-4.5,2.364c-1.424,0-2.607-0.36-3.552-1.08c-0.944-0.72-1.48-1.816-1.608-3.288h2.04
			C398.296,159.228,398.632,159.868,399.225,160.316z M404.588,149.684c-0.152-0.464-0.376-0.876-0.672-1.236
			c-0.297-0.36-0.66-0.644-1.092-0.852s-0.936-0.312-1.512-0.312c-0.609,0-1.125,0.112-1.549,0.336s-0.768,0.524-1.031,0.9
			c-0.265,0.376-0.457,0.804-0.576,1.284c-0.12,0.48-0.18,0.984-0.18,1.512c0,0.464,0.084,0.912,0.252,1.344
			c0.168,0.432,0.399,0.816,0.695,1.152s0.648,0.604,1.057,0.804s0.859,0.3,1.355,0.3c0.527,0,1.008-0.1,1.439-0.3
			c0.433-0.2,0.801-0.472,1.104-0.816c0.304-0.344,0.536-0.744,0.696-1.2s0.24-0.932,0.24-1.428
			C404.816,150.644,404.74,150.148,404.588,149.684z"/>
	</g>
	<g>
		<path fill="none" stroke="#FFFFFF" stroke-width="4" stroke-miterlimit="10" d="M243.048,135.48
			c-0.496-0.464-1.152-0.696-1.968-0.696c-0.864,0-1.56,0.212-2.088,0.636c-0.528,0.424-0.94,0.96-1.236,1.608s-0.5,1.348-0.612,2.1
			c-0.112,0.752-0.176,1.456-0.192,2.112l0.048,0.048c0.48-0.784,1.076-1.352,1.788-1.704c0.711-0.352,1.532-0.528,2.46-0.528
			c0.816,0,1.548,0.14,2.196,0.42c0.648,0.28,1.192,0.668,1.632,1.164c0.44,0.496,0.78,1.08,1.02,1.752
			c0.24,0.672,0.36,1.4,0.36,2.184c0,0.624-0.096,1.272-0.288,1.944s-0.508,1.284-0.948,1.836c-0.44,0.552-1.024,1.008-1.752,1.368
			c-0.728,0.36-1.628,0.54-2.7,0.54c-1.264,0-2.28-0.256-3.048-0.768c-0.768-0.512-1.36-1.168-1.776-1.968
			c-0.416-0.8-0.692-1.68-0.828-2.64c-0.136-0.96-0.204-1.888-0.204-2.784c0-1.168,0.1-2.3,0.3-3.396
			c0.2-1.096,0.54-2.068,1.02-2.916c0.48-0.848,1.12-1.528,1.92-2.04c0.8-0.512,1.808-0.768,3.024-0.768
			c1.408,0,2.528,0.372,3.36,1.116c0.832,0.744,1.312,1.82,1.44,3.228h-2.04C243.84,136.56,243.544,135.944,243.048,135.48z
			 M239.352,141.156c-0.432,0.201-0.8,0.472-1.104,0.816c-0.304,0.344-0.532,0.752-0.684,1.224c-0.152,0.472-0.228,0.972-0.228,1.5
			c0,0.528,0.08,1.024,0.24,1.488c0.16,0.464,0.388,0.864,0.684,1.2c0.296,0.336,0.664,0.604,1.104,0.804c0.44,0.2,0.94,0.3,1.5,0.3
			s1.052-0.1,1.476-0.3c0.424-0.2,0.78-0.476,1.068-0.828c0.288-0.352,0.507-0.756,0.66-1.212c0.152-0.456,0.228-0.932,0.228-1.428
			c0-0.528-0.068-1.028-0.204-1.5c-0.136-0.472-0.348-0.88-0.636-1.224c-0.288-0.344-0.648-0.62-1.08-0.828
			c-0.432-0.208-0.936-0.312-1.512-0.312C240.288,140.856,239.784,140.956,239.352,141.156z"/>
	</g>
	<g>
		<path fill="none" stroke="#FFFFFF" stroke-width="4" stroke-miterlimit="10" d="M311.448,293.304c0.079,0,0.159,0,0.239,0h0.433
			c0.432,0,0.844-0.06,1.235-0.181c0.393-0.119,0.736-0.295,1.033-0.527c0.295-0.232,0.531-0.523,0.707-0.876s0.264-0.752,0.264-1.2
			c0-0.912-0.287-1.596-0.863-2.053c-0.576-0.455-1.296-0.684-2.16-0.684c-0.544,0-1.02,0.101-1.428,0.301
			c-0.408,0.199-0.744,0.467-1.008,0.804c-0.264,0.336-0.461,0.728-0.588,1.176c-0.129,0.448-0.192,0.921-0.192,1.416h-2.04
			c0.031-0.815,0.164-1.56,0.396-2.231c0.23-0.672,0.563-1.248,0.996-1.729c0.432-0.48,0.971-0.855,1.619-1.128
			s1.396-0.408,2.244-0.408c0.736,0,1.42,0.093,2.053,0.276c0.631,0.184,1.18,0.46,1.644,0.828c0.464,0.367,0.827,0.84,1.092,1.416
			s0.396,1.256,0.396,2.039c0,0.769-0.224,1.449-0.672,2.041c-0.447,0.592-1.008,1.039-1.68,1.344v0.048
			c1.04,0.224,1.812,0.712,2.316,1.464s0.756,1.641,0.756,2.664c0,0.848-0.156,1.596-0.469,2.244
			c-0.312,0.648-0.731,1.188-1.26,1.619c-0.527,0.433-1.148,0.757-1.859,0.973c-0.713,0.216-1.469,0.324-2.269,0.324
			c-0.864,0-1.647-0.12-2.352-0.36c-0.704-0.239-1.305-0.596-1.8-1.067c-0.496-0.473-0.877-1.053-1.141-1.74
			s-0.388-1.473-0.371-2.352h2.039c0.032,1.104,0.352,2.004,0.961,2.699c0.607,0.696,1.495,1.044,2.663,1.044
			c0.496,0,0.968-0.075,1.416-0.228s0.841-0.368,1.177-0.648c0.336-0.279,0.604-0.624,0.803-1.031
			c0.201-0.408,0.301-0.868,0.301-1.381c0-0.527-0.096-0.996-0.288-1.404c-0.192-0.407-0.448-0.752-0.769-1.031
			s-0.699-0.488-1.14-0.624s-0.916-0.204-1.428-0.204c-0.433,0-0.84,0.023-1.224,0.072v-1.729
			C311.312,293.295,311.384,293.304,311.448,293.304z"/>
	</g>
	<g>
		<path fill="none" stroke="#FFFFFF" stroke-width="4" stroke-miterlimit="10" d="M133.504,175v-12.192h-4.416v-1.632
			c0.576,0,1.136-0.043,1.68-0.132c0.543-0.088,1.036-0.252,1.476-0.492c0.44-0.24,0.812-0.567,1.116-0.984
			c0.304-0.416,0.512-0.944,0.624-1.584h1.56V175H133.504z"/>
	</g>
	<g>
		<path fill="none" stroke="#FFFFFF" stroke-width="4" stroke-miterlimit="10" d="M212.056,64.704
			c0.032-0.672,0.112-1.328,0.24-1.968c0.128-0.64,0.312-1.248,0.552-1.824c0.24-0.576,0.567-1.08,0.984-1.512
			c0.416-0.432,0.94-0.776,1.572-1.032s1.388-0.384,2.268-0.384s1.636,0.128,2.268,0.384c0.632,0.256,1.156,0.6,1.572,1.032
			c0.416,0.432,0.744,0.936,0.984,1.512c0.24,0.576,0.424,1.184,0.552,1.824c0.128,0.64,0.208,1.296,0.24,1.968
			c0.032,0.672,0.048,1.32,0.048,1.944s-0.016,1.272-0.048,1.944c-0.032,0.672-0.112,1.329-0.24,1.968
			c-0.128,0.64-0.312,1.244-0.552,1.812c-0.24,0.568-0.568,1.068-0.984,1.5c-0.417,0.432-0.936,0.772-1.56,1.02
			c-0.624,0.248-1.384,0.372-2.28,0.372c-0.88,0-1.636-0.125-2.268-0.372c-0.632-0.248-1.156-0.588-1.572-1.02
			c-0.417-0.432-0.744-0.932-0.984-1.5c-0.24-0.568-0.424-1.172-0.552-1.812c-0.128-0.64-0.208-1.296-0.24-1.968
			c-0.032-0.672-0.048-1.32-0.048-1.944S212.024,65.376,212.056,64.704z M214.228,68.772c0.04,0.792,0.168,1.536,0.384,2.232
			c0.216,0.696,0.564,1.284,1.044,1.764c0.48,0.48,1.152,0.72,2.016,0.72c0.864,0,1.536-0.24,2.016-0.72s0.828-1.068,1.044-1.764
			c0.216-0.696,0.344-1.44,0.384-2.232c0.04-0.792,0.06-1.508,0.06-2.148c0-0.416-0.004-0.876-0.012-1.38
			c-0.008-0.504-0.048-1.008-0.12-1.512c-0.072-0.504-0.176-0.996-0.312-1.476c-0.136-0.48-0.336-0.9-0.6-1.26
			c-0.264-0.36-0.596-0.652-0.996-0.876c-0.4-0.224-0.888-0.336-1.464-0.336c-0.576,0-1.064,0.112-1.464,0.336
			s-0.732,0.516-0.996,0.876c-0.264,0.36-0.464,0.78-0.6,1.26s-0.24,0.972-0.312,1.476c-0.072,0.504-0.112,1.008-0.12,1.512
			c-0.008,0.504-0.012,0.964-0.012,1.38C214.168,67.264,214.188,67.98,214.228,68.772z"/>
	</g>
	<g>
		<path fill="none" stroke="#FFFFFF" stroke-width="4" stroke-miterlimit="10" d="M317.916,49.072l-0.912,4.896l0.048,0.048
			c0.368-0.416,0.844-0.724,1.429-0.924c0.584-0.2,1.164-0.3,1.74-0.3c0.751,0,1.463,0.12,2.135,0.36
			c0.672,0.24,1.256,0.604,1.752,1.092c0.496,0.488,0.889,1.096,1.177,1.824c0.288,0.729,0.432,1.581,0.432,2.556
			c0,0.72-0.124,1.42-0.372,2.1s-0.62,1.284-1.115,1.812c-0.496,0.528-1.117,0.948-1.86,1.26c-0.744,0.312-1.612,0.468-2.604,0.468
			c-0.736,0-1.428-0.108-2.076-0.324c-0.647-0.216-1.22-0.528-1.715-0.936c-0.496-0.408-0.889-0.916-1.177-1.524
			c-0.288-0.608-0.44-1.296-0.456-2.064h2.04c0.032,0.432,0.14,0.836,0.324,1.212c0.184,0.376,0.433,0.704,0.744,0.984
			c0.312,0.28,0.68,0.496,1.104,0.648c0.424,0.152,0.892,0.228,1.404,0.228c0.479,0,0.939-0.084,1.38-0.252
			c0.439-0.168,0.824-0.42,1.152-0.756s0.588-0.756,0.779-1.26c0.192-0.504,0.289-1.092,0.289-1.764c0-0.56-0.093-1.076-0.277-1.548
			c-0.184-0.472-0.443-0.88-0.779-1.224c-0.336-0.344-0.74-0.612-1.212-0.804s-0.996-0.288-1.572-0.288
			c-0.672,0-1.269,0.148-1.788,0.444s-0.98,0.684-1.38,1.164l-1.752-0.096l1.584-8.832h8.399v1.8H317.916z"/>
	</g>
	<g>
		<path fill="none" stroke="#FFFFFF" stroke-width="4" stroke-miterlimit="10" d="M320.359,187.748v1.8h-2.303v3.984h-1.92v-3.984
			h-7.465v-1.968l7.752-11.064h1.633v11.232H320.359z M316.137,179.42h-0.049l-5.664,8.328h5.713V179.42z"/>
	</g>
</g>
<g>
	<g>
		<path d="M244.292,222.048c-0.752,1.168-1.42,2.417-2.004,3.744c-0.584,1.328-1.06,2.696-1.428,4.104
			c-0.368,1.408-0.592,2.776-0.672,4.104h-2.28c0.096-1.44,0.332-2.844,0.708-4.212c0.375-1.368,0.86-2.68,1.452-3.936
			c0.592-1.256,1.276-2.444,2.052-3.564c0.776-1.12,1.612-2.152,2.508-3.096H235.7v-1.92h11.016v1.752
			C245.852,219.872,245.044,220.88,244.292,222.048z"/>
	</g>
	<g>
		<path d="M393.967,238.968c0.272-0.536,0.641-0.987,1.104-1.356c0.464-0.368,0.996-0.648,1.597-0.84
			c0.6-0.192,1.227-0.288,1.883-0.288c0.929,0,1.721,0.124,2.377,0.372c0.656,0.249,1.188,0.576,1.596,0.984
			c0.408,0.408,0.708,0.873,0.9,1.392c0.191,0.52,0.287,1.052,0.287,1.596c0,0.768-0.212,1.468-0.635,2.1
			c-0.425,0.632-0.996,1.108-1.717,1.428c1.023,0.32,1.784,0.844,2.28,1.572c0.495,0.728,0.743,1.62,0.743,2.676
			c0,0.832-0.147,1.568-0.443,2.208c-0.297,0.64-0.695,1.18-1.199,1.62c-0.505,0.44-1.102,0.772-1.789,0.996
			c-0.688,0.224-1.424,0.336-2.207,0.336c-0.816,0-1.576-0.104-2.281-0.312c-0.703-0.208-1.315-0.528-1.836-0.96
			c-0.52-0.432-0.928-0.972-1.224-1.62s-0.444-1.404-0.444-2.268c0-1.008,0.256-1.884,0.769-2.628
			c0.512-0.744,1.248-1.284,2.208-1.62c-0.721-0.288-1.296-0.756-1.729-1.404c-0.432-0.648-0.647-1.356-0.647-2.124
			C393.56,240.124,393.695,239.504,393.967,238.968z M396.14,251.112c0.68,0.584,1.548,0.876,2.604,0.876
			c0.512,0,0.979-0.084,1.403-0.252c0.424-0.168,0.792-0.399,1.104-0.696c0.312-0.296,0.552-0.644,0.72-1.044s0.252-0.84,0.252-1.32
			c0-0.464-0.093-0.892-0.276-1.284s-0.436-0.732-0.756-1.02s-0.692-0.516-1.115-0.684c-0.425-0.168-0.877-0.252-1.356-0.252
			c-0.497,0-0.964,0.076-1.404,0.228c-0.44,0.152-0.824,0.372-1.151,0.66c-0.328,0.288-0.585,0.632-0.769,1.032
			c-0.185,0.4-0.276,0.848-0.276,1.344C395.119,249.724,395.459,250.528,396.14,251.112z M395.959,242.112
			c0.16,0.344,0.377,0.628,0.648,0.852c0.271,0.225,0.592,0.393,0.96,0.504c0.368,0.112,0.76,0.168,1.177,0.168
			c0.815,0,1.487-0.24,2.016-0.72c0.527-0.48,0.791-1.152,0.791-2.016c0-0.864-0.268-1.516-0.803-1.956
			c-0.537-0.44-1.221-0.66-2.053-0.66c-0.4,0-0.783,0.056-1.152,0.168c-0.367,0.112-0.684,0.28-0.947,0.504
			s-0.477,0.496-0.637,0.816c-0.16,0.32-0.239,0.696-0.239,1.128C395.72,241.364,395.799,241.768,395.959,242.112z"/>
	</g>
	<g>
		<path d="M132.32,259.607c0.224-0.736,0.572-1.371,1.044-1.908c0.472-0.535,1.06-0.955,1.764-1.26
			c0.704-0.304,1.504-0.456,2.4-0.456c0.736,0,1.428,0.108,2.076,0.324c0.648,0.216,1.212,0.528,1.692,0.937
			c0.48,0.407,0.86,0.916,1.14,1.523c0.28,0.608,0.42,1.312,0.42,2.111c0,0.753-0.116,1.416-0.348,1.992s-0.54,1.092-0.924,1.549
			c-0.384,0.455-0.824,0.867-1.32,1.235c-0.496,0.368-1.008,0.72-1.536,1.056c-0.528,0.32-1.056,0.637-1.584,0.949
			c-0.528,0.312-1.012,0.644-1.452,0.995c-0.44,0.353-0.816,0.732-1.128,1.14c-0.312,0.408-0.516,0.877-0.612,1.404h8.736V273
			h-11.112c0.08-1.008,0.26-1.868,0.54-2.58c0.279-0.713,0.636-1.332,1.068-1.86s0.92-0.991,1.464-1.392s1.112-0.776,1.704-1.129
			c0.72-0.447,1.352-0.859,1.896-1.235s0.996-0.757,1.356-1.14c0.36-0.385,0.632-0.801,0.816-1.248
			c0.184-0.448,0.276-0.969,0.276-1.561c0-0.464-0.088-0.884-0.264-1.26c-0.176-0.376-0.412-0.699-0.708-0.973
			c-0.296-0.271-0.645-0.479-1.044-0.623c-0.4-0.145-0.824-0.217-1.272-0.217c-0.592,0-1.101,0.125-1.524,0.372
			c-0.424,0.249-0.772,0.572-1.044,0.972c-0.272,0.4-0.468,0.853-0.588,1.356s-0.172,1.013-0.156,1.524h-2.04
			C132.008,261.144,132.096,260.344,132.32,259.607z"/>
	</g>
	<g>
		<path d="M399.225,160.316c0.592,0.448,1.295,0.672,2.111,0.672c1.248,0,2.184-0.54,2.809-1.62c0.623-1.08,0.967-2.732,1.031-4.956
			l-0.048-0.048c-0.384,0.72-0.929,1.292-1.632,1.716c-0.704,0.424-1.473,0.636-2.305,0.636c-0.863,0-1.631-0.14-2.303-0.42
			c-0.673-0.28-1.236-0.668-1.693-1.164c-0.455-0.496-0.8-1.096-1.031-1.8c-0.232-0.704-0.348-1.472-0.348-2.304
			c0-0.816,0.135-1.563,0.408-2.244c0.271-0.68,0.655-1.264,1.151-1.752c0.495-0.488,1.088-0.868,1.776-1.14
			c0.688-0.272,1.439-0.408,2.256-0.408c0.8,0,1.552,0.124,2.256,0.372c0.703,0.249,1.32,0.676,1.848,1.284
			c0.528,0.608,0.948,1.436,1.26,2.484c0.312,1.048,0.469,2.38,0.469,3.996c0,2.944-0.469,5.204-1.404,6.78
			c-0.936,1.576-2.436,2.364-4.5,2.364c-1.424,0-2.607-0.36-3.552-1.08c-0.944-0.72-1.48-1.816-1.608-3.288h2.04
			C398.296,159.228,398.632,159.868,399.225,160.316z M404.588,149.684c-0.152-0.464-0.376-0.876-0.672-1.236
			c-0.297-0.36-0.66-0.644-1.092-0.852s-0.936-0.312-1.512-0.312c-0.609,0-1.125,0.112-1.549,0.336s-0.768,0.524-1.031,0.9
			c-0.265,0.376-0.457,0.804-0.576,1.284c-0.12,0.48-0.18,0.984-0.18,1.512c0,0.464,0.084,0.912,0.252,1.344
			c0.168,0.432,0.399,0.816,0.695,1.152s0.648,0.604,1.057,0.804s0.859,0.3,1.355,0.3c0.527,0,1.008-0.1,1.439-0.3
			c0.433-0.2,0.801-0.472,1.104-0.816c0.304-0.344,0.536-0.744,0.696-1.2s0.24-0.932,0.24-1.428
			C404.816,150.644,404.74,150.148,404.588,149.684z"/>
	</g>
	<g>
		<path d="M243.048,135.48c-0.496-0.464-1.152-0.696-1.968-0.696c-0.864,0-1.56,0.212-2.088,0.636
			c-0.528,0.424-0.94,0.96-1.236,1.608s-0.5,1.348-0.612,2.1c-0.112,0.752-0.176,1.456-0.192,2.112l0.048,0.048
			c0.48-0.784,1.076-1.352,1.788-1.704c0.711-0.352,1.532-0.528,2.46-0.528c0.816,0,1.548,0.14,2.196,0.42
			c0.648,0.28,1.192,0.668,1.632,1.164c0.44,0.496,0.78,1.08,1.02,1.752c0.24,0.672,0.36,1.4,0.36,2.184
			c0,0.624-0.096,1.272-0.288,1.944s-0.508,1.284-0.948,1.836c-0.44,0.552-1.024,1.008-1.752,1.368c-0.728,0.36-1.628,0.54-2.7,0.54
			c-1.264,0-2.28-0.256-3.048-0.768c-0.768-0.512-1.36-1.168-1.776-1.968c-0.416-0.8-0.692-1.68-0.828-2.64
			c-0.136-0.96-0.204-1.888-0.204-2.784c0-1.168,0.1-2.3,0.3-3.396c0.2-1.096,0.54-2.068,1.02-2.916
			c0.48-0.848,1.12-1.528,1.92-2.04c0.8-0.512,1.808-0.768,3.024-0.768c1.408,0,2.528,0.372,3.36,1.116
			c0.832,0.744,1.312,1.82,1.44,3.228h-2.04C243.84,136.56,243.544,135.944,243.048,135.48z M239.352,141.156
			c-0.432,0.201-0.8,0.472-1.104,0.816c-0.304,0.344-0.532,0.752-0.684,1.224c-0.152,0.472-0.228,0.972-0.228,1.5
			c0,0.528,0.08,1.024,0.24,1.488c0.16,0.464,0.388,0.864,0.684,1.2c0.296,0.336,0.664,0.604,1.104,0.804c0.44,0.2,0.94,0.3,1.5,0.3
			s1.052-0.1,1.476-0.3c0.424-0.2,0.78-0.476,1.068-0.828c0.288-0.352,0.507-0.756,0.66-1.212c0.152-0.456,0.228-0.932,0.228-1.428
			c0-0.528-0.068-1.028-0.204-1.5c-0.136-0.472-0.348-0.88-0.636-1.224c-0.288-0.344-0.648-0.62-1.08-0.828
			c-0.432-0.208-0.936-0.312-1.512-0.312C240.288,140.856,239.784,140.956,239.352,141.156z"/>
	</g>
	<g>
		<path d="M311.448,293.304c0.079,0,0.159,0,0.239,0h0.433c0.432,0,0.844-0.06,1.235-0.181c0.393-0.119,0.736-0.295,1.033-0.527
			c0.295-0.232,0.531-0.523,0.707-0.876s0.264-0.752,0.264-1.2c0-0.912-0.287-1.596-0.863-2.053
			c-0.576-0.455-1.296-0.684-2.16-0.684c-0.544,0-1.02,0.101-1.428,0.301c-0.408,0.199-0.744,0.467-1.008,0.804
			c-0.264,0.336-0.461,0.728-0.588,1.176c-0.129,0.448-0.192,0.921-0.192,1.416h-2.04c0.031-0.815,0.164-1.56,0.396-2.231
			c0.23-0.672,0.563-1.248,0.996-1.729c0.432-0.48,0.971-0.855,1.619-1.128s1.396-0.408,2.244-0.408c0.736,0,1.42,0.093,2.053,0.276
			c0.631,0.184,1.18,0.46,1.644,0.828c0.464,0.367,0.827,0.84,1.092,1.416s0.396,1.256,0.396,2.039c0,0.769-0.224,1.449-0.672,2.041
			c-0.447,0.592-1.008,1.039-1.68,1.344v0.048c1.04,0.224,1.812,0.712,2.316,1.464s0.756,1.641,0.756,2.664
			c0,0.848-0.156,1.596-0.469,2.244c-0.312,0.648-0.731,1.188-1.26,1.619c-0.527,0.433-1.148,0.757-1.859,0.973
			c-0.713,0.216-1.469,0.324-2.269,0.324c-0.864,0-1.647-0.12-2.352-0.36c-0.704-0.239-1.305-0.596-1.8-1.067
			c-0.496-0.473-0.877-1.053-1.141-1.74s-0.388-1.473-0.371-2.352h2.039c0.032,1.104,0.352,2.004,0.961,2.699
			c0.607,0.696,1.495,1.044,2.663,1.044c0.496,0,0.968-0.075,1.416-0.228s0.841-0.368,1.177-0.648
			c0.336-0.279,0.604-0.624,0.803-1.031c0.201-0.408,0.301-0.868,0.301-1.381c0-0.527-0.096-0.996-0.288-1.404
			c-0.192-0.407-0.448-0.752-0.769-1.031s-0.699-0.488-1.14-0.624s-0.916-0.204-1.428-0.204c-0.433,0-0.84,0.023-1.224,0.072v-1.729
			C311.312,293.295,311.384,293.304,311.448,293.304z"/>
	</g>
	<g>
		<path d="M133.504,175v-12.192h-4.416v-1.632c0.576,0,1.136-0.043,1.68-0.132c0.543-0.088,1.036-0.252,1.476-0.492
			c0.44-0.24,0.812-0.567,1.116-0.984c0.304-0.416,0.512-0.944,0.624-1.584h1.56V175H133.504z"/>
	</g>
	<g>
		<path d="M212.056,64.704c0.032-0.672,0.112-1.328,0.24-1.968c0.128-0.64,0.312-1.248,0.552-1.824
			c0.24-0.576,0.567-1.08,0.984-1.512c0.416-0.432,0.94-0.776,1.572-1.032s1.388-0.384,2.268-0.384s1.636,0.128,2.268,0.384
			c0.632,0.256,1.156,0.6,1.572,1.032c0.416,0.432,0.744,0.936,0.984,1.512c0.24,0.576,0.424,1.184,0.552,1.824
			c0.128,0.64,0.208,1.296,0.24,1.968c0.032,0.672,0.048,1.32,0.048,1.944s-0.016,1.272-0.048,1.944
			c-0.032,0.672-0.112,1.329-0.24,1.968c-0.128,0.64-0.312,1.244-0.552,1.812c-0.24,0.568-0.568,1.068-0.984,1.5
			c-0.417,0.432-0.936,0.772-1.56,1.02c-0.624,0.248-1.384,0.372-2.28,0.372c-0.88,0-1.636-0.125-2.268-0.372
			c-0.632-0.248-1.156-0.588-1.572-1.02c-0.417-0.432-0.744-0.932-0.984-1.5c-0.24-0.568-0.424-1.172-0.552-1.812
			c-0.128-0.64-0.208-1.296-0.24-1.968c-0.032-0.672-0.048-1.32-0.048-1.944S212.024,65.376,212.056,64.704z M214.228,68.772
			c0.04,0.792,0.168,1.536,0.384,2.232c0.216,0.696,0.564,1.284,1.044,1.764c0.48,0.48,1.152,0.72,2.016,0.72
			c0.864,0,1.536-0.24,2.016-0.72s0.828-1.068,1.044-1.764c0.216-0.696,0.344-1.44,0.384-2.232c0.04-0.792,0.06-1.508,0.06-2.148
			c0-0.416-0.004-0.876-0.012-1.38c-0.008-0.504-0.048-1.008-0.12-1.512c-0.072-0.504-0.176-0.996-0.312-1.476
			c-0.136-0.48-0.336-0.9-0.6-1.26c-0.264-0.36-0.596-0.652-0.996-0.876c-0.4-0.224-0.888-0.336-1.464-0.336
			c-0.576,0-1.064,0.112-1.464,0.336s-0.732,0.516-0.996,0.876c-0.264,0.36-0.464,0.78-0.6,1.26s-0.24,0.972-0.312,1.476
			c-0.072,0.504-0.112,1.008-0.12,1.512c-0.008,0.504-0.012,0.964-0.012,1.38C214.168,67.264,214.188,67.98,214.228,68.772z"/>
	</g>
	<g>
		<path d="M317.916,49.072l-0.912,4.896l0.048,0.048c0.368-0.416,0.844-0.724,1.429-0.924c0.584-0.2,1.164-0.3,1.74-0.3
			c0.751,0,1.463,0.12,2.135,0.36c0.672,0.24,1.256,0.604,1.752,1.092c0.496,0.488,0.889,1.096,1.177,1.824
			c0.288,0.729,0.432,1.581,0.432,2.556c0,0.72-0.124,1.42-0.372,2.1s-0.62,1.284-1.115,1.812c-0.496,0.528-1.117,0.948-1.86,1.26
			c-0.744,0.312-1.612,0.468-2.604,0.468c-0.736,0-1.428-0.108-2.076-0.324c-0.647-0.216-1.22-0.528-1.715-0.936
			c-0.496-0.408-0.889-0.916-1.177-1.524c-0.288-0.608-0.44-1.296-0.456-2.064h2.04c0.032,0.432,0.14,0.836,0.324,1.212
			c0.184,0.376,0.433,0.704,0.744,0.984c0.312,0.28,0.68,0.496,1.104,0.648c0.424,0.152,0.892,0.228,1.404,0.228
			c0.479,0,0.939-0.084,1.38-0.252c0.439-0.168,0.824-0.42,1.152-0.756s0.588-0.756,0.779-1.26c0.192-0.504,0.289-1.092,0.289-1.764
			c0-0.56-0.093-1.076-0.277-1.548c-0.184-0.472-0.443-0.88-0.779-1.224c-0.336-0.344-0.74-0.612-1.212-0.804
			s-0.996-0.288-1.572-0.288c-0.672,0-1.269,0.148-1.788,0.444s-0.98,0.684-1.38,1.164l-1.752-0.096l1.584-8.832h8.399v1.8H317.916z
			"/>
	</g>
	<g>
		<path d="M320.359,187.748v1.8h-2.303v3.984h-1.92v-3.984h-7.465v-1.968l7.752-11.064h1.633v11.232H320.359z M316.137,179.42
			h-0.049l-5.664,8.328h5.713V179.42z"/>
	</g>
</g>
</svg>
