# Exported from Wings 3D 0.98.23b
mtllib thirteen-box.mtl
o cube1
#8 vertices, 6 faces
v -1.00000 -1.00000 1.00000
v -1.00000 1.00000 1.00000
v 1.00000 1.00000 1.00000
v 1.00000 -1.00000 1.00000
v -1.00000 -1.00000 -1.00000
v -1.00000 1.00000 -1.00000
v 1.00000 1.00000 -1.00000
v 1.00000 -1.00000 -1.00000
vt 0.00000e+0 1.32679e-6
vt 0.00000e+0 0.999997
vt 6.63394e-7 0.999998
vt 6.63394e-7 1.99019e-6
vt 6.63396e-7 6.63396e-7
vt 6.63396e-7 0.999999
vt 1.32679e-6 1.00000
vt 1.99019e-6 6.63394e-7
vt 1.99019e-6 0.999999
vt 2.65358e-6 0.00000e+0
vt 0.999997 1.00000
vt 0.999998 0.999999
vt 0.999998 6.63394e-7
vt 0.999999 0.00000e+0
vt 0.999999 6.63396e-7
vt 0.999999 0.999999
vt 0.999999 1.99019e-6
vt 0.999999 0.999998
vt 1.000000 2.65358e-6
vt 1.00000 0.999999
vn 0.00000e+0 0.00000e+0 1.00000
vn -1.00000 0.00000e+0 0.00000e+0
vn 0.00000e+0 -1.00000 0.00000e+0
vn 0.00000e+0 0.00000e+0 1.00000
vn -1.00000 0.00000e+0 0.00000e+0
vn 0.00000e+0 1.00000 0.00000e+0
vn 0.00000e+0 0.00000e+0 1.00000
vn 0.00000e+0 1.00000 0.00000e+0
vn 1.00000 0.00000e+0 0.00000e+0
vn 0.00000e+0 0.00000e+0 1.00000
vn 1.00000 0.00000e+0 0.00000e+0
vn 0.00000e+0 -1.00000 0.00000e+0
vn -1.00000 0.00000e+0 0.00000e+0
vn 0.00000e+0 -1.00000 0.00000e+0
vn 0.00000e+0 0.00000e+0 -1.00000
vn -1.00000 0.00000e+0 0.00000e+0
vn 0.00000e+0 1.00000 0.00000e+0
vn 0.00000e+0 0.00000e+0 -1.00000
vn 0.00000e+0 1.00000 0.00000e+0
vn 1.00000 0.00000e+0 0.00000e+0
vn 0.00000e+0 0.00000e+0 -1.00000
vn 1.00000 0.00000e+0 0.00000e+0
vn 0.00000e+0 -1.00000 0.00000e+0
vn 0.00000e+0 0.00000e+0 -1.00000
g cube1_cube1_auv
usemtl thirteen
f 6/2/17 2/10/6 3/19/8 7/11/19
f 3/20/7 2/7/4 1/1/1 4/14/10
f 7/18/20 3/9/9 4/4/11 8/13/22
f 8/5/24 5/15/15 6/16/18 7/6/21
f 5/8/13 1/17/2 2/12/5 6/3/16
f 8/11/23 4/2/12 1/10/3 5/19/14
