<?xml version="1.0" encoding="utf-8"?>
<!-- Generator: Adobe Illustrator 15.1.0, SVG Export Plug-In . SVG Version: 6.00 Build 0)  -->
<svg version="1.2" baseProfile="tiny" id="Layer_1" xmlns="http://www.w3.org/2000/svg" xmlns:xlink="http://www.w3.org/1999/xlink"
	 x="0px" y="0px" width="277.629px" height="312.499px" viewBox="0 0 277.629 312.499" overflow="inherit" xml:space="preserve">
<polygon fill="#00FF00" points="159.597,171.25 232.345,129.25 232.345,117.25 159.599,159.25 "/>
<polygon fill="#FFFF00" points="159.599,267.249 232.345,225.249 232.345,213.251 159.599,255.249 "/>
<polygon fill="#0000FF" points="159.599,255.249 159.597,171.25 149.206,177.25 149.206,261.249 "/>
<polygon fill="#00FFFF" points="242.738,207.25 242.738,123.25 232.345,129.25 232.345,213.251 "/>
<polygon fill="#FF0000" points="159.599,255.249 159.597,171.25 232.345,129.25 232.345,213.251 "/>
<g>
	
		<line fill="none" stroke="#231F20" stroke-linecap="round" stroke-miterlimit="10" x1="149.206" y1="273.249" x2="149.206" y2="165.25"/>
	
		<line fill="none" stroke="#231F20" stroke-linecap="round" stroke-miterlimit="10" x1="159.599" y1="267.249" x2="159.599" y2="159.25"/>
	
		<line fill="none" stroke="#231F20" stroke-linecap="round" stroke-miterlimit="10" x1="169.99" y1="261.249" x2="169.99" y2="153.25"/>
	
		<line fill="none" stroke="#231F20" stroke-linecap="round" stroke-miterlimit="10" x1="180.384" y1="255.249" x2="180.384" y2="147.25"/>
	
		<line fill="none" stroke="#231F20" stroke-linecap="round" stroke-miterlimit="10" x1="190.775" y1="249.249" x2="190.775" y2="141.25"/>
	
		<line fill="none" stroke="#231F20" stroke-linecap="round" stroke-miterlimit="10" x1="201.168" y1="243.249" x2="201.168" y2="135.25"/>
	
		<line fill="none" stroke="#231F20" stroke-linecap="round" stroke-miterlimit="10" x1="211.561" y1="237.249" x2="211.561" y2="129.25"/>
	
		<line fill="none" stroke="#231F20" stroke-linecap="round" stroke-miterlimit="10" x1="221.953" y1="231.249" x2="221.953" y2="123.25"/>
	
		<line fill="none" stroke="#231F20" stroke-linecap="round" stroke-miterlimit="10" x1="232.345" y1="225.249" x2="232.345" y2="117.25"/>
	
		<line fill="none" stroke="#231F20" stroke-linecap="round" stroke-miterlimit="10" x1="242.738" y1="219.249" x2="242.738" y2="111.25"/>
</g>
<g>
	
		<line fill="none" stroke="#231F20" stroke-linecap="round" stroke-miterlimit="10" x1="242.738" y1="111.249" x2="149.206" y2="165.249"/>
	
		<line fill="none" stroke="#231F20" stroke-linecap="round" stroke-miterlimit="10" x1="242.738" y1="123.25" x2="149.206" y2="177.25"/>
	
		<line fill="none" stroke="#231F20" stroke-linecap="round" stroke-miterlimit="10" x1="242.738" y1="135.249" x2="149.206" y2="189.249"/>
	
		<line fill="none" stroke="#231F20" stroke-linecap="round" stroke-miterlimit="10" x1="242.738" y1="147.25" x2="149.206" y2="201.25"/>
	
		<line fill="none" stroke="#231F20" stroke-linecap="round" stroke-miterlimit="10" x1="242.738" y1="159.249" x2="149.206" y2="213.249"/>
	
		<line fill="none" stroke="#231F20" stroke-linecap="round" stroke-miterlimit="10" x1="242.738" y1="171.25" x2="149.207" y2="225.249"/>
	
		<line fill="none" stroke="#231F20" stroke-linecap="round" stroke-miterlimit="10" x1="242.738" y1="183.25" x2="149.206" y2="237.249"/>
	
		<line fill="none" stroke="#231F20" stroke-linecap="round" stroke-miterlimit="10" x1="242.738" y1="195.25" x2="149.207" y2="249.249"/>
	
		<line fill="none" stroke="#231F20" stroke-linecap="round" stroke-miterlimit="10" x1="242.738" y1="207.25" x2="149.206" y2="261.249"/>
	
		<line fill="none" stroke="#231F20" stroke-linecap="round" stroke-miterlimit="10" x1="242.738" y1="219.249" x2="149.207" y2="273.249"/>
</g>
<polygon fill="#00FF00" points="45.283,117.25 45.284,129.25 118.03,171.25 118.03,159.25 "/>
<polygon fill="#FFFF00" points="45.283,213.249 45.283,225.249 118.03,267.249 118.028,255.249 "/>
<polygon fill="#FF0000" points="128.422,177.25 118.03,171.25 118.028,255.249 128.422,261.249 "/>
<polygon fill="#FF00FF" points="45.284,129.25 34.891,123.25 34.892,207.25 45.283,213.249 "/>
<polygon fill="#0000FF" points="45.284,129.25 45.283,213.249 118.028,255.249 118.03,171.25 "/>
<g>
	
		<line fill="none" stroke="#231F20" stroke-linecap="round" stroke-miterlimit="10" x1="34.892" y1="219.249" x2="34.892" y2="111.25"/>
	
		<line fill="none" stroke="#231F20" stroke-linecap="round" stroke-miterlimit="10" x1="45.283" y1="225.249" x2="45.283" y2="117.25"/>
	
		<line fill="none" stroke="#231F20" stroke-linecap="round" stroke-miterlimit="10" x1="55.677" y1="231.249" x2="55.677" y2="123.25"/>
	
		<line fill="none" stroke="#231F20" stroke-linecap="round" stroke-miterlimit="10" x1="66.068" y1="237.249" x2="66.068" y2="129.25"/>
	
		<line fill="none" stroke="#231F20" stroke-linecap="round" stroke-miterlimit="10" x1="76.461" y1="243.249" x2="76.461" y2="135.25"/>
	
		<line fill="none" stroke="#231F20" stroke-linecap="round" stroke-miterlimit="10" x1="86.854" y1="249.249" x2="86.854" y2="141.25"/>
	
		<line fill="none" stroke="#231F20" stroke-linecap="round" stroke-miterlimit="10" x1="97.246" y1="255.249" x2="97.246" y2="147.25"/>
	
		<line fill="none" stroke="#231F20" stroke-linecap="round" stroke-miterlimit="10" x1="107.638" y1="261.249" x2="107.638" y2="153.25"/>
	
		<line fill="none" stroke="#231F20" stroke-linecap="round" stroke-miterlimit="10" x1="118.03" y1="267.249" x2="118.03" y2="159.25"/>
	
		<line fill="none" stroke="#231F20" stroke-linecap="round" stroke-miterlimit="10" x1="128.423" y1="273.249" x2="128.423" y2="165.25"/>
</g>
<g>
	
		<line fill="none" stroke="#231F20" stroke-linecap="round" stroke-miterlimit="10" x1="34.892" y1="111.25" x2="128.422" y2="165.249"/>
	
		<line fill="none" stroke="#231F20" stroke-linecap="round" stroke-miterlimit="10" x1="34.891" y1="123.25" x2="128.422" y2="177.25"/>
	
		<line fill="none" stroke="#231F20" stroke-linecap="round" stroke-miterlimit="10" x1="34.892" y1="135.25" x2="128.422" y2="189.249"/>
	
		<line fill="none" stroke="#231F20" stroke-linecap="round" stroke-miterlimit="10" x1="34.892" y1="147.25" x2="128.422" y2="201.25"/>
	
		<line fill="none" stroke="#231F20" stroke-linecap="round" stroke-miterlimit="10" x1="34.892" y1="159.25" x2="128.422" y2="213.249"/>
	
		<line fill="none" stroke="#231F20" stroke-linecap="round" stroke-miterlimit="10" x1="34.892" y1="171.25" x2="128.422" y2="225.249"/>
	
		<line fill="none" stroke="#231F20" stroke-linecap="round" stroke-miterlimit="10" x1="34.892" y1="183.25" x2="128.422" y2="237.249"/>
	
		<line fill="none" stroke="#231F20" stroke-linecap="round" stroke-miterlimit="10" x1="34.892" y1="195.251" x2="128.422" y2="249.249"/>
	
		<line fill="none" stroke="#231F20" stroke-linecap="round" stroke-miterlimit="10" x1="34.892" y1="207.25" x2="128.422" y2="261.249"/>
	
		<line fill="none" stroke="#231F20" stroke-linecap="round" stroke-miterlimit="10" x1="34.892" y1="219.251" x2="128.422" y2="273.249"/>
</g>
<polygon fill="#0000FF" points="66.069,93.25 55.675,99.25 128.421,141.25 138.814,135.249 "/>
<polygon fill="#00FFFF" points="149.208,45.25 138.814,51.25 211.562,93.249 221.953,87.25 "/>
<polygon fill="#FF0000" points="211.562,93.249 138.814,135.249 149.206,141.25 221.95,99.248 "/>
<polygon fill="#FF00FF" points="128.421,45.25 55.675,87.25 66.069,93.25 138.814,51.25 "/>
<polygon fill="#00FF00" points="138.814,51.25 211.562,93.249 138.814,135.249 66.069,93.25 "/>
<g>
	
		<line fill="none" stroke="#231F20" stroke-linecap="round" stroke-miterlimit="10" x1="138.813" y1="39.25" x2="232.345" y2="93.25"/>
	
		<line fill="none" stroke="#231F20" stroke-linecap="round" stroke-miterlimit="10" x1="128.421" y1="45.25" x2="221.953" y2="99.25"/>
	
		<line fill="none" stroke="#231F20" stroke-linecap="round" stroke-miterlimit="10" x1="118.029" y1="51.25" x2="211.559" y2="105.25"/>
	
		<line fill="none" stroke="#231F20" stroke-linecap="round" stroke-miterlimit="10" x1="107.638" y1="57.25" x2="201.167" y2="111.25"/>
	
		<line fill="none" stroke="#231F20" stroke-linecap="round" stroke-miterlimit="10" x1="97.244" y1="63.25" x2="190.775" y2="117.25"/>
	
		<line fill="none" stroke="#231F20" stroke-linecap="round" stroke-miterlimit="10" x1="86.853" y1="69.25" x2="180.384" y2="123.249"/>
	
		<line fill="none" stroke="#231F20" stroke-linecap="round" stroke-miterlimit="10" x1="76.46" y1="75.25" x2="169.992" y2="129.25"/>
	
		<line fill="none" stroke="#231F20" stroke-linecap="round" stroke-miterlimit="10" x1="66.068" y1="81.25" x2="159.599" y2="135.249"/>
	
		<line fill="none" stroke="#231F20" stroke-linecap="round" stroke-miterlimit="10" x1="55.675" y1="87.25" x2="149.206" y2="141.25"/>
	
		<line fill="none" stroke="#231F20" stroke-linecap="round" stroke-miterlimit="10" x1="45.283" y1="93.249" x2="138.813" y2="147.249"/>
</g>
<g>
	
		<line fill="none" stroke="#231F20" stroke-linecap="round" stroke-miterlimit="10" x1="138.813" y1="39.25" x2="45.283" y2="93.25"/>
	
		<line fill="none" stroke="#231F20" stroke-linecap="round" stroke-miterlimit="10" x1="149.206" y1="45.25" x2="55.675" y2="99.25"/>
	
		<line fill="none" stroke="#231F20" stroke-linecap="round" stroke-miterlimit="10" x1="159.599" y1="51.25" x2="66.068" y2="105.25"/>
	
		<line fill="none" stroke="#231F20" stroke-linecap="round" stroke-miterlimit="10" x1="169.992" y1="57.25" x2="76.46" y2="111.25"/>
	
		<line fill="none" stroke="#231F20" stroke-linecap="round" stroke-miterlimit="10" x1="180.384" y1="63.25" x2="86.853" y2="117.25"/>
	
		<line fill="none" stroke="#231F20" stroke-linecap="round" stroke-miterlimit="10" x1="190.775" y1="69.25" x2="97.244" y2="123.249"/>
	
		<line fill="none" stroke="#231F20" stroke-linecap="round" stroke-miterlimit="10" x1="201.167" y1="75.25" x2="107.636" y2="129.25"/>
	
		<line fill="none" stroke="#231F20" stroke-linecap="round" stroke-miterlimit="10" x1="118.028" y1="135.249" x2="211.559" y2="81.25"/>
	
		<line fill="none" stroke="#231F20" stroke-linecap="round" stroke-miterlimit="10" x1="221.953" y1="87.25" x2="128.421" y2="141.25"/>
	
		<line fill="none" stroke="#231F20" stroke-linecap="round" stroke-miterlimit="10" x1="232.345" y1="93.249" x2="138.813" y2="147.249"/>
</g>
</svg>
