<?xml version="1.0" encoding="utf-8"?>
<!-- Generator: Adobe Illustrator 15.1.0, SVG Export Plug-In . SVG Version: 6.00 Build 0)  -->
<svg version="1.2" baseProfile="tiny" id="Layer_1" xmlns="http://www.w3.org/2000/svg" xmlns:xlink="http://www.w3.org/1999/xlink"
	 x="0px" y="0px" width="401px" height="301px" viewBox="0 0 401 301" overflow="inherit" xml:space="preserve">
<rect x="100.5" y="0.5" fill="#FFFFFF" width="100" height="100"/>
<rect x="0.5" y="100.5" fill="#FFFFFF" width="100" height="100"/>
<rect x="100.5" y="100.5" fill="#FFFFFF" width="100" height="100"/>
<rect x="200.5" y="100.5" fill="#FFFFFF" width="100" height="100"/>
<rect x="300.5" y="100.5" fill="#FFFFFF" width="100" height="100"/>
<rect x="100.5" y="200.5" fill="#FFFFFF" width="100" height="100"/>
<g>
	<polygon fill="#00FF00" points="100.5,100.5 100.5,200.5 120.5,180.5 110.5,180.5 110.5,110.5 	"/>
	<polygon fill="#D9FFD9" points="200.5,100.5 200.5,200.5 180.5,180.5 190.5,180.5 190.5,110.5 	"/>
	<polygon fill="#FFD9D9" points="100.5,200.5 200.5,200.5 180.5,180.5 180.5,190.5 110.5,190.5 	"/>
	<polygon fill="#FF0000" points="100.5,100.5 200.5,100.5 180.5,120.5 180.5,110.5 110.5,110.5 	"/>
	<rect x="100.5" y="100.5" fill="none" stroke="#231F20" stroke-miterlimit="10" width="100" height="100"/>
</g>
<g>
	<polygon fill="#00FF00" points="200.5,100.5 200.5,200.5 220.5,180.5 210.5,180.5 210.5,110.5 	"/>
	<polygon fill="#D9FFD9" points="300.5,100.5 300.5,200.5 280.5,180.5 290.5,180.5 290.5,110.5 	"/>
	<polygon fill="#FFD9D9" points="200.5,200.5 300.5,200.5 280.5,180.5 280.5,190.5 210.5,190.5 	"/>
	<polygon fill="#FF0000" points="200.5,100.5 300.5,100.5 280.5,120.5 280.5,110.5 210.5,110.5 	"/>
	<rect x="200.5" y="100.5" fill="none" stroke="#231F20" stroke-miterlimit="10" width="100" height="100"/>
</g>
<text transform="matrix(1 0 0 1 140.1494 160.5)" font-family="'FuturaStd-Heavy'" font-size="36">Z</text>
<text transform="matrix(1 0 0 1 145.2979 180.5)" font-family="'FuturaStd-Heavy'" font-size="18">4</text>
<text transform="matrix(1 0 0 1 239.2856 160.5)" font-family="'FuturaStd-Heavy'" font-size="36">X</text>
<text transform="matrix(1 0 0 1 245.2983 180.5)" font-family="'FuturaStd-Heavy'" font-size="18">0</text>
<g>
	<polygon fill="#00FF00" points="0.5,100.5 0.5,200.5 20.5,180.5 10.5,180.5 10.5,110.5 	"/>
	<polygon fill="#D9FFD9" points="100.5,100.5 100.5,200.5 80.5,180.5 90.5,180.5 90.5,110.5 	"/>
	<polygon fill="#FFD9D9" points="0.5,200.5 100.5,200.5 80.5,180.5 80.5,190.5 10.5,190.5 	"/>
	<polygon fill="#FF0000" points="0.5,100.5 100.5,100.5 80.5,120.5 80.5,110.5 10.5,110.5 	"/>
	<rect x="0.5" y="100.5" fill="none" stroke="#231F20" stroke-miterlimit="10" width="100" height="100"/>
</g>
<text transform="matrix(1 0 0 1 39.2856 160.5)" font-family="'FuturaStd-Heavy'" font-size="36">X</text>
<text transform="matrix(1 0 0 1 45.2979 180.5)" font-family="'FuturaStd-Heavy'" font-size="18">1</text>
<g>
	<polygon fill="#00FF00" points="100.5,0.5 100.5,100.5 120.5,80.5 110.5,80.5 110.5,10.5 	"/>
	<polygon fill="#D9FFD9" points="200.5,0.5 200.5,100.5 180.5,80.5 190.5,80.5 190.5,10.5 	"/>
	<polygon fill="#FFD9D9" points="100.5,100.5 200.5,100.5 180.5,80.5 180.5,90.5 110.5,90.5 	"/>
	<polygon fill="#FF0000" points="100.5,0.5 200.5,0.5 180.5,20.5 180.5,10.5 110.5,10.5 	"/>
	<rect x="100.5" y="0.5" fill="none" stroke="#231F20" stroke-miterlimit="10" width="100" height="100"/>
</g>
<text transform="matrix(1 0 0 1 139.9336 60.5)" font-family="'FuturaStd-Heavy'" font-size="36">Y</text>
<text transform="matrix(1 0 0 1 145.2979 80.5)" font-family="'FuturaStd-Heavy'" font-size="18">2</text>
<g>
	<polygon fill="#00FF00" points="100.5,200.5 100.5,300.5 120.5,280.5 110.5,280.5 110.5,210.5 	"/>
	<polygon fill="#D9FFD9" points="200.5,200.5 200.5,300.5 180.5,280.5 190.5,280.5 190.5,210.5 	"/>
	<polygon fill="#FFD9D9" points="100.5,300.5 200.5,300.5 180.5,280.5 180.5,290.5 110.5,290.5 	"/>
	<polygon fill="#FF0000" points="100.5,200.5 200.5,200.5 180.5,220.5 180.5,210.5 110.5,210.5 	"/>
	<rect x="100.5" y="200.5" fill="none" stroke="#231F20" stroke-miterlimit="10" width="100" height="100"/>
</g>
<text transform="matrix(1 0 0 1 139.9336 260.5)" font-family="'FuturaStd-Heavy'" font-size="36">Y</text>
<text transform="matrix(1 0 0 1 145.2979 280.5)" font-family="'FuturaStd-Heavy'" font-size="18">3</text>
<g>
	<polygon fill="#00FF00" points="300.5,100.5 300.5,200.5 320.5,180.5 310.5,180.5 310.5,110.5 	"/>
	<polygon fill="#D9FFD9" points="400.5,100.5 400.5,200.5 380.5,180.5 390.5,180.5 390.5,110.5 	"/>
	<polygon fill="#FFD9D9" points="300.5,200.5 400.5,200.5 380.5,180.5 380.5,190.5 310.5,190.5 	"/>
	<polygon fill="#FF0000" points="300.5,100.5 400.5,100.5 380.5,120.5 380.5,110.5 310.5,110.5 	"/>
	<rect x="300.5" y="100.5" fill="none" stroke="#231F20" stroke-miterlimit="10" width="100" height="100"/>
</g>
<text transform="matrix(1 0 0 1 340.1499 160.5)" font-family="'FuturaStd-Heavy'" font-size="36">Z</text>
<text transform="matrix(1 0 0 1 345.2983 180.5)" font-family="'FuturaStd-Heavy'" font-size="18">5</text>
<text transform="matrix(1 0 0 1 120.0957 60.5)" font-family="'FuturaStd-Heavy'" font-size="36">+</text>
<text transform="matrix(1 0 0 1 120.0957 160.5)" font-family="'FuturaStd-Heavy'" font-size="36">+</text>
<text transform="matrix(1 0 0 1 220.0952 160.5)" font-family="'FuturaStd-Heavy'" font-size="36">+</text>
<text transform="matrix(1 0 0 1 20.0957 160.5)" font-family="'FuturaStd-Heavy'" font-size="36">−</text>
<text transform="matrix(1 0 0 1 320.0952 160.5)" font-family="'FuturaStd-Heavy'" font-size="36">−</text>
<text transform="matrix(1 0 0 1 120.0957 260.5)" font-family="'FuturaStd-Heavy'" font-size="36">−</text>
</svg>
